%TF.GenerationSoftware,KiCad,Pcbnew,8.0.1*%
%TF.CreationDate,2024-06-26T21:16:35+01:00*%
%TF.ProjectId,MINI_TRUNK_6_INSULATOR,4d494e49-5f54-4525-954e-4b5f365f494e,rev?*%
%TF.SameCoordinates,Original*%
%TF.FileFunction,Drillmap*%
%TF.FilePolarity,Positive*%
%FSLAX45Y45*%
G04 Gerber Fmt 4.5, Leading zero omitted, Abs format (unit mm)*
G04 Created by KiCad (PCBNEW 8.0.1) date 2024-06-26 21:16:35*
%MOMM*%
%LPD*%
G01*
G04 APERTURE LIST*
%ADD10C,0.050000*%
%ADD11C,0.200000*%
%ADD12C,0.320000*%
G04 APERTURE END LIST*
D10*
X19627500Y-10377000D02*
X10396500Y-10377000D01*
X20152500Y-8731000D02*
X19627500Y-10377000D01*
X9925500Y-8731000D02*
X10396500Y-10377000D01*
X9925500Y-8731000D02*
X20152500Y-8731000D01*
D11*
D12*
X11136500Y-9178000D02*
X11456500Y-9498000D01*
X11456500Y-9178000D02*
X11136500Y-9498000D01*
X18621500Y-9178000D02*
X18941500Y-9498000D01*
X18941500Y-9178000D02*
X18621500Y-9498000D01*
D11*
X10183777Y-10690984D02*
X10183777Y-10490984D01*
X10183777Y-10490984D02*
X10231396Y-10490984D01*
X10231396Y-10490984D02*
X10259967Y-10500508D01*
X10259967Y-10500508D02*
X10279015Y-10519555D01*
X10279015Y-10519555D02*
X10288539Y-10538603D01*
X10288539Y-10538603D02*
X10298063Y-10576698D01*
X10298063Y-10576698D02*
X10298063Y-10605270D01*
X10298063Y-10605270D02*
X10288539Y-10643365D01*
X10288539Y-10643365D02*
X10279015Y-10662412D01*
X10279015Y-10662412D02*
X10259967Y-10681460D01*
X10259967Y-10681460D02*
X10231396Y-10690984D01*
X10231396Y-10690984D02*
X10183777Y-10690984D01*
X10383777Y-10690984D02*
X10383777Y-10557650D01*
X10383777Y-10595746D02*
X10393301Y-10576698D01*
X10393301Y-10576698D02*
X10402824Y-10567174D01*
X10402824Y-10567174D02*
X10421872Y-10557650D01*
X10421872Y-10557650D02*
X10440920Y-10557650D01*
X10507586Y-10690984D02*
X10507586Y-10557650D01*
X10507586Y-10490984D02*
X10498063Y-10500508D01*
X10498063Y-10500508D02*
X10507586Y-10510031D01*
X10507586Y-10510031D02*
X10517110Y-10500508D01*
X10517110Y-10500508D02*
X10507586Y-10490984D01*
X10507586Y-10490984D02*
X10507586Y-10510031D01*
X10631396Y-10690984D02*
X10612348Y-10681460D01*
X10612348Y-10681460D02*
X10602824Y-10662412D01*
X10602824Y-10662412D02*
X10602824Y-10490984D01*
X10736158Y-10690984D02*
X10717110Y-10681460D01*
X10717110Y-10681460D02*
X10707586Y-10662412D01*
X10707586Y-10662412D02*
X10707586Y-10490984D01*
X10964729Y-10690984D02*
X10964729Y-10490984D01*
X10964729Y-10490984D02*
X11031396Y-10633841D01*
X11031396Y-10633841D02*
X11098063Y-10490984D01*
X11098063Y-10490984D02*
X11098063Y-10690984D01*
X11279015Y-10690984D02*
X11279015Y-10586222D01*
X11279015Y-10586222D02*
X11269491Y-10567174D01*
X11269491Y-10567174D02*
X11250443Y-10557650D01*
X11250443Y-10557650D02*
X11212348Y-10557650D01*
X11212348Y-10557650D02*
X11193301Y-10567174D01*
X11279015Y-10681460D02*
X11259967Y-10690984D01*
X11259967Y-10690984D02*
X11212348Y-10690984D01*
X11212348Y-10690984D02*
X11193301Y-10681460D01*
X11193301Y-10681460D02*
X11183777Y-10662412D01*
X11183777Y-10662412D02*
X11183777Y-10643365D01*
X11183777Y-10643365D02*
X11193301Y-10624317D01*
X11193301Y-10624317D02*
X11212348Y-10614793D01*
X11212348Y-10614793D02*
X11259967Y-10614793D01*
X11259967Y-10614793D02*
X11279015Y-10605270D01*
X11374253Y-10557650D02*
X11374253Y-10757650D01*
X11374253Y-10567174D02*
X11393301Y-10557650D01*
X11393301Y-10557650D02*
X11431396Y-10557650D01*
X11431396Y-10557650D02*
X11450443Y-10567174D01*
X11450443Y-10567174D02*
X11459967Y-10576698D01*
X11459967Y-10576698D02*
X11469491Y-10595746D01*
X11469491Y-10595746D02*
X11469491Y-10652889D01*
X11469491Y-10652889D02*
X11459967Y-10671936D01*
X11459967Y-10671936D02*
X11450443Y-10681460D01*
X11450443Y-10681460D02*
X11431396Y-10690984D01*
X11431396Y-10690984D02*
X11393301Y-10690984D01*
X11393301Y-10690984D02*
X11374253Y-10681460D01*
X11555205Y-10671936D02*
X11564729Y-10681460D01*
X11564729Y-10681460D02*
X11555205Y-10690984D01*
X11555205Y-10690984D02*
X11545682Y-10681460D01*
X11545682Y-10681460D02*
X11555205Y-10671936D01*
X11555205Y-10671936D02*
X11555205Y-10690984D01*
X11555205Y-10567174D02*
X11564729Y-10576698D01*
X11564729Y-10576698D02*
X11555205Y-10586222D01*
X11555205Y-10586222D02*
X11545682Y-10576698D01*
X11545682Y-10576698D02*
X11555205Y-10567174D01*
X11555205Y-10567174D02*
X11555205Y-10586222D01*
X9723000Y-10919500D02*
X9923000Y-11119500D01*
X9923000Y-10919500D02*
X9723000Y-11119500D01*
X10164729Y-10910984D02*
X10288539Y-10910984D01*
X10288539Y-10910984D02*
X10221872Y-10987174D01*
X10221872Y-10987174D02*
X10250444Y-10987174D01*
X10250444Y-10987174D02*
X10269491Y-10996698D01*
X10269491Y-10996698D02*
X10279015Y-11006222D01*
X10279015Y-11006222D02*
X10288539Y-11025270D01*
X10288539Y-11025270D02*
X10288539Y-11072889D01*
X10288539Y-11072889D02*
X10279015Y-11091936D01*
X10279015Y-11091936D02*
X10269491Y-11101460D01*
X10269491Y-11101460D02*
X10250444Y-11110984D01*
X10250444Y-11110984D02*
X10193301Y-11110984D01*
X10193301Y-11110984D02*
X10174253Y-11101460D01*
X10174253Y-11101460D02*
X10164729Y-11091936D01*
X10374253Y-11091936D02*
X10383777Y-11101460D01*
X10383777Y-11101460D02*
X10374253Y-11110984D01*
X10374253Y-11110984D02*
X10364729Y-11101460D01*
X10364729Y-11101460D02*
X10374253Y-11091936D01*
X10374253Y-11091936D02*
X10374253Y-11110984D01*
X10459967Y-10930031D02*
X10469491Y-10920508D01*
X10469491Y-10920508D02*
X10488539Y-10910984D01*
X10488539Y-10910984D02*
X10536158Y-10910984D01*
X10536158Y-10910984D02*
X10555205Y-10920508D01*
X10555205Y-10920508D02*
X10564729Y-10930031D01*
X10564729Y-10930031D02*
X10574253Y-10949079D01*
X10574253Y-10949079D02*
X10574253Y-10968127D01*
X10574253Y-10968127D02*
X10564729Y-10996698D01*
X10564729Y-10996698D02*
X10450444Y-11110984D01*
X10450444Y-11110984D02*
X10574253Y-11110984D01*
X10698063Y-10910984D02*
X10717110Y-10910984D01*
X10717110Y-10910984D02*
X10736158Y-10920508D01*
X10736158Y-10920508D02*
X10745682Y-10930031D01*
X10745682Y-10930031D02*
X10755205Y-10949079D01*
X10755205Y-10949079D02*
X10764729Y-10987174D01*
X10764729Y-10987174D02*
X10764729Y-11034793D01*
X10764729Y-11034793D02*
X10755205Y-11072889D01*
X10755205Y-11072889D02*
X10745682Y-11091936D01*
X10745682Y-11091936D02*
X10736158Y-11101460D01*
X10736158Y-11101460D02*
X10717110Y-11110984D01*
X10717110Y-11110984D02*
X10698063Y-11110984D01*
X10698063Y-11110984D02*
X10679015Y-11101460D01*
X10679015Y-11101460D02*
X10669491Y-11091936D01*
X10669491Y-11091936D02*
X10659967Y-11072889D01*
X10659967Y-11072889D02*
X10650444Y-11034793D01*
X10650444Y-11034793D02*
X10650444Y-10987174D01*
X10650444Y-10987174D02*
X10659967Y-10949079D01*
X10659967Y-10949079D02*
X10669491Y-10930031D01*
X10669491Y-10930031D02*
X10679015Y-10920508D01*
X10679015Y-10920508D02*
X10698063Y-10910984D01*
X10888539Y-10910984D02*
X10907586Y-10910984D01*
X10907586Y-10910984D02*
X10926634Y-10920508D01*
X10926634Y-10920508D02*
X10936158Y-10930031D01*
X10936158Y-10930031D02*
X10945682Y-10949079D01*
X10945682Y-10949079D02*
X10955205Y-10987174D01*
X10955205Y-10987174D02*
X10955205Y-11034793D01*
X10955205Y-11034793D02*
X10945682Y-11072889D01*
X10945682Y-11072889D02*
X10936158Y-11091936D01*
X10936158Y-11091936D02*
X10926634Y-11101460D01*
X10926634Y-11101460D02*
X10907586Y-11110984D01*
X10907586Y-11110984D02*
X10888539Y-11110984D01*
X10888539Y-11110984D02*
X10869491Y-11101460D01*
X10869491Y-11101460D02*
X10859967Y-11091936D01*
X10859967Y-11091936D02*
X10850444Y-11072889D01*
X10850444Y-11072889D02*
X10840920Y-11034793D01*
X10840920Y-11034793D02*
X10840920Y-10987174D01*
X10840920Y-10987174D02*
X10850444Y-10949079D01*
X10850444Y-10949079D02*
X10859967Y-10930031D01*
X10859967Y-10930031D02*
X10869491Y-10920508D01*
X10869491Y-10920508D02*
X10888539Y-10910984D01*
X11040920Y-11110984D02*
X11040920Y-10977650D01*
X11040920Y-10996698D02*
X11050444Y-10987174D01*
X11050444Y-10987174D02*
X11069491Y-10977650D01*
X11069491Y-10977650D02*
X11098063Y-10977650D01*
X11098063Y-10977650D02*
X11117110Y-10987174D01*
X11117110Y-10987174D02*
X11126634Y-11006222D01*
X11126634Y-11006222D02*
X11126634Y-11110984D01*
X11126634Y-11006222D02*
X11136158Y-10987174D01*
X11136158Y-10987174D02*
X11155205Y-10977650D01*
X11155205Y-10977650D02*
X11183777Y-10977650D01*
X11183777Y-10977650D02*
X11202824Y-10987174D01*
X11202824Y-10987174D02*
X11212348Y-11006222D01*
X11212348Y-11006222D02*
X11212348Y-11110984D01*
X11307586Y-11110984D02*
X11307586Y-10977650D01*
X11307586Y-10996698D02*
X11317110Y-10987174D01*
X11317110Y-10987174D02*
X11336158Y-10977650D01*
X11336158Y-10977650D02*
X11364729Y-10977650D01*
X11364729Y-10977650D02*
X11383777Y-10987174D01*
X11383777Y-10987174D02*
X11393301Y-11006222D01*
X11393301Y-11006222D02*
X11393301Y-11110984D01*
X11393301Y-11006222D02*
X11402824Y-10987174D01*
X11402824Y-10987174D02*
X11421872Y-10977650D01*
X11421872Y-10977650D02*
X11450443Y-10977650D01*
X11450443Y-10977650D02*
X11469491Y-10987174D01*
X11469491Y-10987174D02*
X11479015Y-11006222D01*
X11479015Y-11006222D02*
X11479015Y-11110984D01*
X11869491Y-10901460D02*
X11698063Y-11158603D01*
X12126634Y-10910984D02*
X12145682Y-10910984D01*
X12145682Y-10910984D02*
X12164729Y-10920508D01*
X12164729Y-10920508D02*
X12174253Y-10930031D01*
X12174253Y-10930031D02*
X12183777Y-10949079D01*
X12183777Y-10949079D02*
X12193301Y-10987174D01*
X12193301Y-10987174D02*
X12193301Y-11034793D01*
X12193301Y-11034793D02*
X12183777Y-11072889D01*
X12183777Y-11072889D02*
X12174253Y-11091936D01*
X12174253Y-11091936D02*
X12164729Y-11101460D01*
X12164729Y-11101460D02*
X12145682Y-11110984D01*
X12145682Y-11110984D02*
X12126634Y-11110984D01*
X12126634Y-11110984D02*
X12107586Y-11101460D01*
X12107586Y-11101460D02*
X12098063Y-11091936D01*
X12098063Y-11091936D02*
X12088539Y-11072889D01*
X12088539Y-11072889D02*
X12079015Y-11034793D01*
X12079015Y-11034793D02*
X12079015Y-10987174D01*
X12079015Y-10987174D02*
X12088539Y-10949079D01*
X12088539Y-10949079D02*
X12098063Y-10930031D01*
X12098063Y-10930031D02*
X12107586Y-10920508D01*
X12107586Y-10920508D02*
X12126634Y-10910984D01*
X12279015Y-11091936D02*
X12288539Y-11101460D01*
X12288539Y-11101460D02*
X12279015Y-11110984D01*
X12279015Y-11110984D02*
X12269491Y-11101460D01*
X12269491Y-11101460D02*
X12279015Y-11091936D01*
X12279015Y-11091936D02*
X12279015Y-11110984D01*
X12479015Y-11110984D02*
X12364729Y-11110984D01*
X12421872Y-11110984D02*
X12421872Y-10910984D01*
X12421872Y-10910984D02*
X12402825Y-10939555D01*
X12402825Y-10939555D02*
X12383777Y-10958603D01*
X12383777Y-10958603D02*
X12364729Y-10968127D01*
X12555206Y-10930031D02*
X12564729Y-10920508D01*
X12564729Y-10920508D02*
X12583777Y-10910984D01*
X12583777Y-10910984D02*
X12631396Y-10910984D01*
X12631396Y-10910984D02*
X12650444Y-10920508D01*
X12650444Y-10920508D02*
X12659967Y-10930031D01*
X12659967Y-10930031D02*
X12669491Y-10949079D01*
X12669491Y-10949079D02*
X12669491Y-10968127D01*
X12669491Y-10968127D02*
X12659967Y-10996698D01*
X12659967Y-10996698D02*
X12545682Y-11110984D01*
X12545682Y-11110984D02*
X12669491Y-11110984D01*
X12840920Y-10910984D02*
X12802825Y-10910984D01*
X12802825Y-10910984D02*
X12783777Y-10920508D01*
X12783777Y-10920508D02*
X12774253Y-10930031D01*
X12774253Y-10930031D02*
X12755206Y-10958603D01*
X12755206Y-10958603D02*
X12745682Y-10996698D01*
X12745682Y-10996698D02*
X12745682Y-11072889D01*
X12745682Y-11072889D02*
X12755206Y-11091936D01*
X12755206Y-11091936D02*
X12764729Y-11101460D01*
X12764729Y-11101460D02*
X12783777Y-11110984D01*
X12783777Y-11110984D02*
X12821872Y-11110984D01*
X12821872Y-11110984D02*
X12840920Y-11101460D01*
X12840920Y-11101460D02*
X12850444Y-11091936D01*
X12850444Y-11091936D02*
X12859967Y-11072889D01*
X12859967Y-11072889D02*
X12859967Y-11025270D01*
X12859967Y-11025270D02*
X12850444Y-11006222D01*
X12850444Y-11006222D02*
X12840920Y-10996698D01*
X12840920Y-10996698D02*
X12821872Y-10987174D01*
X12821872Y-10987174D02*
X12783777Y-10987174D01*
X12783777Y-10987174D02*
X12764729Y-10996698D01*
X12764729Y-10996698D02*
X12755206Y-11006222D01*
X12755206Y-11006222D02*
X12745682Y-11025270D01*
X12983777Y-10910984D02*
X13002825Y-10910984D01*
X13002825Y-10910984D02*
X13021872Y-10920508D01*
X13021872Y-10920508D02*
X13031396Y-10930031D01*
X13031396Y-10930031D02*
X13040920Y-10949079D01*
X13040920Y-10949079D02*
X13050444Y-10987174D01*
X13050444Y-10987174D02*
X13050444Y-11034793D01*
X13050444Y-11034793D02*
X13040920Y-11072889D01*
X13040920Y-11072889D02*
X13031396Y-11091936D01*
X13031396Y-11091936D02*
X13021872Y-11101460D01*
X13021872Y-11101460D02*
X13002825Y-11110984D01*
X13002825Y-11110984D02*
X12983777Y-11110984D01*
X12983777Y-11110984D02*
X12964729Y-11101460D01*
X12964729Y-11101460D02*
X12955206Y-11091936D01*
X12955206Y-11091936D02*
X12945682Y-11072889D01*
X12945682Y-11072889D02*
X12936158Y-11034793D01*
X12936158Y-11034793D02*
X12936158Y-10987174D01*
X12936158Y-10987174D02*
X12945682Y-10949079D01*
X12945682Y-10949079D02*
X12955206Y-10930031D01*
X12955206Y-10930031D02*
X12964729Y-10920508D01*
X12964729Y-10920508D02*
X12983777Y-10910984D01*
X13126634Y-10910984D02*
X13126634Y-10949079D01*
X13202825Y-10910984D02*
X13202825Y-10949079D01*
X13498063Y-11187174D02*
X13488539Y-11177650D01*
X13488539Y-11177650D02*
X13469491Y-11149079D01*
X13469491Y-11149079D02*
X13459968Y-11130031D01*
X13459968Y-11130031D02*
X13450444Y-11101460D01*
X13450444Y-11101460D02*
X13440920Y-11053841D01*
X13440920Y-11053841D02*
X13440920Y-11015746D01*
X13440920Y-11015746D02*
X13450444Y-10968127D01*
X13450444Y-10968127D02*
X13459968Y-10939555D01*
X13459968Y-10939555D02*
X13469491Y-10920508D01*
X13469491Y-10920508D02*
X13488539Y-10891936D01*
X13488539Y-10891936D02*
X13498063Y-10882412D01*
X13564729Y-10930031D02*
X13574253Y-10920508D01*
X13574253Y-10920508D02*
X13593301Y-10910984D01*
X13593301Y-10910984D02*
X13640920Y-10910984D01*
X13640920Y-10910984D02*
X13659968Y-10920508D01*
X13659968Y-10920508D02*
X13669491Y-10930031D01*
X13669491Y-10930031D02*
X13679015Y-10949079D01*
X13679015Y-10949079D02*
X13679015Y-10968127D01*
X13679015Y-10968127D02*
X13669491Y-10996698D01*
X13669491Y-10996698D02*
X13555206Y-11110984D01*
X13555206Y-11110984D02*
X13679015Y-11110984D01*
X13917110Y-11110984D02*
X13917110Y-10910984D01*
X14002825Y-11110984D02*
X14002825Y-11006222D01*
X14002825Y-11006222D02*
X13993301Y-10987174D01*
X13993301Y-10987174D02*
X13974253Y-10977650D01*
X13974253Y-10977650D02*
X13945682Y-10977650D01*
X13945682Y-10977650D02*
X13926634Y-10987174D01*
X13926634Y-10987174D02*
X13917110Y-10996698D01*
X14126634Y-11110984D02*
X14107587Y-11101460D01*
X14107587Y-11101460D02*
X14098063Y-11091936D01*
X14098063Y-11091936D02*
X14088539Y-11072889D01*
X14088539Y-11072889D02*
X14088539Y-11015746D01*
X14088539Y-11015746D02*
X14098063Y-10996698D01*
X14098063Y-10996698D02*
X14107587Y-10987174D01*
X14107587Y-10987174D02*
X14126634Y-10977650D01*
X14126634Y-10977650D02*
X14155206Y-10977650D01*
X14155206Y-10977650D02*
X14174253Y-10987174D01*
X14174253Y-10987174D02*
X14183777Y-10996698D01*
X14183777Y-10996698D02*
X14193301Y-11015746D01*
X14193301Y-11015746D02*
X14193301Y-11072889D01*
X14193301Y-11072889D02*
X14183777Y-11091936D01*
X14183777Y-11091936D02*
X14174253Y-11101460D01*
X14174253Y-11101460D02*
X14155206Y-11110984D01*
X14155206Y-11110984D02*
X14126634Y-11110984D01*
X14307587Y-11110984D02*
X14288539Y-11101460D01*
X14288539Y-11101460D02*
X14279015Y-11082412D01*
X14279015Y-11082412D02*
X14279015Y-10910984D01*
X14459968Y-11101460D02*
X14440920Y-11110984D01*
X14440920Y-11110984D02*
X14402825Y-11110984D01*
X14402825Y-11110984D02*
X14383777Y-11101460D01*
X14383777Y-11101460D02*
X14374253Y-11082412D01*
X14374253Y-11082412D02*
X14374253Y-11006222D01*
X14374253Y-11006222D02*
X14383777Y-10987174D01*
X14383777Y-10987174D02*
X14402825Y-10977650D01*
X14402825Y-10977650D02*
X14440920Y-10977650D01*
X14440920Y-10977650D02*
X14459968Y-10987174D01*
X14459968Y-10987174D02*
X14469491Y-11006222D01*
X14469491Y-11006222D02*
X14469491Y-11025270D01*
X14469491Y-11025270D02*
X14374253Y-11044317D01*
X14545682Y-11101460D02*
X14564730Y-11110984D01*
X14564730Y-11110984D02*
X14602825Y-11110984D01*
X14602825Y-11110984D02*
X14621872Y-11101460D01*
X14621872Y-11101460D02*
X14631396Y-11082412D01*
X14631396Y-11082412D02*
X14631396Y-11072889D01*
X14631396Y-11072889D02*
X14621872Y-11053841D01*
X14621872Y-11053841D02*
X14602825Y-11044317D01*
X14602825Y-11044317D02*
X14574253Y-11044317D01*
X14574253Y-11044317D02*
X14555206Y-11034793D01*
X14555206Y-11034793D02*
X14545682Y-11015746D01*
X14545682Y-11015746D02*
X14545682Y-11006222D01*
X14545682Y-11006222D02*
X14555206Y-10987174D01*
X14555206Y-10987174D02*
X14574253Y-10977650D01*
X14574253Y-10977650D02*
X14602825Y-10977650D01*
X14602825Y-10977650D02*
X14621872Y-10987174D01*
X14698063Y-11187174D02*
X14707587Y-11177650D01*
X14707587Y-11177650D02*
X14726634Y-11149079D01*
X14726634Y-11149079D02*
X14736158Y-11130031D01*
X14736158Y-11130031D02*
X14745682Y-11101460D01*
X14745682Y-11101460D02*
X14755206Y-11053841D01*
X14755206Y-11053841D02*
X14755206Y-11015746D01*
X14755206Y-11015746D02*
X14745682Y-10968127D01*
X14745682Y-10968127D02*
X14736158Y-10939555D01*
X14736158Y-10939555D02*
X14726634Y-10920508D01*
X14726634Y-10920508D02*
X14707587Y-10891936D01*
X14707587Y-10891936D02*
X14698063Y-10882412D01*
X15059968Y-11187174D02*
X15050444Y-11177650D01*
X15050444Y-11177650D02*
X15031396Y-11149079D01*
X15031396Y-11149079D02*
X15021872Y-11130031D01*
X15021872Y-11130031D02*
X15012349Y-11101460D01*
X15012349Y-11101460D02*
X15002825Y-11053841D01*
X15002825Y-11053841D02*
X15002825Y-11015746D01*
X15002825Y-11015746D02*
X15012349Y-10968127D01*
X15012349Y-10968127D02*
X15021872Y-10939555D01*
X15021872Y-10939555D02*
X15031396Y-10920508D01*
X15031396Y-10920508D02*
X15050444Y-10891936D01*
X15050444Y-10891936D02*
X15059968Y-10882412D01*
X15136158Y-10977650D02*
X15136158Y-11110984D01*
X15136158Y-10996698D02*
X15145682Y-10987174D01*
X15145682Y-10987174D02*
X15164730Y-10977650D01*
X15164730Y-10977650D02*
X15193301Y-10977650D01*
X15193301Y-10977650D02*
X15212349Y-10987174D01*
X15212349Y-10987174D02*
X15221872Y-11006222D01*
X15221872Y-11006222D02*
X15221872Y-11110984D01*
X15345682Y-11110984D02*
X15326634Y-11101460D01*
X15326634Y-11101460D02*
X15317111Y-11091936D01*
X15317111Y-11091936D02*
X15307587Y-11072889D01*
X15307587Y-11072889D02*
X15307587Y-11015746D01*
X15307587Y-11015746D02*
X15317111Y-10996698D01*
X15317111Y-10996698D02*
X15326634Y-10987174D01*
X15326634Y-10987174D02*
X15345682Y-10977650D01*
X15345682Y-10977650D02*
X15374253Y-10977650D01*
X15374253Y-10977650D02*
X15393301Y-10987174D01*
X15393301Y-10987174D02*
X15402825Y-10996698D01*
X15402825Y-10996698D02*
X15412349Y-11015746D01*
X15412349Y-11015746D02*
X15412349Y-11072889D01*
X15412349Y-11072889D02*
X15402825Y-11091936D01*
X15402825Y-11091936D02*
X15393301Y-11101460D01*
X15393301Y-11101460D02*
X15374253Y-11110984D01*
X15374253Y-11110984D02*
X15345682Y-11110984D01*
X15469492Y-10977650D02*
X15545682Y-10977650D01*
X15498063Y-10910984D02*
X15498063Y-11082412D01*
X15498063Y-11082412D02*
X15507587Y-11101460D01*
X15507587Y-11101460D02*
X15526634Y-11110984D01*
X15526634Y-11110984D02*
X15545682Y-11110984D01*
X15764730Y-10977650D02*
X15764730Y-11177650D01*
X15764730Y-10987174D02*
X15783777Y-10977650D01*
X15783777Y-10977650D02*
X15821873Y-10977650D01*
X15821873Y-10977650D02*
X15840920Y-10987174D01*
X15840920Y-10987174D02*
X15850444Y-10996698D01*
X15850444Y-10996698D02*
X15859968Y-11015746D01*
X15859968Y-11015746D02*
X15859968Y-11072889D01*
X15859968Y-11072889D02*
X15850444Y-11091936D01*
X15850444Y-11091936D02*
X15840920Y-11101460D01*
X15840920Y-11101460D02*
X15821873Y-11110984D01*
X15821873Y-11110984D02*
X15783777Y-11110984D01*
X15783777Y-11110984D02*
X15764730Y-11101460D01*
X15974253Y-11110984D02*
X15955206Y-11101460D01*
X15955206Y-11101460D02*
X15945682Y-11082412D01*
X15945682Y-11082412D02*
X15945682Y-10910984D01*
X16136158Y-11110984D02*
X16136158Y-11006222D01*
X16136158Y-11006222D02*
X16126634Y-10987174D01*
X16126634Y-10987174D02*
X16107587Y-10977650D01*
X16107587Y-10977650D02*
X16069492Y-10977650D01*
X16069492Y-10977650D02*
X16050444Y-10987174D01*
X16136158Y-11101460D02*
X16117111Y-11110984D01*
X16117111Y-11110984D02*
X16069492Y-11110984D01*
X16069492Y-11110984D02*
X16050444Y-11101460D01*
X16050444Y-11101460D02*
X16040920Y-11082412D01*
X16040920Y-11082412D02*
X16040920Y-11063365D01*
X16040920Y-11063365D02*
X16050444Y-11044317D01*
X16050444Y-11044317D02*
X16069492Y-11034793D01*
X16069492Y-11034793D02*
X16117111Y-11034793D01*
X16117111Y-11034793D02*
X16136158Y-11025270D01*
X16202825Y-10977650D02*
X16279015Y-10977650D01*
X16231396Y-10910984D02*
X16231396Y-11082412D01*
X16231396Y-11082412D02*
X16240920Y-11101460D01*
X16240920Y-11101460D02*
X16259968Y-11110984D01*
X16259968Y-11110984D02*
X16279015Y-11110984D01*
X16421873Y-11101460D02*
X16402825Y-11110984D01*
X16402825Y-11110984D02*
X16364730Y-11110984D01*
X16364730Y-11110984D02*
X16345682Y-11101460D01*
X16345682Y-11101460D02*
X16336158Y-11082412D01*
X16336158Y-11082412D02*
X16336158Y-11006222D01*
X16336158Y-11006222D02*
X16345682Y-10987174D01*
X16345682Y-10987174D02*
X16364730Y-10977650D01*
X16364730Y-10977650D02*
X16402825Y-10977650D01*
X16402825Y-10977650D02*
X16421873Y-10987174D01*
X16421873Y-10987174D02*
X16431396Y-11006222D01*
X16431396Y-11006222D02*
X16431396Y-11025270D01*
X16431396Y-11025270D02*
X16336158Y-11044317D01*
X16602825Y-11110984D02*
X16602825Y-10910984D01*
X16602825Y-11101460D02*
X16583777Y-11110984D01*
X16583777Y-11110984D02*
X16545682Y-11110984D01*
X16545682Y-11110984D02*
X16526634Y-11101460D01*
X16526634Y-11101460D02*
X16517111Y-11091936D01*
X16517111Y-11091936D02*
X16507587Y-11072889D01*
X16507587Y-11072889D02*
X16507587Y-11015746D01*
X16507587Y-11015746D02*
X16517111Y-10996698D01*
X16517111Y-10996698D02*
X16526634Y-10987174D01*
X16526634Y-10987174D02*
X16545682Y-10977650D01*
X16545682Y-10977650D02*
X16583777Y-10977650D01*
X16583777Y-10977650D02*
X16602825Y-10987174D01*
X16679015Y-11187174D02*
X16688539Y-11177650D01*
X16688539Y-11177650D02*
X16707587Y-11149079D01*
X16707587Y-11149079D02*
X16717111Y-11130031D01*
X16717111Y-11130031D02*
X16726634Y-11101460D01*
X16726634Y-11101460D02*
X16736158Y-11053841D01*
X16736158Y-11053841D02*
X16736158Y-11015746D01*
X16736158Y-11015746D02*
X16726634Y-10968127D01*
X16726634Y-10968127D02*
X16717111Y-10939555D01*
X16717111Y-10939555D02*
X16707587Y-10920508D01*
X16707587Y-10920508D02*
X16688539Y-10891936D01*
X16688539Y-10891936D02*
X16679015Y-10882412D01*
M02*
