G04 #@! TF.GenerationSoftware,KiCad,Pcbnew,8.0.1*
G04 #@! TF.CreationDate,2024-06-26T21:16:06+01:00*
G04 #@! TF.ProjectId,MINI_TRUNK_6_INSULATOR,4d494e49-5f54-4525-954e-4b5f365f494e,rev?*
G04 #@! TF.SameCoordinates,Original*
G04 #@! TF.FileFunction,Legend,Top*
G04 #@! TF.FilePolarity,Positive*
%FSLAX46Y46*%
G04 Gerber Fmt 4.6, Leading zero omitted, Abs format (unit mm)*
G04 Created by KiCad (PCBNEW 8.0.1) date 2024-06-26 21:16:06*
%MOMM*%
%LPD*%
G01*
G04 APERTURE LIST*
%ADD10C,0.000000*%
%ADD11C,0.300000*%
%ADD12C,3.200000*%
G04 APERTURE END LIST*
D10*
G36*
X127912645Y-100721712D02*
G01*
X120479105Y-100721712D01*
X120479105Y-93588072D01*
X120779006Y-93588072D01*
X120779006Y-100421810D01*
X127612744Y-100421810D01*
X127612744Y-93588072D01*
X120779006Y-93588072D01*
X120479105Y-93588072D01*
X120479105Y-93288171D01*
X127912645Y-93288171D01*
X127912645Y-100721712D01*
G37*
G36*
X126489678Y-98244823D02*
G01*
X126008995Y-98244825D01*
X126008995Y-97951995D01*
X125995377Y-97971304D01*
X125981226Y-97990096D01*
X125966543Y-98008369D01*
X125951327Y-98026124D01*
X125935579Y-98043361D01*
X125919299Y-98060080D01*
X125902486Y-98076281D01*
X125885141Y-98091964D01*
X125867264Y-98107130D01*
X125848854Y-98121777D01*
X125829912Y-98135906D01*
X125810438Y-98149517D01*
X125790431Y-98162610D01*
X125769892Y-98175186D01*
X125748821Y-98187243D01*
X125727217Y-98198782D01*
X125705498Y-98209711D01*
X125683620Y-98219934D01*
X125661584Y-98229452D01*
X125639391Y-98238266D01*
X125617038Y-98246374D01*
X125594528Y-98253777D01*
X125571859Y-98260475D01*
X125549032Y-98266468D01*
X125526047Y-98271756D01*
X125502904Y-98276339D01*
X125479602Y-98280217D01*
X125456142Y-98283390D01*
X125432524Y-98285858D01*
X125408747Y-98287620D01*
X125384812Y-98288678D01*
X125360719Y-98289030D01*
X125336244Y-98288692D01*
X125312086Y-98287678D01*
X125288245Y-98285987D01*
X125264720Y-98283620D01*
X125241512Y-98280577D01*
X125218620Y-98276857D01*
X125196045Y-98272461D01*
X125173786Y-98267389D01*
X125151844Y-98261641D01*
X125130219Y-98255216D01*
X125108910Y-98248115D01*
X125087917Y-98240338D01*
X125067241Y-98231884D01*
X125046882Y-98222755D01*
X125026839Y-98212949D01*
X125007113Y-98202466D01*
X124987883Y-98191373D01*
X124969330Y-98179732D01*
X124951452Y-98167545D01*
X124934251Y-98154811D01*
X124917726Y-98141530D01*
X124901878Y-98127703D01*
X124886705Y-98113329D01*
X124872209Y-98098408D01*
X124858389Y-98082941D01*
X124845246Y-98066927D01*
X124832778Y-98050366D01*
X124820987Y-98033259D01*
X124809872Y-98015604D01*
X124799433Y-97997403D01*
X124789671Y-97978656D01*
X124780585Y-97959361D01*
X124772110Y-97939326D01*
X124764183Y-97918355D01*
X124756802Y-97896449D01*
X124749968Y-97873608D01*
X124743680Y-97849832D01*
X124737939Y-97825120D01*
X124732745Y-97799473D01*
X124728098Y-97772891D01*
X124723998Y-97745373D01*
X124720444Y-97716920D01*
X124717437Y-97687532D01*
X124714976Y-97657209D01*
X124713063Y-97625950D01*
X124711696Y-97593757D01*
X124710876Y-97560628D01*
X124710603Y-97526563D01*
X124710603Y-96288945D01*
X125228120Y-96288945D01*
X125228120Y-97187691D01*
X125228551Y-97285848D01*
X125229846Y-97374048D01*
X125232004Y-97452291D01*
X125235026Y-97520578D01*
X125238910Y-97578908D01*
X125243658Y-97627282D01*
X125249269Y-97665698D01*
X125255743Y-97694158D01*
X125259606Y-97705525D01*
X125263829Y-97716604D01*
X125268412Y-97727395D01*
X125273355Y-97737899D01*
X125278657Y-97748114D01*
X125284319Y-97758042D01*
X125290341Y-97767682D01*
X125296722Y-97777034D01*
X125303463Y-97786099D01*
X125310563Y-97794876D01*
X125318024Y-97803365D01*
X125325843Y-97811566D01*
X125334023Y-97819479D01*
X125342562Y-97827105D01*
X125351461Y-97834443D01*
X125360720Y-97841493D01*
X125370317Y-97847961D01*
X125380231Y-97854011D01*
X125390461Y-97859644D01*
X125401008Y-97864860D01*
X125411871Y-97869659D01*
X125423051Y-97874040D01*
X125434547Y-97878004D01*
X125446360Y-97881551D01*
X125458489Y-97884680D01*
X125470935Y-97887392D01*
X125483697Y-97889687D01*
X125496776Y-97891565D01*
X125510171Y-97893025D01*
X125523883Y-97894069D01*
X125537911Y-97894694D01*
X125552256Y-97894903D01*
X125568723Y-97894622D01*
X125584974Y-97893781D01*
X125601010Y-97892378D01*
X125616830Y-97890414D01*
X125632434Y-97887889D01*
X125647822Y-97884802D01*
X125662995Y-97881155D01*
X125677951Y-97876946D01*
X125692692Y-97872176D01*
X125707217Y-97866845D01*
X125721526Y-97860953D01*
X125735619Y-97854500D01*
X125749497Y-97847485D01*
X125763158Y-97839909D01*
X125776604Y-97831773D01*
X125789834Y-97823075D01*
X125802697Y-97813737D01*
X125815042Y-97804140D01*
X125826870Y-97794284D01*
X125838179Y-97784170D01*
X125848970Y-97773796D01*
X125859243Y-97763163D01*
X125868998Y-97752271D01*
X125878236Y-97741120D01*
X125886955Y-97729710D01*
X125895156Y-97718041D01*
X125902840Y-97706113D01*
X125910005Y-97693926D01*
X125916652Y-97681480D01*
X125922782Y-97668775D01*
X125928393Y-97655811D01*
X125933487Y-97642588D01*
X125938170Y-97627790D01*
X125942551Y-97610560D01*
X125946630Y-97590899D01*
X125950407Y-97568806D01*
X125953882Y-97544281D01*
X125957054Y-97517324D01*
X125959925Y-97487936D01*
X125962493Y-97456117D01*
X125966723Y-97385183D01*
X125969744Y-97304522D01*
X125971557Y-97214135D01*
X125972161Y-97114022D01*
X125972161Y-96288943D01*
X126489678Y-96288943D01*
X126489678Y-98244823D01*
G37*
G36*
X123230300Y-95500000D02*
G01*
X123290047Y-95503432D01*
X123348341Y-95509151D01*
X123405182Y-95517158D01*
X123460570Y-95527453D01*
X123514504Y-95540035D01*
X123566985Y-95554906D01*
X123618013Y-95572063D01*
X123667588Y-95591509D01*
X123715710Y-95613243D01*
X123762378Y-95637264D01*
X123807593Y-95663573D01*
X123851355Y-95692169D01*
X123893664Y-95723054D01*
X123934519Y-95756226D01*
X123973922Y-95791685D01*
X123996583Y-95813915D01*
X124018525Y-95837325D01*
X124039748Y-95861915D01*
X124060251Y-95887684D01*
X124080035Y-95914633D01*
X124099099Y-95942762D01*
X124117444Y-95972071D01*
X124135070Y-96002560D01*
X124151976Y-96034229D01*
X124168163Y-96067077D01*
X124183630Y-96101106D01*
X124198378Y-96136314D01*
X124212406Y-96172702D01*
X124225715Y-96210270D01*
X124238305Y-96249017D01*
X124250175Y-96288945D01*
X123710559Y-96417863D01*
X123704164Y-96391964D01*
X123696949Y-96366756D01*
X123688914Y-96342239D01*
X123680058Y-96318412D01*
X123670382Y-96295275D01*
X123659886Y-96272830D01*
X123648570Y-96251074D01*
X123636433Y-96230010D01*
X123623477Y-96209636D01*
X123609700Y-96189953D01*
X123595103Y-96170960D01*
X123579685Y-96152659D01*
X123563448Y-96135047D01*
X123546390Y-96118127D01*
X123528512Y-96101897D01*
X123509814Y-96086358D01*
X123490678Y-96071639D01*
X123471023Y-96057869D01*
X123450851Y-96045049D01*
X123430161Y-96033179D01*
X123408953Y-96022258D01*
X123387226Y-96012287D01*
X123364982Y-96003266D01*
X123342220Y-95995194D01*
X123318940Y-95988072D01*
X123295142Y-95981899D01*
X123270825Y-95976676D01*
X123245991Y-95972403D01*
X123220639Y-95969079D01*
X123194769Y-95966705D01*
X123168381Y-95965281D01*
X123141475Y-95964806D01*
X123104389Y-95965648D01*
X123068181Y-95968173D01*
X123032851Y-95972382D01*
X122998398Y-95978274D01*
X122964823Y-95985849D01*
X122932126Y-95995108D01*
X122900306Y-96006050D01*
X122869364Y-96018676D01*
X122839300Y-96032985D01*
X122810114Y-96048977D01*
X122781805Y-96066653D01*
X122754374Y-96086013D01*
X122727820Y-96107055D01*
X122702144Y-96129781D01*
X122677346Y-96154191D01*
X122653426Y-96180284D01*
X122630901Y-96208262D01*
X122609829Y-96238326D01*
X122590211Y-96270477D01*
X122572045Y-96304714D01*
X122555333Y-96341037D01*
X122540075Y-96379446D01*
X122526269Y-96419942D01*
X122513917Y-96462524D01*
X122503017Y-96507192D01*
X122493572Y-96553947D01*
X122485579Y-96602788D01*
X122479039Y-96653715D01*
X122473953Y-96706729D01*
X122470320Y-96761829D01*
X122468140Y-96819015D01*
X122467414Y-96878287D01*
X122468133Y-96941135D01*
X122470291Y-97001681D01*
X122473888Y-97059924D01*
X122478924Y-97115866D01*
X122485399Y-97169505D01*
X122493313Y-97220842D01*
X122502665Y-97269878D01*
X122513456Y-97316611D01*
X122525686Y-97361041D01*
X122539355Y-97403170D01*
X122554463Y-97442997D01*
X122571009Y-97480521D01*
X122588995Y-97515744D01*
X122608419Y-97548664D01*
X122629282Y-97579282D01*
X122651583Y-97607598D01*
X122675036Y-97633915D01*
X122699353Y-97658533D01*
X122724532Y-97681453D01*
X122750575Y-97702676D01*
X122777481Y-97722201D01*
X122805250Y-97740028D01*
X122833883Y-97756157D01*
X122863379Y-97770589D01*
X122893738Y-97783322D01*
X122924960Y-97794358D01*
X122957046Y-97803696D01*
X122989995Y-97811336D01*
X123023807Y-97817278D01*
X123058483Y-97821523D01*
X123094022Y-97824070D01*
X123130424Y-97824919D01*
X123157352Y-97824379D01*
X123183805Y-97822760D01*
X123209783Y-97820063D01*
X123235286Y-97816286D01*
X123260314Y-97811430D01*
X123284868Y-97805494D01*
X123308947Y-97798480D01*
X123332550Y-97790387D01*
X123355679Y-97781214D01*
X123378334Y-97770962D01*
X123400513Y-97759632D01*
X123422218Y-97747222D01*
X123443448Y-97733733D01*
X123464203Y-97719164D01*
X123484483Y-97703517D01*
X123504288Y-97686791D01*
X123523511Y-97668906D01*
X123542043Y-97649784D01*
X123559885Y-97629425D01*
X123577035Y-97607828D01*
X123593496Y-97584994D01*
X123609265Y-97560923D01*
X123624344Y-97535614D01*
X123638732Y-97509067D01*
X123652430Y-97481284D01*
X123665437Y-97452263D01*
X123677753Y-97422004D01*
X123689379Y-97390509D01*
X123700314Y-97357775D01*
X123710559Y-97323805D01*
X123720113Y-97288597D01*
X123728976Y-97252152D01*
X123728976Y-97252151D01*
X124257543Y-97419745D01*
X124241716Y-97474111D01*
X124224623Y-97526707D01*
X124206263Y-97577534D01*
X124186638Y-97626591D01*
X124165746Y-97673878D01*
X124143588Y-97719395D01*
X124120164Y-97763143D01*
X124095473Y-97805120D01*
X124069517Y-97845328D01*
X124042294Y-97883767D01*
X124013806Y-97920435D01*
X123984051Y-97955334D01*
X123953030Y-97988463D01*
X123920743Y-98019822D01*
X123887190Y-98049411D01*
X123852370Y-98077231D01*
X123816550Y-98103101D01*
X123779537Y-98127302D01*
X123741329Y-98149834D01*
X123701926Y-98170697D01*
X123661330Y-98189890D01*
X123619539Y-98207415D01*
X123576554Y-98223271D01*
X123532375Y-98237458D01*
X123487002Y-98249975D01*
X123440434Y-98260824D01*
X123392672Y-98270004D01*
X123343716Y-98277514D01*
X123293566Y-98283356D01*
X123242222Y-98287529D01*
X123189683Y-98290032D01*
X123135950Y-98290867D01*
X123069476Y-98289435D01*
X123004499Y-98285140D01*
X122941018Y-98277982D01*
X122879033Y-98267961D01*
X122818545Y-98255076D01*
X122759553Y-98239328D01*
X122702058Y-98220717D01*
X122646059Y-98199242D01*
X122591556Y-98174905D01*
X122538549Y-98147704D01*
X122487039Y-98117640D01*
X122437026Y-98084712D01*
X122388509Y-98048922D01*
X122341488Y-98010268D01*
X122295963Y-97968750D01*
X122251935Y-97924370D01*
X122210008Y-97877277D01*
X122170786Y-97828084D01*
X122134268Y-97776790D01*
X122100456Y-97723395D01*
X122069348Y-97667899D01*
X122040946Y-97610303D01*
X122015249Y-97550606D01*
X121992256Y-97488809D01*
X121971969Y-97424911D01*
X121954386Y-97358912D01*
X121939509Y-97290812D01*
X121927337Y-97220612D01*
X121917869Y-97148311D01*
X121911107Y-97073910D01*
X121907049Y-96997408D01*
X121905697Y-96918805D01*
X121907056Y-96835727D01*
X121911135Y-96755009D01*
X121917934Y-96676650D01*
X121927452Y-96600651D01*
X121939689Y-96527012D01*
X121954645Y-96455733D01*
X121972321Y-96386813D01*
X121992717Y-96320253D01*
X122015831Y-96256053D01*
X122041666Y-96194212D01*
X122070219Y-96134731D01*
X122101492Y-96077610D01*
X122135484Y-96022848D01*
X122172196Y-95970446D01*
X122211627Y-95920404D01*
X122253777Y-95872721D01*
X122298143Y-95827448D01*
X122344221Y-95785096D01*
X122392012Y-95745665D01*
X122441515Y-95709155D01*
X122492730Y-95675566D01*
X122545657Y-95644897D01*
X122600296Y-95617149D01*
X122656648Y-95592322D01*
X122714712Y-95570416D01*
X122774488Y-95551431D01*
X122835976Y-95535366D01*
X122899176Y-95522223D01*
X122964089Y-95512000D01*
X123030714Y-95504698D01*
X123099051Y-95500317D01*
X123169100Y-95498856D01*
X123230300Y-95500000D01*
G37*
G36*
X179149382Y-94662958D02*
G01*
X179159015Y-94663651D01*
X179168494Y-94664807D01*
X179177819Y-94666425D01*
X179186989Y-94668505D01*
X179196006Y-94671048D01*
X179204869Y-94674053D01*
X179213577Y-94677521D01*
X179222131Y-94681451D01*
X179230531Y-94685843D01*
X179238777Y-94690698D01*
X179246868Y-94696016D01*
X179254805Y-94701796D01*
X179262587Y-94708038D01*
X179270215Y-94714744D01*
X179277688Y-94721912D01*
X179284451Y-94729384D01*
X179290779Y-94737011D01*
X179296671Y-94744791D01*
X179302127Y-94752726D01*
X179307147Y-94760814D01*
X179311732Y-94769056D01*
X179315880Y-94777453D01*
X179319592Y-94786003D01*
X179322868Y-94794708D01*
X179325708Y-94803567D01*
X179328111Y-94812581D01*
X179330077Y-94821749D01*
X179331606Y-94831071D01*
X179332699Y-94840548D01*
X179333355Y-94850180D01*
X179333573Y-94859966D01*
X179333329Y-94869765D01*
X179332597Y-94879435D01*
X179331377Y-94888977D01*
X179329668Y-94898389D01*
X179327472Y-94907674D01*
X179324787Y-94916829D01*
X179321615Y-94925857D01*
X179317954Y-94934755D01*
X179313806Y-94943525D01*
X179309170Y-94952167D01*
X179304046Y-94960680D01*
X179298434Y-94969064D01*
X179292334Y-94977321D01*
X179285746Y-94985449D01*
X179278671Y-94993448D01*
X179271108Y-95001319D01*
X179264419Y-95007600D01*
X179256676Y-95014112D01*
X179247881Y-95020854D01*
X179238031Y-95027827D01*
X179227129Y-95035031D01*
X179215173Y-95042466D01*
X179202164Y-95050132D01*
X179188102Y-95058029D01*
X179172987Y-95066158D01*
X179156819Y-95074517D01*
X179139598Y-95083108D01*
X179121325Y-95091930D01*
X179101999Y-95100983D01*
X179081620Y-95110267D01*
X179037705Y-95129531D01*
X178953456Y-95167090D01*
X178871645Y-95208271D01*
X178792275Y-95253073D01*
X178715344Y-95301496D01*
X178640852Y-95353541D01*
X178568801Y-95409207D01*
X178499189Y-95468494D01*
X178432017Y-95531402D01*
X178367285Y-95597932D01*
X178304993Y-95668083D01*
X178245141Y-95741855D01*
X178187729Y-95819248D01*
X178132758Y-95900262D01*
X178080226Y-95984897D01*
X178030135Y-96073153D01*
X177982484Y-96165031D01*
X177960810Y-96211101D01*
X177940162Y-96258919D01*
X177920541Y-96308483D01*
X177901946Y-96359795D01*
X177884377Y-96412853D01*
X177867835Y-96467659D01*
X177852320Y-96524212D01*
X177837830Y-96582511D01*
X177837830Y-96582530D01*
X177883596Y-96546704D01*
X177929670Y-96513188D01*
X177976052Y-96481984D01*
X178022742Y-96453091D01*
X178069740Y-96426509D01*
X178117047Y-96402239D01*
X178164661Y-96380279D01*
X178212584Y-96360632D01*
X178260815Y-96343295D01*
X178309354Y-96328270D01*
X178358201Y-96315557D01*
X178407357Y-96305155D01*
X178456821Y-96297065D01*
X178506594Y-96291286D01*
X178556675Y-96287818D01*
X178607064Y-96286662D01*
X178671703Y-96288460D01*
X178734955Y-96293853D01*
X178796822Y-96302842D01*
X178857302Y-96315426D01*
X178916396Y-96331606D01*
X178974104Y-96351381D01*
X179030426Y-96374752D01*
X179085360Y-96401718D01*
X179138908Y-96432280D01*
X179191070Y-96466437D01*
X179241844Y-96504190D01*
X179291231Y-96545538D01*
X179339231Y-96590482D01*
X179385844Y-96639022D01*
X179431070Y-96691156D01*
X179474908Y-96746887D01*
X179509539Y-96796131D01*
X179541936Y-96846892D01*
X179572099Y-96899167D01*
X179600027Y-96952959D01*
X179625722Y-97008265D01*
X179649182Y-97065087D01*
X179670407Y-97123424D01*
X179689399Y-97183276D01*
X179706156Y-97244643D01*
X179720679Y-97307526D01*
X179732967Y-97371924D01*
X179743021Y-97437837D01*
X179750841Y-97505265D01*
X179756427Y-97574208D01*
X179759778Y-97644667D01*
X179760896Y-97716640D01*
X179759291Y-97803215D01*
X179754476Y-97887890D01*
X179746451Y-97970664D01*
X179735217Y-98051537D01*
X179720772Y-98130510D01*
X179703117Y-98207583D01*
X179682251Y-98282755D01*
X179658175Y-98356026D01*
X179630889Y-98427397D01*
X179600391Y-98496868D01*
X179566683Y-98564439D01*
X179529764Y-98630109D01*
X179489634Y-98693879D01*
X179446293Y-98755750D01*
X179399740Y-98815720D01*
X179349976Y-98873790D01*
X179299026Y-98927927D01*
X179246431Y-98978571D01*
X179192192Y-99025722D01*
X179136309Y-99069380D01*
X179078782Y-99109546D01*
X179019611Y-99146219D01*
X178958796Y-99179400D01*
X178896337Y-99209088D01*
X178832235Y-99235283D01*
X178766489Y-99257985D01*
X178699099Y-99277195D01*
X178630066Y-99292912D01*
X178559389Y-99305136D01*
X178487069Y-99313868D01*
X178413106Y-99319107D01*
X178337499Y-99320854D01*
X178281153Y-99319865D01*
X178225526Y-99316899D01*
X178170619Y-99311956D01*
X178116430Y-99305035D01*
X178062961Y-99296137D01*
X178010211Y-99285261D01*
X177958179Y-99272408D01*
X177906867Y-99257577D01*
X177856273Y-99240769D01*
X177806398Y-99221982D01*
X177757242Y-99201218D01*
X177708805Y-99178476D01*
X177661086Y-99153757D01*
X177614086Y-99127059D01*
X177567804Y-99098383D01*
X177522241Y-99067729D01*
X177479770Y-99036767D01*
X177438648Y-99004693D01*
X177398875Y-98971509D01*
X177360449Y-98937214D01*
X177323371Y-98901808D01*
X177287642Y-98865292D01*
X177253261Y-98827664D01*
X177220228Y-98788926D01*
X177188543Y-98749077D01*
X177158207Y-98708118D01*
X177129218Y-98666047D01*
X177101578Y-98622866D01*
X177075286Y-98578574D01*
X177050343Y-98533172D01*
X177026747Y-98486658D01*
X177004500Y-98439034D01*
X176964051Y-98340453D01*
X176928994Y-98237429D01*
X176899331Y-98129962D01*
X176875061Y-98018052D01*
X176856184Y-97901699D01*
X176842701Y-97780903D01*
X176840249Y-97742942D01*
X177653733Y-97742942D01*
X177655069Y-97816394D01*
X177659076Y-97888818D01*
X177665755Y-97960216D01*
X177675105Y-98030587D01*
X177687127Y-98099931D01*
X177701820Y-98168247D01*
X177719184Y-98235535D01*
X177739221Y-98301795D01*
X177749029Y-98331022D01*
X177759557Y-98359530D01*
X177770804Y-98387318D01*
X177782772Y-98414387D01*
X177795458Y-98440737D01*
X177808864Y-98466368D01*
X177822989Y-98491279D01*
X177837833Y-98515471D01*
X177853396Y-98538943D01*
X177869678Y-98561697D01*
X177886679Y-98583731D01*
X177904399Y-98605046D01*
X177922838Y-98625641D01*
X177941995Y-98645518D01*
X177961870Y-98664675D01*
X177982465Y-98683112D01*
X178002037Y-98699434D01*
X178022121Y-98714703D01*
X178042719Y-98728918D01*
X178063830Y-98742081D01*
X178085454Y-98754192D01*
X178107591Y-98765249D01*
X178130242Y-98775253D01*
X178153406Y-98784204D01*
X178177084Y-98792103D01*
X178201276Y-98798948D01*
X178225981Y-98804740D01*
X178251201Y-98809479D01*
X178276934Y-98813165D01*
X178303182Y-98815798D01*
X178329944Y-98817378D01*
X178357221Y-98817905D01*
X178385307Y-98817301D01*
X178412853Y-98815490D01*
X178439860Y-98812472D01*
X178466326Y-98808246D01*
X178492253Y-98802813D01*
X178517640Y-98796173D01*
X178542487Y-98788326D01*
X178566795Y-98779271D01*
X178590563Y-98769010D01*
X178613792Y-98757542D01*
X178636481Y-98744867D01*
X178658631Y-98730985D01*
X178680242Y-98715896D01*
X178701313Y-98699601D01*
X178721845Y-98682099D01*
X178741837Y-98663390D01*
X178766914Y-98636462D01*
X178790373Y-98607453D01*
X178812214Y-98576364D01*
X178832438Y-98543195D01*
X178851045Y-98507946D01*
X178868033Y-98470616D01*
X178883404Y-98431207D01*
X178897158Y-98389717D01*
X178909293Y-98346147D01*
X178919811Y-98300496D01*
X178928710Y-98252766D01*
X178935992Y-98202954D01*
X178941655Y-98151063D01*
X178945701Y-98097091D01*
X178948128Y-98041039D01*
X178948937Y-97982906D01*
X178948077Y-97913374D01*
X178945495Y-97846127D01*
X178941193Y-97781166D01*
X178935169Y-97718491D01*
X178927425Y-97658100D01*
X178917960Y-97599996D01*
X178906774Y-97544176D01*
X178893867Y-97490643D01*
X178879240Y-97439395D01*
X178862892Y-97390433D01*
X178844824Y-97343757D01*
X178825035Y-97299366D01*
X178803526Y-97257262D01*
X178780297Y-97217443D01*
X178755347Y-97179911D01*
X178728677Y-97144664D01*
X178705217Y-97117194D01*
X178680859Y-97091496D01*
X178655602Y-97067571D01*
X178629446Y-97045418D01*
X178602390Y-97025038D01*
X178574436Y-97006430D01*
X178545583Y-96989594D01*
X178515831Y-96974531D01*
X178485180Y-96961240D01*
X178453630Y-96949721D01*
X178421180Y-96939974D01*
X178387832Y-96932000D01*
X178353585Y-96925797D01*
X178318439Y-96921367D01*
X178282394Y-96918709D01*
X178245450Y-96917823D01*
X178245450Y-96917842D01*
X178215828Y-96918484D01*
X178186950Y-96920410D01*
X178158817Y-96923620D01*
X178131428Y-96928114D01*
X178104783Y-96933891D01*
X178078883Y-96940953D01*
X178053727Y-96949299D01*
X178029316Y-96958929D01*
X178005650Y-96969843D01*
X177982728Y-96982041D01*
X177960550Y-96995523D01*
X177939117Y-97010290D01*
X177918429Y-97026341D01*
X177898486Y-97043676D01*
X177879287Y-97062295D01*
X177860833Y-97082198D01*
X177835757Y-97111746D01*
X177812298Y-97142860D01*
X177790456Y-97175541D01*
X177770232Y-97209789D01*
X177751626Y-97245603D01*
X177734637Y-97282984D01*
X177719266Y-97321931D01*
X177705513Y-97362445D01*
X177693377Y-97404525D01*
X177682860Y-97448172D01*
X177673960Y-97493385D01*
X177666679Y-97540164D01*
X177661015Y-97588510D01*
X177656970Y-97638421D01*
X177654542Y-97689899D01*
X177653733Y-97742942D01*
X176840249Y-97742942D01*
X176834611Y-97655664D01*
X176831914Y-97525981D01*
X176835535Y-97373968D01*
X176846399Y-97224471D01*
X176864505Y-97077492D01*
X176889853Y-96933030D01*
X176922444Y-96791085D01*
X176962277Y-96651657D01*
X177009353Y-96514746D01*
X177063671Y-96380351D01*
X177125231Y-96248474D01*
X177194034Y-96119113D01*
X177270080Y-95992269D01*
X177353367Y-95867942D01*
X177443898Y-95746131D01*
X177541670Y-95626836D01*
X177646685Y-95510059D01*
X177758942Y-95395797D01*
X177804859Y-95352010D01*
X177851393Y-95309404D01*
X177898543Y-95267980D01*
X177946311Y-95227737D01*
X177994695Y-95188675D01*
X178043696Y-95150795D01*
X178093313Y-95114096D01*
X178143547Y-95078579D01*
X178194398Y-95044243D01*
X178245866Y-95011088D01*
X178297950Y-94979114D01*
X178350651Y-94948321D01*
X178403969Y-94918710D01*
X178457903Y-94890280D01*
X178512453Y-94863031D01*
X178567620Y-94836963D01*
X178659251Y-94796126D01*
X178745131Y-94760735D01*
X178825259Y-94730788D01*
X178899635Y-94706286D01*
X178934665Y-94696077D01*
X178968257Y-94687229D01*
X179000410Y-94679742D01*
X179031125Y-94673616D01*
X179060401Y-94668852D01*
X179088238Y-94665449D01*
X179114636Y-94663407D01*
X179139596Y-94662727D01*
X179149382Y-94662958D01*
G37*
G36*
X175155373Y-97456954D02*
G01*
X176427575Y-97456954D01*
X176449467Y-97457339D01*
X176469947Y-97458495D01*
X176489014Y-97460420D01*
X176506668Y-97463117D01*
X176522910Y-97466583D01*
X176537740Y-97470820D01*
X176551157Y-97475827D01*
X176563161Y-97481604D01*
X176573753Y-97488152D01*
X176578520Y-97491715D01*
X176582933Y-97495471D01*
X176586993Y-97499419D01*
X176590701Y-97503560D01*
X176594055Y-97507894D01*
X176597056Y-97512420D01*
X176599704Y-97517138D01*
X176601999Y-97522050D01*
X176603940Y-97527154D01*
X176605529Y-97532451D01*
X176606765Y-97537940D01*
X176607647Y-97543622D01*
X176608177Y-97549497D01*
X176608353Y-97555564D01*
X176608225Y-97559365D01*
X176607840Y-97563371D01*
X176607199Y-97567583D01*
X176606300Y-97572000D01*
X176605145Y-97576623D01*
X176603734Y-97581452D01*
X176602065Y-97586486D01*
X176600140Y-97591725D01*
X176597958Y-97597170D01*
X176595519Y-97602820D01*
X176592823Y-97608676D01*
X176589870Y-97614736D01*
X176586661Y-97621003D01*
X176583194Y-97627474D01*
X176579471Y-97634151D01*
X176575490Y-97641033D01*
X176371671Y-97976344D01*
X176366195Y-97985646D01*
X176360449Y-97994645D01*
X176354433Y-98003342D01*
X176348148Y-98011738D01*
X176341593Y-98019832D01*
X176334768Y-98027624D01*
X176327673Y-98035114D01*
X176320309Y-98042302D01*
X176312675Y-98049188D01*
X176304771Y-98055773D01*
X176296597Y-98062056D01*
X176288154Y-98068037D01*
X176279441Y-98073716D01*
X176270458Y-98079093D01*
X176261206Y-98084169D01*
X176251684Y-98088942D01*
X176241892Y-98093414D01*
X176231831Y-98097584D01*
X176221500Y-98101453D01*
X176210899Y-98105019D01*
X176200029Y-98108284D01*
X176188889Y-98111247D01*
X176177480Y-98113908D01*
X176165800Y-98116267D01*
X176153852Y-98118325D01*
X176141633Y-98120081D01*
X176129145Y-98121535D01*
X176116387Y-98122687D01*
X176090063Y-98124086D01*
X176062661Y-98124278D01*
X174810201Y-98124278D01*
X174791890Y-98123880D01*
X174774761Y-98122686D01*
X174758814Y-98120696D01*
X174744047Y-98117909D01*
X174730461Y-98114326D01*
X174718057Y-98109947D01*
X174712298Y-98107459D01*
X174706834Y-98104772D01*
X174701665Y-98101886D01*
X174696792Y-98098801D01*
X174692214Y-98095517D01*
X174687931Y-98092034D01*
X174683944Y-98088351D01*
X174680252Y-98084470D01*
X174676856Y-98080390D01*
X174673754Y-98076110D01*
X174670948Y-98071632D01*
X174668438Y-98066954D01*
X174666223Y-98062078D01*
X174664303Y-98057002D01*
X174662678Y-98051727D01*
X174661349Y-98046254D01*
X174660315Y-98040581D01*
X174659577Y-98034709D01*
X174659134Y-98028639D01*
X174658986Y-98022369D01*
X174659127Y-98017771D01*
X174659550Y-98013019D01*
X174660256Y-98008114D01*
X174661243Y-98003054D01*
X174662513Y-97997839D01*
X174664065Y-97992471D01*
X174665900Y-97986949D01*
X174668017Y-97981273D01*
X174670417Y-97975442D01*
X174673099Y-97969458D01*
X174676064Y-97963320D01*
X174679312Y-97957027D01*
X174682842Y-97950581D01*
X174686655Y-97943981D01*
X174690751Y-97937228D01*
X174695130Y-97930320D01*
X174918671Y-97568725D01*
X174924040Y-97560314D01*
X174929460Y-97552338D01*
X174934932Y-97544800D01*
X174940454Y-97537698D01*
X174946028Y-97531032D01*
X174951654Y-97524803D01*
X174957330Y-97519011D01*
X174963058Y-97513655D01*
X174968837Y-97508736D01*
X174974667Y-97504254D01*
X174980548Y-97500209D01*
X174986480Y-97496600D01*
X174992464Y-97493429D01*
X174998498Y-97490695D01*
X175004584Y-97488397D01*
X175010720Y-97486537D01*
X175014366Y-97485265D01*
X175018732Y-97483916D01*
X175029621Y-97480987D01*
X175043387Y-97477749D01*
X175060030Y-97474204D01*
X175079550Y-97470350D01*
X175101947Y-97466187D01*
X175127222Y-97461716D01*
X175155373Y-97456935D01*
X175155373Y-97456954D01*
G37*
G36*
X173252818Y-94791144D02*
G01*
X173274852Y-94791761D01*
X173298428Y-94792788D01*
X173323546Y-94794226D01*
X173350206Y-94796075D01*
X173378406Y-94798334D01*
X173408147Y-94801002D01*
X173439427Y-94804080D01*
X173481392Y-94807930D01*
X173523459Y-94811268D01*
X173565629Y-94814094D01*
X173607901Y-94816407D01*
X173650276Y-94818206D01*
X173692754Y-94819492D01*
X173735335Y-94820264D01*
X173778020Y-94820522D01*
X173820448Y-94820264D01*
X173863904Y-94819492D01*
X173908387Y-94818206D01*
X173953896Y-94816407D01*
X174047995Y-94811268D01*
X174146195Y-94804080D01*
X174193041Y-94801201D01*
X174234956Y-94799145D01*
X174271940Y-94797911D01*
X174303990Y-94797500D01*
X174319836Y-94797834D01*
X174335322Y-94798835D01*
X174350449Y-94800504D01*
X174365216Y-94802840D01*
X174379624Y-94805844D01*
X174393673Y-94809516D01*
X174407362Y-94813855D01*
X174420691Y-94818862D01*
X174433662Y-94824537D01*
X174446272Y-94830880D01*
X174458524Y-94837891D01*
X174470416Y-94845570D01*
X174481949Y-94853918D01*
X174493122Y-94862933D01*
X174503936Y-94872616D01*
X174514390Y-94882968D01*
X174523145Y-94892125D01*
X174531335Y-94901512D01*
X174538961Y-94911131D01*
X174546022Y-94920981D01*
X174552518Y-94931061D01*
X174558450Y-94941373D01*
X174563816Y-94951916D01*
X174568618Y-94962691D01*
X174572855Y-94973696D01*
X174576528Y-94984932D01*
X174579635Y-94996400D01*
X174582177Y-95008099D01*
X174584155Y-95020028D01*
X174585567Y-95032189D01*
X174586415Y-95044581D01*
X174586697Y-95057205D01*
X174586505Y-95067399D01*
X174585928Y-95077439D01*
X174584965Y-95087326D01*
X174583618Y-95097058D01*
X174581885Y-95106637D01*
X174579767Y-95116062D01*
X174577264Y-95125333D01*
X174574376Y-95134450D01*
X174571102Y-95143413D01*
X174567443Y-95152222D01*
X174563399Y-95160876D01*
X174558969Y-95169377D01*
X174554153Y-95177724D01*
X174548952Y-95185916D01*
X174543365Y-95193955D01*
X174537393Y-95201839D01*
X174529547Y-95210764D01*
X174520803Y-95219458D01*
X174511160Y-95227921D01*
X174500618Y-95236153D01*
X174489176Y-95244153D01*
X174476836Y-95251923D01*
X174463597Y-95259461D01*
X174449459Y-95266767D01*
X174434422Y-95273843D01*
X174418486Y-95280687D01*
X174401651Y-95287299D01*
X174383916Y-95293680D01*
X174365283Y-95299830D01*
X174345751Y-95305748D01*
X174325320Y-95311435D01*
X174303990Y-95316890D01*
X174275948Y-95325314D01*
X174249342Y-95334149D01*
X174224173Y-95343395D01*
X174200443Y-95353051D01*
X174178151Y-95363118D01*
X174157298Y-95373595D01*
X174137885Y-95384481D01*
X174128718Y-95390079D01*
X174119912Y-95395778D01*
X174112835Y-95400812D01*
X174104756Y-95406873D01*
X174085594Y-95422078D01*
X174062426Y-95441392D01*
X174035252Y-95464814D01*
X174004072Y-95492346D01*
X173968885Y-95523988D01*
X173929691Y-95559738D01*
X173886491Y-95599597D01*
X173762243Y-95714859D01*
X173631112Y-95832176D01*
X173493098Y-95951548D01*
X173348201Y-96072975D01*
X173196421Y-96196455D01*
X173037757Y-96321989D01*
X172872209Y-96449574D01*
X172699777Y-96579212D01*
X172699776Y-96579218D01*
X172699776Y-96579220D01*
X172699776Y-96579223D01*
X172699776Y-96579225D01*
X172699776Y-96579226D01*
X172699776Y-96579227D01*
X172699775Y-96579228D01*
X172699775Y-96579229D01*
X172699775Y-96579230D01*
X172699774Y-96579231D01*
X172699773Y-96579232D01*
X172699773Y-96579233D01*
X172699772Y-96579234D01*
X172699770Y-96579236D01*
X172699768Y-96579238D01*
X172699766Y-96579241D01*
X172699764Y-96579243D01*
X172699757Y-96579250D01*
X174241525Y-98492454D01*
X174267304Y-98523374D01*
X174292057Y-98552035D01*
X174315784Y-98578435D01*
X174338485Y-98602575D01*
X174360159Y-98624454D01*
X174380806Y-98644074D01*
X174400428Y-98661433D01*
X174419022Y-98676532D01*
X174424223Y-98680092D01*
X174430786Y-98684190D01*
X174447994Y-98694003D01*
X174470646Y-98705972D01*
X174498742Y-98720098D01*
X174532283Y-98736382D01*
X174571267Y-98754823D01*
X174615695Y-98775423D01*
X174665566Y-98798183D01*
X174683083Y-98806346D01*
X174691417Y-98810698D01*
X174699469Y-98815229D01*
X174707239Y-98819940D01*
X174714726Y-98824832D01*
X174721930Y-98829903D01*
X174728852Y-98835154D01*
X174735492Y-98840585D01*
X174741848Y-98846195D01*
X174747923Y-98851986D01*
X174753714Y-98857956D01*
X174759224Y-98864107D01*
X174764450Y-98870437D01*
X174769395Y-98876947D01*
X174774056Y-98883637D01*
X174778435Y-98890506D01*
X174782532Y-98897556D01*
X174786346Y-98904785D01*
X174789878Y-98912194D01*
X174793127Y-98919783D01*
X174796093Y-98927552D01*
X174798777Y-98935500D01*
X174801179Y-98943628D01*
X174803298Y-98951936D01*
X174805134Y-98960424D01*
X174806688Y-98969091D01*
X174807959Y-98977939D01*
X174808948Y-98986965D01*
X174809655Y-98996172D01*
X174810220Y-99015125D01*
X174809728Y-99032114D01*
X174808255Y-99048564D01*
X174805799Y-99064475D01*
X174802361Y-99079846D01*
X174797940Y-99094678D01*
X174792537Y-99108971D01*
X174786152Y-99122724D01*
X174778784Y-99135938D01*
X174770434Y-99148613D01*
X174761102Y-99160748D01*
X174750787Y-99172344D01*
X174739490Y-99183401D01*
X174727210Y-99193918D01*
X174713948Y-99203896D01*
X174699704Y-99213335D01*
X174684478Y-99222234D01*
X174668269Y-99230594D01*
X174651077Y-99238414D01*
X174632904Y-99245696D01*
X174613748Y-99252438D01*
X174593609Y-99258640D01*
X174572489Y-99264303D01*
X174550386Y-99269427D01*
X174527300Y-99274011D01*
X174503232Y-99278057D01*
X174478182Y-99281562D01*
X174452150Y-99284529D01*
X174425135Y-99286956D01*
X174397138Y-99288843D01*
X174368158Y-99290192D01*
X174338196Y-99291001D01*
X174307252Y-99291271D01*
X174271143Y-99290834D01*
X174235959Y-99289524D01*
X174201699Y-99287340D01*
X174168364Y-99284283D01*
X174135953Y-99280353D01*
X174104467Y-99275549D01*
X174073906Y-99269873D01*
X174044269Y-99263323D01*
X174015557Y-99255900D01*
X173987770Y-99247605D01*
X173960907Y-99238436D01*
X173934969Y-99228394D01*
X173909956Y-99217480D01*
X173885868Y-99205693D01*
X173862705Y-99193033D01*
X173840466Y-99179500D01*
X173824544Y-99169059D01*
X173808826Y-99158284D01*
X173793314Y-99147175D01*
X173778007Y-99135733D01*
X173762905Y-99123957D01*
X173748009Y-99111848D01*
X173733318Y-99099405D01*
X173718832Y-99086629D01*
X173704552Y-99073518D01*
X173690477Y-99060074D01*
X173676608Y-99046297D01*
X173662944Y-99032185D01*
X173649486Y-99017740D01*
X173636233Y-99002960D01*
X173623186Y-98987847D01*
X173610345Y-98972400D01*
X172022591Y-97039455D01*
X171805611Y-97184108D01*
X171805611Y-98275493D01*
X171806305Y-98306889D01*
X171807564Y-98336975D01*
X171809388Y-98365751D01*
X171811777Y-98393217D01*
X171814730Y-98419373D01*
X171818249Y-98444220D01*
X171822333Y-98467757D01*
X171826981Y-98489984D01*
X171832194Y-98510901D01*
X171837972Y-98530508D01*
X171844315Y-98548806D01*
X171851222Y-98565794D01*
X171858695Y-98581472D01*
X171866732Y-98595840D01*
X171875333Y-98608898D01*
X171884499Y-98620647D01*
X171891654Y-98628750D01*
X171899143Y-98636622D01*
X171906964Y-98644263D01*
X171915120Y-98651674D01*
X171923609Y-98658854D01*
X171932432Y-98665802D01*
X171941588Y-98672520D01*
X171951078Y-98679007D01*
X171960902Y-98685262D01*
X171971059Y-98691287D01*
X171981550Y-98697080D01*
X171992375Y-98702642D01*
X172003534Y-98707972D01*
X172015027Y-98713072D01*
X172026853Y-98717939D01*
X172039014Y-98722575D01*
X172183648Y-98768581D01*
X172208728Y-98777596D01*
X172232189Y-98787381D01*
X172254032Y-98797937D01*
X172274257Y-98809264D01*
X172292864Y-98821361D01*
X172309852Y-98834228D01*
X172325223Y-98847866D01*
X172332301Y-98854974D01*
X172338975Y-98862274D01*
X172345245Y-98869767D01*
X172351110Y-98877453D01*
X172356570Y-98885331D01*
X172361626Y-98893401D01*
X172366278Y-98901665D01*
X172370525Y-98910120D01*
X172374367Y-98918768D01*
X172377805Y-98927609D01*
X172380839Y-98936642D01*
X172383468Y-98945868D01*
X172385692Y-98955286D01*
X172387512Y-98964896D01*
X172388928Y-98974700D01*
X172389939Y-98984695D01*
X172390748Y-99005264D01*
X172390388Y-99020287D01*
X172389310Y-99034951D01*
X172387513Y-99049256D01*
X172384997Y-99063202D01*
X172381761Y-99076789D01*
X172377807Y-99090016D01*
X172373133Y-99102883D01*
X172367741Y-99115392D01*
X172361628Y-99127540D01*
X172354797Y-99139329D01*
X172347246Y-99150758D01*
X172338976Y-99161827D01*
X172329986Y-99172536D01*
X172320277Y-99182885D01*
X172309848Y-99192874D01*
X172298699Y-99202503D01*
X172286966Y-99211261D01*
X172274770Y-99219454D01*
X172262112Y-99227082D01*
X172248990Y-99234145D01*
X172235405Y-99240644D01*
X172221357Y-99246577D01*
X172206847Y-99251945D01*
X172191873Y-99256748D01*
X172176438Y-99260985D01*
X172160539Y-99264658D01*
X172144178Y-99267766D01*
X172127354Y-99270309D01*
X172110068Y-99272286D01*
X172092320Y-99273699D01*
X172074109Y-99274547D01*
X172055436Y-99274829D01*
X172034175Y-99274573D01*
X172009832Y-99273803D01*
X171982406Y-99272519D01*
X171951898Y-99270721D01*
X171918308Y-99268410D01*
X171881637Y-99265584D01*
X171799050Y-99258388D01*
X171753281Y-99254539D01*
X171706382Y-99251203D01*
X171658353Y-99248381D01*
X171609195Y-99246071D01*
X171558908Y-99244275D01*
X171507491Y-99242992D01*
X171454946Y-99242222D01*
X171401273Y-99241966D01*
X171292586Y-99242992D01*
X171190060Y-99246071D01*
X171141108Y-99248381D01*
X171093696Y-99251203D01*
X171047825Y-99254539D01*
X171003495Y-99258388D01*
X170922349Y-99265584D01*
X170853117Y-99270721D01*
X170795798Y-99273803D01*
X170771605Y-99274573D01*
X170750390Y-99274829D01*
X170726554Y-99274393D01*
X170703541Y-99273083D01*
X170681350Y-99270900D01*
X170659981Y-99267844D01*
X170639435Y-99263915D01*
X170619711Y-99259113D01*
X170600809Y-99253438D01*
X170582729Y-99246889D01*
X170565472Y-99239467D01*
X170549036Y-99231172D01*
X170533423Y-99222003D01*
X170518631Y-99211961D01*
X170504661Y-99201045D01*
X170491513Y-99189257D01*
X170479187Y-99176594D01*
X170467683Y-99163059D01*
X170460913Y-99154365D01*
X170454581Y-99145543D01*
X170448686Y-99136593D01*
X170443228Y-99127514D01*
X170438206Y-99118307D01*
X170433622Y-99108972D01*
X170429475Y-99099508D01*
X170425764Y-99089917D01*
X170422490Y-99080196D01*
X170419653Y-99070348D01*
X170417252Y-99060371D01*
X170415288Y-99050266D01*
X170413761Y-99040033D01*
X170412670Y-99029671D01*
X170412016Y-99019182D01*
X170411797Y-99008563D01*
X170412067Y-98995593D01*
X170412876Y-98982982D01*
X170414224Y-98970731D01*
X170416111Y-98958839D01*
X170418537Y-98947307D01*
X170421503Y-98936134D01*
X170425008Y-98925321D01*
X170429052Y-98914867D01*
X170433635Y-98904773D01*
X170438758Y-98895039D01*
X170444421Y-98885664D01*
X170450622Y-98876650D01*
X170457364Y-98867995D01*
X170464644Y-98859699D01*
X170472465Y-98851764D01*
X170480824Y-98844188D01*
X170488094Y-98838322D01*
X170496751Y-98832224D01*
X170506793Y-98825894D01*
X170518222Y-98819333D01*
X170531038Y-98812541D01*
X170545241Y-98805517D01*
X170560830Y-98798262D01*
X170577806Y-98790775D01*
X170596169Y-98783057D01*
X170615919Y-98775108D01*
X170637056Y-98766927D01*
X170659580Y-98758516D01*
X170708791Y-98740998D01*
X170763551Y-98722556D01*
X170783223Y-98715276D01*
X170801970Y-98707406D01*
X170819792Y-98698944D01*
X170836690Y-98689891D01*
X170852663Y-98680247D01*
X170867711Y-98670013D01*
X170881835Y-98659188D01*
X170895034Y-98647772D01*
X170907308Y-98635765D01*
X170918659Y-98623167D01*
X170929085Y-98609979D01*
X170938586Y-98596200D01*
X170947164Y-98581831D01*
X170954817Y-98566871D01*
X170961546Y-98551320D01*
X170967351Y-98535178D01*
X170970936Y-98525303D01*
X170974290Y-98514580D01*
X170977412Y-98503010D01*
X170980301Y-98490593D01*
X170982960Y-98477328D01*
X170985386Y-98463216D01*
X170987582Y-98448257D01*
X170989545Y-98432451D01*
X170991278Y-98415797D01*
X170992779Y-98398296D01*
X170994049Y-98379948D01*
X170995088Y-98360752D01*
X170996472Y-98319817D01*
X170996934Y-98275493D01*
X170996934Y-95790275D01*
X170996243Y-95759252D01*
X170994987Y-95729461D01*
X170993166Y-95700903D01*
X170990779Y-95673578D01*
X170987827Y-95647485D01*
X170984310Y-95622624D01*
X170980227Y-95598997D01*
X170975579Y-95576602D01*
X170970365Y-95555440D01*
X170964587Y-95535510D01*
X170958243Y-95516813D01*
X170951334Y-95499349D01*
X170943859Y-95483118D01*
X170935820Y-95468120D01*
X170927215Y-95454354D01*
X170918046Y-95441821D01*
X170910894Y-95433346D01*
X170903408Y-95425178D01*
X170895588Y-95417319D01*
X170887434Y-95409767D01*
X170878945Y-95402524D01*
X170870123Y-95395589D01*
X170860967Y-95388962D01*
X170851477Y-95382644D01*
X170841653Y-95376633D01*
X170831496Y-95370931D01*
X170821005Y-95365537D01*
X170810181Y-95360451D01*
X170799023Y-95355674D01*
X170787532Y-95351205D01*
X170775708Y-95347044D01*
X170763551Y-95343192D01*
X170618897Y-95300468D01*
X170593821Y-95292211D01*
X170570362Y-95283056D01*
X170548520Y-95273001D01*
X170528296Y-95262048D01*
X170509690Y-95250196D01*
X170500994Y-95243933D01*
X170492701Y-95237445D01*
X170484814Y-95230732D01*
X170477330Y-95223795D01*
X170470252Y-95216633D01*
X170463577Y-95209246D01*
X170457307Y-95201635D01*
X170451442Y-95193799D01*
X170445981Y-95185738D01*
X170440924Y-95177453D01*
X170436272Y-95168943D01*
X170432025Y-95160208D01*
X170428182Y-95151249D01*
X170424743Y-95142065D01*
X170421709Y-95132656D01*
X170419079Y-95123022D01*
X170416854Y-95113164D01*
X170415034Y-95103082D01*
X170413618Y-95092774D01*
X170412607Y-95082242D01*
X170411797Y-95060504D01*
X170412106Y-95047868D01*
X170413030Y-95035437D01*
X170414571Y-95023212D01*
X170416729Y-95011191D01*
X170419503Y-94999376D01*
X170422893Y-94987766D01*
X170426899Y-94976362D01*
X170431522Y-94965163D01*
X170436761Y-94954169D01*
X170442616Y-94943381D01*
X170449087Y-94932799D01*
X170456175Y-94922421D01*
X170463878Y-94912250D01*
X170472198Y-94902284D01*
X170481134Y-94892523D01*
X170490685Y-94882968D01*
X170502502Y-94871826D01*
X170514934Y-94861402D01*
X170527983Y-94851697D01*
X170541648Y-94842711D01*
X170555928Y-94834443D01*
X170570825Y-94826893D01*
X170586339Y-94820063D01*
X170602468Y-94813951D01*
X170619213Y-94808558D01*
X170636575Y-94803884D01*
X170654554Y-94799928D01*
X170673148Y-94796692D01*
X170692359Y-94794175D01*
X170712186Y-94792377D01*
X170732630Y-94791298D01*
X170753690Y-94790939D01*
X170775568Y-94791195D01*
X170800120Y-94791965D01*
X170827344Y-94793248D01*
X170857240Y-94795044D01*
X170889807Y-94797354D01*
X170925045Y-94800176D01*
X171003533Y-94807361D01*
X171048576Y-94811211D01*
X171094957Y-94814549D01*
X171142674Y-94817374D01*
X171191727Y-94819687D01*
X171242115Y-94821487D01*
X171293839Y-94822773D01*
X171346898Y-94823545D01*
X171401292Y-94823802D01*
X171508744Y-94822773D01*
X171610857Y-94819687D01*
X171659910Y-94817374D01*
X171707627Y-94814549D01*
X171754007Y-94811211D01*
X171799050Y-94807361D01*
X171877331Y-94800176D01*
X171944517Y-94795044D01*
X172000605Y-94791965D01*
X172024487Y-94791195D01*
X172045594Y-94790939D01*
X172069054Y-94791362D01*
X172091770Y-94792634D01*
X172113741Y-94794753D01*
X172134968Y-94797719D01*
X172155451Y-94801533D01*
X172175188Y-94806194D01*
X172194181Y-94811703D01*
X172212430Y-94818059D01*
X172229934Y-94825262D01*
X172246692Y-94833313D01*
X172262706Y-94842211D01*
X172277975Y-94851956D01*
X172292499Y-94862549D01*
X172306278Y-94873989D01*
X172319312Y-94886275D01*
X172331601Y-94899410D01*
X172338766Y-94908515D01*
X172345468Y-94917748D01*
X172351708Y-94927110D01*
X172357486Y-94936600D01*
X172362802Y-94946218D01*
X172367655Y-94955965D01*
X172372047Y-94965840D01*
X172375975Y-94975844D01*
X172379442Y-94985977D01*
X172382447Y-94996238D01*
X172384989Y-95006627D01*
X172387069Y-95017145D01*
X172388687Y-95027792D01*
X172389843Y-95038567D01*
X172390536Y-95049471D01*
X172390767Y-95060504D01*
X172390497Y-95072305D01*
X172389689Y-95083874D01*
X172388341Y-95095211D01*
X172386454Y-95106317D01*
X172384027Y-95117192D01*
X172381062Y-95127836D01*
X172377557Y-95138249D01*
X172373513Y-95148431D01*
X172368929Y-95158382D01*
X172363806Y-95168102D01*
X172358144Y-95177591D01*
X172351942Y-95186850D01*
X172345201Y-95195878D01*
X172337920Y-95204676D01*
X172330100Y-95213243D01*
X172321740Y-95221580D01*
X172314085Y-95228603D01*
X172305094Y-95235703D01*
X172294769Y-95242881D01*
X172283108Y-95250136D01*
X172270113Y-95257468D01*
X172255783Y-95264878D01*
X172240117Y-95272364D01*
X172223116Y-95279928D01*
X172204780Y-95287569D01*
X172185108Y-95295287D01*
X172164101Y-95303082D01*
X172141758Y-95310954D01*
X172118080Y-95318903D01*
X172093067Y-95326929D01*
X172066718Y-95335032D01*
X172039033Y-95343211D01*
X172019743Y-95349720D01*
X172001326Y-95356923D01*
X171983783Y-95364819D01*
X171967114Y-95373409D01*
X171951318Y-95382693D01*
X171936395Y-95392670D01*
X171922346Y-95403341D01*
X171909171Y-95414706D01*
X171896869Y-95426764D01*
X171885441Y-95439516D01*
X171874886Y-95452961D01*
X171865204Y-95467100D01*
X171856396Y-95481932D01*
X171848462Y-95497458D01*
X171841401Y-95513677D01*
X171835214Y-95530589D01*
X171831631Y-95540462D01*
X171828279Y-95551182D01*
X171825158Y-95562751D01*
X171822268Y-95575167D01*
X171819609Y-95588431D01*
X171817180Y-95602543D01*
X171814983Y-95617503D01*
X171813017Y-95633310D01*
X171811282Y-95649964D01*
X171809778Y-95667467D01*
X171808505Y-95685816D01*
X171807463Y-95705013D01*
X171806075Y-95745950D01*
X171805611Y-95790275D01*
X171805611Y-96608814D01*
X171884519Y-96552928D01*
X172156956Y-96354458D01*
X172379261Y-96189686D01*
X172551434Y-96058605D01*
X172673474Y-95961211D01*
X172809844Y-95845438D01*
X172928030Y-95741374D01*
X173028034Y-95649022D01*
X173109854Y-95568381D01*
X173143946Y-95532452D01*
X173173492Y-95499452D01*
X173198492Y-95469379D01*
X173218947Y-95442234D01*
X173234856Y-95418017D01*
X173246220Y-95396727D01*
X173253038Y-95378366D01*
X173255311Y-95362933D01*
X173255247Y-95359685D01*
X173255055Y-95356514D01*
X173254735Y-95353420D01*
X173254287Y-95350402D01*
X173253712Y-95347462D01*
X173253008Y-95344598D01*
X173252175Y-95341811D01*
X173251215Y-95339101D01*
X173250126Y-95336468D01*
X173248909Y-95333912D01*
X173247563Y-95331433D01*
X173246089Y-95329030D01*
X173244487Y-95326705D01*
X173242756Y-95324456D01*
X173240896Y-95322285D01*
X173238908Y-95320190D01*
X173236492Y-95318098D01*
X173233357Y-95315930D01*
X173229504Y-95313683D01*
X173224931Y-95311360D01*
X173219640Y-95308959D01*
X173213630Y-95306481D01*
X173206900Y-95303926D01*
X173199452Y-95301293D01*
X173191284Y-95298583D01*
X173182398Y-95295795D01*
X173172792Y-95292930D01*
X173162467Y-95289988D01*
X173151423Y-95286969D01*
X173139660Y-95283872D01*
X173113976Y-95277446D01*
X173089295Y-95270411D01*
X173066206Y-95262451D01*
X173044710Y-95253566D01*
X173024805Y-95243757D01*
X173006494Y-95233024D01*
X172997935Y-95227310D01*
X172989774Y-95221365D01*
X172982011Y-95215190D01*
X172974647Y-95208783D01*
X172967680Y-95202144D01*
X172961112Y-95195275D01*
X172954942Y-95188175D01*
X172949169Y-95180843D01*
X172943795Y-95173280D01*
X172938819Y-95165486D01*
X172934241Y-95157461D01*
X172930061Y-95149204D01*
X172926280Y-95140717D01*
X172922896Y-95131998D01*
X172919910Y-95123048D01*
X172917323Y-95113867D01*
X172915133Y-95104454D01*
X172913342Y-95094811D01*
X172911948Y-95084936D01*
X172910953Y-95074830D01*
X172910157Y-95053924D01*
X172910350Y-95044099D01*
X172910928Y-95034352D01*
X172911891Y-95024682D01*
X172913240Y-95015089D01*
X172914974Y-95005573D01*
X172917093Y-94996135D01*
X172919598Y-94986773D01*
X172922488Y-94977489D01*
X172925764Y-94968282D01*
X172929424Y-94959152D01*
X172933470Y-94950099D01*
X172937902Y-94941124D01*
X172942719Y-94932225D01*
X172947921Y-94923403D01*
X172953508Y-94914658D01*
X172959481Y-94905990D01*
X172970565Y-94892059D01*
X172976405Y-94885430D01*
X172982444Y-94879027D01*
X172988683Y-94872847D01*
X172995120Y-94866893D01*
X173001756Y-94861163D01*
X173008591Y-94855658D01*
X173015625Y-94850377D01*
X173022858Y-94845321D01*
X173030290Y-94840490D01*
X173037921Y-94835883D01*
X173053779Y-94827344D01*
X173070434Y-94819704D01*
X173087885Y-94812962D01*
X173106131Y-94807119D01*
X173125174Y-94802175D01*
X173145012Y-94798130D01*
X173165647Y-94794984D01*
X173187078Y-94792737D01*
X173209304Y-94791388D01*
X173232327Y-94790939D01*
X173252818Y-94791144D01*
G37*
G36*
X166269894Y-94787870D02*
G01*
X166289184Y-94788563D01*
X166307908Y-94789719D01*
X166326067Y-94791337D01*
X166343661Y-94793417D01*
X166360689Y-94795960D01*
X166377152Y-94798965D01*
X166393050Y-94802433D01*
X166408382Y-94806363D01*
X166423149Y-94810755D01*
X166437351Y-94815610D01*
X166450987Y-94820928D01*
X166464059Y-94826708D01*
X166476565Y-94832951D01*
X166488506Y-94839656D01*
X166499883Y-94846824D01*
X166510620Y-94853654D01*
X166521459Y-94860998D01*
X166532401Y-94868855D01*
X166543445Y-94877226D01*
X166554592Y-94886111D01*
X166565841Y-94895510D01*
X166577192Y-94905422D01*
X166588646Y-94915849D01*
X166600202Y-94926789D01*
X166611860Y-94938243D01*
X166623621Y-94950211D01*
X166635484Y-94962693D01*
X166647450Y-94975689D01*
X166659518Y-94989199D01*
X166671688Y-95003223D01*
X166683961Y-95017761D01*
X168948937Y-97779105D01*
X168948937Y-95786994D01*
X168948247Y-95755984D01*
X168946991Y-95726232D01*
X168945170Y-95697739D01*
X168942783Y-95670504D01*
X168939831Y-95644527D01*
X168936313Y-95619808D01*
X168932230Y-95596348D01*
X168927582Y-95574146D01*
X168922369Y-95553202D01*
X168916590Y-95533516D01*
X168910246Y-95515089D01*
X168903337Y-95497919D01*
X168895863Y-95482008D01*
X168887823Y-95467354D01*
X168879219Y-95453959D01*
X168870049Y-95441821D01*
X168862895Y-95432951D01*
X168855406Y-95424414D01*
X168847584Y-95416210D01*
X168839429Y-95408341D01*
X168830940Y-95400804D01*
X168822117Y-95393602D01*
X168812961Y-95386733D01*
X168803471Y-95380197D01*
X168793647Y-95373996D01*
X168783490Y-95368128D01*
X168772999Y-95362594D01*
X168762174Y-95357393D01*
X168751015Y-95352527D01*
X168739522Y-95347994D01*
X168727696Y-95343796D01*
X168715535Y-95339931D01*
X168570901Y-95297187D01*
X168545824Y-95288931D01*
X168522365Y-95279775D01*
X168500524Y-95269721D01*
X168480300Y-95258767D01*
X168461694Y-95246915D01*
X168452997Y-95240651D01*
X168444705Y-95234163D01*
X168436817Y-95227450D01*
X168429334Y-95220513D01*
X168422255Y-95213351D01*
X168415581Y-95205963D01*
X168409311Y-95198352D01*
X168403445Y-95190515D01*
X168397984Y-95182454D01*
X168392928Y-95174168D01*
X168388276Y-95165657D01*
X168384028Y-95156921D01*
X168380185Y-95147961D01*
X168376746Y-95138776D01*
X168373712Y-95129366D01*
X168371083Y-95119732D01*
X168368858Y-95109872D01*
X168367037Y-95099788D01*
X168365621Y-95089479D01*
X168364610Y-95078946D01*
X168363801Y-95057205D01*
X168364109Y-95044569D01*
X168365033Y-95032138D01*
X168366573Y-95019914D01*
X168368730Y-95007895D01*
X168371502Y-94996081D01*
X168374891Y-94984473D01*
X168378896Y-94973070D01*
X168383518Y-94961873D01*
X168388756Y-94950881D01*
X168394611Y-94940095D01*
X168401082Y-94929514D01*
X168408170Y-94919138D01*
X168415875Y-94908967D01*
X168424196Y-94899002D01*
X168433134Y-94889242D01*
X168442689Y-94879688D01*
X168454518Y-94868542D01*
X168466989Y-94858116D01*
X168480101Y-94848408D01*
X168493855Y-94839419D01*
X168508250Y-94831149D01*
X168523288Y-94823598D01*
X168538966Y-94816766D01*
X168555287Y-94810653D01*
X168572249Y-94805260D01*
X168589853Y-94800585D01*
X168608099Y-94796629D01*
X168626986Y-94793393D01*
X168646515Y-94790876D01*
X168666687Y-94789077D01*
X168687500Y-94787999D01*
X168708955Y-94787639D01*
X168732227Y-94787896D01*
X168757656Y-94788668D01*
X168785242Y-94789954D01*
X168814984Y-94791754D01*
X168846883Y-94794067D01*
X168880938Y-94796893D01*
X168917150Y-94800231D01*
X168955518Y-94804080D01*
X168996095Y-94807929D01*
X169035644Y-94811265D01*
X169074166Y-94814088D01*
X169111660Y-94816397D01*
X169148127Y-94818193D01*
X169183567Y-94819476D01*
X169217980Y-94820246D01*
X169251366Y-94820503D01*
X169284754Y-94820246D01*
X169319169Y-94819476D01*
X169354612Y-94818193D01*
X169391082Y-94816397D01*
X169428580Y-94814088D01*
X169467105Y-94811265D01*
X169506656Y-94807929D01*
X169547234Y-94804080D01*
X169621607Y-94796893D01*
X169686941Y-94791754D01*
X169716218Y-94789954D01*
X169743237Y-94788668D01*
X169767997Y-94787896D01*
X169790498Y-94787639D01*
X169814353Y-94788063D01*
X169837438Y-94789334D01*
X169859753Y-94791453D01*
X169881299Y-94794420D01*
X169902074Y-94798234D01*
X169922079Y-94802895D01*
X169941315Y-94808405D01*
X169959780Y-94814761D01*
X169977474Y-94821966D01*
X169994399Y-94830018D01*
X170010553Y-94838917D01*
X170025937Y-94848665D01*
X170040550Y-94859259D01*
X170054393Y-94870702D01*
X170067465Y-94882991D01*
X170079766Y-94896129D01*
X170086931Y-94905221D01*
X170093633Y-94914415D01*
X170099873Y-94923712D01*
X170105651Y-94933112D01*
X170110967Y-94942614D01*
X170115820Y-94952219D01*
X170120212Y-94961926D01*
X170124141Y-94971736D01*
X170127607Y-94981649D01*
X170130612Y-94991665D01*
X170133154Y-95001784D01*
X170135234Y-95012006D01*
X170136852Y-95022331D01*
X170138008Y-95032759D01*
X170138701Y-95043290D01*
X170138932Y-95053924D01*
X170138663Y-95066123D01*
X170137854Y-95078065D01*
X170136506Y-95089750D01*
X170134619Y-95101178D01*
X170132192Y-95112349D01*
X170129227Y-95123263D01*
X170125722Y-95133920D01*
X170121678Y-95144320D01*
X170117094Y-95154464D01*
X170111971Y-95164351D01*
X170106309Y-95173981D01*
X170100107Y-95183354D01*
X170093366Y-95192470D01*
X170086085Y-95201330D01*
X170078265Y-95209934D01*
X170069905Y-95218280D01*
X170062253Y-95225306D01*
X170053265Y-95232409D01*
X170042941Y-95239589D01*
X170031281Y-95246845D01*
X170018286Y-95254178D01*
X170003955Y-95261587D01*
X169988288Y-95269074D01*
X169971286Y-95276638D01*
X169952947Y-95284279D01*
X169933273Y-95291997D01*
X169912264Y-95299792D01*
X169889918Y-95307665D01*
X169866237Y-95315615D01*
X169841220Y-95323643D01*
X169814867Y-95331748D01*
X169787179Y-95339931D01*
X169768278Y-95346452D01*
X169750198Y-95353693D01*
X169732941Y-95361653D01*
X169716505Y-95370333D01*
X169700891Y-95379731D01*
X169686098Y-95389849D01*
X169672128Y-95400687D01*
X169658979Y-95412243D01*
X169646652Y-95424519D01*
X169635147Y-95437514D01*
X169624464Y-95451228D01*
X169614603Y-95465662D01*
X169605564Y-95480815D01*
X169597347Y-95496687D01*
X169589952Y-95513279D01*
X169583379Y-95530589D01*
X169579796Y-95539681D01*
X169576445Y-95549697D01*
X169573325Y-95560638D01*
X169570436Y-95572503D01*
X169567778Y-95585293D01*
X169565352Y-95599007D01*
X169563156Y-95613646D01*
X169561191Y-95629209D01*
X169559458Y-95645696D01*
X169557956Y-95663108D01*
X169556685Y-95681445D01*
X169555645Y-95700706D01*
X169554258Y-95742001D01*
X169553796Y-95786994D01*
X169553796Y-98525317D01*
X169577623Y-98557421D01*
X169599808Y-98586340D01*
X169620351Y-98612074D01*
X169639252Y-98634623D01*
X169656511Y-98653988D01*
X169672127Y-98670167D01*
X169679319Y-98677063D01*
X169686100Y-98683163D01*
X169692470Y-98688466D01*
X169698430Y-98692973D01*
X169703914Y-98697031D01*
X169709680Y-98700986D01*
X169715728Y-98704838D01*
X169722059Y-98708588D01*
X169728672Y-98712235D01*
X169735567Y-98715779D01*
X169742745Y-98719220D01*
X169750205Y-98722559D01*
X169757948Y-98725795D01*
X169765973Y-98728929D01*
X169774281Y-98731960D01*
X169782871Y-98734888D01*
X169791745Y-98737714D01*
X169800901Y-98740438D01*
X169810340Y-98743059D01*
X169820062Y-98745578D01*
X169867728Y-98756772D01*
X169910463Y-98767350D01*
X169948267Y-98777314D01*
X169981140Y-98786662D01*
X170009081Y-98795396D01*
X170032093Y-98803514D01*
X170050174Y-98811017D01*
X170057366Y-98814538D01*
X170063325Y-98817905D01*
X170076857Y-98826737D01*
X170089517Y-98835980D01*
X170101305Y-98845635D01*
X170106871Y-98850617D01*
X170112219Y-98855702D01*
X170117349Y-98860889D01*
X170122261Y-98866179D01*
X170126954Y-98871573D01*
X170131429Y-98877069D01*
X170135686Y-98882667D01*
X170139725Y-98888369D01*
X170143546Y-98894173D01*
X170147148Y-98900080D01*
X170150532Y-98906090D01*
X170153698Y-98912203D01*
X170156645Y-98918418D01*
X170159374Y-98924737D01*
X170161885Y-98931157D01*
X170164178Y-98937681D01*
X170166252Y-98944307D01*
X170168108Y-98951036D01*
X170169746Y-98957868D01*
X170171165Y-98964802D01*
X170172366Y-98971839D01*
X170173349Y-98978979D01*
X170174113Y-98986221D01*
X170174659Y-98993566D01*
X170175095Y-99008563D01*
X170174691Y-99025546D01*
X170173477Y-99041977D01*
X170171455Y-99057855D01*
X170168623Y-99073181D01*
X170164983Y-99087955D01*
X170160533Y-99102177D01*
X170155275Y-99115846D01*
X170149207Y-99128963D01*
X170142331Y-99141528D01*
X170134645Y-99153541D01*
X170126150Y-99165001D01*
X170116847Y-99175909D01*
X170106734Y-99186265D01*
X170095813Y-99196069D01*
X170084083Y-99205321D01*
X170071543Y-99214021D01*
X170058195Y-99222168D01*
X170044037Y-99229763D01*
X170029071Y-99236806D01*
X170013296Y-99243297D01*
X169996712Y-99249236D01*
X169979318Y-99254623D01*
X169961116Y-99259458D01*
X169942105Y-99263741D01*
X169922285Y-99267471D01*
X169901656Y-99270650D01*
X169880219Y-99273276D01*
X169857972Y-99275351D01*
X169834916Y-99276873D01*
X169811052Y-99277844D01*
X169786378Y-99278262D01*
X169760896Y-99278129D01*
X169593240Y-99274848D01*
X169513419Y-99273204D01*
X169439968Y-99269916D01*
X169372885Y-99264985D01*
X169312173Y-99258409D01*
X169257829Y-99250190D01*
X169209855Y-99240326D01*
X169188257Y-99234777D01*
X169168251Y-99228817D01*
X169149837Y-99222446D01*
X169133016Y-99215663D01*
X169112843Y-99206456D01*
X169091771Y-99195272D01*
X169069801Y-99182111D01*
X169046931Y-99166972D01*
X169023162Y-99149856D01*
X168998495Y-99130762D01*
X168972928Y-99109691D01*
X168946463Y-99086643D01*
X168919098Y-99061617D01*
X168890834Y-99034614D01*
X168861672Y-99005633D01*
X168831610Y-98974675D01*
X168800650Y-98941739D01*
X168768790Y-98906825D01*
X168736032Y-98869934D01*
X168702374Y-98831065D01*
X166591912Y-96299823D01*
X166591912Y-98275493D01*
X166592606Y-98306506D01*
X166593865Y-98336261D01*
X166595689Y-98364757D01*
X166598078Y-98391994D01*
X166601032Y-98417972D01*
X166604551Y-98442692D01*
X166608635Y-98466153D01*
X166613284Y-98488355D01*
X166618498Y-98509299D01*
X166624277Y-98528984D01*
X166630622Y-98547411D01*
X166637531Y-98564579D01*
X166645006Y-98580488D01*
X166653045Y-98595139D01*
X166661650Y-98608532D01*
X166670819Y-98620666D01*
X166677585Y-98628769D01*
X166684736Y-98636640D01*
X166692273Y-98644281D01*
X166700195Y-98651690D01*
X166708502Y-98658868D01*
X166717195Y-98665815D01*
X166726272Y-98672531D01*
X166735736Y-98679016D01*
X166745584Y-98685270D01*
X166755818Y-98691293D01*
X166766438Y-98697084D01*
X166777442Y-98702645D01*
X166788832Y-98707974D01*
X166800608Y-98713072D01*
X166812768Y-98717939D01*
X166825314Y-98722575D01*
X166969968Y-98768600D01*
X166995044Y-98777602D01*
X167018502Y-98787348D01*
X167040343Y-98797840D01*
X167060566Y-98809076D01*
X167079171Y-98821057D01*
X167096158Y-98833783D01*
X167111527Y-98847253D01*
X167118605Y-98854268D01*
X167125278Y-98861469D01*
X167131547Y-98868856D01*
X167137412Y-98876429D01*
X167142872Y-98884188D01*
X167147928Y-98892133D01*
X167152579Y-98900265D01*
X167156826Y-98908583D01*
X167160668Y-98917087D01*
X167164106Y-98925777D01*
X167167139Y-98934654D01*
X167169768Y-98943716D01*
X167171993Y-98952965D01*
X167173813Y-98962400D01*
X167175229Y-98972021D01*
X167176240Y-98981829D01*
X167177049Y-99002002D01*
X167176741Y-99015033D01*
X167175816Y-99027833D01*
X167174276Y-99040403D01*
X167172120Y-99052742D01*
X167169347Y-99064850D01*
X167165958Y-99076727D01*
X167161953Y-99088374D01*
X167157331Y-99099789D01*
X167152093Y-99110974D01*
X167146239Y-99121928D01*
X167139767Y-99132651D01*
X167132679Y-99143143D01*
X167124975Y-99153403D01*
X167116654Y-99163433D01*
X167107716Y-99173232D01*
X167098161Y-99182800D01*
X167086335Y-99193945D01*
X167073867Y-99204372D01*
X167060757Y-99214079D01*
X167047005Y-99223068D01*
X167032611Y-99231338D01*
X167017575Y-99238889D01*
X167001897Y-99245721D01*
X166985577Y-99251834D01*
X166968615Y-99257228D01*
X166951010Y-99261902D01*
X166932763Y-99265858D01*
X166913874Y-99269094D01*
X166894343Y-99271612D01*
X166874169Y-99273410D01*
X166853353Y-99274489D01*
X166831895Y-99274848D01*
X166809343Y-99274592D01*
X166784430Y-99273822D01*
X166757156Y-99272538D01*
X166727520Y-99270740D01*
X166695522Y-99268429D01*
X166661161Y-99265603D01*
X166624438Y-99262262D01*
X166585351Y-99258407D01*
X166544773Y-99254558D01*
X166505221Y-99251222D01*
X166466696Y-99248400D01*
X166429199Y-99246090D01*
X166392728Y-99244294D01*
X166357285Y-99243011D01*
X166322870Y-99242241D01*
X166289483Y-99241985D01*
X166255382Y-99242241D01*
X166220458Y-99243011D01*
X166184710Y-99244294D01*
X166148139Y-99246090D01*
X166110745Y-99248400D01*
X166072530Y-99251222D01*
X166033493Y-99254558D01*
X165993634Y-99258407D01*
X165919259Y-99265603D01*
X165853921Y-99270740D01*
X165824642Y-99272538D01*
X165797624Y-99273822D01*
X165772866Y-99274592D01*
X165750371Y-99274848D01*
X165726512Y-99274412D01*
X165703424Y-99273102D01*
X165681106Y-99270919D01*
X165659559Y-99267863D01*
X165638781Y-99263934D01*
X165618775Y-99259132D01*
X165599538Y-99253457D01*
X165581072Y-99246908D01*
X165563377Y-99239486D01*
X165546452Y-99231191D01*
X165530297Y-99222022D01*
X165514913Y-99211980D01*
X165500300Y-99201065D01*
X165486457Y-99189276D01*
X165473385Y-99176613D01*
X165461083Y-99163078D01*
X165453919Y-99153973D01*
X165447216Y-99144739D01*
X165440976Y-99135378D01*
X165435198Y-99125888D01*
X165429883Y-99116270D01*
X165425029Y-99106523D01*
X165420638Y-99096648D01*
X165416709Y-99086645D01*
X165413242Y-99076514D01*
X165410238Y-99066254D01*
X165407695Y-99055866D01*
X165405615Y-99045350D01*
X165403997Y-99034706D01*
X165402842Y-99023933D01*
X165402148Y-99013032D01*
X165401917Y-99002002D01*
X165402187Y-98989829D01*
X165402996Y-98977963D01*
X165404344Y-98966406D01*
X165406231Y-98955157D01*
X165408658Y-98944216D01*
X165411624Y-98933583D01*
X165415129Y-98923258D01*
X165419174Y-98913241D01*
X165423759Y-98903533D01*
X165428883Y-98894133D01*
X165434547Y-98885041D01*
X165440750Y-98876257D01*
X165447494Y-98867782D01*
X165454777Y-98859615D01*
X165462600Y-98851757D01*
X165470963Y-98844207D01*
X165478230Y-98838337D01*
X165486884Y-98832236D01*
X165496925Y-98825904D01*
X165508353Y-98819342D01*
X165521168Y-98812548D01*
X165535370Y-98805523D01*
X165550959Y-98798267D01*
X165567935Y-98790780D01*
X165586298Y-98783062D01*
X165606048Y-98775114D01*
X165627185Y-98766934D01*
X165649708Y-98758524D01*
X165698916Y-98741011D01*
X165753671Y-98722575D01*
X165773343Y-98715283D01*
X165792091Y-98707373D01*
X165809914Y-98698846D01*
X165826813Y-98689703D01*
X165842787Y-98679944D01*
X165857837Y-98669567D01*
X165871962Y-98658575D01*
X165885163Y-98646966D01*
X165897440Y-98634741D01*
X165908792Y-98621899D01*
X165919219Y-98608442D01*
X165928722Y-98594369D01*
X165937301Y-98579679D01*
X165944955Y-98564374D01*
X165951685Y-98548453D01*
X165957490Y-98531917D01*
X165961072Y-98522439D01*
X165964423Y-98512088D01*
X165967543Y-98500864D01*
X165970432Y-98488766D01*
X165973090Y-98475795D01*
X165975517Y-98461951D01*
X165977713Y-98447233D01*
X165979677Y-98431643D01*
X165981410Y-98415179D01*
X165982913Y-98397843D01*
X165984184Y-98379633D01*
X165985224Y-98360551D01*
X165986611Y-98319767D01*
X165987073Y-98275493D01*
X165987073Y-95543750D01*
X165946700Y-95504708D01*
X165909410Y-95469777D01*
X165875202Y-95438958D01*
X165844077Y-95412248D01*
X165816033Y-95389648D01*
X165791070Y-95371155D01*
X165779745Y-95363450D01*
X165769190Y-95356770D01*
X165759405Y-95351118D01*
X165750390Y-95346492D01*
X165744469Y-95343642D01*
X165738214Y-95340844D01*
X165731625Y-95338097D01*
X165724702Y-95335402D01*
X165717445Y-95332757D01*
X165709855Y-95330164D01*
X165693673Y-95325132D01*
X165676156Y-95320305D01*
X165657304Y-95315682D01*
X165637118Y-95311263D01*
X165615598Y-95307048D01*
X165573015Y-95299293D01*
X165534029Y-95290819D01*
X165515885Y-95286312D01*
X165498641Y-95281625D01*
X165482295Y-95276759D01*
X165466848Y-95271712D01*
X165452301Y-95266486D01*
X165438652Y-95261079D01*
X165425902Y-95255493D01*
X165414051Y-95249727D01*
X165403099Y-95243780D01*
X165393045Y-95237654D01*
X165383890Y-95231347D01*
X165375634Y-95224860D01*
X165365282Y-95215669D01*
X165355598Y-95206168D01*
X165346582Y-95196359D01*
X165338233Y-95186241D01*
X165330553Y-95175815D01*
X165323540Y-95165080D01*
X165317195Y-95154036D01*
X165311519Y-95142685D01*
X165306510Y-95131025D01*
X165302168Y-95119057D01*
X165298495Y-95106781D01*
X165295490Y-95094197D01*
X165293152Y-95081305D01*
X165291482Y-95068105D01*
X165290481Y-95054597D01*
X165290147Y-95040782D01*
X165290416Y-95028570D01*
X165291226Y-95016590D01*
X165292575Y-95004840D01*
X165294463Y-94993321D01*
X165296891Y-94982034D01*
X165299858Y-94970978D01*
X165303365Y-94960153D01*
X165307411Y-94949559D01*
X165311996Y-94939196D01*
X165317121Y-94929064D01*
X165322785Y-94919163D01*
X165328988Y-94909493D01*
X165335730Y-94900055D01*
X165343012Y-94890848D01*
X165350833Y-94881871D01*
X165359193Y-94873126D01*
X165365779Y-94866707D01*
X165372391Y-94860595D01*
X165379029Y-94854791D01*
X165385693Y-94849295D01*
X165392382Y-94844107D01*
X165399098Y-94839226D01*
X165405839Y-94834654D01*
X165412606Y-94830390D01*
X165419398Y-94826434D01*
X165426216Y-94822786D01*
X165433060Y-94819447D01*
X165439930Y-94816416D01*
X165446825Y-94813694D01*
X165453746Y-94811281D01*
X165460692Y-94809176D01*
X165467664Y-94807380D01*
X165481304Y-94804993D01*
X165496742Y-94802759D01*
X165533010Y-94798751D01*
X165576467Y-94795359D01*
X165627113Y-94792581D01*
X165684950Y-94790420D01*
X165749977Y-94788875D01*
X165822195Y-94787948D01*
X165901605Y-94787639D01*
X166250039Y-94787639D01*
X166269894Y-94787870D01*
G37*
G36*
X164929787Y-94791362D02*
G01*
X164953247Y-94792634D01*
X164975912Y-94794753D01*
X164997780Y-94797719D01*
X165018852Y-94801533D01*
X165039128Y-94806195D01*
X165058608Y-94811704D01*
X165077291Y-94818061D01*
X165095179Y-94825266D01*
X165112270Y-94833318D01*
X165128565Y-94842217D01*
X165144064Y-94851964D01*
X165158767Y-94862559D01*
X165172673Y-94874001D01*
X165185784Y-94886291D01*
X165198098Y-94899429D01*
X165205263Y-94908135D01*
X165211965Y-94916996D01*
X165218205Y-94926011D01*
X165223983Y-94935180D01*
X165229299Y-94944504D01*
X165234152Y-94953981D01*
X165238544Y-94963613D01*
X165242473Y-94973398D01*
X165245939Y-94983337D01*
X165248944Y-94993431D01*
X165251486Y-95003678D01*
X165253566Y-95014080D01*
X165255184Y-95024635D01*
X165256340Y-95035344D01*
X165257033Y-95046207D01*
X165257264Y-95057224D01*
X165256994Y-95069419D01*
X165256186Y-95081359D01*
X165254838Y-95093042D01*
X165252951Y-95104469D01*
X165250524Y-95115640D01*
X165247559Y-95126554D01*
X165244054Y-95137212D01*
X165240010Y-95147613D01*
X165235426Y-95157757D01*
X165230303Y-95167645D01*
X165224641Y-95177276D01*
X165218439Y-95186651D01*
X165211698Y-95195769D01*
X165204417Y-95204629D01*
X165196597Y-95213233D01*
X165188237Y-95221580D01*
X165180585Y-95228603D01*
X165171597Y-95235703D01*
X165161273Y-95242881D01*
X165149614Y-95250136D01*
X165136619Y-95257468D01*
X165122288Y-95264878D01*
X165106622Y-95272364D01*
X165089620Y-95279928D01*
X165071283Y-95287569D01*
X165051610Y-95295287D01*
X165030602Y-95303082D01*
X165008258Y-95310954D01*
X164984579Y-95318903D01*
X164959565Y-95326929D01*
X164933215Y-95335032D01*
X164905530Y-95343211D01*
X164886243Y-95349723D01*
X164867830Y-95356928D01*
X164850289Y-95364826D01*
X164833622Y-95373417D01*
X164817827Y-95382701D01*
X164802906Y-95392679D01*
X164788858Y-95403349D01*
X164775682Y-95414713D01*
X164763380Y-95426770D01*
X164751951Y-95439521D01*
X164741395Y-95452965D01*
X164731712Y-95467103D01*
X164722902Y-95481934D01*
X164714965Y-95497459D01*
X164707901Y-95513677D01*
X164701711Y-95530589D01*
X164698128Y-95540465D01*
X164694777Y-95551189D01*
X164691657Y-95562760D01*
X164688768Y-95575178D01*
X164686110Y-95588444D01*
X164683683Y-95602557D01*
X164681488Y-95617518D01*
X164679523Y-95633326D01*
X164677790Y-95649982D01*
X164676288Y-95667485D01*
X164675017Y-95685835D01*
X164673977Y-95705032D01*
X164672590Y-95745969D01*
X164672128Y-95790294D01*
X164672128Y-97581867D01*
X164670407Y-97682373D01*
X164665245Y-97780080D01*
X164656642Y-97874988D01*
X164644597Y-97967096D01*
X164629111Y-98056405D01*
X164610184Y-98142915D01*
X164587815Y-98226625D01*
X164562004Y-98307536D01*
X164532753Y-98385648D01*
X164500059Y-98460961D01*
X164463924Y-98533474D01*
X164424348Y-98603187D01*
X164381330Y-98670102D01*
X164334870Y-98734217D01*
X164284969Y-98795533D01*
X164231625Y-98854049D01*
X164170577Y-98913362D01*
X164106602Y-98968848D01*
X164039700Y-99020507D01*
X163969870Y-99068340D01*
X163897113Y-99112346D01*
X163821428Y-99152525D01*
X163742816Y-99188878D01*
X163661276Y-99221404D01*
X163576808Y-99250104D01*
X163489413Y-99274977D01*
X163399090Y-99296023D01*
X163305840Y-99313243D01*
X163209661Y-99326636D01*
X163110555Y-99336203D01*
X163008520Y-99341943D01*
X162903558Y-99343856D01*
X162792263Y-99341725D01*
X162684384Y-99335330D01*
X162579921Y-99324673D01*
X162478874Y-99309752D01*
X162381243Y-99290569D01*
X162287028Y-99267123D01*
X162196230Y-99239413D01*
X162108847Y-99207440D01*
X162024879Y-99171204D01*
X161944328Y-99130705D01*
X161867192Y-99085943D01*
X161793472Y-99036918D01*
X161723167Y-98983629D01*
X161656278Y-98926077D01*
X161592804Y-98864261D01*
X161532746Y-98798183D01*
X161505035Y-98765130D01*
X161478609Y-98731717D01*
X161453466Y-98697944D01*
X161429607Y-98663812D01*
X161407032Y-98629319D01*
X161385741Y-98594467D01*
X161365734Y-98559256D01*
X161347011Y-98523684D01*
X161329572Y-98487753D01*
X161313418Y-98451463D01*
X161298547Y-98414813D01*
X161284961Y-98377803D01*
X161272659Y-98340434D01*
X161261641Y-98302705D01*
X161251908Y-98264617D01*
X161243459Y-98226169D01*
X161231905Y-98166586D01*
X161221890Y-98104539D01*
X161213416Y-98040027D01*
X161206482Y-97973049D01*
X161201089Y-97903606D01*
X161197236Y-97831696D01*
X161194924Y-97757320D01*
X161194154Y-97680476D01*
X161194154Y-95790275D01*
X161193460Y-95759252D01*
X161192201Y-95729461D01*
X161190377Y-95700903D01*
X161187988Y-95673578D01*
X161185034Y-95647485D01*
X161181515Y-95622624D01*
X161177431Y-95598997D01*
X161172782Y-95576602D01*
X161167568Y-95555440D01*
X161161788Y-95535510D01*
X161155444Y-95516813D01*
X161148535Y-95499349D01*
X161141060Y-95483118D01*
X161133021Y-95468120D01*
X161124416Y-95454354D01*
X161115247Y-95441821D01*
X161108095Y-95433346D01*
X161100610Y-95425179D01*
X161092791Y-95417321D01*
X161084637Y-95409770D01*
X161076150Y-95402529D01*
X161067329Y-95395595D01*
X161058174Y-95388970D01*
X161048685Y-95382653D01*
X161038862Y-95376644D01*
X161028705Y-95370944D01*
X161018214Y-95365551D01*
X161007390Y-95360467D01*
X160996231Y-95355691D01*
X160984738Y-95351223D01*
X160972912Y-95347063D01*
X160960751Y-95343211D01*
X160816098Y-95300468D01*
X160791019Y-95292211D01*
X160767557Y-95283056D01*
X160745714Y-95273001D01*
X160725489Y-95262048D01*
X160706882Y-95250196D01*
X160698186Y-95243933D01*
X160689894Y-95237445D01*
X160682006Y-95230732D01*
X160674523Y-95223795D01*
X160667445Y-95216633D01*
X160660771Y-95209246D01*
X160654501Y-95201635D01*
X160648636Y-95193799D01*
X160643176Y-95185738D01*
X160638120Y-95177453D01*
X160633468Y-95168943D01*
X160629222Y-95160208D01*
X160625379Y-95151249D01*
X160621941Y-95142065D01*
X160618908Y-95132656D01*
X160616278Y-95123022D01*
X160614054Y-95113164D01*
X160612234Y-95103082D01*
X160610818Y-95092774D01*
X160609807Y-95082242D01*
X160608998Y-95060504D01*
X160609306Y-95047483D01*
X160610231Y-95034718D01*
X160611772Y-95022209D01*
X160613930Y-95009958D01*
X160616704Y-94997963D01*
X160620094Y-94986225D01*
X160624101Y-94974744D01*
X160628725Y-94963520D01*
X160633965Y-94952553D01*
X160639821Y-94941844D01*
X160646294Y-94931391D01*
X160653383Y-94921196D01*
X160661089Y-94911258D01*
X160669411Y-94901577D01*
X160678350Y-94892153D01*
X160687905Y-94882987D01*
X160699731Y-94871842D01*
X160712199Y-94861415D01*
X160725309Y-94851708D01*
X160739061Y-94842719D01*
X160753454Y-94834449D01*
X160768490Y-94826898D01*
X160784169Y-94820066D01*
X160800489Y-94813953D01*
X160817451Y-94808559D01*
X160835056Y-94803885D01*
X160853303Y-94799929D01*
X160872192Y-94796693D01*
X160891723Y-94794175D01*
X160911897Y-94792377D01*
X160932713Y-94791298D01*
X160954171Y-94790939D01*
X160975998Y-94791144D01*
X161000394Y-94791761D01*
X161027359Y-94792788D01*
X161056894Y-94794226D01*
X161123668Y-94798334D01*
X161200715Y-94804080D01*
X161245045Y-94807930D01*
X161290916Y-94811268D01*
X161338327Y-94814094D01*
X161387280Y-94816407D01*
X161437773Y-94818206D01*
X161489806Y-94819492D01*
X161543379Y-94820264D01*
X161598493Y-94820522D01*
X161707176Y-94819492D01*
X161809696Y-94816407D01*
X161858645Y-94814094D01*
X161906053Y-94811268D01*
X161951922Y-94807930D01*
X161996251Y-94804080D01*
X162073298Y-94798334D01*
X162140075Y-94794226D01*
X162196580Y-94791761D01*
X162242814Y-94790939D01*
X162266274Y-94791362D01*
X162288989Y-94792634D01*
X162310959Y-94794753D01*
X162332185Y-94797719D01*
X162352666Y-94801533D01*
X162372402Y-94806195D01*
X162391394Y-94811704D01*
X162409640Y-94818061D01*
X162427142Y-94825266D01*
X162443899Y-94833318D01*
X162459911Y-94842217D01*
X162475179Y-94851964D01*
X162489702Y-94862559D01*
X162503480Y-94874001D01*
X162516513Y-94886291D01*
X162528802Y-94899429D01*
X162535966Y-94908518D01*
X162542669Y-94917710D01*
X162548909Y-94927005D01*
X162554687Y-94936404D01*
X162560003Y-94945905D01*
X162564856Y-94955510D01*
X162569247Y-94965218D01*
X162573176Y-94975029D01*
X162576643Y-94984943D01*
X162579648Y-94994960D01*
X162582190Y-95005080D01*
X162584270Y-95015303D01*
X162585888Y-95025629D01*
X162587043Y-95036057D01*
X162587737Y-95046589D01*
X162587968Y-95057224D01*
X162587698Y-95069419D01*
X162586889Y-95081359D01*
X162585542Y-95093042D01*
X162583654Y-95104469D01*
X162581228Y-95115640D01*
X162578263Y-95126554D01*
X162574758Y-95137212D01*
X162570713Y-95147613D01*
X162566130Y-95157757D01*
X162561007Y-95167645D01*
X162555345Y-95177276D01*
X162549143Y-95186651D01*
X162542402Y-95195769D01*
X162535121Y-95204629D01*
X162527301Y-95213233D01*
X162518941Y-95221580D01*
X162511288Y-95228603D01*
X162502300Y-95235703D01*
X162491977Y-95242881D01*
X162480317Y-95250136D01*
X162467322Y-95257468D01*
X162452992Y-95264878D01*
X162437325Y-95272364D01*
X162420324Y-95279928D01*
X162401986Y-95287569D01*
X162382314Y-95295287D01*
X162361306Y-95303082D01*
X162338962Y-95310954D01*
X162315283Y-95318903D01*
X162290268Y-95326929D01*
X162263919Y-95335032D01*
X162236234Y-95343211D01*
X162216947Y-95349723D01*
X162198533Y-95356928D01*
X162180993Y-95364826D01*
X162164325Y-95373417D01*
X162148531Y-95382701D01*
X162133610Y-95392679D01*
X162119561Y-95403349D01*
X162106386Y-95414713D01*
X162094084Y-95426770D01*
X162082655Y-95439521D01*
X162072099Y-95452965D01*
X162062416Y-95467103D01*
X162053606Y-95481934D01*
X162045669Y-95497459D01*
X162038605Y-95513677D01*
X162032414Y-95530589D01*
X162028832Y-95540465D01*
X162025481Y-95551189D01*
X162022361Y-95562760D01*
X162019472Y-95575178D01*
X162016814Y-95588444D01*
X162014387Y-95602557D01*
X162012192Y-95617518D01*
X162010227Y-95633326D01*
X162008494Y-95649982D01*
X162006991Y-95667485D01*
X162005720Y-95685835D01*
X162004680Y-95705032D01*
X162003294Y-95745969D01*
X162002831Y-95790294D01*
X162002831Y-97667354D01*
X162006812Y-97794336D01*
X162011788Y-97854755D01*
X162018754Y-97913126D01*
X162027710Y-97969448D01*
X162038657Y-98023723D01*
X162051594Y-98075950D01*
X162066522Y-98126129D01*
X162083439Y-98174260D01*
X162102347Y-98220343D01*
X162123246Y-98264377D01*
X162146135Y-98306364D01*
X162171014Y-98346303D01*
X162197883Y-98384193D01*
X162226743Y-98420036D01*
X162257594Y-98453830D01*
X162290434Y-98485576D01*
X162325265Y-98515275D01*
X162362086Y-98542925D01*
X162400898Y-98568527D01*
X162441700Y-98592080D01*
X162484493Y-98613586D01*
X162529276Y-98633044D01*
X162576049Y-98650453D01*
X162624813Y-98665815D01*
X162675567Y-98679128D01*
X162728311Y-98690393D01*
X162783046Y-98699610D01*
X162839771Y-98706778D01*
X162898487Y-98711899D01*
X162959193Y-98714971D01*
X163021890Y-98715995D01*
X163088292Y-98714878D01*
X163152717Y-98711527D01*
X163215164Y-98705941D01*
X163275634Y-98698121D01*
X163334126Y-98688066D01*
X163390640Y-98675777D01*
X163445176Y-98661254D01*
X163497735Y-98644496D01*
X163548316Y-98625503D01*
X163596919Y-98604276D01*
X163643545Y-98580815D01*
X163688193Y-98555119D01*
X163730864Y-98527188D01*
X163771556Y-98497023D01*
X163810271Y-98464623D01*
X163847009Y-98429988D01*
X163866308Y-98410047D01*
X163884761Y-98389669D01*
X163902366Y-98368855D01*
X163919124Y-98347604D01*
X163935034Y-98325917D01*
X163950097Y-98303794D01*
X163964313Y-98281233D01*
X163977681Y-98258236D01*
X163990202Y-98234802D01*
X164001874Y-98210932D01*
X164012700Y-98186624D01*
X164022677Y-98161880D01*
X164031807Y-98136699D01*
X164040089Y-98111080D01*
X164047523Y-98085025D01*
X164054109Y-98058532D01*
X164064891Y-98007630D01*
X164074236Y-97955188D01*
X164082143Y-97901205D01*
X164088612Y-97845681D01*
X164093644Y-97788617D01*
X164097238Y-97730010D01*
X164099395Y-97669861D01*
X164100114Y-97608169D01*
X164100152Y-97608169D01*
X164100152Y-95790275D01*
X164099461Y-95759252D01*
X164098206Y-95729461D01*
X164096384Y-95700903D01*
X164093997Y-95673578D01*
X164091045Y-95647485D01*
X164087528Y-95622624D01*
X164083445Y-95598997D01*
X164078797Y-95576602D01*
X164073583Y-95555440D01*
X164067805Y-95535510D01*
X164061461Y-95516813D01*
X164054552Y-95499349D01*
X164047077Y-95483118D01*
X164039038Y-95468120D01*
X164030434Y-95454354D01*
X164021264Y-95441821D01*
X164014112Y-95433346D01*
X164006626Y-95425179D01*
X163998806Y-95417321D01*
X163990652Y-95409770D01*
X163982163Y-95402529D01*
X163973340Y-95395595D01*
X163964183Y-95388970D01*
X163954693Y-95382653D01*
X163944868Y-95376644D01*
X163934709Y-95370944D01*
X163924217Y-95365551D01*
X163913391Y-95360467D01*
X163902231Y-95355691D01*
X163890737Y-95351223D01*
X163878910Y-95347063D01*
X163866750Y-95343211D01*
X163722115Y-95300468D01*
X163697039Y-95292211D01*
X163673580Y-95283056D01*
X163651739Y-95273001D01*
X163631515Y-95262048D01*
X163612908Y-95250196D01*
X163604212Y-95243933D01*
X163595919Y-95237445D01*
X163588032Y-95230732D01*
X163580548Y-95223795D01*
X163573470Y-95216633D01*
X163566795Y-95209246D01*
X163560525Y-95201635D01*
X163554660Y-95193799D01*
X163549199Y-95185738D01*
X163544142Y-95177453D01*
X163539490Y-95168943D01*
X163535243Y-95160208D01*
X163531400Y-95151249D01*
X163527961Y-95142065D01*
X163524927Y-95132656D01*
X163522297Y-95123022D01*
X163520072Y-95113164D01*
X163518252Y-95103082D01*
X163516836Y-95092774D01*
X163515825Y-95082242D01*
X163515015Y-95060504D01*
X163515324Y-95047868D01*
X163516248Y-95035438D01*
X163517789Y-95023213D01*
X163519947Y-95011194D01*
X163522721Y-94999381D01*
X163526111Y-94987772D01*
X163530117Y-94976370D01*
X163534740Y-94965173D01*
X163539979Y-94954181D01*
X163545834Y-94943394D01*
X163552305Y-94932813D01*
X163559393Y-94922438D01*
X163567096Y-94912267D01*
X163575416Y-94902302D01*
X163584352Y-94892542D01*
X163593903Y-94882987D01*
X163605745Y-94871842D01*
X163618254Y-94861415D01*
X163631431Y-94851708D01*
X163645274Y-94842719D01*
X163659785Y-94834449D01*
X163674963Y-94826898D01*
X163690808Y-94820066D01*
X163707322Y-94813953D01*
X163724502Y-94808559D01*
X163742351Y-94803885D01*
X163760867Y-94799929D01*
X163780051Y-94796693D01*
X163799904Y-94794175D01*
X163820424Y-94792377D01*
X163841612Y-94791298D01*
X163863469Y-94790939D01*
X163887404Y-94791144D01*
X163913189Y-94791761D01*
X163940825Y-94792788D01*
X163970309Y-94794226D01*
X164001643Y-94796075D01*
X164034825Y-94798334D01*
X164106732Y-94804080D01*
X164184599Y-94811268D01*
X164221528Y-94814094D01*
X164257122Y-94816407D01*
X164291380Y-94818206D01*
X164324302Y-94819492D01*
X164355889Y-94820264D01*
X164386140Y-94820522D01*
X164416391Y-94820264D01*
X164447980Y-94819492D01*
X164480906Y-94818206D01*
X164515167Y-94816407D01*
X164550764Y-94814094D01*
X164587697Y-94811268D01*
X164625964Y-94807930D01*
X164665566Y-94804080D01*
X164737267Y-94798334D01*
X164801162Y-94794226D01*
X164857250Y-94791761D01*
X164882366Y-94791144D01*
X164905530Y-94790939D01*
X164929787Y-94791362D01*
G37*
G36*
X158836706Y-94772700D02*
G01*
X158916642Y-94777208D01*
X158994806Y-94784720D01*
X159071198Y-94795237D01*
X159145818Y-94808759D01*
X159218665Y-94825286D01*
X159289740Y-94844818D01*
X159359043Y-94867354D01*
X159426574Y-94892895D01*
X159492333Y-94921441D01*
X159556319Y-94952992D01*
X159618533Y-94987547D01*
X159678974Y-95025107D01*
X159737643Y-95065672D01*
X159794540Y-95109241D01*
X159849664Y-95155814D01*
X159895839Y-95198383D01*
X159939036Y-95242261D01*
X159979254Y-95287449D01*
X160016493Y-95333946D01*
X160050753Y-95381753D01*
X160082035Y-95430869D01*
X160110337Y-95481295D01*
X160135661Y-95533031D01*
X160158006Y-95586076D01*
X160177371Y-95640432D01*
X160193757Y-95696097D01*
X160207165Y-95753073D01*
X160217592Y-95811358D01*
X160225041Y-95870954D01*
X160229510Y-95931859D01*
X160231000Y-95994075D01*
X160228971Y-96064609D01*
X160222884Y-96133217D01*
X160212740Y-96199900D01*
X160198538Y-96264656D01*
X160180278Y-96327487D01*
X160157961Y-96388391D01*
X160131585Y-96447370D01*
X160101152Y-96504422D01*
X160066662Y-96559548D01*
X160028113Y-96612749D01*
X159985507Y-96664023D01*
X159938843Y-96713371D01*
X159888121Y-96760793D01*
X159833342Y-96806289D01*
X159774505Y-96849858D01*
X159711610Y-96891502D01*
X159678721Y-96911177D01*
X159644985Y-96929927D01*
X159610403Y-96947752D01*
X159574974Y-96964652D01*
X159538697Y-96980627D01*
X159501574Y-96995676D01*
X159463603Y-97009801D01*
X159424785Y-97023001D01*
X159385120Y-97035277D01*
X159344607Y-97046628D01*
X159303247Y-97057054D01*
X159261039Y-97066556D01*
X159217983Y-97075134D01*
X159174080Y-97082787D01*
X159129329Y-97089516D01*
X159083730Y-97095321D01*
X159128157Y-97119415D01*
X159171044Y-97144020D01*
X159212392Y-97169137D01*
X159252199Y-97194765D01*
X159290465Y-97220907D01*
X159327191Y-97247563D01*
X159362376Y-97274734D01*
X159396020Y-97302421D01*
X159427158Y-97330272D01*
X159458117Y-97359587D01*
X159488895Y-97390366D01*
X159519495Y-97422609D01*
X159549914Y-97456316D01*
X159580154Y-97491487D01*
X159610215Y-97528122D01*
X159640096Y-97566222D01*
X159669798Y-97605785D01*
X159699320Y-97646812D01*
X159728662Y-97689303D01*
X159757826Y-97733259D01*
X159786810Y-97778678D01*
X159815614Y-97825562D01*
X159844239Y-97873909D01*
X159872685Y-97923721D01*
X160034172Y-98203347D01*
X160160321Y-98414348D01*
X160210143Y-98494115D01*
X160251132Y-98556727D01*
X160283286Y-98602185D01*
X160306607Y-98630489D01*
X160319834Y-98643472D01*
X160333215Y-98656121D01*
X160346749Y-98668436D01*
X160360438Y-98680417D01*
X160374280Y-98692064D01*
X160388276Y-98703378D01*
X160402426Y-98714357D01*
X160416730Y-98725003D01*
X160431188Y-98735314D01*
X160445801Y-98745292D01*
X160460567Y-98754935D01*
X160475487Y-98764245D01*
X160490561Y-98773221D01*
X160505790Y-98781863D01*
X160521173Y-98790171D01*
X160536710Y-98798145D01*
X160570303Y-98814376D01*
X160585790Y-98822337D01*
X160600403Y-98830195D01*
X160614143Y-98837951D01*
X160627010Y-98845604D01*
X160639003Y-98853154D01*
X160650123Y-98860601D01*
X160660370Y-98867945D01*
X160669743Y-98875187D01*
X160678243Y-98882325D01*
X160685870Y-98889361D01*
X160692624Y-98896294D01*
X160698504Y-98903124D01*
X160703512Y-98909852D01*
X160707646Y-98916477D01*
X160710830Y-98922269D01*
X160713809Y-98928139D01*
X160716583Y-98934085D01*
X160719151Y-98940109D01*
X160721514Y-98946209D01*
X160723671Y-98952387D01*
X160725624Y-98958642D01*
X160727371Y-98964973D01*
X160728912Y-98971382D01*
X160730248Y-98977868D01*
X160731379Y-98984431D01*
X160732304Y-98991071D01*
X160733023Y-98997789D01*
X160733537Y-99004584D01*
X160733846Y-99011456D01*
X160733949Y-99018405D01*
X160733490Y-99035798D01*
X160732112Y-99052638D01*
X160729817Y-99068927D01*
X160726604Y-99084663D01*
X160722472Y-99099847D01*
X160717423Y-99114479D01*
X160711455Y-99128559D01*
X160704569Y-99142087D01*
X160696765Y-99155063D01*
X160688043Y-99167486D01*
X160678403Y-99179358D01*
X160667845Y-99190677D01*
X160656368Y-99201444D01*
X160643973Y-99211659D01*
X160630661Y-99221322D01*
X160616430Y-99230433D01*
X160601281Y-99238992D01*
X160585213Y-99246998D01*
X160568228Y-99254453D01*
X160550324Y-99261355D01*
X160531503Y-99267705D01*
X160511763Y-99273503D01*
X160491105Y-99278749D01*
X160469528Y-99283442D01*
X160447034Y-99287584D01*
X160423621Y-99291173D01*
X160399290Y-99294210D01*
X160374041Y-99296695D01*
X160347874Y-99298628D01*
X160320789Y-99300008D01*
X160292785Y-99300836D01*
X160263863Y-99301112D01*
X160239273Y-99300830D01*
X160214810Y-99299982D01*
X160190476Y-99298570D01*
X160166271Y-99296592D01*
X160142193Y-99294049D01*
X160118245Y-99290942D01*
X160094424Y-99287269D01*
X160070732Y-99283031D01*
X160047169Y-99278228D01*
X160023734Y-99272860D01*
X160000428Y-99266927D01*
X159977251Y-99260429D01*
X159954202Y-99253366D01*
X159931281Y-99245737D01*
X159908490Y-99237544D01*
X159885827Y-99228786D01*
X159843771Y-99210898D01*
X159802256Y-99190108D01*
X159761279Y-99166417D01*
X159720842Y-99139823D01*
X159680945Y-99110327D01*
X159641587Y-99077929D01*
X159602768Y-99042629D01*
X159564489Y-99004427D01*
X159526749Y-98963323D01*
X159489548Y-98919317D01*
X159452887Y-98872410D01*
X159416765Y-98822600D01*
X159381182Y-98769889D01*
X159346139Y-98714276D01*
X159311634Y-98655761D01*
X159277669Y-98594344D01*
X158876611Y-97851413D01*
X158834650Y-97774671D01*
X158794228Y-97703888D01*
X158755346Y-97639064D01*
X158718003Y-97580200D01*
X158682200Y-97527295D01*
X158647939Y-97480348D01*
X158615219Y-97439360D01*
X158584042Y-97404331D01*
X158563818Y-97384028D01*
X158542593Y-97365036D01*
X158520365Y-97347354D01*
X158497136Y-97330981D01*
X158472905Y-97315918D01*
X158447672Y-97302165D01*
X158421438Y-97289722D01*
X158394202Y-97278589D01*
X158365964Y-97268765D01*
X158336725Y-97260251D01*
X158306484Y-97253047D01*
X158275242Y-97247153D01*
X158242999Y-97242569D01*
X158209754Y-97239294D01*
X158175507Y-97237330D01*
X158140260Y-97236675D01*
X158054791Y-97236675D01*
X158054791Y-98275493D01*
X158055485Y-98306889D01*
X158056743Y-98336975D01*
X158058566Y-98365752D01*
X158060954Y-98393220D01*
X158063907Y-98419378D01*
X158067425Y-98444226D01*
X158071508Y-98467765D01*
X158076156Y-98489993D01*
X158081369Y-98510912D01*
X158087148Y-98530521D01*
X158093493Y-98548821D01*
X158100402Y-98565810D01*
X158107878Y-98581489D01*
X158115919Y-98595858D01*
X158124526Y-98608917D01*
X158133698Y-98620666D01*
X158140847Y-98628769D01*
X158148330Y-98636640D01*
X158156147Y-98644281D01*
X158164300Y-98651690D01*
X158172786Y-98658868D01*
X158181608Y-98665815D01*
X158190763Y-98672531D01*
X158200253Y-98679016D01*
X158210077Y-98685270D01*
X158220235Y-98691293D01*
X158230727Y-98697084D01*
X158241553Y-98702645D01*
X158252712Y-98707974D01*
X158264206Y-98713072D01*
X158276033Y-98717939D01*
X158288194Y-98722575D01*
X158432847Y-98768581D01*
X158457923Y-98777586D01*
X158481381Y-98787335D01*
X158503222Y-98797828D01*
X158523445Y-98809065D01*
X158542050Y-98821047D01*
X158559037Y-98833773D01*
X158574406Y-98847244D01*
X158581484Y-98854258D01*
X158588158Y-98861459D01*
X158594427Y-98868846D01*
X158600291Y-98876419D01*
X158605751Y-98884178D01*
X158610807Y-98892124D01*
X158615458Y-98900256D01*
X158619705Y-98908574D01*
X158623547Y-98917078D01*
X158626985Y-98925769D01*
X158630019Y-98934646D01*
X158632648Y-98943709D01*
X158634872Y-98952959D01*
X158636692Y-98962395D01*
X158638108Y-98972017D01*
X158639119Y-98981826D01*
X158639928Y-99002002D01*
X158639620Y-99015033D01*
X158638695Y-99027833D01*
X158637154Y-99040403D01*
X158634996Y-99052742D01*
X158632222Y-99064850D01*
X158628831Y-99076726D01*
X158624824Y-99088372D01*
X158620201Y-99099787D01*
X158614961Y-99110971D01*
X158609105Y-99121923D01*
X158602632Y-99132645D01*
X158595543Y-99143135D01*
X158587837Y-99153393D01*
X158579515Y-99163420D01*
X158570576Y-99173216D01*
X158561021Y-99182781D01*
X158549211Y-99193929D01*
X158536784Y-99204358D01*
X158523739Y-99214067D01*
X158510078Y-99223057D01*
X158495799Y-99231327D01*
X158480903Y-99238878D01*
X158465391Y-99245710D01*
X158449262Y-99251822D01*
X158432516Y-99257215D01*
X158415154Y-99261888D01*
X158397175Y-99265843D01*
X158378580Y-99269078D01*
X158359368Y-99271594D01*
X158339540Y-99273391D01*
X158319096Y-99274470D01*
X158298036Y-99274829D01*
X158276877Y-99274573D01*
X158252842Y-99273803D01*
X158225930Y-99272520D01*
X158196140Y-99270724D01*
X158163474Y-99268414D01*
X158127930Y-99265592D01*
X158048211Y-99258407D01*
X158004602Y-99254558D01*
X157959247Y-99251222D01*
X157912147Y-99248400D01*
X157863301Y-99246090D01*
X157812708Y-99244294D01*
X157760370Y-99243011D01*
X157706285Y-99242241D01*
X157650452Y-99241985D01*
X157540524Y-99243011D01*
X157437588Y-99246090D01*
X157388740Y-99248400D01*
X157341639Y-99251222D01*
X157296284Y-99254558D01*
X157252675Y-99258407D01*
X157174402Y-99265592D01*
X157107216Y-99270724D01*
X157051123Y-99273803D01*
X157027239Y-99274573D01*
X157006131Y-99274829D01*
X156982668Y-99274393D01*
X156959950Y-99273083D01*
X156937977Y-99270900D01*
X156916749Y-99267844D01*
X156896266Y-99263915D01*
X156876528Y-99259113D01*
X156857536Y-99253438D01*
X156839288Y-99246889D01*
X156821785Y-99239467D01*
X156805028Y-99231172D01*
X156789015Y-99222003D01*
X156773747Y-99211961D01*
X156759224Y-99201045D01*
X156745446Y-99189257D01*
X156732413Y-99176594D01*
X156720124Y-99163059D01*
X156712959Y-99153957D01*
X156706257Y-99144727D01*
X156700017Y-99135368D01*
X156694239Y-99125880D01*
X156688923Y-99116264D01*
X156684070Y-99106519D01*
X156679679Y-99096645D01*
X156675750Y-99086643D01*
X156672283Y-99076512D01*
X156669278Y-99066253D01*
X156666736Y-99055866D01*
X156664656Y-99045350D01*
X156663038Y-99034705D01*
X156661883Y-99023933D01*
X156661189Y-99013032D01*
X156660958Y-99002002D01*
X156661215Y-98989825D01*
X156661985Y-98977957D01*
X156663270Y-98966397D01*
X156665067Y-98955146D01*
X156667379Y-98944203D01*
X156670204Y-98933568D01*
X156673542Y-98923242D01*
X156677395Y-98913225D01*
X156681761Y-98903515D01*
X156686640Y-98894115D01*
X156692034Y-98885022D01*
X156697940Y-98876239D01*
X156704361Y-98867763D01*
X156711295Y-98859596D01*
X156718743Y-98851738D01*
X156726704Y-98844188D01*
X156734370Y-98838322D01*
X156743397Y-98832224D01*
X156753785Y-98825894D01*
X156765535Y-98819333D01*
X156778647Y-98812541D01*
X156793119Y-98805518D01*
X156808953Y-98798263D01*
X156826149Y-98790777D01*
X156844705Y-98783061D01*
X156864623Y-98775113D01*
X156908542Y-98758524D01*
X156957905Y-98741011D01*
X157012711Y-98722575D01*
X157032384Y-98715292D01*
X157051131Y-98707419D01*
X157068955Y-98698956D01*
X157085853Y-98689902D01*
X157101828Y-98680257D01*
X157116878Y-98670023D01*
X157131003Y-98659197D01*
X157144204Y-98647781D01*
X157156480Y-98635774D01*
X157167832Y-98623177D01*
X157178260Y-98609988D01*
X157187763Y-98596209D01*
X157196342Y-98581838D01*
X157203996Y-98566876D01*
X157210725Y-98551323D01*
X157216531Y-98535178D01*
X157220113Y-98525306D01*
X157223464Y-98514585D01*
X157226584Y-98503017D01*
X157229473Y-98490601D01*
X157232131Y-98477337D01*
X157234558Y-98463225D01*
X157236753Y-98448265D01*
X157238718Y-98432458D01*
X157240451Y-98415803D01*
X157241954Y-98398301D01*
X157243225Y-98379952D01*
X157244265Y-98360754D01*
X157245651Y-98319818D01*
X157246114Y-98275493D01*
X157246114Y-96779769D01*
X158054791Y-96779769D01*
X158416386Y-96779769D01*
X158462654Y-96779204D01*
X158507766Y-96777510D01*
X158551721Y-96774686D01*
X158594521Y-96770731D01*
X158636165Y-96765647D01*
X158676653Y-96759433D01*
X158715985Y-96752089D01*
X158754161Y-96743615D01*
X158791182Y-96734011D01*
X158827046Y-96723277D01*
X158861755Y-96711413D01*
X158895308Y-96698418D01*
X158927706Y-96684293D01*
X158958948Y-96669037D01*
X158989034Y-96652651D01*
X159017964Y-96635135D01*
X159056576Y-96607988D01*
X159074948Y-96593778D01*
X159092698Y-96579146D01*
X159109824Y-96564089D01*
X159126328Y-96548609D01*
X159142209Y-96532705D01*
X159157467Y-96516377D01*
X159172103Y-96499626D01*
X159186116Y-96482451D01*
X159199506Y-96464852D01*
X159212273Y-96446829D01*
X159224418Y-96428383D01*
X159235940Y-96409513D01*
X159246839Y-96390220D01*
X159257115Y-96370502D01*
X159266768Y-96350361D01*
X159275799Y-96329796D01*
X159284207Y-96308808D01*
X159291992Y-96287395D01*
X159299154Y-96265559D01*
X159305694Y-96243299D01*
X159311611Y-96220616D01*
X159316904Y-96197508D01*
X159325624Y-96150022D01*
X159331852Y-96100841D01*
X159335589Y-96049965D01*
X159336835Y-95997394D01*
X159336013Y-95955479D01*
X159333547Y-95914387D01*
X159329438Y-95874116D01*
X159323685Y-95834666D01*
X159316289Y-95796039D01*
X159307248Y-95758233D01*
X159296565Y-95721249D01*
X159284237Y-95685087D01*
X159270266Y-95649747D01*
X159254652Y-95615228D01*
X159237394Y-95581532D01*
X159218493Y-95548658D01*
X159197948Y-95516605D01*
X159175760Y-95485375D01*
X159151929Y-95454966D01*
X159126454Y-95425380D01*
X159098510Y-95395925D01*
X159069744Y-95368370D01*
X159040157Y-95342715D01*
X159009749Y-95318961D01*
X158978519Y-95297107D01*
X158946468Y-95277153D01*
X158913595Y-95259100D01*
X158879901Y-95242947D01*
X158845385Y-95228694D01*
X158810047Y-95216342D01*
X158773888Y-95205890D01*
X158736906Y-95197339D01*
X158699103Y-95190687D01*
X158660478Y-95185937D01*
X158621031Y-95183086D01*
X158580762Y-95182136D01*
X158554706Y-95182598D01*
X158529138Y-95183985D01*
X158504059Y-95186296D01*
X158479467Y-95189532D01*
X158455363Y-95193692D01*
X158431748Y-95198776D01*
X158408620Y-95204785D01*
X158385981Y-95211719D01*
X158363829Y-95219577D01*
X158342166Y-95228359D01*
X158320990Y-95238066D01*
X158300302Y-95248698D01*
X158280102Y-95260253D01*
X158260390Y-95272734D01*
X158241165Y-95286139D01*
X158222428Y-95300468D01*
X158202129Y-95317405D01*
X158183140Y-95335345D01*
X158165460Y-95354286D01*
X158149090Y-95374228D01*
X158134029Y-95395173D01*
X158120277Y-95417119D01*
X158107835Y-95440066D01*
X158096703Y-95464016D01*
X158086880Y-95488967D01*
X158078367Y-95514919D01*
X158071163Y-95541873D01*
X158065270Y-95569829D01*
X158060685Y-95598786D01*
X158057411Y-95628744D01*
X158055446Y-95659704D01*
X158054791Y-95691665D01*
X158054791Y-96779769D01*
X157246114Y-96779769D01*
X157246114Y-95790275D01*
X157245420Y-95759252D01*
X157244162Y-95729461D01*
X157242339Y-95700903D01*
X157239951Y-95673578D01*
X157236998Y-95647485D01*
X157233480Y-95622624D01*
X157229397Y-95598997D01*
X157224749Y-95576602D01*
X157219536Y-95555440D01*
X157213757Y-95535510D01*
X157207412Y-95516813D01*
X157200503Y-95499349D01*
X157193027Y-95483118D01*
X157184986Y-95468120D01*
X157176379Y-95454354D01*
X157167207Y-95441821D01*
X157160055Y-95433346D01*
X157152570Y-95425179D01*
X157144751Y-95417321D01*
X157136597Y-95409770D01*
X157128110Y-95402529D01*
X157119289Y-95395595D01*
X157110134Y-95388970D01*
X157100645Y-95382653D01*
X157090822Y-95376644D01*
X157080665Y-95370944D01*
X157070174Y-95365551D01*
X157059350Y-95360467D01*
X157048191Y-95355691D01*
X157036698Y-95351223D01*
X157024872Y-95347063D01*
X157012711Y-95343211D01*
X156868058Y-95300468D01*
X156842982Y-95292211D01*
X156819524Y-95283056D01*
X156797683Y-95273001D01*
X156777460Y-95262048D01*
X156758855Y-95250196D01*
X156750160Y-95243933D01*
X156741868Y-95237445D01*
X156733981Y-95230732D01*
X156726499Y-95223795D01*
X156719421Y-95216633D01*
X156712747Y-95209246D01*
X156706478Y-95201635D01*
X156700614Y-95193799D01*
X156695154Y-95185738D01*
X156690098Y-95177453D01*
X156685447Y-95168943D01*
X156681200Y-95160208D01*
X156677358Y-95151249D01*
X156673920Y-95142065D01*
X156670886Y-95132656D01*
X156668257Y-95123022D01*
X156666033Y-95113164D01*
X156664213Y-95103082D01*
X156662797Y-95092774D01*
X156661786Y-95082242D01*
X156660977Y-95060504D01*
X156661285Y-95047868D01*
X156662209Y-95035438D01*
X156663750Y-95023213D01*
X156665906Y-95011194D01*
X156668679Y-94999381D01*
X156672068Y-94987772D01*
X156676073Y-94976370D01*
X156680694Y-94965173D01*
X156685933Y-94954181D01*
X156691787Y-94943394D01*
X156698258Y-94932813D01*
X156705346Y-94922438D01*
X156713051Y-94912267D01*
X156721372Y-94902302D01*
X156730310Y-94892542D01*
X156739865Y-94882987D01*
X156751691Y-94871842D01*
X156764160Y-94861415D01*
X156777270Y-94851708D01*
X156791023Y-94842719D01*
X156805418Y-94834449D01*
X156820456Y-94826898D01*
X156836135Y-94820066D01*
X156852456Y-94813953D01*
X156869419Y-94808559D01*
X156887024Y-94803885D01*
X156905271Y-94799929D01*
X156924160Y-94796693D01*
X156943690Y-94794175D01*
X156963862Y-94792377D01*
X156984676Y-94791298D01*
X157006131Y-94790939D01*
X157027963Y-94791144D01*
X157052363Y-94791761D01*
X157079329Y-94792788D01*
X157108863Y-94794226D01*
X157175639Y-94798334D01*
X157252694Y-94804080D01*
X157295886Y-94807930D01*
X157340005Y-94811268D01*
X157385049Y-94814094D01*
X157431019Y-94816407D01*
X157477914Y-94818206D01*
X157525735Y-94819492D01*
X157574480Y-94820264D01*
X157624150Y-94820522D01*
X157736746Y-94819288D01*
X157857555Y-94815586D01*
X157986578Y-94809417D01*
X158123818Y-94800781D01*
X158327223Y-94787838D01*
X158500219Y-94778593D01*
X158642810Y-94773047D01*
X158754998Y-94771198D01*
X158836706Y-94772700D01*
G37*
G36*
X153381933Y-94768431D02*
G01*
X153434682Y-94769973D01*
X153492466Y-94772543D01*
X153555284Y-94776140D01*
X153623136Y-94780765D01*
X153696021Y-94786416D01*
X153856889Y-94800800D01*
X153948168Y-94808505D01*
X154044479Y-94815183D01*
X154145824Y-94820835D01*
X154252201Y-94825459D01*
X154363612Y-94829057D01*
X154480057Y-94831626D01*
X154601537Y-94833168D01*
X154728051Y-94833682D01*
X154910698Y-94832653D01*
X155077322Y-94829565D01*
X155227921Y-94824421D01*
X155362492Y-94817222D01*
X155612121Y-94801400D01*
X155808743Y-94790099D01*
X155952361Y-94783319D01*
X156042977Y-94781059D01*
X156108658Y-94782715D01*
X156170101Y-94787685D01*
X156227306Y-94795967D01*
X156280274Y-94807562D01*
X156305169Y-94814602D01*
X156329005Y-94822471D01*
X156351781Y-94831167D01*
X156373498Y-94840692D01*
X156394155Y-94851045D01*
X156413753Y-94862226D01*
X156432292Y-94874236D01*
X156449772Y-94887074D01*
X156466192Y-94900740D01*
X156481553Y-94915234D01*
X156495854Y-94930557D01*
X156509096Y-94946707D01*
X156521279Y-94963686D01*
X156532402Y-94981494D01*
X156542466Y-95000129D01*
X156551470Y-95019593D01*
X156559416Y-95039885D01*
X156566301Y-95061005D01*
X156572128Y-95082953D01*
X156576895Y-95105730D01*
X156580603Y-95129335D01*
X156583251Y-95153768D01*
X156584840Y-95179030D01*
X156585370Y-95205119D01*
X156584317Y-95239698D01*
X156581158Y-95275228D01*
X156575893Y-95311708D01*
X156568522Y-95349139D01*
X156559045Y-95387521D01*
X156547462Y-95426853D01*
X156533773Y-95467136D01*
X156517979Y-95508369D01*
X156500078Y-95550552D01*
X156480071Y-95593686D01*
X156457958Y-95637770D01*
X156433739Y-95682805D01*
X156407415Y-95728789D01*
X156378984Y-95775724D01*
X156348447Y-95823609D01*
X156315804Y-95872443D01*
X156292075Y-95906281D01*
X156268550Y-95937935D01*
X156245231Y-95967405D01*
X156222117Y-95994692D01*
X156199208Y-96019796D01*
X156176505Y-96042716D01*
X156154007Y-96063453D01*
X156131714Y-96082006D01*
X156109627Y-96098377D01*
X156087745Y-96112564D01*
X156066069Y-96124569D01*
X156044598Y-96134391D01*
X156023333Y-96142030D01*
X156002273Y-96147486D01*
X155981419Y-96150760D01*
X155960770Y-96151851D01*
X155949407Y-96151581D01*
X155938326Y-96150773D01*
X155927527Y-96149425D01*
X155917011Y-96147538D01*
X155906778Y-96145111D01*
X155896827Y-96142146D01*
X155887158Y-96138641D01*
X155877772Y-96134597D01*
X155868669Y-96130013D01*
X155859848Y-96124890D01*
X155851310Y-96119228D01*
X155843054Y-96113026D01*
X155835080Y-96106285D01*
X155827390Y-96099004D01*
X155819981Y-96091184D01*
X155812856Y-96082824D01*
X155807281Y-96075762D01*
X155802067Y-96068547D01*
X155797212Y-96061177D01*
X155792717Y-96053652D01*
X155788582Y-96045974D01*
X155784807Y-96038141D01*
X155781391Y-96030154D01*
X155778335Y-96022013D01*
X155775639Y-96013718D01*
X155773302Y-96005268D01*
X155771325Y-95996664D01*
X155769707Y-95987906D01*
X155768449Y-95978994D01*
X155767550Y-95969927D01*
X155767011Y-95960706D01*
X155766831Y-95951331D01*
X155767037Y-95945462D01*
X155767653Y-95938540D01*
X155768680Y-95930565D01*
X155770118Y-95921537D01*
X155774226Y-95900324D01*
X155779978Y-95874899D01*
X155787373Y-95845263D01*
X155796411Y-95811417D01*
X155807092Y-95773359D01*
X155819417Y-95731090D01*
X155822501Y-95719639D01*
X155825172Y-95708288D01*
X155827431Y-95697039D01*
X155829278Y-95685890D01*
X155830714Y-95674844D01*
X155831739Y-95663901D01*
X155832354Y-95653060D01*
X155832559Y-95642322D01*
X155832356Y-95633334D01*
X155831750Y-95624449D01*
X155830738Y-95615666D01*
X155829323Y-95606987D01*
X155827503Y-95598409D01*
X155825278Y-95589935D01*
X155822649Y-95581563D01*
X155819616Y-95573293D01*
X155816178Y-95565126D01*
X155812335Y-95557062D01*
X155808088Y-95549101D01*
X155803437Y-95541242D01*
X155798381Y-95533486D01*
X155792920Y-95525833D01*
X155787055Y-95518282D01*
X155780786Y-95510834D01*
X155774112Y-95503489D01*
X155767033Y-95496246D01*
X155751663Y-95482069D01*
X155734674Y-95468303D01*
X155716067Y-95454948D01*
X155695843Y-95442004D01*
X155673999Y-95429471D01*
X155650538Y-95417349D01*
X155625459Y-95405639D01*
X155600740Y-95395290D01*
X155575892Y-95385609D01*
X155550917Y-95376595D01*
X155525812Y-95368249D01*
X155500580Y-95360571D01*
X155475219Y-95353560D01*
X155449730Y-95347216D01*
X155424112Y-95341540D01*
X155398365Y-95336532D01*
X155372490Y-95332191D01*
X155346487Y-95328518D01*
X155320355Y-95325513D01*
X155294094Y-95323176D01*
X155267704Y-95321506D01*
X155241186Y-95320505D01*
X155214539Y-95320171D01*
X155195327Y-95320514D01*
X155176724Y-95321545D01*
X155158731Y-95323262D01*
X155141348Y-95325667D01*
X155124575Y-95328758D01*
X155108412Y-95332536D01*
X155092859Y-95337002D01*
X155077915Y-95342154D01*
X155063582Y-95347994D01*
X155049858Y-95354520D01*
X155036744Y-95361734D01*
X155024240Y-95369634D01*
X155012346Y-95378222D01*
X155001062Y-95387496D01*
X154990388Y-95397458D01*
X154980324Y-95408107D01*
X154970870Y-95419442D01*
X154962026Y-95431465D01*
X154953791Y-95444175D01*
X154946167Y-95457572D01*
X154939152Y-95471655D01*
X154932748Y-95486426D01*
X154926953Y-95501884D01*
X154921768Y-95518029D01*
X154917194Y-95534861D01*
X154913229Y-95552380D01*
X154909874Y-95570587D01*
X154907129Y-95589480D01*
X154904994Y-95609060D01*
X154903469Y-95629328D01*
X154902554Y-95650282D01*
X154902249Y-95671924D01*
X154902250Y-95671924D01*
X154902251Y-95671924D01*
X154902252Y-95671924D01*
X154902254Y-95671925D01*
X154902255Y-95671925D01*
X154902257Y-95671926D01*
X154902258Y-95671926D01*
X154902259Y-95671926D01*
X154902260Y-95671927D01*
X154902261Y-95671927D01*
X154902261Y-95671928D01*
X154902262Y-95671929D01*
X154902263Y-95671929D01*
X154902264Y-95671930D01*
X154902265Y-95671931D01*
X154902265Y-95671932D01*
X154902266Y-95671933D01*
X154902267Y-95671934D01*
X154902267Y-95671935D01*
X154902267Y-95671937D01*
X154902268Y-95671938D01*
X154902268Y-95671940D01*
X154902268Y-95671941D01*
X154902268Y-95671943D01*
X154902268Y-98275493D01*
X154902959Y-98306889D01*
X154904215Y-98336975D01*
X154906036Y-98365751D01*
X154908423Y-98393217D01*
X154911375Y-98419373D01*
X154914892Y-98444220D01*
X154918975Y-98467757D01*
X154923623Y-98489984D01*
X154928837Y-98510901D01*
X154934616Y-98530508D01*
X154940959Y-98548806D01*
X154947869Y-98565794D01*
X154955343Y-98581472D01*
X154963382Y-98595840D01*
X154971987Y-98608898D01*
X154981156Y-98620647D01*
X154988308Y-98629138D01*
X154995794Y-98637346D01*
X155003614Y-98645271D01*
X155011768Y-98652913D01*
X155020257Y-98660272D01*
X155029079Y-98667348D01*
X155038235Y-98674141D01*
X155047725Y-98680652D01*
X155057549Y-98686880D01*
X155067706Y-98692826D01*
X155078197Y-98698489D01*
X155089021Y-98703870D01*
X155100179Y-98708969D01*
X155111670Y-98713787D01*
X155123494Y-98718322D01*
X155135651Y-98722575D01*
X155280305Y-98768581D01*
X155305381Y-98777583D01*
X155328840Y-98787329D01*
X155350682Y-98797821D01*
X155370906Y-98809057D01*
X155389512Y-98821038D01*
X155406501Y-98833764D01*
X155421872Y-98847234D01*
X155428951Y-98854249D01*
X155435625Y-98861450D01*
X155441895Y-98868836D01*
X155447760Y-98876410D01*
X155453221Y-98884169D01*
X155458278Y-98892114D01*
X155462930Y-98900246D01*
X155467178Y-98908564D01*
X155471021Y-98917068D01*
X155474459Y-98925758D01*
X155477493Y-98934635D01*
X155480123Y-98943697D01*
X155482348Y-98952946D01*
X155484168Y-98962381D01*
X155485584Y-98972002D01*
X155486596Y-98981810D01*
X155487405Y-99001983D01*
X155487096Y-99015017D01*
X155486172Y-99027821D01*
X155484631Y-99040393D01*
X155482473Y-99052734D01*
X155479700Y-99064843D01*
X155476309Y-99076722D01*
X155472303Y-99088369D01*
X155467680Y-99099785D01*
X155462441Y-99110969D01*
X155456586Y-99121922D01*
X155450115Y-99132644D01*
X155443028Y-99143134D01*
X155435324Y-99153393D01*
X155427004Y-99163420D01*
X155418069Y-99173216D01*
X155408517Y-99182781D01*
X155396700Y-99193926D01*
X155384268Y-99204353D01*
X155371219Y-99214060D01*
X155357555Y-99223049D01*
X155343274Y-99231319D01*
X155328378Y-99238870D01*
X155312865Y-99245702D01*
X155296737Y-99251815D01*
X155279992Y-99257208D01*
X155262631Y-99261883D01*
X155244655Y-99265839D01*
X155226062Y-99269075D01*
X155206854Y-99271593D01*
X155187029Y-99273391D01*
X155166588Y-99274470D01*
X155145532Y-99274829D01*
X155124367Y-99274573D01*
X155100327Y-99273803D01*
X155073411Y-99272519D01*
X155043620Y-99270721D01*
X155010952Y-99268410D01*
X154975407Y-99265584D01*
X154895688Y-99258388D01*
X154851359Y-99254539D01*
X154805490Y-99251203D01*
X154758081Y-99248381D01*
X154709130Y-99246071D01*
X154658638Y-99244275D01*
X154606605Y-99242992D01*
X154553029Y-99242222D01*
X154497910Y-99241966D01*
X154387993Y-99242992D01*
X154285062Y-99246071D01*
X154236216Y-99248381D01*
X154189116Y-99251203D01*
X154143761Y-99254539D01*
X154100152Y-99258388D01*
X154021874Y-99265584D01*
X153954693Y-99270721D01*
X153898605Y-99273803D01*
X153874721Y-99274573D01*
X153853608Y-99274829D01*
X153830148Y-99274393D01*
X153807433Y-99273083D01*
X153785462Y-99270900D01*
X153764237Y-99267844D01*
X153743755Y-99263915D01*
X153724019Y-99259113D01*
X153705027Y-99253438D01*
X153686779Y-99246889D01*
X153669277Y-99239467D01*
X153652518Y-99231172D01*
X153636504Y-99222003D01*
X153621235Y-99211961D01*
X153606710Y-99201045D01*
X153592929Y-99189257D01*
X153579893Y-99176594D01*
X153567601Y-99163059D01*
X153560436Y-99153954D01*
X153553734Y-99144720D01*
X153547494Y-99135359D01*
X153541716Y-99125869D01*
X153536400Y-99116251D01*
X153531547Y-99106504D01*
X153527156Y-99096629D01*
X153523227Y-99086626D01*
X153519760Y-99076495D01*
X153516755Y-99066235D01*
X153514213Y-99055847D01*
X153512133Y-99045331D01*
X153510515Y-99034686D01*
X153509360Y-99023914D01*
X153508666Y-99013012D01*
X153508435Y-99001983D01*
X153508705Y-98989810D01*
X153509514Y-98977944D01*
X153510863Y-98966387D01*
X153512751Y-98955138D01*
X153515179Y-98944196D01*
X153518145Y-98933564D01*
X153521651Y-98923239D01*
X153525697Y-98913222D01*
X153530281Y-98903514D01*
X153535404Y-98894114D01*
X153541067Y-98885022D01*
X153547268Y-98876238D01*
X153554008Y-98867763D01*
X153561288Y-98859596D01*
X153569105Y-98851738D01*
X153577462Y-98844188D01*
X153584732Y-98838322D01*
X153593389Y-98832224D01*
X153603433Y-98825894D01*
X153614863Y-98819333D01*
X153627680Y-98812541D01*
X153641883Y-98805517D01*
X153657474Y-98798262D01*
X153674451Y-98790775D01*
X153692815Y-98783057D01*
X153712565Y-98775108D01*
X153733702Y-98766927D01*
X153756226Y-98758516D01*
X153805434Y-98740998D01*
X153860188Y-98722556D01*
X153879861Y-98715276D01*
X153898608Y-98707406D01*
X153916431Y-98698944D01*
X153933330Y-98689891D01*
X153949304Y-98680247D01*
X153964354Y-98670013D01*
X153978478Y-98659188D01*
X153991679Y-98647772D01*
X154003954Y-98635765D01*
X154015305Y-98623167D01*
X154025731Y-98609979D01*
X154035232Y-98596200D01*
X154043808Y-98581831D01*
X154051460Y-98566871D01*
X154058187Y-98551320D01*
X154063989Y-98535178D01*
X154067571Y-98525303D01*
X154070923Y-98514580D01*
X154074044Y-98503010D01*
X154076934Y-98490593D01*
X154079593Y-98477328D01*
X154082022Y-98463216D01*
X154084219Y-98448257D01*
X154086185Y-98432451D01*
X154087920Y-98415797D01*
X154089424Y-98398296D01*
X154090697Y-98379948D01*
X154091739Y-98360752D01*
X154093128Y-98319817D01*
X154093591Y-98275493D01*
X154093591Y-95714668D01*
X154093360Y-95690835D01*
X154092666Y-95667824D01*
X154091511Y-95645634D01*
X154089893Y-95624267D01*
X154087813Y-95603721D01*
X154085270Y-95583997D01*
X154082266Y-95565094D01*
X154078799Y-95547014D01*
X154074870Y-95529755D01*
X154070479Y-95513319D01*
X154065625Y-95497704D01*
X154060310Y-95482911D01*
X154054532Y-95468941D01*
X154048292Y-95455792D01*
X154041589Y-95443465D01*
X154034425Y-95431960D01*
X154029802Y-95425286D01*
X154024973Y-95418823D01*
X154019939Y-95412572D01*
X154014700Y-95406533D01*
X154009255Y-95400706D01*
X154003605Y-95395091D01*
X153997749Y-95389687D01*
X153991688Y-95384496D01*
X153985421Y-95379517D01*
X153978949Y-95374749D01*
X153972272Y-95370193D01*
X153965389Y-95365849D01*
X153958301Y-95361717D01*
X153951007Y-95357797D01*
X153943508Y-95354089D01*
X153935803Y-95350593D01*
X153927893Y-95347309D01*
X153919777Y-95344236D01*
X153911456Y-95341375D01*
X153902929Y-95338727D01*
X153885259Y-95334065D01*
X153866768Y-95330251D01*
X153847454Y-95327285D01*
X153827319Y-95325166D01*
X153806361Y-95323894D01*
X153784581Y-95323470D01*
X153728518Y-95325345D01*
X153672916Y-95330970D01*
X153617777Y-95340344D01*
X153563099Y-95353468D01*
X153508884Y-95370341D01*
X153455130Y-95390965D01*
X153401839Y-95415337D01*
X153349009Y-95443459D01*
X153296642Y-95475331D01*
X153244738Y-95510952D01*
X153193295Y-95550323D01*
X153142315Y-95593443D01*
X153091798Y-95640312D01*
X153041743Y-95690931D01*
X152992150Y-95745299D01*
X152943021Y-95803417D01*
X152891968Y-95864899D01*
X152845639Y-95919499D01*
X152804035Y-95967216D01*
X152767156Y-96008051D01*
X152735002Y-96042003D01*
X152707574Y-96069073D01*
X152684871Y-96089260D01*
X152675292Y-96096773D01*
X152666894Y-96102565D01*
X152657917Y-96107741D01*
X152649070Y-96112583D01*
X152640350Y-96117091D01*
X152631760Y-96121265D01*
X152623298Y-96125106D01*
X152614964Y-96128612D01*
X152606759Y-96131784D01*
X152598682Y-96134623D01*
X152590734Y-96137127D01*
X152582914Y-96139298D01*
X152575221Y-96141135D01*
X152567657Y-96142637D01*
X152560222Y-96143806D01*
X152552914Y-96144641D01*
X152545734Y-96145142D01*
X152538682Y-96145309D01*
X152532533Y-96145219D01*
X152526409Y-96144949D01*
X152520311Y-96144498D01*
X152514238Y-96143868D01*
X152508191Y-96143058D01*
X152502169Y-96142068D01*
X152496173Y-96140898D01*
X152490202Y-96139549D01*
X152484256Y-96138019D01*
X152478337Y-96136310D01*
X152472442Y-96134422D01*
X152466573Y-96132354D01*
X152460730Y-96130106D01*
X152454912Y-96127679D01*
X152449120Y-96125073D01*
X152443353Y-96122287D01*
X152437083Y-96118692D01*
X152431012Y-96114892D01*
X152425140Y-96110886D01*
X152419468Y-96106675D01*
X152413994Y-96102258D01*
X152408719Y-96097636D01*
X152403644Y-96092809D01*
X152398767Y-96087776D01*
X152394090Y-96082537D01*
X152389611Y-96077094D01*
X152385332Y-96071444D01*
X152381251Y-96065590D01*
X152377370Y-96059529D01*
X152373688Y-96053264D01*
X152370205Y-96046793D01*
X152366920Y-96040116D01*
X152363835Y-96033234D01*
X152360949Y-96026147D01*
X152358262Y-96018854D01*
X152355774Y-96011355D01*
X152353485Y-96003651D01*
X152351395Y-95995742D01*
X152349504Y-95987627D01*
X152347812Y-95979307D01*
X152346319Y-95970781D01*
X152345026Y-95962049D01*
X152343931Y-95953112D01*
X152343035Y-95943970D01*
X152341841Y-95925069D01*
X152341443Y-95905345D01*
X152342419Y-95871110D01*
X152345347Y-95835796D01*
X152350228Y-95799404D01*
X152357060Y-95761933D01*
X152365844Y-95723384D01*
X152376581Y-95683756D01*
X152389269Y-95643049D01*
X152403909Y-95601264D01*
X152420500Y-95558400D01*
X152439044Y-95514458D01*
X152459539Y-95469438D01*
X152481985Y-95423339D01*
X152506383Y-95376162D01*
X152532733Y-95327906D01*
X152561034Y-95278572D01*
X152591287Y-95228160D01*
X152627703Y-95172430D01*
X152665455Y-95120294D01*
X152704543Y-95071754D01*
X152744966Y-95026809D01*
X152786725Y-94985459D01*
X152829820Y-94947705D01*
X152874250Y-94913546D01*
X152896966Y-94897815D01*
X152920016Y-94882983D01*
X152943399Y-94869049D01*
X152967117Y-94856015D01*
X152991168Y-94843879D01*
X153015554Y-94832642D01*
X153040273Y-94822304D01*
X153065326Y-94812865D01*
X153090713Y-94804325D01*
X153116434Y-94796684D01*
X153142488Y-94789942D01*
X153168877Y-94784098D01*
X153195599Y-94779154D01*
X153222655Y-94775109D01*
X153250045Y-94771962D01*
X153277769Y-94769715D01*
X153334218Y-94767917D01*
X153381933Y-94768431D01*
G37*
G36*
X151348687Y-97456954D02*
G01*
X152620870Y-97456954D01*
X152642762Y-97457339D01*
X152663242Y-97458495D01*
X152682310Y-97460420D01*
X152699966Y-97463117D01*
X152716209Y-97466583D01*
X152731040Y-97470820D01*
X152744459Y-97475827D01*
X152756465Y-97481604D01*
X152767059Y-97488152D01*
X152771827Y-97491715D01*
X152776241Y-97495471D01*
X152780302Y-97499419D01*
X152784010Y-97503560D01*
X152787365Y-97507894D01*
X152790366Y-97512420D01*
X152793015Y-97517138D01*
X152795310Y-97522050D01*
X152797253Y-97527154D01*
X152798842Y-97532451D01*
X152800078Y-97537940D01*
X152800961Y-97543622D01*
X152801491Y-97549497D01*
X152801667Y-97555564D01*
X152801539Y-97559365D01*
X152801154Y-97563371D01*
X152800512Y-97567583D01*
X152799614Y-97572000D01*
X152798458Y-97576623D01*
X152797046Y-97581452D01*
X152795377Y-97586486D01*
X152793451Y-97591725D01*
X152791268Y-97597170D01*
X152788828Y-97602820D01*
X152786131Y-97608676D01*
X152783176Y-97614736D01*
X152779964Y-97621003D01*
X152776495Y-97627474D01*
X152772768Y-97634151D01*
X152768784Y-97641033D01*
X152564984Y-97976344D01*
X152559506Y-97985646D01*
X152553759Y-97994645D01*
X152547742Y-98003342D01*
X152541456Y-98011738D01*
X152534900Y-98019832D01*
X152528074Y-98027624D01*
X152520979Y-98035114D01*
X152513614Y-98042302D01*
X152505980Y-98049188D01*
X152498076Y-98055773D01*
X152489902Y-98062056D01*
X152481459Y-98068037D01*
X152472746Y-98073716D01*
X152463764Y-98079093D01*
X152454512Y-98084169D01*
X152444991Y-98088942D01*
X152435199Y-98093414D01*
X152425138Y-98097584D01*
X152414808Y-98101453D01*
X152404208Y-98105019D01*
X152393338Y-98108284D01*
X152382199Y-98111247D01*
X152370790Y-98113908D01*
X152359111Y-98116267D01*
X152347163Y-98118325D01*
X152334945Y-98120081D01*
X152322457Y-98121535D01*
X152309700Y-98122687D01*
X152283377Y-98124086D01*
X152255975Y-98124278D01*
X151003514Y-98124278D01*
X150985204Y-98123880D01*
X150968075Y-98122686D01*
X150952127Y-98120696D01*
X150937360Y-98117909D01*
X150923775Y-98114326D01*
X150911371Y-98109947D01*
X150905611Y-98107459D01*
X150900147Y-98104772D01*
X150894979Y-98101886D01*
X150890106Y-98098801D01*
X150885528Y-98095517D01*
X150881245Y-98092034D01*
X150877258Y-98088351D01*
X150873566Y-98084470D01*
X150870169Y-98080390D01*
X150867068Y-98076110D01*
X150864262Y-98071632D01*
X150861751Y-98066954D01*
X150859536Y-98062078D01*
X150857616Y-98057002D01*
X150855992Y-98051727D01*
X150854663Y-98046254D01*
X150853629Y-98040581D01*
X150852890Y-98034709D01*
X150852447Y-98028639D01*
X150852300Y-98022369D01*
X150852441Y-98017771D01*
X150852865Y-98013019D01*
X150853571Y-98008114D01*
X150854559Y-98003054D01*
X150855831Y-97997839D01*
X150857384Y-97992471D01*
X150859220Y-97986949D01*
X150861338Y-97981273D01*
X150863738Y-97975442D01*
X150866421Y-97969458D01*
X150869386Y-97963320D01*
X150872633Y-97957027D01*
X150876163Y-97950581D01*
X150879974Y-97943981D01*
X150884068Y-97937228D01*
X150888444Y-97930320D01*
X151111985Y-97568725D01*
X151117354Y-97560314D01*
X151122774Y-97552338D01*
X151128245Y-97544800D01*
X151133768Y-97537698D01*
X151139342Y-97531032D01*
X151144967Y-97524803D01*
X151150644Y-97519011D01*
X151156371Y-97513655D01*
X151162150Y-97508736D01*
X151167980Y-97504254D01*
X151173862Y-97500209D01*
X151179794Y-97496600D01*
X151185777Y-97493429D01*
X151191812Y-97490695D01*
X151197897Y-97488397D01*
X151204034Y-97486537D01*
X151207683Y-97485265D01*
X151212051Y-97483916D01*
X151222942Y-97480987D01*
X151236709Y-97477749D01*
X151253351Y-97474204D01*
X151272869Y-97470350D01*
X151295264Y-97466187D01*
X151320536Y-97461716D01*
X151348687Y-97456935D01*
X151348687Y-97456954D01*
G37*
G36*
X148628241Y-94721520D02*
G01*
X148745222Y-94730188D01*
X148859379Y-94744634D01*
X148970711Y-94764858D01*
X149079219Y-94790861D01*
X149184901Y-94822642D01*
X149287759Y-94860201D01*
X149387792Y-94903539D01*
X149485000Y-94952655D01*
X149579383Y-95007550D01*
X149670940Y-95068223D01*
X149759672Y-95134674D01*
X149845579Y-95206904D01*
X149928660Y-95284912D01*
X150008916Y-95368698D01*
X150086347Y-95458263D01*
X150121543Y-95502306D01*
X150155636Y-95547326D01*
X150188625Y-95593323D01*
X150220510Y-95640295D01*
X150251291Y-95688244D01*
X150280967Y-95737169D01*
X150309540Y-95787070D01*
X150337008Y-95837947D01*
X150363372Y-95889800D01*
X150388631Y-95942629D01*
X150412786Y-95996435D01*
X150435836Y-96051216D01*
X150457781Y-96106973D01*
X150478621Y-96163707D01*
X150498357Y-96221416D01*
X150516988Y-96280101D01*
X150544723Y-96377281D01*
X150568761Y-96474872D01*
X150589102Y-96572875D01*
X150605746Y-96671289D01*
X150618692Y-96770114D01*
X150627940Y-96869350D01*
X150633489Y-96968998D01*
X150635339Y-97069057D01*
X150634003Y-97155336D01*
X150629997Y-97240768D01*
X150623319Y-97325353D01*
X150613970Y-97409089D01*
X150601951Y-97491979D01*
X150587260Y-97574020D01*
X150569898Y-97655214D01*
X150549866Y-97735561D01*
X150527162Y-97815060D01*
X150501787Y-97893711D01*
X150473741Y-97971515D01*
X150443024Y-98048471D01*
X150409636Y-98124579D01*
X150373577Y-98199840D01*
X150334847Y-98274254D01*
X150293446Y-98347820D01*
X150256915Y-98408172D01*
X150218816Y-98466779D01*
X150179150Y-98523640D01*
X150137918Y-98578754D01*
X150095119Y-98632121D01*
X150050753Y-98683743D01*
X150004821Y-98733618D01*
X149957322Y-98781746D01*
X149908256Y-98828128D01*
X149857623Y-98872763D01*
X149805424Y-98915652D01*
X149751659Y-98956794D01*
X149696327Y-98996189D01*
X149639428Y-99033837D01*
X149580963Y-99069738D01*
X149520932Y-99103893D01*
X149464240Y-99133351D01*
X149406751Y-99160909D01*
X149348467Y-99186566D01*
X149289386Y-99210323D01*
X149229508Y-99232179D01*
X149168835Y-99252134D01*
X149107365Y-99270188D01*
X149045099Y-99286342D01*
X148982036Y-99300596D01*
X148918177Y-99312949D01*
X148853521Y-99323401D01*
X148788069Y-99331953D01*
X148721821Y-99338604D01*
X148654776Y-99343355D01*
X148586934Y-99346206D01*
X148518296Y-99347156D01*
X148436229Y-99345782D01*
X148355214Y-99341660D01*
X148275253Y-99334790D01*
X148196345Y-99325172D01*
X148118490Y-99312806D01*
X148041688Y-99297692D01*
X147965939Y-99279830D01*
X147891243Y-99259220D01*
X147817600Y-99235862D01*
X147745011Y-99209755D01*
X147673474Y-99180900D01*
X147602990Y-99149297D01*
X147533558Y-99114946D01*
X147465180Y-99077847D01*
X147397855Y-99037999D01*
X147331582Y-98995403D01*
X147257732Y-98944503D01*
X147186579Y-98891241D01*
X147118123Y-98835615D01*
X147052363Y-98777626D01*
X146989301Y-98717274D01*
X146928935Y-98654559D01*
X146871265Y-98589480D01*
X146816293Y-98522039D01*
X146764016Y-98452235D01*
X146714437Y-98380069D01*
X146667553Y-98305539D01*
X146623366Y-98228648D01*
X146581875Y-98149393D01*
X146543081Y-98067777D01*
X146506982Y-97983798D01*
X146473580Y-97897456D01*
X146455270Y-97844986D01*
X146438141Y-97791950D01*
X146422193Y-97738350D01*
X146407427Y-97684185D01*
X146393841Y-97629455D01*
X146381437Y-97574161D01*
X146370214Y-97518302D01*
X146360172Y-97461878D01*
X146351311Y-97404889D01*
X146343632Y-97347335D01*
X146337134Y-97289217D01*
X146331817Y-97230533D01*
X146327682Y-97171285D01*
X146324729Y-97111472D01*
X146322956Y-97051093D01*
X146322366Y-96990150D01*
X146323285Y-96927684D01*
X147213250Y-96927684D01*
X147214393Y-97011345D01*
X147217821Y-97093851D01*
X147223534Y-97175200D01*
X147231533Y-97255393D01*
X147241817Y-97334431D01*
X147254387Y-97412312D01*
X147269243Y-97489038D01*
X147286385Y-97564607D01*
X147305813Y-97639021D01*
X147327526Y-97712280D01*
X147351526Y-97784382D01*
X147377812Y-97855329D01*
X147406384Y-97925120D01*
X147437242Y-97993755D01*
X147470387Y-98061235D01*
X147505818Y-98127559D01*
X147528147Y-98166122D01*
X147551579Y-98203736D01*
X147576117Y-98240398D01*
X147601759Y-98276110D01*
X147628506Y-98310872D01*
X147656357Y-98344684D01*
X147685313Y-98377545D01*
X147715374Y-98409456D01*
X147746539Y-98440416D01*
X147778809Y-98470426D01*
X147812184Y-98499485D01*
X147846663Y-98527594D01*
X147882246Y-98554753D01*
X147918935Y-98580961D01*
X147956728Y-98606219D01*
X147995625Y-98630527D01*
X148028576Y-98650032D01*
X148061680Y-98668279D01*
X148094939Y-98685267D01*
X148128352Y-98700997D01*
X148161918Y-98715469D01*
X148195639Y-98728682D01*
X148229514Y-98740637D01*
X148263543Y-98751334D01*
X148297727Y-98760772D01*
X148332064Y-98768951D01*
X148366555Y-98775872D01*
X148401200Y-98781535D01*
X148435998Y-98785940D01*
X148470951Y-98789086D01*
X148506058Y-98790973D01*
X148541318Y-98791602D01*
X148605201Y-98789753D01*
X148667826Y-98784206D01*
X148729193Y-98774960D01*
X148789301Y-98762016D01*
X148848151Y-98745373D01*
X148905743Y-98725033D01*
X148962076Y-98700994D01*
X149017151Y-98673256D01*
X149070968Y-98641820D01*
X149123527Y-98606686D01*
X149174828Y-98567854D01*
X149224871Y-98525323D01*
X149273655Y-98479094D01*
X149321182Y-98429167D01*
X149367451Y-98375542D01*
X149412461Y-98318218D01*
X149434713Y-98287260D01*
X149456271Y-98255197D01*
X149477137Y-98222030D01*
X149497308Y-98187759D01*
X149516787Y-98152383D01*
X149535572Y-98115902D01*
X149553664Y-98078317D01*
X149571062Y-98039628D01*
X149587767Y-97999834D01*
X149603779Y-97958936D01*
X149619097Y-97916933D01*
X149633722Y-97873826D01*
X149647654Y-97829615D01*
X149660892Y-97784300D01*
X149673437Y-97737880D01*
X149685288Y-97690357D01*
X149699932Y-97621886D01*
X149712622Y-97552902D01*
X149723359Y-97483405D01*
X149732142Y-97413395D01*
X149738973Y-97342872D01*
X149743852Y-97271835D01*
X149746778Y-97200286D01*
X149747754Y-97128223D01*
X149746021Y-97019061D01*
X149740820Y-96912647D01*
X149732153Y-96808982D01*
X149720019Y-96708064D01*
X149704418Y-96609894D01*
X149685350Y-96514472D01*
X149662815Y-96421798D01*
X149636813Y-96331871D01*
X149607344Y-96244693D01*
X149574407Y-96160263D01*
X149538003Y-96078580D01*
X149498132Y-95999646D01*
X149454793Y-95923459D01*
X149407986Y-95850021D01*
X149357713Y-95779330D01*
X149303971Y-95711387D01*
X149257769Y-95658841D01*
X149210385Y-95609685D01*
X149161821Y-95563919D01*
X149112075Y-95521543D01*
X149061147Y-95482558D01*
X149009039Y-95446963D01*
X148955749Y-95414758D01*
X148901277Y-95385943D01*
X148845624Y-95360518D01*
X148788790Y-95338484D01*
X148730774Y-95319839D01*
X148671576Y-95304584D01*
X148611196Y-95292720D01*
X148549635Y-95284245D01*
X148486892Y-95279160D01*
X148422967Y-95277465D01*
X148373490Y-95278749D01*
X148324501Y-95282602D01*
X148276000Y-95289022D01*
X148227988Y-95298011D01*
X148180463Y-95309568D01*
X148133427Y-95323693D01*
X148086878Y-95340386D01*
X148040818Y-95359648D01*
X147995245Y-95381478D01*
X147950160Y-95405876D01*
X147905563Y-95432842D01*
X147861454Y-95462377D01*
X147817833Y-95494479D01*
X147774700Y-95529150D01*
X147732054Y-95566389D01*
X147689896Y-95606197D01*
X147632178Y-95666062D01*
X147578182Y-95728958D01*
X147527911Y-95794884D01*
X147481364Y-95863840D01*
X147438540Y-95935826D01*
X147399440Y-96010842D01*
X147364064Y-96088889D01*
X147332412Y-96169966D01*
X147304483Y-96254074D01*
X147280278Y-96341212D01*
X147259798Y-96431380D01*
X147243040Y-96524580D01*
X147230007Y-96620810D01*
X147220698Y-96720070D01*
X147215112Y-96822362D01*
X147213250Y-96927684D01*
X146323285Y-96927684D01*
X146323599Y-96906348D01*
X146327297Y-96823419D01*
X146333462Y-96741364D01*
X146342092Y-96660184D01*
X146353188Y-96579876D01*
X146366749Y-96500442D01*
X146382776Y-96421882D01*
X146401268Y-96344195D01*
X146422226Y-96267381D01*
X146445649Y-96191441D01*
X146471537Y-96116374D01*
X146499890Y-96042179D01*
X146530709Y-95968858D01*
X146563993Y-95896409D01*
X146599742Y-95824834D01*
X146637956Y-95754131D01*
X146675811Y-95688997D01*
X146715412Y-95625919D01*
X146756760Y-95564896D01*
X146799854Y-95505929D01*
X146844695Y-95449016D01*
X146891281Y-95394159D01*
X146939615Y-95341357D01*
X146989694Y-95290609D01*
X147041521Y-95241916D01*
X147095094Y-95195278D01*
X147150413Y-95150695D01*
X147207480Y-95108166D01*
X147266293Y-95067692D01*
X147326853Y-95029272D01*
X147389160Y-94992906D01*
X147453214Y-94958595D01*
X147511268Y-94929538D01*
X147570375Y-94902355D01*
X147630535Y-94877047D01*
X147691748Y-94853613D01*
X147754014Y-94832054D01*
X147817333Y-94812370D01*
X147881704Y-94794560D01*
X147947129Y-94778624D01*
X148013606Y-94764564D01*
X148081137Y-94752378D01*
X148149720Y-94742066D01*
X148219357Y-94733630D01*
X148290047Y-94727068D01*
X148361790Y-94722381D01*
X148434586Y-94719569D01*
X148508435Y-94718631D01*
X148628241Y-94721520D01*
G37*
G36*
X144323214Y-94772700D02*
G01*
X144403150Y-94777208D01*
X144481314Y-94784720D01*
X144557706Y-94795237D01*
X144632326Y-94808759D01*
X144705174Y-94825286D01*
X144776249Y-94844818D01*
X144845553Y-94867354D01*
X144913085Y-94892895D01*
X144978845Y-94921441D01*
X145042832Y-94952992D01*
X145105048Y-94987547D01*
X145165492Y-95025107D01*
X145224163Y-95065672D01*
X145281063Y-95109241D01*
X145336190Y-95155814D01*
X145382365Y-95198383D01*
X145425561Y-95242261D01*
X145465778Y-95287449D01*
X145503016Y-95333946D01*
X145537275Y-95381753D01*
X145568555Y-95430869D01*
X145596856Y-95481295D01*
X145622178Y-95533031D01*
X145644521Y-95586076D01*
X145663885Y-95640432D01*
X145680269Y-95696097D01*
X145693675Y-95753073D01*
X145704102Y-95811358D01*
X145711549Y-95870954D01*
X145716018Y-95931859D01*
X145717507Y-95994075D01*
X145715478Y-96064609D01*
X145709392Y-96133217D01*
X145699247Y-96199900D01*
X145685045Y-96264656D01*
X145666786Y-96327487D01*
X145644468Y-96388391D01*
X145618093Y-96447370D01*
X145587660Y-96504422D01*
X145553169Y-96559548D01*
X145514620Y-96612749D01*
X145472014Y-96664023D01*
X145425350Y-96713371D01*
X145374629Y-96760793D01*
X145319849Y-96806289D01*
X145261012Y-96849858D01*
X145198117Y-96891502D01*
X145165231Y-96911177D01*
X145131498Y-96929927D01*
X145096917Y-96947752D01*
X145061489Y-96964652D01*
X145025213Y-96980627D01*
X144988089Y-96995676D01*
X144950118Y-97009801D01*
X144911300Y-97023001D01*
X144871633Y-97035277D01*
X144831119Y-97046628D01*
X144789758Y-97057054D01*
X144747549Y-97066556D01*
X144704492Y-97075134D01*
X144660588Y-97082787D01*
X144615836Y-97089516D01*
X144570237Y-97095321D01*
X144614670Y-97119415D01*
X144657561Y-97144020D01*
X144698910Y-97169137D01*
X144738718Y-97194765D01*
X144776984Y-97220907D01*
X144813709Y-97247563D01*
X144848893Y-97274734D01*
X144882537Y-97302421D01*
X144913677Y-97330272D01*
X144944637Y-97359587D01*
X144975417Y-97390366D01*
X145006017Y-97422609D01*
X145036437Y-97456316D01*
X145066678Y-97491487D01*
X145096738Y-97528122D01*
X145126619Y-97566222D01*
X145156320Y-97605785D01*
X145185841Y-97646812D01*
X145215182Y-97689303D01*
X145244344Y-97733259D01*
X145273326Y-97778678D01*
X145302128Y-97825562D01*
X145330750Y-97873909D01*
X145359193Y-97923721D01*
X145520681Y-98203347D01*
X145646832Y-98414348D01*
X145696655Y-98494115D01*
X145737643Y-98556727D01*
X145769796Y-98602185D01*
X145793115Y-98630489D01*
X145806342Y-98643472D01*
X145819723Y-98656121D01*
X145833258Y-98668436D01*
X145846948Y-98680417D01*
X145860792Y-98692064D01*
X145874789Y-98703378D01*
X145888941Y-98714357D01*
X145903247Y-98725003D01*
X145917707Y-98735314D01*
X145932321Y-98745292D01*
X145947089Y-98754935D01*
X145962011Y-98764245D01*
X145977086Y-98773221D01*
X145992316Y-98781863D01*
X146007699Y-98790171D01*
X146023236Y-98798145D01*
X146056830Y-98814376D01*
X146072317Y-98822337D01*
X146086930Y-98830195D01*
X146100670Y-98837951D01*
X146113536Y-98845604D01*
X146125530Y-98853154D01*
X146136649Y-98860601D01*
X146146896Y-98867945D01*
X146156269Y-98875187D01*
X146164770Y-98882325D01*
X146172396Y-98889361D01*
X146179150Y-98896294D01*
X146185031Y-98903124D01*
X146190038Y-98909852D01*
X146194173Y-98916477D01*
X146197358Y-98922269D01*
X146200338Y-98928139D01*
X146203113Y-98934085D01*
X146205681Y-98940109D01*
X146208045Y-98946209D01*
X146210202Y-98952387D01*
X146212154Y-98958642D01*
X146213901Y-98964973D01*
X146215442Y-98971382D01*
X146216777Y-98977868D01*
X146217907Y-98984431D01*
X146218832Y-98991071D01*
X146219551Y-98997789D01*
X146220064Y-99004584D01*
X146220372Y-99011456D01*
X146220475Y-99018405D01*
X146220016Y-99035798D01*
X146218639Y-99052638D01*
X146216343Y-99068927D01*
X146213130Y-99084663D01*
X146208998Y-99099847D01*
X146203948Y-99114479D01*
X146197980Y-99128559D01*
X146191094Y-99142087D01*
X146183290Y-99155063D01*
X146174568Y-99167486D01*
X146164927Y-99179358D01*
X146154369Y-99190677D01*
X146142892Y-99201444D01*
X146130497Y-99211659D01*
X146117184Y-99221322D01*
X146102953Y-99230433D01*
X146087803Y-99238992D01*
X146071736Y-99246998D01*
X146054750Y-99254453D01*
X146036847Y-99261355D01*
X146018025Y-99267705D01*
X145998285Y-99273503D01*
X145977627Y-99278749D01*
X145956051Y-99283442D01*
X145933557Y-99287584D01*
X145910144Y-99291173D01*
X145885814Y-99294210D01*
X145860565Y-99296695D01*
X145834399Y-99298628D01*
X145807314Y-99300008D01*
X145779311Y-99300836D01*
X145750390Y-99301112D01*
X145725799Y-99300830D01*
X145701337Y-99299982D01*
X145677003Y-99298570D01*
X145652797Y-99296592D01*
X145628720Y-99294049D01*
X145604771Y-99290942D01*
X145580951Y-99287269D01*
X145557259Y-99283031D01*
X145533696Y-99278228D01*
X145510261Y-99272860D01*
X145486955Y-99266927D01*
X145463777Y-99260429D01*
X145440728Y-99253366D01*
X145417808Y-99245737D01*
X145395016Y-99237544D01*
X145372353Y-99228786D01*
X145330298Y-99210898D01*
X145288782Y-99190108D01*
X145247806Y-99166417D01*
X145207369Y-99139823D01*
X145167471Y-99110327D01*
X145128113Y-99077929D01*
X145089295Y-99042629D01*
X145051015Y-99004427D01*
X145013275Y-98963323D01*
X144976075Y-98919317D01*
X144939413Y-98872410D01*
X144903291Y-98822600D01*
X144867709Y-98769889D01*
X144832665Y-98714276D01*
X144798161Y-98655761D01*
X144764195Y-98594344D01*
X144363137Y-97851413D01*
X144321174Y-97774671D01*
X144280752Y-97703888D01*
X144241870Y-97639064D01*
X144204529Y-97580200D01*
X144168728Y-97527295D01*
X144134468Y-97480348D01*
X144101748Y-97439360D01*
X144070569Y-97404331D01*
X144050345Y-97384028D01*
X144029119Y-97365036D01*
X144006892Y-97347354D01*
X143983663Y-97330981D01*
X143959433Y-97315918D01*
X143934201Y-97302165D01*
X143907967Y-97289722D01*
X143880732Y-97278589D01*
X143852495Y-97268765D01*
X143823256Y-97260251D01*
X143793015Y-97253047D01*
X143761773Y-97247153D01*
X143729529Y-97242569D01*
X143696283Y-97239294D01*
X143662035Y-97237330D01*
X143626786Y-97236675D01*
X143541318Y-97236675D01*
X143541318Y-98275493D01*
X143542010Y-98306889D01*
X143543267Y-98336975D01*
X143545089Y-98365752D01*
X143547476Y-98393220D01*
X143550429Y-98419378D01*
X143553946Y-98444226D01*
X143558029Y-98467765D01*
X143562677Y-98489993D01*
X143567889Y-98510912D01*
X143573668Y-98530521D01*
X143580011Y-98548821D01*
X143586919Y-98565810D01*
X143594393Y-98581489D01*
X143602432Y-98595858D01*
X143611036Y-98608917D01*
X143620206Y-98620666D01*
X143627359Y-98628769D01*
X143634846Y-98636640D01*
X143642667Y-98644281D01*
X143650822Y-98651690D01*
X143659311Y-98658868D01*
X143668133Y-98665815D01*
X143677289Y-98672531D01*
X143686779Y-98679016D01*
X143696603Y-98685270D01*
X143706760Y-98691293D01*
X143717251Y-98697084D01*
X143728076Y-98702645D01*
X143739234Y-98707974D01*
X143750726Y-98713072D01*
X143762552Y-98717939D01*
X143774711Y-98722575D01*
X143919354Y-98768581D01*
X143944432Y-98777586D01*
X143967892Y-98787335D01*
X143989735Y-98797828D01*
X144009959Y-98809065D01*
X144028566Y-98821047D01*
X144045554Y-98833773D01*
X144060925Y-98847244D01*
X144068004Y-98854258D01*
X144074678Y-98861459D01*
X144080948Y-98868846D01*
X144086813Y-98876419D01*
X144092274Y-98884178D01*
X144097330Y-98892124D01*
X144101982Y-98900256D01*
X144106229Y-98908574D01*
X144110072Y-98917078D01*
X144113510Y-98925769D01*
X144116544Y-98934646D01*
X144119173Y-98943709D01*
X144121398Y-98952959D01*
X144123218Y-98962395D01*
X144124634Y-98972017D01*
X144125645Y-98981826D01*
X144126454Y-99002002D01*
X144126146Y-99015033D01*
X144125221Y-99027833D01*
X144123680Y-99040403D01*
X144121523Y-99052742D01*
X144118749Y-99064850D01*
X144115358Y-99076726D01*
X144111352Y-99088372D01*
X144106729Y-99099787D01*
X144101489Y-99110971D01*
X144095634Y-99121923D01*
X144089161Y-99132645D01*
X144082073Y-99143135D01*
X144074368Y-99153393D01*
X144066047Y-99163420D01*
X144057110Y-99173216D01*
X144047557Y-99182781D01*
X144035744Y-99193929D01*
X144023314Y-99204358D01*
X144010268Y-99214067D01*
X143996606Y-99223057D01*
X143982327Y-99231327D01*
X143967431Y-99238878D01*
X143951919Y-99245710D01*
X143935791Y-99251822D01*
X143919046Y-99257215D01*
X143901685Y-99261888D01*
X143883707Y-99265843D01*
X143865113Y-99269078D01*
X143845902Y-99271594D01*
X143826075Y-99273391D01*
X143805632Y-99274470D01*
X143784572Y-99274829D01*
X143763410Y-99274573D01*
X143739373Y-99273803D01*
X143712458Y-99272520D01*
X143682668Y-99270724D01*
X143650001Y-99268414D01*
X143614456Y-99265592D01*
X143534737Y-99258407D01*
X143491131Y-99254558D01*
X143445778Y-99251222D01*
X143398678Y-99248400D01*
X143349831Y-99246090D01*
X143299237Y-99244294D01*
X143246898Y-99243011D01*
X143192811Y-99242241D01*
X143136979Y-99241985D01*
X143027055Y-99243011D01*
X142924119Y-99246090D01*
X142875271Y-99248400D01*
X142828171Y-99251222D01*
X142782817Y-99254558D01*
X142739211Y-99258407D01*
X142660931Y-99265592D01*
X142593747Y-99270724D01*
X142537656Y-99273803D01*
X142513771Y-99274573D01*
X142492658Y-99274829D01*
X142469198Y-99274393D01*
X142446482Y-99273083D01*
X142424512Y-99270900D01*
X142403286Y-99267844D01*
X142382805Y-99263915D01*
X142363069Y-99259113D01*
X142344078Y-99253438D01*
X142325831Y-99246889D01*
X142308329Y-99239467D01*
X142291572Y-99231172D01*
X142275560Y-99222003D01*
X142260292Y-99211961D01*
X142245770Y-99201045D01*
X142231992Y-99189257D01*
X142218958Y-99176594D01*
X142206670Y-99163059D01*
X142199505Y-99153957D01*
X142192802Y-99144727D01*
X142186562Y-99135368D01*
X142180783Y-99125880D01*
X142175467Y-99116264D01*
X142170612Y-99106519D01*
X142166220Y-99096645D01*
X142162290Y-99086643D01*
X142158823Y-99076512D01*
X142155817Y-99066253D01*
X142153274Y-99055866D01*
X142151194Y-99045350D01*
X142149575Y-99034705D01*
X142148419Y-99023933D01*
X142147725Y-99013032D01*
X142147494Y-99002002D01*
X142147751Y-98989825D01*
X142148521Y-98977957D01*
X142149806Y-98966397D01*
X142151603Y-98955146D01*
X142153915Y-98944203D01*
X142156740Y-98933568D01*
X142160078Y-98923242D01*
X142163931Y-98913225D01*
X142168297Y-98903515D01*
X142173176Y-98894115D01*
X142178570Y-98885022D01*
X142184476Y-98876239D01*
X142190897Y-98867763D01*
X142197831Y-98859596D01*
X142205279Y-98851738D01*
X142213241Y-98844188D01*
X142220907Y-98838322D01*
X142229935Y-98832224D01*
X142240324Y-98825894D01*
X142252074Y-98819333D01*
X142265185Y-98812541D01*
X142279657Y-98805518D01*
X142295490Y-98798263D01*
X142312684Y-98790777D01*
X142331239Y-98783061D01*
X142351155Y-98775113D01*
X142395071Y-98758524D01*
X142444432Y-98741011D01*
X142499238Y-98722575D01*
X142518910Y-98715292D01*
X142537658Y-98707419D01*
X142555481Y-98698956D01*
X142572380Y-98689902D01*
X142588354Y-98680257D01*
X142603404Y-98670023D01*
X142617529Y-98659197D01*
X142630729Y-98647781D01*
X142643005Y-98635774D01*
X142654357Y-98623177D01*
X142664783Y-98609988D01*
X142674286Y-98596209D01*
X142682863Y-98581838D01*
X142690516Y-98566876D01*
X142697244Y-98551323D01*
X142703048Y-98535178D01*
X142706630Y-98525306D01*
X142709982Y-98514585D01*
X142713102Y-98503017D01*
X142715992Y-98490601D01*
X142718650Y-98477337D01*
X142721078Y-98463225D01*
X142723274Y-98448265D01*
X142725240Y-98432458D01*
X142726974Y-98415803D01*
X142728477Y-98398301D01*
X142729749Y-98379952D01*
X142730790Y-98360754D01*
X142732178Y-98319818D01*
X142732640Y-98275493D01*
X142732640Y-96779769D01*
X143541318Y-96779769D01*
X143902923Y-96779769D01*
X143949188Y-96779204D01*
X143994299Y-96777510D01*
X144038253Y-96774686D01*
X144081052Y-96770731D01*
X144122695Y-96765647D01*
X144163182Y-96759433D01*
X144202513Y-96752089D01*
X144240689Y-96743615D01*
X144277709Y-96734011D01*
X144313573Y-96723277D01*
X144348282Y-96711413D01*
X144381835Y-96698418D01*
X144414232Y-96684293D01*
X144445474Y-96669037D01*
X144475560Y-96652651D01*
X144504491Y-96635135D01*
X144543104Y-96607988D01*
X144561477Y-96593778D01*
X144579227Y-96579146D01*
X144596354Y-96564089D01*
X144612858Y-96548609D01*
X144628739Y-96532705D01*
X144643998Y-96516377D01*
X144658634Y-96499626D01*
X144672647Y-96482451D01*
X144686037Y-96464852D01*
X144698804Y-96446829D01*
X144710948Y-96428383D01*
X144722470Y-96409513D01*
X144733369Y-96390220D01*
X144743645Y-96370502D01*
X144753298Y-96350361D01*
X144762328Y-96329796D01*
X144770736Y-96308808D01*
X144778521Y-96287395D01*
X144785683Y-96265559D01*
X144792222Y-96243299D01*
X144798139Y-96220616D01*
X144803432Y-96197508D01*
X144812151Y-96150022D01*
X144818379Y-96100841D01*
X144822116Y-96049965D01*
X144823361Y-95997394D01*
X144822540Y-95955479D01*
X144820074Y-95914387D01*
X144815965Y-95874116D01*
X144810213Y-95834666D01*
X144802817Y-95796039D01*
X144793777Y-95758233D01*
X144783094Y-95721249D01*
X144770767Y-95685087D01*
X144756797Y-95649747D01*
X144741183Y-95615228D01*
X144723925Y-95581532D01*
X144705024Y-95548658D01*
X144684478Y-95516605D01*
X144662290Y-95485375D01*
X144638457Y-95454966D01*
X144612981Y-95425380D01*
X144585039Y-95395925D01*
X144556276Y-95368370D01*
X144526691Y-95342715D01*
X144496283Y-95318961D01*
X144465054Y-95297107D01*
X144433003Y-95277153D01*
X144400130Y-95259100D01*
X144366434Y-95242947D01*
X144331917Y-95228694D01*
X144296579Y-95216342D01*
X144260418Y-95205890D01*
X144223435Y-95197339D01*
X144185631Y-95190687D01*
X144147005Y-95185937D01*
X144107558Y-95183086D01*
X144067288Y-95182136D01*
X144041232Y-95182598D01*
X144015665Y-95183985D01*
X143990585Y-95186296D01*
X143965994Y-95189532D01*
X143941891Y-95193692D01*
X143918275Y-95198776D01*
X143895149Y-95204785D01*
X143872510Y-95211719D01*
X143850359Y-95219577D01*
X143828697Y-95228359D01*
X143807523Y-95238066D01*
X143786837Y-95248698D01*
X143766639Y-95260253D01*
X143746929Y-95272734D01*
X143727707Y-95286139D01*
X143708974Y-95300468D01*
X143688672Y-95317405D01*
X143669679Y-95335345D01*
X143651997Y-95354286D01*
X143635624Y-95374228D01*
X143620561Y-95395173D01*
X143606808Y-95417119D01*
X143594365Y-95440066D01*
X143583232Y-95464016D01*
X143573408Y-95488967D01*
X143564894Y-95514919D01*
X143557690Y-95541873D01*
X143551796Y-95569829D01*
X143547212Y-95598786D01*
X143543937Y-95628744D01*
X143541973Y-95659704D01*
X143541318Y-95691665D01*
X143541318Y-96779769D01*
X142732640Y-96779769D01*
X142732640Y-95790275D01*
X142731946Y-95759252D01*
X142730688Y-95729461D01*
X142728864Y-95700903D01*
X142726475Y-95673578D01*
X142723521Y-95647485D01*
X142720002Y-95622624D01*
X142715918Y-95598997D01*
X142711270Y-95576602D01*
X142706056Y-95555440D01*
X142700277Y-95535510D01*
X142693934Y-95516813D01*
X142687025Y-95499349D01*
X142679552Y-95483118D01*
X142671514Y-95468120D01*
X142662911Y-95454354D01*
X142653743Y-95441821D01*
X142646590Y-95433346D01*
X142639103Y-95425179D01*
X142631282Y-95417321D01*
X142623128Y-95409770D01*
X142614640Y-95402529D01*
X142605818Y-95395595D01*
X142596662Y-95388970D01*
X142587173Y-95382653D01*
X142577349Y-95376644D01*
X142567192Y-95370944D01*
X142556701Y-95365551D01*
X142545876Y-95360467D01*
X142534718Y-95355691D01*
X142523225Y-95351223D01*
X142511398Y-95347063D01*
X142499238Y-95343211D01*
X142354594Y-95300468D01*
X142329516Y-95292211D01*
X142306056Y-95283056D01*
X142284214Y-95273001D01*
X142263989Y-95262048D01*
X142245383Y-95250196D01*
X142236686Y-95243933D01*
X142228394Y-95237445D01*
X142220506Y-95230732D01*
X142213023Y-95223795D01*
X142205945Y-95216633D01*
X142199270Y-95209246D01*
X142193001Y-95201635D01*
X142187135Y-95193799D01*
X142181675Y-95185738D01*
X142176618Y-95177453D01*
X142171967Y-95168943D01*
X142167719Y-95160208D01*
X142163877Y-95151249D01*
X142160438Y-95142065D01*
X142157405Y-95132656D01*
X142154775Y-95123022D01*
X142152551Y-95113164D01*
X142150730Y-95103082D01*
X142149314Y-95092774D01*
X142148303Y-95082242D01*
X142147494Y-95060504D01*
X142147802Y-95047868D01*
X142148727Y-95035438D01*
X142150268Y-95023213D01*
X142152426Y-95011194D01*
X142155200Y-94999381D01*
X142158590Y-94987772D01*
X142162597Y-94976370D01*
X142167220Y-94965173D01*
X142172459Y-94954181D01*
X142178315Y-94943394D01*
X142184787Y-94932813D01*
X142191875Y-94922438D01*
X142199580Y-94912267D01*
X142207901Y-94902302D01*
X142216838Y-94892542D01*
X142226392Y-94882987D01*
X142238218Y-94871842D01*
X142250686Y-94861415D01*
X142263796Y-94851708D01*
X142277548Y-94842719D01*
X142291943Y-94834449D01*
X142306979Y-94826898D01*
X142322658Y-94820066D01*
X142338979Y-94813953D01*
X142355942Y-94808559D01*
X142373547Y-94803885D01*
X142391793Y-94799929D01*
X142410682Y-94796693D01*
X142430213Y-94794175D01*
X142450386Y-94792377D01*
X142471201Y-94791298D01*
X142492658Y-94790939D01*
X142514490Y-94791144D01*
X142538889Y-94791761D01*
X142565855Y-94792788D01*
X142595389Y-94794226D01*
X142662161Y-94798334D01*
X142739211Y-94804080D01*
X142782407Y-94807930D01*
X142826527Y-94811268D01*
X142871573Y-94814094D01*
X142917544Y-94816407D01*
X142964440Y-94818206D01*
X143012261Y-94819492D01*
X143061007Y-94820264D01*
X143110677Y-94820522D01*
X143223264Y-94819288D01*
X143344074Y-94815586D01*
X143473102Y-94809417D01*
X143610345Y-94800781D01*
X143813745Y-94787838D01*
X143986740Y-94778593D01*
X144129327Y-94773047D01*
X144241506Y-94771198D01*
X144323214Y-94772700D01*
G37*
G36*
X140501953Y-94720043D02*
G01*
X140572720Y-94724281D01*
X140643821Y-94731343D01*
X140715256Y-94741230D01*
X140787025Y-94753942D01*
X140859127Y-94769479D01*
X140931563Y-94787841D01*
X141004333Y-94809027D01*
X141077437Y-94833039D01*
X141150875Y-94859876D01*
X141224646Y-94889538D01*
X141298751Y-94922026D01*
X141373191Y-94957338D01*
X141447964Y-94995476D01*
X141523071Y-95036438D01*
X141598512Y-95080226D01*
X141639116Y-95105511D01*
X141677100Y-95131231D01*
X141712464Y-95157388D01*
X141745209Y-95183982D01*
X141775334Y-95211011D01*
X141802839Y-95238478D01*
X141827725Y-95266380D01*
X141849991Y-95294720D01*
X141869637Y-95323495D01*
X141886664Y-95352708D01*
X141901071Y-95382356D01*
X141912858Y-95412442D01*
X141922027Y-95442964D01*
X141928575Y-95473923D01*
X141932504Y-95505318D01*
X141933814Y-95537151D01*
X141932710Y-95567457D01*
X141929397Y-95598379D01*
X141923875Y-95629918D01*
X141916145Y-95662073D01*
X141906206Y-95694845D01*
X141894059Y-95728233D01*
X141879703Y-95762237D01*
X141863138Y-95796858D01*
X141844365Y-95832094D01*
X141823383Y-95867947D01*
X141800192Y-95904416D01*
X141774792Y-95941502D01*
X141747184Y-95979203D01*
X141717367Y-96017521D01*
X141685341Y-96056454D01*
X141651107Y-96096004D01*
X141631011Y-96117896D01*
X141610992Y-96138376D01*
X141591050Y-96157444D01*
X141571186Y-96175100D01*
X141551398Y-96191343D01*
X141531687Y-96206175D01*
X141512053Y-96219593D01*
X141492496Y-96231600D01*
X141473016Y-96242194D01*
X141453613Y-96251375D01*
X141434287Y-96259144D01*
X141415037Y-96265501D01*
X141395865Y-96270445D01*
X141376769Y-96273976D01*
X141357750Y-96276095D01*
X141338807Y-96276801D01*
X141330218Y-96276660D01*
X141321705Y-96276236D01*
X141313270Y-96275530D01*
X141304911Y-96274541D01*
X141296630Y-96273270D01*
X141288425Y-96271716D01*
X141280297Y-96269880D01*
X141272246Y-96267761D01*
X141264273Y-96265359D01*
X141256376Y-96262675D01*
X141248556Y-96259709D01*
X141240814Y-96256460D01*
X141233148Y-96252928D01*
X141225560Y-96249114D01*
X141218048Y-96245017D01*
X141210614Y-96240638D01*
X141204142Y-96236674D01*
X141197875Y-96232587D01*
X141191814Y-96228379D01*
X141185958Y-96224049D01*
X141180307Y-96219596D01*
X141174863Y-96215022D01*
X141169623Y-96210326D01*
X141164589Y-96205508D01*
X141159761Y-96200568D01*
X141155138Y-96195506D01*
X141150720Y-96190322D01*
X141146508Y-96185016D01*
X141142501Y-96179588D01*
X141138700Y-96174038D01*
X141135104Y-96168366D01*
X141131714Y-96162573D01*
X141128529Y-96156657D01*
X141125550Y-96150619D01*
X141122776Y-96144459D01*
X141120208Y-96138177D01*
X141117845Y-96131774D01*
X141115688Y-96125248D01*
X141113736Y-96118600D01*
X141111989Y-96111830D01*
X141110448Y-96104939D01*
X141109113Y-96097925D01*
X141107983Y-96090789D01*
X141107058Y-96083531D01*
X141106339Y-96076151D01*
X141105825Y-96068649D01*
X141105414Y-96053279D01*
X141105543Y-96048717D01*
X141105928Y-96043257D01*
X141107469Y-96029640D01*
X141110037Y-96012429D01*
X141113633Y-95991624D01*
X141118255Y-95967225D01*
X141123905Y-95939232D01*
X141130583Y-95907644D01*
X141138287Y-95872463D01*
X141139830Y-95866712D01*
X141141166Y-95860961D01*
X141142297Y-95855211D01*
X141143223Y-95849460D01*
X141143942Y-95843709D01*
X141144457Y-95837959D01*
X141144765Y-95832208D01*
X141144868Y-95826457D01*
X141144367Y-95814554D01*
X141142865Y-95802676D01*
X141140362Y-95790824D01*
X141136857Y-95778997D01*
X141132350Y-95767196D01*
X141126842Y-95755420D01*
X141120333Y-95743670D01*
X141112822Y-95731946D01*
X141104309Y-95720247D01*
X141094795Y-95708574D01*
X141084279Y-95696927D01*
X141072762Y-95685306D01*
X141060243Y-95673711D01*
X141046722Y-95662141D01*
X141032199Y-95650597D01*
X141016675Y-95639079D01*
X140997386Y-95626032D01*
X140977326Y-95613191D01*
X140956497Y-95600555D01*
X140934897Y-95588124D01*
X140912528Y-95575899D01*
X140889388Y-95563880D01*
X140865478Y-95552066D01*
X140840797Y-95540458D01*
X140815346Y-95529054D01*
X140789125Y-95517857D01*
X140762133Y-95506864D01*
X140734371Y-95496077D01*
X140676535Y-95475119D01*
X140615617Y-95454982D01*
X140554905Y-95437265D01*
X140494399Y-95421909D01*
X140434098Y-95408914D01*
X140374002Y-95398281D01*
X140314112Y-95390010D01*
X140254426Y-95384102D01*
X140194946Y-95380557D01*
X140135671Y-95379375D01*
X140076076Y-95380492D01*
X140017278Y-95383843D01*
X139959275Y-95389429D01*
X139902069Y-95397249D01*
X139845658Y-95407304D01*
X139790043Y-95419593D01*
X139735224Y-95434116D01*
X139681202Y-95450874D01*
X139627975Y-95469867D01*
X139575545Y-95491093D01*
X139523911Y-95514555D01*
X139473074Y-95540251D01*
X139423033Y-95568182D01*
X139373788Y-95598347D01*
X139325340Y-95630747D01*
X139277688Y-95665382D01*
X139226273Y-95706113D01*
X139177220Y-95748590D01*
X139130531Y-95792814D01*
X139086203Y-95838784D01*
X139044239Y-95886501D01*
X139004637Y-95935965D01*
X138967398Y-95987174D01*
X138932521Y-96040130D01*
X138900007Y-96094833D01*
X138869856Y-96151282D01*
X138842067Y-96209477D01*
X138816642Y-96269418D01*
X138793579Y-96331105D01*
X138772878Y-96394539D01*
X138754541Y-96459719D01*
X138738566Y-96526645D01*
X138729323Y-96570204D01*
X138721311Y-96613763D01*
X138714532Y-96657322D01*
X138708984Y-96700881D01*
X138704670Y-96744440D01*
X138701588Y-96787999D01*
X138699739Y-96831559D01*
X138699122Y-96875118D01*
X138700419Y-96945809D01*
X138704310Y-97015703D01*
X138710795Y-97084801D01*
X138719874Y-97153102D01*
X138731546Y-97220607D01*
X138745813Y-97287316D01*
X138762673Y-97353229D01*
X138782128Y-97418345D01*
X138804176Y-97482665D01*
X138828818Y-97546189D01*
X138856054Y-97608917D01*
X138885885Y-97670849D01*
X138918309Y-97731984D01*
X138953326Y-97792325D01*
X138990938Y-97851869D01*
X139031144Y-97910617D01*
X139059124Y-97948766D01*
X139088002Y-97985965D01*
X139117780Y-98022214D01*
X139148457Y-98057513D01*
X139180032Y-98091861D01*
X139212507Y-98125260D01*
X139245881Y-98157708D01*
X139280153Y-98189207D01*
X139315325Y-98219755D01*
X139351395Y-98249353D01*
X139388365Y-98278001D01*
X139426233Y-98305698D01*
X139465001Y-98332446D01*
X139504667Y-98358243D01*
X139545233Y-98383089D01*
X139586697Y-98406986D01*
X139635390Y-98433260D01*
X139684494Y-98457840D01*
X139734009Y-98480725D01*
X139783934Y-98501914D01*
X139834271Y-98521409D01*
X139885019Y-98539208D01*
X139936178Y-98555312D01*
X139987747Y-98569721D01*
X140039728Y-98582434D01*
X140092119Y-98593453D01*
X140144922Y-98602776D01*
X140198135Y-98610404D01*
X140251759Y-98616337D01*
X140305794Y-98620575D01*
X140360240Y-98623118D01*
X140415097Y-98623966D01*
X140473178Y-98622835D01*
X140531540Y-98619445D01*
X140590185Y-98613795D01*
X140649113Y-98605884D01*
X140708323Y-98595714D01*
X140767815Y-98583283D01*
X140827590Y-98568592D01*
X140887648Y-98551641D01*
X140947987Y-98532431D01*
X141008610Y-98510960D01*
X141069515Y-98487229D01*
X141130702Y-98461239D01*
X141192173Y-98432988D01*
X141253926Y-98402478D01*
X141315961Y-98369708D01*
X141378280Y-98334678D01*
X141442792Y-98297697D01*
X141501552Y-98265645D01*
X141554560Y-98238524D01*
X141601815Y-98216334D01*
X141643317Y-98199075D01*
X141661911Y-98192294D01*
X141679067Y-98186746D01*
X141694784Y-98182431D01*
X141709062Y-98179349D01*
X141721902Y-98177499D01*
X141733304Y-98176883D01*
X141740663Y-98177076D01*
X141747944Y-98177654D01*
X141755149Y-98178617D01*
X141762276Y-98179965D01*
X141769326Y-98181699D01*
X141776299Y-98183818D01*
X141783194Y-98186322D01*
X141790013Y-98189212D01*
X141796755Y-98192486D01*
X141803419Y-98196146D01*
X141810007Y-98200190D01*
X141816518Y-98204620D01*
X141822952Y-98209434D01*
X141829310Y-98214634D01*
X141835590Y-98220219D01*
X141841794Y-98226188D01*
X141848162Y-98232854D01*
X141854119Y-98239700D01*
X141859665Y-98246725D01*
X141864800Y-98253930D01*
X141869525Y-98261314D01*
X141873838Y-98268877D01*
X141877741Y-98276621D01*
X141881233Y-98284543D01*
X141884314Y-98292646D01*
X141886985Y-98300928D01*
X141889244Y-98309390D01*
X141891093Y-98318032D01*
X141892531Y-98326854D01*
X141893558Y-98335856D01*
X141894174Y-98345038D01*
X141894379Y-98354400D01*
X141894052Y-98366991D01*
X141893070Y-98379697D01*
X141891433Y-98392519D01*
X141889141Y-98405456D01*
X141886194Y-98418509D01*
X141882592Y-98431677D01*
X141878336Y-98444960D01*
X141873424Y-98458360D01*
X141861637Y-98485505D01*
X141847230Y-98513112D01*
X141830203Y-98541182D01*
X141810557Y-98569713D01*
X141788292Y-98598708D01*
X141763407Y-98628165D01*
X141735903Y-98658084D01*
X141705779Y-98688466D01*
X141673035Y-98719311D01*
X141637672Y-98750619D01*
X141599689Y-98782390D01*
X141559087Y-98814624D01*
X141472923Y-98878711D01*
X141386195Y-98938664D01*
X141298902Y-98994482D01*
X141211043Y-99046166D01*
X141122620Y-99093716D01*
X141033631Y-99137131D01*
X140944078Y-99176412D01*
X140853959Y-99211558D01*
X140763275Y-99242569D01*
X140672027Y-99269446D01*
X140580213Y-99292188D01*
X140487834Y-99310795D01*
X140394890Y-99325268D01*
X140301381Y-99335605D01*
X140207307Y-99341808D01*
X140112668Y-99343875D01*
X140025964Y-99342244D01*
X139940083Y-99337352D01*
X139855024Y-99329198D01*
X139770786Y-99317783D01*
X139687371Y-99303106D01*
X139604777Y-99285167D01*
X139523006Y-99263967D01*
X139442056Y-99239505D01*
X139361928Y-99211782D01*
X139282622Y-99180797D01*
X139204138Y-99146550D01*
X139126476Y-99109042D01*
X139049635Y-99068273D01*
X138973617Y-99024242D01*
X138898420Y-98976949D01*
X138824044Y-98926395D01*
X138767351Y-98885056D01*
X138712327Y-98842408D01*
X138658972Y-98798451D01*
X138607286Y-98753185D01*
X138557270Y-98706608D01*
X138508923Y-98658723D01*
X138462246Y-98609527D01*
X138417238Y-98559023D01*
X138373899Y-98507208D01*
X138332230Y-98454084D01*
X138292230Y-98399651D01*
X138253900Y-98343907D01*
X138217240Y-98286854D01*
X138182249Y-98228492D01*
X138148928Y-98168819D01*
X138117276Y-98107837D01*
X138090603Y-98051723D01*
X138065651Y-97995147D01*
X138042420Y-97938108D01*
X138020909Y-97880607D01*
X138001120Y-97822644D01*
X137983052Y-97764218D01*
X137966705Y-97705330D01*
X137952078Y-97645980D01*
X137939173Y-97586167D01*
X137927988Y-97525891D01*
X137918524Y-97465153D01*
X137910781Y-97403953D01*
X137904758Y-97342290D01*
X137900457Y-97280164D01*
X137897876Y-97217576D01*
X137897015Y-97154525D01*
X137898248Y-97079998D01*
X137901946Y-97005984D01*
X137908110Y-96932482D01*
X137916739Y-96859494D01*
X137927834Y-96787018D01*
X137941394Y-96715056D01*
X137957419Y-96643607D01*
X137975911Y-96572672D01*
X137996867Y-96502250D01*
X138020290Y-96432341D01*
X138046178Y-96362946D01*
X138074532Y-96294064D01*
X138105352Y-96225697D01*
X138138637Y-96157843D01*
X138174388Y-96090503D01*
X138212605Y-96023677D01*
X138261207Y-95945786D01*
X138312506Y-95869897D01*
X138366502Y-95796012D01*
X138423194Y-95724129D01*
X138482584Y-95654249D01*
X138544670Y-95586372D01*
X138609453Y-95520498D01*
X138676933Y-95456627D01*
X138747109Y-95394760D01*
X138819982Y-95334895D01*
X138895552Y-95277034D01*
X138973819Y-95221176D01*
X139054782Y-95167322D01*
X139138442Y-95115471D01*
X139224798Y-95065624D01*
X139313851Y-95017780D01*
X139386402Y-94981555D01*
X139458594Y-94947667D01*
X139530426Y-94916116D01*
X139601899Y-94886902D01*
X139673012Y-94860026D01*
X139743766Y-94835486D01*
X139814161Y-94813284D01*
X139884196Y-94793418D01*
X139953872Y-94775890D01*
X140023188Y-94760699D01*
X140092145Y-94747845D01*
X140160743Y-94737328D01*
X140228981Y-94729148D01*
X140296859Y-94723305D01*
X140364379Y-94719800D01*
X140431528Y-94718631D01*
X140501953Y-94720043D01*
G37*
G36*
X137177527Y-94791362D02*
G01*
X137200244Y-94792634D01*
X137222216Y-94794753D01*
X137243443Y-94797719D01*
X137263925Y-94801533D01*
X137283663Y-94806195D01*
X137302656Y-94811704D01*
X137320903Y-94818061D01*
X137338406Y-94825266D01*
X137355163Y-94833318D01*
X137371176Y-94842217D01*
X137386444Y-94851964D01*
X137400966Y-94862559D01*
X137414743Y-94874001D01*
X137427775Y-94886291D01*
X137440062Y-94899429D01*
X137447229Y-94908518D01*
X137453933Y-94917710D01*
X137460174Y-94927005D01*
X137465953Y-94936404D01*
X137471270Y-94945905D01*
X137476124Y-94955510D01*
X137480516Y-94965218D01*
X137484445Y-94975029D01*
X137487912Y-94984943D01*
X137490917Y-94994960D01*
X137493460Y-95005080D01*
X137495540Y-95015303D01*
X137497158Y-95025629D01*
X137498313Y-95036057D01*
X137499007Y-95046589D01*
X137499238Y-95057224D01*
X137498968Y-95069419D01*
X137498159Y-95081359D01*
X137496811Y-95093042D01*
X137494923Y-95104469D01*
X137492496Y-95115640D01*
X137489530Y-95126554D01*
X137486024Y-95137212D01*
X137481979Y-95147613D01*
X137477394Y-95157757D01*
X137472271Y-95167645D01*
X137466607Y-95177276D01*
X137460405Y-95186651D01*
X137453663Y-95195769D01*
X137446382Y-95204629D01*
X137438561Y-95213233D01*
X137430201Y-95221580D01*
X137422548Y-95228603D01*
X137413559Y-95235703D01*
X137403235Y-95242881D01*
X137391575Y-95250136D01*
X137378581Y-95257468D01*
X137364251Y-95264878D01*
X137348585Y-95272364D01*
X137331584Y-95279928D01*
X137313248Y-95287569D01*
X137293576Y-95295287D01*
X137272568Y-95303082D01*
X137250225Y-95310954D01*
X137226546Y-95318903D01*
X137201531Y-95326929D01*
X137175181Y-95335032D01*
X137147494Y-95343211D01*
X137128592Y-95349723D01*
X137110511Y-95356928D01*
X137093252Y-95364826D01*
X137076816Y-95373417D01*
X137061201Y-95382701D01*
X137046409Y-95392679D01*
X137032438Y-95403349D01*
X137019289Y-95414713D01*
X137006962Y-95426770D01*
X136995457Y-95439521D01*
X136984774Y-95452965D01*
X136974913Y-95467103D01*
X136965873Y-95481934D01*
X136957655Y-95497459D01*
X136950259Y-95513677D01*
X136943684Y-95530589D01*
X136940102Y-95540465D01*
X136936751Y-95551189D01*
X136933631Y-95562760D01*
X136930742Y-95575178D01*
X136928084Y-95588444D01*
X136925657Y-95602557D01*
X136923462Y-95617518D01*
X136921497Y-95633326D01*
X136919764Y-95649982D01*
X136918262Y-95667485D01*
X136916990Y-95685835D01*
X136915950Y-95705032D01*
X136914564Y-95745969D01*
X136914101Y-95790294D01*
X136914101Y-98275493D01*
X136914793Y-98306506D01*
X136916051Y-98336261D01*
X136917873Y-98364757D01*
X136920260Y-98391994D01*
X136923212Y-98417972D01*
X136926730Y-98442692D01*
X136930812Y-98466153D01*
X136935460Y-98488355D01*
X136940673Y-98509299D01*
X136946451Y-98528984D01*
X136952795Y-98547411D01*
X136959703Y-98564579D01*
X136967177Y-98580488D01*
X136975216Y-98595139D01*
X136983820Y-98608532D01*
X136992989Y-98620666D01*
X136999757Y-98629154D01*
X137006910Y-98637360D01*
X137014448Y-98645283D01*
X137022372Y-98652924D01*
X137030681Y-98660282D01*
X137039375Y-98667358D01*
X137048454Y-98674151D01*
X137057918Y-98680661D01*
X137067767Y-98686890D01*
X137078002Y-98692835D01*
X137088621Y-98698498D01*
X137099626Y-98703879D01*
X137111016Y-98708977D01*
X137122790Y-98713792D01*
X137134950Y-98718325D01*
X137147494Y-98722575D01*
X137292138Y-98768581D01*
X137317216Y-98777599D01*
X137340676Y-98787387D01*
X137362518Y-98797944D01*
X137382743Y-98809272D01*
X137401349Y-98821370D01*
X137418338Y-98834238D01*
X137433709Y-98847876D01*
X137440788Y-98854984D01*
X137447462Y-98862284D01*
X137453731Y-98869777D01*
X137459597Y-98877462D01*
X137465057Y-98885340D01*
X137470114Y-98893411D01*
X137474765Y-98901674D01*
X137479013Y-98910130D01*
X137482855Y-98918779D01*
X137486294Y-98927620D01*
X137489327Y-98936653D01*
X137491957Y-98945880D01*
X137494182Y-98955298D01*
X137496002Y-98964910D01*
X137497418Y-98974714D01*
X137498429Y-98984711D01*
X137499238Y-99005283D01*
X137498866Y-99019907D01*
X137497748Y-99034198D01*
X137495886Y-99048155D01*
X137493280Y-99061777D01*
X137489928Y-99075067D01*
X137485832Y-99088022D01*
X137480991Y-99100643D01*
X137475406Y-99112931D01*
X137469075Y-99124885D01*
X137462000Y-99136505D01*
X137454180Y-99147792D01*
X137445615Y-99158745D01*
X137436306Y-99169365D01*
X137426251Y-99179651D01*
X137415452Y-99189603D01*
X137403909Y-99199222D01*
X137392171Y-99208379D01*
X137379971Y-99216944D01*
X137367309Y-99224919D01*
X137354184Y-99232303D01*
X137340598Y-99239096D01*
X137326549Y-99245298D01*
X137312038Y-99250909D01*
X137297065Y-99255930D01*
X137281630Y-99260360D01*
X137265732Y-99264199D01*
X137249373Y-99267447D01*
X137232552Y-99270105D01*
X137215268Y-99272172D01*
X137197523Y-99273648D01*
X137179315Y-99274534D01*
X137160645Y-99274829D01*
X137139433Y-99274573D01*
X137115241Y-99273803D01*
X137088070Y-99272520D01*
X137057919Y-99270724D01*
X137024789Y-99268414D01*
X136988680Y-99265592D01*
X136907521Y-99258407D01*
X136863195Y-99254558D01*
X136817327Y-99251222D01*
X136769918Y-99248400D01*
X136720968Y-99246090D01*
X136670476Y-99244294D01*
X136618443Y-99243011D01*
X136564869Y-99242241D01*
X136509753Y-99241985D01*
X136399830Y-99243011D01*
X136296897Y-99246090D01*
X136248050Y-99248400D01*
X136200949Y-99251222D01*
X136155594Y-99254558D01*
X136111985Y-99258407D01*
X136032270Y-99265592D01*
X135964058Y-99270724D01*
X135907351Y-99273803D01*
X135883313Y-99274573D01*
X135862151Y-99274829D01*
X135838704Y-99274393D01*
X135816027Y-99273083D01*
X135794121Y-99270900D01*
X135772985Y-99267844D01*
X135752620Y-99263915D01*
X135733025Y-99259113D01*
X135714200Y-99253438D01*
X135696146Y-99246889D01*
X135678862Y-99239467D01*
X135662349Y-99231172D01*
X135646606Y-99222003D01*
X135631633Y-99211961D01*
X135617430Y-99201045D01*
X135603998Y-99189257D01*
X135591336Y-99176594D01*
X135579444Y-99163059D01*
X135572279Y-99154355D01*
X135565576Y-99145497D01*
X135559336Y-99136485D01*
X135553557Y-99127318D01*
X135548241Y-99117996D01*
X135543387Y-99108521D01*
X135538994Y-99098890D01*
X135535065Y-99089106D01*
X135531597Y-99079167D01*
X135528592Y-99069074D01*
X135526048Y-99058827D01*
X135523968Y-99048426D01*
X135522349Y-99037871D01*
X135521193Y-99027162D01*
X135520500Y-99016299D01*
X135520268Y-99005283D01*
X135520525Y-98992711D01*
X135521296Y-98980472D01*
X135522581Y-98968568D01*
X135524379Y-98956996D01*
X135526691Y-98945759D01*
X135529516Y-98934855D01*
X135532856Y-98924285D01*
X135536708Y-98914049D01*
X135541075Y-98904147D01*
X135545955Y-98894579D01*
X135551348Y-98885345D01*
X135557255Y-98876445D01*
X135563675Y-98867880D01*
X135570608Y-98859648D01*
X135578055Y-98851751D01*
X135586015Y-98844188D01*
X135593683Y-98838322D01*
X135602712Y-98832224D01*
X135613102Y-98825894D01*
X135624853Y-98819333D01*
X135637965Y-98812541D01*
X135652438Y-98805518D01*
X135668272Y-98798263D01*
X135685466Y-98790777D01*
X135704022Y-98783061D01*
X135723938Y-98775113D01*
X135767855Y-98758524D01*
X135817216Y-98741011D01*
X135872022Y-98722575D01*
X135891694Y-98715292D01*
X135910441Y-98707419D01*
X135928264Y-98698956D01*
X135945162Y-98689902D01*
X135961135Y-98680257D01*
X135976184Y-98670023D01*
X135990309Y-98659197D01*
X136003508Y-98647781D01*
X136015783Y-98635774D01*
X136027134Y-98623177D01*
X136037560Y-98609988D01*
X136047061Y-98596209D01*
X136055638Y-98581838D01*
X136063290Y-98566876D01*
X136070018Y-98551323D01*
X136075822Y-98535178D01*
X136079406Y-98525306D01*
X136082758Y-98514585D01*
X136085880Y-98503017D01*
X136088770Y-98490601D01*
X136091429Y-98477337D01*
X136093856Y-98463225D01*
X136096052Y-98448265D01*
X136098017Y-98432458D01*
X136099751Y-98415803D01*
X136101254Y-98398301D01*
X136102525Y-98379952D01*
X136103565Y-98360754D01*
X136104952Y-98319818D01*
X136105414Y-98275493D01*
X136105424Y-98275493D01*
X136105424Y-95790275D01*
X136104730Y-95759252D01*
X136103471Y-95729461D01*
X136101647Y-95700903D01*
X136099258Y-95673578D01*
X136096305Y-95647485D01*
X136092786Y-95622624D01*
X136088702Y-95598997D01*
X136084053Y-95576602D01*
X136078839Y-95555440D01*
X136073061Y-95535510D01*
X136066717Y-95516813D01*
X136059809Y-95499349D01*
X136052335Y-95483118D01*
X136044297Y-95468120D01*
X136035694Y-95454354D01*
X136026526Y-95441821D01*
X136019373Y-95433346D01*
X136011886Y-95425179D01*
X136004066Y-95417321D01*
X135995911Y-95409770D01*
X135987423Y-95402529D01*
X135978601Y-95395595D01*
X135969446Y-95388970D01*
X135959956Y-95382653D01*
X135950133Y-95376644D01*
X135939976Y-95370944D01*
X135929485Y-95365551D01*
X135918660Y-95360467D01*
X135907501Y-95355691D01*
X135896009Y-95351223D01*
X135884182Y-95347063D01*
X135872022Y-95343211D01*
X135727378Y-95300468D01*
X135702300Y-95292211D01*
X135678840Y-95283056D01*
X135656997Y-95273001D01*
X135636773Y-95262048D01*
X135618166Y-95250196D01*
X135609470Y-95243933D01*
X135601178Y-95237445D01*
X135593290Y-95230732D01*
X135585807Y-95223795D01*
X135578728Y-95216633D01*
X135572054Y-95209246D01*
X135565784Y-95201635D01*
X135559919Y-95193799D01*
X135554458Y-95185738D01*
X135549402Y-95177453D01*
X135544750Y-95168943D01*
X135540503Y-95160208D01*
X135536660Y-95151249D01*
X135533222Y-95142065D01*
X135530188Y-95132656D01*
X135527559Y-95123022D01*
X135525334Y-95113164D01*
X135523514Y-95103082D01*
X135522098Y-95092774D01*
X135521087Y-95082242D01*
X135520278Y-95060504D01*
X135520586Y-95047483D01*
X135521510Y-95034718D01*
X135523051Y-95022209D01*
X135525208Y-95009958D01*
X135527981Y-94997963D01*
X135531371Y-94986225D01*
X135535377Y-94974744D01*
X135540000Y-94963520D01*
X135545239Y-94952553D01*
X135551094Y-94941844D01*
X135557566Y-94931391D01*
X135564655Y-94921196D01*
X135572360Y-94911258D01*
X135580682Y-94901577D01*
X135589620Y-94892153D01*
X135599175Y-94882987D01*
X135611374Y-94871842D01*
X135624138Y-94861415D01*
X135637467Y-94851708D01*
X135651360Y-94842719D01*
X135665819Y-94834449D01*
X135680843Y-94826898D01*
X135696432Y-94820066D01*
X135712586Y-94813953D01*
X135729305Y-94808559D01*
X135746590Y-94803885D01*
X135764439Y-94799929D01*
X135782853Y-94796693D01*
X135801832Y-94794175D01*
X135821377Y-94792377D01*
X135841486Y-94791298D01*
X135862161Y-94790939D01*
X135884039Y-94791195D01*
X135908589Y-94791965D01*
X135935812Y-94793248D01*
X135965706Y-94795044D01*
X135998271Y-94797354D01*
X136033508Y-94800176D01*
X136111995Y-94807361D01*
X136157041Y-94811216D01*
X136203422Y-94814557D01*
X136251140Y-94817383D01*
X136300193Y-94819694D01*
X136350582Y-94821492D01*
X136402306Y-94822776D01*
X136455367Y-94823546D01*
X136509763Y-94823802D01*
X136617214Y-94822776D01*
X136719324Y-94819694D01*
X136768377Y-94817383D01*
X136816094Y-94814557D01*
X136862475Y-94811216D01*
X136907521Y-94807361D01*
X136985802Y-94800176D01*
X137052987Y-94795044D01*
X137109076Y-94791965D01*
X137132958Y-94791195D01*
X137154065Y-94790939D01*
X137177527Y-94791362D01*
G37*
G36*
X134800300Y-94788679D02*
G01*
X134849456Y-94791800D01*
X134895222Y-94797001D01*
X134937597Y-94804282D01*
X134976583Y-94813644D01*
X135012178Y-94825086D01*
X135044383Y-94838608D01*
X135073198Y-94854210D01*
X135086334Y-94862791D01*
X135098623Y-94871892D01*
X135110064Y-94881514D01*
X135120657Y-94891655D01*
X135130403Y-94902316D01*
X135139302Y-94913497D01*
X135147353Y-94925198D01*
X135154557Y-94937419D01*
X135160913Y-94950160D01*
X135166421Y-94963421D01*
X135171082Y-94977202D01*
X135174896Y-94991502D01*
X135177862Y-95006323D01*
X135179981Y-95021664D01*
X135181252Y-95037524D01*
X135181676Y-95053905D01*
X135181406Y-95066493D01*
X135180598Y-95078772D01*
X135179250Y-95090742D01*
X135177363Y-95102403D01*
X135174936Y-95113756D01*
X135171971Y-95124800D01*
X135168466Y-95135536D01*
X135164421Y-95145963D01*
X135159838Y-95156082D01*
X135154715Y-95165892D01*
X135149053Y-95175394D01*
X135142851Y-95184587D01*
X135136110Y-95193473D01*
X135128829Y-95202050D01*
X135121009Y-95210319D01*
X135112649Y-95218280D01*
X135104995Y-95225316D01*
X135096006Y-95232455D01*
X135085681Y-95239696D01*
X135074021Y-95247041D01*
X135061026Y-95254488D01*
X135046696Y-95262038D01*
X135031030Y-95269690D01*
X135014028Y-95277446D01*
X134995691Y-95285305D01*
X134976019Y-95293266D01*
X134955012Y-95301330D01*
X134932669Y-95309497D01*
X134908990Y-95317766D01*
X134883976Y-95326139D01*
X134857627Y-95334614D01*
X134829942Y-95343192D01*
X134810653Y-95349319D01*
X134792239Y-95356190D01*
X134774697Y-95363807D01*
X134758029Y-95372167D01*
X134742235Y-95381273D01*
X134727313Y-95391123D01*
X134713265Y-95401719D01*
X134700091Y-95413059D01*
X134687789Y-95425143D01*
X134676360Y-95437973D01*
X134665805Y-95451547D01*
X134656122Y-95465866D01*
X134647313Y-95480930D01*
X134639377Y-95496738D01*
X134632313Y-95513291D01*
X134626122Y-95530589D01*
X134622540Y-95540462D01*
X134619189Y-95551182D01*
X134616069Y-95562749D01*
X134613180Y-95575164D01*
X134610522Y-95588427D01*
X134608095Y-95602538D01*
X134605900Y-95617496D01*
X134603935Y-95633302D01*
X134602202Y-95649956D01*
X134600699Y-95667458D01*
X134599428Y-95685808D01*
X134598388Y-95705005D01*
X134597002Y-95745944D01*
X134596539Y-95790275D01*
X134596539Y-98275493D01*
X134597233Y-98306889D01*
X134598492Y-98336975D01*
X134600315Y-98365751D01*
X134602703Y-98393217D01*
X134605657Y-98419373D01*
X134609175Y-98444220D01*
X134613258Y-98467757D01*
X134617906Y-98489984D01*
X134623120Y-98510901D01*
X134628898Y-98530508D01*
X134635242Y-98548806D01*
X134642150Y-98565794D01*
X134649624Y-98581472D01*
X134657663Y-98595840D01*
X134666267Y-98608898D01*
X134675437Y-98620647D01*
X134682590Y-98628749D01*
X134690077Y-98636621D01*
X134697897Y-98644262D01*
X134706052Y-98651671D01*
X134714540Y-98658849D01*
X134723362Y-98665796D01*
X134732517Y-98672512D01*
X134742007Y-98678997D01*
X134751830Y-98685251D01*
X134761987Y-98691274D01*
X134772478Y-98697065D01*
X134783303Y-98702626D01*
X134794462Y-98707955D01*
X134805955Y-98713053D01*
X134817781Y-98717920D01*
X134829942Y-98722556D01*
X134974576Y-98768581D01*
X134999655Y-98777583D01*
X135023117Y-98787329D01*
X135044960Y-98797821D01*
X135065185Y-98809057D01*
X135083792Y-98821037D01*
X135100780Y-98833763D01*
X135116151Y-98847233D01*
X135123229Y-98854247D01*
X135129903Y-98861447D01*
X135136173Y-98868834D01*
X135142038Y-98876406D01*
X135147498Y-98884165D01*
X135152554Y-98892110D01*
X135157206Y-98900241D01*
X135161452Y-98908558D01*
X135165295Y-98917061D01*
X135168733Y-98925750D01*
X135171766Y-98934626D01*
X135174395Y-98943687D01*
X135176620Y-98952935D01*
X135178440Y-98962368D01*
X135179856Y-98971988D01*
X135180867Y-98981794D01*
X135181676Y-99001964D01*
X135181368Y-99014998D01*
X135180443Y-99027802D01*
X135178903Y-99040374D01*
X135176746Y-99052715D01*
X135173973Y-99064825D01*
X135170583Y-99076704D01*
X135166577Y-99088351D01*
X135161955Y-99099768D01*
X135156716Y-99110953D01*
X135150862Y-99121908D01*
X135144390Y-99132631D01*
X135137303Y-99143123D01*
X135129599Y-99153384D01*
X135121278Y-99163414D01*
X135112341Y-99173213D01*
X135102788Y-99182781D01*
X135090975Y-99193926D01*
X135078545Y-99204353D01*
X135065499Y-99214060D01*
X135051837Y-99223049D01*
X135037558Y-99231319D01*
X135022662Y-99238870D01*
X135007150Y-99245702D01*
X134991022Y-99251815D01*
X134974277Y-99257208D01*
X134956916Y-99261883D01*
X134938938Y-99265839D01*
X134920344Y-99269075D01*
X134901133Y-99271593D01*
X134881306Y-99273391D01*
X134860863Y-99274470D01*
X134839803Y-99274829D01*
X134818693Y-99274572D01*
X134794809Y-99273800D01*
X134768152Y-99272514D01*
X134738721Y-99270714D01*
X134706517Y-99268401D01*
X134671538Y-99265576D01*
X134593259Y-99258388D01*
X134548672Y-99254539D01*
X134502032Y-99251203D01*
X134453336Y-99248381D01*
X134402587Y-99246071D01*
X134349784Y-99244275D01*
X134294926Y-99242992D01*
X134238015Y-99242222D01*
X134179049Y-99241966D01*
X134064818Y-99242992D01*
X133958802Y-99246071D01*
X133908875Y-99248381D01*
X133861002Y-99251203D01*
X133815184Y-99254539D01*
X133771420Y-99258388D01*
X133693146Y-99265576D01*
X133625965Y-99270714D01*
X133569875Y-99273800D01*
X133545990Y-99274572D01*
X133524876Y-99274829D01*
X133501802Y-99274392D01*
X133479421Y-99273082D01*
X133457733Y-99270899D01*
X133436739Y-99267842D01*
X133416438Y-99263912D01*
X133396830Y-99259108D01*
X133377916Y-99253431D01*
X133359695Y-99246882D01*
X133342168Y-99239459D01*
X133325334Y-99231163D01*
X133309193Y-99221994D01*
X133293745Y-99211953D01*
X133278991Y-99201038D01*
X133264930Y-99189251D01*
X133251563Y-99176591D01*
X133238889Y-99163059D01*
X133231722Y-99153966D01*
X133225018Y-99144771D01*
X133218777Y-99135474D01*
X133212998Y-99126073D01*
X133207681Y-99116570D01*
X133202827Y-99106964D01*
X133198435Y-99097255D01*
X133194506Y-99087444D01*
X133191039Y-99077530D01*
X133188034Y-99067514D01*
X133185491Y-99057395D01*
X133183411Y-99047174D01*
X133181793Y-99036850D01*
X133180638Y-99026424D01*
X133179944Y-99015895D01*
X133179713Y-99005264D01*
X133179983Y-98993463D01*
X133180792Y-98981894D01*
X133182140Y-98970555D01*
X133184028Y-98959448D01*
X133186455Y-98948572D01*
X133189421Y-98937927D01*
X133192927Y-98927513D01*
X133196972Y-98917330D01*
X133201557Y-98907378D01*
X133206681Y-98897658D01*
X133212344Y-98888168D01*
X133218546Y-98878910D01*
X133225288Y-98869883D01*
X133232569Y-98861087D01*
X133240390Y-98852522D01*
X133248750Y-98844188D01*
X133256402Y-98837162D01*
X133265390Y-98830059D01*
X133275714Y-98822880D01*
X133287373Y-98815624D01*
X133300368Y-98808291D01*
X133314699Y-98800882D01*
X133330365Y-98793396D01*
X133347367Y-98785833D01*
X133365704Y-98778193D01*
X133385377Y-98770476D01*
X133406385Y-98762682D01*
X133428729Y-98754811D01*
X133452408Y-98746864D01*
X133477422Y-98738838D01*
X133503772Y-98730736D01*
X133531457Y-98722556D01*
X133550743Y-98716044D01*
X133569157Y-98708839D01*
X133586698Y-98700940D01*
X133603365Y-98692348D01*
X133619159Y-98683062D01*
X133634080Y-98673083D01*
X133648128Y-98662411D01*
X133661303Y-98651045D01*
X133673605Y-98638986D01*
X133685033Y-98626234D01*
X133695589Y-98612788D01*
X133705271Y-98598649D01*
X133714080Y-98583817D01*
X133722015Y-98568291D01*
X133729077Y-98552072D01*
X133735267Y-98535159D01*
X133738851Y-98525287D01*
X133742203Y-98514566D01*
X133745325Y-98502998D01*
X133748215Y-98490582D01*
X133750873Y-98477318D01*
X133753301Y-98463206D01*
X133755497Y-98448246D01*
X133757462Y-98432439D01*
X133759196Y-98415784D01*
X133760698Y-98398282D01*
X133761970Y-98379932D01*
X133763010Y-98360735D01*
X133764397Y-98319799D01*
X133764859Y-98275474D01*
X133764859Y-96526626D01*
X132637311Y-98926357D01*
X132616508Y-98969660D01*
X132596835Y-99009162D01*
X132578292Y-99044862D01*
X132560879Y-99076761D01*
X132544596Y-99104858D01*
X132529443Y-99129153D01*
X132515421Y-99149647D01*
X132502528Y-99166339D01*
X132490495Y-99179473D01*
X132478230Y-99191760D01*
X132465735Y-99203200D01*
X132453009Y-99213793D01*
X132440052Y-99223538D01*
X132426864Y-99232436D01*
X132413445Y-99240487D01*
X132399795Y-99247690D01*
X132385914Y-99254046D01*
X132371802Y-99259555D01*
X132357458Y-99264216D01*
X132342884Y-99268030D01*
X132328079Y-99270996D01*
X132313043Y-99273115D01*
X132297775Y-99274386D01*
X132282277Y-99274810D01*
X132270832Y-99274544D01*
X132259510Y-99273744D01*
X132248309Y-99272412D01*
X132237230Y-99270547D01*
X132226273Y-99268149D01*
X132215439Y-99265218D01*
X132204726Y-99261755D01*
X132194136Y-99257758D01*
X132183667Y-99253229D01*
X132173320Y-99248166D01*
X132163096Y-99242571D01*
X132152993Y-99236443D01*
X132143012Y-99229782D01*
X132133154Y-99222588D01*
X132123417Y-99214861D01*
X132113802Y-99206601D01*
X132104309Y-99197808D01*
X132094938Y-99188483D01*
X132076562Y-99168232D01*
X132058674Y-99145850D01*
X132041274Y-99121337D01*
X132024361Y-99094691D01*
X132007936Y-99065914D01*
X131991998Y-99035005D01*
X131976548Y-99001964D01*
X130881883Y-96526626D01*
X130881883Y-98275474D01*
X130882575Y-98306870D01*
X130883832Y-98336956D01*
X130885655Y-98365733D01*
X130888042Y-98393201D01*
X130890995Y-98419359D01*
X130894513Y-98444207D01*
X130898597Y-98467746D01*
X130903245Y-98489974D01*
X130908458Y-98510893D01*
X130914237Y-98530502D01*
X130920580Y-98548802D01*
X130927488Y-98565791D01*
X130934961Y-98581470D01*
X130943000Y-98595839D01*
X130951603Y-98608898D01*
X130960770Y-98620647D01*
X130967924Y-98629135D01*
X130975411Y-98637341D01*
X130983232Y-98645264D01*
X130991387Y-98652905D01*
X130999876Y-98660263D01*
X131008698Y-98667339D01*
X131017855Y-98674132D01*
X131027345Y-98680642D01*
X131037170Y-98686871D01*
X131047328Y-98692816D01*
X131057819Y-98698479D01*
X131068645Y-98703860D01*
X131079804Y-98708958D01*
X131091297Y-98713773D01*
X131103124Y-98718306D01*
X131115285Y-98722556D01*
X131259919Y-98768562D01*
X131284999Y-98777564D01*
X131308460Y-98787310D01*
X131330303Y-98797802D01*
X131350528Y-98809038D01*
X131369135Y-98821019D01*
X131386123Y-98833745D01*
X131401494Y-98847215D01*
X131408572Y-98854230D01*
X131415246Y-98861430D01*
X131421516Y-98868817D01*
X131427381Y-98876390D01*
X131432841Y-98884150D01*
X131437897Y-98892095D01*
X131442549Y-98900227D01*
X131446796Y-98908545D01*
X131450638Y-98917049D01*
X131454076Y-98925739D01*
X131457110Y-98934616D01*
X131459739Y-98943678D01*
X131461963Y-98952927D01*
X131463783Y-98962362D01*
X131465199Y-98971983D01*
X131466210Y-98981791D01*
X131467019Y-99001964D01*
X131466711Y-99014998D01*
X131465786Y-99027802D01*
X131464245Y-99040374D01*
X131462088Y-99052715D01*
X131459314Y-99064825D01*
X131455924Y-99076704D01*
X131451917Y-99088351D01*
X131447295Y-99099768D01*
X131442056Y-99110953D01*
X131436201Y-99121908D01*
X131429729Y-99132631D01*
X131422642Y-99143123D01*
X131414938Y-99153384D01*
X131406619Y-99163414D01*
X131397683Y-99173213D01*
X131388131Y-99182781D01*
X131376291Y-99193923D01*
X131363782Y-99204346D01*
X131350607Y-99214052D01*
X131336763Y-99223038D01*
X131322252Y-99231306D01*
X131307073Y-99238855D01*
X131291227Y-99245686D01*
X131274713Y-99251798D01*
X131257531Y-99257191D01*
X131239682Y-99261865D01*
X131221165Y-99265820D01*
X131201980Y-99269056D01*
X131182128Y-99271574D01*
X131161608Y-99273372D01*
X131140421Y-99274450D01*
X131118565Y-99274810D01*
X131094631Y-99274554D01*
X131068846Y-99273784D01*
X131041212Y-99272501D01*
X131011729Y-99270705D01*
X130980396Y-99268395D01*
X130947214Y-99265573D01*
X130912183Y-99262237D01*
X130875302Y-99258388D01*
X130800925Y-99251200D01*
X130765894Y-99248374D01*
X130732301Y-99246062D01*
X130700147Y-99244262D01*
X130669432Y-99242976D01*
X130640155Y-99242204D01*
X130612317Y-99241947D01*
X130585247Y-99242204D01*
X130556637Y-99242976D01*
X130526487Y-99244262D01*
X130494797Y-99246062D01*
X130461565Y-99248374D01*
X130426793Y-99251200D01*
X130390478Y-99254538D01*
X130352622Y-99258388D01*
X130280916Y-99265573D01*
X130217018Y-99270705D01*
X130187997Y-99272501D01*
X130160928Y-99273784D01*
X130135812Y-99274554D01*
X130112649Y-99274810D01*
X130088392Y-99274374D01*
X130064931Y-99273064D01*
X130042267Y-99270881D01*
X130020399Y-99267825D01*
X129999327Y-99263896D01*
X129979051Y-99259094D01*
X129959571Y-99253419D01*
X129940887Y-99246870D01*
X129923000Y-99239448D01*
X129905909Y-99231153D01*
X129889614Y-99221984D01*
X129874115Y-99211942D01*
X129859412Y-99201026D01*
X129845505Y-99189238D01*
X129832395Y-99176575D01*
X129820081Y-99163039D01*
X129812916Y-99153938D01*
X129806213Y-99144707D01*
X129799973Y-99135347D01*
X129794194Y-99125858D01*
X129788878Y-99116240D01*
X129784023Y-99106493D01*
X129779631Y-99096618D01*
X129775701Y-99086614D01*
X129772234Y-99076482D01*
X129769228Y-99066221D01*
X129766685Y-99055832D01*
X129764605Y-99045315D01*
X129762986Y-99034669D01*
X129761830Y-99023895D01*
X129761136Y-99012994D01*
X129760905Y-99001964D01*
X129761162Y-98989791D01*
X129761933Y-98977926D01*
X129763217Y-98966369D01*
X129765016Y-98955121D01*
X129767328Y-98944181D01*
X129770153Y-98933549D01*
X129773492Y-98923226D01*
X129777345Y-98913210D01*
X129781712Y-98903503D01*
X129786591Y-98894103D01*
X129791985Y-98885011D01*
X129797891Y-98876227D01*
X129804312Y-98867751D01*
X129811245Y-98859583D01*
X129818692Y-98851722D01*
X129826651Y-98844169D01*
X129834318Y-98838303D01*
X129843346Y-98832205D01*
X129853735Y-98825875D01*
X129865485Y-98819314D01*
X129878596Y-98812522D01*
X129893067Y-98805498D01*
X129908901Y-98798243D01*
X129926095Y-98790756D01*
X129944650Y-98783038D01*
X129964566Y-98775089D01*
X130008482Y-98758497D01*
X130057843Y-98740979D01*
X130112649Y-98722537D01*
X130132321Y-98715257D01*
X130151069Y-98707386D01*
X130168892Y-98698925D01*
X130185791Y-98689872D01*
X130201765Y-98680228D01*
X130216815Y-98669994D01*
X130230940Y-98659169D01*
X130244140Y-98647753D01*
X130256416Y-98635746D01*
X130267768Y-98623148D01*
X130278194Y-98609960D01*
X130287697Y-98596181D01*
X130296274Y-98581812D01*
X130303927Y-98566851D01*
X130310655Y-98551301D01*
X130316459Y-98535159D01*
X130320043Y-98525287D01*
X130323395Y-98514566D01*
X130326517Y-98502998D01*
X130329407Y-98490581D01*
X130332065Y-98477317D01*
X130334493Y-98463205D01*
X130336689Y-98448245D01*
X130338654Y-98432437D01*
X130340388Y-98415781D01*
X130341890Y-98398278D01*
X130343162Y-98379926D01*
X130344202Y-98360727D01*
X130345589Y-98319786D01*
X130346051Y-98275455D01*
X130346051Y-95790256D01*
X130345357Y-95759233D01*
X130344098Y-95729442D01*
X130342275Y-95700884D01*
X130339886Y-95673559D01*
X130336932Y-95647466D01*
X130333413Y-95622605D01*
X130329329Y-95598978D01*
X130324680Y-95576583D01*
X130319467Y-95555420D01*
X130313688Y-95535491D01*
X130307345Y-95516794D01*
X130300436Y-95499330D01*
X130292963Y-95483099D01*
X130284925Y-95468100D01*
X130276322Y-95454335D01*
X130267154Y-95441802D01*
X130260001Y-95433327D01*
X130252514Y-95425159D01*
X130244693Y-95417300D01*
X130236539Y-95409748D01*
X130228051Y-95402505D01*
X130219229Y-95395570D01*
X130210073Y-95388943D01*
X130200584Y-95382624D01*
X130190760Y-95376614D01*
X130180603Y-95370912D01*
X130170112Y-95365518D01*
X130159287Y-95360432D01*
X130148129Y-95355655D01*
X130136636Y-95351186D01*
X130124809Y-95347025D01*
X130112649Y-95343173D01*
X129968015Y-95297168D01*
X129942935Y-95289297D01*
X129919473Y-95280476D01*
X129897630Y-95270704D01*
X129877404Y-95259982D01*
X129867898Y-95254264D01*
X129858797Y-95248309D01*
X129850100Y-95242117D01*
X129841807Y-95235686D01*
X129833919Y-95229019D01*
X129826436Y-95222113D01*
X129819357Y-95214970D01*
X129812683Y-95207589D01*
X129806413Y-95199971D01*
X129800547Y-95192115D01*
X129795086Y-95184022D01*
X129790030Y-95175691D01*
X129785378Y-95167122D01*
X129781131Y-95158316D01*
X129777288Y-95149272D01*
X129773849Y-95139991D01*
X129770816Y-95130472D01*
X129768186Y-95120715D01*
X129765962Y-95110721D01*
X129764141Y-95100489D01*
X129762725Y-95090019D01*
X129761714Y-95079312D01*
X129760905Y-95057185D01*
X129761339Y-95040601D01*
X129762639Y-95024543D01*
X129764806Y-95009012D01*
X129767839Y-94994007D01*
X129771740Y-94979529D01*
X129776507Y-94965577D01*
X129782141Y-94952152D01*
X129788641Y-94939253D01*
X129796009Y-94926882D01*
X129804243Y-94915036D01*
X129813344Y-94903717D01*
X129823312Y-94892925D01*
X129834146Y-94882659D01*
X129845848Y-94872920D01*
X129858416Y-94863707D01*
X129871851Y-94855021D01*
X129886153Y-94846861D01*
X129901321Y-94839228D01*
X129917357Y-94832121D01*
X129934259Y-94825541D01*
X129952028Y-94819487D01*
X129970664Y-94813959D01*
X129990166Y-94808958D01*
X130010536Y-94804484D01*
X130031772Y-94800536D01*
X130053875Y-94797114D01*
X130076845Y-94794219D01*
X130100682Y-94791850D01*
X130125385Y-94790008D01*
X130150956Y-94788692D01*
X130177393Y-94787902D01*
X130204697Y-94787639D01*
X130320882Y-94788358D01*
X130426178Y-94790515D01*
X130520585Y-94794109D01*
X130604102Y-94799143D01*
X130676730Y-94805614D01*
X130738469Y-94813525D01*
X130789318Y-94822874D01*
X130829278Y-94833663D01*
X130845920Y-94839337D01*
X130862152Y-94845679D01*
X130877973Y-94852689D01*
X130893382Y-94860367D01*
X130908381Y-94868713D01*
X130922969Y-94877727D01*
X130937146Y-94887410D01*
X130950912Y-94897760D01*
X130964267Y-94908778D01*
X130977210Y-94920464D01*
X130989743Y-94932817D01*
X131001865Y-94945839D01*
X131013575Y-94959528D01*
X131024874Y-94973884D01*
X131035762Y-94988908D01*
X131046239Y-95004600D01*
X131055279Y-95019853D01*
X131065964Y-95039318D01*
X131078292Y-95062996D01*
X131092264Y-95090886D01*
X131107880Y-95122988D01*
X131125140Y-95159302D01*
X131144043Y-95199827D01*
X131164590Y-95244563D01*
X132440062Y-98061813D01*
X133764850Y-95300468D01*
X133798646Y-95232001D01*
X133831005Y-95169594D01*
X133861927Y-95113248D01*
X133891410Y-95062962D01*
X133919456Y-95018738D01*
X133946064Y-94980574D01*
X133958828Y-94963765D01*
X133971232Y-94948472D01*
X133983277Y-94934694D01*
X133994962Y-94922431D01*
X134009626Y-94908449D01*
X134025677Y-94895262D01*
X134043115Y-94882872D01*
X134061940Y-94871277D01*
X134082152Y-94860478D01*
X134103751Y-94850475D01*
X134126736Y-94841268D01*
X134151109Y-94832857D01*
X134176869Y-94825243D01*
X134204015Y-94818425D01*
X134232549Y-94812402D01*
X134262469Y-94807177D01*
X134293776Y-94802747D01*
X134326471Y-94799115D01*
X134360552Y-94796278D01*
X134396020Y-94794238D01*
X134477173Y-94791348D01*
X134562846Y-94789286D01*
X134653040Y-94788051D01*
X134747754Y-94787639D01*
X134800300Y-94788679D01*
G37*
D11*
X172511727Y-89910828D02*
X171654584Y-89910828D01*
X172083155Y-89910828D02*
X172083155Y-88410828D01*
X172083155Y-88410828D02*
X171940298Y-88625114D01*
X171940298Y-88625114D02*
X171797441Y-88767971D01*
X171797441Y-88767971D02*
X171654584Y-88839400D01*
X173011726Y-88410828D02*
X174011726Y-88410828D01*
X174011726Y-88410828D02*
X173368869Y-89910828D01*
X174583154Y-89339400D02*
X175726012Y-89339400D01*
X176368869Y-88553685D02*
X176440297Y-88482257D01*
X176440297Y-88482257D02*
X176583155Y-88410828D01*
X176583155Y-88410828D02*
X176940297Y-88410828D01*
X176940297Y-88410828D02*
X177083155Y-88482257D01*
X177083155Y-88482257D02*
X177154583Y-88553685D01*
X177154583Y-88553685D02*
X177226012Y-88696542D01*
X177226012Y-88696542D02*
X177226012Y-88839400D01*
X177226012Y-88839400D02*
X177154583Y-89053685D01*
X177154583Y-89053685D02*
X176297440Y-89910828D01*
X176297440Y-89910828D02*
X177226012Y-89910828D01*
X178154583Y-88410828D02*
X178297440Y-88410828D01*
X178297440Y-88410828D02*
X178440297Y-88482257D01*
X178440297Y-88482257D02*
X178511726Y-88553685D01*
X178511726Y-88553685D02*
X178583154Y-88696542D01*
X178583154Y-88696542D02*
X178654583Y-88982257D01*
X178654583Y-88982257D02*
X178654583Y-89339400D01*
X178654583Y-89339400D02*
X178583154Y-89625114D01*
X178583154Y-89625114D02*
X178511726Y-89767971D01*
X178511726Y-89767971D02*
X178440297Y-89839400D01*
X178440297Y-89839400D02*
X178297440Y-89910828D01*
X178297440Y-89910828D02*
X178154583Y-89910828D01*
X178154583Y-89910828D02*
X178011726Y-89839400D01*
X178011726Y-89839400D02*
X177940297Y-89767971D01*
X177940297Y-89767971D02*
X177868868Y-89625114D01*
X177868868Y-89625114D02*
X177797440Y-89339400D01*
X177797440Y-89339400D02*
X177797440Y-88982257D01*
X177797440Y-88982257D02*
X177868868Y-88696542D01*
X177868868Y-88696542D02*
X177940297Y-88553685D01*
X177940297Y-88553685D02*
X178011726Y-88482257D01*
X178011726Y-88482257D02*
X178154583Y-88410828D01*
X188708918Y-88553685D02*
X188780346Y-88482257D01*
X188780346Y-88482257D02*
X188923204Y-88410828D01*
X188923204Y-88410828D02*
X189280346Y-88410828D01*
X189280346Y-88410828D02*
X189423204Y-88482257D01*
X189423204Y-88482257D02*
X189494632Y-88553685D01*
X189494632Y-88553685D02*
X189566061Y-88696542D01*
X189566061Y-88696542D02*
X189566061Y-88839400D01*
X189566061Y-88839400D02*
X189494632Y-89053685D01*
X189494632Y-89053685D02*
X188637489Y-89910828D01*
X188637489Y-89910828D02*
X189566061Y-89910828D01*
X190994632Y-89910828D02*
X190137489Y-89910828D01*
X190566060Y-89910828D02*
X190566060Y-88410828D01*
X190566060Y-88410828D02*
X190423203Y-88625114D01*
X190423203Y-88625114D02*
X190280346Y-88767971D01*
X190280346Y-88767971D02*
X190137489Y-88839400D01*
X191637488Y-89339400D02*
X192780346Y-89339400D01*
X193423203Y-88553685D02*
X193494631Y-88482257D01*
X193494631Y-88482257D02*
X193637489Y-88410828D01*
X193637489Y-88410828D02*
X193994631Y-88410828D01*
X193994631Y-88410828D02*
X194137489Y-88482257D01*
X194137489Y-88482257D02*
X194208917Y-88553685D01*
X194208917Y-88553685D02*
X194280346Y-88696542D01*
X194280346Y-88696542D02*
X194280346Y-88839400D01*
X194280346Y-88839400D02*
X194208917Y-89053685D01*
X194208917Y-89053685D02*
X193351774Y-89910828D01*
X193351774Y-89910828D02*
X194280346Y-89910828D01*
X195566060Y-88910828D02*
X195566060Y-89910828D01*
X195208917Y-88339400D02*
X194851774Y-89410828D01*
X194851774Y-89410828D02*
X195780345Y-89410828D01*
X122705867Y-88410828D02*
X121991581Y-88410828D01*
X121991581Y-88410828D02*
X121920153Y-89125114D01*
X121920153Y-89125114D02*
X121991581Y-89053685D01*
X121991581Y-89053685D02*
X122134439Y-88982257D01*
X122134439Y-88982257D02*
X122491581Y-88982257D01*
X122491581Y-88982257D02*
X122634439Y-89053685D01*
X122634439Y-89053685D02*
X122705867Y-89125114D01*
X122705867Y-89125114D02*
X122777296Y-89267971D01*
X122777296Y-89267971D02*
X122777296Y-89625114D01*
X122777296Y-89625114D02*
X122705867Y-89767971D01*
X122705867Y-89767971D02*
X122634439Y-89839400D01*
X122634439Y-89839400D02*
X122491581Y-89910828D01*
X122491581Y-89910828D02*
X122134439Y-89910828D01*
X122134439Y-89910828D02*
X121991581Y-89839400D01*
X121991581Y-89839400D02*
X121920153Y-89767971D01*
X123420152Y-89339400D02*
X124563010Y-89339400D01*
X125491581Y-89053685D02*
X125348724Y-88982257D01*
X125348724Y-88982257D02*
X125277295Y-88910828D01*
X125277295Y-88910828D02*
X125205867Y-88767971D01*
X125205867Y-88767971D02*
X125205867Y-88696542D01*
X125205867Y-88696542D02*
X125277295Y-88553685D01*
X125277295Y-88553685D02*
X125348724Y-88482257D01*
X125348724Y-88482257D02*
X125491581Y-88410828D01*
X125491581Y-88410828D02*
X125777295Y-88410828D01*
X125777295Y-88410828D02*
X125920153Y-88482257D01*
X125920153Y-88482257D02*
X125991581Y-88553685D01*
X125991581Y-88553685D02*
X126063010Y-88696542D01*
X126063010Y-88696542D02*
X126063010Y-88767971D01*
X126063010Y-88767971D02*
X125991581Y-88910828D01*
X125991581Y-88910828D02*
X125920153Y-88982257D01*
X125920153Y-88982257D02*
X125777295Y-89053685D01*
X125777295Y-89053685D02*
X125491581Y-89053685D01*
X125491581Y-89053685D02*
X125348724Y-89125114D01*
X125348724Y-89125114D02*
X125277295Y-89196542D01*
X125277295Y-89196542D02*
X125205867Y-89339400D01*
X125205867Y-89339400D02*
X125205867Y-89625114D01*
X125205867Y-89625114D02*
X125277295Y-89767971D01*
X125277295Y-89767971D02*
X125348724Y-89839400D01*
X125348724Y-89839400D02*
X125491581Y-89910828D01*
X125491581Y-89910828D02*
X125777295Y-89910828D01*
X125777295Y-89910828D02*
X125920153Y-89839400D01*
X125920153Y-89839400D02*
X125991581Y-89767971D01*
X125991581Y-89767971D02*
X126063010Y-89625114D01*
X126063010Y-89625114D02*
X126063010Y-89339400D01*
X126063010Y-89339400D02*
X125991581Y-89196542D01*
X125991581Y-89196542D02*
X125920153Y-89125114D01*
X125920153Y-89125114D02*
X125777295Y-89053685D01*
X105722962Y-89910828D02*
X104865819Y-89910828D01*
X105294390Y-89910828D02*
X105294390Y-88410828D01*
X105294390Y-88410828D02*
X105151533Y-88625114D01*
X105151533Y-88625114D02*
X105008676Y-88767971D01*
X105008676Y-88767971D02*
X104865819Y-88839400D01*
X106365818Y-89339400D02*
X107508676Y-89339400D01*
X108865819Y-88910828D02*
X108865819Y-89910828D01*
X108508676Y-88339400D02*
X108151533Y-89410828D01*
X108151533Y-89410828D02*
X109080104Y-89410828D01*
X138403058Y-89910828D02*
X138688772Y-89910828D01*
X138688772Y-89910828D02*
X138831629Y-89839400D01*
X138831629Y-89839400D02*
X138903058Y-89767971D01*
X138903058Y-89767971D02*
X139045915Y-89553685D01*
X139045915Y-89553685D02*
X139117344Y-89267971D01*
X139117344Y-89267971D02*
X139117344Y-88696542D01*
X139117344Y-88696542D02*
X139045915Y-88553685D01*
X139045915Y-88553685D02*
X138974487Y-88482257D01*
X138974487Y-88482257D02*
X138831629Y-88410828D01*
X138831629Y-88410828D02*
X138545915Y-88410828D01*
X138545915Y-88410828D02*
X138403058Y-88482257D01*
X138403058Y-88482257D02*
X138331629Y-88553685D01*
X138331629Y-88553685D02*
X138260201Y-88696542D01*
X138260201Y-88696542D02*
X138260201Y-89053685D01*
X138260201Y-89053685D02*
X138331629Y-89196542D01*
X138331629Y-89196542D02*
X138403058Y-89267971D01*
X138403058Y-89267971D02*
X138545915Y-89339400D01*
X138545915Y-89339400D02*
X138831629Y-89339400D01*
X138831629Y-89339400D02*
X138974487Y-89267971D01*
X138974487Y-89267971D02*
X139045915Y-89196542D01*
X139045915Y-89196542D02*
X139117344Y-89053685D01*
X139760200Y-89339400D02*
X140903058Y-89339400D01*
X142403058Y-89910828D02*
X141545915Y-89910828D01*
X141974486Y-89910828D02*
X141974486Y-88410828D01*
X141974486Y-88410828D02*
X141831629Y-88625114D01*
X141831629Y-88625114D02*
X141688772Y-88767971D01*
X141688772Y-88767971D02*
X141545915Y-88839400D01*
X142974486Y-88553685D02*
X143045914Y-88482257D01*
X143045914Y-88482257D02*
X143188772Y-88410828D01*
X143188772Y-88410828D02*
X143545914Y-88410828D01*
X143545914Y-88410828D02*
X143688772Y-88482257D01*
X143688772Y-88482257D02*
X143760200Y-88553685D01*
X143760200Y-88553685D02*
X143831629Y-88696542D01*
X143831629Y-88696542D02*
X143831629Y-88839400D01*
X143831629Y-88839400D02*
X143760200Y-89053685D01*
X143760200Y-89053685D02*
X142903057Y-89910828D01*
X142903057Y-89910828D02*
X143831629Y-89910828D01*
X155457393Y-89910828D02*
X154600250Y-89910828D01*
X155028821Y-89910828D02*
X155028821Y-88410828D01*
X155028821Y-88410828D02*
X154885964Y-88625114D01*
X154885964Y-88625114D02*
X154743107Y-88767971D01*
X154743107Y-88767971D02*
X154600250Y-88839400D01*
X155957392Y-88410828D02*
X156885964Y-88410828D01*
X156885964Y-88410828D02*
X156385964Y-88982257D01*
X156385964Y-88982257D02*
X156600249Y-88982257D01*
X156600249Y-88982257D02*
X156743107Y-89053685D01*
X156743107Y-89053685D02*
X156814535Y-89125114D01*
X156814535Y-89125114D02*
X156885964Y-89267971D01*
X156885964Y-89267971D02*
X156885964Y-89625114D01*
X156885964Y-89625114D02*
X156814535Y-89767971D01*
X156814535Y-89767971D02*
X156743107Y-89839400D01*
X156743107Y-89839400D02*
X156600249Y-89910828D01*
X156600249Y-89910828D02*
X156171678Y-89910828D01*
X156171678Y-89910828D02*
X156028821Y-89839400D01*
X156028821Y-89839400D02*
X155957392Y-89767971D01*
X157528820Y-89339400D02*
X158671678Y-89339400D01*
X160171678Y-89910828D02*
X159314535Y-89910828D01*
X159743106Y-89910828D02*
X159743106Y-88410828D01*
X159743106Y-88410828D02*
X159600249Y-88625114D01*
X159600249Y-88625114D02*
X159457392Y-88767971D01*
X159457392Y-88767971D02*
X159314535Y-88839400D01*
X161457392Y-88410828D02*
X161171677Y-88410828D01*
X161171677Y-88410828D02*
X161028820Y-88482257D01*
X161028820Y-88482257D02*
X160957392Y-88553685D01*
X160957392Y-88553685D02*
X160814534Y-88767971D01*
X160814534Y-88767971D02*
X160743106Y-89053685D01*
X160743106Y-89053685D02*
X160743106Y-89625114D01*
X160743106Y-89625114D02*
X160814534Y-89767971D01*
X160814534Y-89767971D02*
X160885963Y-89839400D01*
X160885963Y-89839400D02*
X161028820Y-89910828D01*
X161028820Y-89910828D02*
X161314534Y-89910828D01*
X161314534Y-89910828D02*
X161457392Y-89839400D01*
X161457392Y-89839400D02*
X161528820Y-89767971D01*
X161528820Y-89767971D02*
X161600249Y-89625114D01*
X161600249Y-89625114D02*
X161600249Y-89267971D01*
X161600249Y-89267971D02*
X161528820Y-89125114D01*
X161528820Y-89125114D02*
X161457392Y-89053685D01*
X161457392Y-89053685D02*
X161314534Y-88982257D01*
X161314534Y-88982257D02*
X161028820Y-88982257D01*
X161028820Y-88982257D02*
X160885963Y-89053685D01*
X160885963Y-89053685D02*
X160814534Y-89125114D01*
X160814534Y-89125114D02*
X160743106Y-89267971D01*
%LPC*%
D12*
X112965000Y-93380000D03*
X187815000Y-93380000D03*
%LPD*%
M02*
