%TF.GenerationSoftware,KiCad,Pcbnew,8.0.1*%
%TF.CreationDate,2024-06-26T21:16:35+01:00*%
%TF.ProjectId,MINI_TRUNK_6_INSULATOR,4d494e49-5f54-4525-954e-4b5f365f494e,rev?*%
%TF.SameCoordinates,Original*%
%TF.FileFunction,Drillmap*%
%TF.FilePolarity,Positive*%
%FSLAX45Y45*%
G04 Gerber Fmt 4.5, Leading zero omitted, Abs format (unit mm)*
G04 Created by KiCad (PCBNEW 8.0.1) date 2024-06-26 21:16:35*
%MOMM*%
%LPD*%
G01*
G04 APERTURE LIST*
%ADD10C,0.050000*%
%ADD11C,0.200000*%
G04 APERTURE END LIST*
D10*
X19627500Y-10377000D02*
X10396500Y-10377000D01*
X20152500Y-8731000D02*
X19627500Y-10377000D01*
X9925500Y-8731000D02*
X10396500Y-10377000D01*
X9925500Y-8731000D02*
X20152500Y-8731000D01*
D11*
X10183777Y-10690984D02*
X10183777Y-10490984D01*
X10183777Y-10490984D02*
X10231396Y-10490984D01*
X10231396Y-10490984D02*
X10259967Y-10500508D01*
X10259967Y-10500508D02*
X10279015Y-10519555D01*
X10279015Y-10519555D02*
X10288539Y-10538603D01*
X10288539Y-10538603D02*
X10298063Y-10576698D01*
X10298063Y-10576698D02*
X10298063Y-10605270D01*
X10298063Y-10605270D02*
X10288539Y-10643365D01*
X10288539Y-10643365D02*
X10279015Y-10662412D01*
X10279015Y-10662412D02*
X10259967Y-10681460D01*
X10259967Y-10681460D02*
X10231396Y-10690984D01*
X10231396Y-10690984D02*
X10183777Y-10690984D01*
X10383777Y-10690984D02*
X10383777Y-10557650D01*
X10383777Y-10595746D02*
X10393301Y-10576698D01*
X10393301Y-10576698D02*
X10402824Y-10567174D01*
X10402824Y-10567174D02*
X10421872Y-10557650D01*
X10421872Y-10557650D02*
X10440920Y-10557650D01*
X10507586Y-10690984D02*
X10507586Y-10557650D01*
X10507586Y-10490984D02*
X10498063Y-10500508D01*
X10498063Y-10500508D02*
X10507586Y-10510031D01*
X10507586Y-10510031D02*
X10517110Y-10500508D01*
X10517110Y-10500508D02*
X10507586Y-10490984D01*
X10507586Y-10490984D02*
X10507586Y-10510031D01*
X10631396Y-10690984D02*
X10612348Y-10681460D01*
X10612348Y-10681460D02*
X10602824Y-10662412D01*
X10602824Y-10662412D02*
X10602824Y-10490984D01*
X10736158Y-10690984D02*
X10717110Y-10681460D01*
X10717110Y-10681460D02*
X10707586Y-10662412D01*
X10707586Y-10662412D02*
X10707586Y-10490984D01*
X10964729Y-10690984D02*
X10964729Y-10490984D01*
X10964729Y-10490984D02*
X11031396Y-10633841D01*
X11031396Y-10633841D02*
X11098063Y-10490984D01*
X11098063Y-10490984D02*
X11098063Y-10690984D01*
X11279015Y-10690984D02*
X11279015Y-10586222D01*
X11279015Y-10586222D02*
X11269491Y-10567174D01*
X11269491Y-10567174D02*
X11250443Y-10557650D01*
X11250443Y-10557650D02*
X11212348Y-10557650D01*
X11212348Y-10557650D02*
X11193301Y-10567174D01*
X11279015Y-10681460D02*
X11259967Y-10690984D01*
X11259967Y-10690984D02*
X11212348Y-10690984D01*
X11212348Y-10690984D02*
X11193301Y-10681460D01*
X11193301Y-10681460D02*
X11183777Y-10662412D01*
X11183777Y-10662412D02*
X11183777Y-10643365D01*
X11183777Y-10643365D02*
X11193301Y-10624317D01*
X11193301Y-10624317D02*
X11212348Y-10614793D01*
X11212348Y-10614793D02*
X11259967Y-10614793D01*
X11259967Y-10614793D02*
X11279015Y-10605270D01*
X11374253Y-10557650D02*
X11374253Y-10757650D01*
X11374253Y-10567174D02*
X11393301Y-10557650D01*
X11393301Y-10557650D02*
X11431396Y-10557650D01*
X11431396Y-10557650D02*
X11450443Y-10567174D01*
X11450443Y-10567174D02*
X11459967Y-10576698D01*
X11459967Y-10576698D02*
X11469491Y-10595746D01*
X11469491Y-10595746D02*
X11469491Y-10652889D01*
X11469491Y-10652889D02*
X11459967Y-10671936D01*
X11459967Y-10671936D02*
X11450443Y-10681460D01*
X11450443Y-10681460D02*
X11431396Y-10690984D01*
X11431396Y-10690984D02*
X11393301Y-10690984D01*
X11393301Y-10690984D02*
X11374253Y-10681460D01*
X11555205Y-10671936D02*
X11564729Y-10681460D01*
X11564729Y-10681460D02*
X11555205Y-10690984D01*
X11555205Y-10690984D02*
X11545682Y-10681460D01*
X11545682Y-10681460D02*
X11555205Y-10671936D01*
X11555205Y-10671936D02*
X11555205Y-10690984D01*
X11555205Y-10567174D02*
X11564729Y-10576698D01*
X11564729Y-10576698D02*
X11555205Y-10586222D01*
X11555205Y-10586222D02*
X11545682Y-10576698D01*
X11545682Y-10576698D02*
X11555205Y-10567174D01*
X11555205Y-10567174D02*
X11555205Y-10586222D01*
M02*
