%TF.GenerationSoftware,KiCad,Pcbnew,8.0.1*%
%TF.CreationDate,2024-08-12T23:30:26+01:00*%
%TF.ProjectId,MICRO_TRUNK_6_INSULATOR_BACK,4d494352-4f5f-4545-9255-4e4b5f365f49,rev?*%
%TF.SameCoordinates,Original*%
%TF.FileFunction,Drillmap*%
%TF.FilePolarity,Positive*%
%FSLAX45Y45*%
G04 Gerber Fmt 4.5, Leading zero omitted, Abs format (unit mm)*
G04 Created by KiCad (PCBNEW 8.0.1) date 2024-08-12 23:30:26*
%MOMM*%
%LPD*%
G01*
G04 APERTURE LIST*
%ADD10C,0.050000*%
%ADD11C,0.200000*%
%ADD12C,0.320000*%
G04 APERTURE END LIST*
D10*
X9238875Y-9230236D02*
X20202500Y-9230000D01*
X8981896Y-9487735D02*
G75*
G02*
X9238875Y-9230236I257504J-5D01*
G01*
X8981896Y-10715235D02*
X20460396Y-10715235D01*
X20460000Y-9486978D02*
X20460396Y-10715235D01*
X8981896Y-10715235D02*
X8981896Y-9487735D01*
X20202500Y-9230000D02*
G75*
G02*
X20460000Y-9486978I0J-257500D01*
G01*
D11*
D12*
X9262594Y-9812618D02*
X9582594Y-10132618D01*
X9582594Y-9812618D02*
X9262594Y-10132618D01*
X19859594Y-9812618D02*
X20179594Y-10132618D01*
X20179594Y-9812618D02*
X19859594Y-10132618D01*
D11*
X9240173Y-11029219D02*
X9240173Y-10829219D01*
X9240173Y-10829219D02*
X9287792Y-10829219D01*
X9287792Y-10829219D02*
X9316363Y-10838743D01*
X9316363Y-10838743D02*
X9335411Y-10857791D01*
X9335411Y-10857791D02*
X9344934Y-10876838D01*
X9344934Y-10876838D02*
X9354458Y-10914933D01*
X9354458Y-10914933D02*
X9354458Y-10943505D01*
X9354458Y-10943505D02*
X9344934Y-10981600D01*
X9344934Y-10981600D02*
X9335411Y-11000648D01*
X9335411Y-11000648D02*
X9316363Y-11019695D01*
X9316363Y-11019695D02*
X9287792Y-11029219D01*
X9287792Y-11029219D02*
X9240173Y-11029219D01*
X9440173Y-11029219D02*
X9440173Y-10895886D01*
X9440173Y-10933981D02*
X9449696Y-10914933D01*
X9449696Y-10914933D02*
X9459220Y-10905410D01*
X9459220Y-10905410D02*
X9478268Y-10895886D01*
X9478268Y-10895886D02*
X9497315Y-10895886D01*
X9563982Y-11029219D02*
X9563982Y-10895886D01*
X9563982Y-10829219D02*
X9554458Y-10838743D01*
X9554458Y-10838743D02*
X9563982Y-10848267D01*
X9563982Y-10848267D02*
X9573506Y-10838743D01*
X9573506Y-10838743D02*
X9563982Y-10829219D01*
X9563982Y-10829219D02*
X9563982Y-10848267D01*
X9687792Y-11029219D02*
X9668744Y-11019695D01*
X9668744Y-11019695D02*
X9659220Y-11000648D01*
X9659220Y-11000648D02*
X9659220Y-10829219D01*
X9792553Y-11029219D02*
X9773506Y-11019695D01*
X9773506Y-11019695D02*
X9763982Y-11000648D01*
X9763982Y-11000648D02*
X9763982Y-10829219D01*
X10021125Y-11029219D02*
X10021125Y-10829219D01*
X10021125Y-10829219D02*
X10087792Y-10972076D01*
X10087792Y-10972076D02*
X10154458Y-10829219D01*
X10154458Y-10829219D02*
X10154458Y-11029219D01*
X10335411Y-11029219D02*
X10335411Y-10924457D01*
X10335411Y-10924457D02*
X10325887Y-10905410D01*
X10325887Y-10905410D02*
X10306839Y-10895886D01*
X10306839Y-10895886D02*
X10268744Y-10895886D01*
X10268744Y-10895886D02*
X10249696Y-10905410D01*
X10335411Y-11019695D02*
X10316363Y-11029219D01*
X10316363Y-11029219D02*
X10268744Y-11029219D01*
X10268744Y-11029219D02*
X10249696Y-11019695D01*
X10249696Y-11019695D02*
X10240173Y-11000648D01*
X10240173Y-11000648D02*
X10240173Y-10981600D01*
X10240173Y-10981600D02*
X10249696Y-10962553D01*
X10249696Y-10962553D02*
X10268744Y-10953029D01*
X10268744Y-10953029D02*
X10316363Y-10953029D01*
X10316363Y-10953029D02*
X10335411Y-10943505D01*
X10430649Y-10895886D02*
X10430649Y-11095886D01*
X10430649Y-10905410D02*
X10449696Y-10895886D01*
X10449696Y-10895886D02*
X10487792Y-10895886D01*
X10487792Y-10895886D02*
X10506839Y-10905410D01*
X10506839Y-10905410D02*
X10516363Y-10914933D01*
X10516363Y-10914933D02*
X10525887Y-10933981D01*
X10525887Y-10933981D02*
X10525887Y-10991124D01*
X10525887Y-10991124D02*
X10516363Y-11010172D01*
X10516363Y-11010172D02*
X10506839Y-11019695D01*
X10506839Y-11019695D02*
X10487792Y-11029219D01*
X10487792Y-11029219D02*
X10449696Y-11029219D01*
X10449696Y-11029219D02*
X10430649Y-11019695D01*
X10611601Y-11010172D02*
X10621125Y-11019695D01*
X10621125Y-11019695D02*
X10611601Y-11029219D01*
X10611601Y-11029219D02*
X10602077Y-11019695D01*
X10602077Y-11019695D02*
X10611601Y-11010172D01*
X10611601Y-11010172D02*
X10611601Y-11029219D01*
X10611601Y-10905410D02*
X10621125Y-10914933D01*
X10621125Y-10914933D02*
X10611601Y-10924457D01*
X10611601Y-10924457D02*
X10602077Y-10914933D01*
X10602077Y-10914933D02*
X10611601Y-10905410D01*
X10611601Y-10905410D02*
X10611601Y-10924457D01*
X8779396Y-11257735D02*
X8979396Y-11457735D01*
X8979396Y-11257735D02*
X8779396Y-11457735D01*
X9221125Y-11249219D02*
X9344934Y-11249219D01*
X9344934Y-11249219D02*
X9278268Y-11325410D01*
X9278268Y-11325410D02*
X9306839Y-11325410D01*
X9306839Y-11325410D02*
X9325887Y-11334933D01*
X9325887Y-11334933D02*
X9335411Y-11344457D01*
X9335411Y-11344457D02*
X9344934Y-11363505D01*
X9344934Y-11363505D02*
X9344934Y-11411124D01*
X9344934Y-11411124D02*
X9335411Y-11430171D01*
X9335411Y-11430171D02*
X9325887Y-11439695D01*
X9325887Y-11439695D02*
X9306839Y-11449219D01*
X9306839Y-11449219D02*
X9249696Y-11449219D01*
X9249696Y-11449219D02*
X9230649Y-11439695D01*
X9230649Y-11439695D02*
X9221125Y-11430171D01*
X9430649Y-11430171D02*
X9440173Y-11439695D01*
X9440173Y-11439695D02*
X9430649Y-11449219D01*
X9430649Y-11449219D02*
X9421125Y-11439695D01*
X9421125Y-11439695D02*
X9430649Y-11430171D01*
X9430649Y-11430171D02*
X9430649Y-11449219D01*
X9516363Y-11268267D02*
X9525887Y-11258743D01*
X9525887Y-11258743D02*
X9544934Y-11249219D01*
X9544934Y-11249219D02*
X9592554Y-11249219D01*
X9592554Y-11249219D02*
X9611601Y-11258743D01*
X9611601Y-11258743D02*
X9621125Y-11268267D01*
X9621125Y-11268267D02*
X9630649Y-11287314D01*
X9630649Y-11287314D02*
X9630649Y-11306362D01*
X9630649Y-11306362D02*
X9621125Y-11334933D01*
X9621125Y-11334933D02*
X9506839Y-11449219D01*
X9506839Y-11449219D02*
X9630649Y-11449219D01*
X9754458Y-11249219D02*
X9773506Y-11249219D01*
X9773506Y-11249219D02*
X9792554Y-11258743D01*
X9792554Y-11258743D02*
X9802077Y-11268267D01*
X9802077Y-11268267D02*
X9811601Y-11287314D01*
X9811601Y-11287314D02*
X9821125Y-11325410D01*
X9821125Y-11325410D02*
X9821125Y-11373029D01*
X9821125Y-11373029D02*
X9811601Y-11411124D01*
X9811601Y-11411124D02*
X9802077Y-11430171D01*
X9802077Y-11430171D02*
X9792554Y-11439695D01*
X9792554Y-11439695D02*
X9773506Y-11449219D01*
X9773506Y-11449219D02*
X9754458Y-11449219D01*
X9754458Y-11449219D02*
X9735411Y-11439695D01*
X9735411Y-11439695D02*
X9725887Y-11430171D01*
X9725887Y-11430171D02*
X9716363Y-11411124D01*
X9716363Y-11411124D02*
X9706839Y-11373029D01*
X9706839Y-11373029D02*
X9706839Y-11325410D01*
X9706839Y-11325410D02*
X9716363Y-11287314D01*
X9716363Y-11287314D02*
X9725887Y-11268267D01*
X9725887Y-11268267D02*
X9735411Y-11258743D01*
X9735411Y-11258743D02*
X9754458Y-11249219D01*
X9944934Y-11249219D02*
X9963982Y-11249219D01*
X9963982Y-11249219D02*
X9983030Y-11258743D01*
X9983030Y-11258743D02*
X9992554Y-11268267D01*
X9992554Y-11268267D02*
X10002077Y-11287314D01*
X10002077Y-11287314D02*
X10011601Y-11325410D01*
X10011601Y-11325410D02*
X10011601Y-11373029D01*
X10011601Y-11373029D02*
X10002077Y-11411124D01*
X10002077Y-11411124D02*
X9992554Y-11430171D01*
X9992554Y-11430171D02*
X9983030Y-11439695D01*
X9983030Y-11439695D02*
X9963982Y-11449219D01*
X9963982Y-11449219D02*
X9944934Y-11449219D01*
X9944934Y-11449219D02*
X9925887Y-11439695D01*
X9925887Y-11439695D02*
X9916363Y-11430171D01*
X9916363Y-11430171D02*
X9906839Y-11411124D01*
X9906839Y-11411124D02*
X9897315Y-11373029D01*
X9897315Y-11373029D02*
X9897315Y-11325410D01*
X9897315Y-11325410D02*
X9906839Y-11287314D01*
X9906839Y-11287314D02*
X9916363Y-11268267D01*
X9916363Y-11268267D02*
X9925887Y-11258743D01*
X9925887Y-11258743D02*
X9944934Y-11249219D01*
X10097315Y-11449219D02*
X10097315Y-11315886D01*
X10097315Y-11334933D02*
X10106839Y-11325410D01*
X10106839Y-11325410D02*
X10125887Y-11315886D01*
X10125887Y-11315886D02*
X10154458Y-11315886D01*
X10154458Y-11315886D02*
X10173506Y-11325410D01*
X10173506Y-11325410D02*
X10183030Y-11344457D01*
X10183030Y-11344457D02*
X10183030Y-11449219D01*
X10183030Y-11344457D02*
X10192554Y-11325410D01*
X10192554Y-11325410D02*
X10211601Y-11315886D01*
X10211601Y-11315886D02*
X10240173Y-11315886D01*
X10240173Y-11315886D02*
X10259220Y-11325410D01*
X10259220Y-11325410D02*
X10268744Y-11344457D01*
X10268744Y-11344457D02*
X10268744Y-11449219D01*
X10363982Y-11449219D02*
X10363982Y-11315886D01*
X10363982Y-11334933D02*
X10373506Y-11325410D01*
X10373506Y-11325410D02*
X10392554Y-11315886D01*
X10392554Y-11315886D02*
X10421125Y-11315886D01*
X10421125Y-11315886D02*
X10440173Y-11325410D01*
X10440173Y-11325410D02*
X10449696Y-11344457D01*
X10449696Y-11344457D02*
X10449696Y-11449219D01*
X10449696Y-11344457D02*
X10459220Y-11325410D01*
X10459220Y-11325410D02*
X10478268Y-11315886D01*
X10478268Y-11315886D02*
X10506839Y-11315886D01*
X10506839Y-11315886D02*
X10525887Y-11325410D01*
X10525887Y-11325410D02*
X10535411Y-11344457D01*
X10535411Y-11344457D02*
X10535411Y-11449219D01*
X10925887Y-11239695D02*
X10754458Y-11496838D01*
X11183030Y-11249219D02*
X11202077Y-11249219D01*
X11202077Y-11249219D02*
X11221125Y-11258743D01*
X11221125Y-11258743D02*
X11230649Y-11268267D01*
X11230649Y-11268267D02*
X11240173Y-11287314D01*
X11240173Y-11287314D02*
X11249696Y-11325410D01*
X11249696Y-11325410D02*
X11249696Y-11373029D01*
X11249696Y-11373029D02*
X11240173Y-11411124D01*
X11240173Y-11411124D02*
X11230649Y-11430171D01*
X11230649Y-11430171D02*
X11221125Y-11439695D01*
X11221125Y-11439695D02*
X11202077Y-11449219D01*
X11202077Y-11449219D02*
X11183030Y-11449219D01*
X11183030Y-11449219D02*
X11163982Y-11439695D01*
X11163982Y-11439695D02*
X11154458Y-11430171D01*
X11154458Y-11430171D02*
X11144935Y-11411124D01*
X11144935Y-11411124D02*
X11135411Y-11373029D01*
X11135411Y-11373029D02*
X11135411Y-11325410D01*
X11135411Y-11325410D02*
X11144935Y-11287314D01*
X11144935Y-11287314D02*
X11154458Y-11268267D01*
X11154458Y-11268267D02*
X11163982Y-11258743D01*
X11163982Y-11258743D02*
X11183030Y-11249219D01*
X11335411Y-11430171D02*
X11344935Y-11439695D01*
X11344935Y-11439695D02*
X11335411Y-11449219D01*
X11335411Y-11449219D02*
X11325887Y-11439695D01*
X11325887Y-11439695D02*
X11335411Y-11430171D01*
X11335411Y-11430171D02*
X11335411Y-11449219D01*
X11535411Y-11449219D02*
X11421125Y-11449219D01*
X11478268Y-11449219D02*
X11478268Y-11249219D01*
X11478268Y-11249219D02*
X11459220Y-11277791D01*
X11459220Y-11277791D02*
X11440173Y-11296838D01*
X11440173Y-11296838D02*
X11421125Y-11306362D01*
X11611601Y-11268267D02*
X11621125Y-11258743D01*
X11621125Y-11258743D02*
X11640173Y-11249219D01*
X11640173Y-11249219D02*
X11687792Y-11249219D01*
X11687792Y-11249219D02*
X11706839Y-11258743D01*
X11706839Y-11258743D02*
X11716363Y-11268267D01*
X11716363Y-11268267D02*
X11725887Y-11287314D01*
X11725887Y-11287314D02*
X11725887Y-11306362D01*
X11725887Y-11306362D02*
X11716363Y-11334933D01*
X11716363Y-11334933D02*
X11602077Y-11449219D01*
X11602077Y-11449219D02*
X11725887Y-11449219D01*
X11897316Y-11249219D02*
X11859220Y-11249219D01*
X11859220Y-11249219D02*
X11840173Y-11258743D01*
X11840173Y-11258743D02*
X11830649Y-11268267D01*
X11830649Y-11268267D02*
X11811601Y-11296838D01*
X11811601Y-11296838D02*
X11802077Y-11334933D01*
X11802077Y-11334933D02*
X11802077Y-11411124D01*
X11802077Y-11411124D02*
X11811601Y-11430171D01*
X11811601Y-11430171D02*
X11821125Y-11439695D01*
X11821125Y-11439695D02*
X11840173Y-11449219D01*
X11840173Y-11449219D02*
X11878268Y-11449219D01*
X11878268Y-11449219D02*
X11897316Y-11439695D01*
X11897316Y-11439695D02*
X11906839Y-11430171D01*
X11906839Y-11430171D02*
X11916363Y-11411124D01*
X11916363Y-11411124D02*
X11916363Y-11363505D01*
X11916363Y-11363505D02*
X11906839Y-11344457D01*
X11906839Y-11344457D02*
X11897316Y-11334933D01*
X11897316Y-11334933D02*
X11878268Y-11325410D01*
X11878268Y-11325410D02*
X11840173Y-11325410D01*
X11840173Y-11325410D02*
X11821125Y-11334933D01*
X11821125Y-11334933D02*
X11811601Y-11344457D01*
X11811601Y-11344457D02*
X11802077Y-11363505D01*
X12040173Y-11249219D02*
X12059220Y-11249219D01*
X12059220Y-11249219D02*
X12078268Y-11258743D01*
X12078268Y-11258743D02*
X12087792Y-11268267D01*
X12087792Y-11268267D02*
X12097316Y-11287314D01*
X12097316Y-11287314D02*
X12106839Y-11325410D01*
X12106839Y-11325410D02*
X12106839Y-11373029D01*
X12106839Y-11373029D02*
X12097316Y-11411124D01*
X12097316Y-11411124D02*
X12087792Y-11430171D01*
X12087792Y-11430171D02*
X12078268Y-11439695D01*
X12078268Y-11439695D02*
X12059220Y-11449219D01*
X12059220Y-11449219D02*
X12040173Y-11449219D01*
X12040173Y-11449219D02*
X12021125Y-11439695D01*
X12021125Y-11439695D02*
X12011601Y-11430171D01*
X12011601Y-11430171D02*
X12002077Y-11411124D01*
X12002077Y-11411124D02*
X11992554Y-11373029D01*
X11992554Y-11373029D02*
X11992554Y-11325410D01*
X11992554Y-11325410D02*
X12002077Y-11287314D01*
X12002077Y-11287314D02*
X12011601Y-11268267D01*
X12011601Y-11268267D02*
X12021125Y-11258743D01*
X12021125Y-11258743D02*
X12040173Y-11249219D01*
X12183030Y-11249219D02*
X12183030Y-11287314D01*
X12259220Y-11249219D02*
X12259220Y-11287314D01*
X12554459Y-11525410D02*
X12544935Y-11515886D01*
X12544935Y-11515886D02*
X12525887Y-11487314D01*
X12525887Y-11487314D02*
X12516363Y-11468267D01*
X12516363Y-11468267D02*
X12506839Y-11439695D01*
X12506839Y-11439695D02*
X12497316Y-11392076D01*
X12497316Y-11392076D02*
X12497316Y-11353981D01*
X12497316Y-11353981D02*
X12506839Y-11306362D01*
X12506839Y-11306362D02*
X12516363Y-11277791D01*
X12516363Y-11277791D02*
X12525887Y-11258743D01*
X12525887Y-11258743D02*
X12544935Y-11230171D01*
X12544935Y-11230171D02*
X12554459Y-11220648D01*
X12621125Y-11268267D02*
X12630649Y-11258743D01*
X12630649Y-11258743D02*
X12649697Y-11249219D01*
X12649697Y-11249219D02*
X12697316Y-11249219D01*
X12697316Y-11249219D02*
X12716363Y-11258743D01*
X12716363Y-11258743D02*
X12725887Y-11268267D01*
X12725887Y-11268267D02*
X12735411Y-11287314D01*
X12735411Y-11287314D02*
X12735411Y-11306362D01*
X12735411Y-11306362D02*
X12725887Y-11334933D01*
X12725887Y-11334933D02*
X12611601Y-11449219D01*
X12611601Y-11449219D02*
X12735411Y-11449219D01*
X12973506Y-11449219D02*
X12973506Y-11249219D01*
X13059220Y-11449219D02*
X13059220Y-11344457D01*
X13059220Y-11344457D02*
X13049697Y-11325410D01*
X13049697Y-11325410D02*
X13030649Y-11315886D01*
X13030649Y-11315886D02*
X13002078Y-11315886D01*
X13002078Y-11315886D02*
X12983030Y-11325410D01*
X12983030Y-11325410D02*
X12973506Y-11334933D01*
X13183030Y-11449219D02*
X13163982Y-11439695D01*
X13163982Y-11439695D02*
X13154459Y-11430171D01*
X13154459Y-11430171D02*
X13144935Y-11411124D01*
X13144935Y-11411124D02*
X13144935Y-11353981D01*
X13144935Y-11353981D02*
X13154459Y-11334933D01*
X13154459Y-11334933D02*
X13163982Y-11325410D01*
X13163982Y-11325410D02*
X13183030Y-11315886D01*
X13183030Y-11315886D02*
X13211601Y-11315886D01*
X13211601Y-11315886D02*
X13230649Y-11325410D01*
X13230649Y-11325410D02*
X13240173Y-11334933D01*
X13240173Y-11334933D02*
X13249697Y-11353981D01*
X13249697Y-11353981D02*
X13249697Y-11411124D01*
X13249697Y-11411124D02*
X13240173Y-11430171D01*
X13240173Y-11430171D02*
X13230649Y-11439695D01*
X13230649Y-11439695D02*
X13211601Y-11449219D01*
X13211601Y-11449219D02*
X13183030Y-11449219D01*
X13363982Y-11449219D02*
X13344935Y-11439695D01*
X13344935Y-11439695D02*
X13335411Y-11420648D01*
X13335411Y-11420648D02*
X13335411Y-11249219D01*
X13516363Y-11439695D02*
X13497316Y-11449219D01*
X13497316Y-11449219D02*
X13459220Y-11449219D01*
X13459220Y-11449219D02*
X13440173Y-11439695D01*
X13440173Y-11439695D02*
X13430649Y-11420648D01*
X13430649Y-11420648D02*
X13430649Y-11344457D01*
X13430649Y-11344457D02*
X13440173Y-11325410D01*
X13440173Y-11325410D02*
X13459220Y-11315886D01*
X13459220Y-11315886D02*
X13497316Y-11315886D01*
X13497316Y-11315886D02*
X13516363Y-11325410D01*
X13516363Y-11325410D02*
X13525887Y-11344457D01*
X13525887Y-11344457D02*
X13525887Y-11363505D01*
X13525887Y-11363505D02*
X13430649Y-11382552D01*
X13602078Y-11439695D02*
X13621125Y-11449219D01*
X13621125Y-11449219D02*
X13659220Y-11449219D01*
X13659220Y-11449219D02*
X13678268Y-11439695D01*
X13678268Y-11439695D02*
X13687792Y-11420648D01*
X13687792Y-11420648D02*
X13687792Y-11411124D01*
X13687792Y-11411124D02*
X13678268Y-11392076D01*
X13678268Y-11392076D02*
X13659220Y-11382552D01*
X13659220Y-11382552D02*
X13630649Y-11382552D01*
X13630649Y-11382552D02*
X13611601Y-11373029D01*
X13611601Y-11373029D02*
X13602078Y-11353981D01*
X13602078Y-11353981D02*
X13602078Y-11344457D01*
X13602078Y-11344457D02*
X13611601Y-11325410D01*
X13611601Y-11325410D02*
X13630649Y-11315886D01*
X13630649Y-11315886D02*
X13659220Y-11315886D01*
X13659220Y-11315886D02*
X13678268Y-11325410D01*
X13754459Y-11525410D02*
X13763982Y-11515886D01*
X13763982Y-11515886D02*
X13783030Y-11487314D01*
X13783030Y-11487314D02*
X13792554Y-11468267D01*
X13792554Y-11468267D02*
X13802078Y-11439695D01*
X13802078Y-11439695D02*
X13811601Y-11392076D01*
X13811601Y-11392076D02*
X13811601Y-11353981D01*
X13811601Y-11353981D02*
X13802078Y-11306362D01*
X13802078Y-11306362D02*
X13792554Y-11277791D01*
X13792554Y-11277791D02*
X13783030Y-11258743D01*
X13783030Y-11258743D02*
X13763982Y-11230171D01*
X13763982Y-11230171D02*
X13754459Y-11220648D01*
X14116363Y-11525410D02*
X14106840Y-11515886D01*
X14106840Y-11515886D02*
X14087792Y-11487314D01*
X14087792Y-11487314D02*
X14078268Y-11468267D01*
X14078268Y-11468267D02*
X14068744Y-11439695D01*
X14068744Y-11439695D02*
X14059221Y-11392076D01*
X14059221Y-11392076D02*
X14059221Y-11353981D01*
X14059221Y-11353981D02*
X14068744Y-11306362D01*
X14068744Y-11306362D02*
X14078268Y-11277791D01*
X14078268Y-11277791D02*
X14087792Y-11258743D01*
X14087792Y-11258743D02*
X14106840Y-11230171D01*
X14106840Y-11230171D02*
X14116363Y-11220648D01*
X14192554Y-11315886D02*
X14192554Y-11449219D01*
X14192554Y-11334933D02*
X14202078Y-11325410D01*
X14202078Y-11325410D02*
X14221125Y-11315886D01*
X14221125Y-11315886D02*
X14249697Y-11315886D01*
X14249697Y-11315886D02*
X14268744Y-11325410D01*
X14268744Y-11325410D02*
X14278268Y-11344457D01*
X14278268Y-11344457D02*
X14278268Y-11449219D01*
X14402078Y-11449219D02*
X14383030Y-11439695D01*
X14383030Y-11439695D02*
X14373506Y-11430171D01*
X14373506Y-11430171D02*
X14363982Y-11411124D01*
X14363982Y-11411124D02*
X14363982Y-11353981D01*
X14363982Y-11353981D02*
X14373506Y-11334933D01*
X14373506Y-11334933D02*
X14383030Y-11325410D01*
X14383030Y-11325410D02*
X14402078Y-11315886D01*
X14402078Y-11315886D02*
X14430649Y-11315886D01*
X14430649Y-11315886D02*
X14449697Y-11325410D01*
X14449697Y-11325410D02*
X14459221Y-11334933D01*
X14459221Y-11334933D02*
X14468744Y-11353981D01*
X14468744Y-11353981D02*
X14468744Y-11411124D01*
X14468744Y-11411124D02*
X14459221Y-11430171D01*
X14459221Y-11430171D02*
X14449697Y-11439695D01*
X14449697Y-11439695D02*
X14430649Y-11449219D01*
X14430649Y-11449219D02*
X14402078Y-11449219D01*
X14525887Y-11315886D02*
X14602078Y-11315886D01*
X14554459Y-11249219D02*
X14554459Y-11420648D01*
X14554459Y-11420648D02*
X14563982Y-11439695D01*
X14563982Y-11439695D02*
X14583030Y-11449219D01*
X14583030Y-11449219D02*
X14602078Y-11449219D01*
X14821125Y-11315886D02*
X14821125Y-11515886D01*
X14821125Y-11325410D02*
X14840173Y-11315886D01*
X14840173Y-11315886D02*
X14878268Y-11315886D01*
X14878268Y-11315886D02*
X14897316Y-11325410D01*
X14897316Y-11325410D02*
X14906840Y-11334933D01*
X14906840Y-11334933D02*
X14916363Y-11353981D01*
X14916363Y-11353981D02*
X14916363Y-11411124D01*
X14916363Y-11411124D02*
X14906840Y-11430171D01*
X14906840Y-11430171D02*
X14897316Y-11439695D01*
X14897316Y-11439695D02*
X14878268Y-11449219D01*
X14878268Y-11449219D02*
X14840173Y-11449219D01*
X14840173Y-11449219D02*
X14821125Y-11439695D01*
X15030649Y-11449219D02*
X15011602Y-11439695D01*
X15011602Y-11439695D02*
X15002078Y-11420648D01*
X15002078Y-11420648D02*
X15002078Y-11249219D01*
X15192554Y-11449219D02*
X15192554Y-11344457D01*
X15192554Y-11344457D02*
X15183030Y-11325410D01*
X15183030Y-11325410D02*
X15163983Y-11315886D01*
X15163983Y-11315886D02*
X15125887Y-11315886D01*
X15125887Y-11315886D02*
X15106840Y-11325410D01*
X15192554Y-11439695D02*
X15173506Y-11449219D01*
X15173506Y-11449219D02*
X15125887Y-11449219D01*
X15125887Y-11449219D02*
X15106840Y-11439695D01*
X15106840Y-11439695D02*
X15097316Y-11420648D01*
X15097316Y-11420648D02*
X15097316Y-11401600D01*
X15097316Y-11401600D02*
X15106840Y-11382552D01*
X15106840Y-11382552D02*
X15125887Y-11373029D01*
X15125887Y-11373029D02*
X15173506Y-11373029D01*
X15173506Y-11373029D02*
X15192554Y-11363505D01*
X15259221Y-11315886D02*
X15335411Y-11315886D01*
X15287792Y-11249219D02*
X15287792Y-11420648D01*
X15287792Y-11420648D02*
X15297316Y-11439695D01*
X15297316Y-11439695D02*
X15316363Y-11449219D01*
X15316363Y-11449219D02*
X15335411Y-11449219D01*
X15478268Y-11439695D02*
X15459221Y-11449219D01*
X15459221Y-11449219D02*
X15421125Y-11449219D01*
X15421125Y-11449219D02*
X15402078Y-11439695D01*
X15402078Y-11439695D02*
X15392554Y-11420648D01*
X15392554Y-11420648D02*
X15392554Y-11344457D01*
X15392554Y-11344457D02*
X15402078Y-11325410D01*
X15402078Y-11325410D02*
X15421125Y-11315886D01*
X15421125Y-11315886D02*
X15459221Y-11315886D01*
X15459221Y-11315886D02*
X15478268Y-11325410D01*
X15478268Y-11325410D02*
X15487792Y-11344457D01*
X15487792Y-11344457D02*
X15487792Y-11363505D01*
X15487792Y-11363505D02*
X15392554Y-11382552D01*
X15659221Y-11449219D02*
X15659221Y-11249219D01*
X15659221Y-11439695D02*
X15640173Y-11449219D01*
X15640173Y-11449219D02*
X15602078Y-11449219D01*
X15602078Y-11449219D02*
X15583030Y-11439695D01*
X15583030Y-11439695D02*
X15573506Y-11430171D01*
X15573506Y-11430171D02*
X15563983Y-11411124D01*
X15563983Y-11411124D02*
X15563983Y-11353981D01*
X15563983Y-11353981D02*
X15573506Y-11334933D01*
X15573506Y-11334933D02*
X15583030Y-11325410D01*
X15583030Y-11325410D02*
X15602078Y-11315886D01*
X15602078Y-11315886D02*
X15640173Y-11315886D01*
X15640173Y-11315886D02*
X15659221Y-11325410D01*
X15735411Y-11525410D02*
X15744935Y-11515886D01*
X15744935Y-11515886D02*
X15763983Y-11487314D01*
X15763983Y-11487314D02*
X15773506Y-11468267D01*
X15773506Y-11468267D02*
X15783030Y-11439695D01*
X15783030Y-11439695D02*
X15792554Y-11392076D01*
X15792554Y-11392076D02*
X15792554Y-11353981D01*
X15792554Y-11353981D02*
X15783030Y-11306362D01*
X15783030Y-11306362D02*
X15773506Y-11277791D01*
X15773506Y-11277791D02*
X15763983Y-11258743D01*
X15763983Y-11258743D02*
X15744935Y-11230171D01*
X15744935Y-11230171D02*
X15735411Y-11220648D01*
M02*
