G04 #@! TF.GenerationSoftware,KiCad,Pcbnew,8.0.1*
G04 #@! TF.CreationDate,2024-07-20T21:19:58+01:00*
G04 #@! TF.ProjectId,MICRO_TRUNK_6_INSULATOR_BACK,4d494352-4f5f-4545-9255-4e4b5f365f49,rev?*
G04 #@! TF.SameCoordinates,Original*
G04 #@! TF.FileFunction,Legend,Top*
G04 #@! TF.FilePolarity,Positive*
%FSLAX46Y46*%
G04 Gerber Fmt 4.6, Leading zero omitted, Abs format (unit mm)*
G04 Created by KiCad (PCBNEW 8.0.1) date 2024-07-20 21:19:58*
%MOMM*%
%LPD*%
G01*
G04 APERTURE LIST*
%ADD10C,0.000000*%
%ADD11C,0.300000*%
%ADD12C,3.200000*%
G04 APERTURE END LIST*
D10*
G36*
X113818746Y-102278405D02*
G01*
X113863743Y-102279201D01*
X113905558Y-102280527D01*
X113944191Y-102282385D01*
X113979641Y-102284772D01*
X114011910Y-102287691D01*
X114040997Y-102291140D01*
X114066901Y-102295120D01*
X114079116Y-102297241D01*
X114091161Y-102299646D01*
X114103036Y-102302334D01*
X114114741Y-102305304D01*
X114126277Y-102308558D01*
X114137642Y-102312095D01*
X114148838Y-102315916D01*
X114159864Y-102320019D01*
X114170720Y-102324405D01*
X114181406Y-102329075D01*
X114191922Y-102334027D01*
X114202268Y-102339263D01*
X114212445Y-102344782D01*
X114222451Y-102350584D01*
X114232288Y-102356669D01*
X114241955Y-102363037D01*
X114251577Y-102369682D01*
X114260994Y-102376602D01*
X114270205Y-102383796D01*
X114279211Y-102391264D01*
X114288011Y-102399006D01*
X114296606Y-102407022D01*
X114304995Y-102415312D01*
X114313178Y-102423877D01*
X114321156Y-102432716D01*
X114328928Y-102441828D01*
X114336494Y-102451215D01*
X114343855Y-102460877D01*
X114351011Y-102470812D01*
X114357960Y-102481021D01*
X114364705Y-102491505D01*
X114371243Y-102502263D01*
X114377478Y-102513100D01*
X114383311Y-102524105D01*
X114388742Y-102535278D01*
X114393770Y-102546620D01*
X114398396Y-102558129D01*
X114402620Y-102569806D01*
X114406441Y-102581652D01*
X114409860Y-102593665D01*
X114412877Y-102605847D01*
X114415492Y-102618197D01*
X114417704Y-102630714D01*
X114419514Y-102643400D01*
X114420922Y-102656253D01*
X114421928Y-102669275D01*
X114422531Y-102682465D01*
X114422733Y-102695823D01*
X114422482Y-102710321D01*
X114421731Y-102724668D01*
X114420480Y-102738866D01*
X114418728Y-102752913D01*
X114416475Y-102766810D01*
X114413722Y-102780557D01*
X114410468Y-102794153D01*
X114406714Y-102807599D01*
X114402459Y-102820895D01*
X114397703Y-102834040D01*
X114392447Y-102847035D01*
X114386691Y-102859880D01*
X114380433Y-102872574D01*
X114373676Y-102885119D01*
X114366417Y-102897513D01*
X114358658Y-102909756D01*
X114350613Y-102921734D01*
X114342211Y-102933332D01*
X114333451Y-102944549D01*
X114324334Y-102955386D01*
X114314859Y-102965843D01*
X114305027Y-102975920D01*
X114294837Y-102985616D01*
X114284289Y-102994933D01*
X114273384Y-103003869D01*
X114262121Y-103012425D01*
X114250501Y-103020600D01*
X114238523Y-103028396D01*
X114226188Y-103035811D01*
X114213495Y-103042846D01*
X114200445Y-103049500D01*
X114187037Y-103055775D01*
X114205924Y-103061536D01*
X114224257Y-103067784D01*
X114242036Y-103074518D01*
X114259261Y-103081738D01*
X114275932Y-103089445D01*
X114292048Y-103097638D01*
X114307610Y-103106318D01*
X114322618Y-103115484D01*
X114337072Y-103125136D01*
X114350972Y-103135275D01*
X114364317Y-103145900D01*
X114377108Y-103157011D01*
X114389346Y-103168609D01*
X114401028Y-103180693D01*
X114412157Y-103193264D01*
X114422731Y-103206321D01*
X114432707Y-103219767D01*
X114442038Y-103233504D01*
X114450727Y-103247534D01*
X114458771Y-103261856D01*
X114466172Y-103276469D01*
X114472930Y-103291374D01*
X114479044Y-103306571D01*
X114484514Y-103322060D01*
X114489341Y-103337840D01*
X114493524Y-103353913D01*
X114497064Y-103370277D01*
X114499960Y-103386933D01*
X114502212Y-103403881D01*
X114503821Y-103421121D01*
X114504786Y-103438652D01*
X114505108Y-103456476D01*
X114504898Y-103470603D01*
X114504268Y-103484686D01*
X114503218Y-103498724D01*
X114501747Y-103512719D01*
X114499857Y-103526669D01*
X114497546Y-103540575D01*
X114494815Y-103554436D01*
X114491665Y-103568254D01*
X114488094Y-103582027D01*
X114484103Y-103595756D01*
X114479691Y-103609441D01*
X114474860Y-103623081D01*
X114469609Y-103636677D01*
X114463937Y-103650229D01*
X114457845Y-103663737D01*
X114451334Y-103677200D01*
X114444598Y-103690337D01*
X114437550Y-103703146D01*
X114430190Y-103715628D01*
X114422516Y-103727783D01*
X114414529Y-103739611D01*
X114406230Y-103751111D01*
X114397618Y-103762285D01*
X114388693Y-103773131D01*
X114379455Y-103783649D01*
X114369904Y-103793841D01*
X114360040Y-103803705D01*
X114349864Y-103813243D01*
X114339374Y-103822453D01*
X114328572Y-103831335D01*
X114317457Y-103839891D01*
X114306029Y-103848119D01*
X114294418Y-103855853D01*
X114282466Y-103863206D01*
X114270176Y-103870179D01*
X114257545Y-103876772D01*
X114244575Y-103882984D01*
X114231265Y-103888816D01*
X114217616Y-103894268D01*
X114203627Y-103899340D01*
X114189298Y-103904031D01*
X114174630Y-103908343D01*
X114159622Y-103912274D01*
X114144275Y-103915824D01*
X114128587Y-103918994D01*
X114112560Y-103921785D01*
X114096194Y-103924194D01*
X114079488Y-103926224D01*
X114054585Y-103928382D01*
X114022209Y-103930328D01*
X113982361Y-103932061D01*
X113935040Y-103933581D01*
X113817979Y-103935983D01*
X113671027Y-103937534D01*
X113100098Y-103937534D01*
X113100097Y-103657956D01*
X113438764Y-103657956D01*
X113752260Y-103657956D01*
X113835425Y-103657318D01*
X113870733Y-103656522D01*
X113901858Y-103655406D01*
X113928798Y-103653972D01*
X113951556Y-103652218D01*
X113970130Y-103650146D01*
X113984521Y-103647756D01*
X113993848Y-103645907D01*
X114002952Y-103643757D01*
X114011833Y-103641307D01*
X114020490Y-103638556D01*
X114028923Y-103635505D01*
X114037133Y-103632153D01*
X114045120Y-103628501D01*
X114052883Y-103624548D01*
X114060423Y-103620294D01*
X114067740Y-103615740D01*
X114074832Y-103610885D01*
X114081702Y-103605730D01*
X114088348Y-103600274D01*
X114094771Y-103594518D01*
X114100970Y-103588461D01*
X114106945Y-103582103D01*
X114112764Y-103575316D01*
X114118208Y-103568254D01*
X114123276Y-103560919D01*
X114127969Y-103553309D01*
X114132286Y-103545425D01*
X114136228Y-103537267D01*
X114139794Y-103528835D01*
X114142986Y-103520129D01*
X114145801Y-103511149D01*
X114148241Y-103501894D01*
X114150306Y-103492366D01*
X114151996Y-103482563D01*
X114153310Y-103472486D01*
X114154248Y-103462135D01*
X114154811Y-103451510D01*
X114154999Y-103440611D01*
X114154856Y-103431361D01*
X114154427Y-103422288D01*
X114153712Y-103413392D01*
X114152711Y-103404673D01*
X114151424Y-103396131D01*
X114149851Y-103387765D01*
X114147991Y-103379576D01*
X114145846Y-103371565D01*
X114143415Y-103363730D01*
X114140698Y-103356071D01*
X114137694Y-103348590D01*
X114134405Y-103341286D01*
X114130830Y-103334158D01*
X114126968Y-103327207D01*
X114122821Y-103320434D01*
X114118387Y-103313837D01*
X114113681Y-103307439D01*
X114108716Y-103301262D01*
X114103491Y-103295306D01*
X114098007Y-103289571D01*
X114092264Y-103284057D01*
X114086262Y-103278765D01*
X114080000Y-103273693D01*
X114073480Y-103268843D01*
X114066700Y-103264213D01*
X114059660Y-103259805D01*
X114052362Y-103255617D01*
X114044804Y-103251651D01*
X114036987Y-103247906D01*
X114028910Y-103244382D01*
X114020575Y-103241079D01*
X114011980Y-103237997D01*
X114002765Y-103235120D01*
X113992280Y-103232428D01*
X113980526Y-103229922D01*
X113967503Y-103227602D01*
X113953210Y-103225467D01*
X113937648Y-103223518D01*
X113920817Y-103221755D01*
X113902716Y-103220177D01*
X113862707Y-103217578D01*
X113817620Y-103215722D01*
X113767456Y-103214608D01*
X113712215Y-103214236D01*
X113438764Y-103214241D01*
X113438764Y-103657956D01*
X113100097Y-103657956D01*
X113100097Y-102938052D01*
X113438764Y-102938052D01*
X113660728Y-102938052D01*
X113750329Y-102937697D01*
X113821194Y-102936634D01*
X113873324Y-102934862D01*
X113892363Y-102933710D01*
X113906718Y-102932381D01*
X113917440Y-102930956D01*
X113927867Y-102929230D01*
X113937999Y-102927204D01*
X113947836Y-102924877D01*
X113957378Y-102922250D01*
X113966625Y-102919323D01*
X113975578Y-102916095D01*
X113984235Y-102912566D01*
X113992597Y-102908737D01*
X114000664Y-102904608D01*
X114008436Y-102900178D01*
X114015914Y-102895447D01*
X114023096Y-102890416D01*
X114029983Y-102885085D01*
X114036576Y-102879453D01*
X114042873Y-102873521D01*
X114048970Y-102867176D01*
X114054672Y-102860592D01*
X114059982Y-102853770D01*
X114064898Y-102846709D01*
X114069421Y-102839409D01*
X114073551Y-102831870D01*
X114077287Y-102824093D01*
X114080630Y-102816076D01*
X114083580Y-102807822D01*
X114086137Y-102799328D01*
X114088300Y-102790595D01*
X114090070Y-102781624D01*
X114091446Y-102772414D01*
X114092429Y-102762965D01*
X114093019Y-102753277D01*
X114093216Y-102743351D01*
X114093046Y-102733845D01*
X114092537Y-102724568D01*
X114091687Y-102715522D01*
X114090498Y-102706705D01*
X114088970Y-102698118D01*
X114087102Y-102689761D01*
X114084894Y-102681635D01*
X114082346Y-102673738D01*
X114079459Y-102666071D01*
X114076232Y-102658634D01*
X114072665Y-102651427D01*
X114068759Y-102644449D01*
X114064513Y-102637702D01*
X114059927Y-102631184D01*
X114055002Y-102624897D01*
X114049736Y-102618839D01*
X114044279Y-102612905D01*
X114038492Y-102607272D01*
X114032373Y-102601939D01*
X114025924Y-102596907D01*
X114019144Y-102592176D01*
X114012033Y-102587746D01*
X114004592Y-102583616D01*
X113996820Y-102579787D01*
X113988717Y-102576258D01*
X113980284Y-102573030D01*
X113971520Y-102570103D01*
X113962425Y-102567477D01*
X113952999Y-102565151D01*
X113943243Y-102563127D01*
X113933156Y-102561402D01*
X113922738Y-102559979D01*
X113907202Y-102558650D01*
X113885767Y-102557498D01*
X113858433Y-102556524D01*
X113825199Y-102555726D01*
X113741032Y-102554663D01*
X113633268Y-102554308D01*
X113438764Y-102554328D01*
X113438764Y-102938052D01*
X113100097Y-102938052D01*
X113100096Y-102278140D01*
X113770567Y-102278140D01*
X113818746Y-102278405D01*
G37*
G36*
X107328758Y-103937541D02*
G01*
X106960343Y-103937541D01*
X106813892Y-103560609D01*
X106143422Y-103560609D01*
X106004980Y-103937541D01*
X105645718Y-103937541D01*
X105904189Y-103281024D01*
X106247539Y-103281024D01*
X106705198Y-103281024D01*
X106474081Y-102665257D01*
X106247539Y-103281024D01*
X105904189Y-103281024D01*
X106299025Y-102278140D01*
X106657144Y-102278140D01*
X107328758Y-103937541D01*
G37*
G36*
X104064928Y-102278404D02*
G01*
X104109925Y-102279200D01*
X104151740Y-102280527D01*
X104190372Y-102282384D01*
X104225823Y-102284772D01*
X104258092Y-102287690D01*
X104287178Y-102291139D01*
X104313082Y-102295119D01*
X104325297Y-102297241D01*
X104337342Y-102299645D01*
X104349217Y-102302333D01*
X104360922Y-102305304D01*
X104372457Y-102308558D01*
X104383823Y-102312095D01*
X104395018Y-102315915D01*
X104406044Y-102320018D01*
X104416900Y-102324405D01*
X104427586Y-102329074D01*
X104438103Y-102334027D01*
X104448449Y-102339262D01*
X104458626Y-102344781D01*
X104468632Y-102350583D01*
X104478469Y-102356668D01*
X104488136Y-102363036D01*
X104497759Y-102369682D01*
X104507176Y-102376602D01*
X104516387Y-102383795D01*
X104525393Y-102391263D01*
X104534193Y-102399005D01*
X104542787Y-102407022D01*
X104551176Y-102415312D01*
X104559360Y-102423877D01*
X104567337Y-102432715D01*
X104575109Y-102441828D01*
X104582676Y-102451215D01*
X104590037Y-102460877D01*
X104597192Y-102470812D01*
X104604142Y-102481021D01*
X104610886Y-102491505D01*
X104617425Y-102502263D01*
X104623660Y-102513100D01*
X104629492Y-102524105D01*
X104634922Y-102535278D01*
X104639950Y-102546620D01*
X104644576Y-102558129D01*
X104648800Y-102569806D01*
X104652621Y-102581652D01*
X104656040Y-102593665D01*
X104659057Y-102605847D01*
X104661671Y-102618197D01*
X104663884Y-102630714D01*
X104665694Y-102643400D01*
X104667102Y-102656253D01*
X104668107Y-102669275D01*
X104668710Y-102682465D01*
X104668912Y-102695823D01*
X104668661Y-102710321D01*
X104667910Y-102724668D01*
X104666659Y-102738866D01*
X104664907Y-102752913D01*
X104662655Y-102766810D01*
X104659902Y-102780557D01*
X104656648Y-102794153D01*
X104652894Y-102807599D01*
X104648639Y-102820895D01*
X104643884Y-102834040D01*
X104638628Y-102847035D01*
X104632871Y-102859880D01*
X104626614Y-102872574D01*
X104619856Y-102885119D01*
X104612598Y-102897513D01*
X104604840Y-102909756D01*
X104596795Y-102921734D01*
X104588392Y-102933332D01*
X104579633Y-102944549D01*
X104570515Y-102955386D01*
X104561040Y-102965843D01*
X104551208Y-102975920D01*
X104541018Y-102985616D01*
X104530470Y-102994933D01*
X104519565Y-103003869D01*
X104508302Y-103012425D01*
X104496682Y-103020600D01*
X104484704Y-103028396D01*
X104472369Y-103035811D01*
X104459676Y-103042846D01*
X104446626Y-103049500D01*
X104433218Y-103055775D01*
X104452105Y-103061536D01*
X104470438Y-103067784D01*
X104488217Y-103074518D01*
X104505442Y-103081738D01*
X104522112Y-103089445D01*
X104538229Y-103097638D01*
X104553791Y-103106318D01*
X104568799Y-103115484D01*
X104583253Y-103125136D01*
X104597152Y-103135275D01*
X104610498Y-103145900D01*
X104623289Y-103157011D01*
X104635526Y-103168609D01*
X104647209Y-103180693D01*
X104658337Y-103193264D01*
X104668912Y-103206321D01*
X104678887Y-103219767D01*
X104688219Y-103233504D01*
X104696908Y-103247534D01*
X104704952Y-103261856D01*
X104712354Y-103276469D01*
X104719111Y-103291374D01*
X104725225Y-103306571D01*
X104730696Y-103322060D01*
X104735523Y-103337840D01*
X104739706Y-103353913D01*
X104743246Y-103370277D01*
X104746142Y-103386933D01*
X104748394Y-103403881D01*
X104750003Y-103421121D01*
X104750969Y-103438652D01*
X104751290Y-103456476D01*
X104751080Y-103470603D01*
X104750450Y-103484686D01*
X104749400Y-103498724D01*
X104747930Y-103512719D01*
X104746039Y-103526669D01*
X104743728Y-103540575D01*
X104740998Y-103554436D01*
X104737847Y-103568254D01*
X104734276Y-103582027D01*
X104730285Y-103595756D01*
X104725874Y-103609441D01*
X104721042Y-103623081D01*
X104715791Y-103636677D01*
X104710119Y-103650229D01*
X104704028Y-103663737D01*
X104697516Y-103677200D01*
X104690781Y-103690337D01*
X104683733Y-103703146D01*
X104676372Y-103715628D01*
X104668698Y-103727783D01*
X104660711Y-103739611D01*
X104652411Y-103751111D01*
X104643799Y-103762285D01*
X104634874Y-103773131D01*
X104625636Y-103783649D01*
X104616085Y-103793841D01*
X104606221Y-103803705D01*
X104596044Y-103813243D01*
X104585555Y-103822453D01*
X104574752Y-103831335D01*
X104563637Y-103839891D01*
X104552209Y-103848119D01*
X104540598Y-103855853D01*
X104528647Y-103863206D01*
X104516356Y-103870179D01*
X104503726Y-103876772D01*
X104490756Y-103882984D01*
X104477446Y-103888816D01*
X104463797Y-103894268D01*
X104449808Y-103899340D01*
X104435479Y-103904031D01*
X104420811Y-103908343D01*
X104405803Y-103912274D01*
X104390455Y-103915824D01*
X104374768Y-103918994D01*
X104358741Y-103921785D01*
X104342374Y-103924194D01*
X104325668Y-103926224D01*
X104300765Y-103928382D01*
X104268389Y-103930328D01*
X104228540Y-103932061D01*
X104181219Y-103933581D01*
X104064159Y-103935983D01*
X103917208Y-103937534D01*
X103346278Y-103937534D01*
X103346278Y-103657956D01*
X103684945Y-103657956D01*
X103998441Y-103657956D01*
X104081607Y-103657318D01*
X104116915Y-103656522D01*
X104148039Y-103655406D01*
X104174980Y-103653972D01*
X104197738Y-103652218D01*
X104216312Y-103650146D01*
X104230703Y-103647756D01*
X104240031Y-103645907D01*
X104249135Y-103643757D01*
X104258015Y-103641307D01*
X104266672Y-103638556D01*
X104275106Y-103635505D01*
X104283316Y-103632153D01*
X104291303Y-103628501D01*
X104299066Y-103624548D01*
X104306606Y-103620294D01*
X104313922Y-103615740D01*
X104321015Y-103610885D01*
X104327884Y-103605730D01*
X104334530Y-103600274D01*
X104340953Y-103594518D01*
X104347152Y-103588461D01*
X104353127Y-103582103D01*
X104358946Y-103575316D01*
X104364390Y-103568254D01*
X104369458Y-103560919D01*
X104374151Y-103553309D01*
X104378468Y-103545425D01*
X104382410Y-103537267D01*
X104385976Y-103528835D01*
X104389168Y-103520129D01*
X104391983Y-103511149D01*
X104394423Y-103501894D01*
X104396488Y-103492366D01*
X104398178Y-103482563D01*
X104399492Y-103472486D01*
X104400430Y-103462135D01*
X104400993Y-103451510D01*
X104401181Y-103440611D01*
X104401038Y-103431361D01*
X104400609Y-103422288D01*
X104399894Y-103413392D01*
X104398893Y-103404673D01*
X104397606Y-103396131D01*
X104396033Y-103387765D01*
X104394173Y-103379576D01*
X104392028Y-103371565D01*
X104389597Y-103363730D01*
X104386879Y-103356071D01*
X104383876Y-103348590D01*
X104380587Y-103341286D01*
X104377011Y-103334158D01*
X104373150Y-103327207D01*
X104369002Y-103320434D01*
X104364569Y-103313837D01*
X104359863Y-103307439D01*
X104354897Y-103301262D01*
X104349673Y-103295306D01*
X104344189Y-103289571D01*
X104338446Y-103284057D01*
X104332443Y-103278765D01*
X104326182Y-103273693D01*
X104319661Y-103268843D01*
X104312881Y-103264213D01*
X104305842Y-103259805D01*
X104298544Y-103255617D01*
X104290986Y-103251651D01*
X104283169Y-103247906D01*
X104275093Y-103244382D01*
X104266758Y-103241079D01*
X104258163Y-103237997D01*
X104248947Y-103235120D01*
X104238462Y-103232428D01*
X104226708Y-103229922D01*
X104213684Y-103227602D01*
X104199392Y-103225467D01*
X104183829Y-103223518D01*
X104166998Y-103221755D01*
X104148897Y-103220177D01*
X104108888Y-103217578D01*
X104063801Y-103215722D01*
X104013638Y-103214608D01*
X103958397Y-103214236D01*
X103684945Y-103214241D01*
X103684945Y-103657956D01*
X103346278Y-103657956D01*
X103346278Y-102938052D01*
X103684945Y-102938052D01*
X103906910Y-102938052D01*
X103996511Y-102937697D01*
X104067376Y-102936634D01*
X104119506Y-102934862D01*
X104138546Y-102933710D01*
X104152901Y-102932381D01*
X104163623Y-102930956D01*
X104174050Y-102929230D01*
X104184182Y-102927204D01*
X104194019Y-102924877D01*
X104203561Y-102922250D01*
X104212808Y-102919323D01*
X104221760Y-102916095D01*
X104230417Y-102912566D01*
X104238780Y-102908737D01*
X104246847Y-102904608D01*
X104254619Y-102900178D01*
X104262096Y-102895447D01*
X104269278Y-102890416D01*
X104276166Y-102885085D01*
X104282758Y-102879453D01*
X104289055Y-102873521D01*
X104295151Y-102867176D01*
X104300854Y-102860592D01*
X104306164Y-102853770D01*
X104311080Y-102846709D01*
X104315603Y-102839409D01*
X104319732Y-102831870D01*
X104323469Y-102824093D01*
X104326812Y-102816076D01*
X104329761Y-102807822D01*
X104332318Y-102799328D01*
X104334481Y-102790595D01*
X104336251Y-102781624D01*
X104337627Y-102772414D01*
X104338611Y-102762965D01*
X104339201Y-102753277D01*
X104339397Y-102743351D01*
X104339227Y-102733845D01*
X104338718Y-102724568D01*
X104337869Y-102715522D01*
X104336680Y-102706705D01*
X104335151Y-102698118D01*
X104333283Y-102689761D01*
X104331075Y-102681635D01*
X104328528Y-102673738D01*
X104325641Y-102666071D01*
X104322414Y-102658634D01*
X104318847Y-102651427D01*
X104314941Y-102644449D01*
X104310695Y-102637702D01*
X104306110Y-102631184D01*
X104301185Y-102624897D01*
X104295920Y-102618839D01*
X104290463Y-102612905D01*
X104284675Y-102607272D01*
X104278556Y-102601939D01*
X104272107Y-102596907D01*
X104265327Y-102592176D01*
X104258216Y-102587746D01*
X104250775Y-102583616D01*
X104243003Y-102579787D01*
X104234900Y-102576258D01*
X104226466Y-102573030D01*
X104217702Y-102570103D01*
X104208607Y-102567477D01*
X104199181Y-102565151D01*
X104189425Y-102563127D01*
X104179337Y-102561402D01*
X104168920Y-102559979D01*
X104153384Y-102558650D01*
X104131949Y-102557498D01*
X104104615Y-102556524D01*
X104071381Y-102555726D01*
X103987214Y-102554663D01*
X103879450Y-102554308D01*
X103684945Y-102554328D01*
X103684945Y-102938052D01*
X103346278Y-102938052D01*
X103346278Y-102278139D01*
X104016748Y-102278139D01*
X104064928Y-102278404D01*
G37*
G36*
X111772298Y-101374385D02*
G01*
X111172298Y-101374385D01*
X111172298Y-99159542D01*
X109103353Y-99159542D01*
X109103353Y-101332198D01*
X108503353Y-101332198D01*
X108503353Y-98559542D01*
X111772298Y-98559542D01*
X111772298Y-101374385D01*
G37*
G36*
X111309404Y-98218713D02*
G01*
X110962944Y-98218713D01*
X110962944Y-96926968D01*
X110938945Y-96948567D01*
X110914417Y-96969451D01*
X110889358Y-96989620D01*
X110863769Y-97009075D01*
X110837651Y-97027814D01*
X110811003Y-97045839D01*
X110783825Y-97063150D01*
X110756118Y-97079745D01*
X110727880Y-97095626D01*
X110699113Y-97110793D01*
X110669816Y-97125244D01*
X110639989Y-97138981D01*
X110609633Y-97152003D01*
X110578746Y-97164310D01*
X110547330Y-97175903D01*
X110515384Y-97186781D01*
X110515384Y-96875738D01*
X110532429Y-96869944D01*
X110549656Y-96863540D01*
X110567067Y-96856526D01*
X110584661Y-96848902D01*
X110602437Y-96840669D01*
X110620397Y-96831826D01*
X110638539Y-96822372D01*
X110656865Y-96812309D01*
X110675374Y-96801636D01*
X110694065Y-96790353D01*
X110712940Y-96778460D01*
X110731998Y-96765958D01*
X110751238Y-96752845D01*
X110770662Y-96739123D01*
X110790269Y-96724790D01*
X110810058Y-96709848D01*
X110829549Y-96694291D01*
X110848260Y-96678420D01*
X110866191Y-96662234D01*
X110883342Y-96645733D01*
X110899712Y-96628918D01*
X110915302Y-96611789D01*
X110930112Y-96594345D01*
X110944142Y-96576587D01*
X110957391Y-96558514D01*
X110969861Y-96540127D01*
X110981550Y-96521426D01*
X110992458Y-96502409D01*
X111002587Y-96483079D01*
X111011935Y-96463434D01*
X111020503Y-96443474D01*
X111028291Y-96423200D01*
X111309404Y-96423200D01*
X111309404Y-98218713D01*
G37*
G36*
X102451850Y-103937540D02*
G01*
X102083435Y-103937540D01*
X101936984Y-103560608D01*
X101266514Y-103560608D01*
X101128072Y-103937540D01*
X100768810Y-103937540D01*
X101027281Y-103281023D01*
X101370631Y-103281023D01*
X101828290Y-103281023D01*
X101597173Y-102665255D01*
X101370631Y-103281023D01*
X101027281Y-103281023D01*
X101422117Y-102278138D01*
X101780236Y-102278138D01*
X102451850Y-103937540D01*
G37*
G36*
X109096463Y-94359131D02*
G01*
X110003913Y-94359131D01*
X110003913Y-94660416D01*
X108731510Y-94660416D01*
X108731510Y-92886858D01*
X109096463Y-92886858D01*
X109096463Y-94359131D01*
G37*
G36*
X117082575Y-103937541D02*
G01*
X116714160Y-103937541D01*
X116567712Y-103560609D01*
X115897240Y-103560609D01*
X115758798Y-103937541D01*
X115399536Y-103937541D01*
X115658007Y-103281024D01*
X116001358Y-103281024D01*
X116459016Y-103281024D01*
X116227900Y-102665257D01*
X116001358Y-103281024D01*
X115658007Y-103281024D01*
X116052843Y-102278140D01*
X116410961Y-102278140D01*
X117082575Y-103937541D01*
G37*
G36*
X104129590Y-96408581D02*
G01*
X104160308Y-96410468D01*
X104190236Y-96413613D01*
X104219374Y-96418015D01*
X104247722Y-96423676D01*
X104275280Y-96430594D01*
X104302049Y-96438771D01*
X104328027Y-96448205D01*
X104353216Y-96458897D01*
X104377615Y-96470847D01*
X104401224Y-96484055D01*
X104424043Y-96498521D01*
X104446072Y-96514244D01*
X104467312Y-96531226D01*
X104487761Y-96549465D01*
X104507421Y-96568963D01*
X104522799Y-96585563D01*
X104537185Y-96602430D01*
X104550579Y-96619565D01*
X104562981Y-96636965D01*
X104574391Y-96654633D01*
X104584808Y-96672568D01*
X104594233Y-96690769D01*
X104602667Y-96709237D01*
X104610108Y-96727972D01*
X104616557Y-96746974D01*
X104622013Y-96766243D01*
X104626478Y-96785778D01*
X104629950Y-96805581D01*
X104632431Y-96825650D01*
X104633919Y-96845986D01*
X104634415Y-96866589D01*
X104633399Y-96895644D01*
X104630350Y-96923956D01*
X104625269Y-96951525D01*
X104618156Y-96978351D01*
X104609010Y-97004433D01*
X104597831Y-97029772D01*
X104584620Y-97054368D01*
X104569377Y-97078220D01*
X104552101Y-97101329D01*
X104532793Y-97123695D01*
X104511453Y-97145318D01*
X104488080Y-97166197D01*
X104462674Y-97186333D01*
X104435236Y-97205725D01*
X104405766Y-97224375D01*
X104374263Y-97242281D01*
X104393436Y-97246716D01*
X104412118Y-97251791D01*
X104430309Y-97257504D01*
X104448008Y-97263855D01*
X104465217Y-97270845D01*
X104481934Y-97278474D01*
X104498159Y-97286740D01*
X104513894Y-97295646D01*
X104529137Y-97305190D01*
X104543889Y-97315372D01*
X104558150Y-97326193D01*
X104571920Y-97337652D01*
X104585198Y-97349750D01*
X104597985Y-97362486D01*
X104610281Y-97375860D01*
X104622085Y-97389874D01*
X104633432Y-97404392D01*
X104644047Y-97419282D01*
X104653930Y-97434543D01*
X104663081Y-97450176D01*
X104671500Y-97466181D01*
X104679186Y-97482558D01*
X104686141Y-97499306D01*
X104692363Y-97516425D01*
X104697854Y-97533917D01*
X104702612Y-97551780D01*
X104706639Y-97570015D01*
X104709933Y-97588621D01*
X104712495Y-97607599D01*
X104714325Y-97626949D01*
X104715423Y-97646670D01*
X104715789Y-97666763D01*
X104715110Y-97695918D01*
X104713073Y-97724531D01*
X104709678Y-97752600D01*
X104704924Y-97780126D01*
X104698812Y-97807109D01*
X104691342Y-97833548D01*
X104682514Y-97859445D01*
X104672328Y-97884798D01*
X104660784Y-97909608D01*
X104647881Y-97933875D01*
X104633620Y-97957599D01*
X104618001Y-97980779D01*
X104601024Y-98003417D01*
X104582689Y-98025511D01*
X104562995Y-98047062D01*
X104541944Y-98068070D01*
X104519881Y-98088158D01*
X104497153Y-98106950D01*
X104473761Y-98124446D01*
X104449704Y-98140646D01*
X104424982Y-98155551D01*
X104399596Y-98169159D01*
X104373545Y-98181471D01*
X104346829Y-98192487D01*
X104319449Y-98202207D01*
X104291404Y-98210631D01*
X104262695Y-98217759D01*
X104233321Y-98223591D01*
X104203282Y-98228127D01*
X104172579Y-98231367D01*
X104141211Y-98233311D01*
X104109179Y-98233959D01*
X104078836Y-98233416D01*
X104049149Y-98231787D01*
X104020117Y-98229071D01*
X103991740Y-98225269D01*
X103964018Y-98220380D01*
X103936951Y-98214405D01*
X103910539Y-98207344D01*
X103884782Y-98199196D01*
X103859680Y-98189962D01*
X103835233Y-98179641D01*
X103811441Y-98168235D01*
X103788304Y-98155741D01*
X103765822Y-98142162D01*
X103743995Y-98127496D01*
X103722823Y-98111744D01*
X103702306Y-98094905D01*
X103682646Y-98077037D01*
X103664046Y-98058502D01*
X103646505Y-98039300D01*
X103630024Y-98019431D01*
X103614603Y-97998895D01*
X103600241Y-97977692D01*
X103586938Y-97955822D01*
X103574696Y-97933284D01*
X103563512Y-97910080D01*
X103553389Y-97886208D01*
X103544325Y-97861670D01*
X103536320Y-97836464D01*
X103529375Y-97810592D01*
X103523490Y-97784052D01*
X103518664Y-97756845D01*
X103514898Y-97728972D01*
X103850259Y-97688719D01*
X103852474Y-97704343D01*
X103855114Y-97719500D01*
X103858177Y-97734189D01*
X103861664Y-97748412D01*
X103865575Y-97762168D01*
X103869909Y-97775457D01*
X103874668Y-97788279D01*
X103879850Y-97800634D01*
X103885456Y-97812522D01*
X103891486Y-97823943D01*
X103897940Y-97834897D01*
X103904817Y-97845385D01*
X103912119Y-97855405D01*
X103919844Y-97864958D01*
X103927993Y-97874045D01*
X103936566Y-97882664D01*
X103945466Y-97890788D01*
X103954598Y-97898388D01*
X103963960Y-97905463D01*
X103973554Y-97912015D01*
X103983379Y-97918042D01*
X103993435Y-97923546D01*
X104003723Y-97928525D01*
X104014241Y-97932980D01*
X104024991Y-97936911D01*
X104035972Y-97940318D01*
X104047184Y-97943200D01*
X104058628Y-97945559D01*
X104070302Y-97947393D01*
X104082208Y-97948703D01*
X104094345Y-97949490D01*
X104106713Y-97949752D01*
X104119986Y-97949437D01*
X104132990Y-97948494D01*
X104145724Y-97946921D01*
X104158188Y-97944720D01*
X104170383Y-97941890D01*
X104182308Y-97938431D01*
X104193963Y-97934342D01*
X104205349Y-97929625D01*
X104216464Y-97924279D01*
X104227310Y-97918304D01*
X104237887Y-97911700D01*
X104248193Y-97904467D01*
X104258230Y-97896606D01*
X104267998Y-97888115D01*
X104277495Y-97878995D01*
X104286723Y-97869247D01*
X104295681Y-97858964D01*
X104304061Y-97848244D01*
X104311863Y-97837085D01*
X104319088Y-97825487D01*
X104325734Y-97813451D01*
X104331802Y-97800977D01*
X104337293Y-97788065D01*
X104342205Y-97774714D01*
X104346540Y-97760925D01*
X104350297Y-97746697D01*
X104353475Y-97732031D01*
X104356076Y-97716927D01*
X104358099Y-97701384D01*
X104359544Y-97685403D01*
X104360411Y-97668984D01*
X104360700Y-97652126D01*
X104360425Y-97636173D01*
X104359602Y-97620640D01*
X104358229Y-97605527D01*
X104356307Y-97590832D01*
X104353837Y-97576557D01*
X104350817Y-97562701D01*
X104347248Y-97549264D01*
X104343130Y-97536247D01*
X104338463Y-97523649D01*
X104333247Y-97511470D01*
X104327483Y-97499711D01*
X104321169Y-97488371D01*
X104314305Y-97477450D01*
X104306893Y-97466948D01*
X104298932Y-97456866D01*
X104290422Y-97447203D01*
X104281517Y-97438045D01*
X104272371Y-97429478D01*
X104262984Y-97421502D01*
X104253356Y-97414117D01*
X104243488Y-97407322D01*
X104233379Y-97401119D01*
X104223029Y-97395506D01*
X104212438Y-97390484D01*
X104201606Y-97386053D01*
X104190534Y-97382212D01*
X104179220Y-97378963D01*
X104167666Y-97376304D01*
X104155872Y-97374236D01*
X104143836Y-97372759D01*
X104131559Y-97371873D01*
X104119042Y-97371577D01*
X104110619Y-97371677D01*
X104101993Y-97371978D01*
X104084134Y-97373178D01*
X104065467Y-97375179D01*
X104045990Y-97377981D01*
X104025704Y-97381583D01*
X104004609Y-97385985D01*
X103982705Y-97391188D01*
X103959991Y-97397191D01*
X103998213Y-97117862D01*
X104015522Y-97118058D01*
X104032311Y-97117729D01*
X104048581Y-97116876D01*
X104064330Y-97115499D01*
X104079558Y-97113598D01*
X104094267Y-97111173D01*
X104108456Y-97108223D01*
X104122124Y-97104750D01*
X104135272Y-97100752D01*
X104147901Y-97096231D01*
X104160009Y-97091185D01*
X104171596Y-97085615D01*
X104182664Y-97079520D01*
X104193212Y-97072902D01*
X104203239Y-97065760D01*
X104212746Y-97058093D01*
X104221704Y-97049850D01*
X104230084Y-97041283D01*
X104237887Y-97032392D01*
X104245111Y-97023177D01*
X104251757Y-97013638D01*
X104257826Y-97003775D01*
X104263316Y-96993588D01*
X104268229Y-96983077D01*
X104272563Y-96972242D01*
X104276320Y-96961082D01*
X104279498Y-96949599D01*
X104282099Y-96937792D01*
X104284122Y-96925661D01*
X104285567Y-96913206D01*
X104286434Y-96900427D01*
X104286723Y-96887324D01*
X104286511Y-96876184D01*
X104285875Y-96865330D01*
X104284815Y-96854762D01*
X104283332Y-96844479D01*
X104281425Y-96834483D01*
X104279094Y-96824772D01*
X104276339Y-96815347D01*
X104273160Y-96806209D01*
X104269558Y-96797356D01*
X104265531Y-96788789D01*
X104261081Y-96780508D01*
X104256207Y-96772512D01*
X104250909Y-96764803D01*
X104245188Y-96757379D01*
X104239042Y-96750242D01*
X104232473Y-96743390D01*
X104225552Y-96736891D01*
X104218352Y-96730811D01*
X104210872Y-96725151D01*
X104203113Y-96719909D01*
X104195075Y-96715088D01*
X104186758Y-96710685D01*
X104178161Y-96706702D01*
X104169284Y-96703137D01*
X104160129Y-96699993D01*
X104150694Y-96697267D01*
X104140979Y-96694961D01*
X104130986Y-96693074D01*
X104120713Y-96691607D01*
X104110160Y-96690559D01*
X104099329Y-96689930D01*
X104088217Y-96689720D01*
X104077222Y-96689958D01*
X104066429Y-96690673D01*
X104055838Y-96691864D01*
X104045450Y-96693532D01*
X104035264Y-96695676D01*
X104025280Y-96698297D01*
X104015498Y-96701394D01*
X104005919Y-96704967D01*
X103996542Y-96709017D01*
X103987367Y-96713544D01*
X103978394Y-96718547D01*
X103969624Y-96724026D01*
X103961056Y-96729982D01*
X103952690Y-96736414D01*
X103944527Y-96743323D01*
X103936565Y-96750709D01*
X103928898Y-96758552D01*
X103921616Y-96766833D01*
X103914719Y-96775552D01*
X103908207Y-96784710D01*
X103902081Y-96794306D01*
X103896340Y-96804341D01*
X103890984Y-96814814D01*
X103886014Y-96825725D01*
X103881429Y-96837075D01*
X103877229Y-96848863D01*
X103873415Y-96861089D01*
X103869986Y-96873754D01*
X103866942Y-96886857D01*
X103864284Y-96900399D01*
X103862010Y-96914378D01*
X103860122Y-96928797D01*
X103540789Y-96875127D01*
X103549632Y-96835598D01*
X103559515Y-96798128D01*
X103564846Y-96780165D01*
X103570438Y-96762717D01*
X103576289Y-96745783D01*
X103582401Y-96729363D01*
X103588773Y-96713459D01*
X103595405Y-96698068D01*
X103602297Y-96683193D01*
X103609449Y-96668832D01*
X103616861Y-96654986D01*
X103624533Y-96641654D01*
X103632466Y-96628836D01*
X103640658Y-96616534D01*
X103649337Y-96604503D01*
X103658420Y-96592805D01*
X103667908Y-96581441D01*
X103677801Y-96570411D01*
X103688098Y-96559714D01*
X103698799Y-96549351D01*
X103709905Y-96539321D01*
X103721416Y-96529625D01*
X103733331Y-96520262D01*
X103745651Y-96511233D01*
X103758376Y-96502537D01*
X103771505Y-96494175D01*
X103785038Y-96486146D01*
X103798976Y-96478451D01*
X103813319Y-96471090D01*
X103828066Y-96464062D01*
X103843281Y-96457267D01*
X103858717Y-96450911D01*
X103874374Y-96444993D01*
X103890253Y-96439514D01*
X103906354Y-96434473D01*
X103922676Y-96429870D01*
X103939220Y-96425706D01*
X103955985Y-96421980D01*
X103972972Y-96418692D01*
X103990180Y-96415843D01*
X104007610Y-96413432D01*
X104025261Y-96411459D01*
X104043134Y-96409925D01*
X104061229Y-96408829D01*
X104079545Y-96408171D01*
X104098082Y-96407952D01*
X104129590Y-96408581D01*
G37*
G36*
X104110867Y-104907060D02*
G01*
X104140655Y-104908612D01*
X104169612Y-104911199D01*
X104197738Y-104914820D01*
X104225032Y-104919476D01*
X104251495Y-104925166D01*
X104277126Y-104931892D01*
X104301926Y-104939651D01*
X104325895Y-104948446D01*
X104349033Y-104958275D01*
X104371340Y-104969139D01*
X104392815Y-104981037D01*
X104413459Y-104993970D01*
X104433271Y-105007938D01*
X104452252Y-105022940D01*
X104470402Y-105038977D01*
X104487582Y-105055784D01*
X104503654Y-105073094D01*
X104518617Y-105090909D01*
X104532472Y-105109228D01*
X104545219Y-105128050D01*
X104556857Y-105147377D01*
X104567387Y-105167208D01*
X104576808Y-105187543D01*
X104585121Y-105208382D01*
X104592325Y-105229725D01*
X104598422Y-105251572D01*
X104603409Y-105273923D01*
X104607289Y-105296778D01*
X104610060Y-105320137D01*
X104611722Y-105344001D01*
X104612277Y-105368368D01*
X104612116Y-105382336D01*
X104611633Y-105396224D01*
X104610828Y-105410032D01*
X104609702Y-105423761D01*
X104608254Y-105437410D01*
X104606484Y-105450980D01*
X104604393Y-105464470D01*
X104601979Y-105477881D01*
X104599244Y-105491212D01*
X104596187Y-105504464D01*
X104592808Y-105517636D01*
X104589108Y-105530728D01*
X104585085Y-105543741D01*
X104580741Y-105556674D01*
X104576075Y-105569528D01*
X104571088Y-105582302D01*
X104565894Y-105594934D01*
X104560325Y-105607646D01*
X104554381Y-105620437D01*
X104548062Y-105633309D01*
X104541367Y-105646259D01*
X104534296Y-105659290D01*
X104526850Y-105672400D01*
X104519029Y-105685589D01*
X104502260Y-105712208D01*
X104483989Y-105739144D01*
X104464217Y-105766399D01*
X104442943Y-105793973D01*
X104435283Y-105803422D01*
X104426889Y-105813375D01*
X104407904Y-105834793D01*
X104385986Y-105858227D01*
X104361137Y-105883677D01*
X104333355Y-105911144D01*
X104302642Y-105940626D01*
X104268997Y-105972125D01*
X104232420Y-106005640D01*
X104163270Y-106068887D01*
X104107994Y-106120532D01*
X104066590Y-106160573D01*
X104051090Y-106176243D01*
X104039059Y-106189013D01*
X104029280Y-106200297D01*
X104019966Y-106211510D01*
X104011117Y-106222653D01*
X104002733Y-106233724D01*
X103994813Y-106244725D01*
X103987358Y-106255655D01*
X103980368Y-106266514D01*
X103973842Y-106277303D01*
X104612276Y-106277304D01*
X104612276Y-106572738D01*
X103485292Y-106572738D01*
X103487866Y-106551868D01*
X103491013Y-106531139D01*
X103494731Y-106510552D01*
X103499022Y-106490107D01*
X103503884Y-106469803D01*
X103509319Y-106449640D01*
X103515326Y-106429619D01*
X103521904Y-106409740D01*
X103529055Y-106390002D01*
X103536778Y-106370405D01*
X103545073Y-106350950D01*
X103553940Y-106331636D01*
X103563379Y-106312464D01*
X103573391Y-106293434D01*
X103583974Y-106274545D01*
X103595129Y-106255797D01*
X103607268Y-106236598D01*
X103620801Y-106216639D01*
X103635729Y-106195920D01*
X103652051Y-106174440D01*
X103669767Y-106152200D01*
X103688878Y-106129199D01*
X103709384Y-106105437D01*
X103731283Y-106080915D01*
X103754577Y-106055633D01*
X103779266Y-106029590D01*
X103832826Y-105975222D01*
X103891964Y-105917812D01*
X103956680Y-105857360D01*
X104008399Y-105809289D01*
X104054862Y-105765250D01*
X104096069Y-105725243D01*
X104132021Y-105689269D01*
X104162716Y-105657328D01*
X104188156Y-105629419D01*
X104208339Y-105605542D01*
X104223267Y-105585698D01*
X104231303Y-105573398D01*
X104238820Y-105561114D01*
X104245819Y-105548849D01*
X104252300Y-105536601D01*
X104258262Y-105524371D01*
X104263705Y-105512159D01*
X104268631Y-105499964D01*
X104273037Y-105487787D01*
X104276926Y-105475628D01*
X104280296Y-105463486D01*
X104283147Y-105451362D01*
X104285480Y-105439256D01*
X104287295Y-105427167D01*
X104288591Y-105415096D01*
X104289368Y-105403043D01*
X104289628Y-105391007D01*
X104289400Y-105377901D01*
X104288716Y-105365185D01*
X104287576Y-105352858D01*
X104285981Y-105340919D01*
X104283929Y-105329370D01*
X104281422Y-105318210D01*
X104278459Y-105307439D01*
X104275040Y-105297057D01*
X104271165Y-105287065D01*
X104266834Y-105277461D01*
X104262047Y-105268247D01*
X104256805Y-105259421D01*
X104251106Y-105250985D01*
X104244952Y-105242938D01*
X104238342Y-105235280D01*
X104231276Y-105228011D01*
X104223951Y-105221020D01*
X104216277Y-105214481D01*
X104208254Y-105208392D01*
X104199883Y-105202755D01*
X104191163Y-105197568D01*
X104182095Y-105192833D01*
X104172678Y-105188548D01*
X104162913Y-105184715D01*
X104152799Y-105181332D01*
X104142336Y-105178401D01*
X104131525Y-105175920D01*
X104120365Y-105173890D01*
X104108856Y-105172312D01*
X104096999Y-105171184D01*
X104084793Y-105170508D01*
X104072239Y-105170282D01*
X104059814Y-105170517D01*
X104047711Y-105171220D01*
X104035930Y-105172391D01*
X104024471Y-105174032D01*
X104013334Y-105176141D01*
X104002518Y-105178719D01*
X103992024Y-105181765D01*
X103981852Y-105185280D01*
X103972001Y-105189264D01*
X103962473Y-105193717D01*
X103953266Y-105198638D01*
X103944381Y-105204028D01*
X103935818Y-105209886D01*
X103927576Y-105216213D01*
X103919657Y-105223009D01*
X103912059Y-105230273D01*
X103904819Y-105238082D01*
X103897972Y-105246509D01*
X103891518Y-105255556D01*
X103885457Y-105265221D01*
X103879790Y-105275506D01*
X103874516Y-105286409D01*
X103869636Y-105297932D01*
X103865149Y-105310073D01*
X103861055Y-105322834D01*
X103857354Y-105336214D01*
X103854047Y-105350212D01*
X103851133Y-105364830D01*
X103848612Y-105380067D01*
X103846485Y-105395923D01*
X103844750Y-105412397D01*
X103843410Y-105429491D01*
X103523048Y-105397799D01*
X103527102Y-105365552D01*
X103532112Y-105334464D01*
X103538078Y-105304534D01*
X103545001Y-105275763D01*
X103552880Y-105248150D01*
X103561716Y-105221696D01*
X103571509Y-105196400D01*
X103582257Y-105172262D01*
X103593962Y-105149283D01*
X103606624Y-105127463D01*
X103620242Y-105106801D01*
X103634817Y-105087297D01*
X103650348Y-105068952D01*
X103666836Y-105051765D01*
X103684280Y-105035737D01*
X103702680Y-105020867D01*
X103721853Y-105007023D01*
X103741617Y-104994072D01*
X103761970Y-104982015D01*
X103782913Y-104970850D01*
X103804446Y-104960579D01*
X103826570Y-104951201D01*
X103849283Y-104942716D01*
X103872586Y-104935124D01*
X103896479Y-104928425D01*
X103920962Y-104922620D01*
X103946034Y-104917707D01*
X103971697Y-104913688D01*
X103997950Y-104910562D01*
X104024793Y-104908329D01*
X104052225Y-104906990D01*
X104080248Y-104906543D01*
X104110867Y-104907060D01*
G37*
G36*
X110817365Y-92865460D02*
G01*
X110849465Y-92867133D01*
X110880670Y-92869920D01*
X110910978Y-92873822D01*
X110940391Y-92878840D01*
X110968907Y-92884972D01*
X110996528Y-92892219D01*
X111023254Y-92900581D01*
X111049083Y-92910058D01*
X111074017Y-92920650D01*
X111098054Y-92932357D01*
X111121196Y-92945179D01*
X111143442Y-92959116D01*
X111164793Y-92974168D01*
X111185247Y-92990335D01*
X111204806Y-93007617D01*
X111223320Y-93025727D01*
X111240639Y-93044381D01*
X111256764Y-93063579D01*
X111271694Y-93083319D01*
X111285430Y-93103603D01*
X111297971Y-93124429D01*
X111309318Y-93145799D01*
X111319471Y-93167713D01*
X111328429Y-93190169D01*
X111336193Y-93213168D01*
X111342762Y-93236711D01*
X111348137Y-93260797D01*
X111352317Y-93285426D01*
X111355303Y-93310598D01*
X111357095Y-93336313D01*
X111357692Y-93362572D01*
X111357519Y-93377624D01*
X111356999Y-93392590D01*
X111356132Y-93407470D01*
X111354918Y-93422265D01*
X111353358Y-93436974D01*
X111351450Y-93451597D01*
X111349196Y-93466134D01*
X111346595Y-93480586D01*
X111343648Y-93494951D01*
X111340353Y-93509231D01*
X111336712Y-93523425D01*
X111332724Y-93537534D01*
X111328390Y-93551557D01*
X111323708Y-93565494D01*
X111318680Y-93579345D01*
X111313305Y-93593110D01*
X111307709Y-93606723D01*
X111301708Y-93620422D01*
X111295302Y-93634206D01*
X111288492Y-93648076D01*
X111281277Y-93662032D01*
X111273658Y-93676074D01*
X111265634Y-93690202D01*
X111257206Y-93704415D01*
X111239136Y-93733099D01*
X111219447Y-93762126D01*
X111198140Y-93791495D01*
X111175215Y-93821208D01*
X111166960Y-93831391D01*
X111157915Y-93842116D01*
X111137456Y-93865197D01*
X111113837Y-93890450D01*
X111087059Y-93917876D01*
X111057121Y-93947475D01*
X111024024Y-93979246D01*
X110987768Y-94013190D01*
X110948352Y-94049307D01*
X110873836Y-94117462D01*
X110814269Y-94173115D01*
X110769652Y-94216264D01*
X110752949Y-94233150D01*
X110739984Y-94246911D01*
X110729446Y-94259071D01*
X110719409Y-94271154D01*
X110709872Y-94283161D01*
X110700837Y-94295092D01*
X110692303Y-94306947D01*
X110684270Y-94318725D01*
X110676737Y-94330428D01*
X110669706Y-94342054D01*
X111357691Y-94342054D01*
X111357691Y-94660416D01*
X110143237Y-94660416D01*
X110146011Y-94637926D01*
X110149402Y-94615589D01*
X110153409Y-94593404D01*
X110158032Y-94571372D01*
X110163272Y-94549492D01*
X110169129Y-94527765D01*
X110175602Y-94506190D01*
X110182691Y-94484768D01*
X110190397Y-94463498D01*
X110198720Y-94442380D01*
X110207658Y-94421416D01*
X110217214Y-94400603D01*
X110227385Y-94379943D01*
X110238173Y-94359436D01*
X110249578Y-94339081D01*
X110261599Y-94318878D01*
X110274680Y-94298189D01*
X110289263Y-94276681D01*
X110305349Y-94254354D01*
X110322938Y-94231206D01*
X110342029Y-94207240D01*
X110362623Y-94182453D01*
X110384720Y-94156847D01*
X110408319Y-94130422D01*
X110433422Y-94103177D01*
X110460026Y-94075113D01*
X110517744Y-94016525D01*
X110581472Y-93954660D01*
X110651211Y-93889516D01*
X110706944Y-93837713D01*
X110757013Y-93790256D01*
X110801419Y-93747145D01*
X110840160Y-93708379D01*
X110873238Y-93673958D01*
X110900652Y-93643883D01*
X110922402Y-93618154D01*
X110938488Y-93596769D01*
X110947148Y-93583514D01*
X110955249Y-93570277D01*
X110962791Y-93557060D01*
X110969775Y-93543861D01*
X110976200Y-93530682D01*
X110982066Y-93517522D01*
X110987374Y-93504381D01*
X110992122Y-93491259D01*
X110996313Y-93478155D01*
X110999944Y-93465071D01*
X111003017Y-93452007D01*
X111005531Y-93438961D01*
X111007486Y-93425934D01*
X111008883Y-93412926D01*
X111009721Y-93399937D01*
X111010000Y-93386968D01*
X111009755Y-93372845D01*
X111009018Y-93359141D01*
X111007790Y-93345857D01*
X111006070Y-93332992D01*
X111003860Y-93320547D01*
X111001158Y-93308521D01*
X110997965Y-93296914D01*
X110994280Y-93285726D01*
X110990104Y-93274958D01*
X110985438Y-93264609D01*
X110980279Y-93254679D01*
X110974630Y-93245168D01*
X110968489Y-93236077D01*
X110961857Y-93227405D01*
X110954734Y-93219153D01*
X110947119Y-93211319D01*
X110939226Y-93203786D01*
X110930956Y-93196739D01*
X110922311Y-93190178D01*
X110913291Y-93184103D01*
X110903894Y-93178514D01*
X110894122Y-93173411D01*
X110883974Y-93168794D01*
X110873451Y-93164663D01*
X110862552Y-93161018D01*
X110851277Y-93157859D01*
X110839627Y-93155186D01*
X110827601Y-93152999D01*
X110815199Y-93151298D01*
X110802422Y-93150083D01*
X110789268Y-93149354D01*
X110775740Y-93149111D01*
X110762350Y-93149363D01*
X110749308Y-93150121D01*
X110736613Y-93151384D01*
X110724264Y-93153151D01*
X110712262Y-93155424D01*
X110700606Y-93158202D01*
X110689298Y-93161485D01*
X110678336Y-93165273D01*
X110667721Y-93169566D01*
X110657453Y-93174364D01*
X110647532Y-93179667D01*
X110637957Y-93185476D01*
X110628729Y-93191789D01*
X110619848Y-93198607D01*
X110611314Y-93205931D01*
X110603126Y-93213759D01*
X110595324Y-93222174D01*
X110587945Y-93231255D01*
X110580991Y-93241004D01*
X110574460Y-93251420D01*
X110568353Y-93262503D01*
X110562670Y-93274252D01*
X110557411Y-93286669D01*
X110552575Y-93299753D01*
X110548164Y-93313505D01*
X110544176Y-93327923D01*
X110540612Y-93343008D01*
X110537472Y-93358760D01*
X110534755Y-93375180D01*
X110532463Y-93392266D01*
X110530594Y-93410019D01*
X110529149Y-93428440D01*
X110183924Y-93394286D01*
X110188293Y-93359537D01*
X110193692Y-93326036D01*
X110200121Y-93293783D01*
X110207582Y-93262779D01*
X110216072Y-93233023D01*
X110225594Y-93204515D01*
X110236146Y-93177256D01*
X110247729Y-93151245D01*
X110260343Y-93126483D01*
X110273987Y-93102969D01*
X110288662Y-93080703D01*
X110304368Y-93059686D01*
X110321104Y-93039917D01*
X110338871Y-93021396D01*
X110357668Y-93004124D01*
X110377497Y-92988100D01*
X110398158Y-92973182D01*
X110419455Y-92959226D01*
X110441388Y-92946232D01*
X110463957Y-92934201D01*
X110487161Y-92923133D01*
X110511002Y-92913027D01*
X110535477Y-92903883D01*
X110560589Y-92895702D01*
X110586337Y-92888483D01*
X110612720Y-92882227D01*
X110639739Y-92876934D01*
X110667393Y-92872603D01*
X110695684Y-92869234D01*
X110724610Y-92866828D01*
X110754172Y-92865384D01*
X110784370Y-92864903D01*
X110817365Y-92865460D01*
G37*
G36*
X116790820Y-105152171D02*
G01*
X116773782Y-105169176D01*
X116756709Y-105187084D01*
X116739601Y-105205893D01*
X116722456Y-105225604D01*
X116705276Y-105246218D01*
X116688060Y-105267733D01*
X116670809Y-105290150D01*
X116653521Y-105313469D01*
X116636198Y-105337691D01*
X116618840Y-105362814D01*
X116601445Y-105388839D01*
X116584015Y-105415767D01*
X116566549Y-105443596D01*
X116549048Y-105472327D01*
X116513938Y-105532496D01*
X116479791Y-105594964D01*
X116447719Y-105658423D01*
X116417721Y-105722872D01*
X116389796Y-105788312D01*
X116363946Y-105854742D01*
X116340169Y-105922162D01*
X116318467Y-105990573D01*
X116298838Y-106059974D01*
X116281693Y-106128667D01*
X116266873Y-106195522D01*
X116254376Y-106260537D01*
X116244204Y-106323712D01*
X116236356Y-106385049D01*
X116230832Y-106444546D01*
X116227633Y-106502203D01*
X116226757Y-106558022D01*
X115916692Y-106558022D01*
X115918190Y-106514955D01*
X115920679Y-106471783D01*
X115924161Y-106428504D01*
X115928635Y-106385120D01*
X115934101Y-106341629D01*
X115940559Y-106298032D01*
X115948009Y-106254330D01*
X115956452Y-106210521D01*
X115965887Y-106166605D01*
X115976314Y-106122584D01*
X115987733Y-106078457D01*
X116000144Y-106034223D01*
X116027943Y-105945438D01*
X116059711Y-105856229D01*
X116095162Y-105767991D01*
X116133437Y-105682124D01*
X116174536Y-105598626D01*
X116218461Y-105517499D01*
X116241482Y-105477824D01*
X116265210Y-105438741D01*
X116289644Y-105400251D01*
X116314784Y-105362354D01*
X116340630Y-105325048D01*
X116367182Y-105288336D01*
X116394441Y-105252216D01*
X116422406Y-105216688D01*
X115691295Y-105216689D01*
X115691295Y-104921258D01*
X116790820Y-104921258D01*
X116790820Y-105152171D01*
G37*
G36*
X119205501Y-98559543D02*
G01*
X119205501Y-101374386D01*
X118605501Y-101374386D01*
X118605501Y-99159543D01*
X116536555Y-99159543D01*
X116536555Y-101332199D01*
X115936555Y-101332199D01*
X115936555Y-98559542D01*
X119205501Y-98559543D01*
G37*
G36*
X105028158Y-101374386D02*
G01*
X104428158Y-101374386D01*
X104428158Y-99159543D01*
X102359213Y-99159543D01*
X102359213Y-101332199D01*
X101759213Y-101332199D01*
X101759213Y-98559542D01*
X105028158Y-98559542D01*
X105028158Y-101374386D01*
G37*
G36*
X116588614Y-97917428D02*
G01*
X117496063Y-97917428D01*
X117496063Y-98218713D01*
X116223661Y-98218713D01*
X116223661Y-96445156D01*
X116588614Y-96445156D01*
X116588614Y-97917428D01*
G37*
G36*
X105930041Y-106118271D02*
G01*
X105930039Y-106118271D01*
X105930039Y-106118258D01*
X105930041Y-106118271D01*
G37*
G36*
X108941837Y-102278404D02*
G01*
X108986834Y-102279200D01*
X109028649Y-102280527D01*
X109067282Y-102282384D01*
X109102732Y-102284772D01*
X109135001Y-102287690D01*
X109164087Y-102291139D01*
X109189991Y-102295119D01*
X109202206Y-102297241D01*
X109214251Y-102299645D01*
X109226126Y-102302333D01*
X109237831Y-102305304D01*
X109249366Y-102308558D01*
X109260732Y-102312095D01*
X109271928Y-102315915D01*
X109282953Y-102320018D01*
X109293809Y-102324405D01*
X109304495Y-102329074D01*
X109315012Y-102334027D01*
X109325358Y-102339262D01*
X109335535Y-102344781D01*
X109345541Y-102350583D01*
X109355378Y-102356668D01*
X109365045Y-102363036D01*
X109374668Y-102369682D01*
X109384085Y-102376602D01*
X109393296Y-102383795D01*
X109402302Y-102391263D01*
X109411102Y-102399005D01*
X109419696Y-102407022D01*
X109428085Y-102415312D01*
X109436268Y-102423877D01*
X109444246Y-102432715D01*
X109452018Y-102441828D01*
X109459585Y-102451215D01*
X109466946Y-102460877D01*
X109474101Y-102470812D01*
X109481051Y-102481021D01*
X109487795Y-102491505D01*
X109494334Y-102502263D01*
X109500568Y-102513100D01*
X109506401Y-102524105D01*
X109511831Y-102535278D01*
X109516859Y-102546620D01*
X109521485Y-102558129D01*
X109525708Y-102569806D01*
X109529530Y-102581652D01*
X109532949Y-102593665D01*
X109535965Y-102605847D01*
X109538580Y-102618197D01*
X109540792Y-102630714D01*
X109542602Y-102643400D01*
X109544010Y-102656253D01*
X109545016Y-102669275D01*
X109545619Y-102682465D01*
X109545820Y-102695823D01*
X109545570Y-102710321D01*
X109544819Y-102724668D01*
X109543568Y-102738866D01*
X109541816Y-102752913D01*
X109539563Y-102766810D01*
X109536810Y-102780557D01*
X109533556Y-102794153D01*
X109529802Y-102807599D01*
X109525547Y-102820895D01*
X109520792Y-102834040D01*
X109515536Y-102847035D01*
X109509780Y-102859880D01*
X109503523Y-102872574D01*
X109496765Y-102885119D01*
X109489507Y-102897513D01*
X109481748Y-102909756D01*
X109473703Y-102921734D01*
X109465301Y-102933332D01*
X109456541Y-102944549D01*
X109447424Y-102955386D01*
X109437949Y-102965843D01*
X109428116Y-102975920D01*
X109417926Y-102985616D01*
X109407378Y-102994933D01*
X109396473Y-103003869D01*
X109385211Y-103012425D01*
X109373590Y-103020600D01*
X109361613Y-103028396D01*
X109349277Y-103035811D01*
X109336585Y-103042846D01*
X109323534Y-103049500D01*
X109310126Y-103055775D01*
X109329014Y-103061536D01*
X109347347Y-103067784D01*
X109365126Y-103074518D01*
X109382350Y-103081738D01*
X109399021Y-103089445D01*
X109415137Y-103097638D01*
X109430699Y-103106318D01*
X109445707Y-103115484D01*
X109460161Y-103125136D01*
X109474060Y-103135275D01*
X109487406Y-103145900D01*
X109500197Y-103157011D01*
X109512434Y-103168609D01*
X109524117Y-103180693D01*
X109535245Y-103193264D01*
X109545820Y-103206321D01*
X109555795Y-103219767D01*
X109565127Y-103233504D01*
X109573815Y-103247534D01*
X109581860Y-103261856D01*
X109589261Y-103276469D01*
X109596019Y-103291374D01*
X109602133Y-103306571D01*
X109607604Y-103322060D01*
X109612430Y-103337840D01*
X109616614Y-103353913D01*
X109620153Y-103370277D01*
X109623050Y-103386933D01*
X109625302Y-103403881D01*
X109626911Y-103421121D01*
X109627876Y-103438652D01*
X109628198Y-103456476D01*
X109627988Y-103470603D01*
X109627358Y-103484686D01*
X109626308Y-103498724D01*
X109624837Y-103512719D01*
X109622947Y-103526669D01*
X109620636Y-103540575D01*
X109617905Y-103554436D01*
X109614755Y-103568254D01*
X109611184Y-103582027D01*
X109607192Y-103595756D01*
X109602781Y-103609441D01*
X109597950Y-103623081D01*
X109592699Y-103636677D01*
X109587027Y-103650229D01*
X109580935Y-103663737D01*
X109574424Y-103677200D01*
X109567688Y-103690337D01*
X109560640Y-103703146D01*
X109553279Y-103715628D01*
X109545605Y-103727783D01*
X109537618Y-103739611D01*
X109529319Y-103751111D01*
X109520706Y-103762285D01*
X109511781Y-103773131D01*
X109502543Y-103783649D01*
X109492992Y-103793841D01*
X109483128Y-103803705D01*
X109472952Y-103813243D01*
X109462462Y-103822453D01*
X109451660Y-103831335D01*
X109440545Y-103839891D01*
X109429117Y-103848119D01*
X109417505Y-103855853D01*
X109405555Y-103863206D01*
X109393264Y-103870179D01*
X109380634Y-103876772D01*
X109367664Y-103882984D01*
X109354354Y-103888816D01*
X109340705Y-103894268D01*
X109326716Y-103899340D01*
X109312387Y-103904031D01*
X109297719Y-103908343D01*
X109282711Y-103912274D01*
X109267363Y-103915824D01*
X109251675Y-103918994D01*
X109235648Y-103921785D01*
X109219282Y-103924194D01*
X109202575Y-103926224D01*
X109177672Y-103928382D01*
X109145297Y-103930328D01*
X109105448Y-103932061D01*
X109058127Y-103933581D01*
X108941067Y-103935983D01*
X108794116Y-103937534D01*
X108223186Y-103937534D01*
X108223186Y-103657956D01*
X108561854Y-103657956D01*
X108875350Y-103657956D01*
X108958516Y-103657318D01*
X108993823Y-103656522D01*
X109024948Y-103655406D01*
X109051889Y-103653972D01*
X109074647Y-103652218D01*
X109093221Y-103650146D01*
X109107612Y-103647756D01*
X109116940Y-103645907D01*
X109126044Y-103643757D01*
X109134924Y-103641307D01*
X109143581Y-103638556D01*
X109152015Y-103635505D01*
X109160225Y-103632153D01*
X109168212Y-103628501D01*
X109175975Y-103624548D01*
X109183515Y-103620294D01*
X109190831Y-103615740D01*
X109197924Y-103610885D01*
X109204793Y-103605730D01*
X109211439Y-103600274D01*
X109217862Y-103594518D01*
X109224060Y-103588461D01*
X109230036Y-103582103D01*
X109235855Y-103575316D01*
X109241299Y-103568254D01*
X109246367Y-103560919D01*
X109251060Y-103553309D01*
X109255377Y-103545425D01*
X109259319Y-103537267D01*
X109262885Y-103528835D01*
X109266076Y-103520129D01*
X109268892Y-103511149D01*
X109271332Y-103501894D01*
X109273397Y-103492366D01*
X109275086Y-103482563D01*
X109276400Y-103472486D01*
X109277339Y-103462135D01*
X109277902Y-103451510D01*
X109278090Y-103440611D01*
X109277947Y-103431361D01*
X109277518Y-103422288D01*
X109276803Y-103413392D01*
X109275801Y-103404673D01*
X109274514Y-103396131D01*
X109272941Y-103387765D01*
X109271082Y-103379576D01*
X109268937Y-103371565D01*
X109266505Y-103363730D01*
X109263788Y-103356071D01*
X109260785Y-103348590D01*
X109257495Y-103341286D01*
X109253920Y-103334158D01*
X109250058Y-103327207D01*
X109245911Y-103320434D01*
X109241477Y-103313837D01*
X109236771Y-103307439D01*
X109231806Y-103301262D01*
X109226581Y-103295306D01*
X109221097Y-103289571D01*
X109215354Y-103284057D01*
X109209352Y-103278765D01*
X109203090Y-103273693D01*
X109196569Y-103268843D01*
X109189789Y-103264213D01*
X109182750Y-103259805D01*
X109175452Y-103255617D01*
X109167894Y-103251651D01*
X109160077Y-103247906D01*
X109152001Y-103244382D01*
X109143666Y-103241079D01*
X109135071Y-103237997D01*
X109125855Y-103235120D01*
X109115370Y-103232428D01*
X109103616Y-103229922D01*
X109090593Y-103227602D01*
X109076300Y-103225467D01*
X109060738Y-103223518D01*
X109043906Y-103221755D01*
X109025805Y-103220177D01*
X108985796Y-103217578D01*
X108940709Y-103215722D01*
X108890546Y-103214608D01*
X108835305Y-103214236D01*
X108561854Y-103214241D01*
X108561854Y-103657956D01*
X108223186Y-103657956D01*
X108223187Y-102938052D01*
X108561854Y-102938052D01*
X108783819Y-102938052D01*
X108873420Y-102937697D01*
X108944285Y-102936634D01*
X108996415Y-102934862D01*
X109015455Y-102933710D01*
X109029810Y-102932381D01*
X109040532Y-102930956D01*
X109050959Y-102929230D01*
X109061091Y-102927204D01*
X109070928Y-102924877D01*
X109080470Y-102922250D01*
X109089717Y-102919323D01*
X109098669Y-102916095D01*
X109107327Y-102912566D01*
X109115689Y-102908737D01*
X109123756Y-102904608D01*
X109131528Y-102900178D01*
X109139005Y-102895447D01*
X109146187Y-102890416D01*
X109153075Y-102885085D01*
X109159667Y-102879453D01*
X109165964Y-102873521D01*
X109172061Y-102867176D01*
X109177763Y-102860592D01*
X109183073Y-102853770D01*
X109187989Y-102846709D01*
X109192512Y-102839409D01*
X109196642Y-102831870D01*
X109200378Y-102824093D01*
X109203721Y-102816076D01*
X109206671Y-102807822D01*
X109209228Y-102799328D01*
X109211391Y-102790595D01*
X109213161Y-102781624D01*
X109214537Y-102772414D01*
X109215520Y-102762965D01*
X109216110Y-102753277D01*
X109216307Y-102743351D01*
X109216137Y-102733845D01*
X109215628Y-102724568D01*
X109214779Y-102715522D01*
X109213590Y-102706705D01*
X109212061Y-102698118D01*
X109210193Y-102689761D01*
X109207985Y-102681635D01*
X109205438Y-102673738D01*
X109202551Y-102666071D01*
X109199324Y-102658634D01*
X109195757Y-102651427D01*
X109191851Y-102644449D01*
X109187605Y-102637702D01*
X109183020Y-102631184D01*
X109178095Y-102624897D01*
X109172830Y-102618839D01*
X109167373Y-102612905D01*
X109161585Y-102607272D01*
X109155466Y-102601939D01*
X109149017Y-102596907D01*
X109142237Y-102592176D01*
X109135127Y-102587746D01*
X109127685Y-102583616D01*
X109119913Y-102579787D01*
X109111810Y-102576258D01*
X109103377Y-102573030D01*
X109094612Y-102570103D01*
X109085517Y-102567477D01*
X109076091Y-102565151D01*
X109066335Y-102563127D01*
X109056248Y-102561402D01*
X109045830Y-102559979D01*
X109030294Y-102558650D01*
X109008859Y-102557498D01*
X108981525Y-102556524D01*
X108948291Y-102555726D01*
X108864124Y-102554663D01*
X108756360Y-102554308D01*
X108561854Y-102554328D01*
X108561854Y-102938052D01*
X108223187Y-102938052D01*
X108223187Y-102278139D01*
X108893657Y-102278139D01*
X108941837Y-102278404D01*
G37*
G36*
X118694492Y-97557594D02*
G01*
X118918888Y-97557594D01*
X118918888Y-97858879D01*
X118694492Y-97858879D01*
X118694492Y-98218713D01*
X118359127Y-98218713D01*
X118359127Y-97858879D01*
X117619357Y-97858879D01*
X117619357Y-97558814D01*
X117620199Y-97557594D01*
X117943624Y-97557594D01*
X118359127Y-97557594D01*
X118359127Y-96946485D01*
X117943624Y-97557594D01*
X117620199Y-97557594D01*
X118403515Y-96423200D01*
X118694492Y-96423200D01*
X118694492Y-97557594D01*
G37*
G36*
X106500459Y-104892966D02*
G01*
X106528964Y-104894717D01*
X106556737Y-104897635D01*
X106583776Y-104901720D01*
X106610083Y-104906973D01*
X106635656Y-104913393D01*
X106660497Y-104920981D01*
X106684604Y-104929736D01*
X106707979Y-104939658D01*
X106730621Y-104950747D01*
X106752529Y-104963004D01*
X106773705Y-104976428D01*
X106794148Y-104991019D01*
X106813858Y-105006778D01*
X106832834Y-105023704D01*
X106851078Y-105041797D01*
X106865349Y-105057202D01*
X106878699Y-105072854D01*
X106891128Y-105088754D01*
X106902636Y-105104902D01*
X106913224Y-105121297D01*
X106922891Y-105137940D01*
X106931638Y-105154830D01*
X106939464Y-105171968D01*
X106946369Y-105189354D01*
X106952353Y-105206987D01*
X106957417Y-105224868D01*
X106961560Y-105242996D01*
X106964782Y-105261373D01*
X106967084Y-105279996D01*
X106968465Y-105298868D01*
X106968925Y-105317987D01*
X106967982Y-105344949D01*
X106965153Y-105371222D01*
X106960438Y-105396805D01*
X106953837Y-105421699D01*
X106945350Y-105445902D01*
X106934976Y-105469416D01*
X106922717Y-105492240D01*
X106908571Y-105514375D01*
X106892540Y-105535820D01*
X106874622Y-105556575D01*
X106854819Y-105576640D01*
X106833129Y-105596015D01*
X106809553Y-105614701D01*
X106784091Y-105632697D01*
X106756743Y-105650003D01*
X106727509Y-105666620D01*
X106745302Y-105670736D01*
X106762638Y-105675445D01*
X106779519Y-105680746D01*
X106795944Y-105686640D01*
X106811913Y-105693126D01*
X106827426Y-105700205D01*
X106842483Y-105707877D01*
X106857085Y-105716140D01*
X106871230Y-105724997D01*
X106884920Y-105734446D01*
X106898153Y-105744487D01*
X106910931Y-105755121D01*
X106923253Y-105766347D01*
X106935119Y-105778166D01*
X106946529Y-105790577D01*
X106957484Y-105803581D01*
X106968013Y-105817054D01*
X106977864Y-105830871D01*
X106987035Y-105845034D01*
X106995526Y-105859541D01*
X107003339Y-105874393D01*
X107010472Y-105889590D01*
X107016926Y-105905132D01*
X107022700Y-105921019D01*
X107027795Y-105937251D01*
X107032211Y-105953827D01*
X107035947Y-105970748D01*
X107039004Y-105988015D01*
X107041382Y-106005626D01*
X107043080Y-106023582D01*
X107044099Y-106041883D01*
X107044439Y-106060529D01*
X107043809Y-106087584D01*
X107041918Y-106114136D01*
X107038767Y-106140184D01*
X107034356Y-106165727D01*
X107028684Y-106190767D01*
X107021753Y-106215302D01*
X107013560Y-106239334D01*
X107004108Y-106262861D01*
X106993395Y-106285884D01*
X106981421Y-106308403D01*
X106968188Y-106330418D01*
X106953694Y-106351929D01*
X106937939Y-106372935D01*
X106920925Y-106393438D01*
X106902650Y-106413436D01*
X106883114Y-106432931D01*
X106862640Y-106451572D01*
X106841549Y-106469011D01*
X106819842Y-106485247D01*
X106797518Y-106500281D01*
X106774577Y-106514111D01*
X106751019Y-106526739D01*
X106726844Y-106538165D01*
X106702053Y-106548388D01*
X106676645Y-106557408D01*
X106650620Y-106565225D01*
X106623978Y-106571840D01*
X106596720Y-106577252D01*
X106568844Y-106581461D01*
X106540352Y-106584468D01*
X106511244Y-106586272D01*
X106481518Y-106586873D01*
X106453361Y-106586369D01*
X106425812Y-106584857D01*
X106398871Y-106582337D01*
X106372538Y-106578808D01*
X106346813Y-106574272D01*
X106321695Y-106568727D01*
X106297185Y-106562175D01*
X106273283Y-106554614D01*
X106249989Y-106546045D01*
X106227303Y-106536468D01*
X106205224Y-106525882D01*
X106183754Y-106514289D01*
X106162891Y-106501688D01*
X106142636Y-106488078D01*
X106122989Y-106473460D01*
X106103950Y-106457834D01*
X106085706Y-106441254D01*
X106068445Y-106424054D01*
X106052168Y-106406235D01*
X106036874Y-106387797D01*
X106022563Y-106368740D01*
X106009235Y-106349065D01*
X105996891Y-106328770D01*
X105985530Y-106307856D01*
X105975152Y-106286323D01*
X105965758Y-106264170D01*
X105957347Y-106241399D01*
X105949919Y-106218009D01*
X105943474Y-106194000D01*
X105938013Y-106169372D01*
X105933534Y-106144125D01*
X105930041Y-106118271D01*
X106241247Y-106080917D01*
X106243302Y-106095416D01*
X106245752Y-106109481D01*
X106248594Y-106123112D01*
X106251830Y-106136311D01*
X106255459Y-106149076D01*
X106259481Y-106161408D01*
X106263897Y-106173306D01*
X106268706Y-106184771D01*
X106273908Y-106195803D01*
X106279504Y-106206401D01*
X106285493Y-106216566D01*
X106291875Y-106226298D01*
X106298650Y-106235597D01*
X106305819Y-106244462D01*
X106313381Y-106252894D01*
X106321337Y-106260893D01*
X106329596Y-106268432D01*
X106338070Y-106275484D01*
X106346758Y-106282050D01*
X106355661Y-106288130D01*
X106364779Y-106293723D01*
X106374111Y-106298830D01*
X106383657Y-106303451D01*
X106393418Y-106307585D01*
X106403394Y-106311233D01*
X106413584Y-106314394D01*
X106423988Y-106317069D01*
X106434607Y-106319258D01*
X106445441Y-106320960D01*
X106456489Y-106322176D01*
X106467752Y-106322906D01*
X106479229Y-106323149D01*
X106491546Y-106322857D01*
X106503613Y-106321981D01*
X106515430Y-106320522D01*
X106526997Y-106318479D01*
X106538313Y-106315853D01*
X106549380Y-106312643D01*
X106560195Y-106308849D01*
X106570761Y-106304471D01*
X106581076Y-106299510D01*
X106591141Y-106293965D01*
X106600956Y-106287837D01*
X106610520Y-106281125D01*
X106619834Y-106273829D01*
X106628898Y-106265949D01*
X106637711Y-106257486D01*
X106646275Y-106248439D01*
X106654588Y-106238898D01*
X106662364Y-106228949D01*
X106669604Y-106218594D01*
X106676308Y-106207832D01*
X106682476Y-106196663D01*
X106688107Y-106185087D01*
X106693202Y-106173105D01*
X106697761Y-106160716D01*
X106701783Y-106147919D01*
X106705269Y-106134716D01*
X106708219Y-106121107D01*
X106710633Y-106107090D01*
X106712510Y-106092667D01*
X106713851Y-106077837D01*
X106714655Y-106062600D01*
X106714923Y-106046956D01*
X106714668Y-106032153D01*
X106713904Y-106017738D01*
X106712631Y-106003713D01*
X106710847Y-105990077D01*
X106708555Y-105976831D01*
X106705752Y-105963973D01*
X106702441Y-105951504D01*
X106698619Y-105939424D01*
X106694289Y-105927734D01*
X106689448Y-105916433D01*
X106684099Y-105905520D01*
X106678239Y-105894997D01*
X106671871Y-105884863D01*
X106664992Y-105875118D01*
X106657605Y-105865762D01*
X106649707Y-105856795D01*
X106641444Y-105848297D01*
X106632956Y-105840346D01*
X106624246Y-105832944D01*
X106615311Y-105826090D01*
X106606154Y-105819785D01*
X106596773Y-105814028D01*
X106587168Y-105808819D01*
X106577340Y-105804159D01*
X106567288Y-105800046D01*
X106557013Y-105796482D01*
X106546515Y-105793467D01*
X106535793Y-105790999D01*
X106524848Y-105789080D01*
X106513679Y-105787710D01*
X106502286Y-105786887D01*
X106490671Y-105786613D01*
X106482854Y-105786706D01*
X106474849Y-105786984D01*
X106458277Y-105788098D01*
X106440954Y-105789954D01*
X106422880Y-105792553D01*
X106404055Y-105795895D01*
X106384480Y-105799978D01*
X106364153Y-105804805D01*
X106343076Y-105810373D01*
X106378545Y-105551161D01*
X106394607Y-105551342D01*
X106410188Y-105551036D01*
X106425285Y-105550244D01*
X106439900Y-105548966D01*
X106454032Y-105547202D01*
X106467681Y-105544951D01*
X106480848Y-105542214D01*
X106493532Y-105538990D01*
X106505733Y-105535281D01*
X106517451Y-105531085D01*
X106528687Y-105526403D01*
X106539440Y-105521234D01*
X106549711Y-105515579D01*
X106559499Y-105509438D01*
X106568804Y-105502811D01*
X106577626Y-105495697D01*
X106585939Y-105488048D01*
X106593716Y-105480098D01*
X106600956Y-105471848D01*
X106607660Y-105463297D01*
X106613828Y-105454445D01*
X106619459Y-105445292D01*
X106624554Y-105435839D01*
X106629113Y-105426085D01*
X106633135Y-105416030D01*
X106636622Y-105405675D01*
X106639571Y-105395019D01*
X106641985Y-105384062D01*
X106643862Y-105372805D01*
X106645203Y-105361247D01*
X106646007Y-105349388D01*
X106646275Y-105337229D01*
X106646079Y-105326891D01*
X106645489Y-105316819D01*
X106644505Y-105307012D01*
X106643129Y-105297470D01*
X106641359Y-105288194D01*
X106639196Y-105279183D01*
X106636639Y-105270437D01*
X106633690Y-105261956D01*
X106630347Y-105253741D01*
X106626610Y-105245791D01*
X106622480Y-105238106D01*
X106617958Y-105230687D01*
X106613041Y-105223533D01*
X106607732Y-105216644D01*
X106602029Y-105210021D01*
X106595933Y-105203663D01*
X106589510Y-105197631D01*
X106582829Y-105191989D01*
X106575888Y-105186736D01*
X106568688Y-105181872D01*
X106561229Y-105177398D01*
X106553510Y-105173312D01*
X106545532Y-105169616D01*
X106537295Y-105166308D01*
X106528799Y-105163390D01*
X106520044Y-105160861D01*
X106511029Y-105158721D01*
X106501755Y-105156970D01*
X106492222Y-105155608D01*
X106482430Y-105154635D01*
X106472378Y-105154051D01*
X106462068Y-105153857D01*
X106451864Y-105154078D01*
X106441849Y-105154741D01*
X106432020Y-105155846D01*
X106422380Y-105157394D01*
X106412928Y-105159384D01*
X106403663Y-105161816D01*
X106394585Y-105164690D01*
X106385696Y-105168006D01*
X106376994Y-105171764D01*
X106368480Y-105175965D01*
X106360154Y-105180608D01*
X106352015Y-105185693D01*
X106344064Y-105191220D01*
X106336301Y-105197189D01*
X106328725Y-105203601D01*
X106321337Y-105210455D01*
X106314222Y-105217732D01*
X106307465Y-105225417D01*
X106301065Y-105233508D01*
X106295022Y-105242006D01*
X106289337Y-105250911D01*
X106284010Y-105260223D01*
X106279040Y-105269942D01*
X106274428Y-105280067D01*
X106270173Y-105290599D01*
X106266275Y-105301538D01*
X106262736Y-105312884D01*
X106259554Y-105324637D01*
X106256729Y-105336796D01*
X106254262Y-105349362D01*
X106252152Y-105362335D01*
X106250400Y-105375715D01*
X105954066Y-105325909D01*
X105962272Y-105289228D01*
X105971443Y-105254457D01*
X105976391Y-105237788D01*
X105981580Y-105221596D01*
X105987010Y-105205882D01*
X105992681Y-105190645D01*
X105998594Y-105175886D01*
X106004749Y-105161604D01*
X106011144Y-105147800D01*
X106017781Y-105134473D01*
X106024660Y-105121624D01*
X106031779Y-105109253D01*
X106039140Y-105097359D01*
X106046743Y-105085943D01*
X106054797Y-105074778D01*
X106063226Y-105063923D01*
X106072030Y-105053378D01*
X106081210Y-105043141D01*
X106090766Y-105033215D01*
X106100697Y-105023598D01*
X106111003Y-105014290D01*
X106121685Y-105005292D01*
X106132742Y-104996604D01*
X106144174Y-104988225D01*
X106155982Y-104980155D01*
X106168165Y-104972395D01*
X106180724Y-104964945D01*
X106193658Y-104957804D01*
X106206968Y-104950972D01*
X106220653Y-104944450D01*
X106234771Y-104938145D01*
X106249096Y-104932247D01*
X106263625Y-104926755D01*
X106278361Y-104921671D01*
X106293301Y-104916992D01*
X106308448Y-104912721D01*
X106323800Y-104908857D01*
X106339358Y-104905399D01*
X106355121Y-104902348D01*
X106371090Y-104899704D01*
X106387264Y-104897467D01*
X106403644Y-104895636D01*
X106420230Y-104894213D01*
X106437021Y-104893196D01*
X106454018Y-104892585D01*
X106471221Y-104892382D01*
X106500459Y-104892966D01*
G37*
G36*
X118695655Y-102278405D02*
G01*
X118740653Y-102279201D01*
X118782468Y-102280527D01*
X118821101Y-102282385D01*
X118856552Y-102284772D01*
X118888820Y-102287691D01*
X118917906Y-102291140D01*
X118943810Y-102295120D01*
X118956025Y-102297241D01*
X118968070Y-102299646D01*
X118979945Y-102302334D01*
X118991650Y-102305304D01*
X119003186Y-102308558D01*
X119014551Y-102312095D01*
X119025747Y-102315916D01*
X119036773Y-102320019D01*
X119047629Y-102324405D01*
X119058315Y-102329075D01*
X119068831Y-102334027D01*
X119079178Y-102339263D01*
X119089355Y-102344782D01*
X119099362Y-102350584D01*
X119109199Y-102356669D01*
X119118866Y-102363037D01*
X119128488Y-102369682D01*
X119137905Y-102376602D01*
X119147117Y-102383796D01*
X119156122Y-102391264D01*
X119164922Y-102399006D01*
X119173517Y-102407022D01*
X119181906Y-102415312D01*
X119190089Y-102423877D01*
X119198067Y-102432716D01*
X119205839Y-102441828D01*
X119213406Y-102451215D01*
X119220766Y-102460877D01*
X119227922Y-102470812D01*
X119234872Y-102481021D01*
X119241616Y-102491505D01*
X119248154Y-102502263D01*
X119254389Y-102513100D01*
X119260222Y-102524105D01*
X119265652Y-102535278D01*
X119270680Y-102546620D01*
X119275305Y-102558129D01*
X119279529Y-102569806D01*
X119283350Y-102581652D01*
X119286769Y-102593665D01*
X119289786Y-102605847D01*
X119292400Y-102618197D01*
X119294612Y-102630714D01*
X119296422Y-102643400D01*
X119297830Y-102656253D01*
X119298836Y-102669275D01*
X119299439Y-102682465D01*
X119299640Y-102695823D01*
X119299390Y-102710321D01*
X119298639Y-102724668D01*
X119297388Y-102738866D01*
X119295636Y-102752913D01*
X119293383Y-102766810D01*
X119290630Y-102780557D01*
X119287377Y-102794153D01*
X119283623Y-102807599D01*
X119279368Y-102820895D01*
X119274613Y-102834040D01*
X119269357Y-102847035D01*
X119263600Y-102859880D01*
X119257343Y-102872574D01*
X119250586Y-102885119D01*
X119243328Y-102897513D01*
X119235569Y-102909756D01*
X119227525Y-102921734D01*
X119219122Y-102933332D01*
X119210363Y-102944549D01*
X119201245Y-102955386D01*
X119191770Y-102965843D01*
X119181938Y-102975920D01*
X119171748Y-102985616D01*
X119161200Y-102994933D01*
X119150295Y-103003869D01*
X119139033Y-103012425D01*
X119127412Y-103020600D01*
X119115435Y-103028396D01*
X119103099Y-103035811D01*
X119090406Y-103042846D01*
X119077356Y-103049500D01*
X119063948Y-103055775D01*
X119082835Y-103061536D01*
X119101169Y-103067784D01*
X119118947Y-103074518D01*
X119136172Y-103081738D01*
X119152843Y-103089445D01*
X119168959Y-103097638D01*
X119184521Y-103106318D01*
X119199529Y-103115484D01*
X119213983Y-103125136D01*
X119227882Y-103135275D01*
X119241227Y-103145900D01*
X119254018Y-103157011D01*
X119266255Y-103168609D01*
X119277938Y-103180693D01*
X119289066Y-103193264D01*
X119299640Y-103206321D01*
X119309616Y-103219767D01*
X119318948Y-103233504D01*
X119327637Y-103247534D01*
X119335682Y-103261856D01*
X119343083Y-103276469D01*
X119349841Y-103291374D01*
X119355955Y-103306571D01*
X119361425Y-103322060D01*
X119366252Y-103337840D01*
X119370436Y-103353913D01*
X119373976Y-103370277D01*
X119376872Y-103386933D01*
X119379124Y-103403881D01*
X119380733Y-103421121D01*
X119381699Y-103438652D01*
X119382021Y-103456476D01*
X119381810Y-103470603D01*
X119381180Y-103484686D01*
X119380130Y-103498724D01*
X119378660Y-103512719D01*
X119376769Y-103526669D01*
X119374458Y-103540575D01*
X119371728Y-103554436D01*
X119368577Y-103568254D01*
X119365006Y-103582027D01*
X119361015Y-103595756D01*
X119356604Y-103609441D01*
X119351772Y-103623081D01*
X119346521Y-103636677D01*
X119340849Y-103650229D01*
X119334758Y-103663737D01*
X119328246Y-103677200D01*
X119321510Y-103690337D01*
X119314462Y-103703146D01*
X119307101Y-103715628D01*
X119299427Y-103727783D01*
X119291440Y-103739611D01*
X119283140Y-103751111D01*
X119274528Y-103762285D01*
X119265602Y-103773131D01*
X119256364Y-103783649D01*
X119246813Y-103793841D01*
X119236949Y-103803705D01*
X119226773Y-103813243D01*
X119216283Y-103822453D01*
X119205481Y-103831335D01*
X119194366Y-103839891D01*
X119182938Y-103848119D01*
X119171327Y-103855853D01*
X119159376Y-103863206D01*
X119147086Y-103870179D01*
X119134455Y-103876772D01*
X119121486Y-103882984D01*
X119108176Y-103888816D01*
X119094527Y-103894268D01*
X119080538Y-103899340D01*
X119066209Y-103904031D01*
X119051541Y-103908343D01*
X119036532Y-103912274D01*
X119021185Y-103915824D01*
X119005497Y-103918994D01*
X118989470Y-103921785D01*
X118973103Y-103924194D01*
X118956396Y-103926224D01*
X118931494Y-103928382D01*
X118899118Y-103930328D01*
X118859270Y-103932061D01*
X118811949Y-103933581D01*
X118694888Y-103935983D01*
X118547937Y-103937534D01*
X117977008Y-103937534D01*
X117977007Y-103657956D01*
X118315673Y-103657956D01*
X118629170Y-103657956D01*
X118712335Y-103657318D01*
X118747642Y-103656522D01*
X118778767Y-103655406D01*
X118805708Y-103653972D01*
X118828466Y-103652218D01*
X118847041Y-103650146D01*
X118861432Y-103647756D01*
X118870760Y-103645907D01*
X118879863Y-103643757D01*
X118888744Y-103641307D01*
X118897401Y-103638556D01*
X118905834Y-103635505D01*
X118914045Y-103632153D01*
X118922031Y-103628501D01*
X118929795Y-103624548D01*
X118937334Y-103620294D01*
X118944651Y-103615740D01*
X118951744Y-103610885D01*
X118958613Y-103605730D01*
X118965259Y-103600274D01*
X118971682Y-103594518D01*
X118977881Y-103588461D01*
X118983857Y-103582103D01*
X118989675Y-103575316D01*
X118995119Y-103568254D01*
X119000187Y-103560919D01*
X119004880Y-103553309D01*
X119009197Y-103545425D01*
X119013139Y-103537267D01*
X119016706Y-103528835D01*
X119019897Y-103520129D01*
X119022712Y-103511149D01*
X119025153Y-103501894D01*
X119027217Y-103492366D01*
X119028907Y-103482563D01*
X119030221Y-103472486D01*
X119031159Y-103462135D01*
X119031723Y-103451510D01*
X119031910Y-103440611D01*
X119031767Y-103431361D01*
X119031338Y-103422288D01*
X119030623Y-103413392D01*
X119029622Y-103404673D01*
X119028335Y-103396131D01*
X119026761Y-103387765D01*
X119024902Y-103379576D01*
X119022756Y-103371565D01*
X119020325Y-103363730D01*
X119017607Y-103356071D01*
X119014604Y-103348590D01*
X119011314Y-103341286D01*
X119007738Y-103334158D01*
X119003877Y-103327207D01*
X118999729Y-103320434D01*
X118995295Y-103313837D01*
X118990589Y-103307439D01*
X118985624Y-103301262D01*
X118980399Y-103295306D01*
X118974915Y-103289571D01*
X118969172Y-103284057D01*
X118963170Y-103278765D01*
X118956909Y-103273693D01*
X118950388Y-103268843D01*
X118943608Y-103264213D01*
X118936569Y-103259805D01*
X118929271Y-103255617D01*
X118921713Y-103251651D01*
X118913897Y-103247906D01*
X118905821Y-103244382D01*
X118897486Y-103241079D01*
X118888891Y-103237997D01*
X118879675Y-103235120D01*
X118869190Y-103232428D01*
X118857436Y-103229922D01*
X118844412Y-103227602D01*
X118830120Y-103225467D01*
X118814557Y-103223518D01*
X118797726Y-103221755D01*
X118779625Y-103220177D01*
X118739616Y-103217578D01*
X118694529Y-103215722D01*
X118644366Y-103214608D01*
X118589125Y-103214236D01*
X118315673Y-103214241D01*
X118315673Y-103657956D01*
X117977007Y-103657956D01*
X117977006Y-102938052D01*
X118315673Y-102938052D01*
X118537640Y-102938052D01*
X118627241Y-102937697D01*
X118698106Y-102936634D01*
X118750236Y-102934862D01*
X118769275Y-102933710D01*
X118783631Y-102932381D01*
X118794353Y-102930956D01*
X118804779Y-102929230D01*
X118814911Y-102927204D01*
X118824748Y-102924877D01*
X118834290Y-102922250D01*
X118843537Y-102919323D01*
X118852489Y-102916095D01*
X118861146Y-102912566D01*
X118869508Y-102908737D01*
X118877575Y-102904608D01*
X118885347Y-102900178D01*
X118892824Y-102895447D01*
X118900006Y-102890416D01*
X118906893Y-102885085D01*
X118913485Y-102879453D01*
X118919782Y-102873521D01*
X118925878Y-102867176D01*
X118931581Y-102860592D01*
X118936891Y-102853770D01*
X118941807Y-102846709D01*
X118946330Y-102839409D01*
X118950460Y-102831870D01*
X118954196Y-102824093D01*
X118957539Y-102816076D01*
X118960489Y-102807822D01*
X118963045Y-102799328D01*
X118965209Y-102790595D01*
X118966978Y-102781624D01*
X118968355Y-102772414D01*
X118969338Y-102762965D01*
X118969928Y-102753277D01*
X118970125Y-102743351D01*
X118969955Y-102733845D01*
X118969445Y-102724568D01*
X118968596Y-102715522D01*
X118967408Y-102706705D01*
X118965879Y-102698118D01*
X118964011Y-102689761D01*
X118961803Y-102681635D01*
X118959256Y-102673738D01*
X118956369Y-102666071D01*
X118953142Y-102658634D01*
X118949576Y-102651427D01*
X118945670Y-102644449D01*
X118941424Y-102637702D01*
X118936838Y-102631184D01*
X118931913Y-102624897D01*
X118926649Y-102618839D01*
X118921191Y-102612905D01*
X118915403Y-102607272D01*
X118909284Y-102601939D01*
X118902835Y-102596907D01*
X118896055Y-102592176D01*
X118888944Y-102587746D01*
X118881502Y-102583616D01*
X118873730Y-102579787D01*
X118865627Y-102576258D01*
X118857193Y-102573030D01*
X118848429Y-102570103D01*
X118839334Y-102567477D01*
X118829908Y-102565151D01*
X118820152Y-102563127D01*
X118810065Y-102561402D01*
X118799647Y-102559979D01*
X118784111Y-102558650D01*
X118762676Y-102557498D01*
X118735342Y-102556524D01*
X118702108Y-102555726D01*
X118617941Y-102554663D01*
X118510176Y-102554308D01*
X118315673Y-102554328D01*
X118315673Y-102938052D01*
X117977006Y-102938052D01*
X117977005Y-102278140D01*
X118647476Y-102278140D01*
X118695655Y-102278405D01*
G37*
G36*
X111853841Y-105204806D02*
G01*
X111247444Y-105204806D01*
X111197102Y-105486655D01*
X111210563Y-105480213D01*
X111224061Y-105474186D01*
X111237594Y-105468575D01*
X111251163Y-105463379D01*
X111264767Y-105458599D01*
X111278408Y-105454235D01*
X111292084Y-105450286D01*
X111305795Y-105446753D01*
X111319543Y-105443636D01*
X111333327Y-105440934D01*
X111347146Y-105438648D01*
X111361001Y-105436778D01*
X111374891Y-105435323D01*
X111388818Y-105434284D01*
X111402780Y-105433661D01*
X111416778Y-105433453D01*
X111443268Y-105434054D01*
X111469248Y-105435858D01*
X111494719Y-105438865D01*
X111519680Y-105443074D01*
X111544131Y-105448486D01*
X111568073Y-105455101D01*
X111591506Y-105462919D01*
X111614429Y-105471939D01*
X111636843Y-105482161D01*
X111658747Y-105493587D01*
X111680142Y-105506215D01*
X111701027Y-105520046D01*
X111721402Y-105535079D01*
X111741268Y-105551315D01*
X111760625Y-105568754D01*
X111779472Y-105587396D01*
X111797484Y-105606996D01*
X111814333Y-105627314D01*
X111830020Y-105648347D01*
X111844546Y-105670097D01*
X111857909Y-105692563D01*
X111870110Y-105715746D01*
X111881149Y-105739644D01*
X111891027Y-105764259D01*
X111899742Y-105789591D01*
X111907295Y-105815638D01*
X111913686Y-105842402D01*
X111918915Y-105869882D01*
X111922982Y-105898079D01*
X111925887Y-105926991D01*
X111927630Y-105956621D01*
X111928211Y-105986966D01*
X111927742Y-106012403D01*
X111926334Y-106037496D01*
X111923988Y-106062244D01*
X111920703Y-106086647D01*
X111916479Y-106110704D01*
X111911317Y-106134417D01*
X111905216Y-106157785D01*
X111898177Y-106180809D01*
X111890200Y-106203487D01*
X111881283Y-106225820D01*
X111871428Y-106247809D01*
X111860635Y-106269453D01*
X111848903Y-106290751D01*
X111836232Y-106311705D01*
X111822623Y-106332314D01*
X111808076Y-106352578D01*
X111787128Y-106379169D01*
X111765188Y-106404045D01*
X111742256Y-106427205D01*
X111718331Y-106448650D01*
X111693415Y-106468378D01*
X111667506Y-106486392D01*
X111640605Y-106502690D01*
X111612712Y-106517272D01*
X111583827Y-106530139D01*
X111553950Y-106541290D01*
X111523080Y-106550725D01*
X111491218Y-106558445D01*
X111458364Y-106564450D01*
X111424518Y-106568739D01*
X111389680Y-106571312D01*
X111353849Y-106572170D01*
X111325152Y-106571688D01*
X111297125Y-106570242D01*
X111269768Y-106567832D01*
X111243082Y-106564459D01*
X111217066Y-106560121D01*
X111191720Y-106554820D01*
X111167045Y-106548555D01*
X111143041Y-106541326D01*
X111119706Y-106533133D01*
X111097042Y-106523976D01*
X111075049Y-106513855D01*
X111053726Y-106502770D01*
X111033073Y-106490722D01*
X111013090Y-106477709D01*
X110993779Y-106463733D01*
X110975137Y-106448792D01*
X110957291Y-106433038D01*
X110940365Y-106416620D01*
X110924361Y-106399540D01*
X110909277Y-106381796D01*
X110895114Y-106363389D01*
X110881871Y-106344318D01*
X110869549Y-106324585D01*
X110858148Y-106304188D01*
X110847667Y-106283128D01*
X110838107Y-106261405D01*
X110829468Y-106239019D01*
X110821750Y-106215969D01*
X110814952Y-106192257D01*
X110809075Y-106167881D01*
X110804118Y-106142841D01*
X110800082Y-106117139D01*
X111120444Y-106084313D01*
X111122370Y-106097582D01*
X111124717Y-106110506D01*
X111127483Y-106123085D01*
X111130670Y-106135320D01*
X111134277Y-106147209D01*
X111138304Y-106158754D01*
X111142751Y-106169954D01*
X111147618Y-106180809D01*
X111152905Y-106191319D01*
X111158612Y-106201484D01*
X111164740Y-106211304D01*
X111171287Y-106220779D01*
X111178255Y-106229910D01*
X111185643Y-106238695D01*
X111193450Y-106247136D01*
X111201678Y-106255231D01*
X111210197Y-106262770D01*
X111218876Y-106269823D01*
X111227717Y-106276389D01*
X111236718Y-106282469D01*
X111245880Y-106288062D01*
X111255203Y-106293169D01*
X111264687Y-106297789D01*
X111274331Y-106301924D01*
X111284137Y-106305571D01*
X111294104Y-106308733D01*
X111304231Y-106311408D01*
X111314519Y-106313596D01*
X111324969Y-106315299D01*
X111335579Y-106316515D01*
X111346350Y-106317244D01*
X111357281Y-106317487D01*
X111369746Y-106317173D01*
X111381970Y-106316232D01*
X111393952Y-106314662D01*
X111405693Y-106312464D01*
X111417193Y-106309639D01*
X111428451Y-106306186D01*
X111439468Y-106302104D01*
X111450244Y-106297395D01*
X111460778Y-106292058D01*
X111471071Y-106286094D01*
X111481122Y-106279501D01*
X111490932Y-106272281D01*
X111500501Y-106264432D01*
X111509829Y-106255956D01*
X111518915Y-106246852D01*
X111527760Y-106237120D01*
X111536211Y-106226614D01*
X111544117Y-106215472D01*
X111551478Y-106203693D01*
X111558294Y-106191277D01*
X111564564Y-106178225D01*
X111570289Y-106164536D01*
X111575469Y-106150210D01*
X111580104Y-106135248D01*
X111584193Y-106119648D01*
X111587737Y-106103412D01*
X111590736Y-106086540D01*
X111593189Y-106069031D01*
X111595098Y-106050885D01*
X111596461Y-106032102D01*
X111597279Y-106012682D01*
X111597551Y-105992626D01*
X111597279Y-105973825D01*
X111596461Y-105955626D01*
X111595098Y-105938028D01*
X111593189Y-105921031D01*
X111590736Y-105904636D01*
X111587737Y-105888842D01*
X111584193Y-105873649D01*
X111580104Y-105859058D01*
X111575469Y-105845068D01*
X111570289Y-105831679D01*
X111564564Y-105818892D01*
X111558294Y-105806706D01*
X111551478Y-105795122D01*
X111544117Y-105784138D01*
X111536211Y-105773756D01*
X111527760Y-105763976D01*
X111519013Y-105754655D01*
X111509936Y-105745935D01*
X111500528Y-105737817D01*
X111490789Y-105730301D01*
X111480720Y-105723385D01*
X111470319Y-105717071D01*
X111459589Y-105711359D01*
X111448527Y-105706247D01*
X111437135Y-105701737D01*
X111425412Y-105697829D01*
X111413358Y-105694521D01*
X111400973Y-105691815D01*
X111388258Y-105689711D01*
X111375212Y-105688208D01*
X111361836Y-105687306D01*
X111348128Y-105687005D01*
X111330935Y-105687478D01*
X111313965Y-105688897D01*
X111297218Y-105691263D01*
X111280695Y-105694575D01*
X111264396Y-105698833D01*
X111248320Y-105704037D01*
X111232467Y-105710187D01*
X111216838Y-105717284D01*
X111201432Y-105725327D01*
X111186250Y-105734316D01*
X111171291Y-105744251D01*
X111156555Y-105755133D01*
X111142044Y-105766961D01*
X111127755Y-105779735D01*
X111113690Y-105793455D01*
X111099849Y-105808121D01*
X110838983Y-105770768D01*
X111003740Y-104907109D01*
X111853841Y-104907109D01*
X111853841Y-105204806D01*
G37*
G36*
X112205667Y-103937540D02*
G01*
X111837252Y-103937540D01*
X111690801Y-103560608D01*
X111020331Y-103560608D01*
X110881889Y-103937540D01*
X110522627Y-103937540D01*
X110781098Y-103281023D01*
X111124449Y-103281023D01*
X111582107Y-103281023D01*
X111350991Y-102665255D01*
X111124449Y-103281023D01*
X110781098Y-103281023D01*
X111175935Y-102278138D01*
X111534054Y-102278138D01*
X112205667Y-103937540D01*
G37*
G36*
X109331754Y-97917428D02*
G01*
X110239204Y-97917428D01*
X110239204Y-98218713D01*
X108966801Y-98218713D01*
X108966801Y-96445156D01*
X109331754Y-96445156D01*
X109331754Y-97917428D01*
G37*
G36*
X102436067Y-97902180D02*
G01*
X103343517Y-97902180D01*
X103343517Y-98203465D01*
X102071114Y-98203465D01*
X102071114Y-96429908D01*
X102436067Y-96429908D01*
X102436067Y-97902180D01*
G37*
G36*
X113879430Y-104892810D02*
G01*
X113902536Y-104894057D01*
X113925124Y-104896135D01*
X113947193Y-104899045D01*
X113968744Y-104902786D01*
X113989777Y-104907357D01*
X114010291Y-104912761D01*
X114030287Y-104918995D01*
X114049764Y-104926061D01*
X114068723Y-104933958D01*
X114087163Y-104942686D01*
X114105085Y-104952246D01*
X114122488Y-104962636D01*
X114139373Y-104973858D01*
X114155739Y-104985912D01*
X114171587Y-104998796D01*
X114186962Y-105012331D01*
X114201621Y-105026617D01*
X114215566Y-105041655D01*
X114228795Y-105057444D01*
X114241309Y-105073985D01*
X114253108Y-105091278D01*
X114264192Y-105109323D01*
X114274561Y-105128119D01*
X114284215Y-105147667D01*
X114293154Y-105167967D01*
X114301377Y-105189018D01*
X114308886Y-105210821D01*
X114315679Y-105233375D01*
X114321758Y-105256682D01*
X114327121Y-105280740D01*
X114331769Y-105305549D01*
X114331770Y-105305549D01*
X114020562Y-105339506D01*
X114018990Y-105327816D01*
X114017132Y-105316514D01*
X114014987Y-105305601D01*
X114012557Y-105295078D01*
X114009840Y-105284944D01*
X114006837Y-105275199D01*
X114003548Y-105265843D01*
X113999973Y-105256876D01*
X113996111Y-105248298D01*
X113991963Y-105240109D01*
X113987529Y-105232309D01*
X113982809Y-105224899D01*
X113977803Y-105217877D01*
X113972510Y-105211245D01*
X113966931Y-105205002D01*
X113961066Y-105199148D01*
X113954948Y-105193665D01*
X113948606Y-105188536D01*
X113942041Y-105183760D01*
X113935252Y-105179338D01*
X113928239Y-105175270D01*
X113921003Y-105171556D01*
X113913544Y-105168196D01*
X113905861Y-105165189D01*
X113897955Y-105162536D01*
X113889825Y-105160236D01*
X113881472Y-105158291D01*
X113872895Y-105156699D01*
X113864095Y-105155461D01*
X113855071Y-105154577D01*
X113845824Y-105154046D01*
X113836353Y-105153869D01*
X113823745Y-105154223D01*
X113811379Y-105155284D01*
X113799254Y-105157053D01*
X113787370Y-105159529D01*
X113775727Y-105162713D01*
X113764326Y-105166604D01*
X113753166Y-105171202D01*
X113742248Y-105176508D01*
X113731571Y-105182521D01*
X113721135Y-105189242D01*
X113710940Y-105196671D01*
X113700987Y-105204806D01*
X113691275Y-105213650D01*
X113681805Y-105223200D01*
X113672575Y-105233458D01*
X113663588Y-105244424D01*
X113655065Y-105256508D01*
X113646944Y-105270122D01*
X113639225Y-105285266D01*
X113631909Y-105301940D01*
X113624995Y-105320144D01*
X113618483Y-105339878D01*
X113612374Y-105361141D01*
X113606666Y-105383934D01*
X113601361Y-105408257D01*
X113596458Y-105434110D01*
X113591958Y-105461493D01*
X113587859Y-105490406D01*
X113584163Y-105520849D01*
X113580869Y-105552821D01*
X113577977Y-105586324D01*
X113575487Y-105621356D01*
X113590732Y-105604359D01*
X113606433Y-105588459D01*
X113622590Y-105573655D01*
X113639202Y-105559948D01*
X113656271Y-105547338D01*
X113673795Y-105535824D01*
X113691775Y-105525406D01*
X113710211Y-105516085D01*
X113729103Y-105507861D01*
X113748451Y-105500733D01*
X113768254Y-105494702D01*
X113788514Y-105489768D01*
X113809229Y-105485930D01*
X113830400Y-105483188D01*
X113852028Y-105481543D01*
X113874111Y-105480995D01*
X113899054Y-105481588D01*
X113923541Y-105483365D01*
X113947573Y-105486328D01*
X113971148Y-105490475D01*
X113994268Y-105495808D01*
X114016932Y-105502325D01*
X114039140Y-105510028D01*
X114060892Y-105518915D01*
X114082189Y-105528988D01*
X114103029Y-105540245D01*
X114123414Y-105552688D01*
X114143342Y-105566315D01*
X114162815Y-105581128D01*
X114181832Y-105597125D01*
X114200394Y-105614308D01*
X114218499Y-105632675D01*
X114235956Y-105651980D01*
X114252287Y-105671974D01*
X114267492Y-105692658D01*
X114281570Y-105714032D01*
X114294522Y-105736095D01*
X114306348Y-105758849D01*
X114317048Y-105782292D01*
X114326621Y-105806425D01*
X114335068Y-105831247D01*
X114342389Y-105856760D01*
X114348583Y-105882962D01*
X114353651Y-105909854D01*
X114357593Y-105937436D01*
X114360409Y-105965707D01*
X114362098Y-105994668D01*
X114362661Y-106024319D01*
X114362071Y-106055762D01*
X114360302Y-106086417D01*
X114357352Y-106116285D01*
X114353222Y-106145365D01*
X114347913Y-106173659D01*
X114341423Y-106201166D01*
X114333754Y-106227885D01*
X114324905Y-106253818D01*
X114314875Y-106278963D01*
X114303666Y-106303322D01*
X114291278Y-106326893D01*
X114277709Y-106349677D01*
X114262960Y-106371674D01*
X114247032Y-106392884D01*
X114229923Y-106413307D01*
X114211635Y-106432943D01*
X114192421Y-106451585D01*
X114172537Y-106469024D01*
X114151982Y-106485260D01*
X114130757Y-106500293D01*
X114108862Y-106514124D01*
X114086296Y-106526752D01*
X114063060Y-106538177D01*
X114039154Y-106548400D01*
X114014577Y-106557420D01*
X113989330Y-106565238D01*
X113963412Y-106571852D01*
X113936824Y-106577264D01*
X113909566Y-106581474D01*
X113881637Y-106584481D01*
X113853038Y-106586285D01*
X113823768Y-106586886D01*
X113792371Y-106586125D01*
X113761680Y-106583844D01*
X113731696Y-106580041D01*
X113702417Y-106574718D01*
X113673845Y-106567873D01*
X113645979Y-106559507D01*
X113618818Y-106549621D01*
X113592365Y-106538213D01*
X113566617Y-106525284D01*
X113541575Y-106510835D01*
X113517240Y-106494864D01*
X113493610Y-106477372D01*
X113470687Y-106458359D01*
X113448470Y-106437825D01*
X113426960Y-106415770D01*
X113406155Y-106392194D01*
X113386342Y-106366744D01*
X113367808Y-106339348D01*
X113350552Y-106310006D01*
X113334574Y-106278719D01*
X113319874Y-106245487D01*
X113306453Y-106210309D01*
X113294310Y-106173185D01*
X113283445Y-106134116D01*
X113273858Y-106093102D01*
X113265549Y-106050142D01*
X113258519Y-106005236D01*
X113257804Y-105999416D01*
X113602948Y-105999416D01*
X113603229Y-106018526D01*
X113604074Y-106037088D01*
X113605482Y-106055102D01*
X113607453Y-106072567D01*
X113609987Y-106089484D01*
X113613084Y-106105853D01*
X113616744Y-106121674D01*
X113620968Y-106136946D01*
X113625755Y-106151670D01*
X113631104Y-106165846D01*
X113637017Y-106179473D01*
X113643493Y-106192552D01*
X113650533Y-106205083D01*
X113658135Y-106217066D01*
X113666301Y-106228500D01*
X113675029Y-106239386D01*
X113684120Y-106249529D01*
X113693371Y-106259018D01*
X113702784Y-106267852D01*
X113712357Y-106276032D01*
X113722091Y-106283558D01*
X113731986Y-106290429D01*
X113742042Y-106296646D01*
X113752259Y-106302208D01*
X113762636Y-106307116D01*
X113773175Y-106311370D01*
X113783875Y-106314969D01*
X113794735Y-106317914D01*
X113805756Y-106320204D01*
X113816938Y-106321840D01*
X113828281Y-106322822D01*
X113839785Y-106323149D01*
X113850825Y-106322879D01*
X113861632Y-106322070D01*
X113872206Y-106320721D01*
X113882548Y-106318833D01*
X113892658Y-106316406D01*
X113902535Y-106313439D01*
X113912180Y-106309932D01*
X113921593Y-106305887D01*
X113930773Y-106301301D01*
X113939720Y-106296177D01*
X113948435Y-106290513D01*
X113956918Y-106284309D01*
X113965169Y-106277566D01*
X113973187Y-106270284D01*
X113980972Y-106262462D01*
X113988525Y-106254101D01*
X113995730Y-106245125D01*
X114002470Y-106235459D01*
X114008745Y-106225104D01*
X114014555Y-106214059D01*
X114019900Y-106202324D01*
X114024781Y-106189899D01*
X114029196Y-106176785D01*
X114033147Y-106162981D01*
X114036633Y-106148487D01*
X114039654Y-106133303D01*
X114042211Y-106117429D01*
X114044302Y-106100866D01*
X114045929Y-106083613D01*
X114047091Y-106065670D01*
X114047788Y-106047037D01*
X114048021Y-106027715D01*
X114047771Y-106007822D01*
X114047020Y-105988611D01*
X114045768Y-105970080D01*
X114044016Y-105952230D01*
X114041764Y-105935061D01*
X114039011Y-105918573D01*
X114035757Y-105902766D01*
X114032003Y-105887640D01*
X114027748Y-105873194D01*
X114022993Y-105859430D01*
X114017737Y-105846347D01*
X114011981Y-105833944D01*
X114005724Y-105822223D01*
X113998967Y-105811182D01*
X113991709Y-105800822D01*
X113983950Y-105791144D01*
X113975816Y-105781960D01*
X113967431Y-105773369D01*
X113958796Y-105765370D01*
X113949911Y-105757964D01*
X113940775Y-105751150D01*
X113931390Y-105744929D01*
X113921754Y-105739300D01*
X113911868Y-105734264D01*
X113901731Y-105729820D01*
X113891344Y-105725969D01*
X113880707Y-105722710D01*
X113869820Y-105720044D01*
X113858682Y-105717970D01*
X113847295Y-105716489D01*
X113835657Y-105715600D01*
X113823768Y-105715304D01*
X113812296Y-105715587D01*
X113801046Y-105716436D01*
X113790021Y-105717851D01*
X113779218Y-105719832D01*
X113768640Y-105722378D01*
X113758284Y-105725491D01*
X113748152Y-105729170D01*
X113738244Y-105733415D01*
X113728559Y-105738226D01*
X113719097Y-105743602D01*
X113709859Y-105749545D01*
X113700845Y-105756054D01*
X113692054Y-105763129D01*
X113683486Y-105770769D01*
X113675142Y-105778976D01*
X113667021Y-105787748D01*
X113659262Y-105796932D01*
X113652004Y-105806655D01*
X113645246Y-105816917D01*
X113638989Y-105827719D01*
X113633232Y-105839060D01*
X113627976Y-105850941D01*
X113623221Y-105863361D01*
X113618966Y-105876320D01*
X113615212Y-105889819D01*
X113611958Y-105903858D01*
X113609205Y-105918436D01*
X113606952Y-105933553D01*
X113605200Y-105949209D01*
X113603949Y-105965406D01*
X113603198Y-105982141D01*
X113602948Y-105999416D01*
X113257804Y-105999416D01*
X113252767Y-105958385D01*
X113248293Y-105909589D01*
X113245098Y-105858847D01*
X113243180Y-105806160D01*
X113242541Y-105751527D01*
X113243207Y-105695501D01*
X113245205Y-105641465D01*
X113248534Y-105589419D01*
X113253196Y-105539362D01*
X113259189Y-105491295D01*
X113266514Y-105445218D01*
X113275172Y-105401130D01*
X113285160Y-105359032D01*
X113296481Y-105318924D01*
X113309134Y-105280806D01*
X113323118Y-105244677D01*
X113338435Y-105210538D01*
X113355083Y-105178388D01*
X113373063Y-105148229D01*
X113392375Y-105120059D01*
X113413019Y-105093878D01*
X113434727Y-105069480D01*
X113457230Y-105046655D01*
X113480528Y-105025405D01*
X113504623Y-105005729D01*
X113529512Y-104987627D01*
X113555198Y-104971099D01*
X113581678Y-104956145D01*
X113608955Y-104942765D01*
X113637026Y-104930960D01*
X113665894Y-104920728D01*
X113695557Y-104912071D01*
X113726015Y-104904987D01*
X113757269Y-104899478D01*
X113789319Y-104895543D01*
X113822164Y-104893182D01*
X113855805Y-104892395D01*
X113879430Y-104892810D01*
G37*
G36*
X109320424Y-105959234D02*
G01*
X109528659Y-105959234D01*
X109528659Y-106238818D01*
X109320424Y-106238818D01*
X109320424Y-106572736D01*
X109009216Y-106572738D01*
X109009216Y-106238820D01*
X108322728Y-106238820D01*
X108322728Y-105960365D01*
X108323508Y-105959235D01*
X108623638Y-105959235D01*
X109009216Y-105959235D01*
X109009216Y-105392139D01*
X108623638Y-105959235D01*
X108323508Y-105959235D01*
X109050405Y-104906543D01*
X109320424Y-104906543D01*
X109320424Y-105959234D01*
G37*
G36*
X118703262Y-104892300D02*
G01*
X118731893Y-104893719D01*
X118759683Y-104896085D01*
X118786633Y-104899397D01*
X118812743Y-104903655D01*
X118838012Y-104908859D01*
X118862442Y-104915010D01*
X118886031Y-104922106D01*
X118908780Y-104930149D01*
X118930688Y-104939138D01*
X118951757Y-104949074D01*
X118971985Y-104959955D01*
X118991373Y-104971783D01*
X119009921Y-104984557D01*
X119027628Y-104998277D01*
X119044495Y-105012943D01*
X119060567Y-105028335D01*
X119075602Y-105044230D01*
X119089599Y-105060630D01*
X119102560Y-105077534D01*
X119114485Y-105094942D01*
X119125372Y-105112854D01*
X119135222Y-105131270D01*
X119144036Y-105150190D01*
X119151812Y-105169614D01*
X119158552Y-105189542D01*
X119164255Y-105209974D01*
X119168921Y-105230911D01*
X119172550Y-105252351D01*
X119175142Y-105274295D01*
X119176697Y-105296744D01*
X119177216Y-105319696D01*
X119176979Y-105334031D01*
X119176268Y-105348171D01*
X119175084Y-105362116D01*
X119173426Y-105375867D01*
X119171294Y-105389424D01*
X119168689Y-105402786D01*
X119165609Y-105415953D01*
X119162056Y-105428926D01*
X119158030Y-105441705D01*
X119153529Y-105454288D01*
X119148555Y-105466678D01*
X119143107Y-105478872D01*
X119137185Y-105490873D01*
X119130789Y-105502678D01*
X119123920Y-105514289D01*
X119116577Y-105525706D01*
X119108805Y-105536720D01*
X119100649Y-105547407D01*
X119092108Y-105557766D01*
X119083183Y-105567799D01*
X119073873Y-105577504D01*
X119064179Y-105586882D01*
X119054101Y-105595933D01*
X119043638Y-105604657D01*
X119032791Y-105613053D01*
X119021560Y-105621122D01*
X119009944Y-105628865D01*
X118997944Y-105636280D01*
X118985559Y-105643367D01*
X118972790Y-105650128D01*
X118959637Y-105656562D01*
X118946099Y-105662668D01*
X118963284Y-105669800D01*
X118979941Y-105677330D01*
X118996071Y-105685258D01*
X119011673Y-105693583D01*
X119026748Y-105702307D01*
X119041296Y-105711429D01*
X119055316Y-105720949D01*
X119068809Y-105730866D01*
X119081775Y-105741182D01*
X119094213Y-105751895D01*
X119106124Y-105763007D01*
X119117507Y-105774516D01*
X119128363Y-105786423D01*
X119138692Y-105798729D01*
X119148493Y-105811432D01*
X119157767Y-105824533D01*
X119166634Y-105837961D01*
X119174929Y-105851646D01*
X119182651Y-105865588D01*
X119189802Y-105879785D01*
X119196381Y-105894239D01*
X119202387Y-105908950D01*
X119207822Y-105923917D01*
X119212685Y-105939141D01*
X119216975Y-105954621D01*
X119220693Y-105970357D01*
X119223840Y-105986350D01*
X119226414Y-106002599D01*
X119228416Y-106019105D01*
X119229846Y-106035867D01*
X119230705Y-106052886D01*
X119230991Y-106070161D01*
X119230410Y-106098547D01*
X119228667Y-106126262D01*
X119225762Y-106153304D01*
X119221694Y-106179674D01*
X119216465Y-106205372D01*
X119210074Y-106230398D01*
X119202521Y-106254753D01*
X119193806Y-106278435D01*
X119183929Y-106301445D01*
X119172890Y-106323782D01*
X119160689Y-106345448D01*
X119147326Y-106366442D01*
X119132801Y-106386764D01*
X119117114Y-106406414D01*
X119100265Y-106425392D01*
X119082254Y-106443697D01*
X119063420Y-106461105D01*
X119043818Y-106477390D01*
X119023446Y-106492551D01*
X119002306Y-106506590D01*
X118980397Y-106519505D01*
X118957720Y-106531298D01*
X118934274Y-106541967D01*
X118910059Y-106551513D01*
X118885075Y-106559936D01*
X118859323Y-106567236D01*
X118832802Y-106573413D01*
X118805512Y-106578467D01*
X118777454Y-106582397D01*
X118748627Y-106585205D01*
X118719031Y-106586890D01*
X118688666Y-106587451D01*
X118660362Y-106586987D01*
X118632657Y-106585594D01*
X118605551Y-106583273D01*
X118579044Y-106580023D01*
X118553135Y-106575844D01*
X118527825Y-106570737D01*
X118503115Y-106564702D01*
X118479003Y-106557738D01*
X118455490Y-106549845D01*
X118432575Y-106541024D01*
X118410260Y-106531274D01*
X118388544Y-106520596D01*
X118367426Y-106508989D01*
X118346907Y-106496454D01*
X118326987Y-106482990D01*
X118307666Y-106468597D01*
X118285914Y-106450646D01*
X118265565Y-106431881D01*
X118246620Y-106412302D01*
X118229078Y-106391910D01*
X118212939Y-106370704D01*
X118198204Y-106348684D01*
X118184872Y-106325852D01*
X118172943Y-106302205D01*
X118162418Y-106277745D01*
X118153296Y-106252471D01*
X118145577Y-106226384D01*
X118139262Y-106199484D01*
X118134350Y-106171769D01*
X118130842Y-106143242D01*
X118128737Y-106113900D01*
X118128035Y-106083745D01*
X118128299Y-106066996D01*
X118128958Y-106053183D01*
X118444951Y-106053183D01*
X118445215Y-106069370D01*
X118446006Y-106085107D01*
X118447324Y-106100392D01*
X118449170Y-106115226D01*
X118451543Y-106129610D01*
X118454444Y-106143542D01*
X118457871Y-106157024D01*
X118461827Y-106170054D01*
X118466309Y-106182634D01*
X118471319Y-106194762D01*
X118476857Y-106206439D01*
X118482921Y-106217666D01*
X118489513Y-106228441D01*
X118496633Y-106238766D01*
X118504280Y-106248639D01*
X118512454Y-106258062D01*
X118521165Y-106266971D01*
X118530135Y-106275306D01*
X118539364Y-106283066D01*
X118548852Y-106290251D01*
X118558600Y-106296861D01*
X118568606Y-106302897D01*
X118578872Y-106308357D01*
X118589398Y-106313243D01*
X118600182Y-106317554D01*
X118611226Y-106321290D01*
X118622529Y-106324452D01*
X118634091Y-106327038D01*
X118645912Y-106329050D01*
X118657993Y-106330487D01*
X118670333Y-106331349D01*
X118682932Y-106331637D01*
X118695240Y-106331363D01*
X118707280Y-106330540D01*
X118719053Y-106329170D01*
X118730557Y-106327251D01*
X118741792Y-106324783D01*
X118752760Y-106321768D01*
X118763460Y-106318204D01*
X118773891Y-106314092D01*
X118784054Y-106309432D01*
X118793949Y-106304223D01*
X118803576Y-106298466D01*
X118812935Y-106292161D01*
X118822026Y-106285308D01*
X118830848Y-106277906D01*
X118839403Y-106269956D01*
X118847689Y-106261458D01*
X118855586Y-106252301D01*
X118862974Y-106242658D01*
X118869852Y-106232528D01*
X118876221Y-106221912D01*
X118882080Y-106210809D01*
X118887430Y-106199220D01*
X118892270Y-106187145D01*
X118896601Y-106174583D01*
X118900423Y-106161535D01*
X118903734Y-106148001D01*
X118906537Y-106133980D01*
X118908829Y-106119472D01*
X118910613Y-106104479D01*
X118911886Y-106088998D01*
X118912651Y-106073032D01*
X118912905Y-106056579D01*
X118912646Y-106042187D01*
X118911869Y-106028157D01*
X118910572Y-106014490D01*
X118908758Y-106001185D01*
X118906425Y-105988243D01*
X118903574Y-105975664D01*
X118900204Y-105963447D01*
X118896315Y-105951593D01*
X118891909Y-105940101D01*
X118886984Y-105928972D01*
X118881540Y-105918206D01*
X118875578Y-105907802D01*
X118869098Y-105897760D01*
X118862099Y-105888081D01*
X118854581Y-105878765D01*
X118846546Y-105869812D01*
X118838112Y-105861176D01*
X118829402Y-105853098D01*
X118820414Y-105845577D01*
X118811149Y-105838613D01*
X118801607Y-105832207D01*
X118791788Y-105826357D01*
X118781691Y-105821064D01*
X118771318Y-105816329D01*
X118760667Y-105812151D01*
X118749740Y-105808529D01*
X118738535Y-105805465D01*
X118727053Y-105802958D01*
X118715294Y-105801008D01*
X118703258Y-105799615D01*
X118690945Y-105798780D01*
X118678354Y-105798501D01*
X118663856Y-105798815D01*
X118649822Y-105799757D01*
X118636254Y-105801327D01*
X118623150Y-105803524D01*
X118610511Y-105806350D01*
X118598337Y-105809803D01*
X118586627Y-105813884D01*
X118575382Y-105818593D01*
X118564603Y-105823930D01*
X118554288Y-105829895D01*
X118544437Y-105836487D01*
X118535052Y-105843708D01*
X118526131Y-105851556D01*
X118517676Y-105860033D01*
X118509685Y-105869137D01*
X118502159Y-105878869D01*
X118495231Y-105888967D01*
X118488751Y-105899172D01*
X118482718Y-105909484D01*
X118477131Y-105919901D01*
X118471991Y-105930424D01*
X118467299Y-105941053D01*
X118463053Y-105951789D01*
X118459254Y-105962631D01*
X118455902Y-105973578D01*
X118452997Y-105984632D01*
X118450539Y-105995792D01*
X118448527Y-106007058D01*
X118446963Y-106018431D01*
X118445846Y-106029909D01*
X118445175Y-106041493D01*
X118444952Y-106053184D01*
X118444951Y-106053183D01*
X118128958Y-106053183D01*
X118129090Y-106050424D01*
X118130408Y-106034028D01*
X118132254Y-106017810D01*
X118134627Y-106001768D01*
X118137528Y-105985903D01*
X118140956Y-105970216D01*
X118144911Y-105954705D01*
X118149394Y-105939370D01*
X118154404Y-105924213D01*
X118159941Y-105909233D01*
X118166006Y-105894429D01*
X118172598Y-105879802D01*
X118179717Y-105865352D01*
X118187364Y-105851079D01*
X118195538Y-105836983D01*
X118204280Y-105823038D01*
X118213630Y-105809499D01*
X118223588Y-105796367D01*
X118234154Y-105783642D01*
X118245327Y-105771324D01*
X118257108Y-105759412D01*
X118269497Y-105747907D01*
X118282494Y-105736809D01*
X118296099Y-105726118D01*
X118310311Y-105715833D01*
X118325131Y-105705956D01*
X118340559Y-105696485D01*
X118356595Y-105687420D01*
X118373239Y-105678763D01*
X118390490Y-105670512D01*
X118408347Y-105662669D01*
X118393023Y-105656010D01*
X118378225Y-105649051D01*
X118363955Y-105641790D01*
X118350212Y-105634229D01*
X118336996Y-105626368D01*
X118324308Y-105618206D01*
X118312147Y-105609743D01*
X118300514Y-105600979D01*
X118289408Y-105591915D01*
X118278829Y-105582550D01*
X118268778Y-105572884D01*
X118259254Y-105562918D01*
X118250257Y-105552651D01*
X118241788Y-105542083D01*
X118233846Y-105531215D01*
X118226432Y-105520046D01*
X118219643Y-105508519D01*
X118213292Y-105496859D01*
X118207379Y-105485067D01*
X118201904Y-105473142D01*
X118196867Y-105461084D01*
X118192268Y-105448894D01*
X118188107Y-105436571D01*
X118184384Y-105424115D01*
X118181099Y-105411527D01*
X118178252Y-105398807D01*
X118175843Y-105385953D01*
X118173872Y-105372967D01*
X118172339Y-105359848D01*
X118171244Y-105346597D01*
X118171035Y-105342335D01*
X118474711Y-105342335D01*
X118474921Y-105354057D01*
X118475551Y-105365451D01*
X118476602Y-105376518D01*
X118478072Y-105387258D01*
X118479962Y-105397671D01*
X118482273Y-105407757D01*
X118485003Y-105417515D01*
X118488154Y-105426946D01*
X118491725Y-105436050D01*
X118495716Y-105444827D01*
X118500127Y-105453276D01*
X118504958Y-105461399D01*
X118510209Y-105469194D01*
X118515881Y-105476662D01*
X118521972Y-105483803D01*
X118528484Y-105490616D01*
X118535487Y-105497059D01*
X118542768Y-105503086D01*
X118550326Y-105508697D01*
X118558161Y-105513892D01*
X118566273Y-105518672D01*
X118574662Y-105523037D01*
X118583328Y-105526985D01*
X118592271Y-105530518D01*
X118601491Y-105533636D01*
X118610989Y-105536337D01*
X118620763Y-105538623D01*
X118630815Y-105540494D01*
X118641143Y-105541948D01*
X118651749Y-105542987D01*
X118662632Y-105543611D01*
X118673791Y-105543819D01*
X118685090Y-105543611D01*
X118696103Y-105542987D01*
X118706829Y-105541948D01*
X118717270Y-105540494D01*
X118727424Y-105538623D01*
X118737292Y-105536337D01*
X118746875Y-105533636D01*
X118756171Y-105530518D01*
X118765181Y-105526985D01*
X118773905Y-105523037D01*
X118782343Y-105518672D01*
X118790495Y-105513892D01*
X118798361Y-105508697D01*
X118805941Y-105503086D01*
X118813235Y-105497059D01*
X118820243Y-105490616D01*
X118826893Y-105483665D01*
X118833114Y-105476396D01*
X118838906Y-105468809D01*
X118844269Y-105460903D01*
X118849203Y-105452679D01*
X118853708Y-105444136D01*
X118857784Y-105435275D01*
X118861431Y-105426096D01*
X118864649Y-105416598D01*
X118867438Y-105406782D01*
X118869797Y-105396648D01*
X118871728Y-105386195D01*
X118873230Y-105375424D01*
X118874302Y-105364335D01*
X118874946Y-105352927D01*
X118875161Y-105341201D01*
X118874946Y-105330165D01*
X118874302Y-105319412D01*
X118873230Y-105308942D01*
X118871728Y-105298755D01*
X118869797Y-105288851D01*
X118867438Y-105279229D01*
X118864649Y-105269891D01*
X118861431Y-105260836D01*
X118857784Y-105252064D01*
X118853708Y-105243575D01*
X118849203Y-105235368D01*
X118844269Y-105227445D01*
X118838906Y-105219805D01*
X118833114Y-105212447D01*
X118826893Y-105205373D01*
X118820243Y-105198581D01*
X118813382Y-105192002D01*
X118806245Y-105185847D01*
X118798830Y-105180117D01*
X118791139Y-105174811D01*
X118783170Y-105169929D01*
X118774924Y-105165472D01*
X118766401Y-105161440D01*
X118757601Y-105157832D01*
X118748523Y-105154648D01*
X118739169Y-105151889D01*
X118729538Y-105149554D01*
X118719629Y-105147644D01*
X118709443Y-105146158D01*
X118698981Y-105145097D01*
X118688241Y-105144460D01*
X118677224Y-105144248D01*
X118665786Y-105144460D01*
X118654644Y-105145097D01*
X118643797Y-105146158D01*
X118633245Y-105147644D01*
X118622988Y-105149554D01*
X118613026Y-105151889D01*
X118603359Y-105154648D01*
X118593987Y-105157832D01*
X118584909Y-105161440D01*
X118576127Y-105165472D01*
X118567640Y-105169929D01*
X118559448Y-105174811D01*
X118551551Y-105180117D01*
X118543949Y-105185847D01*
X118536641Y-105192002D01*
X118529629Y-105198581D01*
X118522979Y-105205510D01*
X118516758Y-105212712D01*
X118510966Y-105220189D01*
X118505603Y-105227939D01*
X118500668Y-105235964D01*
X118496163Y-105244264D01*
X118492088Y-105252837D01*
X118488441Y-105261685D01*
X118485223Y-105270806D01*
X118482434Y-105280202D01*
X118480074Y-105289872D01*
X118478144Y-105299817D01*
X118476642Y-105310035D01*
X118475569Y-105320528D01*
X118474926Y-105331294D01*
X118474711Y-105342335D01*
X118171035Y-105342335D01*
X118170587Y-105333213D01*
X118170368Y-105319696D01*
X118170878Y-105296744D01*
X118172406Y-105274295D01*
X118174954Y-105252351D01*
X118178520Y-105230911D01*
X118183106Y-105209974D01*
X118188710Y-105189542D01*
X118195334Y-105169614D01*
X118202976Y-105150190D01*
X118211637Y-105131270D01*
X118221318Y-105112854D01*
X118232017Y-105094942D01*
X118243736Y-105077534D01*
X118256473Y-105060630D01*
X118270229Y-105044230D01*
X118285004Y-105028335D01*
X118300799Y-105012943D01*
X118317675Y-104998277D01*
X118335409Y-104984557D01*
X118354002Y-104971783D01*
X118373452Y-104959955D01*
X118393761Y-104949074D01*
X118414927Y-104939138D01*
X118436952Y-104930149D01*
X118459835Y-104922106D01*
X118483576Y-104915010D01*
X118508176Y-104908859D01*
X118533633Y-104903655D01*
X118559948Y-104899397D01*
X118587122Y-104896085D01*
X118615154Y-104893719D01*
X118644044Y-104892300D01*
X118673791Y-104891827D01*
X118703262Y-104892300D01*
G37*
G36*
X114121909Y-101765792D02*
G01*
X113521907Y-101765792D01*
X113521907Y-95582980D01*
X106567416Y-95582980D01*
X106567416Y-101657394D01*
X105967416Y-101657394D01*
X105967416Y-94982980D01*
X114121909Y-94982980D01*
X114121909Y-101765792D01*
G37*
G36*
X101978745Y-106572738D02*
G01*
X101657240Y-106572738D01*
X101657240Y-105374027D01*
X101634969Y-105394071D01*
X101612207Y-105413451D01*
X101588953Y-105432167D01*
X101565207Y-105450221D01*
X101540970Y-105467611D01*
X101516241Y-105484338D01*
X101491021Y-105500402D01*
X101465309Y-105515802D01*
X101439105Y-105530539D01*
X101412410Y-105544613D01*
X101385223Y-105558024D01*
X101357545Y-105570771D01*
X101329375Y-105582855D01*
X101300713Y-105594276D01*
X101271560Y-105605034D01*
X101241915Y-105615128D01*
X101241915Y-105326486D01*
X101257731Y-105321110D01*
X101273718Y-105315167D01*
X101289875Y-105308658D01*
X101306201Y-105301584D01*
X101322698Y-105293943D01*
X101339364Y-105285737D01*
X101356199Y-105276965D01*
X101373205Y-105267626D01*
X101390381Y-105257722D01*
X101407726Y-105247251D01*
X101425241Y-105236215D01*
X101442927Y-105224613D01*
X101460781Y-105212444D01*
X101478806Y-105199710D01*
X101497001Y-105186410D01*
X101515365Y-105172544D01*
X101533453Y-105158107D01*
X101550816Y-105143379D01*
X101567455Y-105128359D01*
X101583371Y-105113047D01*
X101598562Y-105097443D01*
X101613029Y-105081548D01*
X101626772Y-105065360D01*
X101639791Y-105048881D01*
X101652086Y-105032110D01*
X101663658Y-105015048D01*
X101674505Y-104997693D01*
X101684627Y-104980047D01*
X101694026Y-104962109D01*
X101702701Y-104943878D01*
X101710652Y-104925357D01*
X101717879Y-104906543D01*
X101978745Y-104906543D01*
X101978745Y-106572738D01*
G37*
D11*
X126908255Y-96160791D02*
X126308255Y-95303648D01*
X125879684Y-96160791D02*
X125879684Y-94360791D01*
X125879684Y-94360791D02*
X126565398Y-94360791D01*
X126565398Y-94360791D02*
X126736827Y-94446505D01*
X126736827Y-94446505D02*
X126822541Y-94532219D01*
X126822541Y-94532219D02*
X126908255Y-94703648D01*
X126908255Y-94703648D02*
X126908255Y-94960791D01*
X126908255Y-94960791D02*
X126822541Y-95132219D01*
X126822541Y-95132219D02*
X126736827Y-95217934D01*
X126736827Y-95217934D02*
X126565398Y-95303648D01*
X126565398Y-95303648D02*
X125879684Y-95303648D01*
X128193970Y-94360791D02*
X128193970Y-95646505D01*
X128193970Y-95646505D02*
X128108255Y-95903648D01*
X128108255Y-95903648D02*
X127936827Y-96075077D01*
X127936827Y-96075077D02*
X127679684Y-96160791D01*
X127679684Y-96160791D02*
X127508255Y-96160791D01*
X128965399Y-94532219D02*
X129051113Y-94446505D01*
X129051113Y-94446505D02*
X129222542Y-94360791D01*
X129222542Y-94360791D02*
X129651113Y-94360791D01*
X129651113Y-94360791D02*
X129822542Y-94446505D01*
X129822542Y-94446505D02*
X129908256Y-94532219D01*
X129908256Y-94532219D02*
X129993970Y-94703648D01*
X129993970Y-94703648D02*
X129993970Y-94875077D01*
X129993970Y-94875077D02*
X129908256Y-95132219D01*
X129908256Y-95132219D02*
X128879684Y-96160791D01*
X128879684Y-96160791D02*
X129993970Y-96160791D01*
X131708256Y-96160791D02*
X130679685Y-96160791D01*
X131193970Y-96160791D02*
X131193970Y-94360791D01*
X131193970Y-94360791D02*
X131022542Y-94617934D01*
X131022542Y-94617934D02*
X130851113Y-94789362D01*
X130851113Y-94789362D02*
X130679685Y-94875077D01*
X133593971Y-94960791D02*
X134279685Y-94960791D01*
X133851114Y-94360791D02*
X133851114Y-95903648D01*
X133851114Y-95903648D02*
X133936828Y-96075077D01*
X133936828Y-96075077D02*
X134108257Y-96160791D01*
X134108257Y-96160791D02*
X134279685Y-96160791D01*
X135136828Y-96160791D02*
X134965399Y-96075077D01*
X134965399Y-96075077D02*
X134879685Y-95989362D01*
X134879685Y-95989362D02*
X134793971Y-95817934D01*
X134793971Y-95817934D02*
X134793971Y-95303648D01*
X134793971Y-95303648D02*
X134879685Y-95132219D01*
X134879685Y-95132219D02*
X134965399Y-95046505D01*
X134965399Y-95046505D02*
X135136828Y-94960791D01*
X135136828Y-94960791D02*
X135393971Y-94960791D01*
X135393971Y-94960791D02*
X135565399Y-95046505D01*
X135565399Y-95046505D02*
X135651114Y-95132219D01*
X135651114Y-95132219D02*
X135736828Y-95303648D01*
X135736828Y-95303648D02*
X135736828Y-95817934D01*
X135736828Y-95817934D02*
X135651114Y-95989362D01*
X135651114Y-95989362D02*
X135565399Y-96075077D01*
X135565399Y-96075077D02*
X135393971Y-96160791D01*
X135393971Y-96160791D02*
X135136828Y-96160791D01*
X138651114Y-94360791D02*
X138308256Y-94360791D01*
X138308256Y-94360791D02*
X138136828Y-94446505D01*
X138136828Y-94446505D02*
X138051114Y-94532219D01*
X138051114Y-94532219D02*
X137879685Y-94789362D01*
X137879685Y-94789362D02*
X137793971Y-95132219D01*
X137793971Y-95132219D02*
X137793971Y-95817934D01*
X137793971Y-95817934D02*
X137879685Y-95989362D01*
X137879685Y-95989362D02*
X137965399Y-96075077D01*
X137965399Y-96075077D02*
X138136828Y-96160791D01*
X138136828Y-96160791D02*
X138479685Y-96160791D01*
X138479685Y-96160791D02*
X138651114Y-96075077D01*
X138651114Y-96075077D02*
X138736828Y-95989362D01*
X138736828Y-95989362D02*
X138822542Y-95817934D01*
X138822542Y-95817934D02*
X138822542Y-95389362D01*
X138822542Y-95389362D02*
X138736828Y-95217934D01*
X138736828Y-95217934D02*
X138651114Y-95132219D01*
X138651114Y-95132219D02*
X138479685Y-95046505D01*
X138479685Y-95046505D02*
X138136828Y-95046505D01*
X138136828Y-95046505D02*
X137965399Y-95132219D01*
X137965399Y-95132219D02*
X137879685Y-95217934D01*
X137879685Y-95217934D02*
X137793971Y-95389362D01*
X139422542Y-96160791D02*
X140365400Y-94960791D01*
X139422542Y-94960791D02*
X140365400Y-96160791D01*
X143193972Y-94960791D02*
X143193972Y-96160791D01*
X142765400Y-94275077D02*
X142336829Y-95560791D01*
X142336829Y-95560791D02*
X143451114Y-95560791D01*
X145251115Y-94960791D02*
X145936829Y-94960791D01*
X145508258Y-94360791D02*
X145508258Y-95903648D01*
X145508258Y-95903648D02*
X145593972Y-96075077D01*
X145593972Y-96075077D02*
X145765401Y-96160791D01*
X145765401Y-96160791D02*
X145936829Y-96160791D01*
X147222543Y-96075077D02*
X147051115Y-96160791D01*
X147051115Y-96160791D02*
X146708258Y-96160791D01*
X146708258Y-96160791D02*
X146536829Y-96075077D01*
X146536829Y-96075077D02*
X146451115Y-95903648D01*
X146451115Y-95903648D02*
X146451115Y-95217934D01*
X146451115Y-95217934D02*
X146536829Y-95046505D01*
X146536829Y-95046505D02*
X146708258Y-94960791D01*
X146708258Y-94960791D02*
X147051115Y-94960791D01*
X147051115Y-94960791D02*
X147222543Y-95046505D01*
X147222543Y-95046505D02*
X147308258Y-95217934D01*
X147308258Y-95217934D02*
X147308258Y-95389362D01*
X147308258Y-95389362D02*
X146451115Y-95560791D01*
X148336829Y-96160791D02*
X148165400Y-96075077D01*
X148165400Y-96075077D02*
X148079686Y-95903648D01*
X148079686Y-95903648D02*
X148079686Y-94360791D01*
X149708257Y-96075077D02*
X149536829Y-96160791D01*
X149536829Y-96160791D02*
X149193972Y-96160791D01*
X149193972Y-96160791D02*
X149022543Y-96075077D01*
X149022543Y-96075077D02*
X148936829Y-95903648D01*
X148936829Y-95903648D02*
X148936829Y-95217934D01*
X148936829Y-95217934D02*
X149022543Y-95046505D01*
X149022543Y-95046505D02*
X149193972Y-94960791D01*
X149193972Y-94960791D02*
X149536829Y-94960791D01*
X149536829Y-94960791D02*
X149708257Y-95046505D01*
X149708257Y-95046505D02*
X149793972Y-95217934D01*
X149793972Y-95217934D02*
X149793972Y-95389362D01*
X149793972Y-95389362D02*
X148936829Y-95560791D01*
X150565400Y-94960791D02*
X150565400Y-96760791D01*
X150565400Y-95046505D02*
X150736829Y-94960791D01*
X150736829Y-94960791D02*
X151079686Y-94960791D01*
X151079686Y-94960791D02*
X151251114Y-95046505D01*
X151251114Y-95046505D02*
X151336829Y-95132219D01*
X151336829Y-95132219D02*
X151422543Y-95303648D01*
X151422543Y-95303648D02*
X151422543Y-95817934D01*
X151422543Y-95817934D02*
X151336829Y-95989362D01*
X151336829Y-95989362D02*
X151251114Y-96075077D01*
X151251114Y-96075077D02*
X151079686Y-96160791D01*
X151079686Y-96160791D02*
X150736829Y-96160791D01*
X150736829Y-96160791D02*
X150565400Y-96075077D01*
X152193971Y-96160791D02*
X152193971Y-94360791D01*
X152965400Y-96160791D02*
X152965400Y-95217934D01*
X152965400Y-95217934D02*
X152879685Y-95046505D01*
X152879685Y-95046505D02*
X152708257Y-94960791D01*
X152708257Y-94960791D02*
X152451114Y-94960791D01*
X152451114Y-94960791D02*
X152279685Y-95046505D01*
X152279685Y-95046505D02*
X152193971Y-95132219D01*
X154079685Y-96160791D02*
X153908256Y-96075077D01*
X153908256Y-96075077D02*
X153822542Y-95989362D01*
X153822542Y-95989362D02*
X153736828Y-95817934D01*
X153736828Y-95817934D02*
X153736828Y-95303648D01*
X153736828Y-95303648D02*
X153822542Y-95132219D01*
X153822542Y-95132219D02*
X153908256Y-95046505D01*
X153908256Y-95046505D02*
X154079685Y-94960791D01*
X154079685Y-94960791D02*
X154336828Y-94960791D01*
X154336828Y-94960791D02*
X154508256Y-95046505D01*
X154508256Y-95046505D02*
X154593971Y-95132219D01*
X154593971Y-95132219D02*
X154679685Y-95303648D01*
X154679685Y-95303648D02*
X154679685Y-95817934D01*
X154679685Y-95817934D02*
X154593971Y-95989362D01*
X154593971Y-95989362D02*
X154508256Y-96075077D01*
X154508256Y-96075077D02*
X154336828Y-96160791D01*
X154336828Y-96160791D02*
X154079685Y-96160791D01*
X155451113Y-94960791D02*
X155451113Y-96160791D01*
X155451113Y-95132219D02*
X155536827Y-95046505D01*
X155536827Y-95046505D02*
X155708256Y-94960791D01*
X155708256Y-94960791D02*
X155965399Y-94960791D01*
X155965399Y-94960791D02*
X156136827Y-95046505D01*
X156136827Y-95046505D02*
X156222542Y-95217934D01*
X156222542Y-95217934D02*
X156222542Y-96160791D01*
X157765398Y-96075077D02*
X157593970Y-96160791D01*
X157593970Y-96160791D02*
X157251113Y-96160791D01*
X157251113Y-96160791D02*
X157079684Y-96075077D01*
X157079684Y-96075077D02*
X156993970Y-95903648D01*
X156993970Y-95903648D02*
X156993970Y-95217934D01*
X156993970Y-95217934D02*
X157079684Y-95046505D01*
X157079684Y-95046505D02*
X157251113Y-94960791D01*
X157251113Y-94960791D02*
X157593970Y-94960791D01*
X157593970Y-94960791D02*
X157765398Y-95046505D01*
X157765398Y-95046505D02*
X157851113Y-95217934D01*
X157851113Y-95217934D02*
X157851113Y-95389362D01*
X157851113Y-95389362D02*
X156993970Y-95560791D01*
X160251113Y-96160791D02*
X160079684Y-96075077D01*
X160079684Y-96075077D02*
X159993970Y-95903648D01*
X159993970Y-95903648D02*
X159993970Y-94360791D01*
X160936827Y-96160791D02*
X160936827Y-94960791D01*
X160936827Y-94360791D02*
X160851113Y-94446505D01*
X160851113Y-94446505D02*
X160936827Y-94532219D01*
X160936827Y-94532219D02*
X161022541Y-94446505D01*
X161022541Y-94446505D02*
X160936827Y-94360791D01*
X160936827Y-94360791D02*
X160936827Y-94532219D01*
X161793970Y-94960791D02*
X161793970Y-96160791D01*
X161793970Y-95132219D02*
X161879684Y-95046505D01*
X161879684Y-95046505D02*
X162051113Y-94960791D01*
X162051113Y-94960791D02*
X162308256Y-94960791D01*
X162308256Y-94960791D02*
X162479684Y-95046505D01*
X162479684Y-95046505D02*
X162565399Y-95217934D01*
X162565399Y-95217934D02*
X162565399Y-96160791D01*
X164108255Y-96075077D02*
X163936827Y-96160791D01*
X163936827Y-96160791D02*
X163593970Y-96160791D01*
X163593970Y-96160791D02*
X163422541Y-96075077D01*
X163422541Y-96075077D02*
X163336827Y-95903648D01*
X163336827Y-95903648D02*
X163336827Y-95217934D01*
X163336827Y-95217934D02*
X163422541Y-95046505D01*
X163422541Y-95046505D02*
X163593970Y-94960791D01*
X163593970Y-94960791D02*
X163936827Y-94960791D01*
X163936827Y-94960791D02*
X164108255Y-95046505D01*
X164108255Y-95046505D02*
X164193970Y-95217934D01*
X164193970Y-95217934D02*
X164193970Y-95389362D01*
X164193970Y-95389362D02*
X163336827Y-95560791D01*
X166593970Y-95132219D02*
X166422541Y-95046505D01*
X166422541Y-95046505D02*
X166336827Y-94960791D01*
X166336827Y-94960791D02*
X166251113Y-94789362D01*
X166251113Y-94789362D02*
X166251113Y-94703648D01*
X166251113Y-94703648D02*
X166336827Y-94532219D01*
X166336827Y-94532219D02*
X166422541Y-94446505D01*
X166422541Y-94446505D02*
X166593970Y-94360791D01*
X166593970Y-94360791D02*
X166936827Y-94360791D01*
X166936827Y-94360791D02*
X167108256Y-94446505D01*
X167108256Y-94446505D02*
X167193970Y-94532219D01*
X167193970Y-94532219D02*
X167279684Y-94703648D01*
X167279684Y-94703648D02*
X167279684Y-94789362D01*
X167279684Y-94789362D02*
X167193970Y-94960791D01*
X167193970Y-94960791D02*
X167108256Y-95046505D01*
X167108256Y-95046505D02*
X166936827Y-95132219D01*
X166936827Y-95132219D02*
X166593970Y-95132219D01*
X166593970Y-95132219D02*
X166422541Y-95217934D01*
X166422541Y-95217934D02*
X166336827Y-95303648D01*
X166336827Y-95303648D02*
X166251113Y-95475077D01*
X166251113Y-95475077D02*
X166251113Y-95817934D01*
X166251113Y-95817934D02*
X166336827Y-95989362D01*
X166336827Y-95989362D02*
X166422541Y-96075077D01*
X166422541Y-96075077D02*
X166593970Y-96160791D01*
X166593970Y-96160791D02*
X166936827Y-96160791D01*
X166936827Y-96160791D02*
X167108256Y-96075077D01*
X167108256Y-96075077D02*
X167193970Y-95989362D01*
X167193970Y-95989362D02*
X167279684Y-95817934D01*
X167279684Y-95817934D02*
X167279684Y-95475077D01*
X167279684Y-95475077D02*
X167193970Y-95303648D01*
X167193970Y-95303648D02*
X167108256Y-95217934D01*
X167108256Y-95217934D02*
X166936827Y-95132219D01*
X168051113Y-94960791D02*
X168051113Y-96760791D01*
X168051113Y-95046505D02*
X168222542Y-94960791D01*
X168222542Y-94960791D02*
X168565399Y-94960791D01*
X168565399Y-94960791D02*
X168736827Y-95046505D01*
X168736827Y-95046505D02*
X168822542Y-95132219D01*
X168822542Y-95132219D02*
X168908256Y-95303648D01*
X168908256Y-95303648D02*
X168908256Y-95817934D01*
X168908256Y-95817934D02*
X168822542Y-95989362D01*
X168822542Y-95989362D02*
X168736827Y-96075077D01*
X168736827Y-96075077D02*
X168565399Y-96160791D01*
X168565399Y-96160791D02*
X168222542Y-96160791D01*
X168222542Y-96160791D02*
X168051113Y-96075077D01*
X169936827Y-95132219D02*
X169765398Y-95046505D01*
X169765398Y-95046505D02*
X169679684Y-94960791D01*
X169679684Y-94960791D02*
X169593970Y-94789362D01*
X169593970Y-94789362D02*
X169593970Y-94703648D01*
X169593970Y-94703648D02*
X169679684Y-94532219D01*
X169679684Y-94532219D02*
X169765398Y-94446505D01*
X169765398Y-94446505D02*
X169936827Y-94360791D01*
X169936827Y-94360791D02*
X170279684Y-94360791D01*
X170279684Y-94360791D02*
X170451113Y-94446505D01*
X170451113Y-94446505D02*
X170536827Y-94532219D01*
X170536827Y-94532219D02*
X170622541Y-94703648D01*
X170622541Y-94703648D02*
X170622541Y-94789362D01*
X170622541Y-94789362D02*
X170536827Y-94960791D01*
X170536827Y-94960791D02*
X170451113Y-95046505D01*
X170451113Y-95046505D02*
X170279684Y-95132219D01*
X170279684Y-95132219D02*
X169936827Y-95132219D01*
X169936827Y-95132219D02*
X169765398Y-95217934D01*
X169765398Y-95217934D02*
X169679684Y-95303648D01*
X169679684Y-95303648D02*
X169593970Y-95475077D01*
X169593970Y-95475077D02*
X169593970Y-95817934D01*
X169593970Y-95817934D02*
X169679684Y-95989362D01*
X169679684Y-95989362D02*
X169765398Y-96075077D01*
X169765398Y-96075077D02*
X169936827Y-96160791D01*
X169936827Y-96160791D02*
X170279684Y-96160791D01*
X170279684Y-96160791D02*
X170451113Y-96075077D01*
X170451113Y-96075077D02*
X170536827Y-95989362D01*
X170536827Y-95989362D02*
X170622541Y-95817934D01*
X170622541Y-95817934D02*
X170622541Y-95475077D01*
X170622541Y-95475077D02*
X170536827Y-95303648D01*
X170536827Y-95303648D02*
X170451113Y-95217934D01*
X170451113Y-95217934D02*
X170279684Y-95132219D01*
X172165399Y-96075077D02*
X171993970Y-96160791D01*
X171993970Y-96160791D02*
X171651113Y-96160791D01*
X171651113Y-96160791D02*
X171479684Y-96075077D01*
X171479684Y-96075077D02*
X171393970Y-95989362D01*
X171393970Y-95989362D02*
X171308256Y-95817934D01*
X171308256Y-95817934D02*
X171308256Y-95303648D01*
X171308256Y-95303648D02*
X171393970Y-95132219D01*
X171393970Y-95132219D02*
X171479684Y-95046505D01*
X171479684Y-95046505D02*
X171651113Y-94960791D01*
X171651113Y-94960791D02*
X171993970Y-94960791D01*
X171993970Y-94960791D02*
X172165399Y-95046505D01*
X174222542Y-94360791D02*
X174222542Y-94703648D01*
X174908256Y-94360791D02*
X174908256Y-94703648D01*
X175422542Y-94960791D02*
X176108256Y-94960791D01*
X175679685Y-94360791D02*
X175679685Y-95903648D01*
X175679685Y-95903648D02*
X175765399Y-96075077D01*
X175765399Y-96075077D02*
X175936828Y-96160791D01*
X175936828Y-96160791D02*
X176108256Y-96160791D01*
X176708256Y-96160791D02*
X176708256Y-94960791D01*
X176708256Y-95303648D02*
X176793970Y-95132219D01*
X176793970Y-95132219D02*
X176879685Y-95046505D01*
X176879685Y-95046505D02*
X177051113Y-94960791D01*
X177051113Y-94960791D02*
X177222542Y-94960791D01*
X178593971Y-94960791D02*
X178593971Y-96160791D01*
X177822542Y-94960791D02*
X177822542Y-95903648D01*
X177822542Y-95903648D02*
X177908256Y-96075077D01*
X177908256Y-96075077D02*
X178079685Y-96160791D01*
X178079685Y-96160791D02*
X178336828Y-96160791D01*
X178336828Y-96160791D02*
X178508256Y-96075077D01*
X178508256Y-96075077D02*
X178593971Y-95989362D01*
X179451113Y-94960791D02*
X179451113Y-96160791D01*
X179451113Y-95132219D02*
X179536827Y-95046505D01*
X179536827Y-95046505D02*
X179708256Y-94960791D01*
X179708256Y-94960791D02*
X179965399Y-94960791D01*
X179965399Y-94960791D02*
X180136827Y-95046505D01*
X180136827Y-95046505D02*
X180222542Y-95217934D01*
X180222542Y-95217934D02*
X180222542Y-96160791D01*
X181079684Y-96160791D02*
X181079684Y-94360791D01*
X181251113Y-95475077D02*
X181765398Y-96160791D01*
X181765398Y-94960791D02*
X181079684Y-95646505D01*
X182451113Y-94360791D02*
X182451113Y-94703648D01*
X183136827Y-94360791D02*
X183136827Y-94703648D01*
X186051114Y-96160791D02*
X186051114Y-95217934D01*
X186051114Y-95217934D02*
X185965399Y-95046505D01*
X185965399Y-95046505D02*
X185793971Y-94960791D01*
X185793971Y-94960791D02*
X185451114Y-94960791D01*
X185451114Y-94960791D02*
X185279685Y-95046505D01*
X186051114Y-96075077D02*
X185879685Y-96160791D01*
X185879685Y-96160791D02*
X185451114Y-96160791D01*
X185451114Y-96160791D02*
X185279685Y-96075077D01*
X185279685Y-96075077D02*
X185193971Y-95903648D01*
X185193971Y-95903648D02*
X185193971Y-95732219D01*
X185193971Y-95732219D02*
X185279685Y-95560791D01*
X185279685Y-95560791D02*
X185451114Y-95475077D01*
X185451114Y-95475077D02*
X185879685Y-95475077D01*
X185879685Y-95475077D02*
X186051114Y-95389362D01*
X187679685Y-96160791D02*
X187679685Y-94360791D01*
X187679685Y-96075077D02*
X187508256Y-96160791D01*
X187508256Y-96160791D02*
X187165399Y-96160791D01*
X187165399Y-96160791D02*
X186993970Y-96075077D01*
X186993970Y-96075077D02*
X186908256Y-95989362D01*
X186908256Y-95989362D02*
X186822542Y-95817934D01*
X186822542Y-95817934D02*
X186822542Y-95303648D01*
X186822542Y-95303648D02*
X186908256Y-95132219D01*
X186908256Y-95132219D02*
X186993970Y-95046505D01*
X186993970Y-95046505D02*
X187165399Y-94960791D01*
X187165399Y-94960791D02*
X187508256Y-94960791D01*
X187508256Y-94960791D02*
X187679685Y-95046505D01*
X189308256Y-96160791D02*
X189308256Y-95217934D01*
X189308256Y-95217934D02*
X189222541Y-95046505D01*
X189222541Y-95046505D02*
X189051113Y-94960791D01*
X189051113Y-94960791D02*
X188708256Y-94960791D01*
X188708256Y-94960791D02*
X188536827Y-95046505D01*
X189308256Y-96075077D02*
X189136827Y-96160791D01*
X189136827Y-96160791D02*
X188708256Y-96160791D01*
X188708256Y-96160791D02*
X188536827Y-96075077D01*
X188536827Y-96075077D02*
X188451113Y-95903648D01*
X188451113Y-95903648D02*
X188451113Y-95732219D01*
X188451113Y-95732219D02*
X188536827Y-95560791D01*
X188536827Y-95560791D02*
X188708256Y-95475077D01*
X188708256Y-95475077D02*
X189136827Y-95475077D01*
X189136827Y-95475077D02*
X189308256Y-95389362D01*
X190165398Y-94960791D02*
X190165398Y-96760791D01*
X190165398Y-95046505D02*
X190336827Y-94960791D01*
X190336827Y-94960791D02*
X190679684Y-94960791D01*
X190679684Y-94960791D02*
X190851112Y-95046505D01*
X190851112Y-95046505D02*
X190936827Y-95132219D01*
X190936827Y-95132219D02*
X191022541Y-95303648D01*
X191022541Y-95303648D02*
X191022541Y-95817934D01*
X191022541Y-95817934D02*
X190936827Y-95989362D01*
X190936827Y-95989362D02*
X190851112Y-96075077D01*
X190851112Y-96075077D02*
X190679684Y-96160791D01*
X190679684Y-96160791D02*
X190336827Y-96160791D01*
X190336827Y-96160791D02*
X190165398Y-96075077D01*
X191536826Y-94960791D02*
X192222540Y-94960791D01*
X191793969Y-94360791D02*
X191793969Y-95903648D01*
X191793969Y-95903648D02*
X191879683Y-96075077D01*
X191879683Y-96075077D02*
X192051112Y-96160791D01*
X192051112Y-96160791D02*
X192222540Y-96160791D01*
X193508254Y-96075077D02*
X193336826Y-96160791D01*
X193336826Y-96160791D02*
X192993969Y-96160791D01*
X192993969Y-96160791D02*
X192822540Y-96075077D01*
X192822540Y-96075077D02*
X192736826Y-95903648D01*
X192736826Y-95903648D02*
X192736826Y-95217934D01*
X192736826Y-95217934D02*
X192822540Y-95046505D01*
X192822540Y-95046505D02*
X192993969Y-94960791D01*
X192993969Y-94960791D02*
X193336826Y-94960791D01*
X193336826Y-94960791D02*
X193508254Y-95046505D01*
X193508254Y-95046505D02*
X193593969Y-95217934D01*
X193593969Y-95217934D02*
X193593969Y-95389362D01*
X193593969Y-95389362D02*
X192736826Y-95560791D01*
X194365397Y-96160791D02*
X194365397Y-94960791D01*
X194365397Y-95303648D02*
X194451111Y-95132219D01*
X194451111Y-95132219D02*
X194536826Y-95046505D01*
X194536826Y-95046505D02*
X194708254Y-94960791D01*
X194708254Y-94960791D02*
X194879683Y-94960791D01*
X126479684Y-104117934D02*
X126736827Y-104203648D01*
X126736827Y-104203648D02*
X126822541Y-104289362D01*
X126822541Y-104289362D02*
X126908255Y-104460791D01*
X126908255Y-104460791D02*
X126908255Y-104717934D01*
X126908255Y-104717934D02*
X126822541Y-104889362D01*
X126822541Y-104889362D02*
X126736827Y-104975077D01*
X126736827Y-104975077D02*
X126565398Y-105060791D01*
X126565398Y-105060791D02*
X125879684Y-105060791D01*
X125879684Y-105060791D02*
X125879684Y-103260791D01*
X125879684Y-103260791D02*
X126479684Y-103260791D01*
X126479684Y-103260791D02*
X126651113Y-103346505D01*
X126651113Y-103346505D02*
X126736827Y-103432219D01*
X126736827Y-103432219D02*
X126822541Y-103603648D01*
X126822541Y-103603648D02*
X126822541Y-103775077D01*
X126822541Y-103775077D02*
X126736827Y-103946505D01*
X126736827Y-103946505D02*
X126651113Y-104032219D01*
X126651113Y-104032219D02*
X126479684Y-104117934D01*
X126479684Y-104117934D02*
X125879684Y-104117934D01*
X127679684Y-104889362D02*
X127765398Y-104975077D01*
X127765398Y-104975077D02*
X127679684Y-105060791D01*
X127679684Y-105060791D02*
X127593970Y-104975077D01*
X127593970Y-104975077D02*
X127679684Y-104889362D01*
X127679684Y-104889362D02*
X127679684Y-105060791D01*
X127679684Y-103946505D02*
X127765398Y-104032219D01*
X127765398Y-104032219D02*
X127679684Y-104117934D01*
X127679684Y-104117934D02*
X127593970Y-104032219D01*
X127593970Y-104032219D02*
X127679684Y-103946505D01*
X127679684Y-103946505D02*
X127679684Y-104117934D01*
X130936827Y-105060791D02*
X130336827Y-104203648D01*
X129908256Y-105060791D02*
X129908256Y-103260791D01*
X129908256Y-103260791D02*
X130593970Y-103260791D01*
X130593970Y-103260791D02*
X130765399Y-103346505D01*
X130765399Y-103346505D02*
X130851113Y-103432219D01*
X130851113Y-103432219D02*
X130936827Y-103603648D01*
X130936827Y-103603648D02*
X130936827Y-103860791D01*
X130936827Y-103860791D02*
X130851113Y-104032219D01*
X130851113Y-104032219D02*
X130765399Y-104117934D01*
X130765399Y-104117934D02*
X130593970Y-104203648D01*
X130593970Y-104203648D02*
X129908256Y-104203648D01*
X131708256Y-105060791D02*
X131708256Y-103860791D01*
X131708256Y-103260791D02*
X131622542Y-103346505D01*
X131622542Y-103346505D02*
X131708256Y-103432219D01*
X131708256Y-103432219D02*
X131793970Y-103346505D01*
X131793970Y-103346505D02*
X131708256Y-103260791D01*
X131708256Y-103260791D02*
X131708256Y-103432219D01*
X132565399Y-103860791D02*
X132565399Y-105060791D01*
X132565399Y-104032219D02*
X132651113Y-103946505D01*
X132651113Y-103946505D02*
X132822542Y-103860791D01*
X132822542Y-103860791D02*
X133079685Y-103860791D01*
X133079685Y-103860791D02*
X133251113Y-103946505D01*
X133251113Y-103946505D02*
X133336828Y-104117934D01*
X133336828Y-104117934D02*
X133336828Y-105060791D01*
X134965399Y-103860791D02*
X134965399Y-105317934D01*
X134965399Y-105317934D02*
X134879684Y-105489362D01*
X134879684Y-105489362D02*
X134793970Y-105575077D01*
X134793970Y-105575077D02*
X134622541Y-105660791D01*
X134622541Y-105660791D02*
X134365399Y-105660791D01*
X134365399Y-105660791D02*
X134193970Y-105575077D01*
X134965399Y-104975077D02*
X134793970Y-105060791D01*
X134793970Y-105060791D02*
X134451113Y-105060791D01*
X134451113Y-105060791D02*
X134279684Y-104975077D01*
X134279684Y-104975077D02*
X134193970Y-104889362D01*
X134193970Y-104889362D02*
X134108256Y-104717934D01*
X134108256Y-104717934D02*
X134108256Y-104203648D01*
X134108256Y-104203648D02*
X134193970Y-104032219D01*
X134193970Y-104032219D02*
X134279684Y-103946505D01*
X134279684Y-103946505D02*
X134451113Y-103860791D01*
X134451113Y-103860791D02*
X134793970Y-103860791D01*
X134793970Y-103860791D02*
X134965399Y-103946505D01*
X137108255Y-103175077D02*
X135565398Y-105489362D01*
X137708255Y-104375077D02*
X139079684Y-104375077D01*
X140708255Y-103860791D02*
X140708255Y-105060791D01*
X140279683Y-103175077D02*
X139851112Y-104460791D01*
X139851112Y-104460791D02*
X140965397Y-104460791D01*
X141908255Y-104032219D02*
X141736826Y-103946505D01*
X141736826Y-103946505D02*
X141651112Y-103860791D01*
X141651112Y-103860791D02*
X141565398Y-103689362D01*
X141565398Y-103689362D02*
X141565398Y-103603648D01*
X141565398Y-103603648D02*
X141651112Y-103432219D01*
X141651112Y-103432219D02*
X141736826Y-103346505D01*
X141736826Y-103346505D02*
X141908255Y-103260791D01*
X141908255Y-103260791D02*
X142251112Y-103260791D01*
X142251112Y-103260791D02*
X142422541Y-103346505D01*
X142422541Y-103346505D02*
X142508255Y-103432219D01*
X142508255Y-103432219D02*
X142593969Y-103603648D01*
X142593969Y-103603648D02*
X142593969Y-103689362D01*
X142593969Y-103689362D02*
X142508255Y-103860791D01*
X142508255Y-103860791D02*
X142422541Y-103946505D01*
X142422541Y-103946505D02*
X142251112Y-104032219D01*
X142251112Y-104032219D02*
X141908255Y-104032219D01*
X141908255Y-104032219D02*
X141736826Y-104117934D01*
X141736826Y-104117934D02*
X141651112Y-104203648D01*
X141651112Y-104203648D02*
X141565398Y-104375077D01*
X141565398Y-104375077D02*
X141565398Y-104717934D01*
X141565398Y-104717934D02*
X141651112Y-104889362D01*
X141651112Y-104889362D02*
X141736826Y-104975077D01*
X141736826Y-104975077D02*
X141908255Y-105060791D01*
X141908255Y-105060791D02*
X142251112Y-105060791D01*
X142251112Y-105060791D02*
X142422541Y-104975077D01*
X142422541Y-104975077D02*
X142508255Y-104889362D01*
X142508255Y-104889362D02*
X142593969Y-104717934D01*
X142593969Y-104717934D02*
X142593969Y-104375077D01*
X142593969Y-104375077D02*
X142508255Y-104203648D01*
X142508255Y-104203648D02*
X142422541Y-104117934D01*
X142422541Y-104117934D02*
X142251112Y-104032219D01*
X143193969Y-103860791D02*
X143622541Y-105060791D01*
X143622541Y-105060791D02*
X144051112Y-103860791D01*
X146022542Y-104546505D02*
X146879685Y-104546505D01*
X145851113Y-105060791D02*
X146451113Y-103260791D01*
X146451113Y-103260791D02*
X147051113Y-105060791D01*
X147651113Y-104889362D02*
X147736827Y-104975077D01*
X147736827Y-104975077D02*
X147651113Y-105060791D01*
X147651113Y-105060791D02*
X147565399Y-104975077D01*
X147565399Y-104975077D02*
X147651113Y-104889362D01*
X147651113Y-104889362D02*
X147651113Y-105060791D01*
X147651113Y-103946505D02*
X147736827Y-104032219D01*
X147736827Y-104032219D02*
X147651113Y-104117934D01*
X147651113Y-104117934D02*
X147565399Y-104032219D01*
X147565399Y-104032219D02*
X147651113Y-103946505D01*
X147651113Y-103946505D02*
X147651113Y-104117934D01*
X149622542Y-103260791D02*
X150651114Y-103260791D01*
X150136828Y-105060791D02*
X150136828Y-103260791D01*
X151251114Y-105060791D02*
X151251114Y-103860791D01*
X151251114Y-103260791D02*
X151165400Y-103346505D01*
X151165400Y-103346505D02*
X151251114Y-103432219D01*
X151251114Y-103432219D02*
X151336828Y-103346505D01*
X151336828Y-103346505D02*
X151251114Y-103260791D01*
X151251114Y-103260791D02*
X151251114Y-103432219D01*
X152108257Y-103860791D02*
X152108257Y-105660791D01*
X152108257Y-103946505D02*
X152279686Y-103860791D01*
X152279686Y-103860791D02*
X152622543Y-103860791D01*
X152622543Y-103860791D02*
X152793971Y-103946505D01*
X152793971Y-103946505D02*
X152879686Y-104032219D01*
X152879686Y-104032219D02*
X152965400Y-104203648D01*
X152965400Y-104203648D02*
X152965400Y-104717934D01*
X152965400Y-104717934D02*
X152879686Y-104889362D01*
X152879686Y-104889362D02*
X152793971Y-104975077D01*
X152793971Y-104975077D02*
X152622543Y-105060791D01*
X152622543Y-105060791D02*
X152279686Y-105060791D01*
X152279686Y-105060791D02*
X152108257Y-104975077D01*
X155022542Y-103175077D02*
X153479685Y-105489362D01*
X155965399Y-103260791D02*
X156136828Y-103260791D01*
X156136828Y-103260791D02*
X156308256Y-103346505D01*
X156308256Y-103346505D02*
X156393971Y-103432219D01*
X156393971Y-103432219D02*
X156479685Y-103603648D01*
X156479685Y-103603648D02*
X156565399Y-103946505D01*
X156565399Y-103946505D02*
X156565399Y-104375077D01*
X156565399Y-104375077D02*
X156479685Y-104717934D01*
X156479685Y-104717934D02*
X156393971Y-104889362D01*
X156393971Y-104889362D02*
X156308256Y-104975077D01*
X156308256Y-104975077D02*
X156136828Y-105060791D01*
X156136828Y-105060791D02*
X155965399Y-105060791D01*
X155965399Y-105060791D02*
X155793971Y-104975077D01*
X155793971Y-104975077D02*
X155708256Y-104889362D01*
X155708256Y-104889362D02*
X155622542Y-104717934D01*
X155622542Y-104717934D02*
X155536828Y-104375077D01*
X155536828Y-104375077D02*
X155536828Y-103946505D01*
X155536828Y-103946505D02*
X155622542Y-103603648D01*
X155622542Y-103603648D02*
X155708256Y-103432219D01*
X155708256Y-103432219D02*
X155793971Y-103346505D01*
X155793971Y-103346505D02*
X155965399Y-103260791D01*
X157165399Y-103860791D02*
X157593971Y-105060791D01*
X157593971Y-105060791D02*
X158022542Y-103860791D01*
X125879684Y-100610791D02*
X125879684Y-98810791D01*
X126651113Y-100610791D02*
X126651113Y-99667934D01*
X126651113Y-99667934D02*
X126565398Y-99496505D01*
X126565398Y-99496505D02*
X126393970Y-99410791D01*
X126393970Y-99410791D02*
X126136827Y-99410791D01*
X126136827Y-99410791D02*
X125965398Y-99496505D01*
X125965398Y-99496505D02*
X125879684Y-99582219D01*
X127251112Y-99410791D02*
X127936826Y-99410791D01*
X127508255Y-98810791D02*
X127508255Y-100353648D01*
X127508255Y-100353648D02*
X127593969Y-100525077D01*
X127593969Y-100525077D02*
X127765398Y-100610791D01*
X127765398Y-100610791D02*
X127936826Y-100610791D01*
X128279683Y-99410791D02*
X128965397Y-99410791D01*
X128536826Y-98810791D02*
X128536826Y-100353648D01*
X128536826Y-100353648D02*
X128622540Y-100525077D01*
X128622540Y-100525077D02*
X128793969Y-100610791D01*
X128793969Y-100610791D02*
X128965397Y-100610791D01*
X129565397Y-99410791D02*
X129565397Y-101210791D01*
X129565397Y-99496505D02*
X129736826Y-99410791D01*
X129736826Y-99410791D02*
X130079683Y-99410791D01*
X130079683Y-99410791D02*
X130251111Y-99496505D01*
X130251111Y-99496505D02*
X130336826Y-99582219D01*
X130336826Y-99582219D02*
X130422540Y-99753648D01*
X130422540Y-99753648D02*
X130422540Y-100267934D01*
X130422540Y-100267934D02*
X130336826Y-100439362D01*
X130336826Y-100439362D02*
X130251111Y-100525077D01*
X130251111Y-100525077D02*
X130079683Y-100610791D01*
X130079683Y-100610791D02*
X129736826Y-100610791D01*
X129736826Y-100610791D02*
X129565397Y-100525077D01*
X131108254Y-100525077D02*
X131279682Y-100610791D01*
X131279682Y-100610791D02*
X131622539Y-100610791D01*
X131622539Y-100610791D02*
X131793968Y-100525077D01*
X131793968Y-100525077D02*
X131879682Y-100353648D01*
X131879682Y-100353648D02*
X131879682Y-100267934D01*
X131879682Y-100267934D02*
X131793968Y-100096505D01*
X131793968Y-100096505D02*
X131622539Y-100010791D01*
X131622539Y-100010791D02*
X131365397Y-100010791D01*
X131365397Y-100010791D02*
X131193968Y-99925077D01*
X131193968Y-99925077D02*
X131108254Y-99753648D01*
X131108254Y-99753648D02*
X131108254Y-99667934D01*
X131108254Y-99667934D02*
X131193968Y-99496505D01*
X131193968Y-99496505D02*
X131365397Y-99410791D01*
X131365397Y-99410791D02*
X131622539Y-99410791D01*
X131622539Y-99410791D02*
X131793968Y-99496505D01*
X132651111Y-100439362D02*
X132736825Y-100525077D01*
X132736825Y-100525077D02*
X132651111Y-100610791D01*
X132651111Y-100610791D02*
X132565397Y-100525077D01*
X132565397Y-100525077D02*
X132651111Y-100439362D01*
X132651111Y-100439362D02*
X132651111Y-100610791D01*
X132651111Y-99496505D02*
X132736825Y-99582219D01*
X132736825Y-99582219D02*
X132651111Y-99667934D01*
X132651111Y-99667934D02*
X132565397Y-99582219D01*
X132565397Y-99582219D02*
X132651111Y-99496505D01*
X132651111Y-99496505D02*
X132651111Y-99667934D01*
X134793968Y-98725077D02*
X133251111Y-101039362D01*
X136679682Y-98725077D02*
X135136825Y-101039362D01*
X138051111Y-99410791D02*
X138051111Y-100867934D01*
X138051111Y-100867934D02*
X137965396Y-101039362D01*
X137965396Y-101039362D02*
X137879682Y-101125077D01*
X137879682Y-101125077D02*
X137708253Y-101210791D01*
X137708253Y-101210791D02*
X137451111Y-101210791D01*
X137451111Y-101210791D02*
X137279682Y-101125077D01*
X138051111Y-100525077D02*
X137879682Y-100610791D01*
X137879682Y-100610791D02*
X137536825Y-100610791D01*
X137536825Y-100610791D02*
X137365396Y-100525077D01*
X137365396Y-100525077D02*
X137279682Y-100439362D01*
X137279682Y-100439362D02*
X137193968Y-100267934D01*
X137193968Y-100267934D02*
X137193968Y-99753648D01*
X137193968Y-99753648D02*
X137279682Y-99582219D01*
X137279682Y-99582219D02*
X137365396Y-99496505D01*
X137365396Y-99496505D02*
X137536825Y-99410791D01*
X137536825Y-99410791D02*
X137879682Y-99410791D01*
X137879682Y-99410791D02*
X138051111Y-99496505D01*
X138908253Y-100610791D02*
X138908253Y-99410791D01*
X138908253Y-98810791D02*
X138822539Y-98896505D01*
X138822539Y-98896505D02*
X138908253Y-98982219D01*
X138908253Y-98982219D02*
X138993967Y-98896505D01*
X138993967Y-98896505D02*
X138908253Y-98810791D01*
X138908253Y-98810791D02*
X138908253Y-98982219D01*
X139508253Y-99410791D02*
X140193967Y-99410791D01*
X139765396Y-98810791D02*
X139765396Y-100353648D01*
X139765396Y-100353648D02*
X139851110Y-100525077D01*
X139851110Y-100525077D02*
X140022539Y-100610791D01*
X140022539Y-100610791D02*
X140193967Y-100610791D01*
X140793967Y-100610791D02*
X140793967Y-98810791D01*
X141565396Y-100610791D02*
X141565396Y-99667934D01*
X141565396Y-99667934D02*
X141479681Y-99496505D01*
X141479681Y-99496505D02*
X141308253Y-99410791D01*
X141308253Y-99410791D02*
X141051110Y-99410791D01*
X141051110Y-99410791D02*
X140879681Y-99496505D01*
X140879681Y-99496505D02*
X140793967Y-99582219D01*
X143193967Y-99410791D02*
X143193967Y-100610791D01*
X142422538Y-99410791D02*
X142422538Y-100353648D01*
X142422538Y-100353648D02*
X142508252Y-100525077D01*
X142508252Y-100525077D02*
X142679681Y-100610791D01*
X142679681Y-100610791D02*
X142936824Y-100610791D01*
X142936824Y-100610791D02*
X143108252Y-100525077D01*
X143108252Y-100525077D02*
X143193967Y-100439362D01*
X144051109Y-100610791D02*
X144051109Y-98810791D01*
X144051109Y-99496505D02*
X144222538Y-99410791D01*
X144222538Y-99410791D02*
X144565395Y-99410791D01*
X144565395Y-99410791D02*
X144736823Y-99496505D01*
X144736823Y-99496505D02*
X144822538Y-99582219D01*
X144822538Y-99582219D02*
X144908252Y-99753648D01*
X144908252Y-99753648D02*
X144908252Y-100267934D01*
X144908252Y-100267934D02*
X144822538Y-100439362D01*
X144822538Y-100439362D02*
X144736823Y-100525077D01*
X144736823Y-100525077D02*
X144565395Y-100610791D01*
X144565395Y-100610791D02*
X144222538Y-100610791D01*
X144222538Y-100610791D02*
X144051109Y-100525077D01*
X145679680Y-100439362D02*
X145765394Y-100525077D01*
X145765394Y-100525077D02*
X145679680Y-100610791D01*
X145679680Y-100610791D02*
X145593966Y-100525077D01*
X145593966Y-100525077D02*
X145679680Y-100439362D01*
X145679680Y-100439362D02*
X145679680Y-100610791D01*
X147308252Y-100525077D02*
X147136823Y-100610791D01*
X147136823Y-100610791D02*
X146793966Y-100610791D01*
X146793966Y-100610791D02*
X146622537Y-100525077D01*
X146622537Y-100525077D02*
X146536823Y-100439362D01*
X146536823Y-100439362D02*
X146451109Y-100267934D01*
X146451109Y-100267934D02*
X146451109Y-99753648D01*
X146451109Y-99753648D02*
X146536823Y-99582219D01*
X146536823Y-99582219D02*
X146622537Y-99496505D01*
X146622537Y-99496505D02*
X146793966Y-99410791D01*
X146793966Y-99410791D02*
X147136823Y-99410791D01*
X147136823Y-99410791D02*
X147308252Y-99496505D01*
X148336823Y-100610791D02*
X148165394Y-100525077D01*
X148165394Y-100525077D02*
X148079680Y-100439362D01*
X148079680Y-100439362D02*
X147993966Y-100267934D01*
X147993966Y-100267934D02*
X147993966Y-99753648D01*
X147993966Y-99753648D02*
X148079680Y-99582219D01*
X148079680Y-99582219D02*
X148165394Y-99496505D01*
X148165394Y-99496505D02*
X148336823Y-99410791D01*
X148336823Y-99410791D02*
X148593966Y-99410791D01*
X148593966Y-99410791D02*
X148765394Y-99496505D01*
X148765394Y-99496505D02*
X148851109Y-99582219D01*
X148851109Y-99582219D02*
X148936823Y-99753648D01*
X148936823Y-99753648D02*
X148936823Y-100267934D01*
X148936823Y-100267934D02*
X148851109Y-100439362D01*
X148851109Y-100439362D02*
X148765394Y-100525077D01*
X148765394Y-100525077D02*
X148593966Y-100610791D01*
X148593966Y-100610791D02*
X148336823Y-100610791D01*
X149708251Y-100610791D02*
X149708251Y-99410791D01*
X149708251Y-99582219D02*
X149793965Y-99496505D01*
X149793965Y-99496505D02*
X149965394Y-99410791D01*
X149965394Y-99410791D02*
X150222537Y-99410791D01*
X150222537Y-99410791D02*
X150393965Y-99496505D01*
X150393965Y-99496505D02*
X150479680Y-99667934D01*
X150479680Y-99667934D02*
X150479680Y-100610791D01*
X150479680Y-99667934D02*
X150565394Y-99496505D01*
X150565394Y-99496505D02*
X150736822Y-99410791D01*
X150736822Y-99410791D02*
X150993965Y-99410791D01*
X150993965Y-99410791D02*
X151165394Y-99496505D01*
X151165394Y-99496505D02*
X151251108Y-99667934D01*
X151251108Y-99667934D02*
X151251108Y-100610791D01*
X153393965Y-98725077D02*
X151851108Y-101039362D01*
X154765394Y-100525077D02*
X154593965Y-100610791D01*
X154593965Y-100610791D02*
X154251108Y-100610791D01*
X154251108Y-100610791D02*
X154079679Y-100525077D01*
X154079679Y-100525077D02*
X153993965Y-100439362D01*
X153993965Y-100439362D02*
X153908251Y-100267934D01*
X153908251Y-100267934D02*
X153908251Y-99753648D01*
X153908251Y-99753648D02*
X153993965Y-99582219D01*
X153993965Y-99582219D02*
X154079679Y-99496505D01*
X154079679Y-99496505D02*
X154251108Y-99410791D01*
X154251108Y-99410791D02*
X154593965Y-99410791D01*
X154593965Y-99410791D02*
X154765394Y-99496505D01*
X156308251Y-99410791D02*
X156308251Y-100610791D01*
X155536822Y-99410791D02*
X155536822Y-100353648D01*
X155536822Y-100353648D02*
X155622536Y-100525077D01*
X155622536Y-100525077D02*
X155793965Y-100610791D01*
X155793965Y-100610791D02*
X156051108Y-100610791D01*
X156051108Y-100610791D02*
X156222536Y-100525077D01*
X156222536Y-100525077D02*
X156308251Y-100439362D01*
X157165393Y-99925077D02*
X158536822Y-99925077D01*
X159136821Y-99410791D02*
X159822535Y-99410791D01*
X159393964Y-98810791D02*
X159393964Y-100353648D01*
X159393964Y-100353648D02*
X159479678Y-100525077D01*
X159479678Y-100525077D02*
X159651107Y-100610791D01*
X159651107Y-100610791D02*
X159822535Y-100610791D01*
X161108249Y-100525077D02*
X160936821Y-100610791D01*
X160936821Y-100610791D02*
X160593964Y-100610791D01*
X160593964Y-100610791D02*
X160422535Y-100525077D01*
X160422535Y-100525077D02*
X160336821Y-100353648D01*
X160336821Y-100353648D02*
X160336821Y-99667934D01*
X160336821Y-99667934D02*
X160422535Y-99496505D01*
X160422535Y-99496505D02*
X160593964Y-99410791D01*
X160593964Y-99410791D02*
X160936821Y-99410791D01*
X160936821Y-99410791D02*
X161108249Y-99496505D01*
X161108249Y-99496505D02*
X161193964Y-99667934D01*
X161193964Y-99667934D02*
X161193964Y-99839362D01*
X161193964Y-99839362D02*
X160336821Y-100010791D01*
X162222535Y-100610791D02*
X162051106Y-100525077D01*
X162051106Y-100525077D02*
X161965392Y-100353648D01*
X161965392Y-100353648D02*
X161965392Y-98810791D01*
X163593963Y-100525077D02*
X163422535Y-100610791D01*
X163422535Y-100610791D02*
X163079678Y-100610791D01*
X163079678Y-100610791D02*
X162908249Y-100525077D01*
X162908249Y-100525077D02*
X162822535Y-100353648D01*
X162822535Y-100353648D02*
X162822535Y-99667934D01*
X162822535Y-99667934D02*
X162908249Y-99496505D01*
X162908249Y-99496505D02*
X163079678Y-99410791D01*
X163079678Y-99410791D02*
X163422535Y-99410791D01*
X163422535Y-99410791D02*
X163593963Y-99496505D01*
X163593963Y-99496505D02*
X163679678Y-99667934D01*
X163679678Y-99667934D02*
X163679678Y-99839362D01*
X163679678Y-99839362D02*
X162822535Y-100010791D01*
X165222535Y-100525077D02*
X165051106Y-100610791D01*
X165051106Y-100610791D02*
X164708249Y-100610791D01*
X164708249Y-100610791D02*
X164536820Y-100525077D01*
X164536820Y-100525077D02*
X164451106Y-100439362D01*
X164451106Y-100439362D02*
X164365392Y-100267934D01*
X164365392Y-100267934D02*
X164365392Y-99753648D01*
X164365392Y-99753648D02*
X164451106Y-99582219D01*
X164451106Y-99582219D02*
X164536820Y-99496505D01*
X164536820Y-99496505D02*
X164708249Y-99410791D01*
X164708249Y-99410791D02*
X165051106Y-99410791D01*
X165051106Y-99410791D02*
X165222535Y-99496505D01*
X166251106Y-100610791D02*
X166079677Y-100525077D01*
X166079677Y-100525077D02*
X165993963Y-100439362D01*
X165993963Y-100439362D02*
X165908249Y-100267934D01*
X165908249Y-100267934D02*
X165908249Y-99753648D01*
X165908249Y-99753648D02*
X165993963Y-99582219D01*
X165993963Y-99582219D02*
X166079677Y-99496505D01*
X166079677Y-99496505D02*
X166251106Y-99410791D01*
X166251106Y-99410791D02*
X166508249Y-99410791D01*
X166508249Y-99410791D02*
X166679677Y-99496505D01*
X166679677Y-99496505D02*
X166765392Y-99582219D01*
X166765392Y-99582219D02*
X166851106Y-99753648D01*
X166851106Y-99753648D02*
X166851106Y-100267934D01*
X166851106Y-100267934D02*
X166765392Y-100439362D01*
X166765392Y-100439362D02*
X166679677Y-100525077D01*
X166679677Y-100525077D02*
X166508249Y-100610791D01*
X166508249Y-100610791D02*
X166251106Y-100610791D01*
X167622534Y-100610791D02*
X167622534Y-99410791D01*
X167622534Y-99582219D02*
X167708248Y-99496505D01*
X167708248Y-99496505D02*
X167879677Y-99410791D01*
X167879677Y-99410791D02*
X168136820Y-99410791D01*
X168136820Y-99410791D02*
X168308248Y-99496505D01*
X168308248Y-99496505D02*
X168393963Y-99667934D01*
X168393963Y-99667934D02*
X168393963Y-100610791D01*
X168393963Y-99667934D02*
X168479677Y-99496505D01*
X168479677Y-99496505D02*
X168651105Y-99410791D01*
X168651105Y-99410791D02*
X168908248Y-99410791D01*
X168908248Y-99410791D02*
X169079677Y-99496505D01*
X169079677Y-99496505D02*
X169165391Y-99667934D01*
X169165391Y-99667934D02*
X169165391Y-100610791D01*
X171308248Y-98725077D02*
X169765391Y-101039362D01*
X171908248Y-100610791D02*
X171908248Y-98810791D01*
X171908248Y-98810791D02*
X172508248Y-100096505D01*
X172508248Y-100096505D02*
X173108248Y-98810791D01*
X173108248Y-98810791D02*
X173108248Y-100610791D01*
X173965391Y-100610791D02*
X173965391Y-98810791D01*
X175851105Y-100439362D02*
X175765391Y-100525077D01*
X175765391Y-100525077D02*
X175508248Y-100610791D01*
X175508248Y-100610791D02*
X175336820Y-100610791D01*
X175336820Y-100610791D02*
X175079677Y-100525077D01*
X175079677Y-100525077D02*
X174908248Y-100353648D01*
X174908248Y-100353648D02*
X174822534Y-100182219D01*
X174822534Y-100182219D02*
X174736820Y-99839362D01*
X174736820Y-99839362D02*
X174736820Y-99582219D01*
X174736820Y-99582219D02*
X174822534Y-99239362D01*
X174822534Y-99239362D02*
X174908248Y-99067934D01*
X174908248Y-99067934D02*
X175079677Y-98896505D01*
X175079677Y-98896505D02*
X175336820Y-98810791D01*
X175336820Y-98810791D02*
X175508248Y-98810791D01*
X175508248Y-98810791D02*
X175765391Y-98896505D01*
X175765391Y-98896505D02*
X175851105Y-98982219D01*
X177651105Y-100610791D02*
X177051105Y-99753648D01*
X176622534Y-100610791D02*
X176622534Y-98810791D01*
X176622534Y-98810791D02*
X177308248Y-98810791D01*
X177308248Y-98810791D02*
X177479677Y-98896505D01*
X177479677Y-98896505D02*
X177565391Y-98982219D01*
X177565391Y-98982219D02*
X177651105Y-99153648D01*
X177651105Y-99153648D02*
X177651105Y-99410791D01*
X177651105Y-99410791D02*
X177565391Y-99582219D01*
X177565391Y-99582219D02*
X177479677Y-99667934D01*
X177479677Y-99667934D02*
X177308248Y-99753648D01*
X177308248Y-99753648D02*
X176622534Y-99753648D01*
X178765391Y-98810791D02*
X179108248Y-98810791D01*
X179108248Y-98810791D02*
X179279677Y-98896505D01*
X179279677Y-98896505D02*
X179451105Y-99067934D01*
X179451105Y-99067934D02*
X179536820Y-99410791D01*
X179536820Y-99410791D02*
X179536820Y-100010791D01*
X179536820Y-100010791D02*
X179451105Y-100353648D01*
X179451105Y-100353648D02*
X179279677Y-100525077D01*
X179279677Y-100525077D02*
X179108248Y-100610791D01*
X179108248Y-100610791D02*
X178765391Y-100610791D01*
X178765391Y-100610791D02*
X178593963Y-100525077D01*
X178593963Y-100525077D02*
X178422534Y-100353648D01*
X178422534Y-100353648D02*
X178336820Y-100010791D01*
X178336820Y-100010791D02*
X178336820Y-99410791D01*
X178336820Y-99410791D02*
X178422534Y-99067934D01*
X178422534Y-99067934D02*
X178593963Y-98896505D01*
X178593963Y-98896505D02*
X178765391Y-98810791D01*
X180308248Y-99925077D02*
X181679677Y-99925077D01*
X182279676Y-98810791D02*
X183308248Y-98810791D01*
X182793962Y-100610791D02*
X182793962Y-98810791D01*
X184936819Y-100610791D02*
X184336819Y-99753648D01*
X183908248Y-100610791D02*
X183908248Y-98810791D01*
X183908248Y-98810791D02*
X184593962Y-98810791D01*
X184593962Y-98810791D02*
X184765391Y-98896505D01*
X184765391Y-98896505D02*
X184851105Y-98982219D01*
X184851105Y-98982219D02*
X184936819Y-99153648D01*
X184936819Y-99153648D02*
X184936819Y-99410791D01*
X184936819Y-99410791D02*
X184851105Y-99582219D01*
X184851105Y-99582219D02*
X184765391Y-99667934D01*
X184765391Y-99667934D02*
X184593962Y-99753648D01*
X184593962Y-99753648D02*
X183908248Y-99753648D01*
X185708248Y-98810791D02*
X185708248Y-100267934D01*
X185708248Y-100267934D02*
X185793962Y-100439362D01*
X185793962Y-100439362D02*
X185879677Y-100525077D01*
X185879677Y-100525077D02*
X186051105Y-100610791D01*
X186051105Y-100610791D02*
X186393962Y-100610791D01*
X186393962Y-100610791D02*
X186565391Y-100525077D01*
X186565391Y-100525077D02*
X186651105Y-100439362D01*
X186651105Y-100439362D02*
X186736819Y-100267934D01*
X186736819Y-100267934D02*
X186736819Y-98810791D01*
X187593962Y-100610791D02*
X187593962Y-98810791D01*
X187593962Y-98810791D02*
X188622533Y-100610791D01*
X188622533Y-100610791D02*
X188622533Y-98810791D01*
X189479676Y-100610791D02*
X189479676Y-98810791D01*
X190508247Y-100610791D02*
X189736819Y-99582219D01*
X190508247Y-98810791D02*
X189479676Y-99839362D01*
X191279676Y-99925077D02*
X192651105Y-99925077D01*
X194279676Y-98810791D02*
X193936818Y-98810791D01*
X193936818Y-98810791D02*
X193765390Y-98896505D01*
X193765390Y-98896505D02*
X193679676Y-98982219D01*
X193679676Y-98982219D02*
X193508247Y-99239362D01*
X193508247Y-99239362D02*
X193422533Y-99582219D01*
X193422533Y-99582219D02*
X193422533Y-100267934D01*
X193422533Y-100267934D02*
X193508247Y-100439362D01*
X193508247Y-100439362D02*
X193593961Y-100525077D01*
X193593961Y-100525077D02*
X193765390Y-100610791D01*
X193765390Y-100610791D02*
X194108247Y-100610791D01*
X194108247Y-100610791D02*
X194279676Y-100525077D01*
X194279676Y-100525077D02*
X194365390Y-100439362D01*
X194365390Y-100439362D02*
X194451104Y-100267934D01*
X194451104Y-100267934D02*
X194451104Y-99839362D01*
X194451104Y-99839362D02*
X194365390Y-99667934D01*
X194365390Y-99667934D02*
X194279676Y-99582219D01*
X194279676Y-99582219D02*
X194108247Y-99496505D01*
X194108247Y-99496505D02*
X193765390Y-99496505D01*
X193765390Y-99496505D02*
X193593961Y-99582219D01*
X193593961Y-99582219D02*
X193508247Y-99667934D01*
X193508247Y-99667934D02*
X193422533Y-99839362D01*
%LPC*%
D12*
X200195936Y-99726177D03*
X94225940Y-99726177D03*
%LPD*%
M02*
