M48
; DRILL file {KiCad 8.0.1} date 2024-07-20T02:09:24+0100
; FORMAT={-:-/ absolute / inch / decimal}
; #@! TF.CreationDate,2024-07-20T02:09:24+01:00
; #@! TF.GenerationSoftware,Kicad,Pcbnew,8.0.1
; #@! TF.FileFunction,NonPlated,1,2,NPTH
FMAT,2
INCH
; #@! TA.AperFunction,NonPlated,NPTH,ComponentDrill
T1C0.1181
; #@! TA.AperFunction,NonPlated,NPTH,ComponentDrill
T2C0.1260
%
G90
G05
T1
X4.6996Y-3.7616
X5.1496Y-3.7616
X5.3339Y-3.7616
X5.7839Y-3.7616
X5.9681Y-3.7616
X6.4181Y-3.7616
X6.6024Y-3.7616
X7.0524Y-3.7616
X7.2366Y-3.7616
X7.6866Y-3.7616
X7.8709Y-3.7616
X8.3209Y-3.7616
T2
X4.426Y-3.6498
X4.426Y-4.3907
X5.0189Y-4.2831
X7.9658Y-4.2831
X8.598Y-3.6498
X8.598Y-4.3907
X9.3512Y-3.6498
X9.3512Y-4.3909
X13.5232Y-3.6498
X13.5232Y-4.3909
M30
