G04 #@! TF.GenerationSoftware,KiCad,Pcbnew,8.0.1*
G04 #@! TF.CreationDate,2024-08-12T23:31:38+01:00*
G04 #@! TF.ProjectId,MICRO_TRUNK_6_MAIN,4d494352-4f5f-4545-9255-4e4b5f365f4d,rev?*
G04 #@! TF.SameCoordinates,Original*
G04 #@! TF.FileFunction,Legend,Bot*
G04 #@! TF.FilePolarity,Positive*
%FSLAX46Y46*%
G04 Gerber Fmt 4.6, Leading zero omitted, Abs format (unit mm)*
G04 Created by KiCad (PCBNEW 8.0.1) date 2024-08-12 23:31:38*
%MOMM*%
%LPD*%
G01*
G04 APERTURE LIST*
%ADD10C,0.400000*%
%ADD11C,0.000000*%
%ADD12C,0.300000*%
%ADD13C,3.000000*%
%ADD14C,1.600000*%
%ADD15C,3.200000*%
%ADD16C,1.500000*%
G04 APERTURE END LIST*
D10*
X114136119Y-95324962D02*
X174136119Y-95324962D01*
X111636119Y-110324962D02*
X176636119Y-110324962D01*
D11*
G36*
X185630619Y-85543091D02*
G01*
X185641423Y-85544768D01*
X185652030Y-85547324D01*
X185662386Y-85550723D01*
X185672438Y-85554927D01*
X185682131Y-85559902D01*
X185691411Y-85565610D01*
X185700224Y-85572016D01*
X185708517Y-85579084D01*
X185716234Y-85586776D01*
X185723322Y-85595058D01*
X185729727Y-85603892D01*
X185735395Y-85613242D01*
X185740271Y-85623073D01*
X185744302Y-85633348D01*
X185747433Y-85644031D01*
X185749610Y-85655086D01*
X185750780Y-85666476D01*
X185750888Y-85678166D01*
X185749880Y-85690118D01*
X185747702Y-85702298D01*
X185744300Y-85714668D01*
X185739620Y-85727192D01*
X184726751Y-88115418D01*
X184723556Y-88123682D01*
X184720948Y-88131981D01*
X184718914Y-88140295D01*
X184717441Y-88148605D01*
X184716515Y-88156890D01*
X184716124Y-88165132D01*
X184716254Y-88173310D01*
X184716892Y-88181404D01*
X184718024Y-88189395D01*
X184719638Y-88197264D01*
X184721720Y-88204990D01*
X184724257Y-88212554D01*
X184727236Y-88219935D01*
X184730643Y-88227115D01*
X184734466Y-88234073D01*
X184738691Y-88240791D01*
X184743304Y-88247247D01*
X184748294Y-88253422D01*
X184753645Y-88259297D01*
X184759346Y-88264852D01*
X184765383Y-88270067D01*
X184771743Y-88274922D01*
X184778412Y-88279398D01*
X184785377Y-88283474D01*
X184792626Y-88287132D01*
X184800144Y-88290351D01*
X184807919Y-88293112D01*
X184815937Y-88295395D01*
X184824186Y-88297180D01*
X184832651Y-88298448D01*
X184841320Y-88299178D01*
X184850179Y-88299352D01*
X187624512Y-88264912D01*
X187635385Y-88265188D01*
X187645908Y-88266266D01*
X187656065Y-88268109D01*
X187665842Y-88270679D01*
X187675222Y-88273940D01*
X187684190Y-88277857D01*
X187692729Y-88282391D01*
X187700824Y-88287507D01*
X187708460Y-88293167D01*
X187715620Y-88299336D01*
X187722289Y-88305976D01*
X187728450Y-88313051D01*
X187734090Y-88320524D01*
X187739191Y-88328358D01*
X187743737Y-88336517D01*
X187747714Y-88344965D01*
X187751105Y-88353664D01*
X187753895Y-88362578D01*
X187756068Y-88371670D01*
X187757608Y-88380904D01*
X187758499Y-88390242D01*
X187758726Y-88399649D01*
X187758273Y-88409088D01*
X187757124Y-88418521D01*
X187755264Y-88427913D01*
X187752676Y-88437227D01*
X187749345Y-88446425D01*
X187745256Y-88455472D01*
X187740392Y-88464331D01*
X187734738Y-88472965D01*
X187728278Y-88481337D01*
X187720996Y-88489411D01*
X183912849Y-92405111D01*
X183902748Y-92414618D01*
X183892294Y-92422795D01*
X183881545Y-92429681D01*
X183870559Y-92435319D01*
X183859392Y-92439750D01*
X183848102Y-92443013D01*
X183836747Y-92445152D01*
X183825385Y-92446206D01*
X183814072Y-92446217D01*
X183802867Y-92445225D01*
X183791827Y-92443273D01*
X183781010Y-92440401D01*
X183770473Y-92436650D01*
X183760273Y-92432061D01*
X183750468Y-92426676D01*
X183741117Y-92420535D01*
X183732275Y-92413679D01*
X183724001Y-92406151D01*
X183716353Y-92397990D01*
X183709388Y-92389238D01*
X183703162Y-92379936D01*
X183697735Y-92370125D01*
X183693164Y-92359846D01*
X183689505Y-92349140D01*
X183686817Y-92338049D01*
X183685157Y-92326613D01*
X183684583Y-92314874D01*
X183685151Y-92302872D01*
X183686921Y-92290650D01*
X183689949Y-92278247D01*
X183694292Y-92265705D01*
X183700009Y-92253065D01*
X185055629Y-89578215D01*
X185059497Y-89569920D01*
X185062742Y-89561553D01*
X185065378Y-89553136D01*
X185067419Y-89544691D01*
X185068877Y-89536240D01*
X185069767Y-89527804D01*
X185070102Y-89519407D01*
X185069895Y-89511069D01*
X185069161Y-89502813D01*
X185067912Y-89494662D01*
X185066162Y-89486636D01*
X185063924Y-89478758D01*
X185061213Y-89471050D01*
X185058041Y-89463534D01*
X185054422Y-89456231D01*
X185050370Y-89449165D01*
X185045898Y-89442356D01*
X185041020Y-89435828D01*
X185035748Y-89429601D01*
X185030098Y-89423698D01*
X185024081Y-89418141D01*
X185017713Y-89412951D01*
X185011005Y-89408152D01*
X185003973Y-89403764D01*
X184996628Y-89399810D01*
X184988986Y-89396312D01*
X184981058Y-89393292D01*
X184972860Y-89390772D01*
X184964404Y-89388773D01*
X184955704Y-89387318D01*
X184946773Y-89386429D01*
X184937625Y-89386128D01*
X182086042Y-89386128D01*
X182075205Y-89385719D01*
X182064724Y-89384517D01*
X182054616Y-89382558D01*
X182044894Y-89379878D01*
X182035574Y-89376515D01*
X182026672Y-89372505D01*
X182018203Y-89367885D01*
X182010183Y-89362690D01*
X182002625Y-89356958D01*
X181995547Y-89350725D01*
X181988962Y-89344028D01*
X181982887Y-89336903D01*
X181977337Y-89329387D01*
X181972326Y-89321516D01*
X181967871Y-89313327D01*
X181963986Y-89304857D01*
X181960687Y-89296141D01*
X181957989Y-89287218D01*
X181955907Y-89278122D01*
X181954457Y-89268891D01*
X181953654Y-89259562D01*
X181953513Y-89250170D01*
X181954050Y-89240753D01*
X181955279Y-89231346D01*
X181957216Y-89221988D01*
X181959877Y-89212713D01*
X181963276Y-89203559D01*
X181967429Y-89194563D01*
X181972351Y-89185760D01*
X181978058Y-89177187D01*
X181984564Y-89168881D01*
X181991886Y-89160879D01*
X185523676Y-85582606D01*
X185533470Y-85573506D01*
X185543608Y-85565647D01*
X185554036Y-85558992D01*
X185564701Y-85553505D01*
X185575547Y-85549150D01*
X185586522Y-85545892D01*
X185597571Y-85543692D01*
X185608639Y-85542517D01*
X185619673Y-85542328D01*
X185630619Y-85543091D01*
G37*
D10*
X174136119Y-95324962D02*
X176636119Y-110324962D01*
X111636119Y-110324962D02*
X114136119Y-95324962D01*
D11*
G36*
X105090619Y-85543091D02*
G01*
X105101423Y-85544768D01*
X105112030Y-85547324D01*
X105122386Y-85550723D01*
X105132438Y-85554927D01*
X105142131Y-85559902D01*
X105151411Y-85565610D01*
X105160224Y-85572016D01*
X105168517Y-85579084D01*
X105176234Y-85586776D01*
X105183322Y-85595058D01*
X105189727Y-85603892D01*
X105195395Y-85613242D01*
X105200271Y-85623073D01*
X105204302Y-85633348D01*
X105207433Y-85644031D01*
X105209610Y-85655086D01*
X105210780Y-85666476D01*
X105210888Y-85678166D01*
X105209880Y-85690118D01*
X105207702Y-85702298D01*
X105204300Y-85714668D01*
X105199620Y-85727192D01*
X104186751Y-88115418D01*
X104183556Y-88123682D01*
X104180948Y-88131981D01*
X104178914Y-88140295D01*
X104177441Y-88148605D01*
X104176515Y-88156890D01*
X104176124Y-88165132D01*
X104176254Y-88173310D01*
X104176892Y-88181404D01*
X104178024Y-88189395D01*
X104179638Y-88197264D01*
X104181720Y-88204990D01*
X104184257Y-88212554D01*
X104187236Y-88219935D01*
X104190643Y-88227115D01*
X104194466Y-88234073D01*
X104198691Y-88240791D01*
X104203304Y-88247247D01*
X104208294Y-88253422D01*
X104213645Y-88259297D01*
X104219346Y-88264852D01*
X104225383Y-88270067D01*
X104231743Y-88274922D01*
X104238412Y-88279398D01*
X104245377Y-88283474D01*
X104252626Y-88287132D01*
X104260144Y-88290351D01*
X104267919Y-88293112D01*
X104275937Y-88295395D01*
X104284186Y-88297180D01*
X104292651Y-88298448D01*
X104301320Y-88299178D01*
X104310179Y-88299352D01*
X107084512Y-88264912D01*
X107095385Y-88265188D01*
X107105908Y-88266266D01*
X107116065Y-88268109D01*
X107125842Y-88270679D01*
X107135222Y-88273940D01*
X107144190Y-88277857D01*
X107152729Y-88282391D01*
X107160824Y-88287507D01*
X107168460Y-88293167D01*
X107175620Y-88299336D01*
X107182289Y-88305976D01*
X107188450Y-88313051D01*
X107194090Y-88320524D01*
X107199191Y-88328358D01*
X107203737Y-88336517D01*
X107207714Y-88344965D01*
X107211105Y-88353664D01*
X107213895Y-88362578D01*
X107216068Y-88371670D01*
X107217608Y-88380904D01*
X107218499Y-88390242D01*
X107218726Y-88399649D01*
X107218273Y-88409088D01*
X107217124Y-88418521D01*
X107215264Y-88427913D01*
X107212676Y-88437227D01*
X107209345Y-88446425D01*
X107205256Y-88455472D01*
X107200392Y-88464331D01*
X107194738Y-88472965D01*
X107188278Y-88481337D01*
X107180996Y-88489411D01*
X103372849Y-92405111D01*
X103362748Y-92414618D01*
X103352294Y-92422795D01*
X103341545Y-92429681D01*
X103330559Y-92435319D01*
X103319392Y-92439750D01*
X103308102Y-92443013D01*
X103296747Y-92445152D01*
X103285385Y-92446206D01*
X103274072Y-92446217D01*
X103262867Y-92445225D01*
X103251827Y-92443273D01*
X103241010Y-92440401D01*
X103230473Y-92436650D01*
X103220273Y-92432061D01*
X103210468Y-92426676D01*
X103201117Y-92420535D01*
X103192275Y-92413679D01*
X103184001Y-92406151D01*
X103176353Y-92397990D01*
X103169388Y-92389238D01*
X103163162Y-92379936D01*
X103157735Y-92370125D01*
X103153164Y-92359846D01*
X103149505Y-92349140D01*
X103146817Y-92338049D01*
X103145157Y-92326613D01*
X103144583Y-92314874D01*
X103145151Y-92302872D01*
X103146921Y-92290650D01*
X103149949Y-92278247D01*
X103154292Y-92265705D01*
X103160009Y-92253065D01*
X104515629Y-89578215D01*
X104519497Y-89569920D01*
X104522742Y-89561553D01*
X104525378Y-89553136D01*
X104527419Y-89544691D01*
X104528877Y-89536240D01*
X104529767Y-89527804D01*
X104530102Y-89519407D01*
X104529895Y-89511069D01*
X104529161Y-89502813D01*
X104527912Y-89494662D01*
X104526162Y-89486636D01*
X104523924Y-89478758D01*
X104521213Y-89471050D01*
X104518041Y-89463534D01*
X104514422Y-89456231D01*
X104510370Y-89449165D01*
X104505898Y-89442356D01*
X104501020Y-89435828D01*
X104495748Y-89429601D01*
X104490098Y-89423698D01*
X104484081Y-89418141D01*
X104477713Y-89412951D01*
X104471005Y-89408152D01*
X104463973Y-89403764D01*
X104456628Y-89399810D01*
X104448986Y-89396312D01*
X104441058Y-89393292D01*
X104432860Y-89390772D01*
X104424404Y-89388773D01*
X104415704Y-89387318D01*
X104406773Y-89386429D01*
X104397625Y-89386128D01*
X101546042Y-89386128D01*
X101535205Y-89385719D01*
X101524724Y-89384517D01*
X101514616Y-89382558D01*
X101504894Y-89379878D01*
X101495574Y-89376515D01*
X101486672Y-89372505D01*
X101478203Y-89367885D01*
X101470183Y-89362690D01*
X101462625Y-89356958D01*
X101455547Y-89350725D01*
X101448962Y-89344028D01*
X101442887Y-89336903D01*
X101437337Y-89329387D01*
X101432326Y-89321516D01*
X101427871Y-89313327D01*
X101423986Y-89304857D01*
X101420687Y-89296141D01*
X101417989Y-89287218D01*
X101415907Y-89278122D01*
X101414457Y-89268891D01*
X101413654Y-89259562D01*
X101413513Y-89250170D01*
X101414050Y-89240753D01*
X101415279Y-89231346D01*
X101417216Y-89221988D01*
X101419877Y-89212713D01*
X101423276Y-89203559D01*
X101427429Y-89194563D01*
X101432351Y-89185760D01*
X101438058Y-89177187D01*
X101444564Y-89168881D01*
X101451886Y-89160879D01*
X104983676Y-85582606D01*
X104993470Y-85573506D01*
X105003608Y-85565647D01*
X105014036Y-85558992D01*
X105024701Y-85553505D01*
X105035547Y-85549150D01*
X105046522Y-85545892D01*
X105057571Y-85543692D01*
X105068639Y-85542517D01*
X105079673Y-85542328D01*
X105090619Y-85543091D01*
G37*
D12*
X97742642Y-98698660D02*
X97266452Y-100031994D01*
X97266452Y-100031994D02*
X96790261Y-98698660D01*
X95647404Y-98031994D02*
X95456927Y-98031994D01*
X95456927Y-98031994D02*
X95266451Y-98127232D01*
X95266451Y-98127232D02*
X95171213Y-98222470D01*
X95171213Y-98222470D02*
X95075975Y-98412946D01*
X95075975Y-98412946D02*
X94980737Y-98793898D01*
X94980737Y-98793898D02*
X94980737Y-99270089D01*
X94980737Y-99270089D02*
X95075975Y-99651041D01*
X95075975Y-99651041D02*
X95171213Y-99841517D01*
X95171213Y-99841517D02*
X95266451Y-99936756D01*
X95266451Y-99936756D02*
X95456927Y-100031994D01*
X95456927Y-100031994D02*
X95647404Y-100031994D01*
X95647404Y-100031994D02*
X95837880Y-99936756D01*
X95837880Y-99936756D02*
X95933118Y-99841517D01*
X95933118Y-99841517D02*
X96028356Y-99651041D01*
X96028356Y-99651041D02*
X96123594Y-99270089D01*
X96123594Y-99270089D02*
X96123594Y-98793898D01*
X96123594Y-98793898D02*
X96028356Y-98412946D01*
X96028356Y-98412946D02*
X95933118Y-98222470D01*
X95933118Y-98222470D02*
X95837880Y-98127232D01*
X95837880Y-98127232D02*
X95647404Y-98031994D01*
X94123594Y-99841517D02*
X94028356Y-99936756D01*
X94028356Y-99936756D02*
X94123594Y-100031994D01*
X94123594Y-100031994D02*
X94218832Y-99936756D01*
X94218832Y-99936756D02*
X94123594Y-99841517D01*
X94123594Y-99841517D02*
X94123594Y-100031994D01*
X93266451Y-98222470D02*
X93171213Y-98127232D01*
X93171213Y-98127232D02*
X92980737Y-98031994D01*
X92980737Y-98031994D02*
X92504546Y-98031994D01*
X92504546Y-98031994D02*
X92314070Y-98127232D01*
X92314070Y-98127232D02*
X92218832Y-98222470D01*
X92218832Y-98222470D02*
X92123594Y-98412946D01*
X92123594Y-98412946D02*
X92123594Y-98603422D01*
X92123594Y-98603422D02*
X92218832Y-98889136D01*
X92218832Y-98889136D02*
X93361689Y-100031994D01*
X93361689Y-100031994D02*
X92123594Y-100031994D01*
X168826415Y-87061994D02*
X168826415Y-85061994D01*
X168826415Y-86014375D02*
X167683558Y-86014375D01*
X167683558Y-87061994D02*
X167683558Y-85061994D01*
X166731177Y-87061994D02*
X166731177Y-85061994D01*
X164731177Y-85157232D02*
X164921653Y-85061994D01*
X164921653Y-85061994D02*
X165207367Y-85061994D01*
X165207367Y-85061994D02*
X165493082Y-85157232D01*
X165493082Y-85157232D02*
X165683558Y-85347708D01*
X165683558Y-85347708D02*
X165778796Y-85538184D01*
X165778796Y-85538184D02*
X165874034Y-85919136D01*
X165874034Y-85919136D02*
X165874034Y-86204851D01*
X165874034Y-86204851D02*
X165778796Y-86585803D01*
X165778796Y-86585803D02*
X165683558Y-86776279D01*
X165683558Y-86776279D02*
X165493082Y-86966756D01*
X165493082Y-86966756D02*
X165207367Y-87061994D01*
X165207367Y-87061994D02*
X165016891Y-87061994D01*
X165016891Y-87061994D02*
X164731177Y-86966756D01*
X164731177Y-86966756D02*
X164635939Y-86871517D01*
X164635939Y-86871517D02*
X164635939Y-86204851D01*
X164635939Y-86204851D02*
X165016891Y-86204851D01*
X163778796Y-87061994D02*
X163778796Y-85061994D01*
X163778796Y-86014375D02*
X162635939Y-86014375D01*
X162635939Y-87061994D02*
X162635939Y-85061994D01*
X160445462Y-85061994D02*
X159778796Y-87061994D01*
X159778796Y-87061994D02*
X159112129Y-85061994D01*
X158064510Y-85061994D02*
X157683557Y-85061994D01*
X157683557Y-85061994D02*
X157493081Y-85157232D01*
X157493081Y-85157232D02*
X157302605Y-85347708D01*
X157302605Y-85347708D02*
X157207367Y-85728660D01*
X157207367Y-85728660D02*
X157207367Y-86395327D01*
X157207367Y-86395327D02*
X157302605Y-86776279D01*
X157302605Y-86776279D02*
X157493081Y-86966756D01*
X157493081Y-86966756D02*
X157683557Y-87061994D01*
X157683557Y-87061994D02*
X158064510Y-87061994D01*
X158064510Y-87061994D02*
X158254986Y-86966756D01*
X158254986Y-86966756D02*
X158445462Y-86776279D01*
X158445462Y-86776279D02*
X158540700Y-86395327D01*
X158540700Y-86395327D02*
X158540700Y-85728660D01*
X158540700Y-85728660D02*
X158445462Y-85347708D01*
X158445462Y-85347708D02*
X158254986Y-85157232D01*
X158254986Y-85157232D02*
X158064510Y-85061994D01*
X155397843Y-87061994D02*
X156350224Y-87061994D01*
X156350224Y-87061994D02*
X156350224Y-85061994D01*
X155016890Y-85061994D02*
X153874033Y-85061994D01*
X154445462Y-87061994D02*
X154445462Y-85061994D01*
X153302604Y-86490565D02*
X152350223Y-86490565D01*
X153493080Y-87061994D02*
X152826414Y-85061994D01*
X152826414Y-85061994D02*
X152159747Y-87061994D01*
X150445461Y-85157232D02*
X150635937Y-85061994D01*
X150635937Y-85061994D02*
X150921651Y-85061994D01*
X150921651Y-85061994D02*
X151207366Y-85157232D01*
X151207366Y-85157232D02*
X151397842Y-85347708D01*
X151397842Y-85347708D02*
X151493080Y-85538184D01*
X151493080Y-85538184D02*
X151588318Y-85919136D01*
X151588318Y-85919136D02*
X151588318Y-86204851D01*
X151588318Y-86204851D02*
X151493080Y-86585803D01*
X151493080Y-86585803D02*
X151397842Y-86776279D01*
X151397842Y-86776279D02*
X151207366Y-86966756D01*
X151207366Y-86966756D02*
X150921651Y-87061994D01*
X150921651Y-87061994D02*
X150731175Y-87061994D01*
X150731175Y-87061994D02*
X150445461Y-86966756D01*
X150445461Y-86966756D02*
X150350223Y-86871517D01*
X150350223Y-86871517D02*
X150350223Y-86204851D01*
X150350223Y-86204851D02*
X150731175Y-86204851D01*
X149493080Y-86014375D02*
X148826413Y-86014375D01*
X148540699Y-87061994D02*
X149493080Y-87061994D01*
X149493080Y-87061994D02*
X149493080Y-85061994D01*
X149493080Y-85061994D02*
X148540699Y-85061994D01*
X146159746Y-86300089D02*
X144635937Y-86300089D01*
X142159746Y-87061994D02*
X142159746Y-85061994D01*
X142159746Y-85061994D02*
X141683556Y-85061994D01*
X141683556Y-85061994D02*
X141397841Y-85157232D01*
X141397841Y-85157232D02*
X141207365Y-85347708D01*
X141207365Y-85347708D02*
X141112127Y-85538184D01*
X141112127Y-85538184D02*
X141016889Y-85919136D01*
X141016889Y-85919136D02*
X141016889Y-86204851D01*
X141016889Y-86204851D02*
X141112127Y-86585803D01*
X141112127Y-86585803D02*
X141207365Y-86776279D01*
X141207365Y-86776279D02*
X141397841Y-86966756D01*
X141397841Y-86966756D02*
X141683556Y-87061994D01*
X141683556Y-87061994D02*
X142159746Y-87061994D01*
X139778794Y-85061994D02*
X139397841Y-85061994D01*
X139397841Y-85061994D02*
X139207365Y-85157232D01*
X139207365Y-85157232D02*
X139016889Y-85347708D01*
X139016889Y-85347708D02*
X138921651Y-85728660D01*
X138921651Y-85728660D02*
X138921651Y-86395327D01*
X138921651Y-86395327D02*
X139016889Y-86776279D01*
X139016889Y-86776279D02*
X139207365Y-86966756D01*
X139207365Y-86966756D02*
X139397841Y-87061994D01*
X139397841Y-87061994D02*
X139778794Y-87061994D01*
X139778794Y-87061994D02*
X139969270Y-86966756D01*
X139969270Y-86966756D02*
X140159746Y-86776279D01*
X140159746Y-86776279D02*
X140254984Y-86395327D01*
X140254984Y-86395327D02*
X140254984Y-85728660D01*
X140254984Y-85728660D02*
X140159746Y-85347708D01*
X140159746Y-85347708D02*
X139969270Y-85157232D01*
X139969270Y-85157232D02*
X139778794Y-85061994D01*
X136540698Y-87061994D02*
X136540698Y-85061994D01*
X136540698Y-85061994D02*
X135397841Y-87061994D01*
X135397841Y-87061994D02*
X135397841Y-85061994D01*
X134064508Y-85061994D02*
X133683555Y-85061994D01*
X133683555Y-85061994D02*
X133493079Y-85157232D01*
X133493079Y-85157232D02*
X133302603Y-85347708D01*
X133302603Y-85347708D02*
X133207365Y-85728660D01*
X133207365Y-85728660D02*
X133207365Y-86395327D01*
X133207365Y-86395327D02*
X133302603Y-86776279D01*
X133302603Y-86776279D02*
X133493079Y-86966756D01*
X133493079Y-86966756D02*
X133683555Y-87061994D01*
X133683555Y-87061994D02*
X134064508Y-87061994D01*
X134064508Y-87061994D02*
X134254984Y-86966756D01*
X134254984Y-86966756D02*
X134445460Y-86776279D01*
X134445460Y-86776279D02*
X134540698Y-86395327D01*
X134540698Y-86395327D02*
X134540698Y-85728660D01*
X134540698Y-85728660D02*
X134445460Y-85347708D01*
X134445460Y-85347708D02*
X134254984Y-85157232D01*
X134254984Y-85157232D02*
X134064508Y-85061994D01*
X132635936Y-85061994D02*
X131493079Y-85061994D01*
X132064508Y-87061994D02*
X132064508Y-85061994D01*
X129588316Y-85061994D02*
X128445459Y-85061994D01*
X129016888Y-87061994D02*
X129016888Y-85061994D01*
X127397840Y-85061994D02*
X127016887Y-85061994D01*
X127016887Y-85061994D02*
X126826411Y-85157232D01*
X126826411Y-85157232D02*
X126635935Y-85347708D01*
X126635935Y-85347708D02*
X126540697Y-85728660D01*
X126540697Y-85728660D02*
X126540697Y-86395327D01*
X126540697Y-86395327D02*
X126635935Y-86776279D01*
X126635935Y-86776279D02*
X126826411Y-86966756D01*
X126826411Y-86966756D02*
X127016887Y-87061994D01*
X127016887Y-87061994D02*
X127397840Y-87061994D01*
X127397840Y-87061994D02*
X127588316Y-86966756D01*
X127588316Y-86966756D02*
X127778792Y-86776279D01*
X127778792Y-86776279D02*
X127874030Y-86395327D01*
X127874030Y-86395327D02*
X127874030Y-85728660D01*
X127874030Y-85728660D02*
X127778792Y-85347708D01*
X127778792Y-85347708D02*
X127588316Y-85157232D01*
X127588316Y-85157232D02*
X127397840Y-85061994D01*
X125683554Y-85061994D02*
X125683554Y-86681041D01*
X125683554Y-86681041D02*
X125588316Y-86871517D01*
X125588316Y-86871517D02*
X125493078Y-86966756D01*
X125493078Y-86966756D02*
X125302602Y-87061994D01*
X125302602Y-87061994D02*
X124921649Y-87061994D01*
X124921649Y-87061994D02*
X124731173Y-86966756D01*
X124731173Y-86966756D02*
X124635935Y-86871517D01*
X124635935Y-86871517D02*
X124540697Y-86681041D01*
X124540697Y-86681041D02*
X124540697Y-85061994D01*
X122445459Y-86871517D02*
X122540697Y-86966756D01*
X122540697Y-86966756D02*
X122826411Y-87061994D01*
X122826411Y-87061994D02*
X123016887Y-87061994D01*
X123016887Y-87061994D02*
X123302602Y-86966756D01*
X123302602Y-86966756D02*
X123493078Y-86776279D01*
X123493078Y-86776279D02*
X123588316Y-86585803D01*
X123588316Y-86585803D02*
X123683554Y-86204851D01*
X123683554Y-86204851D02*
X123683554Y-85919136D01*
X123683554Y-85919136D02*
X123588316Y-85538184D01*
X123588316Y-85538184D02*
X123493078Y-85347708D01*
X123493078Y-85347708D02*
X123302602Y-85157232D01*
X123302602Y-85157232D02*
X123016887Y-85061994D01*
X123016887Y-85061994D02*
X122826411Y-85061994D01*
X122826411Y-85061994D02*
X122540697Y-85157232D01*
X122540697Y-85157232D02*
X122445459Y-85252470D01*
X121588316Y-87061994D02*
X121588316Y-85061994D01*
X121588316Y-86014375D02*
X120445459Y-86014375D01*
X120445459Y-87061994D02*
X120445459Y-85061994D01*
%LPC*%
D13*
X130821120Y-89578955D03*
X142251120Y-89578955D03*
D14*
X132091116Y-83228957D03*
X133361113Y-80688964D03*
X134631117Y-83228957D03*
X135901114Y-80688964D03*
X137171118Y-83228957D03*
X138441115Y-80688964D03*
X139711119Y-83228957D03*
X140981120Y-80688964D03*
D15*
X91648957Y-105072218D03*
X106711119Y-102824962D03*
X181561119Y-102824962D03*
D16*
X118216119Y-100679962D03*
X120376119Y-100679962D03*
X122536119Y-100679962D03*
X124696119Y-100679962D03*
X126856119Y-100679962D03*
X129016119Y-100679962D03*
X131176119Y-100679962D03*
X133336119Y-100679962D03*
X135496119Y-100679962D03*
X137656119Y-100679962D03*
X139816119Y-100679962D03*
X141976119Y-100679962D03*
X144136119Y-100679962D03*
X146296119Y-100679962D03*
X148456119Y-100679962D03*
X150616119Y-100679962D03*
X152776119Y-100679962D03*
X154936119Y-100679962D03*
X157096119Y-100679962D03*
X159256119Y-100679962D03*
X161416119Y-100679962D03*
X163576119Y-100679962D03*
X165736119Y-100679962D03*
X167896119Y-100679962D03*
X170056119Y-100679962D03*
X118216119Y-104969962D03*
X120376119Y-104969962D03*
X122536119Y-104969962D03*
X124696119Y-104969962D03*
X126856119Y-104969962D03*
X129016119Y-104969962D03*
X131176119Y-104969962D03*
X133336119Y-104969962D03*
X135496119Y-104969962D03*
X137656119Y-104969962D03*
X139816119Y-104969962D03*
X141976119Y-104969962D03*
X144136119Y-104969962D03*
X146296119Y-104969962D03*
X148456119Y-104969962D03*
X150616119Y-104969962D03*
X152776119Y-104969962D03*
X154936119Y-104969962D03*
X157096119Y-104969962D03*
X159256119Y-104969962D03*
X161416119Y-104969962D03*
X163576119Y-104969962D03*
X165736119Y-104969962D03*
X167896119Y-104969962D03*
X170056119Y-104969962D03*
D13*
X179151123Y-89578955D03*
X190581123Y-89578955D03*
D14*
X180421119Y-83228957D03*
X181691116Y-80688964D03*
X182961120Y-83228957D03*
X184231117Y-80688964D03*
X185501121Y-83228957D03*
X186771118Y-80688964D03*
X188041122Y-83228957D03*
X189311123Y-80688964D03*
D15*
X197618957Y-83726177D03*
D13*
X163041120Y-89578955D03*
X174471120Y-89578955D03*
D14*
X164311116Y-83228957D03*
X165581113Y-80688964D03*
X166851117Y-83228957D03*
X168121114Y-80688964D03*
X169391118Y-83228957D03*
X170661115Y-80688964D03*
X171931119Y-83228957D03*
X173201120Y-80688964D03*
D13*
X114711120Y-89578955D03*
X126141120Y-89578955D03*
D14*
X115981116Y-83228957D03*
X117251113Y-80688964D03*
X118521117Y-83228957D03*
X119791114Y-80688964D03*
X121061118Y-83228957D03*
X122331115Y-80688964D03*
X123601119Y-83228957D03*
X124871120Y-80688964D03*
D15*
X197618957Y-105072218D03*
X91648957Y-83726177D03*
D13*
X146931120Y-89578955D03*
X158361120Y-89578955D03*
D14*
X148201116Y-83228957D03*
X149471113Y-80688964D03*
X150741117Y-83228957D03*
X152011114Y-80688964D03*
X153281118Y-83228957D03*
X154551115Y-80688964D03*
X155821119Y-83228957D03*
X157091120Y-80688964D03*
D13*
X98601120Y-89578955D03*
X110031120Y-89578955D03*
D14*
X99871116Y-83228957D03*
X101141113Y-80688964D03*
X102411117Y-83228957D03*
X103681114Y-80688964D03*
X104951118Y-83228957D03*
X106221115Y-80688964D03*
X107491119Y-83228957D03*
X108761120Y-80688964D03*
%LPD*%
M02*
