G04 #@! TF.GenerationSoftware,KiCad,Pcbnew,8.0.1*
G04 #@! TF.CreationDate,2024-07-20T21:14:04+01:00*
G04 #@! TF.ProjectId,MICRO_TRUNK_6_MAIN,4d494352-4f5f-4545-9255-4e4b5f365f4d,rev?*
G04 #@! TF.SameCoordinates,Original*
G04 #@! TF.FileFunction,Legend,Top*
G04 #@! TF.FilePolarity,Positive*
%FSLAX46Y46*%
G04 Gerber Fmt 4.6, Leading zero omitted, Abs format (unit mm)*
G04 Created by KiCad (PCBNEW 8.0.1) date 2024-07-20 21:14:04*
%MOMM*%
%LPD*%
G01*
G04 APERTURE LIST*
%ADD10C,0.000000*%
%ADD11C,0.300000*%
%ADD12C,0.200000*%
%ADD13C,0.010000*%
%ADD14C,3.000000*%
%ADD15C,1.600000*%
%ADD16C,3.200000*%
%ADD17C,1.500000*%
G04 APERTURE END LIST*
D10*
G36*
X175310729Y-99671175D02*
G01*
X175321533Y-99672852D01*
X175332140Y-99675408D01*
X175342496Y-99678807D01*
X175352548Y-99683011D01*
X175362241Y-99687986D01*
X175371521Y-99693694D01*
X175380334Y-99700100D01*
X175388627Y-99707168D01*
X175396344Y-99714860D01*
X175403432Y-99723142D01*
X175409837Y-99731976D01*
X175415505Y-99741326D01*
X175420381Y-99751157D01*
X175424412Y-99761432D01*
X175427543Y-99772115D01*
X175429720Y-99783170D01*
X175430890Y-99794560D01*
X175430998Y-99806250D01*
X175429990Y-99818202D01*
X175427812Y-99830382D01*
X175424410Y-99842752D01*
X175419730Y-99855276D01*
X174406861Y-102243502D01*
X174403666Y-102251766D01*
X174401058Y-102260065D01*
X174399024Y-102268379D01*
X174397551Y-102276689D01*
X174396625Y-102284974D01*
X174396234Y-102293216D01*
X174396364Y-102301394D01*
X174397002Y-102309488D01*
X174398134Y-102317479D01*
X174399748Y-102325348D01*
X174401830Y-102333074D01*
X174404367Y-102340638D01*
X174407346Y-102348019D01*
X174410753Y-102355199D01*
X174414576Y-102362157D01*
X174418801Y-102368875D01*
X174423414Y-102375331D01*
X174428404Y-102381506D01*
X174433755Y-102387381D01*
X174439456Y-102392936D01*
X174445493Y-102398151D01*
X174451853Y-102403006D01*
X174458522Y-102407482D01*
X174465487Y-102411558D01*
X174472736Y-102415216D01*
X174480254Y-102418435D01*
X174488029Y-102421196D01*
X174496047Y-102423479D01*
X174504296Y-102425264D01*
X174512761Y-102426532D01*
X174521430Y-102427262D01*
X174530289Y-102427436D01*
X177304622Y-102392996D01*
X177315495Y-102393272D01*
X177326018Y-102394350D01*
X177336175Y-102396193D01*
X177345952Y-102398763D01*
X177355332Y-102402024D01*
X177364300Y-102405941D01*
X177372839Y-102410475D01*
X177380934Y-102415591D01*
X177388570Y-102421251D01*
X177395730Y-102427420D01*
X177402399Y-102434060D01*
X177408560Y-102441135D01*
X177414200Y-102448608D01*
X177419301Y-102456442D01*
X177423847Y-102464601D01*
X177427824Y-102473049D01*
X177431215Y-102481748D01*
X177434005Y-102490662D01*
X177436178Y-102499754D01*
X177437718Y-102508988D01*
X177438609Y-102518326D01*
X177438836Y-102527733D01*
X177438383Y-102537172D01*
X177437234Y-102546605D01*
X177435374Y-102555997D01*
X177432786Y-102565311D01*
X177429455Y-102574509D01*
X177425366Y-102583556D01*
X177420502Y-102592415D01*
X177414848Y-102601049D01*
X177408388Y-102609421D01*
X177401106Y-102617495D01*
X173592959Y-106533195D01*
X173582858Y-106542702D01*
X173572404Y-106550879D01*
X173561655Y-106557765D01*
X173550669Y-106563403D01*
X173539502Y-106567834D01*
X173528212Y-106571097D01*
X173516857Y-106573236D01*
X173505495Y-106574290D01*
X173494182Y-106574301D01*
X173482977Y-106573309D01*
X173471937Y-106571357D01*
X173461120Y-106568485D01*
X173450583Y-106564734D01*
X173440383Y-106560145D01*
X173430578Y-106554760D01*
X173421227Y-106548619D01*
X173412385Y-106541763D01*
X173404111Y-106534235D01*
X173396463Y-106526074D01*
X173389498Y-106517322D01*
X173383272Y-106508020D01*
X173377845Y-106498209D01*
X173373274Y-106487930D01*
X173369615Y-106477224D01*
X173366927Y-106466133D01*
X173365267Y-106454697D01*
X173364693Y-106442958D01*
X173365261Y-106430956D01*
X173367031Y-106418734D01*
X173370059Y-106406331D01*
X173374402Y-106393789D01*
X173380119Y-106381149D01*
X174735739Y-103706299D01*
X174739607Y-103698004D01*
X174742852Y-103689637D01*
X174745488Y-103681220D01*
X174747529Y-103672775D01*
X174748987Y-103664324D01*
X174749877Y-103655888D01*
X174750212Y-103647491D01*
X174750005Y-103639153D01*
X174749271Y-103630897D01*
X174748022Y-103622746D01*
X174746272Y-103614720D01*
X174744034Y-103606842D01*
X174741323Y-103599134D01*
X174738151Y-103591618D01*
X174734532Y-103584315D01*
X174730480Y-103577249D01*
X174726008Y-103570440D01*
X174721130Y-103563912D01*
X174715858Y-103557685D01*
X174710208Y-103551782D01*
X174704191Y-103546225D01*
X174697823Y-103541035D01*
X174691115Y-103536236D01*
X174684083Y-103531848D01*
X174676738Y-103527894D01*
X174669096Y-103524396D01*
X174661168Y-103521376D01*
X174652970Y-103518856D01*
X174644514Y-103516857D01*
X174635814Y-103515402D01*
X174626883Y-103514513D01*
X174617735Y-103514212D01*
X171766152Y-103514212D01*
X171755315Y-103513803D01*
X171744834Y-103512601D01*
X171734726Y-103510642D01*
X171725004Y-103507962D01*
X171715684Y-103504599D01*
X171706782Y-103500589D01*
X171698313Y-103495969D01*
X171690293Y-103490774D01*
X171682735Y-103485042D01*
X171675657Y-103478809D01*
X171669072Y-103472112D01*
X171662997Y-103464987D01*
X171657447Y-103457471D01*
X171652436Y-103449600D01*
X171647981Y-103441411D01*
X171644096Y-103432941D01*
X171640797Y-103424225D01*
X171638099Y-103415302D01*
X171636017Y-103406206D01*
X171634567Y-103396975D01*
X171633764Y-103387646D01*
X171633623Y-103378254D01*
X171634160Y-103368837D01*
X171635389Y-103359430D01*
X171637326Y-103350072D01*
X171639987Y-103340797D01*
X171643386Y-103331643D01*
X171647539Y-103322647D01*
X171652461Y-103313844D01*
X171658168Y-103305271D01*
X171664674Y-103296965D01*
X171671996Y-103288963D01*
X175203786Y-99710690D01*
X175213580Y-99701590D01*
X175223718Y-99693731D01*
X175234146Y-99687076D01*
X175244811Y-99681589D01*
X175255657Y-99677234D01*
X175266632Y-99673976D01*
X175277681Y-99671776D01*
X175288749Y-99670601D01*
X175299783Y-99670412D01*
X175310729Y-99671175D01*
G37*
G36*
X114510508Y-99671175D02*
G01*
X114521312Y-99672852D01*
X114531919Y-99675408D01*
X114542275Y-99678807D01*
X114552327Y-99683011D01*
X114562020Y-99687986D01*
X114571300Y-99693694D01*
X114580113Y-99700100D01*
X114588406Y-99707168D01*
X114596123Y-99714860D01*
X114603211Y-99723142D01*
X114609616Y-99731976D01*
X114615284Y-99741326D01*
X114620160Y-99751157D01*
X114624191Y-99761432D01*
X114627322Y-99772115D01*
X114629499Y-99783170D01*
X114630669Y-99794560D01*
X114630777Y-99806250D01*
X114629769Y-99818202D01*
X114627591Y-99830382D01*
X114624189Y-99842752D01*
X114619509Y-99855276D01*
X113606640Y-102243502D01*
X113603445Y-102251766D01*
X113600837Y-102260065D01*
X113598803Y-102268379D01*
X113597330Y-102276689D01*
X113596404Y-102284974D01*
X113596013Y-102293216D01*
X113596143Y-102301394D01*
X113596781Y-102309488D01*
X113597913Y-102317479D01*
X113599527Y-102325348D01*
X113601609Y-102333074D01*
X113604146Y-102340638D01*
X113607125Y-102348019D01*
X113610532Y-102355199D01*
X113614355Y-102362157D01*
X113618580Y-102368875D01*
X113623193Y-102375331D01*
X113628183Y-102381506D01*
X113633534Y-102387381D01*
X113639235Y-102392936D01*
X113645272Y-102398151D01*
X113651632Y-102403006D01*
X113658301Y-102407482D01*
X113665266Y-102411558D01*
X113672515Y-102415216D01*
X113680033Y-102418435D01*
X113687808Y-102421196D01*
X113695826Y-102423479D01*
X113704075Y-102425264D01*
X113712540Y-102426532D01*
X113721209Y-102427262D01*
X113730068Y-102427436D01*
X116504401Y-102392996D01*
X116515274Y-102393272D01*
X116525797Y-102394350D01*
X116535954Y-102396193D01*
X116545731Y-102398763D01*
X116555111Y-102402024D01*
X116564079Y-102405941D01*
X116572618Y-102410475D01*
X116580713Y-102415591D01*
X116588349Y-102421251D01*
X116595509Y-102427420D01*
X116602178Y-102434060D01*
X116608339Y-102441135D01*
X116613979Y-102448608D01*
X116619080Y-102456442D01*
X116623626Y-102464601D01*
X116627603Y-102473049D01*
X116630994Y-102481748D01*
X116633784Y-102490662D01*
X116635957Y-102499754D01*
X116637497Y-102508988D01*
X116638388Y-102518326D01*
X116638615Y-102527733D01*
X116638162Y-102537172D01*
X116637013Y-102546605D01*
X116635153Y-102555997D01*
X116632565Y-102565311D01*
X116629234Y-102574509D01*
X116625145Y-102583556D01*
X116620281Y-102592415D01*
X116614627Y-102601049D01*
X116608167Y-102609421D01*
X116600885Y-102617495D01*
X112792738Y-106533195D01*
X112782637Y-106542702D01*
X112772183Y-106550879D01*
X112761434Y-106557765D01*
X112750448Y-106563403D01*
X112739281Y-106567834D01*
X112727991Y-106571097D01*
X112716636Y-106573236D01*
X112705274Y-106574290D01*
X112693961Y-106574301D01*
X112682756Y-106573309D01*
X112671716Y-106571357D01*
X112660899Y-106568485D01*
X112650362Y-106564734D01*
X112640162Y-106560145D01*
X112630357Y-106554760D01*
X112621006Y-106548619D01*
X112612164Y-106541763D01*
X112603890Y-106534235D01*
X112596242Y-106526074D01*
X112589277Y-106517322D01*
X112583051Y-106508020D01*
X112577624Y-106498209D01*
X112573053Y-106487930D01*
X112569394Y-106477224D01*
X112566706Y-106466133D01*
X112565046Y-106454697D01*
X112564472Y-106442958D01*
X112565040Y-106430956D01*
X112566810Y-106418734D01*
X112569838Y-106406331D01*
X112574181Y-106393789D01*
X112579898Y-106381149D01*
X113935518Y-103706299D01*
X113939386Y-103698004D01*
X113942631Y-103689637D01*
X113945267Y-103681220D01*
X113947308Y-103672775D01*
X113948766Y-103664324D01*
X113949656Y-103655888D01*
X113949991Y-103647491D01*
X113949784Y-103639153D01*
X113949050Y-103630897D01*
X113947801Y-103622746D01*
X113946051Y-103614720D01*
X113943813Y-103606842D01*
X113941102Y-103599134D01*
X113937930Y-103591618D01*
X113934311Y-103584315D01*
X113930259Y-103577249D01*
X113925787Y-103570440D01*
X113920909Y-103563912D01*
X113915637Y-103557685D01*
X113909987Y-103551782D01*
X113903970Y-103546225D01*
X113897602Y-103541035D01*
X113890894Y-103536236D01*
X113883862Y-103531848D01*
X113876517Y-103527894D01*
X113868875Y-103524396D01*
X113860947Y-103521376D01*
X113852749Y-103518856D01*
X113844293Y-103516857D01*
X113835593Y-103515402D01*
X113826662Y-103514513D01*
X113817514Y-103514212D01*
X110965931Y-103514212D01*
X110955094Y-103513803D01*
X110944613Y-103512601D01*
X110934505Y-103510642D01*
X110924783Y-103507962D01*
X110915463Y-103504599D01*
X110906561Y-103500589D01*
X110898092Y-103495969D01*
X110890072Y-103490774D01*
X110882514Y-103485042D01*
X110875436Y-103478809D01*
X110868851Y-103472112D01*
X110862776Y-103464987D01*
X110857226Y-103457471D01*
X110852215Y-103449600D01*
X110847760Y-103441411D01*
X110843875Y-103432941D01*
X110840576Y-103424225D01*
X110837878Y-103415302D01*
X110835796Y-103406206D01*
X110834346Y-103396975D01*
X110833543Y-103387646D01*
X110833402Y-103378254D01*
X110833939Y-103368837D01*
X110835168Y-103359430D01*
X110837105Y-103350072D01*
X110839766Y-103340797D01*
X110843165Y-103331643D01*
X110847318Y-103322647D01*
X110852240Y-103313844D01*
X110857947Y-103305271D01*
X110864453Y-103296965D01*
X110871775Y-103288963D01*
X114403565Y-99710690D01*
X114413359Y-99701590D01*
X114423497Y-99693731D01*
X114433925Y-99687076D01*
X114444590Y-99681589D01*
X114455436Y-99677234D01*
X114466411Y-99673976D01*
X114477460Y-99671776D01*
X114488528Y-99670601D01*
X114499562Y-99670412D01*
X114510508Y-99671175D01*
G37*
D11*
X120445459Y-98931994D02*
X120445459Y-96931994D01*
X120445459Y-97884375D02*
X121588316Y-97884375D01*
X121588316Y-98931994D02*
X121588316Y-96931994D01*
X122540697Y-98931994D02*
X122540697Y-96931994D01*
X124540697Y-97027232D02*
X124350221Y-96931994D01*
X124350221Y-96931994D02*
X124064507Y-96931994D01*
X124064507Y-96931994D02*
X123778792Y-97027232D01*
X123778792Y-97027232D02*
X123588316Y-97217708D01*
X123588316Y-97217708D02*
X123493078Y-97408184D01*
X123493078Y-97408184D02*
X123397840Y-97789136D01*
X123397840Y-97789136D02*
X123397840Y-98074851D01*
X123397840Y-98074851D02*
X123493078Y-98455803D01*
X123493078Y-98455803D02*
X123588316Y-98646279D01*
X123588316Y-98646279D02*
X123778792Y-98836756D01*
X123778792Y-98836756D02*
X124064507Y-98931994D01*
X124064507Y-98931994D02*
X124254983Y-98931994D01*
X124254983Y-98931994D02*
X124540697Y-98836756D01*
X124540697Y-98836756D02*
X124635935Y-98741517D01*
X124635935Y-98741517D02*
X124635935Y-98074851D01*
X124635935Y-98074851D02*
X124254983Y-98074851D01*
X125493078Y-98931994D02*
X125493078Y-96931994D01*
X125493078Y-97884375D02*
X126635935Y-97884375D01*
X126635935Y-98931994D02*
X126635935Y-96931994D01*
X128826412Y-96931994D02*
X129493078Y-98931994D01*
X129493078Y-98931994D02*
X130159745Y-96931994D01*
X131207364Y-96931994D02*
X131588317Y-96931994D01*
X131588317Y-96931994D02*
X131778793Y-97027232D01*
X131778793Y-97027232D02*
X131969269Y-97217708D01*
X131969269Y-97217708D02*
X132064507Y-97598660D01*
X132064507Y-97598660D02*
X132064507Y-98265327D01*
X132064507Y-98265327D02*
X131969269Y-98646279D01*
X131969269Y-98646279D02*
X131778793Y-98836756D01*
X131778793Y-98836756D02*
X131588317Y-98931994D01*
X131588317Y-98931994D02*
X131207364Y-98931994D01*
X131207364Y-98931994D02*
X131016888Y-98836756D01*
X131016888Y-98836756D02*
X130826412Y-98646279D01*
X130826412Y-98646279D02*
X130731174Y-98265327D01*
X130731174Y-98265327D02*
X130731174Y-97598660D01*
X130731174Y-97598660D02*
X130826412Y-97217708D01*
X130826412Y-97217708D02*
X131016888Y-97027232D01*
X131016888Y-97027232D02*
X131207364Y-96931994D01*
X133874031Y-98931994D02*
X132921650Y-98931994D01*
X132921650Y-98931994D02*
X132921650Y-96931994D01*
X134254984Y-96931994D02*
X135397841Y-96931994D01*
X134826412Y-98931994D02*
X134826412Y-96931994D01*
X135969270Y-98360565D02*
X136921651Y-98360565D01*
X135778794Y-98931994D02*
X136445460Y-96931994D01*
X136445460Y-96931994D02*
X137112127Y-98931994D01*
X138826413Y-97027232D02*
X138635937Y-96931994D01*
X138635937Y-96931994D02*
X138350223Y-96931994D01*
X138350223Y-96931994D02*
X138064508Y-97027232D01*
X138064508Y-97027232D02*
X137874032Y-97217708D01*
X137874032Y-97217708D02*
X137778794Y-97408184D01*
X137778794Y-97408184D02*
X137683556Y-97789136D01*
X137683556Y-97789136D02*
X137683556Y-98074851D01*
X137683556Y-98074851D02*
X137778794Y-98455803D01*
X137778794Y-98455803D02*
X137874032Y-98646279D01*
X137874032Y-98646279D02*
X138064508Y-98836756D01*
X138064508Y-98836756D02*
X138350223Y-98931994D01*
X138350223Y-98931994D02*
X138540699Y-98931994D01*
X138540699Y-98931994D02*
X138826413Y-98836756D01*
X138826413Y-98836756D02*
X138921651Y-98741517D01*
X138921651Y-98741517D02*
X138921651Y-98074851D01*
X138921651Y-98074851D02*
X138540699Y-98074851D01*
X139778794Y-97884375D02*
X140445461Y-97884375D01*
X140731175Y-98931994D02*
X139778794Y-98931994D01*
X139778794Y-98931994D02*
X139778794Y-96931994D01*
X139778794Y-96931994D02*
X140731175Y-96931994D01*
X143112128Y-98170089D02*
X144635938Y-98170089D01*
X147112128Y-98931994D02*
X147112128Y-96931994D01*
X147112128Y-96931994D02*
X147588318Y-96931994D01*
X147588318Y-96931994D02*
X147874033Y-97027232D01*
X147874033Y-97027232D02*
X148064509Y-97217708D01*
X148064509Y-97217708D02*
X148159747Y-97408184D01*
X148159747Y-97408184D02*
X148254985Y-97789136D01*
X148254985Y-97789136D02*
X148254985Y-98074851D01*
X148254985Y-98074851D02*
X148159747Y-98455803D01*
X148159747Y-98455803D02*
X148064509Y-98646279D01*
X148064509Y-98646279D02*
X147874033Y-98836756D01*
X147874033Y-98836756D02*
X147588318Y-98931994D01*
X147588318Y-98931994D02*
X147112128Y-98931994D01*
X149493080Y-96931994D02*
X149874033Y-96931994D01*
X149874033Y-96931994D02*
X150064509Y-97027232D01*
X150064509Y-97027232D02*
X150254985Y-97217708D01*
X150254985Y-97217708D02*
X150350223Y-97598660D01*
X150350223Y-97598660D02*
X150350223Y-98265327D01*
X150350223Y-98265327D02*
X150254985Y-98646279D01*
X150254985Y-98646279D02*
X150064509Y-98836756D01*
X150064509Y-98836756D02*
X149874033Y-98931994D01*
X149874033Y-98931994D02*
X149493080Y-98931994D01*
X149493080Y-98931994D02*
X149302604Y-98836756D01*
X149302604Y-98836756D02*
X149112128Y-98646279D01*
X149112128Y-98646279D02*
X149016890Y-98265327D01*
X149016890Y-98265327D02*
X149016890Y-97598660D01*
X149016890Y-97598660D02*
X149112128Y-97217708D01*
X149112128Y-97217708D02*
X149302604Y-97027232D01*
X149302604Y-97027232D02*
X149493080Y-96931994D01*
X152731176Y-98931994D02*
X152731176Y-96931994D01*
X152731176Y-96931994D02*
X153874033Y-98931994D01*
X153874033Y-98931994D02*
X153874033Y-96931994D01*
X155207366Y-96931994D02*
X155588319Y-96931994D01*
X155588319Y-96931994D02*
X155778795Y-97027232D01*
X155778795Y-97027232D02*
X155969271Y-97217708D01*
X155969271Y-97217708D02*
X156064509Y-97598660D01*
X156064509Y-97598660D02*
X156064509Y-98265327D01*
X156064509Y-98265327D02*
X155969271Y-98646279D01*
X155969271Y-98646279D02*
X155778795Y-98836756D01*
X155778795Y-98836756D02*
X155588319Y-98931994D01*
X155588319Y-98931994D02*
X155207366Y-98931994D01*
X155207366Y-98931994D02*
X155016890Y-98836756D01*
X155016890Y-98836756D02*
X154826414Y-98646279D01*
X154826414Y-98646279D02*
X154731176Y-98265327D01*
X154731176Y-98265327D02*
X154731176Y-97598660D01*
X154731176Y-97598660D02*
X154826414Y-97217708D01*
X154826414Y-97217708D02*
X155016890Y-97027232D01*
X155016890Y-97027232D02*
X155207366Y-96931994D01*
X156635938Y-96931994D02*
X157778795Y-96931994D01*
X157207366Y-98931994D02*
X157207366Y-96931994D01*
X159683558Y-96931994D02*
X160826415Y-96931994D01*
X160254986Y-98931994D02*
X160254986Y-96931994D01*
X161874034Y-96931994D02*
X162254987Y-96931994D01*
X162254987Y-96931994D02*
X162445463Y-97027232D01*
X162445463Y-97027232D02*
X162635939Y-97217708D01*
X162635939Y-97217708D02*
X162731177Y-97598660D01*
X162731177Y-97598660D02*
X162731177Y-98265327D01*
X162731177Y-98265327D02*
X162635939Y-98646279D01*
X162635939Y-98646279D02*
X162445463Y-98836756D01*
X162445463Y-98836756D02*
X162254987Y-98931994D01*
X162254987Y-98931994D02*
X161874034Y-98931994D01*
X161874034Y-98931994D02*
X161683558Y-98836756D01*
X161683558Y-98836756D02*
X161493082Y-98646279D01*
X161493082Y-98646279D02*
X161397844Y-98265327D01*
X161397844Y-98265327D02*
X161397844Y-97598660D01*
X161397844Y-97598660D02*
X161493082Y-97217708D01*
X161493082Y-97217708D02*
X161683558Y-97027232D01*
X161683558Y-97027232D02*
X161874034Y-96931994D01*
X163588320Y-96931994D02*
X163588320Y-98551041D01*
X163588320Y-98551041D02*
X163683558Y-98741517D01*
X163683558Y-98741517D02*
X163778796Y-98836756D01*
X163778796Y-98836756D02*
X163969272Y-98931994D01*
X163969272Y-98931994D02*
X164350225Y-98931994D01*
X164350225Y-98931994D02*
X164540701Y-98836756D01*
X164540701Y-98836756D02*
X164635939Y-98741517D01*
X164635939Y-98741517D02*
X164731177Y-98551041D01*
X164731177Y-98551041D02*
X164731177Y-96931994D01*
X166826415Y-98741517D02*
X166731177Y-98836756D01*
X166731177Y-98836756D02*
X166445463Y-98931994D01*
X166445463Y-98931994D02*
X166254987Y-98931994D01*
X166254987Y-98931994D02*
X165969272Y-98836756D01*
X165969272Y-98836756D02*
X165778796Y-98646279D01*
X165778796Y-98646279D02*
X165683558Y-98455803D01*
X165683558Y-98455803D02*
X165588320Y-98074851D01*
X165588320Y-98074851D02*
X165588320Y-97789136D01*
X165588320Y-97789136D02*
X165683558Y-97408184D01*
X165683558Y-97408184D02*
X165778796Y-97217708D01*
X165778796Y-97217708D02*
X165969272Y-97027232D01*
X165969272Y-97027232D02*
X166254987Y-96931994D01*
X166254987Y-96931994D02*
X166445463Y-96931994D01*
X166445463Y-96931994D02*
X166731177Y-97027232D01*
X166731177Y-97027232D02*
X166826415Y-97122470D01*
X167683558Y-98931994D02*
X167683558Y-96931994D01*
X167683558Y-97884375D02*
X168826415Y-97884375D01*
X168826415Y-98931994D02*
X168826415Y-96931994D01*
D12*
X121403408Y-77662670D02*
X120903408Y-77662670D01*
X120903408Y-78448384D02*
X120903408Y-76948384D01*
X120903408Y-76948384D02*
X121617694Y-76948384D01*
X122474837Y-76948384D02*
X122760551Y-76948384D01*
X122760551Y-76948384D02*
X122903408Y-77019813D01*
X122903408Y-77019813D02*
X123046265Y-77162670D01*
X123046265Y-77162670D02*
X123117694Y-77448384D01*
X123117694Y-77448384D02*
X123117694Y-77948384D01*
X123117694Y-77948384D02*
X123046265Y-78234098D01*
X123046265Y-78234098D02*
X122903408Y-78376956D01*
X122903408Y-78376956D02*
X122760551Y-78448384D01*
X122760551Y-78448384D02*
X122474837Y-78448384D01*
X122474837Y-78448384D02*
X122331980Y-78376956D01*
X122331980Y-78376956D02*
X122189122Y-78234098D01*
X122189122Y-78234098D02*
X122117694Y-77948384D01*
X122117694Y-77948384D02*
X122117694Y-77448384D01*
X122117694Y-77448384D02*
X122189122Y-77162670D01*
X122189122Y-77162670D02*
X122331980Y-77019813D01*
X122331980Y-77019813D02*
X122474837Y-76948384D01*
X124617694Y-78448384D02*
X124117694Y-77734098D01*
X123760551Y-78448384D02*
X123760551Y-76948384D01*
X123760551Y-76948384D02*
X124331980Y-76948384D01*
X124331980Y-76948384D02*
X124474837Y-77019813D01*
X124474837Y-77019813D02*
X124546266Y-77091241D01*
X124546266Y-77091241D02*
X124617694Y-77234098D01*
X124617694Y-77234098D02*
X124617694Y-77448384D01*
X124617694Y-77448384D02*
X124546266Y-77591241D01*
X124546266Y-77591241D02*
X124474837Y-77662670D01*
X124474837Y-77662670D02*
X124331980Y-77734098D01*
X124331980Y-77734098D02*
X123760551Y-77734098D01*
X126189123Y-76948384D02*
X127046266Y-76948384D01*
X126617694Y-78448384D02*
X126617694Y-76948384D01*
X127546265Y-77662670D02*
X128046265Y-77662670D01*
X128260551Y-78448384D02*
X127546265Y-78448384D01*
X127546265Y-78448384D02*
X127546265Y-76948384D01*
X127546265Y-76948384D02*
X128260551Y-76948384D01*
X129617694Y-78448384D02*
X128903408Y-78448384D01*
X128903408Y-78448384D02*
X128903408Y-76948384D01*
X130117694Y-77662670D02*
X130617694Y-77662670D01*
X130831980Y-78448384D02*
X130117694Y-78448384D01*
X130117694Y-78448384D02*
X130117694Y-76948384D01*
X130117694Y-76948384D02*
X130831980Y-76948384D01*
X131474837Y-78448384D02*
X131474837Y-76948384D01*
X131474837Y-76948384D02*
X132046266Y-76948384D01*
X132046266Y-76948384D02*
X132189123Y-77019813D01*
X132189123Y-77019813D02*
X132260552Y-77091241D01*
X132260552Y-77091241D02*
X132331980Y-77234098D01*
X132331980Y-77234098D02*
X132331980Y-77448384D01*
X132331980Y-77448384D02*
X132260552Y-77591241D01*
X132260552Y-77591241D02*
X132189123Y-77662670D01*
X132189123Y-77662670D02*
X132046266Y-77734098D01*
X132046266Y-77734098D02*
X131474837Y-77734098D01*
X132974837Y-78448384D02*
X132974837Y-76948384D01*
X132974837Y-77662670D02*
X133831980Y-77662670D01*
X133831980Y-78448384D02*
X133831980Y-76948384D01*
X134831981Y-76948384D02*
X135117695Y-76948384D01*
X135117695Y-76948384D02*
X135260552Y-77019813D01*
X135260552Y-77019813D02*
X135403409Y-77162670D01*
X135403409Y-77162670D02*
X135474838Y-77448384D01*
X135474838Y-77448384D02*
X135474838Y-77948384D01*
X135474838Y-77948384D02*
X135403409Y-78234098D01*
X135403409Y-78234098D02*
X135260552Y-78376956D01*
X135260552Y-78376956D02*
X135117695Y-78448384D01*
X135117695Y-78448384D02*
X134831981Y-78448384D01*
X134831981Y-78448384D02*
X134689124Y-78376956D01*
X134689124Y-78376956D02*
X134546266Y-78234098D01*
X134546266Y-78234098D02*
X134474838Y-77948384D01*
X134474838Y-77948384D02*
X134474838Y-77448384D01*
X134474838Y-77448384D02*
X134546266Y-77162670D01*
X134546266Y-77162670D02*
X134689124Y-77019813D01*
X134689124Y-77019813D02*
X134831981Y-76948384D01*
X136117695Y-78448384D02*
X136117695Y-76948384D01*
X136117695Y-76948384D02*
X136974838Y-78448384D01*
X136974838Y-78448384D02*
X136974838Y-76948384D01*
X137689124Y-77662670D02*
X138189124Y-77662670D01*
X138403410Y-78448384D02*
X137689124Y-78448384D01*
X137689124Y-78448384D02*
X137689124Y-76948384D01*
X137689124Y-76948384D02*
X138403410Y-76948384D01*
X140903410Y-78448384D02*
X140189124Y-78448384D01*
X140189124Y-78448384D02*
X140189124Y-76948384D01*
X141403410Y-78448384D02*
X141403410Y-76948384D01*
X142117696Y-78448384D02*
X142117696Y-76948384D01*
X142117696Y-76948384D02*
X142974839Y-78448384D01*
X142974839Y-78448384D02*
X142974839Y-76948384D01*
X143689125Y-77662670D02*
X144189125Y-77662670D01*
X144403411Y-78448384D02*
X143689125Y-78448384D01*
X143689125Y-78448384D02*
X143689125Y-76948384D01*
X143689125Y-76948384D02*
X144403411Y-76948384D01*
X146189125Y-78448384D02*
X146189125Y-76948384D01*
X146189125Y-76948384D02*
X146546268Y-76948384D01*
X146546268Y-76948384D02*
X146760554Y-77019813D01*
X146760554Y-77019813D02*
X146903411Y-77162670D01*
X146903411Y-77162670D02*
X146974840Y-77305527D01*
X146974840Y-77305527D02*
X147046268Y-77591241D01*
X147046268Y-77591241D02*
X147046268Y-77805527D01*
X147046268Y-77805527D02*
X146974840Y-78091241D01*
X146974840Y-78091241D02*
X146903411Y-78234098D01*
X146903411Y-78234098D02*
X146760554Y-78376956D01*
X146760554Y-78376956D02*
X146546268Y-78448384D01*
X146546268Y-78448384D02*
X146189125Y-78448384D01*
X147689125Y-78448384D02*
X147689125Y-76948384D01*
X148331983Y-78376956D02*
X148546269Y-78448384D01*
X148546269Y-78448384D02*
X148903411Y-78448384D01*
X148903411Y-78448384D02*
X149046269Y-78376956D01*
X149046269Y-78376956D02*
X149117697Y-78305527D01*
X149117697Y-78305527D02*
X149189126Y-78162670D01*
X149189126Y-78162670D02*
X149189126Y-78019813D01*
X149189126Y-78019813D02*
X149117697Y-77876956D01*
X149117697Y-77876956D02*
X149046269Y-77805527D01*
X149046269Y-77805527D02*
X148903411Y-77734098D01*
X148903411Y-77734098D02*
X148617697Y-77662670D01*
X148617697Y-77662670D02*
X148474840Y-77591241D01*
X148474840Y-77591241D02*
X148403411Y-77519813D01*
X148403411Y-77519813D02*
X148331983Y-77376956D01*
X148331983Y-77376956D02*
X148331983Y-77234098D01*
X148331983Y-77234098D02*
X148403411Y-77091241D01*
X148403411Y-77091241D02*
X148474840Y-77019813D01*
X148474840Y-77019813D02*
X148617697Y-76948384D01*
X148617697Y-76948384D02*
X148974840Y-76948384D01*
X148974840Y-76948384D02*
X149189126Y-77019813D01*
X149617697Y-76948384D02*
X150474840Y-76948384D01*
X150046268Y-78448384D02*
X150046268Y-76948384D01*
X151831982Y-78448384D02*
X151331982Y-77734098D01*
X150974839Y-78448384D02*
X150974839Y-76948384D01*
X150974839Y-76948384D02*
X151546268Y-76948384D01*
X151546268Y-76948384D02*
X151689125Y-77019813D01*
X151689125Y-77019813D02*
X151760554Y-77091241D01*
X151760554Y-77091241D02*
X151831982Y-77234098D01*
X151831982Y-77234098D02*
X151831982Y-77448384D01*
X151831982Y-77448384D02*
X151760554Y-77591241D01*
X151760554Y-77591241D02*
X151689125Y-77662670D01*
X151689125Y-77662670D02*
X151546268Y-77734098D01*
X151546268Y-77734098D02*
X150974839Y-77734098D01*
X152474839Y-78448384D02*
X152474839Y-76948384D01*
X153689125Y-77662670D02*
X153903411Y-77734098D01*
X153903411Y-77734098D02*
X153974840Y-77805527D01*
X153974840Y-77805527D02*
X154046268Y-77948384D01*
X154046268Y-77948384D02*
X154046268Y-78162670D01*
X154046268Y-78162670D02*
X153974840Y-78305527D01*
X153974840Y-78305527D02*
X153903411Y-78376956D01*
X153903411Y-78376956D02*
X153760554Y-78448384D01*
X153760554Y-78448384D02*
X153189125Y-78448384D01*
X153189125Y-78448384D02*
X153189125Y-76948384D01*
X153189125Y-76948384D02*
X153689125Y-76948384D01*
X153689125Y-76948384D02*
X153831983Y-77019813D01*
X153831983Y-77019813D02*
X153903411Y-77091241D01*
X153903411Y-77091241D02*
X153974840Y-77234098D01*
X153974840Y-77234098D02*
X153974840Y-77376956D01*
X153974840Y-77376956D02*
X153903411Y-77519813D01*
X153903411Y-77519813D02*
X153831983Y-77591241D01*
X153831983Y-77591241D02*
X153689125Y-77662670D01*
X153689125Y-77662670D02*
X153189125Y-77662670D01*
X154689125Y-76948384D02*
X154689125Y-78162670D01*
X154689125Y-78162670D02*
X154760554Y-78305527D01*
X154760554Y-78305527D02*
X154831983Y-78376956D01*
X154831983Y-78376956D02*
X154974840Y-78448384D01*
X154974840Y-78448384D02*
X155260554Y-78448384D01*
X155260554Y-78448384D02*
X155403411Y-78376956D01*
X155403411Y-78376956D02*
X155474840Y-78305527D01*
X155474840Y-78305527D02*
X155546268Y-78162670D01*
X155546268Y-78162670D02*
X155546268Y-76948384D01*
X156046269Y-76948384D02*
X156903412Y-76948384D01*
X156474840Y-78448384D02*
X156474840Y-76948384D01*
X157403411Y-78448384D02*
X157403411Y-76948384D01*
X158403412Y-76948384D02*
X158689126Y-76948384D01*
X158689126Y-76948384D02*
X158831983Y-77019813D01*
X158831983Y-77019813D02*
X158974840Y-77162670D01*
X158974840Y-77162670D02*
X159046269Y-77448384D01*
X159046269Y-77448384D02*
X159046269Y-77948384D01*
X159046269Y-77948384D02*
X158974840Y-78234098D01*
X158974840Y-78234098D02*
X158831983Y-78376956D01*
X158831983Y-78376956D02*
X158689126Y-78448384D01*
X158689126Y-78448384D02*
X158403412Y-78448384D01*
X158403412Y-78448384D02*
X158260555Y-78376956D01*
X158260555Y-78376956D02*
X158117697Y-78234098D01*
X158117697Y-78234098D02*
X158046269Y-77948384D01*
X158046269Y-77948384D02*
X158046269Y-77448384D01*
X158046269Y-77448384D02*
X158117697Y-77162670D01*
X158117697Y-77162670D02*
X158260555Y-77019813D01*
X158260555Y-77019813D02*
X158403412Y-76948384D01*
X159689126Y-78448384D02*
X159689126Y-76948384D01*
X159689126Y-76948384D02*
X160546269Y-78448384D01*
X160546269Y-78448384D02*
X160546269Y-76948384D01*
X162689127Y-76948384D02*
X162974841Y-76948384D01*
X162974841Y-76948384D02*
X163117698Y-77019813D01*
X163117698Y-77019813D02*
X163260555Y-77162670D01*
X163260555Y-77162670D02*
X163331984Y-77448384D01*
X163331984Y-77448384D02*
X163331984Y-77948384D01*
X163331984Y-77948384D02*
X163260555Y-78234098D01*
X163260555Y-78234098D02*
X163117698Y-78376956D01*
X163117698Y-78376956D02*
X162974841Y-78448384D01*
X162974841Y-78448384D02*
X162689127Y-78448384D01*
X162689127Y-78448384D02*
X162546270Y-78376956D01*
X162546270Y-78376956D02*
X162403412Y-78234098D01*
X162403412Y-78234098D02*
X162331984Y-77948384D01*
X162331984Y-77948384D02*
X162331984Y-77448384D01*
X162331984Y-77448384D02*
X162403412Y-77162670D01*
X162403412Y-77162670D02*
X162546270Y-77019813D01*
X162546270Y-77019813D02*
X162689127Y-76948384D01*
X163974841Y-78448384D02*
X163974841Y-76948384D01*
X163974841Y-76948384D02*
X164831984Y-78448384D01*
X164831984Y-78448384D02*
X164831984Y-76948384D01*
X166260556Y-78448384D02*
X165546270Y-78448384D01*
X165546270Y-78448384D02*
X165546270Y-76948384D01*
X167046271Y-77734098D02*
X167046271Y-78448384D01*
X166546271Y-76948384D02*
X167046271Y-77734098D01*
X167046271Y-77734098D02*
X167546271Y-76948384D01*
D13*
X144349103Y-95824629D02*
X128812769Y-95824629D01*
X128812769Y-79610962D01*
X128939769Y-79610962D01*
X128939769Y-95718796D01*
X144243269Y-95718796D01*
X144243269Y-79610962D01*
X128939769Y-79610962D01*
X128812769Y-79610962D01*
X128812769Y-79483962D01*
X144349103Y-79483962D01*
X144349103Y-95824629D01*
G36*
X144349103Y-95824629D02*
G01*
X128812769Y-95824629D01*
X128812769Y-79610962D01*
X128939769Y-79610962D01*
X128939769Y-95718796D01*
X144243269Y-95718796D01*
X144243269Y-79610962D01*
X128939769Y-79610962D01*
X128812769Y-79610962D01*
X128812769Y-79483962D01*
X144349103Y-79483962D01*
X144349103Y-95824629D01*
G37*
X192679106Y-95824629D02*
X177142772Y-95824629D01*
X177142772Y-79610962D01*
X177269772Y-79610962D01*
X177269772Y-95718796D01*
X192573272Y-95718796D01*
X192573272Y-79610962D01*
X177269772Y-79610962D01*
X177142772Y-79610962D01*
X177142772Y-79483962D01*
X192679106Y-79483962D01*
X192679106Y-95824629D01*
G36*
X192679106Y-95824629D02*
G01*
X177142772Y-95824629D01*
X177142772Y-79610962D01*
X177269772Y-79610962D01*
X177269772Y-95718796D01*
X192573272Y-95718796D01*
X192573272Y-79610962D01*
X177269772Y-79610962D01*
X177142772Y-79610962D01*
X177142772Y-79483962D01*
X192679106Y-79483962D01*
X192679106Y-95824629D01*
G37*
X176569103Y-95824629D02*
X161032769Y-95824629D01*
X161032769Y-79610962D01*
X161159769Y-79610962D01*
X161159769Y-95718796D01*
X176463269Y-95718796D01*
X176463269Y-79610962D01*
X161159769Y-79610962D01*
X161032769Y-79610962D01*
X161032769Y-79483962D01*
X176569103Y-79483962D01*
X176569103Y-95824629D01*
G36*
X176569103Y-95824629D02*
G01*
X161032769Y-95824629D01*
X161032769Y-79610962D01*
X161159769Y-79610962D01*
X161159769Y-95718796D01*
X176463269Y-95718796D01*
X176463269Y-79610962D01*
X161159769Y-79610962D01*
X161032769Y-79610962D01*
X161032769Y-79483962D01*
X176569103Y-79483962D01*
X176569103Y-95824629D01*
G37*
X128239103Y-95824629D02*
X112702769Y-95824629D01*
X112702769Y-79610962D01*
X112829769Y-79610962D01*
X112829769Y-95718796D01*
X128133269Y-95718796D01*
X128133269Y-79610962D01*
X112829769Y-79610962D01*
X112702769Y-79610962D01*
X112702769Y-79483962D01*
X128239103Y-79483962D01*
X128239103Y-95824629D01*
G36*
X128239103Y-95824629D02*
G01*
X112702769Y-95824629D01*
X112702769Y-79610962D01*
X112829769Y-79610962D01*
X112829769Y-95718796D01*
X128133269Y-95718796D01*
X128133269Y-79610962D01*
X112829769Y-79610962D01*
X112702769Y-79610962D01*
X112702769Y-79483962D01*
X128239103Y-79483962D01*
X128239103Y-95824629D01*
G37*
X160459103Y-95824629D02*
X144922769Y-95824629D01*
X144922769Y-79610962D01*
X145049769Y-79610962D01*
X145049769Y-95718796D01*
X160353269Y-95718796D01*
X160353269Y-79610962D01*
X145049769Y-79610962D01*
X144922769Y-79610962D01*
X144922769Y-79483962D01*
X160459103Y-79483962D01*
X160459103Y-95824629D01*
G36*
X160459103Y-95824629D02*
G01*
X144922769Y-95824629D01*
X144922769Y-79610962D01*
X145049769Y-79610962D01*
X145049769Y-95718796D01*
X160353269Y-95718796D01*
X160353269Y-79610962D01*
X145049769Y-79610962D01*
X144922769Y-79610962D01*
X144922769Y-79483962D01*
X160459103Y-79483962D01*
X160459103Y-95824629D01*
G37*
X112129103Y-95824629D02*
X96592769Y-95824629D01*
X96592769Y-79610962D01*
X96719769Y-79610962D01*
X96719769Y-95718796D01*
X112023269Y-95718796D01*
X112023269Y-79610962D01*
X96719769Y-79610962D01*
X96592769Y-79610962D01*
X96592769Y-79483962D01*
X112129103Y-79483962D01*
X112129103Y-95824629D01*
G36*
X112129103Y-95824629D02*
G01*
X96592769Y-95824629D01*
X96592769Y-79610962D01*
X96719769Y-79610962D01*
X96719769Y-95718796D01*
X112023269Y-95718796D01*
X112023269Y-79610962D01*
X96719769Y-79610962D01*
X96592769Y-79610962D01*
X96592769Y-79483962D01*
X112129103Y-79483962D01*
X112129103Y-95824629D01*
G37*
%LPC*%
D14*
X130821120Y-89578955D03*
X142251120Y-89578955D03*
D15*
X132091116Y-83228957D03*
X133361113Y-80688964D03*
X134631117Y-83228957D03*
X135901114Y-80688964D03*
X137171118Y-83228957D03*
X138441115Y-80688964D03*
X139711119Y-83228957D03*
X140981120Y-80688964D03*
D16*
X91648957Y-105072218D03*
X106711119Y-102824962D03*
X181561119Y-102824962D03*
D17*
X118216119Y-100679962D03*
X120376119Y-100679962D03*
X122536119Y-100679962D03*
X124696119Y-100679962D03*
X126856119Y-100679962D03*
X129016119Y-100679962D03*
X131176119Y-100679962D03*
X133336119Y-100679962D03*
X135496119Y-100679962D03*
X137656119Y-100679962D03*
X139816119Y-100679962D03*
X141976119Y-100679962D03*
X144136119Y-100679962D03*
X146296119Y-100679962D03*
X148456119Y-100679962D03*
X150616119Y-100679962D03*
X152776119Y-100679962D03*
X154936119Y-100679962D03*
X157096119Y-100679962D03*
X159256119Y-100679962D03*
X161416119Y-100679962D03*
X163576119Y-100679962D03*
X165736119Y-100679962D03*
X167896119Y-100679962D03*
X170056119Y-100679962D03*
X118216119Y-104969962D03*
X120376119Y-104969962D03*
X122536119Y-104969962D03*
X124696119Y-104969962D03*
X126856119Y-104969962D03*
X129016119Y-104969962D03*
X131176119Y-104969962D03*
X133336119Y-104969962D03*
X135496119Y-104969962D03*
X137656119Y-104969962D03*
X139816119Y-104969962D03*
X141976119Y-104969962D03*
X144136119Y-104969962D03*
X146296119Y-104969962D03*
X148456119Y-104969962D03*
X150616119Y-104969962D03*
X152776119Y-104969962D03*
X154936119Y-104969962D03*
X157096119Y-104969962D03*
X159256119Y-104969962D03*
X161416119Y-104969962D03*
X163576119Y-104969962D03*
X165736119Y-104969962D03*
X167896119Y-104969962D03*
X170056119Y-104969962D03*
D14*
X179151123Y-89578955D03*
X190581123Y-89578955D03*
D15*
X180421119Y-83228957D03*
X181691116Y-80688964D03*
X182961120Y-83228957D03*
X184231117Y-80688964D03*
X185501121Y-83228957D03*
X186771118Y-80688964D03*
X188041122Y-83228957D03*
X189311123Y-80688964D03*
D16*
X197618957Y-83726177D03*
D14*
X163041120Y-89578955D03*
X174471120Y-89578955D03*
D15*
X164311116Y-83228957D03*
X165581113Y-80688964D03*
X166851117Y-83228957D03*
X168121114Y-80688964D03*
X169391118Y-83228957D03*
X170661115Y-80688964D03*
X171931119Y-83228957D03*
X173201120Y-80688964D03*
D14*
X114711120Y-89578955D03*
X126141120Y-89578955D03*
D15*
X115981116Y-83228957D03*
X117251113Y-80688964D03*
X118521117Y-83228957D03*
X119791114Y-80688964D03*
X121061118Y-83228957D03*
X122331115Y-80688964D03*
X123601119Y-83228957D03*
X124871120Y-80688964D03*
D16*
X197618957Y-105072218D03*
X91648957Y-83726177D03*
D14*
X146931120Y-89578955D03*
X158361120Y-89578955D03*
D15*
X148201116Y-83228957D03*
X149471113Y-80688964D03*
X150741117Y-83228957D03*
X152011114Y-80688964D03*
X153281118Y-83228957D03*
X154551115Y-80688964D03*
X155821119Y-83228957D03*
X157091120Y-80688964D03*
D14*
X98601120Y-89578955D03*
X110031120Y-89578955D03*
D15*
X99871116Y-83228957D03*
X101141113Y-80688964D03*
X102411117Y-83228957D03*
X103681114Y-80688964D03*
X104951118Y-83228957D03*
X106221115Y-80688964D03*
X107491119Y-83228957D03*
X108761120Y-80688964D03*
%LPD*%
M02*
