%TF.GenerationSoftware,KiCad,Pcbnew,8.0.1*%
%TF.CreationDate,2024-08-12T23:31:36+01:00*%
%TF.ProjectId,MICRO_TRUNK_6_MAIN,4d494352-4f5f-4545-9255-4e4b5f365f4d,rev?*%
%TF.SameCoordinates,Original*%
%TF.FileFunction,Drillmap*%
%TF.FilePolarity,Positive*%
%FSLAX45Y45*%
G04 Gerber Fmt 4.5, Leading zero omitted, Abs format (unit mm)*
G04 Created by KiCad (PCBNEW 8.0.1) date 2024-08-12 23:31:36*
%MOMM*%
%LPD*%
G01*
G04 APERTURE LIST*
%ADD10C,0.050000*%
%ADD11C,0.200000*%
%ADD12C,0.100000*%
G04 APERTURE END LIST*
D10*
X8724396Y-7887735D02*
G75*
G02*
X8981374Y-7630236I257504J-5D01*
G01*
X20202896Y-11142340D02*
G75*
G02*
X19945917Y-11399835I-257506J10D01*
G01*
X8981374Y-7630236D02*
X19945000Y-7630000D01*
X19945917Y-11399840D02*
X8981791Y-11399471D01*
X8981791Y-11399471D02*
G75*
G02*
X8724299Y-11142493I19J257511D01*
G01*
X8724292Y-11142493D02*
X8724396Y-7887735D01*
X19945000Y-7630000D02*
G75*
G02*
X20202500Y-7886979I0J-257500D01*
G01*
X20202896Y-11142340D02*
X20202500Y-7886979D01*
D11*
D12*
X11781612Y-10027996D02*
X11861612Y-10107996D01*
X11861612Y-10027996D02*
X11781612Y-10107996D01*
X11781612Y-10456996D02*
X11861612Y-10536996D01*
X11861612Y-10456996D02*
X11781612Y-10536996D01*
X11997612Y-10027996D02*
X12077612Y-10107996D01*
X12077612Y-10027996D02*
X11997612Y-10107996D01*
X11997612Y-10456996D02*
X12077612Y-10536996D01*
X12077612Y-10456996D02*
X11997612Y-10536996D01*
X12213612Y-10027996D02*
X12293612Y-10107996D01*
X12293612Y-10027996D02*
X12213612Y-10107996D01*
X12213612Y-10456996D02*
X12293612Y-10536996D01*
X12293612Y-10456996D02*
X12213612Y-10536996D01*
X12429612Y-10027996D02*
X12509612Y-10107996D01*
X12509612Y-10027996D02*
X12429612Y-10107996D01*
X12429612Y-10456996D02*
X12509612Y-10536996D01*
X12509612Y-10456996D02*
X12429612Y-10536996D01*
X12645612Y-10027996D02*
X12725612Y-10107996D01*
X12725612Y-10027996D02*
X12645612Y-10107996D01*
X12645612Y-10456996D02*
X12725612Y-10536996D01*
X12725612Y-10456996D02*
X12645612Y-10536996D01*
X12861612Y-10027996D02*
X12941612Y-10107996D01*
X12941612Y-10027996D02*
X12861612Y-10107996D01*
X12861612Y-10456996D02*
X12941612Y-10536996D01*
X12941612Y-10456996D02*
X12861612Y-10536996D01*
X13077612Y-10027996D02*
X13157612Y-10107996D01*
X13157612Y-10027996D02*
X13077612Y-10107996D01*
X13077612Y-10456996D02*
X13157612Y-10536996D01*
X13157612Y-10456996D02*
X13077612Y-10536996D01*
X13293612Y-10027996D02*
X13373612Y-10107996D01*
X13373612Y-10027996D02*
X13293612Y-10107996D01*
X13293612Y-10456996D02*
X13373612Y-10536996D01*
X13373612Y-10456996D02*
X13293612Y-10536996D01*
X13509612Y-10027996D02*
X13589612Y-10107996D01*
X13589612Y-10027996D02*
X13509612Y-10107996D01*
X13509612Y-10456996D02*
X13589612Y-10536996D01*
X13589612Y-10456996D02*
X13509612Y-10536996D01*
X13725612Y-10027996D02*
X13805612Y-10107996D01*
X13805612Y-10027996D02*
X13725612Y-10107996D01*
X13725612Y-10456996D02*
X13805612Y-10536996D01*
X13805612Y-10456996D02*
X13725612Y-10536996D01*
X13941612Y-10027996D02*
X14021612Y-10107996D01*
X14021612Y-10027996D02*
X13941612Y-10107996D01*
X13941612Y-10456996D02*
X14021612Y-10536996D01*
X14021612Y-10456996D02*
X13941612Y-10536996D01*
X14157612Y-10027996D02*
X14237612Y-10107996D01*
X14237612Y-10027996D02*
X14157612Y-10107996D01*
X14157612Y-10456996D02*
X14237612Y-10536996D01*
X14237612Y-10456996D02*
X14157612Y-10536996D01*
X14373612Y-10027996D02*
X14453612Y-10107996D01*
X14453612Y-10027996D02*
X14373612Y-10107996D01*
X14373612Y-10456996D02*
X14453612Y-10536996D01*
X14453612Y-10456996D02*
X14373612Y-10536996D01*
X14589612Y-10027996D02*
X14669612Y-10107996D01*
X14669612Y-10027996D02*
X14589612Y-10107996D01*
X14589612Y-10456996D02*
X14669612Y-10536996D01*
X14669612Y-10456996D02*
X14589612Y-10536996D01*
X14805612Y-10027996D02*
X14885612Y-10107996D01*
X14885612Y-10027996D02*
X14805612Y-10107996D01*
X14805612Y-10456996D02*
X14885612Y-10536996D01*
X14885612Y-10456996D02*
X14805612Y-10536996D01*
X15021612Y-10027996D02*
X15101612Y-10107996D01*
X15101612Y-10027996D02*
X15021612Y-10107996D01*
X15021612Y-10456996D02*
X15101612Y-10536996D01*
X15101612Y-10456996D02*
X15021612Y-10536996D01*
X15237612Y-10027996D02*
X15317612Y-10107996D01*
X15317612Y-10027996D02*
X15237612Y-10107996D01*
X15237612Y-10456996D02*
X15317612Y-10536996D01*
X15317612Y-10456996D02*
X15237612Y-10536996D01*
X15453612Y-10027996D02*
X15533612Y-10107996D01*
X15533612Y-10027996D02*
X15453612Y-10107996D01*
X15453612Y-10456996D02*
X15533612Y-10536996D01*
X15533612Y-10456996D02*
X15453612Y-10536996D01*
X15669612Y-10027996D02*
X15749612Y-10107996D01*
X15749612Y-10027996D02*
X15669612Y-10107996D01*
X15669612Y-10456996D02*
X15749612Y-10536996D01*
X15749612Y-10456996D02*
X15669612Y-10536996D01*
X15885612Y-10027996D02*
X15965612Y-10107996D01*
X15965612Y-10027996D02*
X15885612Y-10107996D01*
X15885612Y-10456996D02*
X15965612Y-10536996D01*
X15965612Y-10456996D02*
X15885612Y-10536996D01*
X16101612Y-10027996D02*
X16181612Y-10107996D01*
X16181612Y-10027996D02*
X16101612Y-10107996D01*
X16101612Y-10456996D02*
X16181612Y-10536996D01*
X16181612Y-10456996D02*
X16101612Y-10536996D01*
X16317612Y-10027996D02*
X16397612Y-10107996D01*
X16397612Y-10027996D02*
X16317612Y-10107996D01*
X16317612Y-10456996D02*
X16397612Y-10536996D01*
X16397612Y-10456996D02*
X16317612Y-10536996D01*
X16533612Y-10027996D02*
X16613612Y-10107996D01*
X16613612Y-10027996D02*
X16533612Y-10107996D01*
X16533612Y-10456996D02*
X16613612Y-10536996D01*
X16613612Y-10456996D02*
X16533612Y-10536996D01*
X16749612Y-10027996D02*
X16829612Y-10107996D01*
X16829612Y-10027996D02*
X16749612Y-10107996D01*
X16749612Y-10456996D02*
X16829612Y-10536996D01*
X16829612Y-10456996D02*
X16749612Y-10536996D01*
X16965612Y-10027996D02*
X17045612Y-10107996D01*
X17045612Y-10027996D02*
X16965612Y-10107996D01*
X16965612Y-10456996D02*
X17045612Y-10536996D01*
X17045612Y-10456996D02*
X16965612Y-10536996D01*
X10032112Y-8322896D02*
G75*
G02*
X9942112Y-8322896I-45000J0D01*
G01*
X9942112Y-8322896D02*
G75*
G02*
X10032112Y-8322896I45000J0D01*
G01*
X10159111Y-8068896D02*
G75*
G02*
X10069111Y-8068896I-45000J0D01*
G01*
X10069111Y-8068896D02*
G75*
G02*
X10159111Y-8068896I45000J0D01*
G01*
X10286112Y-8322896D02*
G75*
G02*
X10196112Y-8322896I-45000J0D01*
G01*
X10196112Y-8322896D02*
G75*
G02*
X10286112Y-8322896I45000J0D01*
G01*
X10413111Y-8068896D02*
G75*
G02*
X10323111Y-8068896I-45000J0D01*
G01*
X10323111Y-8068896D02*
G75*
G02*
X10413111Y-8068896I45000J0D01*
G01*
X10540112Y-8322896D02*
G75*
G02*
X10450112Y-8322896I-45000J0D01*
G01*
X10450112Y-8322896D02*
G75*
G02*
X10540112Y-8322896I45000J0D01*
G01*
X10667112Y-8068896D02*
G75*
G02*
X10577112Y-8068896I-45000J0D01*
G01*
X10577112Y-8068896D02*
G75*
G02*
X10667112Y-8068896I45000J0D01*
G01*
X10794112Y-8322896D02*
G75*
G02*
X10704112Y-8322896I-45000J0D01*
G01*
X10704112Y-8322896D02*
G75*
G02*
X10794112Y-8322896I45000J0D01*
G01*
X10921112Y-8068896D02*
G75*
G02*
X10831112Y-8068896I-45000J0D01*
G01*
X10831112Y-8068896D02*
G75*
G02*
X10921112Y-8068896I45000J0D01*
G01*
X11643112Y-8322896D02*
G75*
G02*
X11553112Y-8322896I-45000J0D01*
G01*
X11553112Y-8322896D02*
G75*
G02*
X11643112Y-8322896I45000J0D01*
G01*
X11770111Y-8068896D02*
G75*
G02*
X11680111Y-8068896I-45000J0D01*
G01*
X11680111Y-8068896D02*
G75*
G02*
X11770111Y-8068896I45000J0D01*
G01*
X11897112Y-8322896D02*
G75*
G02*
X11807112Y-8322896I-45000J0D01*
G01*
X11807112Y-8322896D02*
G75*
G02*
X11897112Y-8322896I45000J0D01*
G01*
X12024111Y-8068896D02*
G75*
G02*
X11934111Y-8068896I-45000J0D01*
G01*
X11934111Y-8068896D02*
G75*
G02*
X12024111Y-8068896I45000J0D01*
G01*
X12151112Y-8322896D02*
G75*
G02*
X12061112Y-8322896I-45000J0D01*
G01*
X12061112Y-8322896D02*
G75*
G02*
X12151112Y-8322896I45000J0D01*
G01*
X12278111Y-8068896D02*
G75*
G02*
X12188111Y-8068896I-45000J0D01*
G01*
X12188111Y-8068896D02*
G75*
G02*
X12278111Y-8068896I45000J0D01*
G01*
X12405112Y-8322896D02*
G75*
G02*
X12315112Y-8322896I-45000J0D01*
G01*
X12315112Y-8322896D02*
G75*
G02*
X12405112Y-8322896I45000J0D01*
G01*
X12532112Y-8068896D02*
G75*
G02*
X12442112Y-8068896I-45000J0D01*
G01*
X12442112Y-8068896D02*
G75*
G02*
X12532112Y-8068896I45000J0D01*
G01*
X13254112Y-8322896D02*
G75*
G02*
X13164112Y-8322896I-45000J0D01*
G01*
X13164112Y-8322896D02*
G75*
G02*
X13254112Y-8322896I45000J0D01*
G01*
X13381111Y-8068896D02*
G75*
G02*
X13291111Y-8068896I-45000J0D01*
G01*
X13291111Y-8068896D02*
G75*
G02*
X13381111Y-8068896I45000J0D01*
G01*
X13508112Y-8322896D02*
G75*
G02*
X13418112Y-8322896I-45000J0D01*
G01*
X13418112Y-8322896D02*
G75*
G02*
X13508112Y-8322896I45000J0D01*
G01*
X13635111Y-8068896D02*
G75*
G02*
X13545111Y-8068896I-45000J0D01*
G01*
X13545111Y-8068896D02*
G75*
G02*
X13635111Y-8068896I45000J0D01*
G01*
X13762112Y-8322896D02*
G75*
G02*
X13672112Y-8322896I-45000J0D01*
G01*
X13672112Y-8322896D02*
G75*
G02*
X13762112Y-8322896I45000J0D01*
G01*
X13889111Y-8068896D02*
G75*
G02*
X13799111Y-8068896I-45000J0D01*
G01*
X13799111Y-8068896D02*
G75*
G02*
X13889111Y-8068896I45000J0D01*
G01*
X14016112Y-8322896D02*
G75*
G02*
X13926112Y-8322896I-45000J0D01*
G01*
X13926112Y-8322896D02*
G75*
G02*
X14016112Y-8322896I45000J0D01*
G01*
X14143112Y-8068896D02*
G75*
G02*
X14053112Y-8068896I-45000J0D01*
G01*
X14053112Y-8068896D02*
G75*
G02*
X14143112Y-8068896I45000J0D01*
G01*
X14865112Y-8322896D02*
G75*
G02*
X14775112Y-8322896I-45000J0D01*
G01*
X14775112Y-8322896D02*
G75*
G02*
X14865112Y-8322896I45000J0D01*
G01*
X14992111Y-8068896D02*
G75*
G02*
X14902111Y-8068896I-45000J0D01*
G01*
X14902111Y-8068896D02*
G75*
G02*
X14992111Y-8068896I45000J0D01*
G01*
X15119112Y-8322896D02*
G75*
G02*
X15029112Y-8322896I-45000J0D01*
G01*
X15029112Y-8322896D02*
G75*
G02*
X15119112Y-8322896I45000J0D01*
G01*
X15246111Y-8068896D02*
G75*
G02*
X15156111Y-8068896I-45000J0D01*
G01*
X15156111Y-8068896D02*
G75*
G02*
X15246111Y-8068896I45000J0D01*
G01*
X15373112Y-8322896D02*
G75*
G02*
X15283112Y-8322896I-45000J0D01*
G01*
X15283112Y-8322896D02*
G75*
G02*
X15373112Y-8322896I45000J0D01*
G01*
X15500111Y-8068896D02*
G75*
G02*
X15410111Y-8068896I-45000J0D01*
G01*
X15410111Y-8068896D02*
G75*
G02*
X15500111Y-8068896I45000J0D01*
G01*
X15627112Y-8322896D02*
G75*
G02*
X15537112Y-8322896I-45000J0D01*
G01*
X15537112Y-8322896D02*
G75*
G02*
X15627112Y-8322896I45000J0D01*
G01*
X15754112Y-8068896D02*
G75*
G02*
X15664112Y-8068896I-45000J0D01*
G01*
X15664112Y-8068896D02*
G75*
G02*
X15754112Y-8068896I45000J0D01*
G01*
X16476112Y-8322896D02*
G75*
G02*
X16386112Y-8322896I-45000J0D01*
G01*
X16386112Y-8322896D02*
G75*
G02*
X16476112Y-8322896I45000J0D01*
G01*
X16603111Y-8068896D02*
G75*
G02*
X16513111Y-8068896I-45000J0D01*
G01*
X16513111Y-8068896D02*
G75*
G02*
X16603111Y-8068896I45000J0D01*
G01*
X16730112Y-8322896D02*
G75*
G02*
X16640112Y-8322896I-45000J0D01*
G01*
X16640112Y-8322896D02*
G75*
G02*
X16730112Y-8322896I45000J0D01*
G01*
X16857111Y-8068896D02*
G75*
G02*
X16767111Y-8068896I-45000J0D01*
G01*
X16767111Y-8068896D02*
G75*
G02*
X16857111Y-8068896I45000J0D01*
G01*
X16984112Y-8322896D02*
G75*
G02*
X16894112Y-8322896I-45000J0D01*
G01*
X16894112Y-8322896D02*
G75*
G02*
X16984112Y-8322896I45000J0D01*
G01*
X17111112Y-8068896D02*
G75*
G02*
X17021112Y-8068896I-45000J0D01*
G01*
X17021112Y-8068896D02*
G75*
G02*
X17111112Y-8068896I45000J0D01*
G01*
X17238112Y-8322896D02*
G75*
G02*
X17148112Y-8322896I-45000J0D01*
G01*
X17148112Y-8322896D02*
G75*
G02*
X17238112Y-8322896I45000J0D01*
G01*
X17365112Y-8068896D02*
G75*
G02*
X17275112Y-8068896I-45000J0D01*
G01*
X17275112Y-8068896D02*
G75*
G02*
X17365112Y-8068896I45000J0D01*
G01*
X18087112Y-8322896D02*
G75*
G02*
X17997112Y-8322896I-45000J0D01*
G01*
X17997112Y-8322896D02*
G75*
G02*
X18087112Y-8322896I45000J0D01*
G01*
X18214112Y-8068896D02*
G75*
G02*
X18124112Y-8068896I-45000J0D01*
G01*
X18124112Y-8068896D02*
G75*
G02*
X18214112Y-8068896I45000J0D01*
G01*
X18341112Y-8322896D02*
G75*
G02*
X18251112Y-8322896I-45000J0D01*
G01*
X18251112Y-8322896D02*
G75*
G02*
X18341112Y-8322896I45000J0D01*
G01*
X18468112Y-8068896D02*
G75*
G02*
X18378112Y-8068896I-45000J0D01*
G01*
X18378112Y-8068896D02*
G75*
G02*
X18468112Y-8068896I45000J0D01*
G01*
X18595112Y-8322896D02*
G75*
G02*
X18505112Y-8322896I-45000J0D01*
G01*
X18505112Y-8322896D02*
G75*
G02*
X18595112Y-8322896I45000J0D01*
G01*
X18722112Y-8068896D02*
G75*
G02*
X18632112Y-8068896I-45000J0D01*
G01*
X18632112Y-8068896D02*
G75*
G02*
X18722112Y-8068896I45000J0D01*
G01*
X18849112Y-8322896D02*
G75*
G02*
X18759112Y-8322896I-45000J0D01*
G01*
X18759112Y-8322896D02*
G75*
G02*
X18849112Y-8322896I45000J0D01*
G01*
X18976112Y-8068896D02*
G75*
G02*
X18886112Y-8068896I-45000J0D01*
G01*
X18886112Y-8068896D02*
G75*
G02*
X18976112Y-8068896I45000J0D01*
G01*
D11*
X8982569Y-11713823D02*
X8982569Y-11513823D01*
X8982569Y-11513823D02*
X9030188Y-11513823D01*
X9030188Y-11513823D02*
X9058759Y-11523347D01*
X9058759Y-11523347D02*
X9077807Y-11542395D01*
X9077807Y-11542395D02*
X9087331Y-11561442D01*
X9087331Y-11561442D02*
X9096854Y-11599538D01*
X9096854Y-11599538D02*
X9096854Y-11628109D01*
X9096854Y-11628109D02*
X9087331Y-11666204D01*
X9087331Y-11666204D02*
X9077807Y-11685252D01*
X9077807Y-11685252D02*
X9058759Y-11704300D01*
X9058759Y-11704300D02*
X9030188Y-11713823D01*
X9030188Y-11713823D02*
X8982569Y-11713823D01*
X9182569Y-11713823D02*
X9182569Y-11580490D01*
X9182569Y-11618585D02*
X9192092Y-11599538D01*
X9192092Y-11599538D02*
X9201616Y-11590014D01*
X9201616Y-11590014D02*
X9220664Y-11580490D01*
X9220664Y-11580490D02*
X9239712Y-11580490D01*
X9306378Y-11713823D02*
X9306378Y-11580490D01*
X9306378Y-11513823D02*
X9296854Y-11523347D01*
X9296854Y-11523347D02*
X9306378Y-11532871D01*
X9306378Y-11532871D02*
X9315902Y-11523347D01*
X9315902Y-11523347D02*
X9306378Y-11513823D01*
X9306378Y-11513823D02*
X9306378Y-11532871D01*
X9430188Y-11713823D02*
X9411140Y-11704300D01*
X9411140Y-11704300D02*
X9401616Y-11685252D01*
X9401616Y-11685252D02*
X9401616Y-11513823D01*
X9534950Y-11713823D02*
X9515902Y-11704300D01*
X9515902Y-11704300D02*
X9506378Y-11685252D01*
X9506378Y-11685252D02*
X9506378Y-11513823D01*
X9763521Y-11713823D02*
X9763521Y-11513823D01*
X9763521Y-11513823D02*
X9830188Y-11656680D01*
X9830188Y-11656680D02*
X9896854Y-11513823D01*
X9896854Y-11513823D02*
X9896854Y-11713823D01*
X10077807Y-11713823D02*
X10077807Y-11609061D01*
X10077807Y-11609061D02*
X10068283Y-11590014D01*
X10068283Y-11590014D02*
X10049235Y-11580490D01*
X10049235Y-11580490D02*
X10011140Y-11580490D01*
X10011140Y-11580490D02*
X9992092Y-11590014D01*
X10077807Y-11704300D02*
X10058759Y-11713823D01*
X10058759Y-11713823D02*
X10011140Y-11713823D01*
X10011140Y-11713823D02*
X9992092Y-11704300D01*
X9992092Y-11704300D02*
X9982569Y-11685252D01*
X9982569Y-11685252D02*
X9982569Y-11666204D01*
X9982569Y-11666204D02*
X9992092Y-11647157D01*
X9992092Y-11647157D02*
X10011140Y-11637633D01*
X10011140Y-11637633D02*
X10058759Y-11637633D01*
X10058759Y-11637633D02*
X10077807Y-11628109D01*
X10173045Y-11580490D02*
X10173045Y-11780490D01*
X10173045Y-11590014D02*
X10192092Y-11580490D01*
X10192092Y-11580490D02*
X10230188Y-11580490D01*
X10230188Y-11580490D02*
X10249235Y-11590014D01*
X10249235Y-11590014D02*
X10258759Y-11599538D01*
X10258759Y-11599538D02*
X10268283Y-11618585D01*
X10268283Y-11618585D02*
X10268283Y-11675728D01*
X10268283Y-11675728D02*
X10258759Y-11694776D01*
X10258759Y-11694776D02*
X10249235Y-11704300D01*
X10249235Y-11704300D02*
X10230188Y-11713823D01*
X10230188Y-11713823D02*
X10192092Y-11713823D01*
X10192092Y-11713823D02*
X10173045Y-11704300D01*
X10353997Y-11694776D02*
X10363521Y-11704300D01*
X10363521Y-11704300D02*
X10353997Y-11713823D01*
X10353997Y-11713823D02*
X10344473Y-11704300D01*
X10344473Y-11704300D02*
X10353997Y-11694776D01*
X10353997Y-11694776D02*
X10353997Y-11713823D01*
X10353997Y-11590014D02*
X10363521Y-11599538D01*
X10363521Y-11599538D02*
X10353997Y-11609061D01*
X10353997Y-11609061D02*
X10344473Y-11599538D01*
X10344473Y-11599538D02*
X10353997Y-11590014D01*
X10353997Y-11590014D02*
X10353997Y-11609061D01*
D12*
X8641792Y-12002340D02*
X8721792Y-12082340D01*
X8721792Y-12002340D02*
X8641792Y-12082340D01*
D11*
X9020664Y-11933823D02*
X9039712Y-11933823D01*
X9039712Y-11933823D02*
X9058759Y-11943347D01*
X9058759Y-11943347D02*
X9068283Y-11952871D01*
X9068283Y-11952871D02*
X9077807Y-11971919D01*
X9077807Y-11971919D02*
X9087331Y-12010014D01*
X9087331Y-12010014D02*
X9087331Y-12057633D01*
X9087331Y-12057633D02*
X9077807Y-12095728D01*
X9077807Y-12095728D02*
X9068283Y-12114776D01*
X9068283Y-12114776D02*
X9058759Y-12124300D01*
X9058759Y-12124300D02*
X9039712Y-12133823D01*
X9039712Y-12133823D02*
X9020664Y-12133823D01*
X9020664Y-12133823D02*
X9001616Y-12124300D01*
X9001616Y-12124300D02*
X8992092Y-12114776D01*
X8992092Y-12114776D02*
X8982569Y-12095728D01*
X8982569Y-12095728D02*
X8973045Y-12057633D01*
X8973045Y-12057633D02*
X8973045Y-12010014D01*
X8973045Y-12010014D02*
X8982569Y-11971919D01*
X8982569Y-11971919D02*
X8992092Y-11952871D01*
X8992092Y-11952871D02*
X9001616Y-11943347D01*
X9001616Y-11943347D02*
X9020664Y-11933823D01*
X9173045Y-12114776D02*
X9182569Y-12124300D01*
X9182569Y-12124300D02*
X9173045Y-12133823D01*
X9173045Y-12133823D02*
X9163521Y-12124300D01*
X9163521Y-12124300D02*
X9173045Y-12114776D01*
X9173045Y-12114776D02*
X9173045Y-12133823D01*
X9296854Y-12019538D02*
X9277807Y-12010014D01*
X9277807Y-12010014D02*
X9268283Y-12000490D01*
X9268283Y-12000490D02*
X9258759Y-11981442D01*
X9258759Y-11981442D02*
X9258759Y-11971919D01*
X9258759Y-11971919D02*
X9268283Y-11952871D01*
X9268283Y-11952871D02*
X9277807Y-11943347D01*
X9277807Y-11943347D02*
X9296854Y-11933823D01*
X9296854Y-11933823D02*
X9334950Y-11933823D01*
X9334950Y-11933823D02*
X9353997Y-11943347D01*
X9353997Y-11943347D02*
X9363521Y-11952871D01*
X9363521Y-11952871D02*
X9373045Y-11971919D01*
X9373045Y-11971919D02*
X9373045Y-11981442D01*
X9373045Y-11981442D02*
X9363521Y-12000490D01*
X9363521Y-12000490D02*
X9353997Y-12010014D01*
X9353997Y-12010014D02*
X9334950Y-12019538D01*
X9334950Y-12019538D02*
X9296854Y-12019538D01*
X9296854Y-12019538D02*
X9277807Y-12029061D01*
X9277807Y-12029061D02*
X9268283Y-12038585D01*
X9268283Y-12038585D02*
X9258759Y-12057633D01*
X9258759Y-12057633D02*
X9258759Y-12095728D01*
X9258759Y-12095728D02*
X9268283Y-12114776D01*
X9268283Y-12114776D02*
X9277807Y-12124300D01*
X9277807Y-12124300D02*
X9296854Y-12133823D01*
X9296854Y-12133823D02*
X9334950Y-12133823D01*
X9334950Y-12133823D02*
X9353997Y-12124300D01*
X9353997Y-12124300D02*
X9363521Y-12114776D01*
X9363521Y-12114776D02*
X9373045Y-12095728D01*
X9373045Y-12095728D02*
X9373045Y-12057633D01*
X9373045Y-12057633D02*
X9363521Y-12038585D01*
X9363521Y-12038585D02*
X9353997Y-12029061D01*
X9353997Y-12029061D02*
X9334950Y-12019538D01*
X9496854Y-11933823D02*
X9515902Y-11933823D01*
X9515902Y-11933823D02*
X9534950Y-11943347D01*
X9534950Y-11943347D02*
X9544473Y-11952871D01*
X9544473Y-11952871D02*
X9553997Y-11971919D01*
X9553997Y-11971919D02*
X9563521Y-12010014D01*
X9563521Y-12010014D02*
X9563521Y-12057633D01*
X9563521Y-12057633D02*
X9553997Y-12095728D01*
X9553997Y-12095728D02*
X9544473Y-12114776D01*
X9544473Y-12114776D02*
X9534950Y-12124300D01*
X9534950Y-12124300D02*
X9515902Y-12133823D01*
X9515902Y-12133823D02*
X9496854Y-12133823D01*
X9496854Y-12133823D02*
X9477807Y-12124300D01*
X9477807Y-12124300D02*
X9468283Y-12114776D01*
X9468283Y-12114776D02*
X9458759Y-12095728D01*
X9458759Y-12095728D02*
X9449235Y-12057633D01*
X9449235Y-12057633D02*
X9449235Y-12010014D01*
X9449235Y-12010014D02*
X9458759Y-11971919D01*
X9458759Y-11971919D02*
X9468283Y-11952871D01*
X9468283Y-11952871D02*
X9477807Y-11943347D01*
X9477807Y-11943347D02*
X9496854Y-11933823D01*
X9687331Y-11933823D02*
X9706378Y-11933823D01*
X9706378Y-11933823D02*
X9725426Y-11943347D01*
X9725426Y-11943347D02*
X9734950Y-11952871D01*
X9734950Y-11952871D02*
X9744473Y-11971919D01*
X9744473Y-11971919D02*
X9753997Y-12010014D01*
X9753997Y-12010014D02*
X9753997Y-12057633D01*
X9753997Y-12057633D02*
X9744473Y-12095728D01*
X9744473Y-12095728D02*
X9734950Y-12114776D01*
X9734950Y-12114776D02*
X9725426Y-12124300D01*
X9725426Y-12124300D02*
X9706378Y-12133823D01*
X9706378Y-12133823D02*
X9687331Y-12133823D01*
X9687331Y-12133823D02*
X9668283Y-12124300D01*
X9668283Y-12124300D02*
X9658759Y-12114776D01*
X9658759Y-12114776D02*
X9649235Y-12095728D01*
X9649235Y-12095728D02*
X9639712Y-12057633D01*
X9639712Y-12057633D02*
X9639712Y-12010014D01*
X9639712Y-12010014D02*
X9649235Y-11971919D01*
X9649235Y-11971919D02*
X9658759Y-11952871D01*
X9658759Y-11952871D02*
X9668283Y-11943347D01*
X9668283Y-11943347D02*
X9687331Y-11933823D01*
X9839712Y-12133823D02*
X9839712Y-12000490D01*
X9839712Y-12019538D02*
X9849235Y-12010014D01*
X9849235Y-12010014D02*
X9868283Y-12000490D01*
X9868283Y-12000490D02*
X9896854Y-12000490D01*
X9896854Y-12000490D02*
X9915902Y-12010014D01*
X9915902Y-12010014D02*
X9925426Y-12029061D01*
X9925426Y-12029061D02*
X9925426Y-12133823D01*
X9925426Y-12029061D02*
X9934950Y-12010014D01*
X9934950Y-12010014D02*
X9953997Y-12000490D01*
X9953997Y-12000490D02*
X9982569Y-12000490D01*
X9982569Y-12000490D02*
X10001616Y-12010014D01*
X10001616Y-12010014D02*
X10011140Y-12029061D01*
X10011140Y-12029061D02*
X10011140Y-12133823D01*
X10106378Y-12133823D02*
X10106378Y-12000490D01*
X10106378Y-12019538D02*
X10115902Y-12010014D01*
X10115902Y-12010014D02*
X10134950Y-12000490D01*
X10134950Y-12000490D02*
X10163521Y-12000490D01*
X10163521Y-12000490D02*
X10182569Y-12010014D01*
X10182569Y-12010014D02*
X10192093Y-12029061D01*
X10192093Y-12029061D02*
X10192093Y-12133823D01*
X10192093Y-12029061D02*
X10201616Y-12010014D01*
X10201616Y-12010014D02*
X10220664Y-12000490D01*
X10220664Y-12000490D02*
X10249235Y-12000490D01*
X10249235Y-12000490D02*
X10268283Y-12010014D01*
X10268283Y-12010014D02*
X10277807Y-12029061D01*
X10277807Y-12029061D02*
X10277807Y-12133823D01*
X10668283Y-11924300D02*
X10496855Y-12181442D01*
X10925426Y-11933823D02*
X10944474Y-11933823D01*
X10944474Y-11933823D02*
X10963521Y-11943347D01*
X10963521Y-11943347D02*
X10973045Y-11952871D01*
X10973045Y-11952871D02*
X10982569Y-11971919D01*
X10982569Y-11971919D02*
X10992093Y-12010014D01*
X10992093Y-12010014D02*
X10992093Y-12057633D01*
X10992093Y-12057633D02*
X10982569Y-12095728D01*
X10982569Y-12095728D02*
X10973045Y-12114776D01*
X10973045Y-12114776D02*
X10963521Y-12124300D01*
X10963521Y-12124300D02*
X10944474Y-12133823D01*
X10944474Y-12133823D02*
X10925426Y-12133823D01*
X10925426Y-12133823D02*
X10906378Y-12124300D01*
X10906378Y-12124300D02*
X10896855Y-12114776D01*
X10896855Y-12114776D02*
X10887331Y-12095728D01*
X10887331Y-12095728D02*
X10877807Y-12057633D01*
X10877807Y-12057633D02*
X10877807Y-12010014D01*
X10877807Y-12010014D02*
X10887331Y-11971919D01*
X10887331Y-11971919D02*
X10896855Y-11952871D01*
X10896855Y-11952871D02*
X10906378Y-11943347D01*
X10906378Y-11943347D02*
X10925426Y-11933823D01*
X11077807Y-12114776D02*
X11087331Y-12124300D01*
X11087331Y-12124300D02*
X11077807Y-12133823D01*
X11077807Y-12133823D02*
X11068283Y-12124300D01*
X11068283Y-12124300D02*
X11077807Y-12114776D01*
X11077807Y-12114776D02*
X11077807Y-12133823D01*
X11211140Y-11933823D02*
X11230188Y-11933823D01*
X11230188Y-11933823D02*
X11249235Y-11943347D01*
X11249235Y-11943347D02*
X11258759Y-11952871D01*
X11258759Y-11952871D02*
X11268283Y-11971919D01*
X11268283Y-11971919D02*
X11277807Y-12010014D01*
X11277807Y-12010014D02*
X11277807Y-12057633D01*
X11277807Y-12057633D02*
X11268283Y-12095728D01*
X11268283Y-12095728D02*
X11258759Y-12114776D01*
X11258759Y-12114776D02*
X11249235Y-12124300D01*
X11249235Y-12124300D02*
X11230188Y-12133823D01*
X11230188Y-12133823D02*
X11211140Y-12133823D01*
X11211140Y-12133823D02*
X11192093Y-12124300D01*
X11192093Y-12124300D02*
X11182569Y-12114776D01*
X11182569Y-12114776D02*
X11173045Y-12095728D01*
X11173045Y-12095728D02*
X11163521Y-12057633D01*
X11163521Y-12057633D02*
X11163521Y-12010014D01*
X11163521Y-12010014D02*
X11173045Y-11971919D01*
X11173045Y-11971919D02*
X11182569Y-11952871D01*
X11182569Y-11952871D02*
X11192093Y-11943347D01*
X11192093Y-11943347D02*
X11211140Y-11933823D01*
X11344474Y-11933823D02*
X11468283Y-11933823D01*
X11468283Y-11933823D02*
X11401616Y-12010014D01*
X11401616Y-12010014D02*
X11430188Y-12010014D01*
X11430188Y-12010014D02*
X11449235Y-12019538D01*
X11449235Y-12019538D02*
X11458759Y-12029061D01*
X11458759Y-12029061D02*
X11468283Y-12048109D01*
X11468283Y-12048109D02*
X11468283Y-12095728D01*
X11468283Y-12095728D02*
X11458759Y-12114776D01*
X11458759Y-12114776D02*
X11449235Y-12124300D01*
X11449235Y-12124300D02*
X11430188Y-12133823D01*
X11430188Y-12133823D02*
X11373045Y-12133823D01*
X11373045Y-12133823D02*
X11353997Y-12124300D01*
X11353997Y-12124300D02*
X11344474Y-12114776D01*
X11658759Y-12133823D02*
X11544474Y-12133823D01*
X11601616Y-12133823D02*
X11601616Y-11933823D01*
X11601616Y-11933823D02*
X11582569Y-11962395D01*
X11582569Y-11962395D02*
X11563521Y-11981442D01*
X11563521Y-11981442D02*
X11544474Y-11990966D01*
X11839712Y-11933823D02*
X11744474Y-11933823D01*
X11744474Y-11933823D02*
X11734950Y-12029061D01*
X11734950Y-12029061D02*
X11744474Y-12019538D01*
X11744474Y-12019538D02*
X11763521Y-12010014D01*
X11763521Y-12010014D02*
X11811140Y-12010014D01*
X11811140Y-12010014D02*
X11830188Y-12019538D01*
X11830188Y-12019538D02*
X11839712Y-12029061D01*
X11839712Y-12029061D02*
X11849235Y-12048109D01*
X11849235Y-12048109D02*
X11849235Y-12095728D01*
X11849235Y-12095728D02*
X11839712Y-12114776D01*
X11839712Y-12114776D02*
X11830188Y-12124300D01*
X11830188Y-12124300D02*
X11811140Y-12133823D01*
X11811140Y-12133823D02*
X11763521Y-12133823D01*
X11763521Y-12133823D02*
X11744474Y-12124300D01*
X11744474Y-12124300D02*
X11734950Y-12114776D01*
X11925426Y-11933823D02*
X11925426Y-11971919D01*
X12001616Y-11933823D02*
X12001616Y-11971919D01*
X12296855Y-12210014D02*
X12287331Y-12200490D01*
X12287331Y-12200490D02*
X12268283Y-12171919D01*
X12268283Y-12171919D02*
X12258759Y-12152871D01*
X12258759Y-12152871D02*
X12249236Y-12124300D01*
X12249236Y-12124300D02*
X12239712Y-12076680D01*
X12239712Y-12076680D02*
X12239712Y-12038585D01*
X12239712Y-12038585D02*
X12249236Y-11990966D01*
X12249236Y-11990966D02*
X12258759Y-11962395D01*
X12258759Y-11962395D02*
X12268283Y-11943347D01*
X12268283Y-11943347D02*
X12287331Y-11914776D01*
X12287331Y-11914776D02*
X12296855Y-11905252D01*
X12468283Y-11933823D02*
X12373045Y-11933823D01*
X12373045Y-11933823D02*
X12363521Y-12029061D01*
X12363521Y-12029061D02*
X12373045Y-12019538D01*
X12373045Y-12019538D02*
X12392093Y-12010014D01*
X12392093Y-12010014D02*
X12439712Y-12010014D01*
X12439712Y-12010014D02*
X12458759Y-12019538D01*
X12458759Y-12019538D02*
X12468283Y-12029061D01*
X12468283Y-12029061D02*
X12477807Y-12048109D01*
X12477807Y-12048109D02*
X12477807Y-12095728D01*
X12477807Y-12095728D02*
X12468283Y-12114776D01*
X12468283Y-12114776D02*
X12458759Y-12124300D01*
X12458759Y-12124300D02*
X12439712Y-12133823D01*
X12439712Y-12133823D02*
X12392093Y-12133823D01*
X12392093Y-12133823D02*
X12373045Y-12124300D01*
X12373045Y-12124300D02*
X12363521Y-12114776D01*
X12601616Y-11933823D02*
X12620664Y-11933823D01*
X12620664Y-11933823D02*
X12639712Y-11943347D01*
X12639712Y-11943347D02*
X12649236Y-11952871D01*
X12649236Y-11952871D02*
X12658759Y-11971919D01*
X12658759Y-11971919D02*
X12668283Y-12010014D01*
X12668283Y-12010014D02*
X12668283Y-12057633D01*
X12668283Y-12057633D02*
X12658759Y-12095728D01*
X12658759Y-12095728D02*
X12649236Y-12114776D01*
X12649236Y-12114776D02*
X12639712Y-12124300D01*
X12639712Y-12124300D02*
X12620664Y-12133823D01*
X12620664Y-12133823D02*
X12601616Y-12133823D01*
X12601616Y-12133823D02*
X12582569Y-12124300D01*
X12582569Y-12124300D02*
X12573045Y-12114776D01*
X12573045Y-12114776D02*
X12563521Y-12095728D01*
X12563521Y-12095728D02*
X12553997Y-12057633D01*
X12553997Y-12057633D02*
X12553997Y-12010014D01*
X12553997Y-12010014D02*
X12563521Y-11971919D01*
X12563521Y-11971919D02*
X12573045Y-11952871D01*
X12573045Y-11952871D02*
X12582569Y-11943347D01*
X12582569Y-11943347D02*
X12601616Y-11933823D01*
X12906378Y-12133823D02*
X12906378Y-11933823D01*
X12992093Y-12133823D02*
X12992093Y-12029061D01*
X12992093Y-12029061D02*
X12982569Y-12010014D01*
X12982569Y-12010014D02*
X12963521Y-12000490D01*
X12963521Y-12000490D02*
X12934950Y-12000490D01*
X12934950Y-12000490D02*
X12915902Y-12010014D01*
X12915902Y-12010014D02*
X12906378Y-12019538D01*
X13115902Y-12133823D02*
X13096855Y-12124300D01*
X13096855Y-12124300D02*
X13087331Y-12114776D01*
X13087331Y-12114776D02*
X13077807Y-12095728D01*
X13077807Y-12095728D02*
X13077807Y-12038585D01*
X13077807Y-12038585D02*
X13087331Y-12019538D01*
X13087331Y-12019538D02*
X13096855Y-12010014D01*
X13096855Y-12010014D02*
X13115902Y-12000490D01*
X13115902Y-12000490D02*
X13144474Y-12000490D01*
X13144474Y-12000490D02*
X13163521Y-12010014D01*
X13163521Y-12010014D02*
X13173045Y-12019538D01*
X13173045Y-12019538D02*
X13182569Y-12038585D01*
X13182569Y-12038585D02*
X13182569Y-12095728D01*
X13182569Y-12095728D02*
X13173045Y-12114776D01*
X13173045Y-12114776D02*
X13163521Y-12124300D01*
X13163521Y-12124300D02*
X13144474Y-12133823D01*
X13144474Y-12133823D02*
X13115902Y-12133823D01*
X13296855Y-12133823D02*
X13277807Y-12124300D01*
X13277807Y-12124300D02*
X13268283Y-12105252D01*
X13268283Y-12105252D02*
X13268283Y-11933823D01*
X13449236Y-12124300D02*
X13430188Y-12133823D01*
X13430188Y-12133823D02*
X13392093Y-12133823D01*
X13392093Y-12133823D02*
X13373045Y-12124300D01*
X13373045Y-12124300D02*
X13363521Y-12105252D01*
X13363521Y-12105252D02*
X13363521Y-12029061D01*
X13363521Y-12029061D02*
X13373045Y-12010014D01*
X13373045Y-12010014D02*
X13392093Y-12000490D01*
X13392093Y-12000490D02*
X13430188Y-12000490D01*
X13430188Y-12000490D02*
X13449236Y-12010014D01*
X13449236Y-12010014D02*
X13458759Y-12029061D01*
X13458759Y-12029061D02*
X13458759Y-12048109D01*
X13458759Y-12048109D02*
X13363521Y-12067157D01*
X13534950Y-12124300D02*
X13553998Y-12133823D01*
X13553998Y-12133823D02*
X13592093Y-12133823D01*
X13592093Y-12133823D02*
X13611140Y-12124300D01*
X13611140Y-12124300D02*
X13620664Y-12105252D01*
X13620664Y-12105252D02*
X13620664Y-12095728D01*
X13620664Y-12095728D02*
X13611140Y-12076680D01*
X13611140Y-12076680D02*
X13592093Y-12067157D01*
X13592093Y-12067157D02*
X13563521Y-12067157D01*
X13563521Y-12067157D02*
X13544474Y-12057633D01*
X13544474Y-12057633D02*
X13534950Y-12038585D01*
X13534950Y-12038585D02*
X13534950Y-12029061D01*
X13534950Y-12029061D02*
X13544474Y-12010014D01*
X13544474Y-12010014D02*
X13563521Y-12000490D01*
X13563521Y-12000490D02*
X13592093Y-12000490D01*
X13592093Y-12000490D02*
X13611140Y-12010014D01*
X13687331Y-12210014D02*
X13696855Y-12200490D01*
X13696855Y-12200490D02*
X13715902Y-12171919D01*
X13715902Y-12171919D02*
X13725426Y-12152871D01*
X13725426Y-12152871D02*
X13734950Y-12124300D01*
X13734950Y-12124300D02*
X13744474Y-12076680D01*
X13744474Y-12076680D02*
X13744474Y-12038585D01*
X13744474Y-12038585D02*
X13734950Y-11990966D01*
X13734950Y-11990966D02*
X13725426Y-11962395D01*
X13725426Y-11962395D02*
X13715902Y-11943347D01*
X13715902Y-11943347D02*
X13696855Y-11914776D01*
X13696855Y-11914776D02*
X13687331Y-11905252D01*
D12*
X8721792Y-12306340D02*
G75*
G02*
X8631792Y-12306340I-45000J0D01*
G01*
X8631792Y-12306340D02*
G75*
G02*
X8721792Y-12306340I45000J0D01*
G01*
D11*
X9020664Y-12197823D02*
X9039712Y-12197823D01*
X9039712Y-12197823D02*
X9058759Y-12207347D01*
X9058759Y-12207347D02*
X9068283Y-12216871D01*
X9068283Y-12216871D02*
X9077807Y-12235919D01*
X9077807Y-12235919D02*
X9087331Y-12274014D01*
X9087331Y-12274014D02*
X9087331Y-12321633D01*
X9087331Y-12321633D02*
X9077807Y-12359728D01*
X9077807Y-12359728D02*
X9068283Y-12378776D01*
X9068283Y-12378776D02*
X9058759Y-12388300D01*
X9058759Y-12388300D02*
X9039712Y-12397823D01*
X9039712Y-12397823D02*
X9020664Y-12397823D01*
X9020664Y-12397823D02*
X9001616Y-12388300D01*
X9001616Y-12388300D02*
X8992092Y-12378776D01*
X8992092Y-12378776D02*
X8982569Y-12359728D01*
X8982569Y-12359728D02*
X8973045Y-12321633D01*
X8973045Y-12321633D02*
X8973045Y-12274014D01*
X8973045Y-12274014D02*
X8982569Y-12235919D01*
X8982569Y-12235919D02*
X8992092Y-12216871D01*
X8992092Y-12216871D02*
X9001616Y-12207347D01*
X9001616Y-12207347D02*
X9020664Y-12197823D01*
X9173045Y-12378776D02*
X9182569Y-12388300D01*
X9182569Y-12388300D02*
X9173045Y-12397823D01*
X9173045Y-12397823D02*
X9163521Y-12388300D01*
X9163521Y-12388300D02*
X9173045Y-12378776D01*
X9173045Y-12378776D02*
X9173045Y-12397823D01*
X9277807Y-12397823D02*
X9315902Y-12397823D01*
X9315902Y-12397823D02*
X9334950Y-12388300D01*
X9334950Y-12388300D02*
X9344473Y-12378776D01*
X9344473Y-12378776D02*
X9363521Y-12350204D01*
X9363521Y-12350204D02*
X9373045Y-12312109D01*
X9373045Y-12312109D02*
X9373045Y-12235919D01*
X9373045Y-12235919D02*
X9363521Y-12216871D01*
X9363521Y-12216871D02*
X9353997Y-12207347D01*
X9353997Y-12207347D02*
X9334950Y-12197823D01*
X9334950Y-12197823D02*
X9296854Y-12197823D01*
X9296854Y-12197823D02*
X9277807Y-12207347D01*
X9277807Y-12207347D02*
X9268283Y-12216871D01*
X9268283Y-12216871D02*
X9258759Y-12235919D01*
X9258759Y-12235919D02*
X9258759Y-12283538D01*
X9258759Y-12283538D02*
X9268283Y-12302585D01*
X9268283Y-12302585D02*
X9277807Y-12312109D01*
X9277807Y-12312109D02*
X9296854Y-12321633D01*
X9296854Y-12321633D02*
X9334950Y-12321633D01*
X9334950Y-12321633D02*
X9353997Y-12312109D01*
X9353997Y-12312109D02*
X9363521Y-12302585D01*
X9363521Y-12302585D02*
X9373045Y-12283538D01*
X9496854Y-12197823D02*
X9515902Y-12197823D01*
X9515902Y-12197823D02*
X9534950Y-12207347D01*
X9534950Y-12207347D02*
X9544473Y-12216871D01*
X9544473Y-12216871D02*
X9553997Y-12235919D01*
X9553997Y-12235919D02*
X9563521Y-12274014D01*
X9563521Y-12274014D02*
X9563521Y-12321633D01*
X9563521Y-12321633D02*
X9553997Y-12359728D01*
X9553997Y-12359728D02*
X9544473Y-12378776D01*
X9544473Y-12378776D02*
X9534950Y-12388300D01*
X9534950Y-12388300D02*
X9515902Y-12397823D01*
X9515902Y-12397823D02*
X9496854Y-12397823D01*
X9496854Y-12397823D02*
X9477807Y-12388300D01*
X9477807Y-12388300D02*
X9468283Y-12378776D01*
X9468283Y-12378776D02*
X9458759Y-12359728D01*
X9458759Y-12359728D02*
X9449235Y-12321633D01*
X9449235Y-12321633D02*
X9449235Y-12274014D01*
X9449235Y-12274014D02*
X9458759Y-12235919D01*
X9458759Y-12235919D02*
X9468283Y-12216871D01*
X9468283Y-12216871D02*
X9477807Y-12207347D01*
X9477807Y-12207347D02*
X9496854Y-12197823D01*
X9687331Y-12197823D02*
X9706378Y-12197823D01*
X9706378Y-12197823D02*
X9725426Y-12207347D01*
X9725426Y-12207347D02*
X9734950Y-12216871D01*
X9734950Y-12216871D02*
X9744473Y-12235919D01*
X9744473Y-12235919D02*
X9753997Y-12274014D01*
X9753997Y-12274014D02*
X9753997Y-12321633D01*
X9753997Y-12321633D02*
X9744473Y-12359728D01*
X9744473Y-12359728D02*
X9734950Y-12378776D01*
X9734950Y-12378776D02*
X9725426Y-12388300D01*
X9725426Y-12388300D02*
X9706378Y-12397823D01*
X9706378Y-12397823D02*
X9687331Y-12397823D01*
X9687331Y-12397823D02*
X9668283Y-12388300D01*
X9668283Y-12388300D02*
X9658759Y-12378776D01*
X9658759Y-12378776D02*
X9649235Y-12359728D01*
X9649235Y-12359728D02*
X9639712Y-12321633D01*
X9639712Y-12321633D02*
X9639712Y-12274014D01*
X9639712Y-12274014D02*
X9649235Y-12235919D01*
X9649235Y-12235919D02*
X9658759Y-12216871D01*
X9658759Y-12216871D02*
X9668283Y-12207347D01*
X9668283Y-12207347D02*
X9687331Y-12197823D01*
X9839712Y-12397823D02*
X9839712Y-12264490D01*
X9839712Y-12283538D02*
X9849235Y-12274014D01*
X9849235Y-12274014D02*
X9868283Y-12264490D01*
X9868283Y-12264490D02*
X9896854Y-12264490D01*
X9896854Y-12264490D02*
X9915902Y-12274014D01*
X9915902Y-12274014D02*
X9925426Y-12293061D01*
X9925426Y-12293061D02*
X9925426Y-12397823D01*
X9925426Y-12293061D02*
X9934950Y-12274014D01*
X9934950Y-12274014D02*
X9953997Y-12264490D01*
X9953997Y-12264490D02*
X9982569Y-12264490D01*
X9982569Y-12264490D02*
X10001616Y-12274014D01*
X10001616Y-12274014D02*
X10011140Y-12293061D01*
X10011140Y-12293061D02*
X10011140Y-12397823D01*
X10106378Y-12397823D02*
X10106378Y-12264490D01*
X10106378Y-12283538D02*
X10115902Y-12274014D01*
X10115902Y-12274014D02*
X10134950Y-12264490D01*
X10134950Y-12264490D02*
X10163521Y-12264490D01*
X10163521Y-12264490D02*
X10182569Y-12274014D01*
X10182569Y-12274014D02*
X10192093Y-12293061D01*
X10192093Y-12293061D02*
X10192093Y-12397823D01*
X10192093Y-12293061D02*
X10201616Y-12274014D01*
X10201616Y-12274014D02*
X10220664Y-12264490D01*
X10220664Y-12264490D02*
X10249235Y-12264490D01*
X10249235Y-12264490D02*
X10268283Y-12274014D01*
X10268283Y-12274014D02*
X10277807Y-12293061D01*
X10277807Y-12293061D02*
X10277807Y-12397823D01*
X10668283Y-12188300D02*
X10496855Y-12445442D01*
X10925426Y-12197823D02*
X10944474Y-12197823D01*
X10944474Y-12197823D02*
X10963521Y-12207347D01*
X10963521Y-12207347D02*
X10973045Y-12216871D01*
X10973045Y-12216871D02*
X10982569Y-12235919D01*
X10982569Y-12235919D02*
X10992093Y-12274014D01*
X10992093Y-12274014D02*
X10992093Y-12321633D01*
X10992093Y-12321633D02*
X10982569Y-12359728D01*
X10982569Y-12359728D02*
X10973045Y-12378776D01*
X10973045Y-12378776D02*
X10963521Y-12388300D01*
X10963521Y-12388300D02*
X10944474Y-12397823D01*
X10944474Y-12397823D02*
X10925426Y-12397823D01*
X10925426Y-12397823D02*
X10906378Y-12388300D01*
X10906378Y-12388300D02*
X10896855Y-12378776D01*
X10896855Y-12378776D02*
X10887331Y-12359728D01*
X10887331Y-12359728D02*
X10877807Y-12321633D01*
X10877807Y-12321633D02*
X10877807Y-12274014D01*
X10877807Y-12274014D02*
X10887331Y-12235919D01*
X10887331Y-12235919D02*
X10896855Y-12216871D01*
X10896855Y-12216871D02*
X10906378Y-12207347D01*
X10906378Y-12207347D02*
X10925426Y-12197823D01*
X11077807Y-12378776D02*
X11087331Y-12388300D01*
X11087331Y-12388300D02*
X11077807Y-12397823D01*
X11077807Y-12397823D02*
X11068283Y-12388300D01*
X11068283Y-12388300D02*
X11077807Y-12378776D01*
X11077807Y-12378776D02*
X11077807Y-12397823D01*
X11211140Y-12197823D02*
X11230188Y-12197823D01*
X11230188Y-12197823D02*
X11249235Y-12207347D01*
X11249235Y-12207347D02*
X11258759Y-12216871D01*
X11258759Y-12216871D02*
X11268283Y-12235919D01*
X11268283Y-12235919D02*
X11277807Y-12274014D01*
X11277807Y-12274014D02*
X11277807Y-12321633D01*
X11277807Y-12321633D02*
X11268283Y-12359728D01*
X11268283Y-12359728D02*
X11258759Y-12378776D01*
X11258759Y-12378776D02*
X11249235Y-12388300D01*
X11249235Y-12388300D02*
X11230188Y-12397823D01*
X11230188Y-12397823D02*
X11211140Y-12397823D01*
X11211140Y-12397823D02*
X11192093Y-12388300D01*
X11192093Y-12388300D02*
X11182569Y-12378776D01*
X11182569Y-12378776D02*
X11173045Y-12359728D01*
X11173045Y-12359728D02*
X11163521Y-12321633D01*
X11163521Y-12321633D02*
X11163521Y-12274014D01*
X11163521Y-12274014D02*
X11173045Y-12235919D01*
X11173045Y-12235919D02*
X11182569Y-12216871D01*
X11182569Y-12216871D02*
X11192093Y-12207347D01*
X11192093Y-12207347D02*
X11211140Y-12197823D01*
X11344474Y-12197823D02*
X11468283Y-12197823D01*
X11468283Y-12197823D02*
X11401616Y-12274014D01*
X11401616Y-12274014D02*
X11430188Y-12274014D01*
X11430188Y-12274014D02*
X11449235Y-12283538D01*
X11449235Y-12283538D02*
X11458759Y-12293061D01*
X11458759Y-12293061D02*
X11468283Y-12312109D01*
X11468283Y-12312109D02*
X11468283Y-12359728D01*
X11468283Y-12359728D02*
X11458759Y-12378776D01*
X11458759Y-12378776D02*
X11449235Y-12388300D01*
X11449235Y-12388300D02*
X11430188Y-12397823D01*
X11430188Y-12397823D02*
X11373045Y-12397823D01*
X11373045Y-12397823D02*
X11353997Y-12388300D01*
X11353997Y-12388300D02*
X11344474Y-12378776D01*
X11649235Y-12197823D02*
X11553997Y-12197823D01*
X11553997Y-12197823D02*
X11544474Y-12293061D01*
X11544474Y-12293061D02*
X11553997Y-12283538D01*
X11553997Y-12283538D02*
X11573045Y-12274014D01*
X11573045Y-12274014D02*
X11620664Y-12274014D01*
X11620664Y-12274014D02*
X11639712Y-12283538D01*
X11639712Y-12283538D02*
X11649235Y-12293061D01*
X11649235Y-12293061D02*
X11658759Y-12312109D01*
X11658759Y-12312109D02*
X11658759Y-12359728D01*
X11658759Y-12359728D02*
X11649235Y-12378776D01*
X11649235Y-12378776D02*
X11639712Y-12388300D01*
X11639712Y-12388300D02*
X11620664Y-12397823D01*
X11620664Y-12397823D02*
X11573045Y-12397823D01*
X11573045Y-12397823D02*
X11553997Y-12388300D01*
X11553997Y-12388300D02*
X11544474Y-12378776D01*
X11830188Y-12264490D02*
X11830188Y-12397823D01*
X11782569Y-12188300D02*
X11734950Y-12331157D01*
X11734950Y-12331157D02*
X11858759Y-12331157D01*
X11925426Y-12197823D02*
X11925426Y-12235919D01*
X12001616Y-12197823D02*
X12001616Y-12235919D01*
X12296855Y-12474014D02*
X12287331Y-12464490D01*
X12287331Y-12464490D02*
X12268283Y-12435919D01*
X12268283Y-12435919D02*
X12258759Y-12416871D01*
X12258759Y-12416871D02*
X12249236Y-12388300D01*
X12249236Y-12388300D02*
X12239712Y-12340680D01*
X12239712Y-12340680D02*
X12239712Y-12302585D01*
X12239712Y-12302585D02*
X12249236Y-12254966D01*
X12249236Y-12254966D02*
X12258759Y-12226395D01*
X12258759Y-12226395D02*
X12268283Y-12207347D01*
X12268283Y-12207347D02*
X12287331Y-12178776D01*
X12287331Y-12178776D02*
X12296855Y-12169252D01*
X12458759Y-12264490D02*
X12458759Y-12397823D01*
X12411140Y-12188300D02*
X12363521Y-12331157D01*
X12363521Y-12331157D02*
X12487331Y-12331157D01*
X12592093Y-12283538D02*
X12573045Y-12274014D01*
X12573045Y-12274014D02*
X12563521Y-12264490D01*
X12563521Y-12264490D02*
X12553997Y-12245442D01*
X12553997Y-12245442D02*
X12553997Y-12235919D01*
X12553997Y-12235919D02*
X12563521Y-12216871D01*
X12563521Y-12216871D02*
X12573045Y-12207347D01*
X12573045Y-12207347D02*
X12592093Y-12197823D01*
X12592093Y-12197823D02*
X12630188Y-12197823D01*
X12630188Y-12197823D02*
X12649236Y-12207347D01*
X12649236Y-12207347D02*
X12658759Y-12216871D01*
X12658759Y-12216871D02*
X12668283Y-12235919D01*
X12668283Y-12235919D02*
X12668283Y-12245442D01*
X12668283Y-12245442D02*
X12658759Y-12264490D01*
X12658759Y-12264490D02*
X12649236Y-12274014D01*
X12649236Y-12274014D02*
X12630188Y-12283538D01*
X12630188Y-12283538D02*
X12592093Y-12283538D01*
X12592093Y-12283538D02*
X12573045Y-12293061D01*
X12573045Y-12293061D02*
X12563521Y-12302585D01*
X12563521Y-12302585D02*
X12553997Y-12321633D01*
X12553997Y-12321633D02*
X12553997Y-12359728D01*
X12553997Y-12359728D02*
X12563521Y-12378776D01*
X12563521Y-12378776D02*
X12573045Y-12388300D01*
X12573045Y-12388300D02*
X12592093Y-12397823D01*
X12592093Y-12397823D02*
X12630188Y-12397823D01*
X12630188Y-12397823D02*
X12649236Y-12388300D01*
X12649236Y-12388300D02*
X12658759Y-12378776D01*
X12658759Y-12378776D02*
X12668283Y-12359728D01*
X12668283Y-12359728D02*
X12668283Y-12321633D01*
X12668283Y-12321633D02*
X12658759Y-12302585D01*
X12658759Y-12302585D02*
X12649236Y-12293061D01*
X12649236Y-12293061D02*
X12630188Y-12283538D01*
X12906378Y-12397823D02*
X12906378Y-12197823D01*
X12992093Y-12397823D02*
X12992093Y-12293061D01*
X12992093Y-12293061D02*
X12982569Y-12274014D01*
X12982569Y-12274014D02*
X12963521Y-12264490D01*
X12963521Y-12264490D02*
X12934950Y-12264490D01*
X12934950Y-12264490D02*
X12915902Y-12274014D01*
X12915902Y-12274014D02*
X12906378Y-12283538D01*
X13115902Y-12397823D02*
X13096855Y-12388300D01*
X13096855Y-12388300D02*
X13087331Y-12378776D01*
X13087331Y-12378776D02*
X13077807Y-12359728D01*
X13077807Y-12359728D02*
X13077807Y-12302585D01*
X13077807Y-12302585D02*
X13087331Y-12283538D01*
X13087331Y-12283538D02*
X13096855Y-12274014D01*
X13096855Y-12274014D02*
X13115902Y-12264490D01*
X13115902Y-12264490D02*
X13144474Y-12264490D01*
X13144474Y-12264490D02*
X13163521Y-12274014D01*
X13163521Y-12274014D02*
X13173045Y-12283538D01*
X13173045Y-12283538D02*
X13182569Y-12302585D01*
X13182569Y-12302585D02*
X13182569Y-12359728D01*
X13182569Y-12359728D02*
X13173045Y-12378776D01*
X13173045Y-12378776D02*
X13163521Y-12388300D01*
X13163521Y-12388300D02*
X13144474Y-12397823D01*
X13144474Y-12397823D02*
X13115902Y-12397823D01*
X13296855Y-12397823D02*
X13277807Y-12388300D01*
X13277807Y-12388300D02*
X13268283Y-12369252D01*
X13268283Y-12369252D02*
X13268283Y-12197823D01*
X13449236Y-12388300D02*
X13430188Y-12397823D01*
X13430188Y-12397823D02*
X13392093Y-12397823D01*
X13392093Y-12397823D02*
X13373045Y-12388300D01*
X13373045Y-12388300D02*
X13363521Y-12369252D01*
X13363521Y-12369252D02*
X13363521Y-12293061D01*
X13363521Y-12293061D02*
X13373045Y-12274014D01*
X13373045Y-12274014D02*
X13392093Y-12264490D01*
X13392093Y-12264490D02*
X13430188Y-12264490D01*
X13430188Y-12264490D02*
X13449236Y-12274014D01*
X13449236Y-12274014D02*
X13458759Y-12293061D01*
X13458759Y-12293061D02*
X13458759Y-12312109D01*
X13458759Y-12312109D02*
X13363521Y-12331157D01*
X13534950Y-12388300D02*
X13553998Y-12397823D01*
X13553998Y-12397823D02*
X13592093Y-12397823D01*
X13592093Y-12397823D02*
X13611140Y-12388300D01*
X13611140Y-12388300D02*
X13620664Y-12369252D01*
X13620664Y-12369252D02*
X13620664Y-12359728D01*
X13620664Y-12359728D02*
X13611140Y-12340680D01*
X13611140Y-12340680D02*
X13592093Y-12331157D01*
X13592093Y-12331157D02*
X13563521Y-12331157D01*
X13563521Y-12331157D02*
X13544474Y-12321633D01*
X13544474Y-12321633D02*
X13534950Y-12302585D01*
X13534950Y-12302585D02*
X13534950Y-12293061D01*
X13534950Y-12293061D02*
X13544474Y-12274014D01*
X13544474Y-12274014D02*
X13563521Y-12264490D01*
X13563521Y-12264490D02*
X13592093Y-12264490D01*
X13592093Y-12264490D02*
X13611140Y-12274014D01*
X13687331Y-12474014D02*
X13696855Y-12464490D01*
X13696855Y-12464490D02*
X13715902Y-12435919D01*
X13715902Y-12435919D02*
X13725426Y-12416871D01*
X13725426Y-12416871D02*
X13734950Y-12388300D01*
X13734950Y-12388300D02*
X13744474Y-12340680D01*
X13744474Y-12340680D02*
X13744474Y-12302585D01*
X13744474Y-12302585D02*
X13734950Y-12254966D01*
X13734950Y-12254966D02*
X13725426Y-12226395D01*
X13725426Y-12226395D02*
X13715902Y-12207347D01*
X13715902Y-12207347D02*
X13696855Y-12178776D01*
X13696855Y-12178776D02*
X13687331Y-12169252D01*
M02*
