M48
; DRILL file {KiCad 8.0.1} date 2024-07-20T21:14:01+0100
; FORMAT={-:-/ absolute / metric / decimal}
; #@! TF.CreationDate,2024-07-20T21:14:01+01:00
; #@! TF.GenerationSoftware,Kicad,Pcbnew,8.0.1
; #@! TF.FileFunction,Plated,1,2,PTH
FMAT,2
METRIC
; #@! TA.AperFunction,Plated,PTH,ComponentDrill
T1C0.800
; #@! TA.AperFunction,Plated,PTH,ComponentDrill
T2C0.900
%
G90
G05
T1
X118.216Y-100.68
X118.216Y-104.97
X120.376Y-100.68
X120.376Y-104.97
X122.536Y-100.68
X122.536Y-104.97
X124.696Y-100.68
X124.696Y-104.97
X126.856Y-100.68
X126.856Y-104.97
X129.016Y-100.68
X129.016Y-104.97
X131.176Y-100.68
X131.176Y-104.97
X133.336Y-100.68
X133.336Y-104.97
X135.496Y-100.68
X135.496Y-104.97
X137.656Y-100.68
X137.656Y-104.97
X139.816Y-100.68
X139.816Y-104.97
X141.976Y-100.68
X141.976Y-104.97
X144.136Y-100.68
X144.136Y-104.97
X146.296Y-100.68
X146.296Y-104.97
X148.456Y-100.68
X148.456Y-104.97
X150.616Y-100.68
X150.616Y-104.97
X152.776Y-100.68
X152.776Y-104.97
X154.936Y-100.68
X154.936Y-104.97
X157.096Y-100.68
X157.096Y-104.97
X159.256Y-100.68
X159.256Y-104.97
X161.416Y-100.68
X161.416Y-104.97
X163.576Y-100.68
X163.576Y-104.97
X165.736Y-100.68
X165.736Y-104.97
X167.896Y-100.68
X167.896Y-104.97
X170.056Y-100.68
X170.056Y-104.97
T2
X99.871Y-83.229
X101.141Y-80.689
X102.411Y-83.229
X103.681Y-80.689
X104.951Y-83.229
X106.221Y-80.689
X107.491Y-83.229
X108.761Y-80.689
X115.981Y-83.229
X117.251Y-80.689
X118.521Y-83.229
X119.791Y-80.689
X121.061Y-83.229
X122.331Y-80.689
X123.601Y-83.229
X124.871Y-80.689
X132.091Y-83.229
X133.361Y-80.689
X134.631Y-83.229
X135.901Y-80.689
X137.171Y-83.229
X138.441Y-80.689
X139.711Y-83.229
X140.981Y-80.689
X148.201Y-83.229
X149.471Y-80.689
X150.741Y-83.229
X152.011Y-80.689
X153.281Y-83.229
X154.551Y-80.689
X155.821Y-83.229
X157.091Y-80.689
X164.311Y-83.229
X165.581Y-80.689
X166.851Y-83.229
X168.121Y-80.689
X169.391Y-83.229
X170.661Y-80.689
X171.931Y-83.229
X173.201Y-80.689
X180.421Y-83.229
X181.691Y-80.689
X182.961Y-83.229
X184.231Y-80.689
X185.501Y-83.229
X186.771Y-80.689
X188.041Y-83.229
X189.311Y-80.689
M30
