G04 #@! TF.GenerationSoftware,KiCad,Pcbnew,8.0.1*
G04 #@! TF.CreationDate,2024-08-12T23:31:38+01:00*
G04 #@! TF.ProjectId,MICRO_TRUNK_6_MAIN,4d494352-4f5f-4545-9255-4e4b5f365f4d,rev?*
G04 #@! TF.SameCoordinates,Original*
G04 #@! TF.FileFunction,Copper,L2,Bot*
G04 #@! TF.FilePolarity,Positive*
%FSLAX46Y46*%
G04 Gerber Fmt 4.6, Leading zero omitted, Abs format (unit mm)*
G04 Created by KiCad (PCBNEW 8.0.1) date 2024-08-12 23:31:38*
%MOMM*%
%LPD*%
G01*
G04 APERTURE LIST*
G04 #@! TA.AperFunction,ComponentPad*
%ADD10C,1.600000*%
G04 #@! TD*
G04 #@! TA.AperFunction,ComponentPad*
%ADD11C,1.500000*%
G04 #@! TD*
G04 #@! TA.AperFunction,Conductor*
%ADD12C,0.200000*%
G04 #@! TD*
G04 APERTURE END LIST*
D10*
X132091116Y-83228957D03*
X133361113Y-80688964D03*
X134631117Y-83228957D03*
X135901114Y-80688964D03*
X137171118Y-83228957D03*
X138441115Y-80688964D03*
X139711119Y-83228957D03*
X140981120Y-80688964D03*
D11*
X118216119Y-100679962D03*
X120376119Y-100679962D03*
X122536119Y-100679962D03*
X124696119Y-100679962D03*
X126856119Y-100679962D03*
X129016119Y-100679962D03*
X131176119Y-100679962D03*
X133336119Y-100679962D03*
X135496119Y-100679962D03*
X137656119Y-100679962D03*
X139816119Y-100679962D03*
X141976119Y-100679962D03*
X144136119Y-100679962D03*
X146296119Y-100679962D03*
X148456119Y-100679962D03*
X150616119Y-100679962D03*
X152776119Y-100679962D03*
X154936119Y-100679962D03*
X157096119Y-100679962D03*
X159256119Y-100679962D03*
X161416119Y-100679962D03*
X163576119Y-100679962D03*
X165736119Y-100679962D03*
X167896119Y-100679962D03*
X170056119Y-100679962D03*
X118216119Y-104969962D03*
X120376119Y-104969962D03*
X122536119Y-104969962D03*
X124696119Y-104969962D03*
X126856119Y-104969962D03*
X129016119Y-104969962D03*
X131176119Y-104969962D03*
X133336119Y-104969962D03*
X135496119Y-104969962D03*
X137656119Y-104969962D03*
X139816119Y-104969962D03*
X141976119Y-104969962D03*
X144136119Y-104969962D03*
X146296119Y-104969962D03*
X148456119Y-104969962D03*
X150616119Y-104969962D03*
X152776119Y-104969962D03*
X154936119Y-104969962D03*
X157096119Y-104969962D03*
X159256119Y-104969962D03*
X161416119Y-104969962D03*
X163576119Y-104969962D03*
X165736119Y-104969962D03*
X167896119Y-104969962D03*
X170056119Y-104969962D03*
D10*
X180421119Y-83228957D03*
X181691116Y-80688964D03*
X182961120Y-83228957D03*
X184231117Y-80688964D03*
X185501121Y-83228957D03*
X186771118Y-80688964D03*
X188041122Y-83228957D03*
X189311123Y-80688964D03*
X164311116Y-83228957D03*
X165581113Y-80688964D03*
X166851117Y-83228957D03*
X168121114Y-80688964D03*
X169391118Y-83228957D03*
X170661115Y-80688964D03*
X171931119Y-83228957D03*
X173201120Y-80688964D03*
X115981116Y-83228957D03*
X117251113Y-80688964D03*
X118521117Y-83228957D03*
X119791114Y-80688964D03*
X121061118Y-83228957D03*
X122331115Y-80688964D03*
X123601119Y-83228957D03*
X124871120Y-80688964D03*
X148201116Y-83228957D03*
X149471113Y-80688964D03*
X150741117Y-83228957D03*
X152011114Y-80688964D03*
X153281118Y-83228957D03*
X154551115Y-80688964D03*
X155821119Y-83228957D03*
X157091120Y-80688964D03*
X99871116Y-83228957D03*
X101141113Y-80688964D03*
X102411117Y-83228957D03*
X103681114Y-80688964D03*
X104951118Y-83228957D03*
X106221115Y-80688964D03*
X107491119Y-83228957D03*
X108761120Y-80688964D03*
D12*
X117110937Y-95824962D02*
X119280937Y-97994962D01*
X119280937Y-103905144D02*
X118216119Y-104969962D01*
X104890937Y-83788956D02*
X104890937Y-89253590D01*
X105450936Y-83228957D02*
X104890937Y-83788956D01*
X119280937Y-103905144D02*
X119280937Y-97994962D01*
X104890937Y-89253590D02*
X111462309Y-95824962D01*
X111462309Y-95824962D02*
X117110937Y-95824962D01*
X118216119Y-104969962D02*
X118715937Y-104969962D01*
X111130937Y-96624962D02*
X114690937Y-96624962D01*
X102411117Y-87905142D02*
X111130937Y-96624962D01*
X120130937Y-106264962D02*
X120376119Y-106019780D01*
X102411117Y-83228957D02*
X102411117Y-87905142D01*
X116990937Y-105754962D02*
X117500937Y-106264962D01*
X117500937Y-106264962D02*
X120130937Y-106264962D01*
X116990937Y-98924962D02*
X116990937Y-105754962D01*
X114690937Y-96624962D02*
X116990937Y-98924962D01*
X120376119Y-106019780D02*
X120376119Y-104969962D01*
X118230937Y-100665144D02*
X118216119Y-100679962D01*
X118216119Y-99149120D02*
X118216119Y-100679962D01*
X103681114Y-80688964D02*
X103681114Y-88609453D01*
X111296623Y-96224962D02*
X115321597Y-96224962D01*
X118230937Y-99134302D02*
X118216119Y-99149120D01*
X103650937Y-81218959D02*
X104180932Y-80688964D01*
X103681114Y-88609453D02*
X111296623Y-96224962D01*
X115321597Y-96224962D02*
X118230937Y-99134302D01*
X106221115Y-80688964D02*
X106221115Y-90018082D01*
X120376119Y-97150144D02*
X120376119Y-100679962D01*
X118650937Y-95424962D02*
X120376119Y-97150144D01*
X111627995Y-95424962D02*
X118650937Y-95424962D01*
X106720933Y-80688964D02*
X106150937Y-81258960D01*
X106221115Y-90018082D02*
X111627995Y-95424962D01*
X126856119Y-96939780D02*
X126856119Y-100679962D01*
X120290932Y-80688964D02*
X119740937Y-81238959D01*
X119720937Y-80759141D02*
X119720937Y-89119277D01*
X126860937Y-96934962D02*
X126856119Y-96939780D01*
X119791114Y-80688964D02*
X119720937Y-80759141D01*
X126860937Y-96259277D02*
X126860937Y-96934962D01*
X119720937Y-89119277D02*
X126860937Y-96259277D01*
X129016119Y-97160144D02*
X129016119Y-100679962D01*
X122331115Y-90475140D02*
X129016119Y-97160144D01*
X122331115Y-80688964D02*
X122331115Y-90475140D01*
X122830933Y-80688964D02*
X122313237Y-81206660D01*
X127781119Y-106204962D02*
X129016119Y-104969962D01*
X125761004Y-95725029D02*
X125761004Y-105496062D01*
X118521117Y-83228957D02*
X118521117Y-88485142D01*
X118521117Y-88485142D02*
X125761004Y-95725029D01*
X126469904Y-106204962D02*
X127781119Y-106204962D01*
X118550937Y-83698955D02*
X119020935Y-83228957D01*
X125761004Y-105496062D02*
X126469904Y-106204962D01*
X127924496Y-103901585D02*
X126856119Y-104969962D01*
X127924496Y-96757151D02*
X127924496Y-103901585D01*
X121061118Y-89893773D02*
X127924496Y-96757151D01*
X121061118Y-83228957D02*
X121061118Y-89893773D01*
X136580937Y-86487904D02*
X137171118Y-85897723D01*
X137171118Y-85897723D02*
X137171118Y-83228957D01*
X135496119Y-104969962D02*
X135995937Y-104969962D01*
X135995937Y-104969962D02*
X136580937Y-104384962D01*
X137010937Y-83888956D02*
X137670936Y-83228957D01*
X136580937Y-104384962D02*
X136580937Y-86487904D01*
X134631117Y-83228957D02*
X134420937Y-83439137D01*
X134420937Y-83439137D02*
X134420937Y-105414962D01*
X136481119Y-106144962D02*
X137656119Y-104969962D01*
X134420937Y-105414962D02*
X135150937Y-106144962D01*
X134395485Y-83964407D02*
X135130935Y-83228957D01*
X135150937Y-106144962D02*
X136481119Y-106144962D01*
X137656119Y-100679962D02*
X137656119Y-85978408D01*
X137656119Y-85978408D02*
X138441115Y-85193412D01*
X138441115Y-85193412D02*
X138441115Y-80688964D01*
X138470937Y-81158960D02*
X138940933Y-80688964D01*
X138760937Y-85439276D02*
X138760937Y-101754780D01*
X139711119Y-84489094D02*
X138760937Y-85439276D01*
X139711119Y-83228957D02*
X139711119Y-84489094D01*
X138760937Y-101754780D02*
X141976119Y-104969962D01*
X140981120Y-80688964D02*
X140981120Y-85474779D01*
X139350937Y-87104962D02*
X139350937Y-98054780D01*
X139350937Y-98054780D02*
X141976119Y-100679962D01*
X140981120Y-85474779D02*
X139350937Y-87104962D01*
X135496119Y-100679962D02*
X135460937Y-100644780D01*
X135910937Y-81178959D02*
X136400932Y-80688964D01*
X135901114Y-86602042D02*
X135901114Y-80688964D01*
X135900937Y-100584962D02*
X135910937Y-100594962D01*
X135460937Y-100644780D02*
X135460937Y-87042219D01*
X135460937Y-87042219D02*
X135901114Y-86602042D01*
X151570937Y-85954962D02*
X151570937Y-92640647D01*
X149471113Y-83855138D02*
X151570937Y-85954962D01*
X148456119Y-95755465D02*
X148456119Y-100679962D01*
X149471113Y-80688964D02*
X149471113Y-83855138D01*
X149500937Y-81158958D02*
X149970931Y-80688964D01*
X151570937Y-92640647D02*
X148456119Y-95755465D01*
X157090937Y-84314962D02*
X157090937Y-84474962D01*
X150616119Y-99699780D02*
X150616119Y-100679962D01*
X154910937Y-86654962D02*
X154910937Y-95404962D01*
X157091120Y-80688964D02*
X157091120Y-84314779D01*
X157091120Y-84314779D02*
X157090937Y-84314962D01*
X154910937Y-95404962D02*
X150616119Y-99699780D01*
X157090937Y-84474962D02*
X154910937Y-86654962D01*
X149547435Y-105888464D02*
X149090937Y-106344962D01*
X149547435Y-95229834D02*
X149547435Y-105888464D01*
X150741117Y-83228957D02*
X152040934Y-84528774D01*
X152040934Y-84528774D02*
X152040934Y-92736335D01*
X152040934Y-92736335D02*
X149547435Y-95229834D01*
X147671119Y-106344962D02*
X146296119Y-104969962D01*
X149090937Y-106344962D02*
X147671119Y-106344962D01*
X151167121Y-86194962D02*
X151170937Y-86194962D01*
X147390937Y-103904780D02*
X148456119Y-104969962D01*
X151170937Y-86194962D02*
X151170937Y-92474962D01*
X151170937Y-92474962D02*
X147390937Y-96254962D01*
X148201116Y-83228957D02*
X151167121Y-86194962D01*
X148700934Y-83724959D02*
X148700934Y-83228957D01*
X147390937Y-96254962D02*
X147390937Y-103904780D01*
X170320937Y-88154962D02*
X170320937Y-91784962D01*
X173201120Y-80688964D02*
X173201120Y-85274779D01*
X159256119Y-99529780D02*
X159256119Y-100679962D01*
X173201120Y-85274779D02*
X170320937Y-88154962D01*
X163600937Y-95184962D02*
X159256119Y-99529780D01*
X170320937Y-91784962D02*
X166920937Y-95184962D01*
X166920937Y-95184962D02*
X163600937Y-95184962D01*
X169067618Y-85445458D02*
X166851117Y-83228957D01*
X158180937Y-100039276D02*
X163435251Y-94784962D01*
X156221119Y-106254962D02*
X157640937Y-106254962D01*
X154936119Y-104969962D02*
X156221119Y-106254962D01*
X158180937Y-105714962D02*
X158180937Y-100039276D01*
X157640937Y-106254962D02*
X158180937Y-105714962D01*
X166755251Y-94784962D02*
X169067618Y-92472595D01*
X163435251Y-94784962D02*
X166755251Y-94784962D01*
X169067618Y-92472595D02*
X169067618Y-85445458D01*
X168590937Y-86770764D02*
X168590937Y-92383590D01*
X166589565Y-94384962D02*
X162830277Y-94384962D01*
X157096119Y-100119120D02*
X157096119Y-100679962D01*
X168590937Y-92383590D02*
X166589565Y-94384962D01*
X165581113Y-80688964D02*
X165581113Y-83760940D01*
X165581113Y-83760940D02*
X168590937Y-86770764D01*
X165648026Y-81121869D02*
X166080931Y-80688964D01*
X162830277Y-94384962D02*
X157096119Y-100119120D01*
X168190937Y-87102387D02*
X168190937Y-92217904D01*
X168184546Y-87102387D02*
X168190937Y-87102387D01*
X156042189Y-100210985D02*
X156042189Y-103916032D01*
X166423879Y-93984962D02*
X162268212Y-93984962D01*
X156042189Y-103916032D02*
X157096119Y-104969962D01*
X162268212Y-93984962D02*
X156042189Y-100210985D01*
X164311116Y-83228957D02*
X168184546Y-87102387D01*
X168190937Y-92217904D02*
X166423879Y-93984962D01*
X164810934Y-83722384D02*
X164810934Y-83228957D01*
X180421119Y-83228957D02*
X180421119Y-84360327D01*
X182660938Y-91147903D02*
X179763879Y-94044962D01*
X180421119Y-84360327D02*
X182660938Y-86600146D01*
X170670937Y-94044962D02*
X164682860Y-100033039D01*
X164682860Y-103916703D02*
X165736119Y-104969962D01*
X164682860Y-100033039D02*
X164682860Y-103916703D01*
X182660938Y-86600146D02*
X182660938Y-91147903D01*
X179763879Y-94044962D02*
X170670937Y-94044962D01*
X179929565Y-94444962D02*
X170910459Y-94444962D01*
X165736119Y-99619302D02*
X165736119Y-100679962D01*
X183060938Y-91313589D02*
X179929565Y-94444962D01*
X182190934Y-80688964D02*
X181680937Y-81198961D01*
X183060938Y-85404963D02*
X183060938Y-91313589D01*
X181691116Y-80688964D02*
X181691116Y-84035141D01*
X170910459Y-94444962D02*
X165736119Y-99619302D01*
X181691116Y-84035141D02*
X183060938Y-85404963D01*
X166810937Y-99861407D02*
X166810937Y-105604962D01*
X183761119Y-91179094D02*
X180095251Y-94844962D01*
X164791119Y-106184962D02*
X163576119Y-104969962D01*
X180095251Y-94844962D02*
X171827382Y-94844962D01*
X183761119Y-84028956D02*
X183761119Y-91179094D01*
X171827382Y-94844962D02*
X166810937Y-99861407D01*
X166230937Y-106184962D02*
X164791119Y-106184962D01*
X182961120Y-83228957D02*
X183761119Y-84028956D01*
X166810937Y-105604962D02*
X166230937Y-106184962D01*
X168990937Y-99734962D02*
X173480937Y-95244962D01*
X180260937Y-95244962D02*
X188041122Y-87464777D01*
X168990937Y-103875144D02*
X168990937Y-99734962D01*
X188041122Y-87464777D02*
X188041122Y-83228957D01*
X167896119Y-104969962D02*
X168990937Y-103875144D01*
X173480937Y-95244962D02*
X180260937Y-95244962D01*
M02*
