M48
; DRILL file {KiCad 8.0.1} date 2024-06-26T21:25:33+0100
; FORMAT={-:-/ absolute / inch / decimal}
; #@! TF.CreationDate,2024-06-26T21:25:33+01:00
; #@! TF.GenerationSoftware,Kicad,Pcbnew,8.0.1
; #@! TF.FileFunction,Plated,1,2,PTH
FMAT,2
INCH
; #@! TA.AperFunction,Plated,PTH,ComponentDrill
T1C0.0315
; #@! TA.AperFunction,Plated,PTH,ComponentDrill
T2C0.0354
%
G90
G05
T1
X5.4915Y-4.1986
X5.4915Y-4.3675
X5.5766Y-4.1986
X5.5766Y-4.3675
X5.6616Y-4.1986
X5.6616Y-4.3675
X5.7467Y-4.1986
X5.7467Y-4.3675
X5.8317Y-4.1986
X5.8317Y-4.3675
X5.9167Y-4.1986
X5.9167Y-4.3675
X6.0018Y-4.1986
X6.0018Y-4.3675
X6.0868Y-4.1986
X6.0868Y-4.3675
X6.1719Y-4.1986
X6.1719Y-4.3675
X6.2569Y-4.1986
X6.2569Y-4.3675
X6.3419Y-4.1986
X6.3419Y-4.3675
X6.427Y-4.1986
X6.427Y-4.3675
X6.512Y-4.1986
X6.512Y-4.3675
X6.597Y-4.1986
X6.597Y-4.3675
X6.6821Y-4.1986
X6.6821Y-4.3675
X6.7671Y-4.1986
X6.7671Y-4.3675
X6.8522Y-4.1986
X6.8522Y-4.3675
X6.9372Y-4.1986
X6.9372Y-4.3675
X7.0222Y-4.1986
X7.0222Y-4.3675
X7.1073Y-4.1986
X7.1073Y-4.3675
X7.1923Y-4.1986
X7.1923Y-4.3675
X7.2774Y-4.1986
X7.2774Y-4.3675
X7.3624Y-4.1986
X7.3624Y-4.3675
X7.4474Y-4.1986
X7.4474Y-4.3675
X7.5325Y-4.1986
X7.5325Y-4.3675
T2
X4.6567Y-3.5116
X4.7067Y-3.4116
X4.7567Y-3.5116
X4.8067Y-3.4116
X4.8567Y-3.5116
X4.9067Y-3.4116
X4.9567Y-3.5116
X5.0067Y-3.4116
X5.3281Y-3.5116
X5.3781Y-3.4116
X5.4281Y-3.5116
X5.4781Y-3.4116
X5.5281Y-3.5116
X5.5781Y-3.4116
X5.6281Y-3.5116
X5.6781Y-3.4116
X5.9995Y-3.5116
X6.0495Y-3.4116
X6.0995Y-3.5116
X6.1495Y-3.4116
X6.1995Y-3.5116
X6.2495Y-3.4116
X6.2995Y-3.5116
X6.3495Y-3.4116
X6.671Y-3.5116
X6.721Y-3.4116
X6.771Y-3.5116
X6.821Y-3.4116
X6.871Y-3.5116
X6.921Y-3.4116
X6.971Y-3.5116
X7.021Y-3.4116
X7.3424Y-3.5116
X7.3924Y-3.4116
X7.4424Y-3.5116
X7.4924Y-3.4116
X7.5424Y-3.5116
X7.5924Y-3.4116
X7.6424Y-3.5116
X7.6924Y-3.4116
X8.0138Y-3.5116
X8.0638Y-3.4116
X8.1138Y-3.5116
X8.1638Y-3.4116
X8.2138Y-3.5116
X8.2638Y-3.4116
X8.3138Y-3.5116
X8.3638Y-3.4116
M30
