%TF.GenerationSoftware,KiCad,Pcbnew,8.0.1*%
%TF.CreationDate,2024-06-26T21:25:31+01:00*%
%TF.ProjectId,MINI_TRUNK_6_MAIN,4d494e49-5f54-4525-954e-4b5f365f4d41,rev?*%
%TF.SameCoordinates,Original*%
%TF.FileFunction,Legend,Top*%
%TF.FilePolarity,Positive*%
%FSLAX46Y46*%
G04 Gerber Fmt 4.6, Leading zero omitted, Abs format (unit mm)*
G04 Created by KiCad (PCBNEW 8.0.1) date 2024-06-26 21:25:31*
%MOMM*%
%LPD*%
G01*
G04 APERTURE LIST*
%ADD10C,0.250000*%
%ADD11C,0.300000*%
%ADD12C,0.100000*%
%ADD13C,0.010000*%
%ADD14C,3.000000*%
%ADD15C,1.600000*%
%ADD16C,3.200000*%
%ADD17C,1.500000*%
G04 APERTURE END LIST*
D10*
X147262141Y-114768512D02*
X147262141Y-113268512D01*
X147262141Y-113982798D02*
X148119284Y-113982798D01*
X148119284Y-114768512D02*
X148119284Y-113268512D01*
X148833570Y-114768512D02*
X148833570Y-113268512D01*
X150333571Y-113339941D02*
X150190714Y-113268512D01*
X150190714Y-113268512D02*
X149976428Y-113268512D01*
X149976428Y-113268512D02*
X149762142Y-113339941D01*
X149762142Y-113339941D02*
X149619285Y-113482798D01*
X149619285Y-113482798D02*
X149547856Y-113625655D01*
X149547856Y-113625655D02*
X149476428Y-113911369D01*
X149476428Y-113911369D02*
X149476428Y-114125655D01*
X149476428Y-114125655D02*
X149547856Y-114411369D01*
X149547856Y-114411369D02*
X149619285Y-114554226D01*
X149619285Y-114554226D02*
X149762142Y-114697084D01*
X149762142Y-114697084D02*
X149976428Y-114768512D01*
X149976428Y-114768512D02*
X150119285Y-114768512D01*
X150119285Y-114768512D02*
X150333571Y-114697084D01*
X150333571Y-114697084D02*
X150404999Y-114625655D01*
X150404999Y-114625655D02*
X150404999Y-114125655D01*
X150404999Y-114125655D02*
X150119285Y-114125655D01*
X151047856Y-114768512D02*
X151047856Y-113268512D01*
X151047856Y-113982798D02*
X151904999Y-113982798D01*
X151904999Y-114768512D02*
X151904999Y-113268512D01*
X153547857Y-113268512D02*
X154047857Y-114768512D01*
X154047857Y-114768512D02*
X154547857Y-113268512D01*
X155333571Y-113268512D02*
X155619285Y-113268512D01*
X155619285Y-113268512D02*
X155762142Y-113339941D01*
X155762142Y-113339941D02*
X155904999Y-113482798D01*
X155904999Y-113482798D02*
X155976428Y-113768512D01*
X155976428Y-113768512D02*
X155976428Y-114268512D01*
X155976428Y-114268512D02*
X155904999Y-114554226D01*
X155904999Y-114554226D02*
X155762142Y-114697084D01*
X155762142Y-114697084D02*
X155619285Y-114768512D01*
X155619285Y-114768512D02*
X155333571Y-114768512D01*
X155333571Y-114768512D02*
X155190714Y-114697084D01*
X155190714Y-114697084D02*
X155047856Y-114554226D01*
X155047856Y-114554226D02*
X154976428Y-114268512D01*
X154976428Y-114268512D02*
X154976428Y-113768512D01*
X154976428Y-113768512D02*
X155047856Y-113482798D01*
X155047856Y-113482798D02*
X155190714Y-113339941D01*
X155190714Y-113339941D02*
X155333571Y-113268512D01*
X157333571Y-114768512D02*
X156619285Y-114768512D01*
X156619285Y-114768512D02*
X156619285Y-113268512D01*
X157619286Y-113268512D02*
X158476429Y-113268512D01*
X158047857Y-114768512D02*
X158047857Y-113268512D01*
X158905000Y-114339941D02*
X159619286Y-114339941D01*
X158762143Y-114768512D02*
X159262143Y-113268512D01*
X159262143Y-113268512D02*
X159762143Y-114768512D01*
X161047857Y-113339941D02*
X160905000Y-113268512D01*
X160905000Y-113268512D02*
X160690714Y-113268512D01*
X160690714Y-113268512D02*
X160476428Y-113339941D01*
X160476428Y-113339941D02*
X160333571Y-113482798D01*
X160333571Y-113482798D02*
X160262142Y-113625655D01*
X160262142Y-113625655D02*
X160190714Y-113911369D01*
X160190714Y-113911369D02*
X160190714Y-114125655D01*
X160190714Y-114125655D02*
X160262142Y-114411369D01*
X160262142Y-114411369D02*
X160333571Y-114554226D01*
X160333571Y-114554226D02*
X160476428Y-114697084D01*
X160476428Y-114697084D02*
X160690714Y-114768512D01*
X160690714Y-114768512D02*
X160833571Y-114768512D01*
X160833571Y-114768512D02*
X161047857Y-114697084D01*
X161047857Y-114697084D02*
X161119285Y-114625655D01*
X161119285Y-114625655D02*
X161119285Y-114125655D01*
X161119285Y-114125655D02*
X160833571Y-114125655D01*
X161762142Y-113982798D02*
X162262142Y-113982798D01*
X162476428Y-114768512D02*
X161762142Y-114768512D01*
X161762142Y-114768512D02*
X161762142Y-113268512D01*
X161762142Y-113268512D02*
X162476428Y-113268512D01*
X164262142Y-114197084D02*
X165405000Y-114197084D01*
X167262142Y-114768512D02*
X167262142Y-113268512D01*
X167262142Y-113268512D02*
X167619285Y-113268512D01*
X167619285Y-113268512D02*
X167833571Y-113339941D01*
X167833571Y-113339941D02*
X167976428Y-113482798D01*
X167976428Y-113482798D02*
X168047857Y-113625655D01*
X168047857Y-113625655D02*
X168119285Y-113911369D01*
X168119285Y-113911369D02*
X168119285Y-114125655D01*
X168119285Y-114125655D02*
X168047857Y-114411369D01*
X168047857Y-114411369D02*
X167976428Y-114554226D01*
X167976428Y-114554226D02*
X167833571Y-114697084D01*
X167833571Y-114697084D02*
X167619285Y-114768512D01*
X167619285Y-114768512D02*
X167262142Y-114768512D01*
X169047857Y-113268512D02*
X169333571Y-113268512D01*
X169333571Y-113268512D02*
X169476428Y-113339941D01*
X169476428Y-113339941D02*
X169619285Y-113482798D01*
X169619285Y-113482798D02*
X169690714Y-113768512D01*
X169690714Y-113768512D02*
X169690714Y-114268512D01*
X169690714Y-114268512D02*
X169619285Y-114554226D01*
X169619285Y-114554226D02*
X169476428Y-114697084D01*
X169476428Y-114697084D02*
X169333571Y-114768512D01*
X169333571Y-114768512D02*
X169047857Y-114768512D01*
X169047857Y-114768512D02*
X168905000Y-114697084D01*
X168905000Y-114697084D02*
X168762142Y-114554226D01*
X168762142Y-114554226D02*
X168690714Y-114268512D01*
X168690714Y-114268512D02*
X168690714Y-113768512D01*
X168690714Y-113768512D02*
X168762142Y-113482798D01*
X168762142Y-113482798D02*
X168905000Y-113339941D01*
X168905000Y-113339941D02*
X169047857Y-113268512D01*
X171476428Y-114768512D02*
X171476428Y-113268512D01*
X171476428Y-113268512D02*
X172333571Y-114768512D01*
X172333571Y-114768512D02*
X172333571Y-113268512D01*
X173333572Y-113268512D02*
X173619286Y-113268512D01*
X173619286Y-113268512D02*
X173762143Y-113339941D01*
X173762143Y-113339941D02*
X173905000Y-113482798D01*
X173905000Y-113482798D02*
X173976429Y-113768512D01*
X173976429Y-113768512D02*
X173976429Y-114268512D01*
X173976429Y-114268512D02*
X173905000Y-114554226D01*
X173905000Y-114554226D02*
X173762143Y-114697084D01*
X173762143Y-114697084D02*
X173619286Y-114768512D01*
X173619286Y-114768512D02*
X173333572Y-114768512D01*
X173333572Y-114768512D02*
X173190715Y-114697084D01*
X173190715Y-114697084D02*
X173047857Y-114554226D01*
X173047857Y-114554226D02*
X172976429Y-114268512D01*
X172976429Y-114268512D02*
X172976429Y-113768512D01*
X172976429Y-113768512D02*
X173047857Y-113482798D01*
X173047857Y-113482798D02*
X173190715Y-113339941D01*
X173190715Y-113339941D02*
X173333572Y-113268512D01*
X174405001Y-113268512D02*
X175262144Y-113268512D01*
X174833572Y-114768512D02*
X174833572Y-113268512D01*
X176690715Y-113268512D02*
X177547858Y-113268512D01*
X177119286Y-114768512D02*
X177119286Y-113268512D01*
X178333572Y-113268512D02*
X178619286Y-113268512D01*
X178619286Y-113268512D02*
X178762143Y-113339941D01*
X178762143Y-113339941D02*
X178905000Y-113482798D01*
X178905000Y-113482798D02*
X178976429Y-113768512D01*
X178976429Y-113768512D02*
X178976429Y-114268512D01*
X178976429Y-114268512D02*
X178905000Y-114554226D01*
X178905000Y-114554226D02*
X178762143Y-114697084D01*
X178762143Y-114697084D02*
X178619286Y-114768512D01*
X178619286Y-114768512D02*
X178333572Y-114768512D01*
X178333572Y-114768512D02*
X178190715Y-114697084D01*
X178190715Y-114697084D02*
X178047857Y-114554226D01*
X178047857Y-114554226D02*
X177976429Y-114268512D01*
X177976429Y-114268512D02*
X177976429Y-113768512D01*
X177976429Y-113768512D02*
X178047857Y-113482798D01*
X178047857Y-113482798D02*
X178190715Y-113339941D01*
X178190715Y-113339941D02*
X178333572Y-113268512D01*
X179619286Y-113268512D02*
X179619286Y-114482798D01*
X179619286Y-114482798D02*
X179690715Y-114625655D01*
X179690715Y-114625655D02*
X179762144Y-114697084D01*
X179762144Y-114697084D02*
X179905001Y-114768512D01*
X179905001Y-114768512D02*
X180190715Y-114768512D01*
X180190715Y-114768512D02*
X180333572Y-114697084D01*
X180333572Y-114697084D02*
X180405001Y-114625655D01*
X180405001Y-114625655D02*
X180476429Y-114482798D01*
X180476429Y-114482798D02*
X180476429Y-113268512D01*
X182047858Y-114625655D02*
X181976430Y-114697084D01*
X181976430Y-114697084D02*
X181762144Y-114768512D01*
X181762144Y-114768512D02*
X181619287Y-114768512D01*
X181619287Y-114768512D02*
X181405001Y-114697084D01*
X181405001Y-114697084D02*
X181262144Y-114554226D01*
X181262144Y-114554226D02*
X181190715Y-114411369D01*
X181190715Y-114411369D02*
X181119287Y-114125655D01*
X181119287Y-114125655D02*
X181119287Y-113911369D01*
X181119287Y-113911369D02*
X181190715Y-113625655D01*
X181190715Y-113625655D02*
X181262144Y-113482798D01*
X181262144Y-113482798D02*
X181405001Y-113339941D01*
X181405001Y-113339941D02*
X181619287Y-113268512D01*
X181619287Y-113268512D02*
X181762144Y-113268512D01*
X181762144Y-113268512D02*
X181976430Y-113339941D01*
X181976430Y-113339941D02*
X182047858Y-113411369D01*
X182690715Y-114768512D02*
X182690715Y-113268512D01*
X182690715Y-113982798D02*
X183547858Y-113982798D01*
X183547858Y-114768512D02*
X183547858Y-113268512D01*
X154262142Y-117183428D02*
X154262142Y-115683428D01*
X154262142Y-115683428D02*
X154762142Y-116754857D01*
X154762142Y-116754857D02*
X155262142Y-115683428D01*
X155262142Y-115683428D02*
X155262142Y-117183428D01*
X155976428Y-117183428D02*
X155976428Y-115683428D01*
X156690714Y-117183428D02*
X156690714Y-115683428D01*
X156690714Y-115683428D02*
X157547857Y-117183428D01*
X157547857Y-117183428D02*
X157547857Y-115683428D01*
X158262143Y-117183428D02*
X158262143Y-115683428D01*
X158976429Y-116612000D02*
X160119287Y-116612000D01*
X160619287Y-115683428D02*
X161476430Y-115683428D01*
X161047858Y-117183428D02*
X161047858Y-115683428D01*
X162833572Y-117183428D02*
X162333572Y-116469142D01*
X161976429Y-117183428D02*
X161976429Y-115683428D01*
X161976429Y-115683428D02*
X162547858Y-115683428D01*
X162547858Y-115683428D02*
X162690715Y-115754857D01*
X162690715Y-115754857D02*
X162762144Y-115826285D01*
X162762144Y-115826285D02*
X162833572Y-115969142D01*
X162833572Y-115969142D02*
X162833572Y-116183428D01*
X162833572Y-116183428D02*
X162762144Y-116326285D01*
X162762144Y-116326285D02*
X162690715Y-116397714D01*
X162690715Y-116397714D02*
X162547858Y-116469142D01*
X162547858Y-116469142D02*
X161976429Y-116469142D01*
X163476429Y-115683428D02*
X163476429Y-116897714D01*
X163476429Y-116897714D02*
X163547858Y-117040571D01*
X163547858Y-117040571D02*
X163619287Y-117112000D01*
X163619287Y-117112000D02*
X163762144Y-117183428D01*
X163762144Y-117183428D02*
X164047858Y-117183428D01*
X164047858Y-117183428D02*
X164190715Y-117112000D01*
X164190715Y-117112000D02*
X164262144Y-117040571D01*
X164262144Y-117040571D02*
X164333572Y-116897714D01*
X164333572Y-116897714D02*
X164333572Y-115683428D01*
X165047858Y-117183428D02*
X165047858Y-115683428D01*
X165047858Y-115683428D02*
X165905001Y-117183428D01*
X165905001Y-117183428D02*
X165905001Y-115683428D01*
X166619287Y-117183428D02*
X166619287Y-115683428D01*
X167476430Y-117183428D02*
X166833573Y-116326285D01*
X167476430Y-115683428D02*
X166619287Y-116540571D01*
X168119287Y-116612000D02*
X169262145Y-116612000D01*
X170619288Y-115683428D02*
X170333573Y-115683428D01*
X170333573Y-115683428D02*
X170190716Y-115754857D01*
X170190716Y-115754857D02*
X170119288Y-115826285D01*
X170119288Y-115826285D02*
X169976430Y-116040571D01*
X169976430Y-116040571D02*
X169905002Y-116326285D01*
X169905002Y-116326285D02*
X169905002Y-116897714D01*
X169905002Y-116897714D02*
X169976430Y-117040571D01*
X169976430Y-117040571D02*
X170047859Y-117112000D01*
X170047859Y-117112000D02*
X170190716Y-117183428D01*
X170190716Y-117183428D02*
X170476430Y-117183428D01*
X170476430Y-117183428D02*
X170619288Y-117112000D01*
X170619288Y-117112000D02*
X170690716Y-117040571D01*
X170690716Y-117040571D02*
X170762145Y-116897714D01*
X170762145Y-116897714D02*
X170762145Y-116540571D01*
X170762145Y-116540571D02*
X170690716Y-116397714D01*
X170690716Y-116397714D02*
X170619288Y-116326285D01*
X170619288Y-116326285D02*
X170476430Y-116254857D01*
X170476430Y-116254857D02*
X170190716Y-116254857D01*
X170190716Y-116254857D02*
X170047859Y-116326285D01*
X170047859Y-116326285D02*
X169976430Y-116397714D01*
X169976430Y-116397714D02*
X169905002Y-116540571D01*
X172405001Y-116183428D02*
X172762144Y-117183428D01*
X172762144Y-117183428D02*
X173119287Y-116183428D01*
X173976430Y-115683428D02*
X174119287Y-115683428D01*
X174119287Y-115683428D02*
X174262144Y-115754857D01*
X174262144Y-115754857D02*
X174333573Y-115826285D01*
X174333573Y-115826285D02*
X174405001Y-115969142D01*
X174405001Y-115969142D02*
X174476430Y-116254857D01*
X174476430Y-116254857D02*
X174476430Y-116612000D01*
X174476430Y-116612000D02*
X174405001Y-116897714D01*
X174405001Y-116897714D02*
X174333573Y-117040571D01*
X174333573Y-117040571D02*
X174262144Y-117112000D01*
X174262144Y-117112000D02*
X174119287Y-117183428D01*
X174119287Y-117183428D02*
X173976430Y-117183428D01*
X173976430Y-117183428D02*
X173833573Y-117112000D01*
X173833573Y-117112000D02*
X173762144Y-117040571D01*
X173762144Y-117040571D02*
X173690715Y-116897714D01*
X173690715Y-116897714D02*
X173619287Y-116612000D01*
X173619287Y-116612000D02*
X173619287Y-116254857D01*
X173619287Y-116254857D02*
X173690715Y-115969142D01*
X173690715Y-115969142D02*
X173762144Y-115826285D01*
X173762144Y-115826285D02*
X173833573Y-115754857D01*
X173833573Y-115754857D02*
X173976430Y-115683428D01*
X175119286Y-117040571D02*
X175190715Y-117112000D01*
X175190715Y-117112000D02*
X175119286Y-117183428D01*
X175119286Y-117183428D02*
X175047858Y-117112000D01*
X175047858Y-117112000D02*
X175119286Y-117040571D01*
X175119286Y-117040571D02*
X175119286Y-117183428D01*
X176619287Y-117183428D02*
X175762144Y-117183428D01*
X176190715Y-117183428D02*
X176190715Y-115683428D01*
X176190715Y-115683428D02*
X176047858Y-115897714D01*
X176047858Y-115897714D02*
X175905001Y-116040571D01*
X175905001Y-116040571D02*
X175762144Y-116112000D01*
D11*
X138435153Y-103200828D02*
X137720867Y-103200828D01*
X137720867Y-103200828D02*
X137649439Y-103915114D01*
X137649439Y-103915114D02*
X137720867Y-103843685D01*
X137720867Y-103843685D02*
X137863725Y-103772257D01*
X137863725Y-103772257D02*
X138220867Y-103772257D01*
X138220867Y-103772257D02*
X138363725Y-103843685D01*
X138363725Y-103843685D02*
X138435153Y-103915114D01*
X138435153Y-103915114D02*
X138506582Y-104057971D01*
X138506582Y-104057971D02*
X138506582Y-104415114D01*
X138506582Y-104415114D02*
X138435153Y-104557971D01*
X138435153Y-104557971D02*
X138363725Y-104629400D01*
X138363725Y-104629400D02*
X138220867Y-104700828D01*
X138220867Y-104700828D02*
X137863725Y-104700828D01*
X137863725Y-104700828D02*
X137720867Y-104629400D01*
X137720867Y-104629400D02*
X137649439Y-104557971D01*
X139149438Y-104129400D02*
X140292296Y-104129400D01*
X141220867Y-103843685D02*
X141078010Y-103772257D01*
X141078010Y-103772257D02*
X141006581Y-103700828D01*
X141006581Y-103700828D02*
X140935153Y-103557971D01*
X140935153Y-103557971D02*
X140935153Y-103486542D01*
X140935153Y-103486542D02*
X141006581Y-103343685D01*
X141006581Y-103343685D02*
X141078010Y-103272257D01*
X141078010Y-103272257D02*
X141220867Y-103200828D01*
X141220867Y-103200828D02*
X141506581Y-103200828D01*
X141506581Y-103200828D02*
X141649439Y-103272257D01*
X141649439Y-103272257D02*
X141720867Y-103343685D01*
X141720867Y-103343685D02*
X141792296Y-103486542D01*
X141792296Y-103486542D02*
X141792296Y-103557971D01*
X141792296Y-103557971D02*
X141720867Y-103700828D01*
X141720867Y-103700828D02*
X141649439Y-103772257D01*
X141649439Y-103772257D02*
X141506581Y-103843685D01*
X141506581Y-103843685D02*
X141220867Y-103843685D01*
X141220867Y-103843685D02*
X141078010Y-103915114D01*
X141078010Y-103915114D02*
X141006581Y-103986542D01*
X141006581Y-103986542D02*
X140935153Y-104129400D01*
X140935153Y-104129400D02*
X140935153Y-104415114D01*
X140935153Y-104415114D02*
X141006581Y-104557971D01*
X141006581Y-104557971D02*
X141078010Y-104629400D01*
X141078010Y-104629400D02*
X141220867Y-104700828D01*
X141220867Y-104700828D02*
X141506581Y-104700828D01*
X141506581Y-104700828D02*
X141649439Y-104629400D01*
X141649439Y-104629400D02*
X141720867Y-104557971D01*
X141720867Y-104557971D02*
X141792296Y-104415114D01*
X141792296Y-104415114D02*
X141792296Y-104129400D01*
X141792296Y-104129400D02*
X141720867Y-103986542D01*
X141720867Y-103986542D02*
X141649439Y-103915114D01*
X141649439Y-103915114D02*
X141506581Y-103843685D01*
X154132344Y-104700828D02*
X154418058Y-104700828D01*
X154418058Y-104700828D02*
X154560915Y-104629400D01*
X154560915Y-104629400D02*
X154632344Y-104557971D01*
X154632344Y-104557971D02*
X154775201Y-104343685D01*
X154775201Y-104343685D02*
X154846630Y-104057971D01*
X154846630Y-104057971D02*
X154846630Y-103486542D01*
X154846630Y-103486542D02*
X154775201Y-103343685D01*
X154775201Y-103343685D02*
X154703773Y-103272257D01*
X154703773Y-103272257D02*
X154560915Y-103200828D01*
X154560915Y-103200828D02*
X154275201Y-103200828D01*
X154275201Y-103200828D02*
X154132344Y-103272257D01*
X154132344Y-103272257D02*
X154060915Y-103343685D01*
X154060915Y-103343685D02*
X153989487Y-103486542D01*
X153989487Y-103486542D02*
X153989487Y-103843685D01*
X153989487Y-103843685D02*
X154060915Y-103986542D01*
X154060915Y-103986542D02*
X154132344Y-104057971D01*
X154132344Y-104057971D02*
X154275201Y-104129400D01*
X154275201Y-104129400D02*
X154560915Y-104129400D01*
X154560915Y-104129400D02*
X154703773Y-104057971D01*
X154703773Y-104057971D02*
X154775201Y-103986542D01*
X154775201Y-103986542D02*
X154846630Y-103843685D01*
X155489486Y-104129400D02*
X156632344Y-104129400D01*
X158132344Y-104700828D02*
X157275201Y-104700828D01*
X157703772Y-104700828D02*
X157703772Y-103200828D01*
X157703772Y-103200828D02*
X157560915Y-103415114D01*
X157560915Y-103415114D02*
X157418058Y-103557971D01*
X157418058Y-103557971D02*
X157275201Y-103629400D01*
X158703772Y-103343685D02*
X158775200Y-103272257D01*
X158775200Y-103272257D02*
X158918058Y-103200828D01*
X158918058Y-103200828D02*
X159275200Y-103200828D01*
X159275200Y-103200828D02*
X159418058Y-103272257D01*
X159418058Y-103272257D02*
X159489486Y-103343685D01*
X159489486Y-103343685D02*
X159560915Y-103486542D01*
X159560915Y-103486542D02*
X159560915Y-103629400D01*
X159560915Y-103629400D02*
X159489486Y-103843685D01*
X159489486Y-103843685D02*
X158632343Y-104700828D01*
X158632343Y-104700828D02*
X159560915Y-104700828D01*
X188241013Y-104700828D02*
X187383870Y-104700828D01*
X187812441Y-104700828D02*
X187812441Y-103200828D01*
X187812441Y-103200828D02*
X187669584Y-103415114D01*
X187669584Y-103415114D02*
X187526727Y-103557971D01*
X187526727Y-103557971D02*
X187383870Y-103629400D01*
X188741012Y-103200828D02*
X189741012Y-103200828D01*
X189741012Y-103200828D02*
X189098155Y-104700828D01*
X190312440Y-104129400D02*
X191455298Y-104129400D01*
X192098155Y-103343685D02*
X192169583Y-103272257D01*
X192169583Y-103272257D02*
X192312441Y-103200828D01*
X192312441Y-103200828D02*
X192669583Y-103200828D01*
X192669583Y-103200828D02*
X192812441Y-103272257D01*
X192812441Y-103272257D02*
X192883869Y-103343685D01*
X192883869Y-103343685D02*
X192955298Y-103486542D01*
X192955298Y-103486542D02*
X192955298Y-103629400D01*
X192955298Y-103629400D02*
X192883869Y-103843685D01*
X192883869Y-103843685D02*
X192026726Y-104700828D01*
X192026726Y-104700828D02*
X192955298Y-104700828D01*
X193883869Y-103200828D02*
X194026726Y-103200828D01*
X194026726Y-103200828D02*
X194169583Y-103272257D01*
X194169583Y-103272257D02*
X194241012Y-103343685D01*
X194241012Y-103343685D02*
X194312440Y-103486542D01*
X194312440Y-103486542D02*
X194383869Y-103772257D01*
X194383869Y-103772257D02*
X194383869Y-104129400D01*
X194383869Y-104129400D02*
X194312440Y-104415114D01*
X194312440Y-104415114D02*
X194241012Y-104557971D01*
X194241012Y-104557971D02*
X194169583Y-104629400D01*
X194169583Y-104629400D02*
X194026726Y-104700828D01*
X194026726Y-104700828D02*
X193883869Y-104700828D01*
X193883869Y-104700828D02*
X193741012Y-104629400D01*
X193741012Y-104629400D02*
X193669583Y-104557971D01*
X193669583Y-104557971D02*
X193598154Y-104415114D01*
X193598154Y-104415114D02*
X193526726Y-104129400D01*
X193526726Y-104129400D02*
X193526726Y-103772257D01*
X193526726Y-103772257D02*
X193598154Y-103486542D01*
X193598154Y-103486542D02*
X193669583Y-103343685D01*
X193669583Y-103343685D02*
X193741012Y-103272257D01*
X193741012Y-103272257D02*
X193883869Y-103200828D01*
X204438204Y-103343685D02*
X204509632Y-103272257D01*
X204509632Y-103272257D02*
X204652490Y-103200828D01*
X204652490Y-103200828D02*
X205009632Y-103200828D01*
X205009632Y-103200828D02*
X205152490Y-103272257D01*
X205152490Y-103272257D02*
X205223918Y-103343685D01*
X205223918Y-103343685D02*
X205295347Y-103486542D01*
X205295347Y-103486542D02*
X205295347Y-103629400D01*
X205295347Y-103629400D02*
X205223918Y-103843685D01*
X205223918Y-103843685D02*
X204366775Y-104700828D01*
X204366775Y-104700828D02*
X205295347Y-104700828D01*
X206723918Y-104700828D02*
X205866775Y-104700828D01*
X206295346Y-104700828D02*
X206295346Y-103200828D01*
X206295346Y-103200828D02*
X206152489Y-103415114D01*
X206152489Y-103415114D02*
X206009632Y-103557971D01*
X206009632Y-103557971D02*
X205866775Y-103629400D01*
X207366774Y-104129400D02*
X208509632Y-104129400D01*
X209152489Y-103343685D02*
X209223917Y-103272257D01*
X209223917Y-103272257D02*
X209366775Y-103200828D01*
X209366775Y-103200828D02*
X209723917Y-103200828D01*
X209723917Y-103200828D02*
X209866775Y-103272257D01*
X209866775Y-103272257D02*
X209938203Y-103343685D01*
X209938203Y-103343685D02*
X210009632Y-103486542D01*
X210009632Y-103486542D02*
X210009632Y-103629400D01*
X210009632Y-103629400D02*
X209938203Y-103843685D01*
X209938203Y-103843685D02*
X209081060Y-104700828D01*
X209081060Y-104700828D02*
X210009632Y-104700828D01*
X211295346Y-103700828D02*
X211295346Y-104700828D01*
X210938203Y-103129400D02*
X210581060Y-104200828D01*
X210581060Y-104200828D02*
X211509631Y-104200828D01*
X171186679Y-104700828D02*
X170329536Y-104700828D01*
X170758107Y-104700828D02*
X170758107Y-103200828D01*
X170758107Y-103200828D02*
X170615250Y-103415114D01*
X170615250Y-103415114D02*
X170472393Y-103557971D01*
X170472393Y-103557971D02*
X170329536Y-103629400D01*
X171686678Y-103200828D02*
X172615250Y-103200828D01*
X172615250Y-103200828D02*
X172115250Y-103772257D01*
X172115250Y-103772257D02*
X172329535Y-103772257D01*
X172329535Y-103772257D02*
X172472393Y-103843685D01*
X172472393Y-103843685D02*
X172543821Y-103915114D01*
X172543821Y-103915114D02*
X172615250Y-104057971D01*
X172615250Y-104057971D02*
X172615250Y-104415114D01*
X172615250Y-104415114D02*
X172543821Y-104557971D01*
X172543821Y-104557971D02*
X172472393Y-104629400D01*
X172472393Y-104629400D02*
X172329535Y-104700828D01*
X172329535Y-104700828D02*
X171900964Y-104700828D01*
X171900964Y-104700828D02*
X171758107Y-104629400D01*
X171758107Y-104629400D02*
X171686678Y-104557971D01*
X173258106Y-104129400D02*
X174400964Y-104129400D01*
X175900964Y-104700828D02*
X175043821Y-104700828D01*
X175472392Y-104700828D02*
X175472392Y-103200828D01*
X175472392Y-103200828D02*
X175329535Y-103415114D01*
X175329535Y-103415114D02*
X175186678Y-103557971D01*
X175186678Y-103557971D02*
X175043821Y-103629400D01*
X177186678Y-103200828D02*
X176900963Y-103200828D01*
X176900963Y-103200828D02*
X176758106Y-103272257D01*
X176758106Y-103272257D02*
X176686678Y-103343685D01*
X176686678Y-103343685D02*
X176543820Y-103557971D01*
X176543820Y-103557971D02*
X176472392Y-103843685D01*
X176472392Y-103843685D02*
X176472392Y-104415114D01*
X176472392Y-104415114D02*
X176543820Y-104557971D01*
X176543820Y-104557971D02*
X176615249Y-104629400D01*
X176615249Y-104629400D02*
X176758106Y-104700828D01*
X176758106Y-104700828D02*
X177043820Y-104700828D01*
X177043820Y-104700828D02*
X177186678Y-104629400D01*
X177186678Y-104629400D02*
X177258106Y-104557971D01*
X177258106Y-104557971D02*
X177329535Y-104415114D01*
X177329535Y-104415114D02*
X177329535Y-104057971D01*
X177329535Y-104057971D02*
X177258106Y-103915114D01*
X177258106Y-103915114D02*
X177186678Y-103843685D01*
X177186678Y-103843685D02*
X177043820Y-103772257D01*
X177043820Y-103772257D02*
X176758106Y-103772257D01*
X176758106Y-103772257D02*
X176615249Y-103843685D01*
X176615249Y-103843685D02*
X176543820Y-103915114D01*
X176543820Y-103915114D02*
X176472392Y-104057971D01*
X121452248Y-104700828D02*
X120595105Y-104700828D01*
X121023676Y-104700828D02*
X121023676Y-103200828D01*
X121023676Y-103200828D02*
X120880819Y-103415114D01*
X120880819Y-103415114D02*
X120737962Y-103557971D01*
X120737962Y-103557971D02*
X120595105Y-103629400D01*
X122095104Y-104129400D02*
X123237962Y-104129400D01*
X124595105Y-103700828D02*
X124595105Y-104700828D01*
X124237962Y-103129400D02*
X123880819Y-104200828D01*
X123880819Y-104200828D02*
X124809390Y-104200828D01*
D12*
X156544499Y-92576752D02*
X156544499Y-93291037D01*
X156544499Y-93291037D02*
X156496880Y-93433894D01*
X156496880Y-93433894D02*
X156401642Y-93529133D01*
X156401642Y-93529133D02*
X156258785Y-93576752D01*
X156258785Y-93576752D02*
X156163547Y-93576752D01*
X156925452Y-92576752D02*
X157544499Y-92576752D01*
X157544499Y-92576752D02*
X157211166Y-92957704D01*
X157211166Y-92957704D02*
X157354023Y-92957704D01*
X157354023Y-92957704D02*
X157449261Y-93005323D01*
X157449261Y-93005323D02*
X157496880Y-93052942D01*
X157496880Y-93052942D02*
X157544499Y-93148180D01*
X157544499Y-93148180D02*
X157544499Y-93386275D01*
X157544499Y-93386275D02*
X157496880Y-93481513D01*
X157496880Y-93481513D02*
X157449261Y-93529133D01*
X157449261Y-93529133D02*
X157354023Y-93576752D01*
X157354023Y-93576752D02*
X157068309Y-93576752D01*
X157068309Y-93576752D02*
X156973071Y-93529133D01*
X156973071Y-93529133D02*
X156925452Y-93481513D01*
X207707501Y-92576752D02*
X207707501Y-93291037D01*
X207707501Y-93291037D02*
X207659882Y-93433894D01*
X207659882Y-93433894D02*
X207564644Y-93529133D01*
X207564644Y-93529133D02*
X207421787Y-93576752D01*
X207421787Y-93576752D02*
X207326549Y-93576752D01*
X208612263Y-92576752D02*
X208421787Y-92576752D01*
X208421787Y-92576752D02*
X208326549Y-92624371D01*
X208326549Y-92624371D02*
X208278930Y-92671990D01*
X208278930Y-92671990D02*
X208183692Y-92814847D01*
X208183692Y-92814847D02*
X208136073Y-93005323D01*
X208136073Y-93005323D02*
X208136073Y-93386275D01*
X208136073Y-93386275D02*
X208183692Y-93481513D01*
X208183692Y-93481513D02*
X208231311Y-93529133D01*
X208231311Y-93529133D02*
X208326549Y-93576752D01*
X208326549Y-93576752D02*
X208517025Y-93576752D01*
X208517025Y-93576752D02*
X208612263Y-93529133D01*
X208612263Y-93529133D02*
X208659882Y-93481513D01*
X208659882Y-93481513D02*
X208707501Y-93386275D01*
X208707501Y-93386275D02*
X208707501Y-93148180D01*
X208707501Y-93148180D02*
X208659882Y-93052942D01*
X208659882Y-93052942D02*
X208612263Y-93005323D01*
X208612263Y-93005323D02*
X208517025Y-92957704D01*
X208517025Y-92957704D02*
X208326549Y-92957704D01*
X208326549Y-92957704D02*
X208231311Y-93005323D01*
X208231311Y-93005323D02*
X208183692Y-93052942D01*
X208183692Y-93052942D02*
X208136073Y-93148180D01*
X190653167Y-92576752D02*
X190653167Y-93291037D01*
X190653167Y-93291037D02*
X190605548Y-93433894D01*
X190605548Y-93433894D02*
X190510310Y-93529133D01*
X190510310Y-93529133D02*
X190367453Y-93576752D01*
X190367453Y-93576752D02*
X190272215Y-93576752D01*
X191605548Y-92576752D02*
X191129358Y-92576752D01*
X191129358Y-92576752D02*
X191081739Y-93052942D01*
X191081739Y-93052942D02*
X191129358Y-93005323D01*
X191129358Y-93005323D02*
X191224596Y-92957704D01*
X191224596Y-92957704D02*
X191462691Y-92957704D01*
X191462691Y-92957704D02*
X191557929Y-93005323D01*
X191557929Y-93005323D02*
X191605548Y-93052942D01*
X191605548Y-93052942D02*
X191653167Y-93148180D01*
X191653167Y-93148180D02*
X191653167Y-93386275D01*
X191653167Y-93386275D02*
X191605548Y-93481513D01*
X191605548Y-93481513D02*
X191557929Y-93529133D01*
X191557929Y-93529133D02*
X191462691Y-93576752D01*
X191462691Y-93576752D02*
X191224596Y-93576752D01*
X191224596Y-93576752D02*
X191129358Y-93529133D01*
X191129358Y-93529133D02*
X191081739Y-93481513D01*
X139490165Y-92576752D02*
X139490165Y-93291037D01*
X139490165Y-93291037D02*
X139442546Y-93433894D01*
X139442546Y-93433894D02*
X139347308Y-93529133D01*
X139347308Y-93529133D02*
X139204451Y-93576752D01*
X139204451Y-93576752D02*
X139109213Y-93576752D01*
X139918737Y-92671990D02*
X139966356Y-92624371D01*
X139966356Y-92624371D02*
X140061594Y-92576752D01*
X140061594Y-92576752D02*
X140299689Y-92576752D01*
X140299689Y-92576752D02*
X140394927Y-92624371D01*
X140394927Y-92624371D02*
X140442546Y-92671990D01*
X140442546Y-92671990D02*
X140490165Y-92767228D01*
X140490165Y-92767228D02*
X140490165Y-92862466D01*
X140490165Y-92862466D02*
X140442546Y-93005323D01*
X140442546Y-93005323D02*
X139871118Y-93576752D01*
X139871118Y-93576752D02*
X140490165Y-93576752D01*
X173598833Y-92576752D02*
X173598833Y-93291037D01*
X173598833Y-93291037D02*
X173551214Y-93433894D01*
X173551214Y-93433894D02*
X173455976Y-93529133D01*
X173455976Y-93529133D02*
X173313119Y-93576752D01*
X173313119Y-93576752D02*
X173217881Y-93576752D01*
X174503595Y-92910085D02*
X174503595Y-93576752D01*
X174265500Y-92529133D02*
X174027405Y-93243418D01*
X174027405Y-93243418D02*
X174646452Y-93243418D01*
X122435831Y-92576752D02*
X122435831Y-93291037D01*
X122435831Y-93291037D02*
X122388212Y-93433894D01*
X122388212Y-93433894D02*
X122292974Y-93529133D01*
X122292974Y-93529133D02*
X122150117Y-93576752D01*
X122150117Y-93576752D02*
X122054879Y-93576752D01*
X123435831Y-93576752D02*
X122864403Y-93576752D01*
X123150117Y-93576752D02*
X123150117Y-92576752D01*
X123150117Y-92576752D02*
X123054879Y-92719609D01*
X123054879Y-92719609D02*
X122959641Y-92814847D01*
X122959641Y-92814847D02*
X122864403Y-92862466D01*
X165071666Y-107747419D02*
X165071666Y-108461704D01*
X165071666Y-108461704D02*
X165024047Y-108604561D01*
X165024047Y-108604561D02*
X164928809Y-108699800D01*
X164928809Y-108699800D02*
X164785952Y-108747419D01*
X164785952Y-108747419D02*
X164690714Y-108747419D01*
X165452619Y-107747419D02*
X166119285Y-107747419D01*
X166119285Y-107747419D02*
X165690714Y-108747419D01*
D13*
%TO.C,J3*%
X164646000Y-101789667D02*
X149109666Y-101789667D01*
X149109666Y-85576000D01*
X149236666Y-85576000D01*
X149236666Y-101683834D01*
X164540166Y-101683834D01*
X164540166Y-85576000D01*
X149236666Y-85576000D01*
X149109666Y-85576000D01*
X149109666Y-85449000D01*
X164646000Y-85449000D01*
X164646000Y-101789667D01*
G36*
X164646000Y-101789667D02*
G01*
X149109666Y-101789667D01*
X149109666Y-85576000D01*
X149236666Y-85576000D01*
X149236666Y-101683834D01*
X164540166Y-101683834D01*
X164540166Y-85576000D01*
X149236666Y-85576000D01*
X149109666Y-85576000D01*
X149109666Y-85449000D01*
X164646000Y-85449000D01*
X164646000Y-101789667D01*
G37*
%TO.C,J6*%
X215809002Y-101789667D02*
X200272668Y-101789667D01*
X200272668Y-85576000D01*
X200399668Y-85576000D01*
X200399668Y-101683834D01*
X215703168Y-101683834D01*
X215703168Y-85576000D01*
X200399668Y-85576000D01*
X200272668Y-85576000D01*
X200272668Y-85449000D01*
X215809002Y-85449000D01*
X215809002Y-101789667D01*
G36*
X215809002Y-101789667D02*
G01*
X200272668Y-101789667D01*
X200272668Y-85576000D01*
X200399668Y-85576000D01*
X200399668Y-101683834D01*
X215703168Y-101683834D01*
X215703168Y-85576000D01*
X200399668Y-85576000D01*
X200272668Y-85576000D01*
X200272668Y-85449000D01*
X215809002Y-85449000D01*
X215809002Y-101789667D01*
G37*
%TO.C,J5*%
X198754668Y-101789667D02*
X183218334Y-101789667D01*
X183218334Y-85576000D01*
X183345334Y-85576000D01*
X183345334Y-101683834D01*
X198648834Y-101683834D01*
X198648834Y-85576000D01*
X183345334Y-85576000D01*
X183218334Y-85576000D01*
X183218334Y-85449000D01*
X198754668Y-85449000D01*
X198754668Y-101789667D01*
G36*
X198754668Y-101789667D02*
G01*
X183218334Y-101789667D01*
X183218334Y-85576000D01*
X183345334Y-85576000D01*
X183345334Y-101683834D01*
X198648834Y-101683834D01*
X198648834Y-85576000D01*
X183345334Y-85576000D01*
X183218334Y-85576000D01*
X183218334Y-85449000D01*
X198754668Y-85449000D01*
X198754668Y-101789667D01*
G37*
%TO.C,J2*%
X147591666Y-101789667D02*
X132055332Y-101789667D01*
X132055332Y-85576000D01*
X132182332Y-85576000D01*
X132182332Y-101683834D01*
X147485832Y-101683834D01*
X147485832Y-85576000D01*
X132182332Y-85576000D01*
X132055332Y-85576000D01*
X132055332Y-85449000D01*
X147591666Y-85449000D01*
X147591666Y-101789667D01*
G36*
X147591666Y-101789667D02*
G01*
X132055332Y-101789667D01*
X132055332Y-85576000D01*
X132182332Y-85576000D01*
X132182332Y-101683834D01*
X147485832Y-101683834D01*
X147485832Y-85576000D01*
X132182332Y-85576000D01*
X132055332Y-85576000D01*
X132055332Y-85449000D01*
X147591666Y-85449000D01*
X147591666Y-101789667D01*
G37*
%TO.C,J4*%
X181700334Y-101789667D02*
X166164000Y-101789667D01*
X166164000Y-85576000D01*
X166291000Y-85576000D01*
X166291000Y-101683834D01*
X181594500Y-101683834D01*
X181594500Y-85576000D01*
X166291000Y-85576000D01*
X166164000Y-85576000D01*
X166164000Y-85449000D01*
X181700334Y-85449000D01*
X181700334Y-101789667D01*
G36*
X181700334Y-101789667D02*
G01*
X166164000Y-101789667D01*
X166164000Y-85576000D01*
X166291000Y-85576000D01*
X166291000Y-101683834D01*
X181594500Y-101683834D01*
X181594500Y-85576000D01*
X166291000Y-85576000D01*
X166164000Y-85576000D01*
X166164000Y-85449000D01*
X181700334Y-85449000D01*
X181700334Y-101789667D01*
G37*
%TO.C,J1*%
X130537332Y-101789667D02*
X115000998Y-101789667D01*
X115000998Y-85576000D01*
X115127998Y-85576000D01*
X115127998Y-101683834D01*
X130431498Y-101683834D01*
X130431498Y-85576000D01*
X115127998Y-85576000D01*
X115000998Y-85576000D01*
X115000998Y-85449000D01*
X130537332Y-85449000D01*
X130537332Y-101789667D01*
G36*
X130537332Y-101789667D02*
G01*
X115000998Y-101789667D01*
X115000998Y-85576000D01*
X115127998Y-85576000D01*
X115127998Y-101683834D01*
X130431498Y-101683834D01*
X130431498Y-85576000D01*
X115127998Y-85576000D01*
X115000998Y-85576000D01*
X115000998Y-85449000D01*
X130537332Y-85449000D01*
X130537332Y-101789667D01*
G37*
%TD*%
%LPC*%
D14*
%TO.C,J3*%
X151118017Y-95543993D03*
X162548017Y-95543993D03*
D15*
X152388013Y-89193995D03*
X153658010Y-86654002D03*
X154928014Y-89193995D03*
X156198011Y-86654002D03*
X157468015Y-89193995D03*
X158738012Y-86654002D03*
X160008016Y-89193995D03*
X161278017Y-86654002D03*
%TD*%
D14*
%TO.C,J6*%
X202281019Y-95543993D03*
X213711019Y-95543993D03*
D15*
X203551015Y-89193995D03*
X204821012Y-86654002D03*
X206091016Y-89193995D03*
X207361013Y-86654002D03*
X208631017Y-89193995D03*
X209901014Y-86654002D03*
X211171018Y-89193995D03*
X212441019Y-86654002D03*
%TD*%
D14*
%TO.C,J5*%
X185226685Y-95543993D03*
X196656685Y-95543993D03*
D15*
X186496681Y-89193995D03*
X187766678Y-86654002D03*
X189036682Y-89193995D03*
X190306679Y-86654002D03*
X191576683Y-89193995D03*
X192846680Y-86654002D03*
X194116684Y-89193995D03*
X195386685Y-86654002D03*
%TD*%
D14*
%TO.C,J2*%
X134063683Y-95543993D03*
X145493683Y-95543993D03*
D15*
X135333679Y-89193995D03*
X136603676Y-86654002D03*
X137873680Y-89193995D03*
X139143677Y-86654002D03*
X140413681Y-89193995D03*
X141683678Y-86654002D03*
X142953682Y-89193995D03*
X144223683Y-86654002D03*
%TD*%
D14*
%TO.C,J4*%
X168172351Y-95543993D03*
X179602351Y-95543993D03*
D15*
X169442347Y-89193995D03*
X170712344Y-86654002D03*
X171982348Y-89193995D03*
X173252345Y-86654002D03*
X174522349Y-89193995D03*
X175792346Y-86654002D03*
X177062350Y-89193995D03*
X178332351Y-86654002D03*
%TD*%
D14*
%TO.C,J1*%
X117009349Y-95543993D03*
X128439349Y-95543993D03*
D15*
X118279345Y-89193995D03*
X119549342Y-86654002D03*
X120819346Y-89193995D03*
X122089343Y-86654002D03*
X123359347Y-89193995D03*
X124629344Y-86654002D03*
X125899348Y-89193995D03*
X127169349Y-86654002D03*
%TD*%
D16*
%TO.C,J7*%
X127980000Y-108790000D03*
X202830000Y-108790000D03*
D17*
X139485000Y-106645000D03*
X141645000Y-106645000D03*
X143805000Y-106645000D03*
X145965000Y-106645000D03*
X148125000Y-106645000D03*
X150285000Y-106645000D03*
X152445000Y-106645000D03*
X154605000Y-106645000D03*
X156765000Y-106645000D03*
X158925000Y-106645000D03*
X161085000Y-106645000D03*
X163245000Y-106645000D03*
X165405000Y-106645000D03*
X167565000Y-106645000D03*
X169725000Y-106645000D03*
X171885000Y-106645000D03*
X174045000Y-106645000D03*
X176205000Y-106645000D03*
X178365000Y-106645000D03*
X180525000Y-106645000D03*
X182685000Y-106645000D03*
X184845000Y-106645000D03*
X187005000Y-106645000D03*
X189165000Y-106645000D03*
X191325000Y-106645000D03*
X139485000Y-110935000D03*
X141645000Y-110935000D03*
X143805000Y-110935000D03*
X145965000Y-110935000D03*
X148125000Y-110935000D03*
X150285000Y-110935000D03*
X152445000Y-110935000D03*
X154605000Y-110935000D03*
X156765000Y-110935000D03*
X158925000Y-110935000D03*
X161085000Y-110935000D03*
X163245000Y-110935000D03*
X165405000Y-110935000D03*
X167565000Y-110935000D03*
X169725000Y-110935000D03*
X171885000Y-110935000D03*
X174045000Y-110935000D03*
X176205000Y-110935000D03*
X178365000Y-110935000D03*
X180525000Y-110935000D03*
X182685000Y-110935000D03*
X184845000Y-110935000D03*
X187005000Y-110935000D03*
X189165000Y-110935000D03*
X191325000Y-110935000D03*
%TD*%
%LPD*%
M02*
