%TF.GenerationSoftware,KiCad,Pcbnew,8.0.1*%
%TF.CreationDate,2024-06-26T21:25:34+01:00*%
%TF.ProjectId,MINI_TRUNK_6_MAIN,4d494e49-5f54-4525-954e-4b5f365f4d41,rev?*%
%TF.SameCoordinates,Original*%
%TF.FileFunction,Drillmap*%
%TF.FilePolarity,Positive*%
%FSLAX45Y45*%
G04 Gerber Fmt 4.5, Leading zero omitted, Abs format (unit mm)*
G04 Created by KiCad (PCBNEW 8.0.1) date 2024-06-26 21:25:34*
%MOMM*%
%LPD*%
G01*
G04 APERTURE LIST*
%ADD10C,0.050000*%
%ADD11C,0.200000*%
%ADD12C,0.300000*%
%ADD13C,0.320000*%
G04 APERTURE END LIST*
D10*
X21129000Y-11918000D02*
X11898000Y-11918000D01*
X11427000Y-8507000D02*
X21654000Y-8507000D01*
X21654000Y-10272000D02*
X21129000Y-11918000D01*
X11427000Y-10272000D02*
X11898000Y-11918000D01*
X11427000Y-8507000D02*
X11427000Y-10272000D01*
X21654000Y-8507000D02*
X21654000Y-10272000D01*
D11*
D12*
X11550935Y-9404399D02*
X11850935Y-9704399D01*
X11850935Y-9404399D02*
X11550935Y-9704399D01*
X12693935Y-9404399D02*
X12993935Y-9704399D01*
X12993935Y-9404399D02*
X12693935Y-9704399D01*
X13256368Y-9404399D02*
X13556368Y-9704399D01*
X13556368Y-9404399D02*
X13256368Y-9704399D01*
X14399368Y-9404399D02*
X14699368Y-9704399D01*
X14699368Y-9404399D02*
X14399368Y-9704399D01*
X14961802Y-9404399D02*
X15261802Y-9704399D01*
X15261802Y-9404399D02*
X14961802Y-9704399D01*
X16104802Y-9404399D02*
X16404802Y-9704399D01*
X16404802Y-9404399D02*
X16104802Y-9704399D01*
X16667235Y-9404399D02*
X16967235Y-9704399D01*
X16967235Y-9404399D02*
X16667235Y-9704399D01*
X17810235Y-9404399D02*
X18110235Y-9704399D01*
X18110235Y-9404399D02*
X17810235Y-9704399D01*
X18372669Y-9404399D02*
X18672669Y-9704399D01*
X18672669Y-9404399D02*
X18372669Y-9704399D01*
X19515669Y-9404399D02*
X19815669Y-9704399D01*
X19815669Y-9404399D02*
X19515669Y-9704399D01*
X20078102Y-9404399D02*
X20378102Y-9704399D01*
X20378102Y-9404399D02*
X20078102Y-9704399D01*
X21221102Y-9404399D02*
X21521102Y-9704399D01*
X21521102Y-9404399D02*
X21221102Y-9704399D01*
D13*
X12958000Y-10879000D02*
G75*
G02*
X12638000Y-10879000I-160000J0D01*
G01*
X12638000Y-10879000D02*
G75*
G02*
X12958000Y-10879000I160000J0D01*
G01*
X20443000Y-10879000D02*
G75*
G02*
X20123000Y-10879000I-160000J0D01*
G01*
X20123000Y-10879000D02*
G75*
G02*
X20443000Y-10879000I160000J0D01*
G01*
D11*
X11685277Y-12231984D02*
X11685277Y-12031984D01*
X11685277Y-12031984D02*
X11732896Y-12031984D01*
X11732896Y-12031984D02*
X11761467Y-12041508D01*
X11761467Y-12041508D02*
X11780515Y-12060555D01*
X11780515Y-12060555D02*
X11790039Y-12079603D01*
X11790039Y-12079603D02*
X11799562Y-12117698D01*
X11799562Y-12117698D02*
X11799562Y-12146269D01*
X11799562Y-12146269D02*
X11790039Y-12184365D01*
X11790039Y-12184365D02*
X11780515Y-12203412D01*
X11780515Y-12203412D02*
X11761467Y-12222460D01*
X11761467Y-12222460D02*
X11732896Y-12231984D01*
X11732896Y-12231984D02*
X11685277Y-12231984D01*
X11885277Y-12231984D02*
X11885277Y-12098650D01*
X11885277Y-12136746D02*
X11894801Y-12117698D01*
X11894801Y-12117698D02*
X11904324Y-12108174D01*
X11904324Y-12108174D02*
X11923372Y-12098650D01*
X11923372Y-12098650D02*
X11942420Y-12098650D01*
X12009086Y-12231984D02*
X12009086Y-12098650D01*
X12009086Y-12031984D02*
X11999562Y-12041508D01*
X11999562Y-12041508D02*
X12009086Y-12051031D01*
X12009086Y-12051031D02*
X12018610Y-12041508D01*
X12018610Y-12041508D02*
X12009086Y-12031984D01*
X12009086Y-12031984D02*
X12009086Y-12051031D01*
X12132896Y-12231984D02*
X12113848Y-12222460D01*
X12113848Y-12222460D02*
X12104324Y-12203412D01*
X12104324Y-12203412D02*
X12104324Y-12031984D01*
X12237658Y-12231984D02*
X12218610Y-12222460D01*
X12218610Y-12222460D02*
X12209086Y-12203412D01*
X12209086Y-12203412D02*
X12209086Y-12031984D01*
X12466229Y-12231984D02*
X12466229Y-12031984D01*
X12466229Y-12031984D02*
X12532896Y-12174841D01*
X12532896Y-12174841D02*
X12599562Y-12031984D01*
X12599562Y-12031984D02*
X12599562Y-12231984D01*
X12780515Y-12231984D02*
X12780515Y-12127222D01*
X12780515Y-12127222D02*
X12770991Y-12108174D01*
X12770991Y-12108174D02*
X12751943Y-12098650D01*
X12751943Y-12098650D02*
X12713848Y-12098650D01*
X12713848Y-12098650D02*
X12694801Y-12108174D01*
X12780515Y-12222460D02*
X12761467Y-12231984D01*
X12761467Y-12231984D02*
X12713848Y-12231984D01*
X12713848Y-12231984D02*
X12694801Y-12222460D01*
X12694801Y-12222460D02*
X12685277Y-12203412D01*
X12685277Y-12203412D02*
X12685277Y-12184365D01*
X12685277Y-12184365D02*
X12694801Y-12165317D01*
X12694801Y-12165317D02*
X12713848Y-12155793D01*
X12713848Y-12155793D02*
X12761467Y-12155793D01*
X12761467Y-12155793D02*
X12780515Y-12146269D01*
X12875753Y-12098650D02*
X12875753Y-12298650D01*
X12875753Y-12108174D02*
X12894801Y-12098650D01*
X12894801Y-12098650D02*
X12932896Y-12098650D01*
X12932896Y-12098650D02*
X12951943Y-12108174D01*
X12951943Y-12108174D02*
X12961467Y-12117698D01*
X12961467Y-12117698D02*
X12970991Y-12136746D01*
X12970991Y-12136746D02*
X12970991Y-12193888D01*
X12970991Y-12193888D02*
X12961467Y-12212936D01*
X12961467Y-12212936D02*
X12951943Y-12222460D01*
X12951943Y-12222460D02*
X12932896Y-12231984D01*
X12932896Y-12231984D02*
X12894801Y-12231984D01*
X12894801Y-12231984D02*
X12875753Y-12222460D01*
X13056705Y-12212936D02*
X13066229Y-12222460D01*
X13066229Y-12222460D02*
X13056705Y-12231984D01*
X13056705Y-12231984D02*
X13047182Y-12222460D01*
X13047182Y-12222460D02*
X13056705Y-12212936D01*
X13056705Y-12212936D02*
X13056705Y-12231984D01*
X13056705Y-12108174D02*
X13066229Y-12117698D01*
X13066229Y-12117698D02*
X13056705Y-12127222D01*
X13056705Y-12127222D02*
X13047182Y-12117698D01*
X13047182Y-12117698D02*
X13056705Y-12108174D01*
X13056705Y-12108174D02*
X13056705Y-12127222D01*
X11224500Y-12460500D02*
X11424500Y-12660500D01*
X11424500Y-12460500D02*
X11224500Y-12660500D01*
X11666229Y-12451984D02*
X11790039Y-12451984D01*
X11790039Y-12451984D02*
X11723372Y-12528174D01*
X11723372Y-12528174D02*
X11751943Y-12528174D01*
X11751943Y-12528174D02*
X11770991Y-12537698D01*
X11770991Y-12537698D02*
X11780515Y-12547222D01*
X11780515Y-12547222D02*
X11790039Y-12566269D01*
X11790039Y-12566269D02*
X11790039Y-12613888D01*
X11790039Y-12613888D02*
X11780515Y-12632936D01*
X11780515Y-12632936D02*
X11770991Y-12642460D01*
X11770991Y-12642460D02*
X11751943Y-12651984D01*
X11751943Y-12651984D02*
X11694801Y-12651984D01*
X11694801Y-12651984D02*
X11675753Y-12642460D01*
X11675753Y-12642460D02*
X11666229Y-12632936D01*
X11875753Y-12632936D02*
X11885277Y-12642460D01*
X11885277Y-12642460D02*
X11875753Y-12651984D01*
X11875753Y-12651984D02*
X11866229Y-12642460D01*
X11866229Y-12642460D02*
X11875753Y-12632936D01*
X11875753Y-12632936D02*
X11875753Y-12651984D01*
X12009086Y-12451984D02*
X12028134Y-12451984D01*
X12028134Y-12451984D02*
X12047182Y-12461508D01*
X12047182Y-12461508D02*
X12056705Y-12471031D01*
X12056705Y-12471031D02*
X12066229Y-12490079D01*
X12066229Y-12490079D02*
X12075753Y-12528174D01*
X12075753Y-12528174D02*
X12075753Y-12575793D01*
X12075753Y-12575793D02*
X12066229Y-12613888D01*
X12066229Y-12613888D02*
X12056705Y-12632936D01*
X12056705Y-12632936D02*
X12047182Y-12642460D01*
X12047182Y-12642460D02*
X12028134Y-12651984D01*
X12028134Y-12651984D02*
X12009086Y-12651984D01*
X12009086Y-12651984D02*
X11990039Y-12642460D01*
X11990039Y-12642460D02*
X11980515Y-12632936D01*
X11980515Y-12632936D02*
X11970991Y-12613888D01*
X11970991Y-12613888D02*
X11961467Y-12575793D01*
X11961467Y-12575793D02*
X11961467Y-12528174D01*
X11961467Y-12528174D02*
X11970991Y-12490079D01*
X11970991Y-12490079D02*
X11980515Y-12471031D01*
X11980515Y-12471031D02*
X11990039Y-12461508D01*
X11990039Y-12461508D02*
X12009086Y-12451984D01*
X12199562Y-12451984D02*
X12218610Y-12451984D01*
X12218610Y-12451984D02*
X12237658Y-12461508D01*
X12237658Y-12461508D02*
X12247182Y-12471031D01*
X12247182Y-12471031D02*
X12256705Y-12490079D01*
X12256705Y-12490079D02*
X12266229Y-12528174D01*
X12266229Y-12528174D02*
X12266229Y-12575793D01*
X12266229Y-12575793D02*
X12256705Y-12613888D01*
X12256705Y-12613888D02*
X12247182Y-12632936D01*
X12247182Y-12632936D02*
X12237658Y-12642460D01*
X12237658Y-12642460D02*
X12218610Y-12651984D01*
X12218610Y-12651984D02*
X12199562Y-12651984D01*
X12199562Y-12651984D02*
X12180515Y-12642460D01*
X12180515Y-12642460D02*
X12170991Y-12632936D01*
X12170991Y-12632936D02*
X12161467Y-12613888D01*
X12161467Y-12613888D02*
X12151943Y-12575793D01*
X12151943Y-12575793D02*
X12151943Y-12528174D01*
X12151943Y-12528174D02*
X12161467Y-12490079D01*
X12161467Y-12490079D02*
X12170991Y-12471031D01*
X12170991Y-12471031D02*
X12180515Y-12461508D01*
X12180515Y-12461508D02*
X12199562Y-12451984D01*
X12390039Y-12451984D02*
X12409086Y-12451984D01*
X12409086Y-12451984D02*
X12428134Y-12461508D01*
X12428134Y-12461508D02*
X12437658Y-12471031D01*
X12437658Y-12471031D02*
X12447182Y-12490079D01*
X12447182Y-12490079D02*
X12456705Y-12528174D01*
X12456705Y-12528174D02*
X12456705Y-12575793D01*
X12456705Y-12575793D02*
X12447182Y-12613888D01*
X12447182Y-12613888D02*
X12437658Y-12632936D01*
X12437658Y-12632936D02*
X12428134Y-12642460D01*
X12428134Y-12642460D02*
X12409086Y-12651984D01*
X12409086Y-12651984D02*
X12390039Y-12651984D01*
X12390039Y-12651984D02*
X12370991Y-12642460D01*
X12370991Y-12642460D02*
X12361467Y-12632936D01*
X12361467Y-12632936D02*
X12351943Y-12613888D01*
X12351943Y-12613888D02*
X12342420Y-12575793D01*
X12342420Y-12575793D02*
X12342420Y-12528174D01*
X12342420Y-12528174D02*
X12351943Y-12490079D01*
X12351943Y-12490079D02*
X12361467Y-12471031D01*
X12361467Y-12471031D02*
X12370991Y-12461508D01*
X12370991Y-12461508D02*
X12390039Y-12451984D01*
X12542420Y-12651984D02*
X12542420Y-12518650D01*
X12542420Y-12537698D02*
X12551943Y-12528174D01*
X12551943Y-12528174D02*
X12570991Y-12518650D01*
X12570991Y-12518650D02*
X12599563Y-12518650D01*
X12599563Y-12518650D02*
X12618610Y-12528174D01*
X12618610Y-12528174D02*
X12628134Y-12547222D01*
X12628134Y-12547222D02*
X12628134Y-12651984D01*
X12628134Y-12547222D02*
X12637658Y-12528174D01*
X12637658Y-12528174D02*
X12656705Y-12518650D01*
X12656705Y-12518650D02*
X12685277Y-12518650D01*
X12685277Y-12518650D02*
X12704324Y-12528174D01*
X12704324Y-12528174D02*
X12713848Y-12547222D01*
X12713848Y-12547222D02*
X12713848Y-12651984D01*
X12809086Y-12651984D02*
X12809086Y-12518650D01*
X12809086Y-12537698D02*
X12818610Y-12528174D01*
X12818610Y-12528174D02*
X12837658Y-12518650D01*
X12837658Y-12518650D02*
X12866229Y-12518650D01*
X12866229Y-12518650D02*
X12885277Y-12528174D01*
X12885277Y-12528174D02*
X12894801Y-12547222D01*
X12894801Y-12547222D02*
X12894801Y-12651984D01*
X12894801Y-12547222D02*
X12904324Y-12528174D01*
X12904324Y-12528174D02*
X12923372Y-12518650D01*
X12923372Y-12518650D02*
X12951943Y-12518650D01*
X12951943Y-12518650D02*
X12970991Y-12528174D01*
X12970991Y-12528174D02*
X12980515Y-12547222D01*
X12980515Y-12547222D02*
X12980515Y-12651984D01*
X13370991Y-12442460D02*
X13199563Y-12699603D01*
X13628134Y-12451984D02*
X13647182Y-12451984D01*
X13647182Y-12451984D02*
X13666229Y-12461508D01*
X13666229Y-12461508D02*
X13675753Y-12471031D01*
X13675753Y-12471031D02*
X13685277Y-12490079D01*
X13685277Y-12490079D02*
X13694801Y-12528174D01*
X13694801Y-12528174D02*
X13694801Y-12575793D01*
X13694801Y-12575793D02*
X13685277Y-12613888D01*
X13685277Y-12613888D02*
X13675753Y-12632936D01*
X13675753Y-12632936D02*
X13666229Y-12642460D01*
X13666229Y-12642460D02*
X13647182Y-12651984D01*
X13647182Y-12651984D02*
X13628134Y-12651984D01*
X13628134Y-12651984D02*
X13609086Y-12642460D01*
X13609086Y-12642460D02*
X13599563Y-12632936D01*
X13599563Y-12632936D02*
X13590039Y-12613888D01*
X13590039Y-12613888D02*
X13580515Y-12575793D01*
X13580515Y-12575793D02*
X13580515Y-12528174D01*
X13580515Y-12528174D02*
X13590039Y-12490079D01*
X13590039Y-12490079D02*
X13599563Y-12471031D01*
X13599563Y-12471031D02*
X13609086Y-12461508D01*
X13609086Y-12461508D02*
X13628134Y-12451984D01*
X13780515Y-12632936D02*
X13790039Y-12642460D01*
X13790039Y-12642460D02*
X13780515Y-12651984D01*
X13780515Y-12651984D02*
X13770991Y-12642460D01*
X13770991Y-12642460D02*
X13780515Y-12632936D01*
X13780515Y-12632936D02*
X13780515Y-12651984D01*
X13980515Y-12651984D02*
X13866229Y-12651984D01*
X13923372Y-12651984D02*
X13923372Y-12451984D01*
X13923372Y-12451984D02*
X13904325Y-12480555D01*
X13904325Y-12480555D02*
X13885277Y-12499603D01*
X13885277Y-12499603D02*
X13866229Y-12509127D01*
X14170991Y-12651984D02*
X14056706Y-12651984D01*
X14113848Y-12651984D02*
X14113848Y-12451984D01*
X14113848Y-12451984D02*
X14094801Y-12480555D01*
X14094801Y-12480555D02*
X14075753Y-12499603D01*
X14075753Y-12499603D02*
X14056706Y-12509127D01*
X14285277Y-12537698D02*
X14266229Y-12528174D01*
X14266229Y-12528174D02*
X14256706Y-12518650D01*
X14256706Y-12518650D02*
X14247182Y-12499603D01*
X14247182Y-12499603D02*
X14247182Y-12490079D01*
X14247182Y-12490079D02*
X14256706Y-12471031D01*
X14256706Y-12471031D02*
X14266229Y-12461508D01*
X14266229Y-12461508D02*
X14285277Y-12451984D01*
X14285277Y-12451984D02*
X14323372Y-12451984D01*
X14323372Y-12451984D02*
X14342420Y-12461508D01*
X14342420Y-12461508D02*
X14351944Y-12471031D01*
X14351944Y-12471031D02*
X14361467Y-12490079D01*
X14361467Y-12490079D02*
X14361467Y-12499603D01*
X14361467Y-12499603D02*
X14351944Y-12518650D01*
X14351944Y-12518650D02*
X14342420Y-12528174D01*
X14342420Y-12528174D02*
X14323372Y-12537698D01*
X14323372Y-12537698D02*
X14285277Y-12537698D01*
X14285277Y-12537698D02*
X14266229Y-12547222D01*
X14266229Y-12547222D02*
X14256706Y-12556746D01*
X14256706Y-12556746D02*
X14247182Y-12575793D01*
X14247182Y-12575793D02*
X14247182Y-12613888D01*
X14247182Y-12613888D02*
X14256706Y-12632936D01*
X14256706Y-12632936D02*
X14266229Y-12642460D01*
X14266229Y-12642460D02*
X14285277Y-12651984D01*
X14285277Y-12651984D02*
X14323372Y-12651984D01*
X14323372Y-12651984D02*
X14342420Y-12642460D01*
X14342420Y-12642460D02*
X14351944Y-12632936D01*
X14351944Y-12632936D02*
X14361467Y-12613888D01*
X14361467Y-12613888D02*
X14361467Y-12575793D01*
X14361467Y-12575793D02*
X14351944Y-12556746D01*
X14351944Y-12556746D02*
X14342420Y-12547222D01*
X14342420Y-12547222D02*
X14323372Y-12537698D01*
X14551944Y-12651984D02*
X14437658Y-12651984D01*
X14494801Y-12651984D02*
X14494801Y-12451984D01*
X14494801Y-12451984D02*
X14475753Y-12480555D01*
X14475753Y-12480555D02*
X14456706Y-12499603D01*
X14456706Y-12499603D02*
X14437658Y-12509127D01*
X14628134Y-12451984D02*
X14628134Y-12490079D01*
X14704325Y-12451984D02*
X14704325Y-12490079D01*
X14999563Y-12728174D02*
X14990039Y-12718650D01*
X14990039Y-12718650D02*
X14970991Y-12690079D01*
X14970991Y-12690079D02*
X14961468Y-12671031D01*
X14961468Y-12671031D02*
X14951944Y-12642460D01*
X14951944Y-12642460D02*
X14942420Y-12594841D01*
X14942420Y-12594841D02*
X14942420Y-12556746D01*
X14942420Y-12556746D02*
X14951944Y-12509127D01*
X14951944Y-12509127D02*
X14961468Y-12480555D01*
X14961468Y-12480555D02*
X14970991Y-12461508D01*
X14970991Y-12461508D02*
X14990039Y-12432936D01*
X14990039Y-12432936D02*
X14999563Y-12423412D01*
X15180515Y-12651984D02*
X15066229Y-12651984D01*
X15123372Y-12651984D02*
X15123372Y-12451984D01*
X15123372Y-12451984D02*
X15104325Y-12480555D01*
X15104325Y-12480555D02*
X15085277Y-12499603D01*
X15085277Y-12499603D02*
X15066229Y-12509127D01*
X15256706Y-12471031D02*
X15266229Y-12461508D01*
X15266229Y-12461508D02*
X15285277Y-12451984D01*
X15285277Y-12451984D02*
X15332896Y-12451984D01*
X15332896Y-12451984D02*
X15351944Y-12461508D01*
X15351944Y-12461508D02*
X15361468Y-12471031D01*
X15361468Y-12471031D02*
X15370991Y-12490079D01*
X15370991Y-12490079D02*
X15370991Y-12509127D01*
X15370991Y-12509127D02*
X15361468Y-12537698D01*
X15361468Y-12537698D02*
X15247182Y-12651984D01*
X15247182Y-12651984D02*
X15370991Y-12651984D01*
X15609087Y-12651984D02*
X15609087Y-12451984D01*
X15694801Y-12651984D02*
X15694801Y-12547222D01*
X15694801Y-12547222D02*
X15685277Y-12528174D01*
X15685277Y-12528174D02*
X15666230Y-12518650D01*
X15666230Y-12518650D02*
X15637658Y-12518650D01*
X15637658Y-12518650D02*
X15618610Y-12528174D01*
X15618610Y-12528174D02*
X15609087Y-12537698D01*
X15818610Y-12651984D02*
X15799563Y-12642460D01*
X15799563Y-12642460D02*
X15790039Y-12632936D01*
X15790039Y-12632936D02*
X15780515Y-12613888D01*
X15780515Y-12613888D02*
X15780515Y-12556746D01*
X15780515Y-12556746D02*
X15790039Y-12537698D01*
X15790039Y-12537698D02*
X15799563Y-12528174D01*
X15799563Y-12528174D02*
X15818610Y-12518650D01*
X15818610Y-12518650D02*
X15847182Y-12518650D01*
X15847182Y-12518650D02*
X15866230Y-12528174D01*
X15866230Y-12528174D02*
X15875753Y-12537698D01*
X15875753Y-12537698D02*
X15885277Y-12556746D01*
X15885277Y-12556746D02*
X15885277Y-12613888D01*
X15885277Y-12613888D02*
X15875753Y-12632936D01*
X15875753Y-12632936D02*
X15866230Y-12642460D01*
X15866230Y-12642460D02*
X15847182Y-12651984D01*
X15847182Y-12651984D02*
X15818610Y-12651984D01*
X15999563Y-12651984D02*
X15980515Y-12642460D01*
X15980515Y-12642460D02*
X15970991Y-12623412D01*
X15970991Y-12623412D02*
X15970991Y-12451984D01*
X16151944Y-12642460D02*
X16132896Y-12651984D01*
X16132896Y-12651984D02*
X16094801Y-12651984D01*
X16094801Y-12651984D02*
X16075753Y-12642460D01*
X16075753Y-12642460D02*
X16066230Y-12623412D01*
X16066230Y-12623412D02*
X16066230Y-12547222D01*
X16066230Y-12547222D02*
X16075753Y-12528174D01*
X16075753Y-12528174D02*
X16094801Y-12518650D01*
X16094801Y-12518650D02*
X16132896Y-12518650D01*
X16132896Y-12518650D02*
X16151944Y-12528174D01*
X16151944Y-12528174D02*
X16161468Y-12547222D01*
X16161468Y-12547222D02*
X16161468Y-12566269D01*
X16161468Y-12566269D02*
X16066230Y-12585317D01*
X16237658Y-12642460D02*
X16256706Y-12651984D01*
X16256706Y-12651984D02*
X16294801Y-12651984D01*
X16294801Y-12651984D02*
X16313849Y-12642460D01*
X16313849Y-12642460D02*
X16323372Y-12623412D01*
X16323372Y-12623412D02*
X16323372Y-12613888D01*
X16323372Y-12613888D02*
X16313849Y-12594841D01*
X16313849Y-12594841D02*
X16294801Y-12585317D01*
X16294801Y-12585317D02*
X16266230Y-12585317D01*
X16266230Y-12585317D02*
X16247182Y-12575793D01*
X16247182Y-12575793D02*
X16237658Y-12556746D01*
X16237658Y-12556746D02*
X16237658Y-12547222D01*
X16237658Y-12547222D02*
X16247182Y-12528174D01*
X16247182Y-12528174D02*
X16266230Y-12518650D01*
X16266230Y-12518650D02*
X16294801Y-12518650D01*
X16294801Y-12518650D02*
X16313849Y-12528174D01*
X16390039Y-12728174D02*
X16399563Y-12718650D01*
X16399563Y-12718650D02*
X16418611Y-12690079D01*
X16418611Y-12690079D02*
X16428134Y-12671031D01*
X16428134Y-12671031D02*
X16437658Y-12642460D01*
X16437658Y-12642460D02*
X16447182Y-12594841D01*
X16447182Y-12594841D02*
X16447182Y-12556746D01*
X16447182Y-12556746D02*
X16437658Y-12509127D01*
X16437658Y-12509127D02*
X16428134Y-12480555D01*
X16428134Y-12480555D02*
X16418611Y-12461508D01*
X16418611Y-12461508D02*
X16399563Y-12432936D01*
X16399563Y-12432936D02*
X16390039Y-12423412D01*
X16751944Y-12728174D02*
X16742420Y-12718650D01*
X16742420Y-12718650D02*
X16723372Y-12690079D01*
X16723372Y-12690079D02*
X16713849Y-12671031D01*
X16713849Y-12671031D02*
X16704325Y-12642460D01*
X16704325Y-12642460D02*
X16694801Y-12594841D01*
X16694801Y-12594841D02*
X16694801Y-12556746D01*
X16694801Y-12556746D02*
X16704325Y-12509127D01*
X16704325Y-12509127D02*
X16713849Y-12480555D01*
X16713849Y-12480555D02*
X16723372Y-12461508D01*
X16723372Y-12461508D02*
X16742420Y-12432936D01*
X16742420Y-12432936D02*
X16751944Y-12423412D01*
X16828134Y-12518650D02*
X16828134Y-12651984D01*
X16828134Y-12537698D02*
X16837658Y-12528174D01*
X16837658Y-12528174D02*
X16856706Y-12518650D01*
X16856706Y-12518650D02*
X16885277Y-12518650D01*
X16885277Y-12518650D02*
X16904325Y-12528174D01*
X16904325Y-12528174D02*
X16913849Y-12547222D01*
X16913849Y-12547222D02*
X16913849Y-12651984D01*
X17037658Y-12651984D02*
X17018611Y-12642460D01*
X17018611Y-12642460D02*
X17009087Y-12632936D01*
X17009087Y-12632936D02*
X16999563Y-12613888D01*
X16999563Y-12613888D02*
X16999563Y-12556746D01*
X16999563Y-12556746D02*
X17009087Y-12537698D01*
X17009087Y-12537698D02*
X17018611Y-12528174D01*
X17018611Y-12528174D02*
X17037658Y-12518650D01*
X17037658Y-12518650D02*
X17066230Y-12518650D01*
X17066230Y-12518650D02*
X17085277Y-12528174D01*
X17085277Y-12528174D02*
X17094801Y-12537698D01*
X17094801Y-12537698D02*
X17104325Y-12556746D01*
X17104325Y-12556746D02*
X17104325Y-12613888D01*
X17104325Y-12613888D02*
X17094801Y-12632936D01*
X17094801Y-12632936D02*
X17085277Y-12642460D01*
X17085277Y-12642460D02*
X17066230Y-12651984D01*
X17066230Y-12651984D02*
X17037658Y-12651984D01*
X17161468Y-12518650D02*
X17237658Y-12518650D01*
X17190039Y-12451984D02*
X17190039Y-12623412D01*
X17190039Y-12623412D02*
X17199563Y-12642460D01*
X17199563Y-12642460D02*
X17218611Y-12651984D01*
X17218611Y-12651984D02*
X17237658Y-12651984D01*
X17456706Y-12518650D02*
X17456706Y-12718650D01*
X17456706Y-12528174D02*
X17475754Y-12518650D01*
X17475754Y-12518650D02*
X17513849Y-12518650D01*
X17513849Y-12518650D02*
X17532896Y-12528174D01*
X17532896Y-12528174D02*
X17542420Y-12537698D01*
X17542420Y-12537698D02*
X17551944Y-12556746D01*
X17551944Y-12556746D02*
X17551944Y-12613888D01*
X17551944Y-12613888D02*
X17542420Y-12632936D01*
X17542420Y-12632936D02*
X17532896Y-12642460D01*
X17532896Y-12642460D02*
X17513849Y-12651984D01*
X17513849Y-12651984D02*
X17475754Y-12651984D01*
X17475754Y-12651984D02*
X17456706Y-12642460D01*
X17666230Y-12651984D02*
X17647182Y-12642460D01*
X17647182Y-12642460D02*
X17637658Y-12623412D01*
X17637658Y-12623412D02*
X17637658Y-12451984D01*
X17828135Y-12651984D02*
X17828135Y-12547222D01*
X17828135Y-12547222D02*
X17818611Y-12528174D01*
X17818611Y-12528174D02*
X17799563Y-12518650D01*
X17799563Y-12518650D02*
X17761468Y-12518650D01*
X17761468Y-12518650D02*
X17742420Y-12528174D01*
X17828135Y-12642460D02*
X17809087Y-12651984D01*
X17809087Y-12651984D02*
X17761468Y-12651984D01*
X17761468Y-12651984D02*
X17742420Y-12642460D01*
X17742420Y-12642460D02*
X17732896Y-12623412D01*
X17732896Y-12623412D02*
X17732896Y-12604365D01*
X17732896Y-12604365D02*
X17742420Y-12585317D01*
X17742420Y-12585317D02*
X17761468Y-12575793D01*
X17761468Y-12575793D02*
X17809087Y-12575793D01*
X17809087Y-12575793D02*
X17828135Y-12566269D01*
X17894801Y-12518650D02*
X17970992Y-12518650D01*
X17923373Y-12451984D02*
X17923373Y-12623412D01*
X17923373Y-12623412D02*
X17932896Y-12642460D01*
X17932896Y-12642460D02*
X17951944Y-12651984D01*
X17951944Y-12651984D02*
X17970992Y-12651984D01*
X18113849Y-12642460D02*
X18094801Y-12651984D01*
X18094801Y-12651984D02*
X18056706Y-12651984D01*
X18056706Y-12651984D02*
X18037658Y-12642460D01*
X18037658Y-12642460D02*
X18028135Y-12623412D01*
X18028135Y-12623412D02*
X18028135Y-12547222D01*
X18028135Y-12547222D02*
X18037658Y-12528174D01*
X18037658Y-12528174D02*
X18056706Y-12518650D01*
X18056706Y-12518650D02*
X18094801Y-12518650D01*
X18094801Y-12518650D02*
X18113849Y-12528174D01*
X18113849Y-12528174D02*
X18123373Y-12547222D01*
X18123373Y-12547222D02*
X18123373Y-12566269D01*
X18123373Y-12566269D02*
X18028135Y-12585317D01*
X18294801Y-12651984D02*
X18294801Y-12451984D01*
X18294801Y-12642460D02*
X18275754Y-12651984D01*
X18275754Y-12651984D02*
X18237658Y-12651984D01*
X18237658Y-12651984D02*
X18218611Y-12642460D01*
X18218611Y-12642460D02*
X18209087Y-12632936D01*
X18209087Y-12632936D02*
X18199563Y-12613888D01*
X18199563Y-12613888D02*
X18199563Y-12556746D01*
X18199563Y-12556746D02*
X18209087Y-12537698D01*
X18209087Y-12537698D02*
X18218611Y-12528174D01*
X18218611Y-12528174D02*
X18237658Y-12518650D01*
X18237658Y-12518650D02*
X18275754Y-12518650D01*
X18275754Y-12518650D02*
X18294801Y-12528174D01*
X18370992Y-12728174D02*
X18380516Y-12718650D01*
X18380516Y-12718650D02*
X18399563Y-12690079D01*
X18399563Y-12690079D02*
X18409087Y-12671031D01*
X18409087Y-12671031D02*
X18418611Y-12642460D01*
X18418611Y-12642460D02*
X18428135Y-12594841D01*
X18428135Y-12594841D02*
X18428135Y-12556746D01*
X18428135Y-12556746D02*
X18418611Y-12509127D01*
X18418611Y-12509127D02*
X18409087Y-12480555D01*
X18409087Y-12480555D02*
X18399563Y-12461508D01*
X18399563Y-12461508D02*
X18380516Y-12432936D01*
X18380516Y-12432936D02*
X18370992Y-12423412D01*
X11424500Y-12880500D02*
G75*
G02*
X11224500Y-12880500I-100000J0D01*
G01*
X11224500Y-12880500D02*
G75*
G02*
X11424500Y-12880500I100000J0D01*
G01*
X11666229Y-12771984D02*
X11790039Y-12771984D01*
X11790039Y-12771984D02*
X11723372Y-12848174D01*
X11723372Y-12848174D02*
X11751943Y-12848174D01*
X11751943Y-12848174D02*
X11770991Y-12857698D01*
X11770991Y-12857698D02*
X11780515Y-12867222D01*
X11780515Y-12867222D02*
X11790039Y-12886269D01*
X11790039Y-12886269D02*
X11790039Y-12933888D01*
X11790039Y-12933888D02*
X11780515Y-12952936D01*
X11780515Y-12952936D02*
X11770991Y-12962460D01*
X11770991Y-12962460D02*
X11751943Y-12971984D01*
X11751943Y-12971984D02*
X11694801Y-12971984D01*
X11694801Y-12971984D02*
X11675753Y-12962460D01*
X11675753Y-12962460D02*
X11666229Y-12952936D01*
X11875753Y-12952936D02*
X11885277Y-12962460D01*
X11885277Y-12962460D02*
X11875753Y-12971984D01*
X11875753Y-12971984D02*
X11866229Y-12962460D01*
X11866229Y-12962460D02*
X11875753Y-12952936D01*
X11875753Y-12952936D02*
X11875753Y-12971984D01*
X11961467Y-12791031D02*
X11970991Y-12781508D01*
X11970991Y-12781508D02*
X11990039Y-12771984D01*
X11990039Y-12771984D02*
X12037658Y-12771984D01*
X12037658Y-12771984D02*
X12056705Y-12781508D01*
X12056705Y-12781508D02*
X12066229Y-12791031D01*
X12066229Y-12791031D02*
X12075753Y-12810079D01*
X12075753Y-12810079D02*
X12075753Y-12829127D01*
X12075753Y-12829127D02*
X12066229Y-12857698D01*
X12066229Y-12857698D02*
X11951943Y-12971984D01*
X11951943Y-12971984D02*
X12075753Y-12971984D01*
X12199562Y-12771984D02*
X12218610Y-12771984D01*
X12218610Y-12771984D02*
X12237658Y-12781508D01*
X12237658Y-12781508D02*
X12247182Y-12791031D01*
X12247182Y-12791031D02*
X12256705Y-12810079D01*
X12256705Y-12810079D02*
X12266229Y-12848174D01*
X12266229Y-12848174D02*
X12266229Y-12895793D01*
X12266229Y-12895793D02*
X12256705Y-12933888D01*
X12256705Y-12933888D02*
X12247182Y-12952936D01*
X12247182Y-12952936D02*
X12237658Y-12962460D01*
X12237658Y-12962460D02*
X12218610Y-12971984D01*
X12218610Y-12971984D02*
X12199562Y-12971984D01*
X12199562Y-12971984D02*
X12180515Y-12962460D01*
X12180515Y-12962460D02*
X12170991Y-12952936D01*
X12170991Y-12952936D02*
X12161467Y-12933888D01*
X12161467Y-12933888D02*
X12151943Y-12895793D01*
X12151943Y-12895793D02*
X12151943Y-12848174D01*
X12151943Y-12848174D02*
X12161467Y-12810079D01*
X12161467Y-12810079D02*
X12170991Y-12791031D01*
X12170991Y-12791031D02*
X12180515Y-12781508D01*
X12180515Y-12781508D02*
X12199562Y-12771984D01*
X12390039Y-12771984D02*
X12409086Y-12771984D01*
X12409086Y-12771984D02*
X12428134Y-12781508D01*
X12428134Y-12781508D02*
X12437658Y-12791031D01*
X12437658Y-12791031D02*
X12447182Y-12810079D01*
X12447182Y-12810079D02*
X12456705Y-12848174D01*
X12456705Y-12848174D02*
X12456705Y-12895793D01*
X12456705Y-12895793D02*
X12447182Y-12933888D01*
X12447182Y-12933888D02*
X12437658Y-12952936D01*
X12437658Y-12952936D02*
X12428134Y-12962460D01*
X12428134Y-12962460D02*
X12409086Y-12971984D01*
X12409086Y-12971984D02*
X12390039Y-12971984D01*
X12390039Y-12971984D02*
X12370991Y-12962460D01*
X12370991Y-12962460D02*
X12361467Y-12952936D01*
X12361467Y-12952936D02*
X12351943Y-12933888D01*
X12351943Y-12933888D02*
X12342420Y-12895793D01*
X12342420Y-12895793D02*
X12342420Y-12848174D01*
X12342420Y-12848174D02*
X12351943Y-12810079D01*
X12351943Y-12810079D02*
X12361467Y-12791031D01*
X12361467Y-12791031D02*
X12370991Y-12781508D01*
X12370991Y-12781508D02*
X12390039Y-12771984D01*
X12542420Y-12971984D02*
X12542420Y-12838650D01*
X12542420Y-12857698D02*
X12551943Y-12848174D01*
X12551943Y-12848174D02*
X12570991Y-12838650D01*
X12570991Y-12838650D02*
X12599563Y-12838650D01*
X12599563Y-12838650D02*
X12618610Y-12848174D01*
X12618610Y-12848174D02*
X12628134Y-12867222D01*
X12628134Y-12867222D02*
X12628134Y-12971984D01*
X12628134Y-12867222D02*
X12637658Y-12848174D01*
X12637658Y-12848174D02*
X12656705Y-12838650D01*
X12656705Y-12838650D02*
X12685277Y-12838650D01*
X12685277Y-12838650D02*
X12704324Y-12848174D01*
X12704324Y-12848174D02*
X12713848Y-12867222D01*
X12713848Y-12867222D02*
X12713848Y-12971984D01*
X12809086Y-12971984D02*
X12809086Y-12838650D01*
X12809086Y-12857698D02*
X12818610Y-12848174D01*
X12818610Y-12848174D02*
X12837658Y-12838650D01*
X12837658Y-12838650D02*
X12866229Y-12838650D01*
X12866229Y-12838650D02*
X12885277Y-12848174D01*
X12885277Y-12848174D02*
X12894801Y-12867222D01*
X12894801Y-12867222D02*
X12894801Y-12971984D01*
X12894801Y-12867222D02*
X12904324Y-12848174D01*
X12904324Y-12848174D02*
X12923372Y-12838650D01*
X12923372Y-12838650D02*
X12951943Y-12838650D01*
X12951943Y-12838650D02*
X12970991Y-12848174D01*
X12970991Y-12848174D02*
X12980515Y-12867222D01*
X12980515Y-12867222D02*
X12980515Y-12971984D01*
X13370991Y-12762460D02*
X13199563Y-13019603D01*
X13628134Y-12771984D02*
X13647182Y-12771984D01*
X13647182Y-12771984D02*
X13666229Y-12781508D01*
X13666229Y-12781508D02*
X13675753Y-12791031D01*
X13675753Y-12791031D02*
X13685277Y-12810079D01*
X13685277Y-12810079D02*
X13694801Y-12848174D01*
X13694801Y-12848174D02*
X13694801Y-12895793D01*
X13694801Y-12895793D02*
X13685277Y-12933888D01*
X13685277Y-12933888D02*
X13675753Y-12952936D01*
X13675753Y-12952936D02*
X13666229Y-12962460D01*
X13666229Y-12962460D02*
X13647182Y-12971984D01*
X13647182Y-12971984D02*
X13628134Y-12971984D01*
X13628134Y-12971984D02*
X13609086Y-12962460D01*
X13609086Y-12962460D02*
X13599563Y-12952936D01*
X13599563Y-12952936D02*
X13590039Y-12933888D01*
X13590039Y-12933888D02*
X13580515Y-12895793D01*
X13580515Y-12895793D02*
X13580515Y-12848174D01*
X13580515Y-12848174D02*
X13590039Y-12810079D01*
X13590039Y-12810079D02*
X13599563Y-12791031D01*
X13599563Y-12791031D02*
X13609086Y-12781508D01*
X13609086Y-12781508D02*
X13628134Y-12771984D01*
X13780515Y-12952936D02*
X13790039Y-12962460D01*
X13790039Y-12962460D02*
X13780515Y-12971984D01*
X13780515Y-12971984D02*
X13770991Y-12962460D01*
X13770991Y-12962460D02*
X13780515Y-12952936D01*
X13780515Y-12952936D02*
X13780515Y-12971984D01*
X13980515Y-12971984D02*
X13866229Y-12971984D01*
X13923372Y-12971984D02*
X13923372Y-12771984D01*
X13923372Y-12771984D02*
X13904325Y-12800555D01*
X13904325Y-12800555D02*
X13885277Y-12819603D01*
X13885277Y-12819603D02*
X13866229Y-12829127D01*
X14056706Y-12791031D02*
X14066229Y-12781508D01*
X14066229Y-12781508D02*
X14085277Y-12771984D01*
X14085277Y-12771984D02*
X14132896Y-12771984D01*
X14132896Y-12771984D02*
X14151944Y-12781508D01*
X14151944Y-12781508D02*
X14161467Y-12791031D01*
X14161467Y-12791031D02*
X14170991Y-12810079D01*
X14170991Y-12810079D02*
X14170991Y-12829127D01*
X14170991Y-12829127D02*
X14161467Y-12857698D01*
X14161467Y-12857698D02*
X14047182Y-12971984D01*
X14047182Y-12971984D02*
X14170991Y-12971984D01*
X14342420Y-12771984D02*
X14304325Y-12771984D01*
X14304325Y-12771984D02*
X14285277Y-12781508D01*
X14285277Y-12781508D02*
X14275753Y-12791031D01*
X14275753Y-12791031D02*
X14256706Y-12819603D01*
X14256706Y-12819603D02*
X14247182Y-12857698D01*
X14247182Y-12857698D02*
X14247182Y-12933888D01*
X14247182Y-12933888D02*
X14256706Y-12952936D01*
X14256706Y-12952936D02*
X14266229Y-12962460D01*
X14266229Y-12962460D02*
X14285277Y-12971984D01*
X14285277Y-12971984D02*
X14323372Y-12971984D01*
X14323372Y-12971984D02*
X14342420Y-12962460D01*
X14342420Y-12962460D02*
X14351944Y-12952936D01*
X14351944Y-12952936D02*
X14361467Y-12933888D01*
X14361467Y-12933888D02*
X14361467Y-12886269D01*
X14361467Y-12886269D02*
X14351944Y-12867222D01*
X14351944Y-12867222D02*
X14342420Y-12857698D01*
X14342420Y-12857698D02*
X14323372Y-12848174D01*
X14323372Y-12848174D02*
X14285277Y-12848174D01*
X14285277Y-12848174D02*
X14266229Y-12857698D01*
X14266229Y-12857698D02*
X14256706Y-12867222D01*
X14256706Y-12867222D02*
X14247182Y-12886269D01*
X14485277Y-12771984D02*
X14504325Y-12771984D01*
X14504325Y-12771984D02*
X14523372Y-12781508D01*
X14523372Y-12781508D02*
X14532896Y-12791031D01*
X14532896Y-12791031D02*
X14542420Y-12810079D01*
X14542420Y-12810079D02*
X14551944Y-12848174D01*
X14551944Y-12848174D02*
X14551944Y-12895793D01*
X14551944Y-12895793D02*
X14542420Y-12933888D01*
X14542420Y-12933888D02*
X14532896Y-12952936D01*
X14532896Y-12952936D02*
X14523372Y-12962460D01*
X14523372Y-12962460D02*
X14504325Y-12971984D01*
X14504325Y-12971984D02*
X14485277Y-12971984D01*
X14485277Y-12971984D02*
X14466229Y-12962460D01*
X14466229Y-12962460D02*
X14456706Y-12952936D01*
X14456706Y-12952936D02*
X14447182Y-12933888D01*
X14447182Y-12933888D02*
X14437658Y-12895793D01*
X14437658Y-12895793D02*
X14437658Y-12848174D01*
X14437658Y-12848174D02*
X14447182Y-12810079D01*
X14447182Y-12810079D02*
X14456706Y-12791031D01*
X14456706Y-12791031D02*
X14466229Y-12781508D01*
X14466229Y-12781508D02*
X14485277Y-12771984D01*
X14628134Y-12771984D02*
X14628134Y-12810079D01*
X14704325Y-12771984D02*
X14704325Y-12810079D01*
X14999563Y-13048174D02*
X14990039Y-13038650D01*
X14990039Y-13038650D02*
X14970991Y-13010079D01*
X14970991Y-13010079D02*
X14961468Y-12991031D01*
X14961468Y-12991031D02*
X14951944Y-12962460D01*
X14951944Y-12962460D02*
X14942420Y-12914841D01*
X14942420Y-12914841D02*
X14942420Y-12876746D01*
X14942420Y-12876746D02*
X14951944Y-12829127D01*
X14951944Y-12829127D02*
X14961468Y-12800555D01*
X14961468Y-12800555D02*
X14970991Y-12781508D01*
X14970991Y-12781508D02*
X14990039Y-12752936D01*
X14990039Y-12752936D02*
X14999563Y-12743412D01*
X15066229Y-12791031D02*
X15075753Y-12781508D01*
X15075753Y-12781508D02*
X15094801Y-12771984D01*
X15094801Y-12771984D02*
X15142420Y-12771984D01*
X15142420Y-12771984D02*
X15161468Y-12781508D01*
X15161468Y-12781508D02*
X15170991Y-12791031D01*
X15170991Y-12791031D02*
X15180515Y-12810079D01*
X15180515Y-12810079D02*
X15180515Y-12829127D01*
X15180515Y-12829127D02*
X15170991Y-12857698D01*
X15170991Y-12857698D02*
X15056706Y-12971984D01*
X15056706Y-12971984D02*
X15180515Y-12971984D01*
X15418610Y-12971984D02*
X15418610Y-12771984D01*
X15504325Y-12971984D02*
X15504325Y-12867222D01*
X15504325Y-12867222D02*
X15494801Y-12848174D01*
X15494801Y-12848174D02*
X15475753Y-12838650D01*
X15475753Y-12838650D02*
X15447182Y-12838650D01*
X15447182Y-12838650D02*
X15428134Y-12848174D01*
X15428134Y-12848174D02*
X15418610Y-12857698D01*
X15628134Y-12971984D02*
X15609087Y-12962460D01*
X15609087Y-12962460D02*
X15599563Y-12952936D01*
X15599563Y-12952936D02*
X15590039Y-12933888D01*
X15590039Y-12933888D02*
X15590039Y-12876746D01*
X15590039Y-12876746D02*
X15599563Y-12857698D01*
X15599563Y-12857698D02*
X15609087Y-12848174D01*
X15609087Y-12848174D02*
X15628134Y-12838650D01*
X15628134Y-12838650D02*
X15656706Y-12838650D01*
X15656706Y-12838650D02*
X15675753Y-12848174D01*
X15675753Y-12848174D02*
X15685277Y-12857698D01*
X15685277Y-12857698D02*
X15694801Y-12876746D01*
X15694801Y-12876746D02*
X15694801Y-12933888D01*
X15694801Y-12933888D02*
X15685277Y-12952936D01*
X15685277Y-12952936D02*
X15675753Y-12962460D01*
X15675753Y-12962460D02*
X15656706Y-12971984D01*
X15656706Y-12971984D02*
X15628134Y-12971984D01*
X15809087Y-12971984D02*
X15790039Y-12962460D01*
X15790039Y-12962460D02*
X15780515Y-12943412D01*
X15780515Y-12943412D02*
X15780515Y-12771984D01*
X15961468Y-12962460D02*
X15942420Y-12971984D01*
X15942420Y-12971984D02*
X15904325Y-12971984D01*
X15904325Y-12971984D02*
X15885277Y-12962460D01*
X15885277Y-12962460D02*
X15875753Y-12943412D01*
X15875753Y-12943412D02*
X15875753Y-12867222D01*
X15875753Y-12867222D02*
X15885277Y-12848174D01*
X15885277Y-12848174D02*
X15904325Y-12838650D01*
X15904325Y-12838650D02*
X15942420Y-12838650D01*
X15942420Y-12838650D02*
X15961468Y-12848174D01*
X15961468Y-12848174D02*
X15970991Y-12867222D01*
X15970991Y-12867222D02*
X15970991Y-12886269D01*
X15970991Y-12886269D02*
X15875753Y-12905317D01*
X16047182Y-12962460D02*
X16066230Y-12971984D01*
X16066230Y-12971984D02*
X16104325Y-12971984D01*
X16104325Y-12971984D02*
X16123372Y-12962460D01*
X16123372Y-12962460D02*
X16132896Y-12943412D01*
X16132896Y-12943412D02*
X16132896Y-12933888D01*
X16132896Y-12933888D02*
X16123372Y-12914841D01*
X16123372Y-12914841D02*
X16104325Y-12905317D01*
X16104325Y-12905317D02*
X16075753Y-12905317D01*
X16075753Y-12905317D02*
X16056706Y-12895793D01*
X16056706Y-12895793D02*
X16047182Y-12876746D01*
X16047182Y-12876746D02*
X16047182Y-12867222D01*
X16047182Y-12867222D02*
X16056706Y-12848174D01*
X16056706Y-12848174D02*
X16075753Y-12838650D01*
X16075753Y-12838650D02*
X16104325Y-12838650D01*
X16104325Y-12838650D02*
X16123372Y-12848174D01*
X16199563Y-13048174D02*
X16209087Y-13038650D01*
X16209087Y-13038650D02*
X16228134Y-13010079D01*
X16228134Y-13010079D02*
X16237658Y-12991031D01*
X16237658Y-12991031D02*
X16247182Y-12962460D01*
X16247182Y-12962460D02*
X16256706Y-12914841D01*
X16256706Y-12914841D02*
X16256706Y-12876746D01*
X16256706Y-12876746D02*
X16247182Y-12829127D01*
X16247182Y-12829127D02*
X16237658Y-12800555D01*
X16237658Y-12800555D02*
X16228134Y-12781508D01*
X16228134Y-12781508D02*
X16209087Y-12752936D01*
X16209087Y-12752936D02*
X16199563Y-12743412D01*
X16561468Y-13048174D02*
X16551944Y-13038650D01*
X16551944Y-13038650D02*
X16532896Y-13010079D01*
X16532896Y-13010079D02*
X16523372Y-12991031D01*
X16523372Y-12991031D02*
X16513849Y-12962460D01*
X16513849Y-12962460D02*
X16504325Y-12914841D01*
X16504325Y-12914841D02*
X16504325Y-12876746D01*
X16504325Y-12876746D02*
X16513849Y-12829127D01*
X16513849Y-12829127D02*
X16523372Y-12800555D01*
X16523372Y-12800555D02*
X16532896Y-12781508D01*
X16532896Y-12781508D02*
X16551944Y-12752936D01*
X16551944Y-12752936D02*
X16561468Y-12743412D01*
X16637658Y-12838650D02*
X16637658Y-12971984D01*
X16637658Y-12857698D02*
X16647182Y-12848174D01*
X16647182Y-12848174D02*
X16666230Y-12838650D01*
X16666230Y-12838650D02*
X16694801Y-12838650D01*
X16694801Y-12838650D02*
X16713849Y-12848174D01*
X16713849Y-12848174D02*
X16723372Y-12867222D01*
X16723372Y-12867222D02*
X16723372Y-12971984D01*
X16847182Y-12971984D02*
X16828134Y-12962460D01*
X16828134Y-12962460D02*
X16818611Y-12952936D01*
X16818611Y-12952936D02*
X16809087Y-12933888D01*
X16809087Y-12933888D02*
X16809087Y-12876746D01*
X16809087Y-12876746D02*
X16818611Y-12857698D01*
X16818611Y-12857698D02*
X16828134Y-12848174D01*
X16828134Y-12848174D02*
X16847182Y-12838650D01*
X16847182Y-12838650D02*
X16875754Y-12838650D01*
X16875754Y-12838650D02*
X16894801Y-12848174D01*
X16894801Y-12848174D02*
X16904325Y-12857698D01*
X16904325Y-12857698D02*
X16913849Y-12876746D01*
X16913849Y-12876746D02*
X16913849Y-12933888D01*
X16913849Y-12933888D02*
X16904325Y-12952936D01*
X16904325Y-12952936D02*
X16894801Y-12962460D01*
X16894801Y-12962460D02*
X16875754Y-12971984D01*
X16875754Y-12971984D02*
X16847182Y-12971984D01*
X16970992Y-12838650D02*
X17047182Y-12838650D01*
X16999563Y-12771984D02*
X16999563Y-12943412D01*
X16999563Y-12943412D02*
X17009087Y-12962460D01*
X17009087Y-12962460D02*
X17028134Y-12971984D01*
X17028134Y-12971984D02*
X17047182Y-12971984D01*
X17266230Y-12838650D02*
X17266230Y-13038650D01*
X17266230Y-12848174D02*
X17285277Y-12838650D01*
X17285277Y-12838650D02*
X17323373Y-12838650D01*
X17323373Y-12838650D02*
X17342420Y-12848174D01*
X17342420Y-12848174D02*
X17351944Y-12857698D01*
X17351944Y-12857698D02*
X17361468Y-12876746D01*
X17361468Y-12876746D02*
X17361468Y-12933888D01*
X17361468Y-12933888D02*
X17351944Y-12952936D01*
X17351944Y-12952936D02*
X17342420Y-12962460D01*
X17342420Y-12962460D02*
X17323373Y-12971984D01*
X17323373Y-12971984D02*
X17285277Y-12971984D01*
X17285277Y-12971984D02*
X17266230Y-12962460D01*
X17475754Y-12971984D02*
X17456706Y-12962460D01*
X17456706Y-12962460D02*
X17447182Y-12943412D01*
X17447182Y-12943412D02*
X17447182Y-12771984D01*
X17637658Y-12971984D02*
X17637658Y-12867222D01*
X17637658Y-12867222D02*
X17628135Y-12848174D01*
X17628135Y-12848174D02*
X17609087Y-12838650D01*
X17609087Y-12838650D02*
X17570992Y-12838650D01*
X17570992Y-12838650D02*
X17551944Y-12848174D01*
X17637658Y-12962460D02*
X17618611Y-12971984D01*
X17618611Y-12971984D02*
X17570992Y-12971984D01*
X17570992Y-12971984D02*
X17551944Y-12962460D01*
X17551944Y-12962460D02*
X17542420Y-12943412D01*
X17542420Y-12943412D02*
X17542420Y-12924365D01*
X17542420Y-12924365D02*
X17551944Y-12905317D01*
X17551944Y-12905317D02*
X17570992Y-12895793D01*
X17570992Y-12895793D02*
X17618611Y-12895793D01*
X17618611Y-12895793D02*
X17637658Y-12886269D01*
X17704325Y-12838650D02*
X17780515Y-12838650D01*
X17732896Y-12771984D02*
X17732896Y-12943412D01*
X17732896Y-12943412D02*
X17742420Y-12962460D01*
X17742420Y-12962460D02*
X17761468Y-12971984D01*
X17761468Y-12971984D02*
X17780515Y-12971984D01*
X17923373Y-12962460D02*
X17904325Y-12971984D01*
X17904325Y-12971984D02*
X17866230Y-12971984D01*
X17866230Y-12971984D02*
X17847182Y-12962460D01*
X17847182Y-12962460D02*
X17837658Y-12943412D01*
X17837658Y-12943412D02*
X17837658Y-12867222D01*
X17837658Y-12867222D02*
X17847182Y-12848174D01*
X17847182Y-12848174D02*
X17866230Y-12838650D01*
X17866230Y-12838650D02*
X17904325Y-12838650D01*
X17904325Y-12838650D02*
X17923373Y-12848174D01*
X17923373Y-12848174D02*
X17932896Y-12867222D01*
X17932896Y-12867222D02*
X17932896Y-12886269D01*
X17932896Y-12886269D02*
X17837658Y-12905317D01*
X18104325Y-12971984D02*
X18104325Y-12771984D01*
X18104325Y-12962460D02*
X18085277Y-12971984D01*
X18085277Y-12971984D02*
X18047182Y-12971984D01*
X18047182Y-12971984D02*
X18028135Y-12962460D01*
X18028135Y-12962460D02*
X18018611Y-12952936D01*
X18018611Y-12952936D02*
X18009087Y-12933888D01*
X18009087Y-12933888D02*
X18009087Y-12876746D01*
X18009087Y-12876746D02*
X18018611Y-12857698D01*
X18018611Y-12857698D02*
X18028135Y-12848174D01*
X18028135Y-12848174D02*
X18047182Y-12838650D01*
X18047182Y-12838650D02*
X18085277Y-12838650D01*
X18085277Y-12838650D02*
X18104325Y-12848174D01*
X18180516Y-13048174D02*
X18190039Y-13038650D01*
X18190039Y-13038650D02*
X18209087Y-13010079D01*
X18209087Y-13010079D02*
X18218611Y-12991031D01*
X18218611Y-12991031D02*
X18228135Y-12962460D01*
X18228135Y-12962460D02*
X18237658Y-12914841D01*
X18237658Y-12914841D02*
X18237658Y-12876746D01*
X18237658Y-12876746D02*
X18228135Y-12829127D01*
X18228135Y-12829127D02*
X18218611Y-12800555D01*
X18218611Y-12800555D02*
X18209087Y-12781508D01*
X18209087Y-12781508D02*
X18190039Y-12752936D01*
X18190039Y-12752936D02*
X18180516Y-12743412D01*
M02*
