%TF.GenerationSoftware,KiCad,Pcbnew,8.0.1*%
%TF.CreationDate,2024-06-26T21:25:31+01:00*%
%TF.ProjectId,MINI_TRUNK_6_MAIN,4d494e49-5f54-4525-954e-4b5f365f4d41,rev?*%
%TF.SameCoordinates,Original*%
%TF.FileFunction,Soldermask,Top*%
%TF.FilePolarity,Negative*%
%FSLAX46Y46*%
G04 Gerber Fmt 4.6, Leading zero omitted, Abs format (unit mm)*
G04 Created by KiCad (PCBNEW 8.0.1) date 2024-06-26 21:25:31*
%MOMM*%
%LPD*%
G01*
G04 APERTURE LIST*
%ADD10C,3.000000*%
%ADD11C,1.600000*%
%ADD12C,3.200000*%
%ADD13C,1.500000*%
G04 APERTURE END LIST*
D10*
%TO.C,J3*%
X151118017Y-95543993D03*
X162548017Y-95543993D03*
D11*
X152388013Y-89193995D03*
X153658010Y-86654002D03*
X154928014Y-89193995D03*
X156198011Y-86654002D03*
X157468015Y-89193995D03*
X158738012Y-86654002D03*
X160008016Y-89193995D03*
X161278017Y-86654002D03*
%TD*%
D10*
%TO.C,J6*%
X202281019Y-95543993D03*
X213711019Y-95543993D03*
D11*
X203551015Y-89193995D03*
X204821012Y-86654002D03*
X206091016Y-89193995D03*
X207361013Y-86654002D03*
X208631017Y-89193995D03*
X209901014Y-86654002D03*
X211171018Y-89193995D03*
X212441019Y-86654002D03*
%TD*%
D10*
%TO.C,J5*%
X185226685Y-95543993D03*
X196656685Y-95543993D03*
D11*
X186496681Y-89193995D03*
X187766678Y-86654002D03*
X189036682Y-89193995D03*
X190306679Y-86654002D03*
X191576683Y-89193995D03*
X192846680Y-86654002D03*
X194116684Y-89193995D03*
X195386685Y-86654002D03*
%TD*%
D10*
%TO.C,J2*%
X134063683Y-95543993D03*
X145493683Y-95543993D03*
D11*
X135333679Y-89193995D03*
X136603676Y-86654002D03*
X137873680Y-89193995D03*
X139143677Y-86654002D03*
X140413681Y-89193995D03*
X141683678Y-86654002D03*
X142953682Y-89193995D03*
X144223683Y-86654002D03*
%TD*%
D10*
%TO.C,J4*%
X168172351Y-95543993D03*
X179602351Y-95543993D03*
D11*
X169442347Y-89193995D03*
X170712344Y-86654002D03*
X171982348Y-89193995D03*
X173252345Y-86654002D03*
X174522349Y-89193995D03*
X175792346Y-86654002D03*
X177062350Y-89193995D03*
X178332351Y-86654002D03*
%TD*%
D10*
%TO.C,J1*%
X117009349Y-95543993D03*
X128439349Y-95543993D03*
D11*
X118279345Y-89193995D03*
X119549342Y-86654002D03*
X120819346Y-89193995D03*
X122089343Y-86654002D03*
X123359347Y-89193995D03*
X124629344Y-86654002D03*
X125899348Y-89193995D03*
X127169349Y-86654002D03*
%TD*%
D12*
%TO.C,J7*%
X127980000Y-108790000D03*
X202830000Y-108790000D03*
D13*
X139485000Y-106645000D03*
X141645000Y-106645000D03*
X143805000Y-106645000D03*
X145965000Y-106645000D03*
X148125000Y-106645000D03*
X150285000Y-106645000D03*
X152445000Y-106645000D03*
X154605000Y-106645000D03*
X156765000Y-106645000D03*
X158925000Y-106645000D03*
X161085000Y-106645000D03*
X163245000Y-106645000D03*
X165405000Y-106645000D03*
X167565000Y-106645000D03*
X169725000Y-106645000D03*
X171885000Y-106645000D03*
X174045000Y-106645000D03*
X176205000Y-106645000D03*
X178365000Y-106645000D03*
X180525000Y-106645000D03*
X182685000Y-106645000D03*
X184845000Y-106645000D03*
X187005000Y-106645000D03*
X189165000Y-106645000D03*
X191325000Y-106645000D03*
X139485000Y-110935000D03*
X141645000Y-110935000D03*
X143805000Y-110935000D03*
X145965000Y-110935000D03*
X148125000Y-110935000D03*
X150285000Y-110935000D03*
X152445000Y-110935000D03*
X154605000Y-110935000D03*
X156765000Y-110935000D03*
X158925000Y-110935000D03*
X161085000Y-110935000D03*
X163245000Y-110935000D03*
X165405000Y-110935000D03*
X167565000Y-110935000D03*
X169725000Y-110935000D03*
X171885000Y-110935000D03*
X174045000Y-110935000D03*
X176205000Y-110935000D03*
X178365000Y-110935000D03*
X180525000Y-110935000D03*
X182685000Y-110935000D03*
X184845000Y-110935000D03*
X187005000Y-110935000D03*
X189165000Y-110935000D03*
X191325000Y-110935000D03*
%TD*%
M02*
