M48
; DRILL file {KiCad 8.0.1} date 2024-07-20T02:09:24+0100
; FORMAT={-:-/ absolute / inch / decimal}
; #@! TF.CreationDate,2024-07-20T02:09:24+01:00
; #@! TF.GenerationSoftware,Kicad,Pcbnew,8.0.1
; #@! TF.FileFunction,Plated,1,2,PTH
FMAT,2
INCH
; #@! TA.AperFunction,Plated,PTH,ComponentDrill
T1C0.0315
; #@! TA.AperFunction,Plated,PTH,ComponentDrill
T2C0.0354
%
G90
G05
T1
X5.4719Y-4.1986
X5.4719Y-4.3675
X5.5569Y-4.1986
X5.5569Y-4.3675
X5.6419Y-4.1986
X5.6419Y-4.3675
X5.727Y-4.1986
X5.727Y-4.3675
X5.812Y-4.1986
X5.812Y-4.3675
X5.8971Y-4.1986
X5.8971Y-4.3675
X5.9821Y-4.1986
X5.9821Y-4.3675
X6.0671Y-4.1986
X6.0671Y-4.3675
X6.1522Y-4.1986
X6.1522Y-4.3675
X6.2372Y-4.1986
X6.2372Y-4.3675
X6.3223Y-4.1986
X6.3223Y-4.3675
X6.4073Y-4.1986
X6.4073Y-4.3675
X6.4923Y-4.1986
X6.4923Y-4.3675
X6.5774Y-4.1986
X6.5774Y-4.3675
X6.6624Y-4.1986
X6.6624Y-4.3675
X6.7474Y-4.1986
X6.7474Y-4.3675
X6.8325Y-4.1986
X6.8325Y-4.3675
X6.9175Y-4.1986
X6.9175Y-4.3675
X7.0026Y-4.1986
X7.0026Y-4.3675
X7.0876Y-4.1986
X7.0876Y-4.3675
X7.1726Y-4.1986
X7.1726Y-4.3675
X7.2577Y-4.1986
X7.2577Y-4.3675
X7.3427Y-4.1986
X7.3427Y-4.3675
X7.4278Y-4.1986
X7.4278Y-4.3675
X7.5128Y-4.1986
X7.5128Y-4.3675
T2
X4.7496Y-3.5116
X4.7996Y-3.4116
X4.8496Y-3.5116
X4.8996Y-3.4116
X4.9496Y-3.5116
X4.9996Y-3.4116
X5.0496Y-3.5116
X5.0996Y-3.4116
X5.3839Y-3.5116
X5.4339Y-3.4116
X5.4839Y-3.5116
X5.5339Y-3.4116
X5.5839Y-3.5116
X5.6339Y-3.4116
X5.6839Y-3.5116
X5.7339Y-3.4116
X6.0181Y-3.5116
X6.0681Y-3.4116
X6.1181Y-3.5116
X6.1681Y-3.4116
X6.2181Y-3.5116
X6.2681Y-3.4116
X6.3181Y-3.5116
X6.3681Y-3.4116
X6.6524Y-3.5116
X6.7024Y-3.4116
X6.7524Y-3.5116
X6.8024Y-3.4116
X6.8524Y-3.5116
X6.9024Y-3.4116
X6.9524Y-3.5116
X7.0024Y-3.4116
X7.2866Y-3.5116
X7.3366Y-3.4116
X7.3866Y-3.5116
X7.4366Y-3.4116
X7.4866Y-3.5116
X7.5366Y-3.4116
X7.5866Y-3.5116
X7.6366Y-3.4116
X7.9209Y-3.5116
X7.9709Y-3.4116
X8.0209Y-3.5116
X8.0709Y-3.4116
X8.1209Y-3.5116
X8.1709Y-3.4116
X8.2209Y-3.5116
X8.2709Y-3.4116
M30
