%TF.GenerationSoftware,KiCad,Pcbnew,8.0.1*%
%TF.CreationDate,2024-07-20T02:09:25+01:00*%
%TF.ProjectId,MINI_TRUNK_6_MAIN,4d494e49-5f54-4525-954e-4b5f365f4d41,rev?*%
%TF.SameCoordinates,Original*%
%TF.FileFunction,Drillmap*%
%TF.FilePolarity,Positive*%
%FSLAX45Y45*%
G04 Gerber Fmt 4.5, Leading zero omitted, Abs format (unit mm)*
G04 Created by KiCad (PCBNEW 8.0.1) date 2024-07-20 02:09:25*
%MOMM*%
%LPD*%
G01*
G04 APERTURE LIST*
%ADD10C,0.050000*%
%ADD11C,0.200000*%
%ADD12C,0.300000*%
%ADD13C,0.320000*%
G04 APERTURE END LIST*
D10*
X34532727Y-12096368D02*
X23569102Y-12096604D01*
X10801500Y-8584500D02*
G75*
G02*
X11058479Y-8327000I257500J-1D01*
G01*
X34789706Y-10211368D02*
X23311206Y-10211368D01*
X23568289Y-8327000D02*
X34531914Y-8326764D01*
X23311310Y-9812000D02*
X23311310Y-8584499D01*
X23311310Y-9812000D02*
X34789810Y-9812000D01*
X22280000Y-11839104D02*
G75*
G02*
X22023021Y-12096599I-257500J4D01*
G01*
X34531914Y-8326764D02*
G75*
G02*
X34789413Y-8583743I4J-257495D01*
G01*
X11058479Y-8327000D02*
X22022104Y-8326764D01*
X22023021Y-12096604D02*
X11058896Y-12096236D01*
X23311310Y-8584499D02*
G75*
G02*
X23568289Y-8327002I257498J0D01*
G01*
X34789414Y-8583743D02*
X34789810Y-9812000D01*
X34789706Y-10211368D02*
X34789706Y-11838869D01*
X11058896Y-12096236D02*
G75*
G02*
X10801405Y-11839257I4J257496D01*
G01*
X23311602Y-11839625D02*
X23311206Y-10211368D01*
X34789706Y-11838869D02*
G75*
G02*
X34532727Y-12096366I-257498J1D01*
G01*
X33143008Y-10878184D02*
G75*
G02*
X32343008Y-10878184I-400000J0D01*
G01*
X32343008Y-10878184D02*
G75*
G02*
X33143008Y-10878184I400000J0D01*
G01*
X22022104Y-8326764D02*
G75*
G02*
X22279595Y-8583743I-4J-257496D01*
G01*
X10801396Y-11839257D02*
X10801500Y-8584500D01*
X25658008Y-10878184D02*
G75*
G02*
X24858008Y-10878184I-400000J0D01*
G01*
X24858008Y-10878184D02*
G75*
G02*
X25658008Y-10878184I400000J0D01*
G01*
X23569102Y-12096604D02*
G75*
G02*
X23311603Y-11839625I-4J257496D01*
G01*
X22279604Y-8583743D02*
X22280000Y-11839104D01*
D11*
D12*
X11787018Y-9404399D02*
X12087018Y-9704399D01*
X12087018Y-9404399D02*
X11787018Y-9704399D01*
X12930018Y-9404399D02*
X13230018Y-9704399D01*
X13230018Y-9404399D02*
X12930018Y-9704399D01*
X13398018Y-9404399D02*
X13698018Y-9704399D01*
X13698018Y-9404399D02*
X13398018Y-9704399D01*
X14541018Y-9404399D02*
X14841018Y-9704399D01*
X14841018Y-9404399D02*
X14541018Y-9704399D01*
X15009018Y-9404399D02*
X15309018Y-9704399D01*
X15309018Y-9404399D02*
X15009018Y-9704399D01*
X16152018Y-9404399D02*
X16452018Y-9704399D01*
X16452018Y-9404399D02*
X16152018Y-9704399D01*
X16620018Y-9404399D02*
X16920018Y-9704399D01*
X16920018Y-9404399D02*
X16620018Y-9704399D01*
X17763018Y-9404399D02*
X18063018Y-9704399D01*
X18063018Y-9404399D02*
X17763018Y-9704399D01*
X18231018Y-9404399D02*
X18531018Y-9704399D01*
X18531018Y-9404399D02*
X18231018Y-9704399D01*
X19374018Y-9404399D02*
X19674018Y-9704399D01*
X19674018Y-9404399D02*
X19374018Y-9704399D01*
X19842019Y-9404399D02*
X20142019Y-9704399D01*
X20142019Y-9404399D02*
X19842019Y-9704399D01*
X20985019Y-9404399D02*
X21285019Y-9704399D01*
X21285019Y-9404399D02*
X20985019Y-9704399D01*
D13*
X11402000Y-9270500D02*
G75*
G02*
X11082000Y-9270500I-160000J0D01*
G01*
X11082000Y-9270500D02*
G75*
G02*
X11402000Y-9270500I160000J0D01*
G01*
X11402000Y-11152500D02*
G75*
G02*
X11082000Y-11152500I-160000J0D01*
G01*
X11082000Y-11152500D02*
G75*
G02*
X11402000Y-11152500I160000J0D01*
G01*
X12908018Y-10879000D02*
G75*
G02*
X12588018Y-10879000I-160000J0D01*
G01*
X12588018Y-10879000D02*
G75*
G02*
X12908018Y-10879000I160000J0D01*
G01*
X20393018Y-10879000D02*
G75*
G02*
X20073018Y-10879000I-160000J0D01*
G01*
X20073018Y-10879000D02*
G75*
G02*
X20393018Y-10879000I160000J0D01*
G01*
X21999000Y-9270500D02*
G75*
G02*
X21679000Y-9270500I-160000J0D01*
G01*
X21679000Y-9270500D02*
G75*
G02*
X21999000Y-9270500I160000J0D01*
G01*
X21999000Y-11152500D02*
G75*
G02*
X21679000Y-11152500I-160000J0D01*
G01*
X21679000Y-11152500D02*
G75*
G02*
X21999000Y-11152500I160000J0D01*
G01*
X23912008Y-9270500D02*
G75*
G02*
X23592008Y-9270500I-160000J0D01*
G01*
X23592008Y-9270500D02*
G75*
G02*
X23912008Y-9270500I160000J0D01*
G01*
X23912008Y-11152868D02*
G75*
G02*
X23592008Y-11152868I-160000J0D01*
G01*
X23592008Y-11152868D02*
G75*
G02*
X23912008Y-11152868I160000J0D01*
G01*
X34509008Y-9270500D02*
G75*
G02*
X34189008Y-9270500I-160000J0D01*
G01*
X34189008Y-9270500D02*
G75*
G02*
X34509008Y-9270500I160000J0D01*
G01*
X34509008Y-11152868D02*
G75*
G02*
X34189008Y-11152868I-160000J0D01*
G01*
X34189008Y-11152868D02*
G75*
G02*
X34509008Y-11152868I160000J0D01*
G01*
D11*
X11059673Y-12410588D02*
X11059673Y-12210588D01*
X11059673Y-12210588D02*
X11107292Y-12210588D01*
X11107292Y-12210588D02*
X11135863Y-12220111D01*
X11135863Y-12220111D02*
X11154911Y-12239159D01*
X11154911Y-12239159D02*
X11164435Y-12258207D01*
X11164435Y-12258207D02*
X11173959Y-12296302D01*
X11173959Y-12296302D02*
X11173959Y-12324873D01*
X11173959Y-12324873D02*
X11164435Y-12362969D01*
X11164435Y-12362969D02*
X11154911Y-12382016D01*
X11154911Y-12382016D02*
X11135863Y-12401064D01*
X11135863Y-12401064D02*
X11107292Y-12410588D01*
X11107292Y-12410588D02*
X11059673Y-12410588D01*
X11259673Y-12410588D02*
X11259673Y-12277254D01*
X11259673Y-12315350D02*
X11269197Y-12296302D01*
X11269197Y-12296302D02*
X11278720Y-12286778D01*
X11278720Y-12286778D02*
X11297768Y-12277254D01*
X11297768Y-12277254D02*
X11316816Y-12277254D01*
X11383482Y-12410588D02*
X11383482Y-12277254D01*
X11383482Y-12210588D02*
X11373959Y-12220111D01*
X11373959Y-12220111D02*
X11383482Y-12229635D01*
X11383482Y-12229635D02*
X11393006Y-12220111D01*
X11393006Y-12220111D02*
X11383482Y-12210588D01*
X11383482Y-12210588D02*
X11383482Y-12229635D01*
X11507292Y-12410588D02*
X11488244Y-12401064D01*
X11488244Y-12401064D02*
X11478720Y-12382016D01*
X11478720Y-12382016D02*
X11478720Y-12210588D01*
X11612054Y-12410588D02*
X11593006Y-12401064D01*
X11593006Y-12401064D02*
X11583482Y-12382016D01*
X11583482Y-12382016D02*
X11583482Y-12210588D01*
X11840625Y-12410588D02*
X11840625Y-12210588D01*
X11840625Y-12210588D02*
X11907292Y-12353445D01*
X11907292Y-12353445D02*
X11973959Y-12210588D01*
X11973959Y-12210588D02*
X11973959Y-12410588D01*
X12154911Y-12410588D02*
X12154911Y-12305826D01*
X12154911Y-12305826D02*
X12145387Y-12286778D01*
X12145387Y-12286778D02*
X12126340Y-12277254D01*
X12126340Y-12277254D02*
X12088244Y-12277254D01*
X12088244Y-12277254D02*
X12069197Y-12286778D01*
X12154911Y-12401064D02*
X12135863Y-12410588D01*
X12135863Y-12410588D02*
X12088244Y-12410588D01*
X12088244Y-12410588D02*
X12069197Y-12401064D01*
X12069197Y-12401064D02*
X12059673Y-12382016D01*
X12059673Y-12382016D02*
X12059673Y-12362969D01*
X12059673Y-12362969D02*
X12069197Y-12343921D01*
X12069197Y-12343921D02*
X12088244Y-12334397D01*
X12088244Y-12334397D02*
X12135863Y-12334397D01*
X12135863Y-12334397D02*
X12154911Y-12324873D01*
X12250149Y-12277254D02*
X12250149Y-12477254D01*
X12250149Y-12286778D02*
X12269197Y-12277254D01*
X12269197Y-12277254D02*
X12307292Y-12277254D01*
X12307292Y-12277254D02*
X12326340Y-12286778D01*
X12326340Y-12286778D02*
X12335863Y-12296302D01*
X12335863Y-12296302D02*
X12345387Y-12315350D01*
X12345387Y-12315350D02*
X12345387Y-12372492D01*
X12345387Y-12372492D02*
X12335863Y-12391540D01*
X12335863Y-12391540D02*
X12326340Y-12401064D01*
X12326340Y-12401064D02*
X12307292Y-12410588D01*
X12307292Y-12410588D02*
X12269197Y-12410588D01*
X12269197Y-12410588D02*
X12250149Y-12401064D01*
X12431101Y-12391540D02*
X12440625Y-12401064D01*
X12440625Y-12401064D02*
X12431101Y-12410588D01*
X12431101Y-12410588D02*
X12421578Y-12401064D01*
X12421578Y-12401064D02*
X12431101Y-12391540D01*
X12431101Y-12391540D02*
X12431101Y-12410588D01*
X12431101Y-12286778D02*
X12440625Y-12296302D01*
X12440625Y-12296302D02*
X12431101Y-12305826D01*
X12431101Y-12305826D02*
X12421578Y-12296302D01*
X12421578Y-12296302D02*
X12431101Y-12286778D01*
X12431101Y-12286778D02*
X12431101Y-12305826D01*
X10598896Y-12639104D02*
X10798896Y-12839104D01*
X10798896Y-12639104D02*
X10598896Y-12839104D01*
X11040625Y-12630588D02*
X11164435Y-12630588D01*
X11164435Y-12630588D02*
X11097768Y-12706778D01*
X11097768Y-12706778D02*
X11126340Y-12706778D01*
X11126340Y-12706778D02*
X11145387Y-12716302D01*
X11145387Y-12716302D02*
X11154911Y-12725826D01*
X11154911Y-12725826D02*
X11164435Y-12744873D01*
X11164435Y-12744873D02*
X11164435Y-12792492D01*
X11164435Y-12792492D02*
X11154911Y-12811540D01*
X11154911Y-12811540D02*
X11145387Y-12821064D01*
X11145387Y-12821064D02*
X11126340Y-12830588D01*
X11126340Y-12830588D02*
X11069197Y-12830588D01*
X11069197Y-12830588D02*
X11050149Y-12821064D01*
X11050149Y-12821064D02*
X11040625Y-12811540D01*
X11250149Y-12811540D02*
X11259673Y-12821064D01*
X11259673Y-12821064D02*
X11250149Y-12830588D01*
X11250149Y-12830588D02*
X11240625Y-12821064D01*
X11240625Y-12821064D02*
X11250149Y-12811540D01*
X11250149Y-12811540D02*
X11250149Y-12830588D01*
X11383482Y-12630588D02*
X11402530Y-12630588D01*
X11402530Y-12630588D02*
X11421578Y-12640111D01*
X11421578Y-12640111D02*
X11431101Y-12649635D01*
X11431101Y-12649635D02*
X11440625Y-12668683D01*
X11440625Y-12668683D02*
X11450149Y-12706778D01*
X11450149Y-12706778D02*
X11450149Y-12754397D01*
X11450149Y-12754397D02*
X11440625Y-12792492D01*
X11440625Y-12792492D02*
X11431101Y-12811540D01*
X11431101Y-12811540D02*
X11421578Y-12821064D01*
X11421578Y-12821064D02*
X11402530Y-12830588D01*
X11402530Y-12830588D02*
X11383482Y-12830588D01*
X11383482Y-12830588D02*
X11364435Y-12821064D01*
X11364435Y-12821064D02*
X11354911Y-12811540D01*
X11354911Y-12811540D02*
X11345387Y-12792492D01*
X11345387Y-12792492D02*
X11335863Y-12754397D01*
X11335863Y-12754397D02*
X11335863Y-12706778D01*
X11335863Y-12706778D02*
X11345387Y-12668683D01*
X11345387Y-12668683D02*
X11354911Y-12649635D01*
X11354911Y-12649635D02*
X11364435Y-12640111D01*
X11364435Y-12640111D02*
X11383482Y-12630588D01*
X11573959Y-12630588D02*
X11593006Y-12630588D01*
X11593006Y-12630588D02*
X11612054Y-12640111D01*
X11612054Y-12640111D02*
X11621578Y-12649635D01*
X11621578Y-12649635D02*
X11631101Y-12668683D01*
X11631101Y-12668683D02*
X11640625Y-12706778D01*
X11640625Y-12706778D02*
X11640625Y-12754397D01*
X11640625Y-12754397D02*
X11631101Y-12792492D01*
X11631101Y-12792492D02*
X11621578Y-12811540D01*
X11621578Y-12811540D02*
X11612054Y-12821064D01*
X11612054Y-12821064D02*
X11593006Y-12830588D01*
X11593006Y-12830588D02*
X11573959Y-12830588D01*
X11573959Y-12830588D02*
X11554911Y-12821064D01*
X11554911Y-12821064D02*
X11545387Y-12811540D01*
X11545387Y-12811540D02*
X11535863Y-12792492D01*
X11535863Y-12792492D02*
X11526340Y-12754397D01*
X11526340Y-12754397D02*
X11526340Y-12706778D01*
X11526340Y-12706778D02*
X11535863Y-12668683D01*
X11535863Y-12668683D02*
X11545387Y-12649635D01*
X11545387Y-12649635D02*
X11554911Y-12640111D01*
X11554911Y-12640111D02*
X11573959Y-12630588D01*
X11764435Y-12630588D02*
X11783482Y-12630588D01*
X11783482Y-12630588D02*
X11802530Y-12640111D01*
X11802530Y-12640111D02*
X11812054Y-12649635D01*
X11812054Y-12649635D02*
X11821578Y-12668683D01*
X11821578Y-12668683D02*
X11831101Y-12706778D01*
X11831101Y-12706778D02*
X11831101Y-12754397D01*
X11831101Y-12754397D02*
X11821578Y-12792492D01*
X11821578Y-12792492D02*
X11812054Y-12811540D01*
X11812054Y-12811540D02*
X11802530Y-12821064D01*
X11802530Y-12821064D02*
X11783482Y-12830588D01*
X11783482Y-12830588D02*
X11764435Y-12830588D01*
X11764435Y-12830588D02*
X11745387Y-12821064D01*
X11745387Y-12821064D02*
X11735863Y-12811540D01*
X11735863Y-12811540D02*
X11726340Y-12792492D01*
X11726340Y-12792492D02*
X11716816Y-12754397D01*
X11716816Y-12754397D02*
X11716816Y-12706778D01*
X11716816Y-12706778D02*
X11726340Y-12668683D01*
X11726340Y-12668683D02*
X11735863Y-12649635D01*
X11735863Y-12649635D02*
X11745387Y-12640111D01*
X11745387Y-12640111D02*
X11764435Y-12630588D01*
X11916816Y-12830588D02*
X11916816Y-12697254D01*
X11916816Y-12716302D02*
X11926340Y-12706778D01*
X11926340Y-12706778D02*
X11945387Y-12697254D01*
X11945387Y-12697254D02*
X11973959Y-12697254D01*
X11973959Y-12697254D02*
X11993006Y-12706778D01*
X11993006Y-12706778D02*
X12002530Y-12725826D01*
X12002530Y-12725826D02*
X12002530Y-12830588D01*
X12002530Y-12725826D02*
X12012054Y-12706778D01*
X12012054Y-12706778D02*
X12031101Y-12697254D01*
X12031101Y-12697254D02*
X12059673Y-12697254D01*
X12059673Y-12697254D02*
X12078721Y-12706778D01*
X12078721Y-12706778D02*
X12088244Y-12725826D01*
X12088244Y-12725826D02*
X12088244Y-12830588D01*
X12183482Y-12830588D02*
X12183482Y-12697254D01*
X12183482Y-12716302D02*
X12193006Y-12706778D01*
X12193006Y-12706778D02*
X12212054Y-12697254D01*
X12212054Y-12697254D02*
X12240625Y-12697254D01*
X12240625Y-12697254D02*
X12259673Y-12706778D01*
X12259673Y-12706778D02*
X12269197Y-12725826D01*
X12269197Y-12725826D02*
X12269197Y-12830588D01*
X12269197Y-12725826D02*
X12278721Y-12706778D01*
X12278721Y-12706778D02*
X12297768Y-12697254D01*
X12297768Y-12697254D02*
X12326340Y-12697254D01*
X12326340Y-12697254D02*
X12345387Y-12706778D01*
X12345387Y-12706778D02*
X12354911Y-12725826D01*
X12354911Y-12725826D02*
X12354911Y-12830588D01*
X12745387Y-12621064D02*
X12573959Y-12878207D01*
X13002530Y-12630588D02*
X13021578Y-12630588D01*
X13021578Y-12630588D02*
X13040625Y-12640111D01*
X13040625Y-12640111D02*
X13050149Y-12649635D01*
X13050149Y-12649635D02*
X13059673Y-12668683D01*
X13059673Y-12668683D02*
X13069197Y-12706778D01*
X13069197Y-12706778D02*
X13069197Y-12754397D01*
X13069197Y-12754397D02*
X13059673Y-12792492D01*
X13059673Y-12792492D02*
X13050149Y-12811540D01*
X13050149Y-12811540D02*
X13040625Y-12821064D01*
X13040625Y-12821064D02*
X13021578Y-12830588D01*
X13021578Y-12830588D02*
X13002530Y-12830588D01*
X13002530Y-12830588D02*
X12983483Y-12821064D01*
X12983483Y-12821064D02*
X12973959Y-12811540D01*
X12973959Y-12811540D02*
X12964435Y-12792492D01*
X12964435Y-12792492D02*
X12954911Y-12754397D01*
X12954911Y-12754397D02*
X12954911Y-12706778D01*
X12954911Y-12706778D02*
X12964435Y-12668683D01*
X12964435Y-12668683D02*
X12973959Y-12649635D01*
X12973959Y-12649635D02*
X12983483Y-12640111D01*
X12983483Y-12640111D02*
X13002530Y-12630588D01*
X13154911Y-12811540D02*
X13164435Y-12821064D01*
X13164435Y-12821064D02*
X13154911Y-12830588D01*
X13154911Y-12830588D02*
X13145387Y-12821064D01*
X13145387Y-12821064D02*
X13154911Y-12811540D01*
X13154911Y-12811540D02*
X13154911Y-12830588D01*
X13354911Y-12830588D02*
X13240625Y-12830588D01*
X13297768Y-12830588D02*
X13297768Y-12630588D01*
X13297768Y-12630588D02*
X13278721Y-12659159D01*
X13278721Y-12659159D02*
X13259673Y-12678207D01*
X13259673Y-12678207D02*
X13240625Y-12687730D01*
X13545387Y-12830588D02*
X13431102Y-12830588D01*
X13488244Y-12830588D02*
X13488244Y-12630588D01*
X13488244Y-12630588D02*
X13469197Y-12659159D01*
X13469197Y-12659159D02*
X13450149Y-12678207D01*
X13450149Y-12678207D02*
X13431102Y-12687730D01*
X13659673Y-12716302D02*
X13640625Y-12706778D01*
X13640625Y-12706778D02*
X13631102Y-12697254D01*
X13631102Y-12697254D02*
X13621578Y-12678207D01*
X13621578Y-12678207D02*
X13621578Y-12668683D01*
X13621578Y-12668683D02*
X13631102Y-12649635D01*
X13631102Y-12649635D02*
X13640625Y-12640111D01*
X13640625Y-12640111D02*
X13659673Y-12630588D01*
X13659673Y-12630588D02*
X13697768Y-12630588D01*
X13697768Y-12630588D02*
X13716816Y-12640111D01*
X13716816Y-12640111D02*
X13726340Y-12649635D01*
X13726340Y-12649635D02*
X13735864Y-12668683D01*
X13735864Y-12668683D02*
X13735864Y-12678207D01*
X13735864Y-12678207D02*
X13726340Y-12697254D01*
X13726340Y-12697254D02*
X13716816Y-12706778D01*
X13716816Y-12706778D02*
X13697768Y-12716302D01*
X13697768Y-12716302D02*
X13659673Y-12716302D01*
X13659673Y-12716302D02*
X13640625Y-12725826D01*
X13640625Y-12725826D02*
X13631102Y-12735350D01*
X13631102Y-12735350D02*
X13621578Y-12754397D01*
X13621578Y-12754397D02*
X13621578Y-12792492D01*
X13621578Y-12792492D02*
X13631102Y-12811540D01*
X13631102Y-12811540D02*
X13640625Y-12821064D01*
X13640625Y-12821064D02*
X13659673Y-12830588D01*
X13659673Y-12830588D02*
X13697768Y-12830588D01*
X13697768Y-12830588D02*
X13716816Y-12821064D01*
X13716816Y-12821064D02*
X13726340Y-12811540D01*
X13726340Y-12811540D02*
X13735864Y-12792492D01*
X13735864Y-12792492D02*
X13735864Y-12754397D01*
X13735864Y-12754397D02*
X13726340Y-12735350D01*
X13726340Y-12735350D02*
X13716816Y-12725826D01*
X13716816Y-12725826D02*
X13697768Y-12716302D01*
X13926340Y-12830588D02*
X13812054Y-12830588D01*
X13869197Y-12830588D02*
X13869197Y-12630588D01*
X13869197Y-12630588D02*
X13850149Y-12659159D01*
X13850149Y-12659159D02*
X13831102Y-12678207D01*
X13831102Y-12678207D02*
X13812054Y-12687730D01*
X14002530Y-12630588D02*
X14002530Y-12668683D01*
X14078721Y-12630588D02*
X14078721Y-12668683D01*
X14373959Y-12906778D02*
X14364435Y-12897254D01*
X14364435Y-12897254D02*
X14345387Y-12868683D01*
X14345387Y-12868683D02*
X14335864Y-12849635D01*
X14335864Y-12849635D02*
X14326340Y-12821064D01*
X14326340Y-12821064D02*
X14316816Y-12773445D01*
X14316816Y-12773445D02*
X14316816Y-12735350D01*
X14316816Y-12735350D02*
X14326340Y-12687730D01*
X14326340Y-12687730D02*
X14335864Y-12659159D01*
X14335864Y-12659159D02*
X14345387Y-12640111D01*
X14345387Y-12640111D02*
X14364435Y-12611540D01*
X14364435Y-12611540D02*
X14373959Y-12602016D01*
X14554911Y-12830588D02*
X14440626Y-12830588D01*
X14497768Y-12830588D02*
X14497768Y-12630588D01*
X14497768Y-12630588D02*
X14478721Y-12659159D01*
X14478721Y-12659159D02*
X14459673Y-12678207D01*
X14459673Y-12678207D02*
X14440626Y-12687730D01*
X14631102Y-12649635D02*
X14640626Y-12640111D01*
X14640626Y-12640111D02*
X14659673Y-12630588D01*
X14659673Y-12630588D02*
X14707292Y-12630588D01*
X14707292Y-12630588D02*
X14726340Y-12640111D01*
X14726340Y-12640111D02*
X14735864Y-12649635D01*
X14735864Y-12649635D02*
X14745387Y-12668683D01*
X14745387Y-12668683D02*
X14745387Y-12687730D01*
X14745387Y-12687730D02*
X14735864Y-12716302D01*
X14735864Y-12716302D02*
X14621578Y-12830588D01*
X14621578Y-12830588D02*
X14745387Y-12830588D01*
X14983483Y-12830588D02*
X14983483Y-12630588D01*
X15069197Y-12830588D02*
X15069197Y-12725826D01*
X15069197Y-12725826D02*
X15059673Y-12706778D01*
X15059673Y-12706778D02*
X15040626Y-12697254D01*
X15040626Y-12697254D02*
X15012054Y-12697254D01*
X15012054Y-12697254D02*
X14993007Y-12706778D01*
X14993007Y-12706778D02*
X14983483Y-12716302D01*
X15193007Y-12830588D02*
X15173959Y-12821064D01*
X15173959Y-12821064D02*
X15164435Y-12811540D01*
X15164435Y-12811540D02*
X15154911Y-12792492D01*
X15154911Y-12792492D02*
X15154911Y-12735350D01*
X15154911Y-12735350D02*
X15164435Y-12716302D01*
X15164435Y-12716302D02*
X15173959Y-12706778D01*
X15173959Y-12706778D02*
X15193007Y-12697254D01*
X15193007Y-12697254D02*
X15221578Y-12697254D01*
X15221578Y-12697254D02*
X15240626Y-12706778D01*
X15240626Y-12706778D02*
X15250149Y-12716302D01*
X15250149Y-12716302D02*
X15259673Y-12735350D01*
X15259673Y-12735350D02*
X15259673Y-12792492D01*
X15259673Y-12792492D02*
X15250149Y-12811540D01*
X15250149Y-12811540D02*
X15240626Y-12821064D01*
X15240626Y-12821064D02*
X15221578Y-12830588D01*
X15221578Y-12830588D02*
X15193007Y-12830588D01*
X15373959Y-12830588D02*
X15354911Y-12821064D01*
X15354911Y-12821064D02*
X15345388Y-12802016D01*
X15345388Y-12802016D02*
X15345388Y-12630588D01*
X15526340Y-12821064D02*
X15507292Y-12830588D01*
X15507292Y-12830588D02*
X15469197Y-12830588D01*
X15469197Y-12830588D02*
X15450149Y-12821064D01*
X15450149Y-12821064D02*
X15440626Y-12802016D01*
X15440626Y-12802016D02*
X15440626Y-12725826D01*
X15440626Y-12725826D02*
X15450149Y-12706778D01*
X15450149Y-12706778D02*
X15469197Y-12697254D01*
X15469197Y-12697254D02*
X15507292Y-12697254D01*
X15507292Y-12697254D02*
X15526340Y-12706778D01*
X15526340Y-12706778D02*
X15535864Y-12725826D01*
X15535864Y-12725826D02*
X15535864Y-12744873D01*
X15535864Y-12744873D02*
X15440626Y-12763921D01*
X15612054Y-12821064D02*
X15631102Y-12830588D01*
X15631102Y-12830588D02*
X15669197Y-12830588D01*
X15669197Y-12830588D02*
X15688245Y-12821064D01*
X15688245Y-12821064D02*
X15697769Y-12802016D01*
X15697769Y-12802016D02*
X15697769Y-12792492D01*
X15697769Y-12792492D02*
X15688245Y-12773445D01*
X15688245Y-12773445D02*
X15669197Y-12763921D01*
X15669197Y-12763921D02*
X15640626Y-12763921D01*
X15640626Y-12763921D02*
X15621578Y-12754397D01*
X15621578Y-12754397D02*
X15612054Y-12735350D01*
X15612054Y-12735350D02*
X15612054Y-12725826D01*
X15612054Y-12725826D02*
X15621578Y-12706778D01*
X15621578Y-12706778D02*
X15640626Y-12697254D01*
X15640626Y-12697254D02*
X15669197Y-12697254D01*
X15669197Y-12697254D02*
X15688245Y-12706778D01*
X15764435Y-12906778D02*
X15773959Y-12897254D01*
X15773959Y-12897254D02*
X15793007Y-12868683D01*
X15793007Y-12868683D02*
X15802530Y-12849635D01*
X15802530Y-12849635D02*
X15812054Y-12821064D01*
X15812054Y-12821064D02*
X15821578Y-12773445D01*
X15821578Y-12773445D02*
X15821578Y-12735350D01*
X15821578Y-12735350D02*
X15812054Y-12687730D01*
X15812054Y-12687730D02*
X15802530Y-12659159D01*
X15802530Y-12659159D02*
X15793007Y-12640111D01*
X15793007Y-12640111D02*
X15773959Y-12611540D01*
X15773959Y-12611540D02*
X15764435Y-12602016D01*
X16126340Y-12906778D02*
X16116816Y-12897254D01*
X16116816Y-12897254D02*
X16097769Y-12868683D01*
X16097769Y-12868683D02*
X16088245Y-12849635D01*
X16088245Y-12849635D02*
X16078721Y-12821064D01*
X16078721Y-12821064D02*
X16069197Y-12773445D01*
X16069197Y-12773445D02*
X16069197Y-12735350D01*
X16069197Y-12735350D02*
X16078721Y-12687730D01*
X16078721Y-12687730D02*
X16088245Y-12659159D01*
X16088245Y-12659159D02*
X16097769Y-12640111D01*
X16097769Y-12640111D02*
X16116816Y-12611540D01*
X16116816Y-12611540D02*
X16126340Y-12602016D01*
X16202530Y-12697254D02*
X16202530Y-12830588D01*
X16202530Y-12716302D02*
X16212054Y-12706778D01*
X16212054Y-12706778D02*
X16231102Y-12697254D01*
X16231102Y-12697254D02*
X16259673Y-12697254D01*
X16259673Y-12697254D02*
X16278721Y-12706778D01*
X16278721Y-12706778D02*
X16288245Y-12725826D01*
X16288245Y-12725826D02*
X16288245Y-12830588D01*
X16412054Y-12830588D02*
X16393007Y-12821064D01*
X16393007Y-12821064D02*
X16383483Y-12811540D01*
X16383483Y-12811540D02*
X16373959Y-12792492D01*
X16373959Y-12792492D02*
X16373959Y-12735350D01*
X16373959Y-12735350D02*
X16383483Y-12716302D01*
X16383483Y-12716302D02*
X16393007Y-12706778D01*
X16393007Y-12706778D02*
X16412054Y-12697254D01*
X16412054Y-12697254D02*
X16440626Y-12697254D01*
X16440626Y-12697254D02*
X16459673Y-12706778D01*
X16459673Y-12706778D02*
X16469197Y-12716302D01*
X16469197Y-12716302D02*
X16478721Y-12735350D01*
X16478721Y-12735350D02*
X16478721Y-12792492D01*
X16478721Y-12792492D02*
X16469197Y-12811540D01*
X16469197Y-12811540D02*
X16459673Y-12821064D01*
X16459673Y-12821064D02*
X16440626Y-12830588D01*
X16440626Y-12830588D02*
X16412054Y-12830588D01*
X16535864Y-12697254D02*
X16612054Y-12697254D01*
X16564435Y-12630588D02*
X16564435Y-12802016D01*
X16564435Y-12802016D02*
X16573959Y-12821064D01*
X16573959Y-12821064D02*
X16593007Y-12830588D01*
X16593007Y-12830588D02*
X16612054Y-12830588D01*
X16831102Y-12697254D02*
X16831102Y-12897254D01*
X16831102Y-12706778D02*
X16850150Y-12697254D01*
X16850150Y-12697254D02*
X16888245Y-12697254D01*
X16888245Y-12697254D02*
X16907293Y-12706778D01*
X16907293Y-12706778D02*
X16916816Y-12716302D01*
X16916816Y-12716302D02*
X16926340Y-12735350D01*
X16926340Y-12735350D02*
X16926340Y-12792492D01*
X16926340Y-12792492D02*
X16916816Y-12811540D01*
X16916816Y-12811540D02*
X16907293Y-12821064D01*
X16907293Y-12821064D02*
X16888245Y-12830588D01*
X16888245Y-12830588D02*
X16850150Y-12830588D01*
X16850150Y-12830588D02*
X16831102Y-12821064D01*
X17040626Y-12830588D02*
X17021578Y-12821064D01*
X17021578Y-12821064D02*
X17012054Y-12802016D01*
X17012054Y-12802016D02*
X17012054Y-12630588D01*
X17202531Y-12830588D02*
X17202531Y-12725826D01*
X17202531Y-12725826D02*
X17193007Y-12706778D01*
X17193007Y-12706778D02*
X17173959Y-12697254D01*
X17173959Y-12697254D02*
X17135864Y-12697254D01*
X17135864Y-12697254D02*
X17116816Y-12706778D01*
X17202531Y-12821064D02*
X17183483Y-12830588D01*
X17183483Y-12830588D02*
X17135864Y-12830588D01*
X17135864Y-12830588D02*
X17116816Y-12821064D01*
X17116816Y-12821064D02*
X17107293Y-12802016D01*
X17107293Y-12802016D02*
X17107293Y-12782969D01*
X17107293Y-12782969D02*
X17116816Y-12763921D01*
X17116816Y-12763921D02*
X17135864Y-12754397D01*
X17135864Y-12754397D02*
X17183483Y-12754397D01*
X17183483Y-12754397D02*
X17202531Y-12744873D01*
X17269197Y-12697254D02*
X17345388Y-12697254D01*
X17297769Y-12630588D02*
X17297769Y-12802016D01*
X17297769Y-12802016D02*
X17307293Y-12821064D01*
X17307293Y-12821064D02*
X17326340Y-12830588D01*
X17326340Y-12830588D02*
X17345388Y-12830588D01*
X17488245Y-12821064D02*
X17469197Y-12830588D01*
X17469197Y-12830588D02*
X17431102Y-12830588D01*
X17431102Y-12830588D02*
X17412054Y-12821064D01*
X17412054Y-12821064D02*
X17402531Y-12802016D01*
X17402531Y-12802016D02*
X17402531Y-12725826D01*
X17402531Y-12725826D02*
X17412054Y-12706778D01*
X17412054Y-12706778D02*
X17431102Y-12697254D01*
X17431102Y-12697254D02*
X17469197Y-12697254D01*
X17469197Y-12697254D02*
X17488245Y-12706778D01*
X17488245Y-12706778D02*
X17497769Y-12725826D01*
X17497769Y-12725826D02*
X17497769Y-12744873D01*
X17497769Y-12744873D02*
X17402531Y-12763921D01*
X17669197Y-12830588D02*
X17669197Y-12630588D01*
X17669197Y-12821064D02*
X17650150Y-12830588D01*
X17650150Y-12830588D02*
X17612054Y-12830588D01*
X17612054Y-12830588D02*
X17593007Y-12821064D01*
X17593007Y-12821064D02*
X17583483Y-12811540D01*
X17583483Y-12811540D02*
X17573959Y-12792492D01*
X17573959Y-12792492D02*
X17573959Y-12735350D01*
X17573959Y-12735350D02*
X17583483Y-12716302D01*
X17583483Y-12716302D02*
X17593007Y-12706778D01*
X17593007Y-12706778D02*
X17612054Y-12697254D01*
X17612054Y-12697254D02*
X17650150Y-12697254D01*
X17650150Y-12697254D02*
X17669197Y-12706778D01*
X17745388Y-12906778D02*
X17754912Y-12897254D01*
X17754912Y-12897254D02*
X17773959Y-12868683D01*
X17773959Y-12868683D02*
X17783483Y-12849635D01*
X17783483Y-12849635D02*
X17793007Y-12821064D01*
X17793007Y-12821064D02*
X17802531Y-12773445D01*
X17802531Y-12773445D02*
X17802531Y-12735350D01*
X17802531Y-12735350D02*
X17793007Y-12687730D01*
X17793007Y-12687730D02*
X17783483Y-12659159D01*
X17783483Y-12659159D02*
X17773959Y-12640111D01*
X17773959Y-12640111D02*
X17754912Y-12611540D01*
X17754912Y-12611540D02*
X17745388Y-12602016D01*
X10798896Y-13059104D02*
G75*
G02*
X10598896Y-13059104I-100000J0D01*
G01*
X10598896Y-13059104D02*
G75*
G02*
X10798896Y-13059104I100000J0D01*
G01*
X11040625Y-12950588D02*
X11164435Y-12950588D01*
X11164435Y-12950588D02*
X11097768Y-13026778D01*
X11097768Y-13026778D02*
X11126340Y-13026778D01*
X11126340Y-13026778D02*
X11145387Y-13036302D01*
X11145387Y-13036302D02*
X11154911Y-13045826D01*
X11154911Y-13045826D02*
X11164435Y-13064873D01*
X11164435Y-13064873D02*
X11164435Y-13112492D01*
X11164435Y-13112492D02*
X11154911Y-13131540D01*
X11154911Y-13131540D02*
X11145387Y-13141064D01*
X11145387Y-13141064D02*
X11126340Y-13150588D01*
X11126340Y-13150588D02*
X11069197Y-13150588D01*
X11069197Y-13150588D02*
X11050149Y-13141064D01*
X11050149Y-13141064D02*
X11040625Y-13131540D01*
X11250149Y-13131540D02*
X11259673Y-13141064D01*
X11259673Y-13141064D02*
X11250149Y-13150588D01*
X11250149Y-13150588D02*
X11240625Y-13141064D01*
X11240625Y-13141064D02*
X11250149Y-13131540D01*
X11250149Y-13131540D02*
X11250149Y-13150588D01*
X11335863Y-12969635D02*
X11345387Y-12960111D01*
X11345387Y-12960111D02*
X11364435Y-12950588D01*
X11364435Y-12950588D02*
X11412054Y-12950588D01*
X11412054Y-12950588D02*
X11431101Y-12960111D01*
X11431101Y-12960111D02*
X11440625Y-12969635D01*
X11440625Y-12969635D02*
X11450149Y-12988683D01*
X11450149Y-12988683D02*
X11450149Y-13007730D01*
X11450149Y-13007730D02*
X11440625Y-13036302D01*
X11440625Y-13036302D02*
X11326340Y-13150588D01*
X11326340Y-13150588D02*
X11450149Y-13150588D01*
X11573959Y-12950588D02*
X11593006Y-12950588D01*
X11593006Y-12950588D02*
X11612054Y-12960111D01*
X11612054Y-12960111D02*
X11621578Y-12969635D01*
X11621578Y-12969635D02*
X11631101Y-12988683D01*
X11631101Y-12988683D02*
X11640625Y-13026778D01*
X11640625Y-13026778D02*
X11640625Y-13074397D01*
X11640625Y-13074397D02*
X11631101Y-13112492D01*
X11631101Y-13112492D02*
X11621578Y-13131540D01*
X11621578Y-13131540D02*
X11612054Y-13141064D01*
X11612054Y-13141064D02*
X11593006Y-13150588D01*
X11593006Y-13150588D02*
X11573959Y-13150588D01*
X11573959Y-13150588D02*
X11554911Y-13141064D01*
X11554911Y-13141064D02*
X11545387Y-13131540D01*
X11545387Y-13131540D02*
X11535863Y-13112492D01*
X11535863Y-13112492D02*
X11526340Y-13074397D01*
X11526340Y-13074397D02*
X11526340Y-13026778D01*
X11526340Y-13026778D02*
X11535863Y-12988683D01*
X11535863Y-12988683D02*
X11545387Y-12969635D01*
X11545387Y-12969635D02*
X11554911Y-12960111D01*
X11554911Y-12960111D02*
X11573959Y-12950588D01*
X11764435Y-12950588D02*
X11783482Y-12950588D01*
X11783482Y-12950588D02*
X11802530Y-12960111D01*
X11802530Y-12960111D02*
X11812054Y-12969635D01*
X11812054Y-12969635D02*
X11821578Y-12988683D01*
X11821578Y-12988683D02*
X11831101Y-13026778D01*
X11831101Y-13026778D02*
X11831101Y-13074397D01*
X11831101Y-13074397D02*
X11821578Y-13112492D01*
X11821578Y-13112492D02*
X11812054Y-13131540D01*
X11812054Y-13131540D02*
X11802530Y-13141064D01*
X11802530Y-13141064D02*
X11783482Y-13150588D01*
X11783482Y-13150588D02*
X11764435Y-13150588D01*
X11764435Y-13150588D02*
X11745387Y-13141064D01*
X11745387Y-13141064D02*
X11735863Y-13131540D01*
X11735863Y-13131540D02*
X11726340Y-13112492D01*
X11726340Y-13112492D02*
X11716816Y-13074397D01*
X11716816Y-13074397D02*
X11716816Y-13026778D01*
X11716816Y-13026778D02*
X11726340Y-12988683D01*
X11726340Y-12988683D02*
X11735863Y-12969635D01*
X11735863Y-12969635D02*
X11745387Y-12960111D01*
X11745387Y-12960111D02*
X11764435Y-12950588D01*
X11916816Y-13150588D02*
X11916816Y-13017254D01*
X11916816Y-13036302D02*
X11926340Y-13026778D01*
X11926340Y-13026778D02*
X11945387Y-13017254D01*
X11945387Y-13017254D02*
X11973959Y-13017254D01*
X11973959Y-13017254D02*
X11993006Y-13026778D01*
X11993006Y-13026778D02*
X12002530Y-13045826D01*
X12002530Y-13045826D02*
X12002530Y-13150588D01*
X12002530Y-13045826D02*
X12012054Y-13026778D01*
X12012054Y-13026778D02*
X12031101Y-13017254D01*
X12031101Y-13017254D02*
X12059673Y-13017254D01*
X12059673Y-13017254D02*
X12078721Y-13026778D01*
X12078721Y-13026778D02*
X12088244Y-13045826D01*
X12088244Y-13045826D02*
X12088244Y-13150588D01*
X12183482Y-13150588D02*
X12183482Y-13017254D01*
X12183482Y-13036302D02*
X12193006Y-13026778D01*
X12193006Y-13026778D02*
X12212054Y-13017254D01*
X12212054Y-13017254D02*
X12240625Y-13017254D01*
X12240625Y-13017254D02*
X12259673Y-13026778D01*
X12259673Y-13026778D02*
X12269197Y-13045826D01*
X12269197Y-13045826D02*
X12269197Y-13150588D01*
X12269197Y-13045826D02*
X12278721Y-13026778D01*
X12278721Y-13026778D02*
X12297768Y-13017254D01*
X12297768Y-13017254D02*
X12326340Y-13017254D01*
X12326340Y-13017254D02*
X12345387Y-13026778D01*
X12345387Y-13026778D02*
X12354911Y-13045826D01*
X12354911Y-13045826D02*
X12354911Y-13150588D01*
X12745387Y-12941064D02*
X12573959Y-13198207D01*
X13002530Y-12950588D02*
X13021578Y-12950588D01*
X13021578Y-12950588D02*
X13040625Y-12960111D01*
X13040625Y-12960111D02*
X13050149Y-12969635D01*
X13050149Y-12969635D02*
X13059673Y-12988683D01*
X13059673Y-12988683D02*
X13069197Y-13026778D01*
X13069197Y-13026778D02*
X13069197Y-13074397D01*
X13069197Y-13074397D02*
X13059673Y-13112492D01*
X13059673Y-13112492D02*
X13050149Y-13131540D01*
X13050149Y-13131540D02*
X13040625Y-13141064D01*
X13040625Y-13141064D02*
X13021578Y-13150588D01*
X13021578Y-13150588D02*
X13002530Y-13150588D01*
X13002530Y-13150588D02*
X12983483Y-13141064D01*
X12983483Y-13141064D02*
X12973959Y-13131540D01*
X12973959Y-13131540D02*
X12964435Y-13112492D01*
X12964435Y-13112492D02*
X12954911Y-13074397D01*
X12954911Y-13074397D02*
X12954911Y-13026778D01*
X12954911Y-13026778D02*
X12964435Y-12988683D01*
X12964435Y-12988683D02*
X12973959Y-12969635D01*
X12973959Y-12969635D02*
X12983483Y-12960111D01*
X12983483Y-12960111D02*
X13002530Y-12950588D01*
X13154911Y-13131540D02*
X13164435Y-13141064D01*
X13164435Y-13141064D02*
X13154911Y-13150588D01*
X13154911Y-13150588D02*
X13145387Y-13141064D01*
X13145387Y-13141064D02*
X13154911Y-13131540D01*
X13154911Y-13131540D02*
X13154911Y-13150588D01*
X13354911Y-13150588D02*
X13240625Y-13150588D01*
X13297768Y-13150588D02*
X13297768Y-12950588D01*
X13297768Y-12950588D02*
X13278721Y-12979159D01*
X13278721Y-12979159D02*
X13259673Y-12998207D01*
X13259673Y-12998207D02*
X13240625Y-13007730D01*
X13431102Y-12969635D02*
X13440625Y-12960111D01*
X13440625Y-12960111D02*
X13459673Y-12950588D01*
X13459673Y-12950588D02*
X13507292Y-12950588D01*
X13507292Y-12950588D02*
X13526340Y-12960111D01*
X13526340Y-12960111D02*
X13535864Y-12969635D01*
X13535864Y-12969635D02*
X13545387Y-12988683D01*
X13545387Y-12988683D02*
X13545387Y-13007730D01*
X13545387Y-13007730D02*
X13535864Y-13036302D01*
X13535864Y-13036302D02*
X13421578Y-13150588D01*
X13421578Y-13150588D02*
X13545387Y-13150588D01*
X13716816Y-12950588D02*
X13678721Y-12950588D01*
X13678721Y-12950588D02*
X13659673Y-12960111D01*
X13659673Y-12960111D02*
X13650149Y-12969635D01*
X13650149Y-12969635D02*
X13631102Y-12998207D01*
X13631102Y-12998207D02*
X13621578Y-13036302D01*
X13621578Y-13036302D02*
X13621578Y-13112492D01*
X13621578Y-13112492D02*
X13631102Y-13131540D01*
X13631102Y-13131540D02*
X13640625Y-13141064D01*
X13640625Y-13141064D02*
X13659673Y-13150588D01*
X13659673Y-13150588D02*
X13697768Y-13150588D01*
X13697768Y-13150588D02*
X13716816Y-13141064D01*
X13716816Y-13141064D02*
X13726340Y-13131540D01*
X13726340Y-13131540D02*
X13735864Y-13112492D01*
X13735864Y-13112492D02*
X13735864Y-13064873D01*
X13735864Y-13064873D02*
X13726340Y-13045826D01*
X13726340Y-13045826D02*
X13716816Y-13036302D01*
X13716816Y-13036302D02*
X13697768Y-13026778D01*
X13697768Y-13026778D02*
X13659673Y-13026778D01*
X13659673Y-13026778D02*
X13640625Y-13036302D01*
X13640625Y-13036302D02*
X13631102Y-13045826D01*
X13631102Y-13045826D02*
X13621578Y-13064873D01*
X13859673Y-12950588D02*
X13878721Y-12950588D01*
X13878721Y-12950588D02*
X13897768Y-12960111D01*
X13897768Y-12960111D02*
X13907292Y-12969635D01*
X13907292Y-12969635D02*
X13916816Y-12988683D01*
X13916816Y-12988683D02*
X13926340Y-13026778D01*
X13926340Y-13026778D02*
X13926340Y-13074397D01*
X13926340Y-13074397D02*
X13916816Y-13112492D01*
X13916816Y-13112492D02*
X13907292Y-13131540D01*
X13907292Y-13131540D02*
X13897768Y-13141064D01*
X13897768Y-13141064D02*
X13878721Y-13150588D01*
X13878721Y-13150588D02*
X13859673Y-13150588D01*
X13859673Y-13150588D02*
X13840625Y-13141064D01*
X13840625Y-13141064D02*
X13831102Y-13131540D01*
X13831102Y-13131540D02*
X13821578Y-13112492D01*
X13821578Y-13112492D02*
X13812054Y-13074397D01*
X13812054Y-13074397D02*
X13812054Y-13026778D01*
X13812054Y-13026778D02*
X13821578Y-12988683D01*
X13821578Y-12988683D02*
X13831102Y-12969635D01*
X13831102Y-12969635D02*
X13840625Y-12960111D01*
X13840625Y-12960111D02*
X13859673Y-12950588D01*
X14002530Y-12950588D02*
X14002530Y-12988683D01*
X14078721Y-12950588D02*
X14078721Y-12988683D01*
X14373959Y-13226778D02*
X14364435Y-13217254D01*
X14364435Y-13217254D02*
X14345387Y-13188683D01*
X14345387Y-13188683D02*
X14335864Y-13169635D01*
X14335864Y-13169635D02*
X14326340Y-13141064D01*
X14326340Y-13141064D02*
X14316816Y-13093445D01*
X14316816Y-13093445D02*
X14316816Y-13055350D01*
X14316816Y-13055350D02*
X14326340Y-13007730D01*
X14326340Y-13007730D02*
X14335864Y-12979159D01*
X14335864Y-12979159D02*
X14345387Y-12960111D01*
X14345387Y-12960111D02*
X14364435Y-12931540D01*
X14364435Y-12931540D02*
X14373959Y-12922016D01*
X14554911Y-13150588D02*
X14440626Y-13150588D01*
X14497768Y-13150588D02*
X14497768Y-12950588D01*
X14497768Y-12950588D02*
X14478721Y-12979159D01*
X14478721Y-12979159D02*
X14459673Y-12998207D01*
X14459673Y-12998207D02*
X14440626Y-13007730D01*
X14678721Y-12950588D02*
X14697768Y-12950588D01*
X14697768Y-12950588D02*
X14716816Y-12960111D01*
X14716816Y-12960111D02*
X14726340Y-12969635D01*
X14726340Y-12969635D02*
X14735864Y-12988683D01*
X14735864Y-12988683D02*
X14745387Y-13026778D01*
X14745387Y-13026778D02*
X14745387Y-13074397D01*
X14745387Y-13074397D02*
X14735864Y-13112492D01*
X14735864Y-13112492D02*
X14726340Y-13131540D01*
X14726340Y-13131540D02*
X14716816Y-13141064D01*
X14716816Y-13141064D02*
X14697768Y-13150588D01*
X14697768Y-13150588D02*
X14678721Y-13150588D01*
X14678721Y-13150588D02*
X14659673Y-13141064D01*
X14659673Y-13141064D02*
X14650149Y-13131540D01*
X14650149Y-13131540D02*
X14640626Y-13112492D01*
X14640626Y-13112492D02*
X14631102Y-13074397D01*
X14631102Y-13074397D02*
X14631102Y-13026778D01*
X14631102Y-13026778D02*
X14640626Y-12988683D01*
X14640626Y-12988683D02*
X14650149Y-12969635D01*
X14650149Y-12969635D02*
X14659673Y-12960111D01*
X14659673Y-12960111D02*
X14678721Y-12950588D01*
X14983483Y-13150588D02*
X14983483Y-12950588D01*
X15069197Y-13150588D02*
X15069197Y-13045826D01*
X15069197Y-13045826D02*
X15059673Y-13026778D01*
X15059673Y-13026778D02*
X15040626Y-13017254D01*
X15040626Y-13017254D02*
X15012054Y-13017254D01*
X15012054Y-13017254D02*
X14993007Y-13026778D01*
X14993007Y-13026778D02*
X14983483Y-13036302D01*
X15193007Y-13150588D02*
X15173959Y-13141064D01*
X15173959Y-13141064D02*
X15164435Y-13131540D01*
X15164435Y-13131540D02*
X15154911Y-13112492D01*
X15154911Y-13112492D02*
X15154911Y-13055350D01*
X15154911Y-13055350D02*
X15164435Y-13036302D01*
X15164435Y-13036302D02*
X15173959Y-13026778D01*
X15173959Y-13026778D02*
X15193007Y-13017254D01*
X15193007Y-13017254D02*
X15221578Y-13017254D01*
X15221578Y-13017254D02*
X15240626Y-13026778D01*
X15240626Y-13026778D02*
X15250149Y-13036302D01*
X15250149Y-13036302D02*
X15259673Y-13055350D01*
X15259673Y-13055350D02*
X15259673Y-13112492D01*
X15259673Y-13112492D02*
X15250149Y-13131540D01*
X15250149Y-13131540D02*
X15240626Y-13141064D01*
X15240626Y-13141064D02*
X15221578Y-13150588D01*
X15221578Y-13150588D02*
X15193007Y-13150588D01*
X15373959Y-13150588D02*
X15354911Y-13141064D01*
X15354911Y-13141064D02*
X15345388Y-13122016D01*
X15345388Y-13122016D02*
X15345388Y-12950588D01*
X15526340Y-13141064D02*
X15507292Y-13150588D01*
X15507292Y-13150588D02*
X15469197Y-13150588D01*
X15469197Y-13150588D02*
X15450149Y-13141064D01*
X15450149Y-13141064D02*
X15440626Y-13122016D01*
X15440626Y-13122016D02*
X15440626Y-13045826D01*
X15440626Y-13045826D02*
X15450149Y-13026778D01*
X15450149Y-13026778D02*
X15469197Y-13017254D01*
X15469197Y-13017254D02*
X15507292Y-13017254D01*
X15507292Y-13017254D02*
X15526340Y-13026778D01*
X15526340Y-13026778D02*
X15535864Y-13045826D01*
X15535864Y-13045826D02*
X15535864Y-13064873D01*
X15535864Y-13064873D02*
X15440626Y-13083921D01*
X15612054Y-13141064D02*
X15631102Y-13150588D01*
X15631102Y-13150588D02*
X15669197Y-13150588D01*
X15669197Y-13150588D02*
X15688245Y-13141064D01*
X15688245Y-13141064D02*
X15697769Y-13122016D01*
X15697769Y-13122016D02*
X15697769Y-13112492D01*
X15697769Y-13112492D02*
X15688245Y-13093445D01*
X15688245Y-13093445D02*
X15669197Y-13083921D01*
X15669197Y-13083921D02*
X15640626Y-13083921D01*
X15640626Y-13083921D02*
X15621578Y-13074397D01*
X15621578Y-13074397D02*
X15612054Y-13055350D01*
X15612054Y-13055350D02*
X15612054Y-13045826D01*
X15612054Y-13045826D02*
X15621578Y-13026778D01*
X15621578Y-13026778D02*
X15640626Y-13017254D01*
X15640626Y-13017254D02*
X15669197Y-13017254D01*
X15669197Y-13017254D02*
X15688245Y-13026778D01*
X15764435Y-13226778D02*
X15773959Y-13217254D01*
X15773959Y-13217254D02*
X15793007Y-13188683D01*
X15793007Y-13188683D02*
X15802530Y-13169635D01*
X15802530Y-13169635D02*
X15812054Y-13141064D01*
X15812054Y-13141064D02*
X15821578Y-13093445D01*
X15821578Y-13093445D02*
X15821578Y-13055350D01*
X15821578Y-13055350D02*
X15812054Y-13007730D01*
X15812054Y-13007730D02*
X15802530Y-12979159D01*
X15802530Y-12979159D02*
X15793007Y-12960111D01*
X15793007Y-12960111D02*
X15773959Y-12931540D01*
X15773959Y-12931540D02*
X15764435Y-12922016D01*
X16126340Y-13226778D02*
X16116816Y-13217254D01*
X16116816Y-13217254D02*
X16097769Y-13188683D01*
X16097769Y-13188683D02*
X16088245Y-13169635D01*
X16088245Y-13169635D02*
X16078721Y-13141064D01*
X16078721Y-13141064D02*
X16069197Y-13093445D01*
X16069197Y-13093445D02*
X16069197Y-13055350D01*
X16069197Y-13055350D02*
X16078721Y-13007730D01*
X16078721Y-13007730D02*
X16088245Y-12979159D01*
X16088245Y-12979159D02*
X16097769Y-12960111D01*
X16097769Y-12960111D02*
X16116816Y-12931540D01*
X16116816Y-12931540D02*
X16126340Y-12922016D01*
X16202530Y-13017254D02*
X16202530Y-13150588D01*
X16202530Y-13036302D02*
X16212054Y-13026778D01*
X16212054Y-13026778D02*
X16231102Y-13017254D01*
X16231102Y-13017254D02*
X16259673Y-13017254D01*
X16259673Y-13017254D02*
X16278721Y-13026778D01*
X16278721Y-13026778D02*
X16288245Y-13045826D01*
X16288245Y-13045826D02*
X16288245Y-13150588D01*
X16412054Y-13150588D02*
X16393007Y-13141064D01*
X16393007Y-13141064D02*
X16383483Y-13131540D01*
X16383483Y-13131540D02*
X16373959Y-13112492D01*
X16373959Y-13112492D02*
X16373959Y-13055350D01*
X16373959Y-13055350D02*
X16383483Y-13036302D01*
X16383483Y-13036302D02*
X16393007Y-13026778D01*
X16393007Y-13026778D02*
X16412054Y-13017254D01*
X16412054Y-13017254D02*
X16440626Y-13017254D01*
X16440626Y-13017254D02*
X16459673Y-13026778D01*
X16459673Y-13026778D02*
X16469197Y-13036302D01*
X16469197Y-13036302D02*
X16478721Y-13055350D01*
X16478721Y-13055350D02*
X16478721Y-13112492D01*
X16478721Y-13112492D02*
X16469197Y-13131540D01*
X16469197Y-13131540D02*
X16459673Y-13141064D01*
X16459673Y-13141064D02*
X16440626Y-13150588D01*
X16440626Y-13150588D02*
X16412054Y-13150588D01*
X16535864Y-13017254D02*
X16612054Y-13017254D01*
X16564435Y-12950588D02*
X16564435Y-13122016D01*
X16564435Y-13122016D02*
X16573959Y-13141064D01*
X16573959Y-13141064D02*
X16593007Y-13150588D01*
X16593007Y-13150588D02*
X16612054Y-13150588D01*
X16831102Y-13017254D02*
X16831102Y-13217254D01*
X16831102Y-13026778D02*
X16850150Y-13017254D01*
X16850150Y-13017254D02*
X16888245Y-13017254D01*
X16888245Y-13017254D02*
X16907293Y-13026778D01*
X16907293Y-13026778D02*
X16916816Y-13036302D01*
X16916816Y-13036302D02*
X16926340Y-13055350D01*
X16926340Y-13055350D02*
X16926340Y-13112492D01*
X16926340Y-13112492D02*
X16916816Y-13131540D01*
X16916816Y-13131540D02*
X16907293Y-13141064D01*
X16907293Y-13141064D02*
X16888245Y-13150588D01*
X16888245Y-13150588D02*
X16850150Y-13150588D01*
X16850150Y-13150588D02*
X16831102Y-13141064D01*
X17040626Y-13150588D02*
X17021578Y-13141064D01*
X17021578Y-13141064D02*
X17012054Y-13122016D01*
X17012054Y-13122016D02*
X17012054Y-12950588D01*
X17202531Y-13150588D02*
X17202531Y-13045826D01*
X17202531Y-13045826D02*
X17193007Y-13026778D01*
X17193007Y-13026778D02*
X17173959Y-13017254D01*
X17173959Y-13017254D02*
X17135864Y-13017254D01*
X17135864Y-13017254D02*
X17116816Y-13026778D01*
X17202531Y-13141064D02*
X17183483Y-13150588D01*
X17183483Y-13150588D02*
X17135864Y-13150588D01*
X17135864Y-13150588D02*
X17116816Y-13141064D01*
X17116816Y-13141064D02*
X17107293Y-13122016D01*
X17107293Y-13122016D02*
X17107293Y-13102969D01*
X17107293Y-13102969D02*
X17116816Y-13083921D01*
X17116816Y-13083921D02*
X17135864Y-13074397D01*
X17135864Y-13074397D02*
X17183483Y-13074397D01*
X17183483Y-13074397D02*
X17202531Y-13064873D01*
X17269197Y-13017254D02*
X17345388Y-13017254D01*
X17297769Y-12950588D02*
X17297769Y-13122016D01*
X17297769Y-13122016D02*
X17307293Y-13141064D01*
X17307293Y-13141064D02*
X17326340Y-13150588D01*
X17326340Y-13150588D02*
X17345388Y-13150588D01*
X17488245Y-13141064D02*
X17469197Y-13150588D01*
X17469197Y-13150588D02*
X17431102Y-13150588D01*
X17431102Y-13150588D02*
X17412054Y-13141064D01*
X17412054Y-13141064D02*
X17402531Y-13122016D01*
X17402531Y-13122016D02*
X17402531Y-13045826D01*
X17402531Y-13045826D02*
X17412054Y-13026778D01*
X17412054Y-13026778D02*
X17431102Y-13017254D01*
X17431102Y-13017254D02*
X17469197Y-13017254D01*
X17469197Y-13017254D02*
X17488245Y-13026778D01*
X17488245Y-13026778D02*
X17497769Y-13045826D01*
X17497769Y-13045826D02*
X17497769Y-13064873D01*
X17497769Y-13064873D02*
X17402531Y-13083921D01*
X17669197Y-13150588D02*
X17669197Y-12950588D01*
X17669197Y-13141064D02*
X17650150Y-13150588D01*
X17650150Y-13150588D02*
X17612054Y-13150588D01*
X17612054Y-13150588D02*
X17593007Y-13141064D01*
X17593007Y-13141064D02*
X17583483Y-13131540D01*
X17583483Y-13131540D02*
X17573959Y-13112492D01*
X17573959Y-13112492D02*
X17573959Y-13055350D01*
X17573959Y-13055350D02*
X17583483Y-13036302D01*
X17583483Y-13036302D02*
X17593007Y-13026778D01*
X17593007Y-13026778D02*
X17612054Y-13017254D01*
X17612054Y-13017254D02*
X17650150Y-13017254D01*
X17650150Y-13017254D02*
X17669197Y-13026778D01*
X17745388Y-13226778D02*
X17754912Y-13217254D01*
X17754912Y-13217254D02*
X17773959Y-13188683D01*
X17773959Y-13188683D02*
X17783483Y-13169635D01*
X17783483Y-13169635D02*
X17793007Y-13141064D01*
X17793007Y-13141064D02*
X17802531Y-13093445D01*
X17802531Y-13093445D02*
X17802531Y-13055350D01*
X17802531Y-13055350D02*
X17793007Y-13007730D01*
X17793007Y-13007730D02*
X17783483Y-12979159D01*
X17783483Y-12979159D02*
X17773959Y-12960111D01*
X17773959Y-12960111D02*
X17754912Y-12931540D01*
X17754912Y-12931540D02*
X17745388Y-12922016D01*
M02*
