%TF.GenerationSoftware,KiCad,Pcbnew,8.0.1*%
%TF.CreationDate,2024-06-26T21:25:31+01:00*%
%TF.ProjectId,MINI_TRUNK_6_MAIN,4d494e49-5f54-4525-954e-4b5f365f4d41,rev?*%
%TF.SameCoordinates,Original*%
%TF.FileFunction,Copper,L1,Top*%
%TF.FilePolarity,Positive*%
%FSLAX46Y46*%
G04 Gerber Fmt 4.6, Leading zero omitted, Abs format (unit mm)*
G04 Created by KiCad (PCBNEW 8.0.1) date 2024-06-26 21:25:31*
%MOMM*%
%LPD*%
G01*
G04 APERTURE LIST*
%TA.AperFunction,ComponentPad*%
%ADD10C,1.600000*%
%TD*%
%TA.AperFunction,ComponentPad*%
%ADD11C,1.500000*%
%TD*%
%TA.AperFunction,Conductor*%
%ADD12C,0.200000*%
%TD*%
G04 APERTURE END LIST*
D10*
%TO.P,J3,1*%
%TO.N,/L11+*%
X152388013Y-89193995D03*
%TO.P,J3,2*%
%TO.N,/L11-*%
X153658010Y-86654002D03*
%TO.P,J3,3*%
%TO.N,/L10+*%
X154928014Y-89193995D03*
%TO.P,J3,4*%
%TO.N,/L9-*%
X156198011Y-86654002D03*
%TO.P,J3,5*%
%TO.N,/L9+*%
X157468015Y-89193995D03*
%TO.P,J3,6*%
%TO.N,/L10-*%
X158738012Y-86654002D03*
%TO.P,J3,7*%
%TO.N,/L12+*%
X160008016Y-89193995D03*
%TO.P,J3,8*%
%TO.N,/L12-*%
X161278017Y-86654002D03*
%TD*%
%TO.P,J6,1*%
%TO.N,/L23+*%
X203551015Y-89193995D03*
%TO.P,J6,2*%
%TO.N,/L23-*%
X204821012Y-86654002D03*
%TO.P,J6,3*%
%TO.N,/L22+*%
X206091016Y-89193995D03*
%TO.P,J6,4*%
%TO.N,/L21-*%
X207361013Y-86654002D03*
%TO.P,J6,5*%
%TO.N,/L21+*%
X208631017Y-89193995D03*
%TO.P,J6,6*%
%TO.N,/L22-*%
X209901014Y-86654002D03*
%TO.P,J6,7*%
%TO.N,/L24+*%
X211171018Y-89193995D03*
%TO.P,J6,8*%
%TO.N,/L24-*%
X212441019Y-86654002D03*
%TD*%
%TO.P,J5,1*%
%TO.N,/L19+*%
X186496681Y-89193995D03*
%TO.P,J5,2*%
%TO.N,/L19-*%
X187766678Y-86654002D03*
%TO.P,J5,3*%
%TO.N,/L18+*%
X189036682Y-89193995D03*
%TO.P,J5,4*%
%TO.N,/L17-*%
X190306679Y-86654002D03*
%TO.P,J5,5*%
%TO.N,/L17+*%
X191576683Y-89193995D03*
%TO.P,J5,6*%
%TO.N,/L18-*%
X192846680Y-86654002D03*
%TO.P,J5,7*%
%TO.N,/L20+*%
X194116684Y-89193995D03*
%TO.P,J5,8*%
%TO.N,/L20-*%
X195386685Y-86654002D03*
%TD*%
%TO.P,J2,1*%
%TO.N,/L7+*%
X135333679Y-89193995D03*
%TO.P,J2,2*%
%TO.N,/L7-*%
X136603676Y-86654002D03*
%TO.P,J2,3*%
%TO.N,/L6+*%
X137873680Y-89193995D03*
%TO.P,J2,4*%
%TO.N,/L5-*%
X139143677Y-86654002D03*
%TO.P,J2,5*%
%TO.N,/L5+*%
X140413681Y-89193995D03*
%TO.P,J2,6*%
%TO.N,/L6-*%
X141683678Y-86654002D03*
%TO.P,J2,7*%
%TO.N,/L8+*%
X142953682Y-89193995D03*
%TO.P,J2,8*%
%TO.N,/L8-*%
X144223683Y-86654002D03*
%TD*%
%TO.P,J4,1*%
%TO.N,/L15+*%
X169442347Y-89193995D03*
%TO.P,J4,2*%
%TO.N,/L15-*%
X170712344Y-86654002D03*
%TO.P,J4,3*%
%TO.N,/L14+*%
X171982348Y-89193995D03*
%TO.P,J4,4*%
%TO.N,/L13-*%
X173252345Y-86654002D03*
%TO.P,J4,5*%
%TO.N,/L13+*%
X174522349Y-89193995D03*
%TO.P,J4,6*%
%TO.N,/L14-*%
X175792346Y-86654002D03*
%TO.P,J4,7*%
%TO.N,/L16+*%
X177062350Y-89193995D03*
%TO.P,J4,8*%
%TO.N,/L16-*%
X178332351Y-86654002D03*
%TD*%
%TO.P,J1,1*%
%TO.N,/L3+*%
X118279345Y-89193995D03*
%TO.P,J1,2*%
%TO.N,/L3-*%
X119549342Y-86654002D03*
%TO.P,J1,3*%
%TO.N,/L2+*%
X120819346Y-89193995D03*
%TO.P,J1,4*%
%TO.N,/L1-*%
X122089343Y-86654002D03*
%TO.P,J1,5*%
%TO.N,/L1+*%
X123359347Y-89193995D03*
%TO.P,J1,6*%
%TO.N,/L2-*%
X124629344Y-86654002D03*
%TO.P,J1,7*%
%TO.N,/L4+*%
X125899348Y-89193995D03*
%TO.P,J1,8*%
%TO.N,/L4-*%
X127169349Y-86654002D03*
%TD*%
D11*
%TO.P,J7,1,Pin_1*%
%TO.N,/L1-*%
X139485000Y-106645000D03*
%TO.P,J7,2,Pin_2*%
%TO.N,/L2-*%
X141645000Y-106645000D03*
%TO.P,J7,3,Pin_3*%
%TO.N,/L3-*%
X143805000Y-106645000D03*
%TO.P,J7,4,Pin_4*%
%TO.N,/L4-*%
X145965000Y-106645000D03*
%TO.P,J7,5,Pin_5*%
%TO.N,/L5-*%
X148125000Y-106645000D03*
%TO.P,J7,6,Pin_6*%
%TO.N,/L6-*%
X150285000Y-106645000D03*
%TO.P,J7,7,Pin_7*%
%TO.N,/L7-*%
X152445000Y-106645000D03*
%TO.P,J7,8,Pin_8*%
%TO.N,/L8-*%
X154605000Y-106645000D03*
%TO.P,J7,9,Pin_9*%
%TO.N,/L9-*%
X156765000Y-106645000D03*
%TO.P,J7,10,Pin_10*%
%TO.N,/L10-*%
X158925000Y-106645000D03*
%TO.P,J7,11,Pin_11*%
%TO.N,/L11-*%
X161085000Y-106645000D03*
%TO.P,J7,12,Pin_12*%
%TO.N,/L12-*%
X163245000Y-106645000D03*
%TO.P,J7,13,Pin_13*%
%TO.N,/L13-*%
X165405000Y-106645000D03*
%TO.P,J7,14,Pin_14*%
%TO.N,/L14-*%
X167565000Y-106645000D03*
%TO.P,J7,15,Pin_15*%
%TO.N,/L15-*%
X169725000Y-106645000D03*
%TO.P,J7,16,Pin_16*%
%TO.N,/L16-*%
X171885000Y-106645000D03*
%TO.P,J7,17,Pin_17*%
%TO.N,/L17-*%
X174045000Y-106645000D03*
%TO.P,J7,18,Pin_18*%
%TO.N,/L18-*%
X176205000Y-106645000D03*
%TO.P,J7,19,Pin_19*%
%TO.N,/L19-*%
X178365000Y-106645000D03*
%TO.P,J7,20,Pin_20*%
%TO.N,/L20-*%
X180525000Y-106645000D03*
%TO.P,J7,21,Pin_21*%
%TO.N,/L21-*%
X182685000Y-106645000D03*
%TO.P,J7,22,Pin_22*%
%TO.N,/L22-*%
X184845000Y-106645000D03*
%TO.P,J7,23,Pin_23*%
%TO.N,/L23-*%
X187005000Y-106645000D03*
%TO.P,J7,24,Pin_24*%
%TO.N,/L24-*%
X189165000Y-106645000D03*
%TO.P,J7,25,Pin_25*%
%TO.N,unconnected-(J7-Pin_25-Pad25)*%
X191325000Y-106645000D03*
%TO.P,J7,26,Pin_26*%
%TO.N,/L1+*%
X139485000Y-110935000D03*
%TO.P,J7,27,Pin_27*%
%TO.N,/L2+*%
X141645000Y-110935000D03*
%TO.P,J7,28,Pin_28*%
%TO.N,/L3+*%
X143805000Y-110935000D03*
%TO.P,J7,29,Pin_29*%
%TO.N,/L4+*%
X145965000Y-110935000D03*
%TO.P,J7,30,Pin_30*%
%TO.N,/L5+*%
X148125000Y-110935000D03*
%TO.P,J7,31,Pin_31*%
%TO.N,/L6+*%
X150285000Y-110935000D03*
%TO.P,J7,32,Pin_32*%
%TO.N,/L7+*%
X152445000Y-110935000D03*
%TO.P,J7,33,Pin_33*%
%TO.N,/L8+*%
X154605000Y-110935000D03*
%TO.P,J7,34,Pin_34*%
%TO.N,/L9+*%
X156765000Y-110935000D03*
%TO.P,J7,35,Pin_35*%
%TO.N,/L10+*%
X158925000Y-110935000D03*
%TO.P,J7,36,Pin_36*%
%TO.N,/L11+*%
X161085000Y-110935000D03*
%TO.P,J7,37,Pin_37*%
%TO.N,/L12+*%
X163245000Y-110935000D03*
%TO.P,J7,38,Pin_38*%
%TO.N,/L13+*%
X165405000Y-110935000D03*
%TO.P,J7,39,Pin_39*%
%TO.N,/L14+*%
X167565000Y-110935000D03*
%TO.P,J7,40,Pin_40*%
%TO.N,/L15+*%
X169725000Y-110935000D03*
%TO.P,J7,41,Pin_41*%
%TO.N,/L16+*%
X171885000Y-110935000D03*
%TO.P,J7,42,Pin_42*%
%TO.N,/L17+*%
X174045000Y-110935000D03*
%TO.P,J7,43,Pin_43*%
%TO.N,/L18+*%
X176205000Y-110935000D03*
%TO.P,J7,44,Pin_44*%
%TO.N,/L19+*%
X178365000Y-110935000D03*
%TO.P,J7,45,Pin_45*%
%TO.N,/L20+*%
X180525000Y-110935000D03*
%TO.P,J7,46,Pin_46*%
%TO.N,/L21+*%
X182685000Y-110935000D03*
%TO.P,J7,47,Pin_47*%
%TO.N,/L22+*%
X184845000Y-110935000D03*
%TO.P,J7,48,Pin_48*%
%TO.N,/L23+*%
X187005000Y-110935000D03*
%TO.P,J7,49,Pin_49*%
%TO.N,/L24+*%
X189165000Y-110935000D03*
%TO.P,J7,50,Pin_50*%
%TO.N,unconnected-(J7-Pin_50-Pad50)*%
X191325000Y-110935000D03*
%TD*%
D12*
%TO.N,/L3+*%
X143805000Y-110935000D02*
X142720000Y-109850000D01*
X142720000Y-103650000D02*
X141670000Y-102600000D01*
X121740000Y-102600000D02*
X119460000Y-100320000D01*
X142720000Y-109850000D02*
X142720000Y-103650000D01*
X119460000Y-90374650D02*
X118279345Y-89193995D01*
X119460000Y-100320000D02*
X119460000Y-90374650D01*
X141670000Y-102600000D02*
X121740000Y-102600000D01*
%TO.N,/L3-*%
X120070000Y-100364314D02*
X120070000Y-90150000D01*
X143805000Y-103240000D02*
X142765000Y-102200000D01*
X143805000Y-106645000D02*
X143805000Y-103240000D01*
X120070000Y-90150000D02*
X119549342Y-89629342D01*
X119549342Y-89629342D02*
X119549342Y-86654002D01*
X121905686Y-102200000D02*
X120070000Y-100364314D01*
X142765000Y-102200000D02*
X121905686Y-102200000D01*
%TO.N,/L4+*%
X144890000Y-109860000D02*
X145965000Y-110935000D01*
X144890000Y-103210000D02*
X144890000Y-109860000D01*
X143480000Y-101800000D02*
X144890000Y-103210000D01*
X127020000Y-101800000D02*
X143480000Y-101800000D01*
X125070000Y-90023343D02*
X125899348Y-89193995D01*
X125070000Y-99850000D02*
X125070000Y-90023343D01*
X126320000Y-101100000D02*
X125070000Y-99850000D01*
X126320000Y-101100000D02*
X127020000Y-101800000D01*
%TO.N,/L4-*%
X144055000Y-101400000D02*
X145965000Y-103310000D01*
X127840000Y-101400000D02*
X144055000Y-101400000D01*
X127210000Y-100770000D02*
X127840000Y-101400000D01*
X127169349Y-90820651D02*
X127169349Y-86654002D01*
X127210000Y-100770000D02*
X125640000Y-99200000D01*
X125640000Y-99200000D02*
X125640000Y-92350000D01*
X125640000Y-92350000D02*
X127169349Y-90820651D01*
X145965000Y-103310000D02*
X145965000Y-106645000D01*
%TO.N,/L8-*%
X151250000Y-99320000D02*
X142160000Y-99320000D01*
X142160000Y-99320000D02*
X140250000Y-97410000D01*
X154605000Y-102675000D02*
X151250000Y-99320000D01*
X140250000Y-93980000D02*
X144223683Y-90006317D01*
X140250000Y-97410000D02*
X140250000Y-93980000D01*
X144223683Y-90006317D02*
X144223683Y-86654002D01*
X154605000Y-106645000D02*
X154605000Y-102675000D01*
%TO.N,/L7+*%
X148760000Y-100520000D02*
X139680000Y-100520000D01*
X152445000Y-110935000D02*
X151370000Y-109860000D01*
X136780000Y-90640316D02*
X135333679Y-89193995D01*
X136780000Y-97620000D02*
X136780000Y-90640316D01*
X151370000Y-109860000D02*
X151370000Y-103130000D01*
X139680000Y-100520000D02*
X136780000Y-97620000D01*
X151370000Y-103130000D02*
X148760000Y-100520000D01*
%TO.N,/L8+*%
X142953682Y-89193995D02*
X139850000Y-92297677D01*
X153495000Y-109825000D02*
X154605000Y-110935000D01*
X139850000Y-97575686D02*
X141994315Y-99720000D01*
X141994315Y-99720000D02*
X150180000Y-99720000D01*
X150180000Y-99720000D02*
X153495000Y-103035000D01*
X153495000Y-103035000D02*
X153495000Y-109825000D01*
X139850000Y-92297677D02*
X139850000Y-97575686D01*
%TO.N,/L11+*%
X160000000Y-100190000D02*
X159210000Y-99400000D01*
X153970000Y-98745685D02*
X153970000Y-90775982D01*
X153970000Y-90775982D02*
X152388013Y-89193995D01*
X154624315Y-99400000D02*
X153970000Y-98745685D01*
X161085000Y-110935000D02*
X160000000Y-109850000D01*
X160000000Y-109850000D02*
X160000000Y-100190000D01*
X159210000Y-99400000D02*
X154624315Y-99400000D01*
%TO.N,/L11-*%
X161085000Y-100148069D02*
X159396931Y-98460000D01*
X154370000Y-98020000D02*
X154370000Y-90610296D01*
X154370000Y-90610296D02*
X153658010Y-89898306D01*
X153658010Y-89898306D02*
X153658010Y-86654002D01*
X159396931Y-98460000D02*
X154810000Y-98460000D01*
X161085000Y-106645000D02*
X161085000Y-100148069D01*
X154810000Y-98460000D02*
X154370000Y-98020000D01*
%TO.N,/L16+*%
X176420000Y-89836345D02*
X177062350Y-89193995D01*
X171885000Y-110935000D02*
X170790000Y-109840000D01*
X176420000Y-99600000D02*
X176420000Y-89836345D01*
X170790000Y-109840000D02*
X170790000Y-105230000D01*
X170790000Y-105230000D02*
X176420000Y-99600000D01*
%TO.N,/L14-*%
X175792346Y-99307654D02*
X175792346Y-86654002D01*
X168090000Y-104760000D02*
X170340000Y-104760000D01*
X167525000Y-105325000D02*
X168090000Y-104760000D01*
X170340000Y-104760000D02*
X175792346Y-99307654D01*
X167525000Y-106455000D02*
X167525000Y-105325000D01*
%TO.N,/L13-*%
X165405000Y-103905000D02*
X165405000Y-106645000D01*
X170390000Y-102750000D02*
X166610000Y-102750000D01*
X166610000Y-102750000D02*
X166560000Y-102750000D01*
X172110000Y-101040000D02*
X172114314Y-101040000D01*
X173252345Y-99901969D02*
X173252345Y-86654002D01*
X172110000Y-101040000D02*
X172100000Y-101040000D01*
X166560000Y-102750000D02*
X165405000Y-103905000D01*
X172114314Y-101040000D02*
X173252345Y-99901969D01*
X172100000Y-101040000D02*
X170390000Y-102750000D01*
%TO.N,/L13+*%
X170502629Y-103750000D02*
X166950000Y-103750000D01*
X171830000Y-102422629D02*
X170502629Y-103750000D01*
X166490000Y-104210000D02*
X166490000Y-109850000D01*
X174522349Y-99777651D02*
X171877371Y-102422629D01*
X171877371Y-102422629D02*
X171830000Y-102422629D01*
X166490000Y-109850000D02*
X165405000Y-110935000D01*
X166950000Y-103750000D02*
X166490000Y-104210000D01*
X174522349Y-89193995D02*
X174522349Y-99777651D01*
%TO.N,/L17-*%
X187117257Y-99950000D02*
X190306679Y-96760578D01*
X179364315Y-99950000D02*
X187117257Y-99950000D01*
X174045000Y-106645000D02*
X174045000Y-105269315D01*
X174045000Y-105269315D02*
X179364315Y-99950000D01*
X190306679Y-96760578D02*
X190306679Y-86654002D01*
%TO.N,/L18-*%
X176205000Y-106645000D02*
X182100000Y-100750000D01*
X187448628Y-100750000D02*
X192846680Y-95351950D01*
X182100000Y-100750000D02*
X187448628Y-100750000D01*
X192846680Y-95351950D02*
X192846680Y-86654002D01*
%TO.N,/L20+*%
X179475000Y-105275000D02*
X183600000Y-101150000D01*
X179475000Y-109885000D02*
X179475000Y-105275000D01*
X180525000Y-110935000D02*
X179475000Y-109885000D01*
X183600000Y-101150000D02*
X187614314Y-101150000D01*
X194116684Y-94647631D02*
X194116684Y-89193995D01*
X187614314Y-101150000D02*
X194116684Y-94647631D01*
%TO.N,/L17+*%
X179530001Y-100350000D02*
X175120000Y-104760000D01*
X191576683Y-96056259D02*
X187282942Y-100350000D01*
X191576683Y-89193995D02*
X191576683Y-96056259D01*
X187282942Y-100350000D02*
X179530001Y-100350000D01*
X175120000Y-109860000D02*
X174045000Y-110935000D01*
X175120000Y-104760000D02*
X175120000Y-109860000D01*
%TO.N,/L21+*%
X183760000Y-109860000D02*
X183760000Y-106135686D01*
X208631017Y-95757611D02*
X208631017Y-89193995D01*
X187705686Y-102190000D02*
X202198628Y-102190000D01*
X183760000Y-106135686D02*
X187705686Y-102190000D01*
X202198628Y-102190000D02*
X208631017Y-95757611D01*
X182685000Y-110935000D02*
X183760000Y-109860000D01*
%TO.N,/L21-*%
X182685000Y-106645000D02*
X187540001Y-101790000D01*
X187540001Y-101790000D02*
X202032942Y-101790000D01*
X207361013Y-96461929D02*
X207361013Y-86654002D01*
X202032942Y-101790000D02*
X207361013Y-96461929D01*
%TO.N,/L24-*%
X210710000Y-91840000D02*
X212441019Y-90108981D01*
X189165000Y-106645000D02*
X192820000Y-102990000D01*
X192820000Y-102990000D02*
X202530000Y-102990000D01*
X202530000Y-102990000D02*
X210710000Y-94810000D01*
X212441019Y-90108981D02*
X212441019Y-86654002D01*
X210710000Y-94810000D02*
X210710000Y-91840000D01*
%TO.N,/L22-*%
X209901014Y-95053300D02*
X202364314Y-102590000D01*
X202364314Y-102590000D02*
X188900000Y-102590000D01*
X209901014Y-86654002D02*
X209901014Y-95053300D01*
X188900000Y-102590000D02*
X184845000Y-106645000D01*
%TO.N,/L7-*%
X140240000Y-100120000D02*
X149490000Y-100120000D01*
X136603676Y-86654002D02*
X136603676Y-89819627D01*
X136603676Y-89819627D02*
X137180000Y-90395951D01*
X137180000Y-97060000D02*
X140240000Y-100120000D01*
X152445000Y-103075000D02*
X152445000Y-106645000D01*
X137180000Y-90395951D02*
X137180000Y-97060000D01*
X149490000Y-100120000D02*
X152445000Y-103075000D01*
%TD*%
M02*
