%TF.GenerationSoftware,KiCad,Pcbnew,8.0.1*%
%TF.CreationDate,2024-07-20T21:17:44+01:00*%
%TF.ProjectId,MICRO_TRUNK_6_INSULATOR_FRONT,4d494352-4f5f-4545-9255-4e4b5f365f49,rev?*%
%TF.SameCoordinates,Original*%
%TF.FileFunction,Drillmap*%
%TF.FilePolarity,Positive*%
%FSLAX45Y45*%
G04 Gerber Fmt 4.5, Leading zero omitted, Abs format (unit mm)*
G04 Created by KiCad (PCBNEW 8.0.1) date 2024-07-20 21:17:44*
%MOMM*%
%LPD*%
G01*
G04 APERTURE LIST*
%ADD10C,0.050000*%
%ADD11C,0.200000*%
%ADD12C,0.320000*%
G04 APERTURE END LIST*
D10*
X10990250Y-9223892D02*
G75*
G02*
X10190250Y-9223892I-400000J0D01*
G01*
X10190250Y-9223892D02*
G75*
G02*
X10990250Y-9223892I400000J0D01*
G01*
X19863021Y-10340000D02*
X8899396Y-10340236D01*
X8899396Y-10340236D02*
G75*
G02*
X8641895Y-10083257I4J257506D01*
G01*
X18470250Y-9223892D02*
G75*
G02*
X17670250Y-9223892I-400000J0D01*
G01*
X17670250Y-9223892D02*
G75*
G02*
X18470250Y-9223892I400000J0D01*
G01*
X8643016Y-8553892D02*
X20120000Y-8555000D01*
X20120000Y-10082500D02*
X20120000Y-8555000D01*
X20120000Y-10082500D02*
G75*
G02*
X19863021Y-10340000I-257500J0D01*
G01*
X8641896Y-10083257D02*
X8643016Y-8553892D01*
D11*
D12*
X8922302Y-9287618D02*
X9242302Y-9607618D01*
X9242302Y-9287618D02*
X8922302Y-9607618D01*
X19519302Y-9287618D02*
X19839302Y-9607618D01*
X19839302Y-9287618D02*
X19519302Y-9607618D01*
D11*
X8900173Y-10654219D02*
X8900173Y-10454219D01*
X8900173Y-10454219D02*
X8947792Y-10454219D01*
X8947792Y-10454219D02*
X8976363Y-10463743D01*
X8976363Y-10463743D02*
X8995411Y-10482791D01*
X8995411Y-10482791D02*
X9004935Y-10501838D01*
X9004935Y-10501838D02*
X9014458Y-10539934D01*
X9014458Y-10539934D02*
X9014458Y-10568505D01*
X9014458Y-10568505D02*
X9004935Y-10606600D01*
X9004935Y-10606600D02*
X8995411Y-10625648D01*
X8995411Y-10625648D02*
X8976363Y-10644696D01*
X8976363Y-10644696D02*
X8947792Y-10654219D01*
X8947792Y-10654219D02*
X8900173Y-10654219D01*
X9100173Y-10654219D02*
X9100173Y-10520886D01*
X9100173Y-10558981D02*
X9109697Y-10539934D01*
X9109697Y-10539934D02*
X9119220Y-10530410D01*
X9119220Y-10530410D02*
X9138268Y-10520886D01*
X9138268Y-10520886D02*
X9157316Y-10520886D01*
X9223982Y-10654219D02*
X9223982Y-10520886D01*
X9223982Y-10454219D02*
X9214458Y-10463743D01*
X9214458Y-10463743D02*
X9223982Y-10473267D01*
X9223982Y-10473267D02*
X9233506Y-10463743D01*
X9233506Y-10463743D02*
X9223982Y-10454219D01*
X9223982Y-10454219D02*
X9223982Y-10473267D01*
X9347792Y-10654219D02*
X9328744Y-10644696D01*
X9328744Y-10644696D02*
X9319220Y-10625648D01*
X9319220Y-10625648D02*
X9319220Y-10454219D01*
X9452554Y-10654219D02*
X9433506Y-10644696D01*
X9433506Y-10644696D02*
X9423982Y-10625648D01*
X9423982Y-10625648D02*
X9423982Y-10454219D01*
X9681125Y-10654219D02*
X9681125Y-10454219D01*
X9681125Y-10454219D02*
X9747792Y-10597077D01*
X9747792Y-10597077D02*
X9814458Y-10454219D01*
X9814458Y-10454219D02*
X9814458Y-10654219D01*
X9995411Y-10654219D02*
X9995411Y-10549458D01*
X9995411Y-10549458D02*
X9985887Y-10530410D01*
X9985887Y-10530410D02*
X9966839Y-10520886D01*
X9966839Y-10520886D02*
X9928744Y-10520886D01*
X9928744Y-10520886D02*
X9909697Y-10530410D01*
X9995411Y-10644696D02*
X9976363Y-10654219D01*
X9976363Y-10654219D02*
X9928744Y-10654219D01*
X9928744Y-10654219D02*
X9909697Y-10644696D01*
X9909697Y-10644696D02*
X9900173Y-10625648D01*
X9900173Y-10625648D02*
X9900173Y-10606600D01*
X9900173Y-10606600D02*
X9909697Y-10587553D01*
X9909697Y-10587553D02*
X9928744Y-10578029D01*
X9928744Y-10578029D02*
X9976363Y-10578029D01*
X9976363Y-10578029D02*
X9995411Y-10568505D01*
X10090649Y-10520886D02*
X10090649Y-10720886D01*
X10090649Y-10530410D02*
X10109697Y-10520886D01*
X10109697Y-10520886D02*
X10147792Y-10520886D01*
X10147792Y-10520886D02*
X10166839Y-10530410D01*
X10166839Y-10530410D02*
X10176363Y-10539934D01*
X10176363Y-10539934D02*
X10185887Y-10558981D01*
X10185887Y-10558981D02*
X10185887Y-10616124D01*
X10185887Y-10616124D02*
X10176363Y-10635172D01*
X10176363Y-10635172D02*
X10166839Y-10644696D01*
X10166839Y-10644696D02*
X10147792Y-10654219D01*
X10147792Y-10654219D02*
X10109697Y-10654219D01*
X10109697Y-10654219D02*
X10090649Y-10644696D01*
X10271601Y-10635172D02*
X10281125Y-10644696D01*
X10281125Y-10644696D02*
X10271601Y-10654219D01*
X10271601Y-10654219D02*
X10262078Y-10644696D01*
X10262078Y-10644696D02*
X10271601Y-10635172D01*
X10271601Y-10635172D02*
X10271601Y-10654219D01*
X10271601Y-10530410D02*
X10281125Y-10539934D01*
X10281125Y-10539934D02*
X10271601Y-10549458D01*
X10271601Y-10549458D02*
X10262078Y-10539934D01*
X10262078Y-10539934D02*
X10271601Y-10530410D01*
X10271601Y-10530410D02*
X10271601Y-10549458D01*
X8439396Y-10882736D02*
X8639396Y-11082736D01*
X8639396Y-10882736D02*
X8439396Y-11082736D01*
X8881125Y-10874219D02*
X9004935Y-10874219D01*
X9004935Y-10874219D02*
X8938268Y-10950410D01*
X8938268Y-10950410D02*
X8966839Y-10950410D01*
X8966839Y-10950410D02*
X8985887Y-10959934D01*
X8985887Y-10959934D02*
X8995411Y-10969458D01*
X8995411Y-10969458D02*
X9004935Y-10988505D01*
X9004935Y-10988505D02*
X9004935Y-11036124D01*
X9004935Y-11036124D02*
X8995411Y-11055172D01*
X8995411Y-11055172D02*
X8985887Y-11064696D01*
X8985887Y-11064696D02*
X8966839Y-11074219D01*
X8966839Y-11074219D02*
X8909697Y-11074219D01*
X8909697Y-11074219D02*
X8890649Y-11064696D01*
X8890649Y-11064696D02*
X8881125Y-11055172D01*
X9090649Y-11055172D02*
X9100173Y-11064696D01*
X9100173Y-11064696D02*
X9090649Y-11074219D01*
X9090649Y-11074219D02*
X9081125Y-11064696D01*
X9081125Y-11064696D02*
X9090649Y-11055172D01*
X9090649Y-11055172D02*
X9090649Y-11074219D01*
X9176363Y-10893267D02*
X9185887Y-10883743D01*
X9185887Y-10883743D02*
X9204935Y-10874219D01*
X9204935Y-10874219D02*
X9252554Y-10874219D01*
X9252554Y-10874219D02*
X9271601Y-10883743D01*
X9271601Y-10883743D02*
X9281125Y-10893267D01*
X9281125Y-10893267D02*
X9290649Y-10912315D01*
X9290649Y-10912315D02*
X9290649Y-10931362D01*
X9290649Y-10931362D02*
X9281125Y-10959934D01*
X9281125Y-10959934D02*
X9166839Y-11074219D01*
X9166839Y-11074219D02*
X9290649Y-11074219D01*
X9414458Y-10874219D02*
X9433506Y-10874219D01*
X9433506Y-10874219D02*
X9452554Y-10883743D01*
X9452554Y-10883743D02*
X9462078Y-10893267D01*
X9462078Y-10893267D02*
X9471601Y-10912315D01*
X9471601Y-10912315D02*
X9481125Y-10950410D01*
X9481125Y-10950410D02*
X9481125Y-10998029D01*
X9481125Y-10998029D02*
X9471601Y-11036124D01*
X9471601Y-11036124D02*
X9462078Y-11055172D01*
X9462078Y-11055172D02*
X9452554Y-11064696D01*
X9452554Y-11064696D02*
X9433506Y-11074219D01*
X9433506Y-11074219D02*
X9414458Y-11074219D01*
X9414458Y-11074219D02*
X9395411Y-11064696D01*
X9395411Y-11064696D02*
X9385887Y-11055172D01*
X9385887Y-11055172D02*
X9376363Y-11036124D01*
X9376363Y-11036124D02*
X9366839Y-10998029D01*
X9366839Y-10998029D02*
X9366839Y-10950410D01*
X9366839Y-10950410D02*
X9376363Y-10912315D01*
X9376363Y-10912315D02*
X9385887Y-10893267D01*
X9385887Y-10893267D02*
X9395411Y-10883743D01*
X9395411Y-10883743D02*
X9414458Y-10874219D01*
X9604935Y-10874219D02*
X9623982Y-10874219D01*
X9623982Y-10874219D02*
X9643030Y-10883743D01*
X9643030Y-10883743D02*
X9652554Y-10893267D01*
X9652554Y-10893267D02*
X9662078Y-10912315D01*
X9662078Y-10912315D02*
X9671601Y-10950410D01*
X9671601Y-10950410D02*
X9671601Y-10998029D01*
X9671601Y-10998029D02*
X9662078Y-11036124D01*
X9662078Y-11036124D02*
X9652554Y-11055172D01*
X9652554Y-11055172D02*
X9643030Y-11064696D01*
X9643030Y-11064696D02*
X9623982Y-11074219D01*
X9623982Y-11074219D02*
X9604935Y-11074219D01*
X9604935Y-11074219D02*
X9585887Y-11064696D01*
X9585887Y-11064696D02*
X9576363Y-11055172D01*
X9576363Y-11055172D02*
X9566839Y-11036124D01*
X9566839Y-11036124D02*
X9557316Y-10998029D01*
X9557316Y-10998029D02*
X9557316Y-10950410D01*
X9557316Y-10950410D02*
X9566839Y-10912315D01*
X9566839Y-10912315D02*
X9576363Y-10893267D01*
X9576363Y-10893267D02*
X9585887Y-10883743D01*
X9585887Y-10883743D02*
X9604935Y-10874219D01*
X9757316Y-11074219D02*
X9757316Y-10940886D01*
X9757316Y-10959934D02*
X9766839Y-10950410D01*
X9766839Y-10950410D02*
X9785887Y-10940886D01*
X9785887Y-10940886D02*
X9814459Y-10940886D01*
X9814459Y-10940886D02*
X9833506Y-10950410D01*
X9833506Y-10950410D02*
X9843030Y-10969458D01*
X9843030Y-10969458D02*
X9843030Y-11074219D01*
X9843030Y-10969458D02*
X9852554Y-10950410D01*
X9852554Y-10950410D02*
X9871601Y-10940886D01*
X9871601Y-10940886D02*
X9900173Y-10940886D01*
X9900173Y-10940886D02*
X9919220Y-10950410D01*
X9919220Y-10950410D02*
X9928744Y-10969458D01*
X9928744Y-10969458D02*
X9928744Y-11074219D01*
X10023982Y-11074219D02*
X10023982Y-10940886D01*
X10023982Y-10959934D02*
X10033506Y-10950410D01*
X10033506Y-10950410D02*
X10052554Y-10940886D01*
X10052554Y-10940886D02*
X10081125Y-10940886D01*
X10081125Y-10940886D02*
X10100173Y-10950410D01*
X10100173Y-10950410D02*
X10109697Y-10969458D01*
X10109697Y-10969458D02*
X10109697Y-11074219D01*
X10109697Y-10969458D02*
X10119220Y-10950410D01*
X10119220Y-10950410D02*
X10138268Y-10940886D01*
X10138268Y-10940886D02*
X10166839Y-10940886D01*
X10166839Y-10940886D02*
X10185887Y-10950410D01*
X10185887Y-10950410D02*
X10195411Y-10969458D01*
X10195411Y-10969458D02*
X10195411Y-11074219D01*
X10585887Y-10864696D02*
X10414459Y-11121838D01*
X10843030Y-10874219D02*
X10862078Y-10874219D01*
X10862078Y-10874219D02*
X10881125Y-10883743D01*
X10881125Y-10883743D02*
X10890649Y-10893267D01*
X10890649Y-10893267D02*
X10900173Y-10912315D01*
X10900173Y-10912315D02*
X10909697Y-10950410D01*
X10909697Y-10950410D02*
X10909697Y-10998029D01*
X10909697Y-10998029D02*
X10900173Y-11036124D01*
X10900173Y-11036124D02*
X10890649Y-11055172D01*
X10890649Y-11055172D02*
X10881125Y-11064696D01*
X10881125Y-11064696D02*
X10862078Y-11074219D01*
X10862078Y-11074219D02*
X10843030Y-11074219D01*
X10843030Y-11074219D02*
X10823982Y-11064696D01*
X10823982Y-11064696D02*
X10814459Y-11055172D01*
X10814459Y-11055172D02*
X10804935Y-11036124D01*
X10804935Y-11036124D02*
X10795411Y-10998029D01*
X10795411Y-10998029D02*
X10795411Y-10950410D01*
X10795411Y-10950410D02*
X10804935Y-10912315D01*
X10804935Y-10912315D02*
X10814459Y-10893267D01*
X10814459Y-10893267D02*
X10823982Y-10883743D01*
X10823982Y-10883743D02*
X10843030Y-10874219D01*
X10995411Y-11055172D02*
X11004935Y-11064696D01*
X11004935Y-11064696D02*
X10995411Y-11074219D01*
X10995411Y-11074219D02*
X10985887Y-11064696D01*
X10985887Y-11064696D02*
X10995411Y-11055172D01*
X10995411Y-11055172D02*
X10995411Y-11074219D01*
X11195411Y-11074219D02*
X11081125Y-11074219D01*
X11138268Y-11074219D02*
X11138268Y-10874219D01*
X11138268Y-10874219D02*
X11119221Y-10902791D01*
X11119221Y-10902791D02*
X11100173Y-10921838D01*
X11100173Y-10921838D02*
X11081125Y-10931362D01*
X11271601Y-10893267D02*
X11281125Y-10883743D01*
X11281125Y-10883743D02*
X11300173Y-10874219D01*
X11300173Y-10874219D02*
X11347792Y-10874219D01*
X11347792Y-10874219D02*
X11366840Y-10883743D01*
X11366840Y-10883743D02*
X11376363Y-10893267D01*
X11376363Y-10893267D02*
X11385887Y-10912315D01*
X11385887Y-10912315D02*
X11385887Y-10931362D01*
X11385887Y-10931362D02*
X11376363Y-10959934D01*
X11376363Y-10959934D02*
X11262078Y-11074219D01*
X11262078Y-11074219D02*
X11385887Y-11074219D01*
X11557316Y-10874219D02*
X11519220Y-10874219D01*
X11519220Y-10874219D02*
X11500173Y-10883743D01*
X11500173Y-10883743D02*
X11490649Y-10893267D01*
X11490649Y-10893267D02*
X11471601Y-10921838D01*
X11471601Y-10921838D02*
X11462078Y-10959934D01*
X11462078Y-10959934D02*
X11462078Y-11036124D01*
X11462078Y-11036124D02*
X11471601Y-11055172D01*
X11471601Y-11055172D02*
X11481125Y-11064696D01*
X11481125Y-11064696D02*
X11500173Y-11074219D01*
X11500173Y-11074219D02*
X11538268Y-11074219D01*
X11538268Y-11074219D02*
X11557316Y-11064696D01*
X11557316Y-11064696D02*
X11566840Y-11055172D01*
X11566840Y-11055172D02*
X11576363Y-11036124D01*
X11576363Y-11036124D02*
X11576363Y-10988505D01*
X11576363Y-10988505D02*
X11566840Y-10969458D01*
X11566840Y-10969458D02*
X11557316Y-10959934D01*
X11557316Y-10959934D02*
X11538268Y-10950410D01*
X11538268Y-10950410D02*
X11500173Y-10950410D01*
X11500173Y-10950410D02*
X11481125Y-10959934D01*
X11481125Y-10959934D02*
X11471601Y-10969458D01*
X11471601Y-10969458D02*
X11462078Y-10988505D01*
X11700173Y-10874219D02*
X11719221Y-10874219D01*
X11719221Y-10874219D02*
X11738268Y-10883743D01*
X11738268Y-10883743D02*
X11747792Y-10893267D01*
X11747792Y-10893267D02*
X11757316Y-10912315D01*
X11757316Y-10912315D02*
X11766840Y-10950410D01*
X11766840Y-10950410D02*
X11766840Y-10998029D01*
X11766840Y-10998029D02*
X11757316Y-11036124D01*
X11757316Y-11036124D02*
X11747792Y-11055172D01*
X11747792Y-11055172D02*
X11738268Y-11064696D01*
X11738268Y-11064696D02*
X11719221Y-11074219D01*
X11719221Y-11074219D02*
X11700173Y-11074219D01*
X11700173Y-11074219D02*
X11681125Y-11064696D01*
X11681125Y-11064696D02*
X11671601Y-11055172D01*
X11671601Y-11055172D02*
X11662078Y-11036124D01*
X11662078Y-11036124D02*
X11652554Y-10998029D01*
X11652554Y-10998029D02*
X11652554Y-10950410D01*
X11652554Y-10950410D02*
X11662078Y-10912315D01*
X11662078Y-10912315D02*
X11671601Y-10893267D01*
X11671601Y-10893267D02*
X11681125Y-10883743D01*
X11681125Y-10883743D02*
X11700173Y-10874219D01*
X11843030Y-10874219D02*
X11843030Y-10912315D01*
X11919221Y-10874219D02*
X11919221Y-10912315D01*
X12214459Y-11150410D02*
X12204935Y-11140886D01*
X12204935Y-11140886D02*
X12185887Y-11112315D01*
X12185887Y-11112315D02*
X12176363Y-11093267D01*
X12176363Y-11093267D02*
X12166840Y-11064696D01*
X12166840Y-11064696D02*
X12157316Y-11017077D01*
X12157316Y-11017077D02*
X12157316Y-10978981D01*
X12157316Y-10978981D02*
X12166840Y-10931362D01*
X12166840Y-10931362D02*
X12176363Y-10902791D01*
X12176363Y-10902791D02*
X12185887Y-10883743D01*
X12185887Y-10883743D02*
X12204935Y-10855172D01*
X12204935Y-10855172D02*
X12214459Y-10845648D01*
X12281125Y-10893267D02*
X12290649Y-10883743D01*
X12290649Y-10883743D02*
X12309697Y-10874219D01*
X12309697Y-10874219D02*
X12357316Y-10874219D01*
X12357316Y-10874219D02*
X12376363Y-10883743D01*
X12376363Y-10883743D02*
X12385887Y-10893267D01*
X12385887Y-10893267D02*
X12395411Y-10912315D01*
X12395411Y-10912315D02*
X12395411Y-10931362D01*
X12395411Y-10931362D02*
X12385887Y-10959934D01*
X12385887Y-10959934D02*
X12271602Y-11074219D01*
X12271602Y-11074219D02*
X12395411Y-11074219D01*
X12633506Y-11074219D02*
X12633506Y-10874219D01*
X12719221Y-11074219D02*
X12719221Y-10969458D01*
X12719221Y-10969458D02*
X12709697Y-10950410D01*
X12709697Y-10950410D02*
X12690649Y-10940886D01*
X12690649Y-10940886D02*
X12662078Y-10940886D01*
X12662078Y-10940886D02*
X12643030Y-10950410D01*
X12643030Y-10950410D02*
X12633506Y-10959934D01*
X12843030Y-11074219D02*
X12823983Y-11064696D01*
X12823983Y-11064696D02*
X12814459Y-11055172D01*
X12814459Y-11055172D02*
X12804935Y-11036124D01*
X12804935Y-11036124D02*
X12804935Y-10978981D01*
X12804935Y-10978981D02*
X12814459Y-10959934D01*
X12814459Y-10959934D02*
X12823983Y-10950410D01*
X12823983Y-10950410D02*
X12843030Y-10940886D01*
X12843030Y-10940886D02*
X12871602Y-10940886D01*
X12871602Y-10940886D02*
X12890649Y-10950410D01*
X12890649Y-10950410D02*
X12900173Y-10959934D01*
X12900173Y-10959934D02*
X12909697Y-10978981D01*
X12909697Y-10978981D02*
X12909697Y-11036124D01*
X12909697Y-11036124D02*
X12900173Y-11055172D01*
X12900173Y-11055172D02*
X12890649Y-11064696D01*
X12890649Y-11064696D02*
X12871602Y-11074219D01*
X12871602Y-11074219D02*
X12843030Y-11074219D01*
X13023983Y-11074219D02*
X13004935Y-11064696D01*
X13004935Y-11064696D02*
X12995411Y-11045648D01*
X12995411Y-11045648D02*
X12995411Y-10874219D01*
X13176364Y-11064696D02*
X13157316Y-11074219D01*
X13157316Y-11074219D02*
X13119221Y-11074219D01*
X13119221Y-11074219D02*
X13100173Y-11064696D01*
X13100173Y-11064696D02*
X13090649Y-11045648D01*
X13090649Y-11045648D02*
X13090649Y-10969458D01*
X13090649Y-10969458D02*
X13100173Y-10950410D01*
X13100173Y-10950410D02*
X13119221Y-10940886D01*
X13119221Y-10940886D02*
X13157316Y-10940886D01*
X13157316Y-10940886D02*
X13176364Y-10950410D01*
X13176364Y-10950410D02*
X13185887Y-10969458D01*
X13185887Y-10969458D02*
X13185887Y-10988505D01*
X13185887Y-10988505D02*
X13090649Y-11007553D01*
X13262078Y-11064696D02*
X13281125Y-11074219D01*
X13281125Y-11074219D02*
X13319221Y-11074219D01*
X13319221Y-11074219D02*
X13338268Y-11064696D01*
X13338268Y-11064696D02*
X13347792Y-11045648D01*
X13347792Y-11045648D02*
X13347792Y-11036124D01*
X13347792Y-11036124D02*
X13338268Y-11017077D01*
X13338268Y-11017077D02*
X13319221Y-11007553D01*
X13319221Y-11007553D02*
X13290649Y-11007553D01*
X13290649Y-11007553D02*
X13271602Y-10998029D01*
X13271602Y-10998029D02*
X13262078Y-10978981D01*
X13262078Y-10978981D02*
X13262078Y-10969458D01*
X13262078Y-10969458D02*
X13271602Y-10950410D01*
X13271602Y-10950410D02*
X13290649Y-10940886D01*
X13290649Y-10940886D02*
X13319221Y-10940886D01*
X13319221Y-10940886D02*
X13338268Y-10950410D01*
X13414459Y-11150410D02*
X13423983Y-11140886D01*
X13423983Y-11140886D02*
X13443030Y-11112315D01*
X13443030Y-11112315D02*
X13452554Y-11093267D01*
X13452554Y-11093267D02*
X13462078Y-11064696D01*
X13462078Y-11064696D02*
X13471602Y-11017077D01*
X13471602Y-11017077D02*
X13471602Y-10978981D01*
X13471602Y-10978981D02*
X13462078Y-10931362D01*
X13462078Y-10931362D02*
X13452554Y-10902791D01*
X13452554Y-10902791D02*
X13443030Y-10883743D01*
X13443030Y-10883743D02*
X13423983Y-10855172D01*
X13423983Y-10855172D02*
X13414459Y-10845648D01*
X13776364Y-11150410D02*
X13766840Y-11140886D01*
X13766840Y-11140886D02*
X13747792Y-11112315D01*
X13747792Y-11112315D02*
X13738268Y-11093267D01*
X13738268Y-11093267D02*
X13728745Y-11064696D01*
X13728745Y-11064696D02*
X13719221Y-11017077D01*
X13719221Y-11017077D02*
X13719221Y-10978981D01*
X13719221Y-10978981D02*
X13728745Y-10931362D01*
X13728745Y-10931362D02*
X13738268Y-10902791D01*
X13738268Y-10902791D02*
X13747792Y-10883743D01*
X13747792Y-10883743D02*
X13766840Y-10855172D01*
X13766840Y-10855172D02*
X13776364Y-10845648D01*
X13852554Y-10940886D02*
X13852554Y-11074219D01*
X13852554Y-10959934D02*
X13862078Y-10950410D01*
X13862078Y-10950410D02*
X13881125Y-10940886D01*
X13881125Y-10940886D02*
X13909697Y-10940886D01*
X13909697Y-10940886D02*
X13928745Y-10950410D01*
X13928745Y-10950410D02*
X13938268Y-10969458D01*
X13938268Y-10969458D02*
X13938268Y-11074219D01*
X14062078Y-11074219D02*
X14043030Y-11064696D01*
X14043030Y-11064696D02*
X14033506Y-11055172D01*
X14033506Y-11055172D02*
X14023983Y-11036124D01*
X14023983Y-11036124D02*
X14023983Y-10978981D01*
X14023983Y-10978981D02*
X14033506Y-10959934D01*
X14033506Y-10959934D02*
X14043030Y-10950410D01*
X14043030Y-10950410D02*
X14062078Y-10940886D01*
X14062078Y-10940886D02*
X14090649Y-10940886D01*
X14090649Y-10940886D02*
X14109697Y-10950410D01*
X14109697Y-10950410D02*
X14119221Y-10959934D01*
X14119221Y-10959934D02*
X14128745Y-10978981D01*
X14128745Y-10978981D02*
X14128745Y-11036124D01*
X14128745Y-11036124D02*
X14119221Y-11055172D01*
X14119221Y-11055172D02*
X14109697Y-11064696D01*
X14109697Y-11064696D02*
X14090649Y-11074219D01*
X14090649Y-11074219D02*
X14062078Y-11074219D01*
X14185887Y-10940886D02*
X14262078Y-10940886D01*
X14214459Y-10874219D02*
X14214459Y-11045648D01*
X14214459Y-11045648D02*
X14223983Y-11064696D01*
X14223983Y-11064696D02*
X14243030Y-11074219D01*
X14243030Y-11074219D02*
X14262078Y-11074219D01*
X14481126Y-10940886D02*
X14481126Y-11140886D01*
X14481126Y-10950410D02*
X14500173Y-10940886D01*
X14500173Y-10940886D02*
X14538268Y-10940886D01*
X14538268Y-10940886D02*
X14557316Y-10950410D01*
X14557316Y-10950410D02*
X14566840Y-10959934D01*
X14566840Y-10959934D02*
X14576364Y-10978981D01*
X14576364Y-10978981D02*
X14576364Y-11036124D01*
X14576364Y-11036124D02*
X14566840Y-11055172D01*
X14566840Y-11055172D02*
X14557316Y-11064696D01*
X14557316Y-11064696D02*
X14538268Y-11074219D01*
X14538268Y-11074219D02*
X14500173Y-11074219D01*
X14500173Y-11074219D02*
X14481126Y-11064696D01*
X14690649Y-11074219D02*
X14671602Y-11064696D01*
X14671602Y-11064696D02*
X14662078Y-11045648D01*
X14662078Y-11045648D02*
X14662078Y-10874219D01*
X14852554Y-11074219D02*
X14852554Y-10969458D01*
X14852554Y-10969458D02*
X14843030Y-10950410D01*
X14843030Y-10950410D02*
X14823983Y-10940886D01*
X14823983Y-10940886D02*
X14785887Y-10940886D01*
X14785887Y-10940886D02*
X14766840Y-10950410D01*
X14852554Y-11064696D02*
X14833507Y-11074219D01*
X14833507Y-11074219D02*
X14785887Y-11074219D01*
X14785887Y-11074219D02*
X14766840Y-11064696D01*
X14766840Y-11064696D02*
X14757316Y-11045648D01*
X14757316Y-11045648D02*
X14757316Y-11026600D01*
X14757316Y-11026600D02*
X14766840Y-11007553D01*
X14766840Y-11007553D02*
X14785887Y-10998029D01*
X14785887Y-10998029D02*
X14833507Y-10998029D01*
X14833507Y-10998029D02*
X14852554Y-10988505D01*
X14919221Y-10940886D02*
X14995411Y-10940886D01*
X14947792Y-10874219D02*
X14947792Y-11045648D01*
X14947792Y-11045648D02*
X14957316Y-11064696D01*
X14957316Y-11064696D02*
X14976364Y-11074219D01*
X14976364Y-11074219D02*
X14995411Y-11074219D01*
X15138268Y-11064696D02*
X15119221Y-11074219D01*
X15119221Y-11074219D02*
X15081126Y-11074219D01*
X15081126Y-11074219D02*
X15062078Y-11064696D01*
X15062078Y-11064696D02*
X15052554Y-11045648D01*
X15052554Y-11045648D02*
X15052554Y-10969458D01*
X15052554Y-10969458D02*
X15062078Y-10950410D01*
X15062078Y-10950410D02*
X15081126Y-10940886D01*
X15081126Y-10940886D02*
X15119221Y-10940886D01*
X15119221Y-10940886D02*
X15138268Y-10950410D01*
X15138268Y-10950410D02*
X15147792Y-10969458D01*
X15147792Y-10969458D02*
X15147792Y-10988505D01*
X15147792Y-10988505D02*
X15052554Y-11007553D01*
X15319221Y-11074219D02*
X15319221Y-10874219D01*
X15319221Y-11064696D02*
X15300173Y-11074219D01*
X15300173Y-11074219D02*
X15262078Y-11074219D01*
X15262078Y-11074219D02*
X15243030Y-11064696D01*
X15243030Y-11064696D02*
X15233507Y-11055172D01*
X15233507Y-11055172D02*
X15223983Y-11036124D01*
X15223983Y-11036124D02*
X15223983Y-10978981D01*
X15223983Y-10978981D02*
X15233507Y-10959934D01*
X15233507Y-10959934D02*
X15243030Y-10950410D01*
X15243030Y-10950410D02*
X15262078Y-10940886D01*
X15262078Y-10940886D02*
X15300173Y-10940886D01*
X15300173Y-10940886D02*
X15319221Y-10950410D01*
X15395411Y-11150410D02*
X15404935Y-11140886D01*
X15404935Y-11140886D02*
X15423983Y-11112315D01*
X15423983Y-11112315D02*
X15433507Y-11093267D01*
X15433507Y-11093267D02*
X15443030Y-11064696D01*
X15443030Y-11064696D02*
X15452554Y-11017077D01*
X15452554Y-11017077D02*
X15452554Y-10978981D01*
X15452554Y-10978981D02*
X15443030Y-10931362D01*
X15443030Y-10931362D02*
X15433507Y-10902791D01*
X15433507Y-10902791D02*
X15423983Y-10883743D01*
X15423983Y-10883743D02*
X15404935Y-10855172D01*
X15404935Y-10855172D02*
X15395411Y-10845648D01*
M02*
