G04 #@! TF.GenerationSoftware,KiCad,Pcbnew,8.0.1*
G04 #@! TF.CreationDate,2024-07-20T21:17:36+01:00*
G04 #@! TF.ProjectId,MICRO_TRUNK_6_INSULATOR_FRONT,4d494352-4f5f-4545-9255-4e4b5f365f49,rev?*
G04 #@! TF.SameCoordinates,Original*
G04 #@! TF.FileFunction,Legend,Bot*
G04 #@! TF.FilePolarity,Positive*
%FSLAX46Y46*%
G04 Gerber Fmt 4.6, Leading zero omitted, Abs format (unit mm)*
G04 Created by KiCad (PCBNEW 8.0.1) date 2024-07-20 21:17:36*
%MOMM*%
%LPD*%
G01*
G04 APERTURE LIST*
%ADD10C,0.300000*%
%ADD11C,3.200000*%
G04 APERTURE END LIST*
D10*
X146719254Y-94080443D02*
X146243064Y-95413777D01*
X146243064Y-95413777D02*
X145766873Y-94080443D01*
X144624016Y-93413777D02*
X144433539Y-93413777D01*
X144433539Y-93413777D02*
X144243063Y-93509015D01*
X144243063Y-93509015D02*
X144147825Y-93604253D01*
X144147825Y-93604253D02*
X144052587Y-93794729D01*
X144052587Y-93794729D02*
X143957349Y-94175681D01*
X143957349Y-94175681D02*
X143957349Y-94651872D01*
X143957349Y-94651872D02*
X144052587Y-95032824D01*
X144052587Y-95032824D02*
X144147825Y-95223300D01*
X144147825Y-95223300D02*
X144243063Y-95318539D01*
X144243063Y-95318539D02*
X144433539Y-95413777D01*
X144433539Y-95413777D02*
X144624016Y-95413777D01*
X144624016Y-95413777D02*
X144814492Y-95318539D01*
X144814492Y-95318539D02*
X144909730Y-95223300D01*
X144909730Y-95223300D02*
X145004968Y-95032824D01*
X145004968Y-95032824D02*
X145100206Y-94651872D01*
X145100206Y-94651872D02*
X145100206Y-94175681D01*
X145100206Y-94175681D02*
X145004968Y-93794729D01*
X145004968Y-93794729D02*
X144909730Y-93604253D01*
X144909730Y-93604253D02*
X144814492Y-93509015D01*
X144814492Y-93509015D02*
X144624016Y-93413777D01*
X143100206Y-95223300D02*
X143004968Y-95318539D01*
X143004968Y-95318539D02*
X143100206Y-95413777D01*
X143100206Y-95413777D02*
X143195444Y-95318539D01*
X143195444Y-95318539D02*
X143100206Y-95223300D01*
X143100206Y-95223300D02*
X143100206Y-95413777D01*
X142243063Y-93604253D02*
X142147825Y-93509015D01*
X142147825Y-93509015D02*
X141957349Y-93413777D01*
X141957349Y-93413777D02*
X141481158Y-93413777D01*
X141481158Y-93413777D02*
X141290682Y-93509015D01*
X141290682Y-93509015D02*
X141195444Y-93604253D01*
X141195444Y-93604253D02*
X141100206Y-93794729D01*
X141100206Y-93794729D02*
X141100206Y-93985205D01*
X141100206Y-93985205D02*
X141195444Y-94270919D01*
X141195444Y-94270919D02*
X142338301Y-95413777D01*
X142338301Y-95413777D02*
X141100206Y-95413777D01*
%LPC*%
D11*
X90823021Y-94476178D03*
X196793018Y-94476178D03*
%LPD*%
M02*
